<svg xmlns="http://www.w3.org/2000/svg" width="728" height="425" viewBox="0 0 728 425"><path fill="#E0E0E0" d="M0 0h728v425H0z"/><g fill="#AFAEAF"><path d="M39.3 364h10.8v2H39.3zM39.3 336.9h10.8v2H39.3zM39.3 309.9h10.8v2H39.3zM39.3 282.8h10.8v2H39.3zM39.3 255.8h10.8v2H39.3zM39.3 228.7h10.8v2H39.3zM39.3 201.6h10.8v2H39.3zM39.3 174.6h10.8v2H39.3zM39.3 147.5h10.8v2H39.3zM39.3 120.5h10.8v2H39.3zM39.3 93.4h10.8v2H39.3zM39.3 66.3h10.8v2H39.3zM39.3 39.3h10.8v2H39.3zM39.3 12.2h10.8v2H39.3z"/></g><path fill="#86D0C8" d="M50.1 337.9h72V366h-72z"/><path fill="#00B39F" d="M50.1 94.4h72V338h-72z"/><path fill="#015448" d="M50.1 0h72v94.4h-72z"/><path fill="#FEFFFF" d="M50.1 362.9h72v3.1h-72z"/><g fill="#131313"><path d="M166.8 32.9h4.8l8 21.4h-4.9l-1.6-4.8h-8l-1.7 4.8h-4.8l8.2-21.4zm-.4 13.1h5.5l-2.7-7.9h-.1l-2.7 7.9zM191.1 44.2c-.3-1.8-1.3-2.7-3.1-2.7-2.7 0-3.6 2.8-3.6 5s.9 4.9 3.5 4.9c2 0 3.1-1.2 3.4-3.1h4.1c-.6 4.1-3.4 6.4-7.5 6.4-4.7 0-7.8-3.3-7.8-7.9 0-4.8 2.9-8.4 7.9-8.4 3.7 0 7 1.9 7.3 5.9h-4.2zM208.1 44.2c-.3-1.8-1.3-2.7-3.1-2.7-2.7 0-3.6 2.8-3.6 5s.9 4.9 3.5 4.9c2 0 3.1-1.2 3.4-3.1h4.1c-.6 4.1-3.4 6.4-7.5 6.4-4.7 0-7.8-3.3-7.8-7.9 0-4.8 2.9-8.4 7.9-8.4 3.7 0 7 1.9 7.3 5.9h-4.2zM218.1 47.6c.1 2.7 1.4 3.9 3.8 3.9 1.7 0 3.1-1 3.4-2h3.8c-1.2 3.7-3.8 5.2-7.3 5.2-4.9 0-7.9-3.4-7.9-8.2 0-4.6 3.2-8.2 7.9-8.2 5.3 0 7.9 4.4 7.5 9.2h-11.2zm6.9-2.7c-.4-2.2-1.3-3.3-3.4-3.3-2.8 0-3.4 2.1-3.5 3.3h6.9zM231.5 38.8h4v2h.1c1-1.7 2.7-2.4 4.6-2.4 4.9 0 7 3.9 7 8.3 0 4.1-2.2 8-6.8 8-1.9 0-3.6-.8-4.6-2.3h-.1v7.4h-4.3v-21zm11.5 7.8c0-2.5-1-5-3.7-5-2.8 0-3.7 2.5-3.7 5s1 4.9 3.7 4.9c2.8 0 3.7-2.4 3.7-4.9zM254.5 38.8h3.1v2.8h-3.1v7.7c0 1.4.4 1.8 1.8 1.8.5 0 .9 0 1.3-.1v3.3c-.7.1-1.6.2-2.5.2-2.6 0-4.9-.6-4.9-3.7v-9.1h-2.6v-2.8h2.6v-4.6h4.3v4.5zM259.5 43.6c.2-4 3.8-5.2 7.3-5.2 3.1 0 6.8.7 6.8 4.4v8.1c0 1.4.1 2.8.5 3.4h-4.3c-.1-.5-.3-1-.3-1.5-1.4 1.4-3.3 1.9-5.2 1.9-3 0-5.3-1.5-5.3-4.6.1-7 10.5-3.3 10.3-6.7 0-1.8-1.3-2.1-2.8-2.1-1.6 0-2.7.7-2.8 2.3h-4.2zm9.8 3.1c-.7.6-2.2.7-3.5.9-1.3.2-2.5.7-2.5 2.3 0 1.6 1.2 2 2.6 2 3.3 0 3.4-2.6 3.4-3.6v-1.6zM276.7 32.9h4.3v7.8h.1c1-1.6 3-2.3 4.9-2.3 3.1 0 6.4 2.5 6.4 8.2 0 5.7-3.3 8.2-6.4 8.2-2.3 0-4.2-.7-5.1-2.4h-.1v2h-4V32.9zm7.8 8.7c-2.5 0-3.6 2.3-3.6 5 0 2.6 1.1 4.9 3.6 4.9s3.6-2.4 3.6-4.9c0-2.7-1.1-5-3.6-5zM294.7 32.9h4.3v21.4h-4.3V32.9zM305.4 47.6c.1 2.7 1.4 3.9 3.8 3.9 1.7 0 3.1-1 3.4-2h3.7c-1.2 3.7-3.7 5.2-7.3 5.2-4.9 0-7.9-3.4-7.9-8.2 0-4.6 3.2-8.2 7.9-8.2 5.3 0 7.9 4.4 7.5 9.2h-11.1zm7-2.7c-.4-2.2-1.3-3.3-3.4-3.3-2.8 0-3.4 2.1-3.5 3.3h6.9zM346.8 54.3h-4.7l-3.6-14.6h-.1l-3.6 14.6H330l-5.7-21.4h4.7l3.4 14.6h.1l3.7-14.6h4.4l3.7 14.8h.1l3.5-14.8h4.6l-5.7 21.4zM356.1 47.6c.1 2.7 1.4 3.9 3.8 3.9 1.7 0 3.1-1 3.4-2h3.8c-1.2 3.7-3.8 5.2-7.3 5.2-4.9 0-7.9-3.4-7.9-8.2 0-4.6 3.2-8.2 7.9-8.2 5.3 0 7.9 4.4 7.5 9.2h-11.2zm6.9-2.7c-.4-2.2-1.3-3.3-3.4-3.3-2.8 0-3.5 2.1-3.5 3.3h6.9zM369.6 32.9h4.3v7.8h.1c1.1-1.6 3-2.3 4.9-2.3 3.1 0 6.4 2.5 6.4 8.2 0 5.7-3.3 8.2-6.4 8.2-2.3 0-4.2-.7-5.1-2.4h-.1v2h-4V32.9zm7.8 8.7c-2.5 0-3.6 2.3-3.6 5 0 2.6 1.1 4.9 3.6 4.9s3.6-2.4 3.6-4.9c0-2.7-1.1-5-3.6-5zM390.8 49.3c0 1.8 1.6 2.6 3.3 2.6 1.2 0 2.8-.5 2.8-2 0-1.3-1.8-1.8-4.8-2.4-2.5-.6-4.9-1.4-4.9-4.1 0-4 3.4-5 6.7-5 3.4 0 6.5 1.1 6.8 4.9h-4c-.1-1.6-1.4-2.1-2.9-2.1-1 0-2.4.1-2.4 1.4 0 1.5 2.4 1.7 4.8 2.3 2.5.6 4.9 1.5 4.9 4.3 0 4.1-3.6 5.4-7.1 5.4-3.6 0-7.1-1.4-7.3-5.5h4.1zM407.5 36.4h-4.3v-3.5h4.3v3.5zm-4.3 2.4h4.3v15.5h-4.3V38.8zM415.8 38.8h3.1v2.8h-3.1v7.7c0 1.4.4 1.8 1.8 1.8.5 0 .9 0 1.3-.1v3.3c-.7.1-1.6.2-2.5.2-2.6 0-4.9-.6-4.9-3.7v-9.1h-2.6v-2.8h2.6v-4.6h4.3v4.5zM423.8 47.6c.1 2.7 1.4 3.9 3.8 3.9 1.7 0 3.1-1 3.4-2h3.8c-1.2 3.7-3.8 5.2-7.3 5.2-4.9 0-7.9-3.4-7.9-8.2 0-4.6 3.2-8.2 7.9-8.2 5.3 0 7.9 4.4 7.5 9.2h-11.2zm7-2.7c-.4-2.2-1.3-3.3-3.4-3.3-2.8 0-3.5 2.1-3.5 3.3h6.9zM444.8 32.9h11.5c3.8 0 6.3 2.7 6.3 5.9 0 2.5-1 4.4-3.4 5.4v.1c2.3.6 3 2.8 3.1 5 .1 1.4 0 3.9.9 5.1h-4.7c-.5-1.4-.5-3.4-.8-5.1-.3-2.2-1.2-3.2-3.6-3.2h-4.7v8.4h-4.7V32.9zm4.7 9.7h5.2c2.1 0 3.2-.9 3.2-3.1 0-2.1-1.1-3-3.2-3h-5.2v6.1zM468.3 47.6c.1 2.7 1.4 3.9 3.8 3.9 1.7 0 3.1-1 3.4-2h3.8c-1.2 3.7-3.8 5.2-7.3 5.2-4.9 0-7.9-3.4-7.9-8.2 0-4.6 3.2-8.2 7.9-8.2 5.3 0 7.9 4.4 7.5 9.2h-11.2zm6.9-2.7c-.4-2.2-1.3-3.3-3.4-3.3-2.8 0-3.5 2.1-3.5 3.3h6.9zM485 49.3c0 1.8 1.6 2.6 3.3 2.6 1.2 0 2.8-.5 2.8-2 0-1.3-1.8-1.8-4.8-2.4-2.5-.6-4.9-1.4-4.9-4.1 0-4 3.4-5 6.7-5 3.4 0 6.5 1.1 6.8 4.9h-4c-.1-1.6-1.4-2.1-2.9-2.1-1 0-2.4.1-2.4 1.4 0 1.5 2.4 1.7 4.8 2.3 2.5.6 4.9 1.5 4.9 4.3 0 4.1-3.6 5.4-7.1 5.4-3.6 0-7.1-1.4-7.3-5.5h4.1zM497.3 38.8h4v2h.1c1-1.7 2.7-2.4 4.6-2.4 4.9 0 7 3.9 7 8.3 0 4.1-2.2 8-6.8 8-1.9 0-3.6-.8-4.6-2.3h-.1v7.4h-4.3v-21zm11.5 7.8c0-2.5-1-5-3.7-5-2.8 0-3.7 2.5-3.7 5s1 4.9 3.7 4.9c2.8 0 3.7-2.4 3.7-4.9zM522.6 38.4c4.9 0 8 3.2 8 8.2 0 4.9-3.2 8.2-8 8.2-4.9 0-8-3.2-8-8.2 0-5 3.1-8.2 8-8.2zm0 13.1c2.9 0 3.8-2.5 3.8-4.9s-.9-5-3.8-5-3.8 2.5-3.8 5 .9 4.9 3.8 4.9zM532.8 38.8h4V41h.1c1.1-1.8 2.9-2.6 4.7-2.6 4.5 0 5.7 2.5 5.7 6.4v9.5H543v-8.8c0-2.5-.7-3.8-2.7-3.8-2.3 0-3.3 1.3-3.3 4.4v8.1h-4.3V38.8zM553.4 49.3c0 1.8 1.6 2.6 3.3 2.6 1.2 0 2.8-.5 2.8-2 0-1.3-1.8-1.8-4.8-2.4-2.5-.6-4.9-1.4-4.9-4.1 0-4 3.4-5 6.7-5 3.4 0 6.5 1.1 6.8 4.9h-4c-.1-1.6-1.4-2.1-2.9-2.1-1 0-2.4.1-2.4 1.4 0 1.5 2.4 1.7 4.8 2.3 2.5.6 4.9 1.5 4.9 4.3 0 4.1-3.6 5.4-7.1 5.4-3.6 0-7.1-1.4-7.3-5.5h4.1zM569.3 47.6c.1 2.7 1.4 3.9 3.8 3.9 1.7 0 3.1-1 3.4-2h3.8c-1.2 3.7-3.8 5.2-7.3 5.2-4.9 0-7.9-3.4-7.9-8.2 0-4.6 3.2-8.2 7.9-8.2 5.3 0 7.9 4.4 7.5 9.2h-11.2zm6.9-2.7c-.4-2.2-1.3-3.3-3.4-3.3-2.8 0-3.5 2.1-3.5 3.3h6.9zM595.3 36.8h-6.4v-4h17.5v4H600v17.5h-4.7V36.8zM612.9 36.4h-4.3v-3.5h4.3v3.5zm-4.3 2.4h4.3v15.5h-4.3V38.8zM615.9 38.8h4v2.1h.1c1.1-1.6 2.7-2.5 4.7-2.5s3.7.7 4.5 2.6c.9-1.3 2.5-2.6 4.7-2.6 3.3 0 5.7 1.5 5.7 5.5v10.4h-4.3v-8.8c0-2.1-.2-3.8-2.6-3.8s-2.8 2-2.8 3.9v8.6h-4.3v-8.7c0-1.8.1-3.9-2.6-3.9-.8 0-2.9.5-2.9 3.6v9h-4.3V38.8zM645.9 47.6c.1 2.7 1.4 3.9 3.8 3.9 1.7 0 3.1-1 3.4-2h3.8c-1.2 3.7-3.8 5.2-7.3 5.2-4.9 0-7.9-3.4-7.9-8.2 0-4.6 3.2-8.2 7.9-8.2 5.3 0 7.9 4.4 7.5 9.2h-11.2zm6.9-2.7c-.4-2.2-1.3-3.3-3.4-3.3-2.8 0-3.5 2.1-3.5 3.3h6.9zM662.6 49.3c0 1.8 1.6 2.6 3.3 2.6 1.2 0 2.8-.5 2.8-2 0-1.3-1.8-1.8-4.8-2.4-2.5-.6-4.9-1.4-4.9-4.1 0-4 3.4-5 6.7-5 3.4 0 6.5 1.1 6.8 4.9h-4c-.1-1.6-1.4-2.1-2.9-2.1-1 0-2.4.1-2.4 1.4 0 1.5 2.4 1.7 4.8 2.3 2.5.6 4.9 1.5 4.9 4.3 0 4.1-3.6 5.4-7.1 5.4-3.6 0-7.1-1.4-7.3-5.5h4.1z"/></g><path fill="#F9F9FA" d="M159.7 325.1h538.5v45H159.7z"/><path fill="#006D5E" d="M186.3 340.5c2.5 0 4.6 1.6 4.6 6.5 0 5-2.1 6.6-4.6 6.6-2.5 0-4.6-1.6-4.6-6.6 0-4.9 2.1-6.5 4.6-6.5zm0 11c2.1 0 2.1-3.1 2.1-4.5 0-1.3 0-4.4-2.1-4.4s-2.1 3.1-2.1 4.4c0 1.4 0 4.5 2.1 4.5zM192.2 350.6h2.8v2.8h-2.8v-2.8zM200.7 353.3h-2.6v-8.2H195v-1.9c1.8.1 3.4-.6 3.7-2.5h2v12.6zM209.3 349.1c0 1.7 1.3 2.4 2.8 2.4 1 0 2.5-.3 2.5-1.6 0-1.4-1.9-1.6-3.8-2.1s-3.8-1.3-3.8-3.7c0-2.6 2.5-3.9 4.8-3.9 2.7 0 5.1 1.2 5.1 4.1h-2.7c-.1-1.5-1.2-1.9-2.5-1.9-.9 0-1.9.4-1.9 1.5 0 1 .6 1.1 3.8 1.9 1 .2 3.8.8 3.8 3.7 0 2.4-1.8 4.1-5.3 4.1-2.8 0-5.5-1.4-5.5-4.6h2.7zM220.9 349.3c.1 1.6.8 2.4 2.3 2.4 1 0 1.9-.6 2-1.2h2.3c-.7 2.2-2.3 3.1-4.4 3.1-2.9 0-4.8-2-4.8-4.9 0-2.8 1.9-4.9 4.8-4.9 3.2 0 4.7 2.7 4.5 5.5h-6.7zm4.1-1.6c-.2-1.3-.8-2-2-2-1.7 0-2.1 1.3-2.1 2h4.1zM235.2 347.3c-.2-1.1-.8-1.6-1.9-1.6-1.6 0-2.2 1.7-2.2 3 0 1.4.5 2.9 2.1 2.9 1.2 0 1.9-.7 2-1.9h2.5c-.3 2.5-2 3.8-4.5 3.8-2.8 0-4.7-2-4.7-4.8 0-2.9 1.7-5 4.8-5 2.2 0 4.2 1.2 4.4 3.5h-2.5zM243.6 343.8c2.9 0 4.8 1.9 4.8 4.9 0 3-1.9 4.9-4.8 4.9s-4.8-1.9-4.8-4.9c-.1-3 1.8-4.9 4.8-4.9zm0 7.9c1.7 0 2.3-1.5 2.3-3s-.5-3-2.3-3c-1.7 0-2.3 1.5-2.3 3s.5 3 2.3 3zM249.7 344h2.4v1.3h.1c.6-1.1 1.8-1.5 2.8-1.5 2.7 0 3.4 1.5 3.4 3.8v5.7h-2.6V348c0-1.5-.4-2.3-1.6-2.3-1.4 0-2 .8-2 2.7v4.9h-2.6V344zM266.6 352.1c-.6 1-1.7 1.4-2.9 1.4-2.8 0-4.2-2.4-4.2-5 0-2.5 1.4-4.8 4.1-4.8 1.1 0 2.2.5 2.8 1.4v-4.7h2.6v12.9h-2.4v-1.2zm-2.2-6.4c-1.7 0-2.3 1.5-2.3 3s.7 3 2.3 3c1.7 0 2.2-1.5 2.2-3 0-1.6-.5-3-2.2-3z"/><path d="M275.1 347.6h5.2v1.4h-5.2v-1.4zM286.8 340.5h1.7v12.9h-1.7v-12.9zM290.9 340.5h1.5v12.9h-1.5v-12.9zM294.4 340.5h1.5v12.9h-1.5v-12.9zM305.6 353.3h-1.4v-1.5c-.6 1.2-1.7 1.7-3 1.7-2.4 0-3.2-1.4-3.2-3.4V344h1.5v6.3c0 1.2.7 1.9 1.9 1.9 1.9 0 2.8-1.2 2.8-2.9V344h1.5v9.3zM308.5 350.4c.1 1.4 1.3 1.8 2.5 1.8 1 0 2.3-.2 2.3-1.4 0-2.4-6.1-.8-6.1-4.4 0-1.9 1.8-2.6 3.5-2.6 2.1 0 3.7.6 3.8 2.9H313c-.1-1.2-1.2-1.6-2.2-1.6-.9 0-2 .3-2 1.2 0 1.1 1.6 1.3 3 1.6 1.5.3 3 .9 3 2.6 0 2.2-2.1 2.9-4 2.9-2.1 0-3.9-.8-3.9-3.2h1.6zM317.9 342.3h-1.5v-1.9h1.5v1.9zm-1.5 1.7h1.5v9.3h-1.5V344zM324 343.8c3 0 4.5 2.1 4.5 4.9 0 2.7-1.6 4.9-4.5 4.9-3 0-4.5-2.1-4.5-4.9 0-2.8 1.6-4.9 4.5-4.9zm0 8.4c1.6 0 2.9-1.3 2.9-3.5s-1.3-3.5-2.9-3.5-2.9 1.3-2.9 3.5 1.3 3.5 2.9 3.5zM330 344h1.4v1.5c.6-1.2 1.7-1.7 3-1.7 2.4 0 3.2 1.4 3.2 3.4v6.1h-1.5V347c0-1.2-.7-1.9-1.9-1.9-1.9 0-2.8 1.2-2.8 2.9v5.3H330V344zM348.1 343.8c3 0 4.5 2.1 4.5 4.9 0 2.7-1.6 4.9-4.5 4.9-3 0-4.5-2.1-4.5-4.9-.1-2.8 1.5-4.9 4.5-4.9zm0 8.4c1.6 0 2.9-1.3 2.9-3.5s-1.3-3.5-2.9-3.5-2.9 1.3-2.9 3.5 1.3 3.5 2.9 3.5zM354.5 345.4h-1.6V344h1.6v-1.4c0-1.5.9-2.3 2.6-2.3.3 0 .7.1 1 .1v1.3c-.3-.1-.6-.1-.9-.1-.7 0-1.2.2-1.2 1v1.3h1.8v1.4H356v8h-1.5v-7.9zM363.4 340.5h1.7v12.9h-1.7v-12.9zM367.4 344h1.4v1.5c.6-1.2 1.7-1.7 3-1.7 2.4 0 3.2 1.4 3.2 3.4v6.1h-1.5V347c0-1.2-.7-1.9-1.9-1.9-1.9 0-2.8 1.2-2.8 2.9v5.3h-1.5V344zM378.1 350.4c.1 1.4 1.3 1.8 2.5 1.8 1 0 2.2-.2 2.2-1.4 0-2.4-6.1-.8-6.1-4.4 0-1.9 1.8-2.6 3.5-2.6 2.1 0 3.7.6 3.8 2.9h-1.5c-.1-1.2-1.2-1.6-2.2-1.6-.9 0-2 .3-2 1.2 0 1.1 1.6 1.3 3 1.6 1.5.3 3 .9 3 2.6 0 2.2-2.1 2.9-4 2.9-2.1 0-3.9-.8-3.9-3.2h1.7zM388 344h1.9v1.4H388v5.8c0 .7.2.8 1.2.8h.7v1.4h-1.2c-1.6 0-2.2-.3-2.2-2v-5.9h-1.6V344h1.6v-2.8h1.5v2.8zM399.4 353.3c-.3.2-.6.3-1.1.3-.8 0-1.3-.4-1.3-1.4-.8 1-2 1.4-3.3 1.4-1.7 0-3.1-.7-3.1-2.6 0-2.1 1.6-2.6 3.2-2.9 1.7-.3 3.1-.2 3.1-1.4 0-1.4-1.1-1.5-2.1-1.5-1.3 0-2.2.4-2.3 1.8H391c.1-2.3 1.9-3.1 3.9-3.1 1.7 0 3.5.4 3.5 2.6v4.8c0 .7 0 1 .5 1 .1 0 .3 0 .5-.1v1.1zm-2.5-4.8c-1.2.9-4.6 0-4.6 2.3 0 1 .9 1.4 1.8 1.4 2 0 2.8-1.2 2.8-2.1v-1.6zM400.8 344h1.4v1.5c.6-1.2 1.7-1.7 3-1.7 2.4 0 3.2 1.4 3.2 3.4v6.1H407V347c0-1.2-.7-1.9-1.9-1.9-1.9 0-2.8 1.2-2.8 2.9v5.3h-1.5V344zM412.4 344h1.9v1.4h-1.9v5.8c0 .7.2.8 1.2.8h.7v1.4h-1.2c-1.6 0-2.2-.3-2.2-2v-5.9h-1.6V344h1.6v-2.8h1.5v2.8zM423.8 353.3c-.3.2-.6.3-1.1.3-.8 0-1.3-.4-1.3-1.4-.8 1-2 1.4-3.3 1.4-1.7 0-3.1-.7-3.1-2.6 0-2.1 1.6-2.6 3.2-2.9 1.7-.3 3.1-.2 3.1-1.4 0-1.4-1.1-1.5-2.1-1.5-1.3 0-2.3.4-2.3 1.8h-1.5c.1-2.3 1.9-3.1 3.9-3.1 1.7 0 3.5.4 3.5 2.6v4.8c0 .7 0 1 .5 1 .1 0 .3 0 .5-.1v1.1zm-2.5-4.8c-1.2.9-4.6 0-4.6 2.3 0 1 .9 1.4 1.8 1.4 2 0 2.8-1.2 2.8-2.1v-1.6zM425.2 344h1.4v1.5c.6-1.2 1.7-1.7 3-1.7 2.4 0 3.2 1.4 3.2 3.4v6.1h-1.5V347c0-1.2-.7-1.9-1.9-1.9-1.9 0-2.8 1.2-2.8 2.9v5.3h-1.5V344zM442.8 350.4c-.4 2.1-1.9 3.2-4 3.2-3 0-4.4-2.1-4.5-4.9 0-2.8 1.8-4.8 4.4-4.8 3.3 0 4.3 3.1 4.2 5.3h-7c-.1 1.6.9 3.1 2.9 3.1 1.3 0 2.1-.6 2.4-1.8h1.6zm-1.5-2.6c-.1-1.5-1.2-2.6-2.7-2.6-1.6 0-2.6 1.2-2.7 2.6h5.4zM448.6 343.8c3 0 4.5 2.1 4.5 4.9 0 2.7-1.6 4.9-4.5 4.9-3 0-4.5-2.1-4.5-4.9 0-2.8 1.6-4.9 4.5-4.9zm0 8.4c1.6 0 2.9-1.3 2.9-3.5s-1.3-3.5-2.9-3.5-2.9 1.3-2.9 3.5 1.3 3.5 2.9 3.5zM462.4 353.3H461v-1.5c-.6 1.2-1.7 1.7-3 1.7-2.4 0-3.2-1.4-3.2-3.4V344h1.5v6.3c0 1.2.7 1.9 1.9 1.9 1.9 0 2.8-1.2 2.8-2.9V344h1.5v9.3zM465.3 350.4c.1 1.4 1.3 1.8 2.5 1.8 1 0 2.3-.2 2.3-1.4 0-2.4-6.1-.8-6.1-4.4 0-1.9 1.8-2.6 3.5-2.6 2.1 0 3.7.6 3.8 2.9h-1.5c-.1-1.2-1.2-1.6-2.2-1.6-.9 0-2 .3-2 1.2 0 1.1 1.6 1.3 3 1.6 1.5.3 3 .9 3 2.6 0 2.2-2.1 2.9-4 2.9-2.1 0-3.9-.8-3.9-3.2h1.6zM477.7 340.5h6c2.4 0 3.9 1.3 3.9 3.4 0 1.6-.7 2.8-2.2 3.3 1.5.3 1.8 1.4 1.9 2.6.1 1.2 0 2.7.8 3.5h-1.9c-.5-.5-.2-1.9-.5-3.2-.2-1.2-.5-2.3-2.1-2.3h-4.2v5.5h-1.7v-12.8zm5.3 5.9c1.6 0 3-.4 3-2.3 0-1.3-.7-2.2-2.3-2.2h-4.2v4.5h3.5zM497.4 350.4c-.4 2.1-1.9 3.2-4 3.2-3 0-4.4-2.1-4.5-4.9 0-2.8 1.8-4.8 4.4-4.8 3.3 0 4.3 3.1 4.2 5.3h-7c-.1 1.6.9 3.1 2.9 3.1 1.3 0 2.1-.6 2.4-1.8h1.6zm-1.5-2.6c-.1-1.5-1.2-2.6-2.7-2.6-1.6 0-2.6 1.2-2.7 2.6h5.4zM500.1 350.4c.1 1.4 1.3 1.8 2.5 1.8 1 0 2.3-.2 2.3-1.4 0-2.4-6.1-.8-6.1-4.4 0-1.9 1.8-2.6 3.5-2.6 2.1 0 3.7.6 3.8 2.9h-1.5c-.1-1.2-1.2-1.6-2.2-1.6-.9 0-2 .3-2 1.2 0 1.1 1.6 1.3 3 1.6 1.5.3 3 .9 3 2.6 0 2.2-2.1 2.9-4 2.9-2.1 0-3.9-.8-3.9-3.2h1.6zM507.9 344h1.5v1.3c.5-1 1.7-1.5 3-1.5 2.9 0 4.3 2.3 4.3 4.9 0 2.6-1.4 4.8-4.2 4.8-.9 0-2.3-.4-3-1.5v4.8H508V344zm4.4 1.2c-2.1 0-2.8 1.8-2.8 3.5 0 1.8.8 3.5 2.9 3.5 2.1 0 2.8-1.8 2.8-3.6-.1-1.8-1-3.4-2.9-3.4zM522.5 343.8c3 0 4.5 2.1 4.5 4.9 0 2.7-1.6 4.9-4.5 4.9-3 0-4.5-2.1-4.5-4.9 0-2.8 1.5-4.9 4.5-4.9zm0 8.4c1.6 0 2.9-1.3 2.9-3.5s-1.3-3.5-2.9-3.5-2.9 1.3-2.9 3.5 1.3 3.5 2.9 3.5zM528.5 344h1.4v1.5c.6-1.2 1.7-1.7 3-1.7 2.4 0 3.2 1.4 3.2 3.4v6.1h-1.5V347c0-1.2-.7-1.9-1.9-1.9-1.9 0-2.8 1.2-2.8 2.9v5.3h-1.5V344zM539.2 350.4c.1 1.4 1.3 1.8 2.5 1.8 1 0 2.3-.2 2.3-1.4 0-2.4-6.1-.8-6.1-4.4 0-1.9 1.8-2.6 3.5-2.6 2.1 0 3.7.6 3.8 2.9h-1.5c-.1-1.2-1.2-1.6-2.2-1.6-.9 0-2 .3-2 1.2 0 1.1 1.6 1.3 3 1.6 1.5.3 3 .9 3 2.6 0 2.2-2.1 2.9-4 2.9-2.1 0-3.9-.8-3.9-3.2h1.6zM555 350.4c-.4 2.1-1.9 3.2-4 3.2-3 0-4.4-2.1-4.5-4.9 0-2.8 1.8-4.8 4.4-4.8 3.3 0 4.3 3.1 4.2 5.3h-7c-.1 1.6.9 3.1 2.9 3.1 1.3 0 2.1-.6 2.4-1.8h1.6zm-1.5-2.6c-.1-1.5-1.2-2.6-2.7-2.6-1.6 0-2.6 1.2-2.7 2.6h5.4z"/><g><path fill="#F9F9FA" d="M158.9 265.3H699v45H158.9z"/><path fill="#006D5E" d="M187.4 293.6h-2.6v-8.2h-3.2v-1.9c1.8.1 3.4-.6 3.7-2.5h2v12.6zM196 289.3c0 1.7 1.3 2.4 2.8 2.4 1 0 2.5-.3 2.5-1.6 0-1.4-1.9-1.6-3.8-2.1s-3.8-1.3-3.8-3.7c0-2.6 2.5-3.9 4.8-3.9 2.7 0 5.1 1.2 5.1 4.1h-2.7c-.1-1.5-1.2-1.9-2.5-1.9-.9 0-1.9.4-1.9 1.5 0 1 .6 1.1 3.8 1.9 1 .2 3.8.8 3.8 3.7 0 2.4-1.8 4.1-5.3 4.1-2.8 0-5.5-1.4-5.5-4.6h2.7zM207.5 289.6c.1 1.6.8 2.4 2.3 2.4 1 0 1.9-.6 2-1.2h2.3c-.7 2.2-2.3 3.1-4.4 3.1-2.9 0-4.8-2-4.8-4.9 0-2.8 1.9-4.9 4.8-4.9 3.2 0 4.7 2.7 4.5 5.5h-6.7zm4.2-1.7c-.2-1.3-.8-2-2-2-1.7 0-2.1 1.3-2.1 2h4.1zM221.9 287.6c-.2-1.1-.8-1.6-1.9-1.6-1.6 0-2.2 1.7-2.2 3 0 1.4.5 2.9 2.1 2.9 1.2 0 1.9-.7 2-1.9h2.5c-.3 2.5-2 3.8-4.5 3.8-2.8 0-4.7-2-4.7-4.8 0-2.9 1.7-5 4.8-5 2.2 0 4.2 1.2 4.4 3.5h-2.5zM230.2 284c2.9 0 4.8 1.9 4.8 4.9 0 3-1.9 4.9-4.8 4.9s-4.8-1.9-4.8-4.9c0-2.9 1.9-4.9 4.8-4.9zm0 7.9c1.7 0 2.3-1.5 2.3-3s-.5-3-2.3-3c-1.7 0-2.3 1.5-2.3 3s.6 3 2.3 3zM236.4 284.3h2.4v1.3h.1c.6-1.1 1.8-1.5 2.8-1.5 2.7 0 3.4 1.5 3.4 3.8v5.7h-2.6v-5.3c0-1.5-.4-2.3-1.6-2.3-1.4 0-2 .8-2 2.7v4.9h-2.6v-9.3zM253.3 292.4c-.6 1-1.7 1.4-2.9 1.4-2.8 0-4.2-2.4-4.2-5 0-2.5 1.4-4.8 4.1-4.8 1.1 0 2.2.5 2.8 1.4v-4.7h2.6v12.9h-2.4v-1.2zm-2.2-6.4c-1.7 0-2.3 1.5-2.3 3s.7 3 2.3 3c1.7 0 2.2-1.5 2.2-3 0-1.6-.6-3-2.2-3z"/><path d="M261.8 287.9h5.2v1.4h-5.2v-1.4zM280.9 284.5c-.2-1.9-1.4-2.6-3.2-2.6-1.5 0-2.9.5-2.9 2.2 0 3.2 8.2.9 8.2 6 0 2.7-2.7 3.8-5 3.8-2.9 0-5.3-1.4-5.3-4.5h1.6c0 2.2 1.8 3.1 3.7 3.1 1.5 0 3.3-.5 3.3-2.3 0-3.5-8.2-1.2-8.2-5.9 0-2.6 2.3-3.8 4.7-3.8 2.6 0 4.6 1.2 4.7 4.1h-1.6zM292.8 290.6c-.4 2.1-1.9 3.2-4 3.2-3 0-4.4-2.1-4.5-4.9 0-2.8 1.8-4.8 4.4-4.8 3.3 0 4.3 3.1 4.2 5.3h-7c-.1 1.6.9 3.1 2.9 3.1 1.3 0 2.1-.6 2.4-1.8h1.6zm-1.5-2.5c-.1-1.5-1.2-2.6-2.7-2.6-1.6 0-2.6 1.2-2.7 2.6h5.4zM302.7 293.6c-.3.2-.6.3-1.1.3-.8 0-1.3-.4-1.3-1.4-.8 1-2 1.4-3.3 1.4-1.7 0-3.1-.7-3.1-2.6 0-2.1 1.6-2.6 3.2-2.9 1.7-.3 3.1-.2 3.1-1.4 0-1.4-1.1-1.5-2.1-1.5-1.3 0-2.3.4-2.3 1.8h-1.5c.1-2.3 1.9-3.1 3.9-3.1 1.7 0 3.5.4 3.5 2.6v4.8c0 .7 0 1 .5 1 .1 0 .3 0 .5-.1v1.1zm-2.5-4.8c-1.2.9-4.6 0-4.6 2.3 0 1 .9 1.4 1.8 1.4 2 0 2.8-1.2 2.8-2.1v-1.6zM304.2 284.3h1.4v1.4c.7-1.1 1.7-1.6 3-1.6 1.2 0 2.2.4 2.6 1.6.6-1 1.7-1.6 2.9-1.6 1.9 0 3.1.8 3.1 2.7v6.8h-1.5v-6.1c0-1.2-.3-2.1-1.8-2.1s-2.4.9-2.4 2.4v5.8H310v-6.1c0-1.2-.4-2.1-1.7-2.1-1.8 0-2.5 1.7-2.5 2.4v5.8h-1.5v-9.3zM319.2 280.7h1.5v12.9h-1.5v-12.9zM330.7 290.6c-.4 2.1-1.9 3.2-4 3.2-3 0-4.4-2.1-4.5-4.9 0-2.8 1.8-4.8 4.4-4.8 3.3 0 4.3 3.1 4.2 5.3h-7c-.1 1.6.9 3.1 2.9 3.1 1.3 0 2.1-.6 2.4-1.8h1.6zm-1.4-2.5c-.1-1.5-1.2-2.6-2.7-2.6-1.6 0-2.6 1.2-2.7 2.6h5.4zM333.4 290.7c.1 1.4 1.3 1.8 2.5 1.8 1 0 2.3-.2 2.3-1.4 0-2.4-6.1-.8-6.1-4.4 0-1.9 1.8-2.6 3.5-2.6 2.1 0 3.7.6 3.8 2.9h-1.5c-.1-1.2-1.2-1.6-2.2-1.6-.9 0-2 .3-2 1.2 0 1.1 1.6 1.3 3 1.6 1.5.3 3 .9 3 2.6 0 2.2-2.1 2.9-4 2.9-2.1 0-3.9-.8-3.9-3.2h1.6zM342.5 290.7c.1 1.4 1.3 1.8 2.5 1.8 1 0 2.3-.2 2.3-1.4 0-2.4-6.1-.8-6.1-4.4 0-1.9 1.8-2.6 3.5-2.6 2.1 0 3.7.6 3.8 2.9H347c-.1-1.2-1.2-1.6-2.2-1.6-.9 0-2 .3-2 1.2 0 1.1 1.6 1.3 3 1.6 1.5.3 3 .9 3 2.6 0 2.2-2.1 2.9-4 2.9-2.1 0-3.9-.8-3.9-3.2h1.6zM354.8 280.7h8.4v1.4h-6.7v4.1h5.9v1.4h-5.9v5.9h-1.7v-12.8zM364.8 280.7h1.5v12.9h-1.5v-12.9zM372.4 284.1c3 0 4.5 2.1 4.5 4.9 0 2.7-1.6 4.9-4.5 4.9-3 0-4.5-2.1-4.5-4.9 0-2.8 1.6-4.9 4.5-4.9zm0 8.4c1.6 0 2.9-1.3 2.9-3.5s-1.3-3.5-2.9-3.5-2.9 1.3-2.9 3.5 1.3 3.5 2.9 3.5zM387.3 293.6h-1.6l-1.9-7.4-1.9 7.4h-1.7l-3-9.3h1.7l2.1 7.6 1.9-7.6h1.7l1.9 7.6 2.1-7.6h1.6l-2.9 9.3zM399.7 284.1c3 0 4.5 2.1 4.5 4.9 0 2.7-1.6 4.9-4.5 4.9-3 0-4.5-2.1-4.5-4.9 0-2.8 1.6-4.9 4.5-4.9zm0 8.4c1.6 0 2.9-1.3 2.9-3.5s-1.3-3.5-2.9-3.5-2.9 1.3-2.9 3.5 1.3 3.5 2.9 3.5zM406.2 285.6h-1.6v-1.4h1.6v-1.4c0-1.5.9-2.3 2.6-2.3.3 0 .7.1 1 .1v1.3c-.3-.1-.6-.1-.9-.1-.7 0-1.2.2-1.2 1v1.3h1.8v1.4h-1.8v8h-1.5v-7.9zM418.5 282.2h-4.3v-1.4h10.3v1.4h-4.3v11.4h-1.7v-11.4zM426.1 280.7h1.5v4.9c.5-1.1 1.8-1.6 2.9-1.6 2.4 0 3.2 1.4 3.2 3.4v6.1h-1.5v-6.3c0-1.2-.7-1.9-1.9-1.9-1.9 0-2.8 1.2-2.8 2.9v5.3H426v-12.8zM439.7 284.1c3 0 4.5 2.1 4.5 4.9 0 2.7-1.6 4.9-4.5 4.9-3 0-4.5-2.1-4.5-4.9 0-2.8 1.6-4.9 4.5-4.9zm0 8.4c1.6 0 2.9-1.3 2.9-3.5s-1.3-3.5-2.9-3.5-2.9 1.3-2.9 3.5 1.3 3.5 2.9 3.5zM453.5 293.6H452v-1.5c-.6 1.2-1.7 1.7-3 1.7-2.4 0-3.2-1.4-3.2-3.4v-6.1h1.5v6.3c0 1.2.7 1.9 1.9 1.9 1.9 0 2.8-1.2 2.8-2.9v-5.3h1.5v9.3zM463.5 292.8c0 3-1.4 4.6-4.3 4.6-1.7 0-3.8-.7-3.9-2.7h1.5c.1 1.1 1.4 1.5 2.4 1.5 2 0 2.8-1.4 2.8-3.5v-.7c-.5 1.1-1.7 1.7-2.9 1.7-2.8 0-4.2-2.2-4.2-4.7 0-2.2 1.1-4.9 4.3-4.9 1.2 0 2.2.5 2.8 1.5v-1.3h1.4v8.5zm-1.5-4c0-1.6-.7-3.3-2.6-3.3-2 0-2.8 1.6-2.8 3.4 0 1.7.6 3.5 2.6 3.5s2.8-1.9 2.8-3.6zM465.4 280.7h1.5v4.9c.5-1.1 1.8-1.6 2.9-1.6 2.4 0 3.2 1.4 3.2 3.4v6.1h-1.5v-6.3c0-1.2-.7-1.9-1.9-1.9-1.9 0-2.8 1.2-2.8 2.9v5.3h-1.5v-12.8zM477 284.3h1.9v1.4H477v5.8c0 .7.2.8 1.2.8h.7v1.4h-1.2c-1.6 0-2.2-.3-2.2-2v-5.9h-1.6v-1.4h1.6v-2.8h1.5v2.7z"/></g><g><path fill="#F9F9FA" d="M158.9 145.9H699v45H158.9z"/><path fill="#006D5E" d="M187.4 174.1h-2.6V166h-3.2v-2c1.8.1 3.4-.6 3.7-2.5h2v12.6zM194 161.3c2.5 0 4.6 1.6 4.6 6.5 0 5-2.1 6.6-4.6 6.6-2.5 0-4.6-1.6-4.6-6.6 0-4.9 2.1-6.5 4.6-6.5zm0 11c2.1 0 2.1-3.1 2.1-4.5 0-1.3 0-4.4-2.1-4.4s-2.1 3.1-2.1 4.4c0 1.4 0 4.5 2.1 4.5zM206.5 169.9c0 1.7 1.3 2.4 2.8 2.4 1 0 2.5-.3 2.5-1.6 0-1.4-1.9-1.6-3.8-2.1s-3.8-1.3-3.8-3.7c0-2.6 2.5-3.9 4.8-3.9 2.7 0 5.1 1.2 5.1 4.1h-2.7c-.1-1.5-1.2-1.9-2.5-1.9-.9 0-1.9.4-1.9 1.5 0 1 .6 1.1 3.8 1.9 1 .2 3.8.8 3.8 3.7 0 2.4-1.8 4.1-5.3 4.1-2.8 0-5.5-1.4-5.5-4.6h2.7zM218.1 170.1c.1 1.6.8 2.4 2.3 2.4 1 0 1.9-.6 2-1.2h2.3c-.7 2.2-2.3 3.1-4.4 3.1-2.9 0-4.8-2-4.8-4.9 0-2.8 1.9-4.9 4.8-4.9 3.2 0 4.7 2.7 4.5 5.5h-6.7zm4.2-1.6c-.2-1.3-.8-2-2-2-1.7 0-2.1 1.3-2.1 2h4.1zM232.5 168.1c-.2-1.1-.8-1.6-1.9-1.6-1.6 0-2.2 1.7-2.2 3 0 1.4.5 2.9 2.1 2.9 1.2 0 1.9-.7 2-1.9h2.5c-.3 2.5-2 3.8-4.5 3.8-2.8 0-4.7-2-4.7-4.8 0-2.9 1.7-5 4.8-5 2.2 0 4.2 1.2 4.4 3.5h-2.5zM240.8 164.6c2.9 0 4.8 1.9 4.8 4.9 0 3-1.9 4.9-4.8 4.9s-4.8-1.9-4.8-4.9c0-3 1.9-4.9 4.8-4.9zm0 7.9c1.7 0 2.3-1.5 2.3-3s-.5-3-2.3-3c-1.7 0-2.3 1.5-2.3 3s.6 3 2.3 3zM247 164.8h2.4v1.3h.1c.6-1.1 1.8-1.5 2.8-1.5 2.7 0 3.4 1.5 3.4 3.8v5.7h-2.6v-5.3c0-1.5-.4-2.3-1.6-2.3-1.4 0-2 .8-2 2.7v4.9H247v-9.3zM263.9 173c-.6 1-1.7 1.4-2.9 1.4-2.8 0-4.2-2.4-4.2-5 0-2.5 1.4-4.8 4.1-4.8 1.1 0 2.2.5 2.8 1.4v-4.7h2.6v12.9h-2.4V173zm-2.2-6.5c-1.7 0-2.3 1.5-2.3 3s.7 3 2.3 3c1.7 0 2.2-1.5 2.2-3s-.6-3-2.2-3zM270 171.1c0 1.1 1 1.6 2 1.6.7 0 1.7-.3 1.7-1.2 0-.8-1.1-1.1-2.9-1.4-1.5-.3-3-.8-3-2.5 0-2.4 2.1-3 4.1-3 2 0 3.9.7 4.1 3h-2.4c-.1-1-.8-1.3-1.7-1.3-.6 0-1.4.1-1.4.9 0 .9 1.5 1 2.9 1.4 1.5.3 3 .9 3 2.6 0 2.4-2.1 3.2-4.2 3.2-2.2 0-4.3-.8-4.4-3.3h2.2z"/><path d="M281.8 168.4h5.2v1.4h-5.2v-1.4zM297.2 161.3h1.9l5 12.9h-1.9l-1.4-3.9h-5.4l-1.4 3.9h-1.8l5-12.9zm-1.3 7.5h4.4l-2.1-6-2.3 6zM306.8 164.8h1.9v1.4h-1.9v5.8c0 .7.2.8 1.2.8h.7v1.4h-1.2c-1.6 0-2.2-.3-2.2-2v-5.9h-1.6v-1.4h1.6V162h1.5v2.8zM312.7 164.8h1.9v1.4h-1.9v5.8c0 .7.2.8 1.2.8h.7v1.4h-1.2c-1.6 0-2.2-.3-2.2-2v-5.9h-1.6v-1.4h1.6V162h1.5v2.8zM323.5 171.2c-.4 2.1-1.9 3.2-4 3.2-3 0-4.4-2.1-4.5-4.9 0-2.8 1.8-4.8 4.4-4.8 3.3 0 4.3 3.1 4.2 5.3h-7c-.1 1.6.9 3.1 2.9 3.1 1.3 0 2.1-.6 2.4-1.8h1.6zm-1.5-2.6c-.1-1.5-1.2-2.6-2.7-2.6-1.6 0-2.6 1.2-2.7 2.6h5.4zM325.1 164.8h1.4v1.5c.6-1.2 1.7-1.7 3-1.7 2.4 0 3.2 1.4 3.2 3.4v6.1h-1.5v-6.3c0-1.2-.7-1.9-1.9-1.9-1.9 0-2.8 1.2-2.8 2.9v5.3H325v-9.3zM336.7 164.8h1.9v1.4h-1.9v5.8c0 .7.2.8 1.2.8h.7v1.4h-1.2c-1.6 0-2.2-.3-2.2-2v-5.9h-1.6v-1.4h1.6V162h1.5v2.8zM341.6 163.2H340v-1.9h1.5v1.9zm-1.6 1.6h1.5v9.3H340v-9.3zM347.7 164.6c3 0 4.5 2.1 4.5 4.9 0 2.7-1.6 4.9-4.5 4.9-3 0-4.5-2.1-4.5-4.9-.1-2.7 1.5-4.9 4.5-4.9zm0 8.4c1.6 0 2.9-1.3 2.9-3.5s-1.3-3.5-2.9-3.5-2.9 1.3-2.9 3.5 1.3 3.5 2.9 3.5zM353.7 164.8h1.4v1.5c.6-1.2 1.7-1.7 3-1.7 2.4 0 3.2 1.4 3.2 3.4v6.1h-1.5v-6.3c0-1.2-.7-1.9-1.9-1.9-1.9 0-2.8 1.2-2.8 2.9v5.3h-1.5v-9.3zM367.9 161.3h4.7c1.1 0 2.6 0 3.4.5.8.5 1.5 1.4 1.5 2.7 0 1.4-.7 2.4-1.9 2.9 1.6.3 2.4 1.5 2.4 3.1 0 1.9-1.4 3.7-3.9 3.7h-6.2v-12.9zm1.7 5.5h3.4c1.9 0 2.7-.7 2.7-2.1 0-1.8-1.2-2-2.7-2h-3.4v4.1zm0 5.9h4.3c1.5 0 2.4-.9 2.4-2.3 0-1.7-1.4-2.1-2.8-2.1h-3.9v4.4zM388 174.1c-.3.2-.6.3-1.1.3-.8 0-1.3-.4-1.3-1.4-.8 1-2 1.4-3.3 1.4-1.7 0-3.1-.7-3.1-2.6 0-2.1 1.6-2.6 3.2-2.9 1.7-.3 3.1-.2 3.1-1.4 0-1.4-1.1-1.5-2.1-1.5-1.3 0-2.3.4-2.3 1.8h-1.5c.1-2.3 1.9-3.1 3.9-3.1 1.7 0 3.5.4 3.5 2.6v4.8c0 .7 0 1 .5 1 .1 0 .3 0 .5-.1v1.1zm-2.5-4.8c-1.2.9-4.6 0-4.6 2.3 0 1 .9 1.4 1.8 1.4 2 0 2.8-1.2 2.8-2.1v-1.6zM389.4 164.8h1.4v2c.7-1.5 1.8-2.2 3.4-2.2v1.6c-2.5 0-3.4 1.4-3.4 3.8v4.1h-1.5v-9.3zM403 171.2c-.4 2.1-1.9 3.2-4 3.2-3 0-4.4-2.1-4.5-4.9 0-2.8 1.8-4.8 4.4-4.8 3.3 0 4.3 3.1 4.2 5.3h-7c-.1 1.6.9 3.1 2.9 3.1 1.3 0 2.1-.6 2.4-1.8h1.6zm-1.5-2.6c-.1-1.5-1.2-2.6-2.7-2.6-1.6 0-2.6 1.2-2.7 2.6h5.4zM404.7 161.3h1.5v12.9h-1.5v-12.9zM411.9 175.4c-.7 1.8-1.3 2.5-2.7 2.5-.4 0-.7 0-1.1-.2v-1.4c.3.1.6.2.9.2.6 0 1-.3 1.3-.8l.6-1.6-3.7-9.3h1.7l2.7 7.6 2.6-7.6h1.6l-3.9 10.6zM421.6 161.3h1.7v6.4l6.5-6.4h2.2l-5.4 5.2 5.6 7.7H430l-4.6-6.5-2.1 2v4.5h-1.7v-12.9z"/><path d="M440.5 171.2c-.4 2.1-1.9 3.2-4 3.2-3 0-4.4-2.1-4.5-4.9 0-2.8 1.8-4.8 4.4-4.8 3.3 0 4.3 3.1 4.2 5.3h-7c-.1 1.6.9 3.1 2.9 3.1 1.3 0 2.1-.6 2.4-1.8h1.6zm-1.5-2.6c-.1-1.5-1.2-2.6-2.7-2.6-1.6 0-2.6 1.2-2.7 2.6h5.4zM442.2 164.8h1.5v1.3c.5-1 1.7-1.5 3-1.5 2.9 0 4.3 2.3 4.3 4.9 0 2.6-1.4 4.8-4.2 4.8-.9 0-2.3-.4-3-1.5v4.8h-1.5v-12.8zm4.3 1.2c-2.1 0-2.8 1.8-2.8 3.5 0 1.8.8 3.5 2.9 3.5 2.1 0 2.8-1.8 2.8-3.6 0-1.7-.9-3.4-2.9-3.4zM454.6 164.8h1.9v1.4h-1.9v5.8c0 .7.2.8 1.2.8h.7v1.4h-1.2c-1.6 0-2.2-.3-2.2-2v-5.9h-1.6v-1.4h1.6V162h1.5v2.8z"/></g><g><path fill="#F9F9FA" d="M158.9 86.2H699v45H158.9z"/><path fill="#006D5E" d="M187.2 108.9h3.6v1.9h-3.6v3.6h-1.9v-3.6h-3.6v-1.9h3.6v-3.6h1.9v3.6zM198 114.4h-2.6v-8.2h-3.2v-1.9c1.8.1 3.4-.6 3.7-2.5h2v12.6zM204.5 101.6c2.5 0 4.6 1.6 4.6 6.5 0 5-2.1 6.6-4.6 6.6-2.5 0-4.6-1.6-4.6-6.6s2.1-6.5 4.6-6.5zm0 11c2.1 0 2.1-3.1 2.1-4.5 0-1.3 0-4.4-2.1-4.4s-2.1 3.1-2.1 4.4c0 1.4 0 4.5 2.1 4.5zM217.1 110.1c0 1.7 1.3 2.4 2.8 2.4 1 0 2.5-.3 2.5-1.6 0-1.4-1.9-1.6-3.8-2.1s-3.8-1.3-3.8-3.7c0-2.6 2.5-3.9 4.8-3.9 2.7 0 5.1 1.2 5.1 4.1H222c-.1-1.5-1.2-1.9-2.5-1.9-.9 0-1.9.4-1.9 1.5 0 1 .6 1.1 3.8 1.9 1 .2 3.8.8 3.8 3.7 0 2.4-1.8 4.1-5.3 4.1-2.8 0-5.5-1.4-5.5-4.6h2.7zM228.6 110.4c.1 1.6.8 2.4 2.3 2.4 1 0 1.9-.6 2-1.2h2.3c-.7 2.2-2.3 3.1-4.4 3.1-2.9 0-4.8-2-4.8-4.9 0-2.8 1.9-4.9 4.8-4.9 3.2 0 4.7 2.7 4.5 5.5h-6.7zm4.2-1.6c-.2-1.3-.8-2-2-2-1.7 0-2.1 1.3-2.1 2h4.1zM243 108.4c-.2-1.1-.8-1.6-1.9-1.6-1.6 0-2.2 1.7-2.2 3 0 1.4.5 2.9 2.1 2.9 1.2 0 1.9-.7 2-1.9h2.5c-.3 2.5-2 3.8-4.5 3.8-2.8 0-4.7-2-4.7-4.8 0-2.9 1.7-5 4.8-5 2.2 0 4.2 1.2 4.4 3.5H243zM251.3 104.9c2.9 0 4.8 1.9 4.8 4.9 0 3-1.9 4.9-4.8 4.9s-4.8-1.9-4.8-4.9c0-3 1.9-4.9 4.8-4.9zm0 7.8c1.7 0 2.3-1.5 2.3-3s-.5-3-2.3-3c-1.7 0-2.3 1.5-2.3 3s.6 3 2.3 3zM257.5 105.1h2.4v1.3h.1c.6-1.1 1.8-1.5 2.8-1.5 2.7 0 3.4 1.5 3.4 3.8v5.7h-2.6v-5.3c0-1.5-.4-2.3-1.6-2.3-1.4 0-2 .8-2 2.7v4.9h-2.6v-9.3zM274.4 113.2c-.6 1-1.7 1.4-2.9 1.4-2.8 0-4.2-2.4-4.2-5 0-2.5 1.4-4.8 4.1-4.8 1.1 0 2.2.5 2.8 1.4v-4.7h2.6v12.9h-2.4v-1.2zm-2.2-6.4c-1.7 0-2.3 1.5-2.3 3s.7 3 2.3 3c1.7 0 2.2-1.5 2.2-3 0-1.6-.6-3-2.2-3zM280.5 111.4c0 1.1 1 1.6 2 1.6.7 0 1.7-.3 1.7-1.2 0-.8-1.1-1.1-2.9-1.4-1.5-.3-3-.8-3-2.5 0-2.4 2.1-3 4.1-3 2 0 3.9.7 4.1 3H284c-.1-1-.8-1.3-1.7-1.3-.6 0-1.4.1-1.4.9 0 .9 1.5 1 2.9 1.4 1.5.3 3 .9 3 2.6 0 2.4-2.1 3.2-4.2 3.2-2.2 0-4.3-.8-4.4-3.3h2.3z"/><path d="M292.3 108.7h5.2v1.4h-5.2v-1.4zM304 101.6h1.7V113h6.8v1.4H304v-12.8zM317.8 104.9c3 0 4.5 2.1 4.5 4.9 0 2.7-1.6 4.9-4.5 4.9-3 0-4.5-2.1-4.5-4.9 0-2.8 1.6-4.9 4.5-4.9zm0 8.4c1.6 0 2.9-1.3 2.9-3.5s-1.3-3.5-2.9-3.5-2.9 1.3-2.9 3.5 1.3 3.5 2.9 3.5zM325 111.5c.1 1.4 1.3 1.8 2.5 1.8 1 0 2.3-.2 2.3-1.4 0-2.4-6.1-.8-6.1-4.4 0-1.9 1.8-2.6 3.5-2.6 2.1 0 3.7.6 3.8 2.9h-1.5c-.1-1.2-1.2-1.6-2.2-1.6-.9 0-2 .3-2 1.2 0 1.1 1.6 1.3 3 1.6 1.5.3 3 .9 3 2.6 0 2.2-2.1 2.9-4 2.9-2.1 0-3.9-.8-3.9-3.2h1.6zM334.9 105.1h1.9v1.4h-1.9v5.8c0 .7.2.8 1.2.8h.7v1.4h-1.2c-1.6 0-2.2-.3-2.2-2v-5.9h-1.6v-1.4h1.6v-2.8h1.5v2.7zM351.9 105.4c-.4-1.8-1.8-2.7-3.6-2.7-3.1 0-4.4 2.5-4.4 5.2 0 2.9 1.3 5.4 4.4 5.4 2.2 0 3.6-1.6 3.7-3.7h1.7c-.3 3.2-2.3 5.1-5.6 5.1-4 0-5.9-3-5.9-6.7s2.1-6.8 6.1-6.8c2.7 0 4.9 1.4 5.3 4.2h-1.7zM355.2 101.6h1.5v4.9c.5-1.1 1.8-1.6 2.9-1.6 2.4 0 3.2 1.4 3.2 3.4v6.1h-1.5v-6.3c0-1.2-.7-1.9-1.9-1.9-1.9 0-2.8 1.2-2.8 2.9v5.3h-1.5v-12.8zM373.1 114.4c-.3.2-.6.3-1.1.3-.8 0-1.3-.4-1.3-1.4-.8 1-2 1.4-3.3 1.4-1.7 0-3.1-.7-3.1-2.6 0-2.1 1.6-2.6 3.2-2.9 1.7-.3 3.1-.2 3.1-1.4 0-1.4-1.1-1.5-2.1-1.5-1.3 0-2.2.4-2.3 1.8h-1.5c.1-2.3 1.9-3.1 3.9-3.1 1.7 0 3.5.4 3.5 2.6v4.8c0 .7 0 1 .5 1 .1 0 .3 0 .5-.1v1.1zm-2.5-4.8c-1.2.9-4.6 0-4.6 2.3 0 1 .9 1.4 1.8 1.4 2 0 2.8-1.2 2.8-2.1v-1.6zM375.9 103.4h-1.5v-1.9h1.5v1.9zm-1.5 1.7h1.5v9.3h-1.5v-9.3zM377.9 105.1h1.4v1.5c.6-1.2 1.7-1.7 3-1.7 2.4 0 3.2 1.4 3.2 3.4v6.1H384v-6.3c0-1.2-.7-1.9-1.9-1.9-1.9 0-2.8 1.2-2.8 2.9v5.3h-1.5v-9.3zM395.9 104.9c3 0 4.5 2.1 4.5 4.9 0 2.7-1.6 4.9-4.5 4.9-3 0-4.5-2.1-4.5-4.9 0-2.8 1.5-4.9 4.5-4.9zm0 8.4c1.6 0 2.9-1.3 2.9-3.5s-1.3-3.5-2.9-3.5-2.9 1.3-2.9 3.5 1.3 3.5 2.9 3.5zM402.3 106.5h-1.6v-1.4h1.6v-1.4c0-1.5.9-2.3 2.6-2.3.3 0 .7.1 1 .1v1.3c-.3-.1-.6-.1-.9-.1-.7 0-1.2.2-1.2 1v1.3h1.8v1.4h-1.8v8h-1.5v-7.9zM414.7 103h-4.3v-1.4h10.3v1.4h-4.3v11.4h-1.7V103zM422.2 101.6h1.5v4.9c.5-1.1 1.8-1.6 2.9-1.6 2.4 0 3.2 1.4 3.2 3.4v6.1h-1.5v-6.3c0-1.2-.7-1.9-1.9-1.9-1.9 0-2.8 1.2-2.8 2.9v5.3h-1.5v-12.8zM435.9 104.9c3 0 4.5 2.1 4.5 4.9 0 2.7-1.6 4.9-4.5 4.9-3 0-4.5-2.1-4.5-4.9 0-2.8 1.5-4.9 4.5-4.9zm0 8.4c1.6 0 2.9-1.3 2.9-3.5s-1.3-3.5-2.9-3.5-2.9 1.3-2.9 3.5 1.3 3.5 2.9 3.5zM449.6 114.4h-1.4v-1.5c-.6 1.2-1.7 1.7-3 1.7-2.4 0-3.2-1.4-3.2-3.4v-6.1h1.5v6.3c0 1.2.7 1.9 1.9 1.9 1.9 0 2.8-1.2 2.8-2.9v-5.3h1.5v9.3zM459.6 113.6c0 3-1.4 4.6-4.3 4.6-1.7 0-3.8-.7-3.9-2.7h1.5c.1 1.1 1.4 1.5 2.4 1.5 2 0 2.8-1.4 2.8-3.5v-.6c-.5 1.1-1.7 1.7-2.9 1.7-2.8 0-4.2-2.2-4.2-4.7 0-2.2 1.1-4.9 4.3-4.9 1.2 0 2.2.5 2.8 1.5v-1.3h1.4v8.4zm-1.5-4c0-1.6-.7-3.3-2.6-3.3-2 0-2.8 1.6-2.8 3.4 0 1.7.6 3.5 2.6 3.5s2.8-1.9 2.8-3.6zM461.6 101.6h1.5v4.9c.5-1.1 1.8-1.6 2.9-1.6 2.4 0 3.2 1.4 3.2 3.4v6.1h-1.5v-6.3c0-1.2-.7-1.9-1.9-1.9-1.9 0-2.8 1.2-2.8 2.9v5.3h-1.5v-12.8zM473.1 105.1h1.9v1.4h-1.9v5.8c0 .7.2.8 1.2.8h.7v1.4h-1.2c-1.6 0-2.2-.3-2.2-2v-5.9H470v-1.4h1.6v-2.8h1.5v2.7z"/></g><circle fill="#F9F9FA" cx="122.1" cy="365" r="9.3"/><circle fill="#F9F9FA" cx="86.1" cy="337.9" r="9.3"/><circle fill="#F9F9FA" cx="86.1" cy="171.7" r="9.3"/><circle fill="#F9F9FA" cx="86.1" cy="283.8" r="9.3"/><circle fill="#F9F9FA" cx="86.1" cy="68.8" r="9.3"/><path fill="#F9F9FA" d="M181 110.7H85.1V68.8h2v39.9H181M86.1 170.7H181v2H86.1zM87.1 337.9h-2V304H181v2H87.1M122.1 364H181v2h-58.9z"/><g><path d="M587.8 388.2c-.1-1.2-.9-1.8-2.1-1.8-1 0-1.9.3-1.9 1.5 0 2.1 5.5.6 5.5 4 0 1.8-1.8 2.6-3.3 2.6-1.9 0-3.5-.9-3.5-3h1.1c0 1.4 1.2 2.1 2.5 2.1 1 0 2.2-.3 2.2-1.6 0-2.4-5.5-.8-5.5-3.9 0-1.7 1.5-2.5 3.1-2.5 1.8 0 3.1.8 3.2 2.7h-1.3zM593.1 387.9c2 0 3 1.4 3 3.3 0 1.8-1 3.2-3 3.2s-3-1.4-3-3.2c0-1.8 1-3.3 3-3.3zm0 5.6c1.1 0 1.9-.8 1.9-2.3s-.9-2.4-1.9-2.4-1.9.9-1.9 2.4.8 2.3 1.9 2.3zM602.2 394.3h-1v-1c-.4.8-1.1 1.1-2 1.1-1.6 0-2.1-.9-2.1-2.3V388h1v4.2c0 .8.5 1.2 1.3 1.2 1.2 0 1.8-.8 1.8-1.9V388h1v6.3zM603.5 388.1h1v1.3c.5-1 1.2-1.5 2.3-1.5v1.1c-1.6 0-2.2.9-2.2 2.5v2.8h-1v-6.2zM611.5 390.1c-.2-.8-.7-1.2-1.5-1.2-1.5 0-1.9 1.2-1.9 2.4s.5 2.3 1.8 2.3c1 0 1.6-.6 1.7-1.5h1c-.2 1.5-1.2 2.4-2.7 2.4-1.9 0-2.9-1.3-2.9-3.2s1-3.3 2.9-3.3c1.4 0 2.5.7 2.7 2.1h-1.1zM618.9 392.3c-.3 1.4-1.2 2.1-2.7 2.1-2 0-2.9-1.4-3-3.3 0-1.9 1.2-3.2 2.9-3.2 2.2 0 2.9 2.1 2.8 3.6h-4.6c0 1.1.6 2 1.9 2 .9 0 1.4-.4 1.6-1.2h1.1zm-1-1.7c-.1-1-.8-1.8-1.8-1.8-1.1 0-1.7.8-1.8 1.8h3.6zM621.7 389.4h-1.3v-1.3h1.3v1.3zm-1.4 3.6h1.3v1.3h-1.3V393zM630.7 392.1c0 1.2-.6 2.3-2.5 2.3-1.6 0-2.5-.9-2.5-2.5v-.5h1.1v.4c0 1 .3 1.7 1.4 1.7 1 0 1.4-.6 1.4-1.5v-6.3h1.1v6.4zM637.5 394.3c-.2.1-.4.2-.7.2-.5 0-.9-.3-.9-1-.6.7-1.3 1-2.2 1-1.1 0-2.1-.5-2.1-1.7 0-1.4 1-1.7 2.1-1.9 1.1-.2 2.1-.1 2.1-.9 0-.9-.7-1-1.4-1-.9 0-1.5.3-1.5 1.2h-1c.1-1.5 1.2-2.1 2.6-2.1 1.1 0 2.3.3 2.3 1.7v3.2c0 .5 0 .7.3.7.1 0 .2 0 .3-.1v.7zm-1.6-3.2c-.8.6-3.1 0-3.1 1.5 0 .7.6.9 1.2.9 1.3 0 1.9-.8 1.9-1.4v-1zM638.5 385.7h1v5.1l2.8-2.7h1.4l-2.5 2.3 2.6 3.9h-1.3l-2.1-3.2-1 .9v2.4h-1v-8.7zM646.8 387.9c2 0 3 1.4 3 3.3 0 1.8-1 3.2-3 3.2s-3-1.4-3-3.2c0-1.8 1.1-3.3 3-3.3zm0 5.6c1.1 0 1.9-.8 1.9-2.3s-.9-2.4-1.9-2.4-1.9.9-1.9 2.4.9 2.3 1.9 2.3zM650.9 385.7h1v3.2c.3-.7 1.1-1 2-1 1.9 0 2.9 1.5 2.9 3.3 0 1.8-.9 3.2-2.8 3.2-.6 0-1.6-.2-2-1v.8h-1v-8.5zm2.9 3.1c-1.4 0-1.9 1.2-1.9 2.3 0 1.2.6 2.4 2 2.4s1.9-1.2 1.9-2.4c-.1-1.1-.7-2.3-2-2.3zM660.8 385.7h1.2l4.5 6.9v-6.9h1.1v8.6h-1.2l-4.5-6.9v6.9h-1.1v-8.6zM670.2 387h-1v-1.2h1v1.2zm-1.1 1.1h1v6.2h-1v-6.2zM676.8 392.3c-.3 1.4-1.2 2.1-2.7 2.1-2 0-2.9-1.4-3-3.3 0-1.9 1.2-3.2 2.9-3.2 2.2 0 2.9 2.1 2.8 3.6h-4.6c0 1.1.6 2 1.9 2 .9 0 1.4-.4 1.6-1.2h1.1zm-1-1.7c-.1-1-.8-1.8-1.8-1.8-1.1 0-1.7.8-1.8 1.8h3.6zM678 385.7h1v8.6h-1v-8.6zM681 392.3c0 .9.8 1.2 1.7 1.2.6 0 1.5-.1 1.5-.9 0-1.6-4.1-.5-4.1-2.9 0-1.2 1.2-1.8 2.3-1.8 1.4 0 2.4.4 2.5 1.9h-1c-.1-.8-.8-1-1.4-1-.6 0-1.3.2-1.3.8 0 .7 1.1.9 2 1.1 1 .2 2 .6 2 1.8 0 1.5-1.4 2-2.6 2-1.4 0-2.6-.6-2.6-2.1h1zM691.5 392.3c-.3 1.4-1.2 2.1-2.7 2.1-2 0-2.9-1.4-3-3.3 0-1.9 1.2-3.2 2.9-3.2 2.2 0 2.9 2.1 2.8 3.6H687c0 1.1.6 2 1.9 2 .9 0 1.4-.4 1.6-1.2h1zm-1-1.7c-.1-1-.8-1.8-1.8-1.8-1.1 0-1.7.8-1.8 1.8h3.6zM692.7 388.1h1v1c.4-.8 1.1-1.1 2-1.1 1.6 0 2.1.9 2.1 2.3v4.1h-1v-4.2c0-.8-.5-1.2-1.3-1.2-1.2 0-1.8.8-1.8 1.9v3.5h-1v-6.3z"/></g><g><path fill="#F9F9FA" d="M158.9 205.6H699v45H158.9z"/><path fill="#006D5E" d="M187.4 227c1.1.1 2.7-.1 2.7-1.6 0-1.1-.8-1.7-1.8-1.7-1.3 0-2 1-1.9 2.3H184c.1-2.6 1.7-4.4 4.4-4.4 2 0 4.2 1.2 4.2 3.5 0 1.2-.6 2.2-1.8 2.6 1.4.3 2.2 1.4 2.2 2.9 0 2.6-2.2 4.1-4.7 4.1-2.8 0-4.7-1.7-4.7-4.6h2.4c.1 1.4.7 2.5 2.2 2.5 1.2 0 2.1-.8 2.1-2 0-1.9-1.7-1.9-2.9-1.9V227zM200.8 230.2c0 1.7 1.3 2.4 2.8 2.4 1 0 2.5-.3 2.5-1.6 0-1.4-1.9-1.6-3.8-2.1s-3.8-1.3-3.8-3.7c0-2.6 2.5-3.9 4.8-3.9 2.7 0 5.1 1.2 5.1 4.1h-2.7c-.1-1.5-1.2-1.9-2.5-1.9-.9 0-1.9.4-1.9 1.5 0 1 .6 1.1 3.8 1.9 1 .2 3.8.8 3.8 3.7 0 2.4-1.8 4.1-5.3 4.1-2.8 0-5.5-1.4-5.5-4.6h2.7zM212.4 230.5c.1 1.6.8 2.4 2.3 2.4 1 0 1.9-.6 2-1.2h2.3c-.7 2.2-2.3 3.1-4.4 3.1-2.9 0-4.8-2-4.8-4.9 0-2.8 1.9-4.9 4.8-4.9 3.2 0 4.7 2.7 4.5 5.5h-6.7zm4.2-1.7c-.2-1.3-.8-2-2-2-1.7 0-2.1 1.3-2.1 2h4.1zM226.8 228.5c-.2-1.1-.8-1.6-1.9-1.6-1.6 0-2.2 1.7-2.2 3 0 1.4.5 2.9 2.1 2.9 1.2 0 1.9-.7 2-1.9h2.5c-.3 2.5-2 3.8-4.5 3.8-2.8 0-4.7-2-4.7-4.8 0-2.9 1.7-5 4.8-5 2.2 0 4.2 1.2 4.4 3.5h-2.5zM235.1 224.9c2.9 0 4.8 1.9 4.8 4.9 0 3-1.9 4.9-4.8 4.9s-4.8-1.9-4.8-4.9c0-2.9 1.9-4.9 4.8-4.9zm0 7.9c1.7 0 2.3-1.5 2.3-3s-.5-3-2.3-3c-1.7 0-2.3 1.5-2.3 3s.6 3 2.3 3zM241.2 225.2h2.4v1.3h.1c.6-1.1 1.8-1.5 2.8-1.5 2.7 0 3.4 1.5 3.4 3.8v5.7h-2.6v-5.3c0-1.5-.4-2.3-1.6-2.3-1.4 0-2 .8-2 2.7v4.9h-2.6v-9.3zM258.2 233.3c-.6 1-1.7 1.4-2.9 1.4-2.8 0-4.2-2.4-4.2-5 0-2.5 1.4-4.8 4.1-4.8 1.1 0 2.2.5 2.8 1.4v-4.7h2.6v12.9h-2.4v-1.2zm-2.2-6.4c-1.7 0-2.3 1.5-2.3 3s.7 3 2.3 3c1.7 0 2.2-1.5 2.2-3 0-1.6-.6-3-2.2-3zM264.2 231.5c0 1.1 1 1.6 2 1.6.7 0 1.7-.3 1.7-1.2 0-.8-1.1-1.1-2.9-1.4-1.5-.3-3-.8-3-2.5 0-2.4 2.1-3 4.1-3 2 0 3.9.7 4.1 3h-2.4c-.1-1-.8-1.3-1.7-1.3-.6 0-1.4.1-1.4.9 0 .9 1.5 1 2.9 1.4 1.5.3 3 .9 3 2.6 0 2.4-2.1 3.2-4.2 3.2-2.2 0-4.3-.8-4.4-3.3h2.2z"/><path d="M276 228.8h5.2v1.4H276v-1.4zM294 230.2h1.7v1.3H294v3h-1.4v-3H287V230l5.8-8.3h1.2v8.5zm-1.5 0V224l-4.2 6.2h4.2zM301.2 221.7c4 0 4.2 3.7 4.2 6.5s-.3 6.5-4.2 6.5c-4 0-4.2-3.7-4.2-6.5s.2-6.5 4.2-6.5zm0 11.7c2.6 0 2.6-3.2 2.6-5.1 0-1.9 0-5.1-2.6-5.1s-2.6 3.2-2.6 5.1c0 1.8 0 5.1 2.6 5.1zM310.3 221.7c2.2 0 2.9 1.6 2.9 3.6 0 1.9-.8 3.6-2.9 3.6-2.2 0-2.9-1.6-2.9-3.6 0-1.9.7-3.6 2.9-3.6zm0 6.3c1.4 0 1.6-1.5 1.6-2.6s-.2-2.6-1.5-2.6c-1.4 0-1.6 1.5-1.6 2.6-.1 1 .1 2.6 1.5 2.6zm8.5-6.5h1.5l-9.7 13.4h-1.5l9.7-13.4zm.4 6c2.2 0 2.9 1.6 2.9 3.6 0 1.9-.8 3.6-2.9 3.6-2.2 0-2.9-1.6-2.9-3.6 0-1.9.7-3.6 2.9-3.6zm0 6.2c1.4 0 1.6-1.5 1.6-2.6s-.2-2.6-1.5-2.6c-1.4 0-1.6 1.5-1.6 2.6-.1 1.1.1 2.6 1.5 2.6zM332.6 225c3 0 4.5 2.1 4.5 4.9 0 2.7-1.6 4.9-4.5 4.9-3 0-4.5-2.1-4.5-4.9 0-2.8 1.5-4.9 4.5-4.9zm0 8.4c1.6 0 2.9-1.3 2.9-3.5s-1.3-3.5-2.9-3.5-2.9 1.3-2.9 3.5 1.3 3.5 2.9 3.5zM339 226.5h-1.6v-1.4h1.6v-1.4c0-1.5.9-2.3 2.6-2.3.3 0 .7.1 1 .1v1.3c-.3-.1-.6-.1-.9-.1-.7 0-1.2.2-1.2 1v1.3h1.8v1.4h-1.8v8H339v-7.9zM358.1 229.8c0 3.3-1.8 5-5.1 5s-5.3-1.5-5.3-5v-8.2h1.7v8.2c0 2.3 1.3 3.5 3.6 3.5 2.2 0 3.3-1.2 3.3-3.5v-8.2h1.7v8.2zM361.1 231.6c.1 1.4 1.3 1.8 2.5 1.8 1 0 2.3-.2 2.3-1.4 0-2.4-6.1-.8-6.1-4.4 0-1.9 1.8-2.6 3.5-2.6 2.1 0 3.7.6 3.8 2.9h-1.5c-.1-1.2-1.2-1.6-2.2-1.6-.9 0-2 .3-2 1.2 0 1.1 1.6 1.3 3 1.6 1.5.3 3 .9 3 2.6 0 2.2-2.1 2.9-4 2.9-2.1 0-3.9-.8-3.9-3.2h1.6zM377 231.5c-.4 2.1-1.9 3.2-4 3.2-3 0-4.4-2.1-4.5-4.9 0-2.8 1.8-4.8 4.4-4.8 3.3 0 4.3 3.1 4.2 5.3h-7c-.1 1.6.9 3.1 2.9 3.1 1.3 0 2.1-.6 2.4-1.8h1.6zm-1.5-2.6c-.1-1.5-1.2-2.6-2.7-2.6-1.6 0-2.6 1.2-2.7 2.6h5.4zM378.6 225.2h1.4v2c.7-1.5 1.8-2.2 3.4-2.2v1.6c-2.5 0-3.4 1.4-3.4 3.8v4.1h-1.5v-9.3zM385.5 231.6c.1 1.4 1.3 1.8 2.5 1.8 1 0 2.3-.2 2.3-1.4 0-2.4-6.1-.8-6.1-4.4 0-1.9 1.8-2.6 3.5-2.6 2.1 0 3.7.6 3.8 2.9H390c-.1-1.2-1.2-1.6-2.2-1.6-.9 0-2 .3-2 1.2 0 1.1 1.6 1.3 3 1.6 1.5.3 3 .9 3 2.6 0 2.2-2.1 2.9-4 2.9-2.1 0-3.9-.8-3.9-3.2h1.6zM397.8 221.6h1.7V233h6.8v1.4h-8.5v-12.8zM415.6 231.5c-.4 2.1-1.9 3.2-4 3.2-3 0-4.4-2.1-4.5-4.9 0-2.8 1.8-4.8 4.4-4.8 3.3 0 4.3 3.1 4.2 5.3h-7c-.1 1.6.9 3.1 2.9 3.1 1.3 0 2.1-.6 2.4-1.8h1.6zm-1.5-2.6c-.1-1.5-1.2-2.6-2.7-2.6-1.6 0-2.6 1.2-2.7 2.6h5.4zM425.6 234.5c-.3.2-.6.3-1.1.3-.8 0-1.3-.4-1.3-1.4-.8 1-2 1.4-3.3 1.4-1.7 0-3.1-.7-3.1-2.6 0-2.1 1.6-2.6 3.2-2.9 1.7-.3 3.1-.2 3.1-1.4 0-1.4-1.1-1.5-2.1-1.5-1.3 0-2.3.4-2.3 1.8h-1.5c.1-2.3 1.9-3.1 3.9-3.1 1.7 0 3.5.4 3.5 2.6v4.8c0 .7 0 1 .5 1 .1 0 .3 0 .5-.1v1.1zm-2.5-4.8c-1.2.9-4.6 0-4.6 2.3 0 1 .9 1.4 1.8 1.4 2 0 2.8-1.2 2.8-2.1v-1.6zM430.6 234.5H429l-3.5-9.3h1.7l2.6 7.8 2.5-7.8h1.6l-3.3 9.3zM442.6 231.5c-.4 2.1-1.9 3.2-4 3.2-3 0-4.4-2.1-4.5-4.9 0-2.8 1.8-4.8 4.4-4.8 3.3 0 4.3 3.1 4.2 5.3h-7c-.1 1.6.9 3.1 2.9 3.1 1.3 0 2.1-.6 2.4-1.8h1.6zm-1.5-2.6c-.1-1.5-1.2-2.6-2.7-2.6-1.6 0-2.6 1.2-2.7 2.6h5.4z"/></g><path fill="#F9F9FA" d="M87.1 283.8h-2v-56.6h94.6v2H87.1"/></svg>