<?xml version="1.0" encoding="utf-8"?>
<!-- Generator: Adobe Illustrator 18.1.1, SVG Export Plug-In . SVG Version: 6.00 Build 0)  -->
<!DOCTYPE svg PUBLIC "-//W3C//DTD SVG 1.1//EN" "http://www.w3.org/Graphics/SVG/1.1/DTD/svg11.dtd">
551 bytes - 40.88% saving
<svg xmlns="http://www.w3.org/2000/svg" width="341.1" height="300" viewBox="179 139 341.1 300"><path fill="#ECECEC" d="M179 139h341.1v300H179V139z"/><path fill="#F9F9F9" d="M219.2 231.4h300.9v71.2H219.2v-71.2z"/><path fill="#D74108" d="M219.2 320.8h198.5v53.7H219.2v-53.7z"/><text transform="translate(262.998 354.577)" fill="#F9F9F9" font-family="'HelvNeueMediumforIBM'" font-size="20.669">Ask Watson</text><text transform="translate(262.998 273.335)" fill="#D74108" font-family="'HelvNeueLightItalicforIBM'" font-size="20.669">Type your question here</text><g fill="#AEAEAE"><path d="M279 180.6h-6v2h2v6h-2v2h8v-2h-2"/><circle cx="277" cy="176.6" r="2"/><path d="M277 168.6c-7.7 0-14 6.3-14 14s6.3 14 14 14 14-6.3 14-14-6.3-14-14-14zm0 26c-6.6 0-12-5.4-12-12s5.4-12 12-12 12 5.4 12 12c0 6.7-5.4 12-12 12z"/></g><g fill="#AEAEAE"><path d="M230.2 168.6c-6.1 0-11 4.9-11 11s4.9 11 11 11 11-4.9 11-11c0-6-4.9-11-11-11zm0 20c-5 0-9-4-9-9s4-9 9-9 9 4 9 9-4 9-9 9zM249.267 195.624l-2.97 2.97-7-7 2.97-2.97z"/><circle cx="239.2" cy="188.6" r="1"/></g></svg>
