<?xml version="1.0" encoding="utf-8"?>
<!-- Generator: Adobe Illustrator 18.1.1, SVG Export Plug-In . SVG Version: 6.00 Build 0)  -->
<!DOCTYPE svg PUBLIC "-//W3C//DTD SVG 1.1//EN" "http://www.w3.org/Graphics/SVG/1.1/DTD/svg11.dtd">
<svg version="1.1" id="Layer_1" xmlns="http://www.w3.org/2000/svg" xmlns:xlink="http://www.w3.org/1999/xlink" x="0px" y="0px"
	 width="341.1px" height="300px" viewBox="-188 139 341.1 300" enable-background="new -188 139 341.1 300" xml:space="preserve">
<path fill="#ECECEC" d="M-188,139h341.1v300H-188V139z"/>
<path fill="#F9F9F9" d="M-147.8,231.4h300.9v71.2h-300.9V231.4z"/>
<path fill="#325C80" d="M-147.8,320.8H50.8v53.7h-198.5V320.8z"/>
<g>
	<circle fill="#00B4A0" cx="-125.9" cy="174.7" r="5.9"/>
	<path fill="#00B4A0" d="M-120.9,182.1h-10c-1.4,0-2.5,1.1-2.5,2.5v2.5h15v-2.5C-118.4,183.3-119.5,182.1-120.9,182.1L-120.9,182.1z
		"/>
</g>
<text transform="matrix(1 0 0 1 -104.0014 354.5771)" fill="#F9F9F9" font-family="'HelvNeueMediumforIBM'" font-size="20.6692">Ask Watson</text>
<text transform="matrix(1 0 0 1 -104.002 187.1718)" fill="#323232" font-family="'HelvNeueMediumforIBM'" font-size="20.6692">Hello, Jane!</text>
<text transform="matrix(1 0 0 1 -104.0016 273.3349)" fill="#325C80" font-family="'HelvNeueLightItalicforIBM'" font-size="20.6692">Type your question here</text>
</svg>
