<svg xmlns="http://www.w3.org/2000/svg" xmlns:xlink="http://www.w3.org/1999/xlink" version="1.1" x="0px" y="0px" width="341.1px" height="300px" viewBox="0 0 341.1 300" enable-background="new 0 0 341.1 300" xml:space="preserve">
<g id="background">
</g>
<g id="grid">
</g>
<g id="navigation">
</g>
<g id="Layer_4">
	<rect x="0" y="0" fill="#323232" width="341.1" height="300"/>
	<rect x="79.1" y="39.1" fill="#5A5A5A" width="262" height="46.8"/>
	<g>
		<path fill="#E0E0E0" d="M126.3 64.7c0 2.9-1.6 4.4-4.5 4.4c-2.9 0-4.7-1.4-4.7-4.4v-7.3h1.5v7.3c0 2 1.1 3.1 3.2 3.1 c1.9 0 3-1.1 3-3.1v-7.3h1.5V64.7z"/>
		<path fill="#E0E0E0" d="M128.9 66.2c0 1.2 1.1 1.6 2.2 1.6c0.8 0 2-0.2 2-1.2c0-2.1-5.4-0.7-5.4-3.9c0-1.7 1.6-2.4 3.1-2.4 c1.9 0 3.3 0.6 3.4 2.6h-1.4c-0.1-1.1-1-1.4-1.9-1.4c-0.8 0-1.8 0.2-1.8 1.1c0 1 1.4 1.2 2.7 1.4c1.4 0.3 2.7 0.8 2.7 2.4 c0 2-1.8 2.6-3.5 2.6c-1.9 0-3.4-0.8-3.5-2.8H128.9z"/>
		<path fill="#E0E0E0" d="M143 66.2c-0.4 1.8-1.7 2.8-3.5 2.8c-2.6 0-3.9-1.8-4-4.4c0-2.5 1.6-4.3 3.9-4.3c2.9 0 3.8 2.7 3.7 4.7 H137c0 1.4 0.8 2.7 2.6 2.7c1.1 0 1.9-0.5 2.1-1.6H143z M141.7 63.9c-0.1-1.3-1-2.3-2.4-2.3c-1.4 0-2.3 1.1-2.4 2.3H141.7z"/>
		<path fill="#E0E0E0" d="M144.5 60.6h1.3v1.7h0c0.7-1.3 1.6-2 3-1.9v1.4c-2.2 0-3 1.2-3 3.3v3.7h-1.4V60.6z"/>
		<path fill="#E0E0E0" d="M153.7 57.4h1.6l6 9.3h0v-9.3h1.4v11.4h-1.7l-6-9.2h0v9.2h-1.4V57.4z"/>
		<path fill="#E0E0E0" d="M172.1 68.8c-0.2 0.1-0.6 0.2-1 0.2c-0.7 0-1.2-0.4-1.2-1.3c-0.8 0.9-1.8 1.3-2.9 1.3 c-1.5 0-2.7-0.7-2.7-2.3c0-1.9 1.4-2.3 2.8-2.5c1.5-0.3 2.8-0.2 2.8-1.2c0-1.2-1-1.4-1.8-1.4c-1.2 0-2 0.4-2.1 1.6h-1.4 c0.1-2 1.6-2.8 3.5-2.8c1.5 0 3.1 0.3 3.1 2.3v4.3c0 0.6 0 0.9 0.4 0.9c0.1 0 0.3 0 0.4-0.1V68.8z M169.9 64.6 c-1.1 0.8-4.1 0-4.1 2c0 0.9 0.8 1.2 1.6 1.2c1.8 0 2.5-1.1 2.5-1.9V64.6z"/>
		<path fill="#E0E0E0" d="M173.4 60.6h1.3v1.2h0c0.6-0.9 1.5-1.4 2.7-1.4c1 0 1.9 0.4 2.3 1.4c0.6-0.9 1.5-1.4 2.6-1.4 c1.6 0 2.8 0.7 2.8 2.4v6.1h-1.4v-5.4c0-1-0.3-1.8-1.6-1.8s-2.2 0.8-2.2 2.1v5.2h-1.4v-5.4c0-1.1-0.3-1.8-1.6-1.8 c-1.6 0-2.2 1.5-2.2 2.1v5.2h-1.4V60.6z"/>
		<path fill="#E0E0E0" d="M193.8 66.2c-0.4 1.8-1.7 2.8-3.5 2.8c-2.6 0-3.9-1.8-4-4.4c0-2.5 1.6-4.3 3.9-4.3c2.9 0 3.8 2.7 3.7 4.7 h-6.2c0 1.4 0.8 2.7 2.6 2.7c1.1 0 1.9-0.5 2.1-1.6H193.8z M192.5 63.9c-0.1-1.3-1-2.3-2.4-2.3c-1.4 0-2.3 1.1-2.4 2.3H192.5z"/>
	</g>
	<rect x="79.1" y="102.7" fill="#5A5A5A" width="262" height="46.8"/>
	<g>
		<path fill="#E0E0E0" d="M117.2 121h5c2.3 0 3.5 1.2 3.5 3.4c0 2.1-1.2 3.4-3.5 3.4h-3.5v4.7h-1.5V121z M118.7 126.5h3 c1.7 0 2.5-0.7 2.5-2.1c0-1.4-0.8-2.1-2.5-2.1h-3V126.5z"/>
		<path fill="#E0E0E0" d="M134.1 132.4c-0.2 0.1-0.6 0.2-1 0.2c-0.7 0-1.2-0.4-1.2-1.3c-0.8 0.9-1.8 1.3-2.9 1.3 c-1.5 0-2.7-0.7-2.7-2.3c0-1.9 1.4-2.3 2.8-2.5c1.5-0.3 2.8-0.2 2.8-1.2c0-1.2-1-1.4-1.8-1.4c-1.2 0-2 0.4-2.1 1.6h-1.4 c0.1-2 1.6-2.8 3.5-2.8c1.5 0 3.1 0.3 3.1 2.3v4.3c0 0.6 0 0.9 0.4 0.9c0.1 0 0.3 0 0.4-0.1V132.4z M131.9 128.2 c-1.1 0.8-4.1 0-4.1 2c0 0.9 0.8 1.2 1.6 1.2c1.8 0 2.5-1.1 2.5-1.9V128.2z"/>
		<path fill="#E0E0E0" d="M136.2 129.8c0 1.2 1.1 1.6 2.2 1.6c0.8 0 2-0.2 2-1.2c0-2.1-5.4-0.7-5.4-3.9c0-1.7 1.6-2.4 3.1-2.4 c1.9 0 3.3 0.6 3.4 2.6h-1.4c-0.1-1.1-1-1.4-1.9-1.4c-0.8 0-1.8 0.2-1.8 1.1c0 1 1.4 1.2 2.7 1.4c1.4 0.3 2.7 0.8 2.7 2.4 c0 2-1.8 2.6-3.5 2.6c-1.9 0-3.4-0.8-3.5-2.8H136.2z"/>
		<path fill="#E0E0E0" d="M144.2 129.8c0 1.2 1.1 1.6 2.2 1.6c0.8 0 2-0.2 2-1.2c0-2.1-5.4-0.7-5.4-3.9c0-1.7 1.6-2.4 3.1-2.4 c1.9 0 3.3 0.6 3.4 2.6h-1.4c-0.1-1.1-1-1.4-1.9-1.4c-0.8 0-1.8 0.2-1.8 1.1c0 1 1.4 1.2 2.7 1.4c1.4 0.3 2.7 0.8 2.7 2.4 c0 2-1.8 2.6-3.5 2.6c-1.9 0-3.4-0.8-3.5-2.8H144.2z"/>
		<path fill="#E0E0E0" d="M159.1 132.4h-1.4l-1.7-6.6h0l-1.7 6.6h-1.5l-2.7-8.3h1.5l1.9 6.8h0l1.7-6.8h1.5l1.7 6.8h0l1.9-6.8h1.4 L159.1 132.4z"/>
		<path fill="#E0E0E0" d="M166 124c2.6 0 4 1.9 4 4.3c0 2.4-1.4 4.3-4 4.3s-4-1.9-4-4.3C162 125.9 163.4 124 166 124z M166 131.4 c1.4 0 2.6-1.1 2.6-3.1s-1.2-3.1-2.6-3.1c-1.4 0-2.6 1.1-2.6 3.1S164.6 131.4 166 131.4z"/>
		<path fill="#E0E0E0" d="M171.4 124.2h1.3v1.7h0c0.7-1.3 1.6-2 3-1.9v1.4c-2.2 0-3 1.2-3 3.3v3.7h-1.4V124.2z"/>
		<path fill="#E0E0E0" d="M183.8 132.4h-1.4v-1.1h0c-0.4 0.9-1.5 1.3-2.6 1.3c-2.5 0-3.8-2-3.8-4.4s1.2-4.3 3.8-4.3 c0.8 0 2.1 0.3 2.7 1.3h0V121h1.4V132.4z M180 131.4c1.8 0 2.5-1.6 2.5-3.1c0-1.6-0.7-3.1-2.6-3.1c-1.9 0-2.5 1.6-2.5 3.2 C177.4 129.9 178.2 131.4 180 131.4z"/>
	</g>
	<g>
		<path fill="#E0E0E0" d="M132.7 248h7.5v1.3h-6v3.6h5.3v1.3h-5.3v5.2h-1.5V248z"/>
		<path fill="#E0E0E0" d="M144.5 251c2.6 0 4 1.9 4 4.3c0 2.4-1.4 4.3-4 4.3s-4-1.9-4-4.3C140.5 252.9 141.9 251 144.5 251z M144.5 258.4c1.4 0 2.6-1.1 2.6-3.1s-1.2-3.1-2.6-3.1c-1.4 0-2.6 1.1-2.6 3.1S143.1 258.4 144.5 258.4z"/>
		<path fill="#E0E0E0" d="M149.9 251.2h1.3v1.7h0c0.7-1.3 1.6-2 3-1.9v1.4c-2.2 0-3 1.2-3 3.3v3.7h-1.4V251.2z"/>
		<path fill="#E0E0E0" d="M162.1 258.7c0 2.7-1.2 4.1-3.8 4.1c-1.6 0-3.3-0.6-3.4-2.4h1.4c0 1 1.3 1.3 2.1 1.3 c1.8 0 2.5-1.3 2.5-3.1V258h0c-0.5 1-1.5 1.5-2.6 1.5c-2.5 0-3.7-1.9-3.7-4.2c0-2 0.9-4.4 3.8-4.4c1 0 2 0.5 2.5 1.4h0v-1.2h1.3 V258.7z M160.7 255.1c0-1.5-0.6-3-2.4-3c-1.7 0-2.4 1.4-2.4 3c0 1.5 0.5 3.2 2.3 3.2C160 258.3 160.7 256.7 160.7 255.1z"/>
		<path fill="#E0E0E0" d="M167.4 251c2.6 0 4 1.9 4 4.3c0 2.4-1.4 4.3-4 4.3s-4-1.9-4-4.3C163.4 252.9 164.8 251 167.4 251z M167.4 258.4c1.4 0 2.6-1.1 2.6-3.1s-1.2-3.1-2.6-3.1c-1.4 0-2.6 1.1-2.6 3.1S166 258.4 167.4 258.4z"/>
		<path fill="#E0E0E0" d="M174.6 251.2h1.6v1.2h-1.6v5.1c0 0.6 0.2 0.7 1 0.7h0.6v1.2h-1c-1.4 0-2-0.3-2-1.8v-5.3h-1.4v-1.2h1.4 v-2.5h1.4V251.2z"/>
		<path fill="#E0E0E0" d="M181.4 251.2h1.4v1.1h0c0.4-0.9 1.5-1.3 2.6-1.3c2.5 0 3.8 2 3.8 4.4c0 2.4-1.2 4.3-3.8 4.3 c-0.8 0-2.1-0.3-2.7-1.3h0v4.3h-1.4V251.2z M185.2 252.2c-1.8 0-2.5 1.6-2.5 3.1c0 1.6 0.7 3.1 2.6 3.1c1.9 0 2.5-1.6 2.5-3.2 C187.8 253.7 187 252.2 185.2 252.2z"/>
		<path fill="#E0E0E0" d="M197.9 259.4c-0.2 0.1-0.6 0.2-1 0.2c-0.7 0-1.2-0.4-1.2-1.3c-0.8 0.9-1.8 1.3-2.9 1.3 c-1.5 0-2.7-0.7-2.7-2.3c0-1.9 1.4-2.3 2.8-2.5c1.5-0.3 2.8-0.2 2.8-1.2c0-1.2-1-1.4-1.8-1.4c-1.2 0-2 0.4-2.1 1.6h-1.4 c0.1-2 1.6-2.8 3.5-2.8c1.5 0 3.1 0.3 3.1 2.3v4.3c0 0.6 0 0.9 0.4 0.9c0.1 0 0.3 0 0.4-0.1V259.4z M195.7 255.2 c-1.1 0.8-4.1 0-4.1 2c0 0.9 0.8 1.2 1.6 1.2c1.8 0 2.5-1.1 2.5-1.9V255.2z"/>
		<path fill="#E0E0E0" d="M200 256.8c0 1.2 1.1 1.6 2.2 1.6c0.8 0 2-0.2 2-1.2c0-2.1-5.4-0.7-5.4-3.9c0-1.7 1.6-2.4 3.1-2.4 c1.9 0 3.3 0.6 3.4 2.6h-1.4c-0.1-1.1-1-1.4-1.9-1.4c-0.8 0-1.8 0.2-1.8 1.1c0 1 1.4 1.2 2.7 1.4c1.4 0.3 2.7 0.8 2.7 2.4 c0 2-1.8 2.6-3.5 2.6c-1.9 0-3.4-0.8-3.5-2.8H200z"/>
		<path fill="#E0E0E0" d="M208 256.8c0 1.2 1.1 1.6 2.2 1.6c0.8 0 2-0.2 2-1.2c0-2.1-5.4-0.7-5.4-3.9c0-1.7 1.6-2.4 3.1-2.4 c1.9 0 3.3 0.6 3.4 2.6h-1.4c-0.1-1.1-1-1.4-1.9-1.4c-0.8 0-1.8 0.2-1.8 1.1c0 1 1.4 1.2 2.7 1.4c1.4 0.3 2.7 0.8 2.7 2.4 c0 2-1.8 2.6-3.5 2.6c-1.9 0-3.4-0.8-3.5-2.8H208z"/>
		<path fill="#E0E0E0" d="M222.9 259.4h-1.4l-1.7-6.6h0l-1.7 6.6h-1.5l-2.7-8.3h1.5l1.9 6.8h0l1.7-6.8h1.5l1.7 6.8h0l1.9-6.8h1.4 L222.9 259.4z"/>
		<path fill="#E0E0E0" d="M229.9 251c2.6 0 4 1.9 4 4.3c0 2.4-1.4 4.3-4 4.3c-2.6 0-4-1.9-4-4.3C225.8 252.9 227.2 251 229.9 251z M229.9 258.4c1.4 0 2.6-1.1 2.6-3.1s-1.2-3.1-2.6-3.1c-1.4 0-2.6 1.1-2.6 3.1S228.4 258.4 229.9 258.4z"/>
		<path fill="#E0E0E0" d="M235.2 251.2h1.3v1.7h0c0.7-1.3 1.6-2 3-1.9v1.4c-2.2 0-3 1.2-3 3.3v3.7h-1.4V251.2z"/>
		<path fill="#E0E0E0" d="M247.6 259.4h-1.4v-1.1h0c-0.4 0.9-1.5 1.3-2.6 1.3c-2.5 0-3.8-2-3.8-4.4s1.2-4.3 3.8-4.3 c0.8 0 2.1 0.3 2.7 1.3h0V248h1.4V259.4z M243.8 258.4c1.8 0 2.5-1.6 2.5-3.1c0-1.6-0.7-3.1-2.6-3.1c-1.9 0-2.5 1.6-2.5 3.2 C241.2 256.9 242 258.4 243.8 258.4z"/>
		<path fill="#E0E0E0" d="M249.2 251.6c0-2.2 1.4-3.8 3.6-3.8c2 0 3.4 1.2 3.4 3.2c0 1.3-0.7 2-1.4 2.7c-0.7 0.6-1.4 1.3-1.4 2.4 v0.6H252v-0.8c0.1-2.7 2.8-2.7 2.7-5.1c-0.1-1.2-0.8-1.9-1.9-1.9c-1.5 0-2.2 1.2-2.2 2.6H249.2z M251.8 257.7h1.8v1.8h-1.8V257.7z "/>
		<path fill="#6EEDD8" d="M270.3 258c-0.9 1.2-2.3 1.7-3.7 1.7c-3.4 0-5.4-2.8-5.4-5.8c0-3.3 1.8-6.2 5.4-6.2c2.5 0 4.5 1.1 4.9 3.8 H270c-0.3-1.7-1.7-2.5-3.4-2.5c-2.8 0-3.9 2.4-3.9 4.8c0 2.4 1.4 4.6 3.9 4.6c2.4 0 3.7-1.6 3.7-3.7h-3.6v-1.3h5v6h-1L270.3 258z"/>
		<path fill="#6EEDD8" d="M280.6 256.8c-0.4 1.8-1.7 2.8-3.5 2.8c-2.6 0-3.9-1.8-4-4.4c0-2.5 1.6-4.3 3.9-4.3c2.9 0 3.8 2.7 3.7 4.7 h-6.2c0 1.4 0.8 2.7 2.6 2.7c1.1 0 1.9-0.5 2.1-1.6H280.6z M279.3 254.5c-0.1-1.3-1-2.3-2.4-2.3c-1.4 0-2.3 1.1-2.4 2.3H279.3z"/>
		<path fill="#6EEDD8" d="M283.9 251.2h1.6v1.2h-1.6v5.1c0 0.6 0.2 0.7 1 0.7h0.6v1.2h-1c-1.4 0-2-0.3-2-1.8v-5.3h-1.4v-1.2h1.4 v-2.5h1.4V251.2z"/>
		<path fill="#6EEDD8" d="M290.7 248h1.4v4.4h0c0.4-1 1.6-1.4 2.6-1.4c2.2 0 2.8 1.2 2.8 3v5.4h-1.4v-5.6c0-1-0.6-1.7-1.7-1.7 c-1.6 0-2.4 1.1-2.4 2.6v4.7h-1.4V248z"/>
		<path fill="#6EEDD8" d="M306.3 256.8c-0.4 1.8-1.7 2.8-3.5 2.8c-2.6 0-3.9-1.8-4-4.4c0-2.5 1.6-4.3 3.9-4.3c2.9 0 3.8 2.7 3.7 4.7 h-6.2c0 1.4 0.8 2.7 2.6 2.7c1.1 0 1.9-0.5 2.1-1.6H306.3z M305 254.5c-0.1-1.3-1-2.3-2.4-2.3c-1.4 0-2.3 1.1-2.4 2.3H305z"/>
		<path fill="#6EEDD8" d="M307.8 248h1.4v11.4h-1.4V248z"/>
		<path fill="#6EEDD8" d="M310.9 251.2h1.4v1.1h0c0.4-0.9 1.5-1.3 2.6-1.3c2.5 0 3.8 2 3.8 4.4c0 2.4-1.2 4.3-3.8 4.3 c-0.8 0-2.1-0.3-2.7-1.3h0v4.3h-1.4V251.2z M314.8 252.2c-1.8 0-2.5 1.6-2.5 3.1c0 1.6 0.7 3.1 2.6 3.1c1.9 0 2.5-1.6 2.5-3.2 C317.3 253.7 316.5 252.2 314.8 252.2z"/>
	</g>
	<rect x="79.1" y="165.3" fill="#41D6C3" width="262" height="46.8"/>
	<g>
		<path fill="#003C32" d="M215.3 191.3c0 1.5 1.2 2.1 2.5 2.1c0.9 0 2.2-0.3 2.2-1.4c0-1.2-1.7-1.4-3.4-1.9 c-1.7-0.4-3.4-1.1-3.4-3.2c0-2.4 2.2-3.5 4.3-3.5c2.4 0 4.6 1 4.6 3.7h-2.4c-0.1-1.4-1-1.7-2.3-1.7c-0.8 0-1.7 0.3-1.7 1.3 c0 0.9 0.5 1 3.4 1.7c0.8 0.2 3.4 0.8 3.4 3.3c0 2.1-1.6 3.7-4.8 3.7c-2.5 0-4.9-1.2-4.9-4.1H215.3z"/>
		<path fill="#003C32" d="M223.6 183.7h2.5v11.4h-2.5V183.7z"/>
		<path fill="#003C32" d="M236.3 193.8c-0.9 1.2-2 1.6-3.1 1.6c-3.5 0-5.6-2.6-5.6-5.9c0-3.4 2.1-6 5.6-6c2.3 0 4.6 1.4 4.8 4h-2.4 c-0.3-1.3-1.2-1.9-2.4-1.9c-2.3 0-3.1 1.9-3.1 3.9c0 1.9 0.8 3.8 3.1 3.8c1.6 0 2.6-0.9 2.7-2.5h-2.5v-1.9h4.8v6.2h-1.6 L236.3 193.8z"/>
		<path fill="#003C32" d="M239.8 183.7h2.5l4.8 7.7h0v-7.7h2.4v11.4h-2.5l-4.8-7.7h0v7.7h-2.4V183.7z"/>
		<path fill="#003C32" d="M255.1 183.7h2.5v11.4h-2.5V183.7z"/>
		<path fill="#003C32" d="M259.5 183.7h2.5l4.8 7.7h0v-7.7h2.4v11.4h-2.5l-4.8-7.7h0v7.7h-2.4V183.7z"/>
	</g>
	<g>
		<rect x="261" y="266" fill="#6EEDD8" width="58" height="2"/>
	</g>
	<g>
		<path fill="#E0E0E0" d="M102.5 122.4c0-2.4-2-4.4-4.4-4.4c-2.4 0-4.4 2-4.4 4.4v2c-0.9 1-1.5 2.4-1.5 3.8c0 3.2 2.6 5.8 5.8 5.8 s5.8-2.6 5.8-5.8c0-1.5-0.6-2.8-1.5-3.8V122.4z M95.2 122.4c0-1.5 1.4-2.9 2.9-2.9c1.5 0 2.9 1.4 2.9 2.9v0.8 c-0.9-0.5-1.8-0.8-2.9-0.8c-1.1 0-2.1 0.3-2.9 0.8V122.4z M97 131.4l-2.7-2.7l1-1l1.7 1.7l3.8-3.8l1 1L97 131.4z"/>
	</g>
	<g>
		<g>
			<circle fill="#E0E0E0" cx="98.1" cy="59.4" r="5.1"/>
		</g>
		<path fill="#E0E0E0" d="M102.5 65.9h-8.7c-1.2 0-2.2 1-2.2 2.2v2.2h13.1v-2.2C104.7 66.9 103.7 65.9 102.5 65.9z"/>
	</g>
	<g>
		<circle fill="#07B5A0" cx="40.7" cy="64.1" r="19.5"/>
		<g>
			<path d="M43 71.2h-3v-9.5h-3.7v-2.2c2.1 0.1 4-0.7 4.3-2.9H43V71.2z"/>
		</g>
	</g>
	<g>
		<circle fill="#07B5A0" cx="98.4" cy="255.1" r="19.5"/>
		<g>
			<path d="M93.5 253.2c-0.1-3.4 1.8-5.9 5.3-5.9c2.7 0 5 1.7 5 4.6c0 4.5-4.7 4.8-6.9 7.8h6.9v2.6H93.2c0-3.4 2.1-4.8 4.6-6.6 c1.3-0.9 3.1-1.8 3.1-3.6c0-1.4-0.9-2.3-2.2-2.3c-1.8 0-2.3 1.8-2.3 3.4H93.5z"/>
		</g>
	</g>
</g>
<g id="type_scale">
</g>
</svg>
