<svg xmlns="http://www.w3.org/2000/svg" width="728" height="425" viewBox="-147 172 728 425"><path fill="#E0E0E0" d="M-147 172h728v425h-728V172z"/><path fill="#AFAEAF" d="M-107.7 536h10.8v2h-10.8v-2zm0-27.1h10.8v2h-10.8v-2zm0-27h10.8v2h-10.8v-2zm0-27.1h10.8v2h-10.8v-2zm0-27h10.8v2h-10.8v-2zm0-27.1h10.8v2h-10.8v-2zm0-27.1h10.8v2h-10.8v-2zm0-27h10.8v2h-10.8v-2zm0-27.1h10.8v2h-10.8v-2zm0-27h10.8v2h-10.8v-2zm0-27.1h10.8v2h-10.8v-2zm0-27.1h10.8v2h-10.8v-2zm0-27h10.8v2h-10.8v-2zm0-27.1h10.8v2h-10.8v-2z"/><path fill="#86D0C8" d="M-96.9 509.9h72V538h-72v-28.1z"/><path fill="#00B39F" d="M-96.9 266.4h72V510h-72V266.4z"/><path fill="#015448" d="M-96.9 172h72v94.4h-72V172z"/><path fill="#FEFFFF" d="M-96.9 534.9h72v3.1h-72v-3.1z"/><path fill="#131313" d="M19.8 204.9h4.8l8 21.4h-4.9l-1.6-4.8h-8l-1.7 4.8h-4.8l8.2-21.4zm-.4 13.1h5.5l-2.7-7.9h-.1l-2.7 7.9zm24.7-1.8c-.3-1.8-1.3-2.7-3.1-2.7-2.7 0-3.6 2.8-3.6 5s.9 4.9 3.5 4.9c2 0 3.1-1.2 3.4-3.1h4.1c-.6 4.1-3.4 6.4-7.5 6.4-4.7 0-7.8-3.3-7.8-7.9 0-4.8 2.9-8.4 7.9-8.4 3.7 0 7 1.9 7.3 5.9l-4.2-.1zm17 0c-.3-1.8-1.3-2.7-3.1-2.7-2.7 0-3.6 2.8-3.6 5s.9 4.9 3.5 4.9c2 0 3.1-1.2 3.4-3.1h4.1c-.6 4.1-3.4 6.4-7.5 6.4-4.7 0-7.8-3.3-7.8-7.9 0-4.8 2.9-8.4 7.9-8.4 3.7 0 7 1.9 7.3 5.9l-4.2-.1zm10 3.4c.1 2.7 1.4 3.9 3.8 3.9 1.7 0 3.1-1 3.4-2h3.8c-1.2 3.7-3.8 5.2-7.3 5.2-4.9 0-7.9-3.4-7.9-8.2 0-4.6 3.2-8.2 7.9-8.2 5.3 0 7.9 4.4 7.5 9.2H71.1v.1zm6.9-2.7c-.4-2.2-1.3-3.3-3.4-3.3-2.8 0-3.4 2.1-3.5 3.3H78zm6.5-6.1h4v2h.1c1-1.7 2.7-2.4 4.6-2.4 4.9 0 7 3.9 7 8.3 0 4.1-2.2 8-6.8 8-1.9 0-3.6-.8-4.6-2.3h-.1v7.4h-4.3l.1-21zm11.5 7.8c0-2.5-1-5-3.7-5-2.8 0-3.7 2.5-3.7 5s1 4.9 3.7 4.9c2.8 0 3.7-2.4 3.7-4.9zm11.5-7.8h3.1v2.8h-3.1v7.7c0 1.4.4 1.8 1.8 1.8.5 0 .9 0 1.3-.1v3.3c-.7.1-1.6.2-2.5.2-2.6 0-4.9-.6-4.9-3.7v-9.1h-2.6v-2.8h2.6v-4.6h4.3v4.5zm5 4.8c.2-4 3.8-5.2 7.3-5.2 3.1 0 6.8.7 6.8 4.4v8.1c0 1.4.1 2.8.5 3.4h-4.3c-.1-.5-.3-1-.3-1.5-1.4 1.4-3.3 1.9-5.2 1.9-3 0-5.3-1.5-5.3-4.6.1-7 10.5-3.3 10.3-6.7 0-1.8-1.3-2.1-2.8-2.1-1.6 0-2.7.7-2.8 2.3h-4.2zm9.8 3.1c-.7.6-2.2.7-3.5.9-1.3.2-2.5.7-2.5 2.3s1.2 2 2.6 2c3.3 0 3.4-2.6 3.4-3.6v-1.6zm7.4-13.8h4.3v7.8h.1c1-1.6 3-2.3 4.9-2.3 3.1 0 6.4 2.5 6.4 8.2 0 5.7-3.3 8.2-6.4 8.2-2.3 0-4.2-.7-5.1-2.4h-.1v2h-4l-.1-21.5zm7.8 8.7c-2.5 0-3.6 2.3-3.6 5 0 2.6 1.1 4.9 3.6 4.9s3.6-2.4 3.6-4.9c0-2.7-1.1-5-3.6-5zm10.2-8.7h4.3v21.4h-4.3v-21.4zm10.7 14.7c.1 2.7 1.4 3.9 3.8 3.9 1.7 0 3.1-1 3.4-2h3.7c-1.2 3.7-3.7 5.2-7.3 5.2-4.9 0-7.9-3.4-7.9-8.2 0-4.6 3.2-8.2 7.9-8.2 5.3 0 7.9 4.4 7.5 9.2h-11.1v.1zm7-2.7c-.4-2.2-1.3-3.3-3.4-3.3-2.8 0-3.4 2.1-3.5 3.3h6.9zm34.4 9.4h-4.7l-3.6-14.6h-.1l-3.6 14.6H183l-5.7-21.4h4.7l3.4 14.6h.1l3.7-14.6h4.4l3.7 14.8h.1l3.5-14.8h4.6l-5.7 21.4zm9.3-6.7c.1 2.7 1.4 3.9 3.8 3.9 1.7 0 3.1-1 3.4-2h3.8c-1.2 3.7-3.8 5.2-7.3 5.2-4.9 0-7.9-3.4-7.9-8.2 0-4.6 3.2-8.2 7.9-8.2 5.3 0 7.9 4.4 7.5 9.2h-11.2v.1zm6.9-2.7c-.4-2.2-1.3-3.3-3.4-3.3-2.8 0-3.5 2.1-3.5 3.3h6.9zm6.6-12h4.3v7.8h.1c1.1-1.6 3-2.3 4.9-2.3 3.1 0 6.4 2.5 6.4 8.2 0 5.7-3.3 8.2-6.4 8.2-2.3 0-4.2-.7-5.1-2.4h-.1v2h-4l-.1-21.5zm7.8 8.7c-2.5 0-3.6 2.3-3.6 5 0 2.6 1.1 4.9 3.6 4.9s3.6-2.4 3.6-4.9c0-2.7-1.1-5-3.6-5zm13.4 7.7c0 1.8 1.6 2.6 3.3 2.6 1.2 0 2.8-.5 2.8-2 0-1.3-1.8-1.8-4.8-2.4-2.5-.6-4.9-1.4-4.9-4.1 0-4 3.4-5 6.7-5 3.4 0 6.5 1.1 6.8 4.9h-4c-.1-1.6-1.4-2.1-2.9-2.1-1 0-2.4.1-2.4 1.4 0 1.5 2.4 1.7 4.8 2.3 2.5.6 4.9 1.5 4.9 4.3 0 4.1-3.6 5.4-7.1 5.4-3.6 0-7.1-1.4-7.3-5.5h4.1v.2zm16.7-12.9h-4.3v-3.5h4.3v3.5zm-4.3 2.4h4.3v15.5h-4.3v-15.5zm12.6 0h3.1v2.8h-3.1v7.7c0 1.4.4 1.8 1.8 1.8.5 0 .9 0 1.3-.1v3.3c-.7.1-1.6.2-2.5.2-2.6 0-4.9-.6-4.9-3.7v-9.1h-2.6v-2.8h2.6v-4.6h4.3v4.5zm8 8.8c.1 2.7 1.4 3.9 3.8 3.9 1.7 0 3.1-1 3.4-2h3.8c-1.2 3.7-3.8 5.2-7.3 5.2-4.9 0-7.9-3.4-7.9-8.2 0-4.6 3.2-8.2 7.9-8.2 5.3 0 7.9 4.4 7.5 9.2h-11.2v.1zm7-2.7c-.4-2.2-1.3-3.3-3.4-3.3-2.8 0-3.5 2.1-3.5 3.3h6.9zm14-12h11.5c3.8 0 6.3 2.7 6.3 5.9 0 2.5-1 4.4-3.4 5.4v.1c2.3.6 3 2.8 3.1 5 .1 1.4 0 3.9.9 5.1h-4.7c-.5-1.4-.5-3.4-.8-5.1-.3-2.2-1.2-3.2-3.6-3.2h-4.7v8.4h-4.7v-21.6h.1zm4.7 9.7h5.2c2.1 0 3.2-.9 3.2-3.1 0-2.1-1.1-3-3.2-3h-5.2v6.1zm18.8 5c.1 2.7 1.4 3.9 3.8 3.9 1.7 0 3.1-1 3.4-2h3.8c-1.2 3.7-3.8 5.2-7.3 5.2-4.9 0-7.9-3.4-7.9-8.2 0-4.6 3.2-8.2 7.9-8.2 5.3 0 7.9 4.4 7.5 9.2h-11.2v.1zm6.9-2.7c-.4-2.2-1.3-3.3-3.4-3.3-2.8 0-3.5 2.1-3.5 3.3h6.9zm9.8 4.4c0 1.8 1.6 2.6 3.3 2.6 1.2 0 2.8-.5 2.8-2 0-1.3-1.8-1.8-4.8-2.4-2.5-.6-4.9-1.4-4.9-4.1 0-4 3.4-5 6.7-5 3.4 0 6.5 1.1 6.8 4.9h-4c-.1-1.6-1.4-2.1-2.9-2.1-1 0-2.4.1-2.4 1.4 0 1.5 2.4 1.7 4.8 2.3 2.5.6 4.9 1.5 4.9 4.3 0 4.1-3.6 5.4-7.1 5.4-3.6 0-7.1-1.4-7.3-5.5h4.1v.2zm12.3-10.5h4v2h.1c1-1.7 2.7-2.4 4.6-2.4 4.9 0 7 3.9 7 8.3 0 4.1-2.2 8-6.8 8-1.9 0-3.6-.8-4.6-2.3h-.1v7.4h-4.3l.1-21zm11.5 7.8c0-2.5-1-5-3.7-5-2.8 0-3.7 2.5-3.7 5s1 4.9 3.7 4.9c2.8 0 3.7-2.4 3.7-4.9zm13.8-8.2c4.9 0 8 3.2 8 8.2 0 4.9-3.2 8.2-8 8.2-4.9 0-8-3.2-8-8.2s3.1-8.2 8-8.2zm0 13.1c2.9 0 3.8-2.5 3.8-4.9 0-2.4-.9-5-3.8-5s-3.8 2.5-3.8 5 .9 4.9 3.8 4.9zm10.2-12.7h4v2.2h.1c1.1-1.8 2.9-2.6 4.7-2.6 4.5 0 5.7 2.5 5.7 6.4v9.5H396v-8.8c0-2.5-.7-3.8-2.7-3.8-2.3 0-3.3 1.3-3.3 4.4v8.1h-4.3l.1-15.4zm20.6 10.5c0 1.8 1.6 2.6 3.3 2.6 1.2 0 2.8-.5 2.8-2 0-1.3-1.8-1.8-4.8-2.4-2.5-.6-4.9-1.4-4.9-4.1 0-4 3.4-5 6.7-5 3.4 0 6.5 1.1 6.8 4.9h-4c-.1-1.6-1.4-2.1-2.9-2.1-1 0-2.4.1-2.4 1.4 0 1.5 2.4 1.7 4.8 2.3 2.5.6 4.9 1.5 4.9 4.3 0 4.1-3.6 5.4-7.1 5.4-3.6 0-7.1-1.4-7.3-5.5h4.1v.2zm15.9-1.7c.1 2.7 1.4 3.9 3.8 3.9 1.7 0 3.1-1 3.4-2h3.8c-1.2 3.7-3.8 5.2-7.3 5.2-4.9 0-7.9-3.4-7.9-8.2 0-4.6 3.2-8.2 7.9-8.2 5.3 0 7.9 4.4 7.5 9.2h-11.2v.1zm6.9-2.7c-.4-2.2-1.3-3.3-3.4-3.3-2.8 0-3.5 2.1-3.5 3.3h6.9zm19.1-8.1h-6.4v-4h17.5v4H453v17.5h-4.7v-17.5zm17.6-.4h-4.3v-3.5h4.3v3.5zm-4.3 2.4h4.3v15.5h-4.3v-15.5zm7.3 0h4v2.1h.1c1.1-1.6 2.7-2.5 4.7-2.5s3.7.7 4.5 2.6c.9-1.3 2.5-2.6 4.7-2.6 3.3 0 5.7 1.5 5.7 5.5v10.4h-4.3v-8.8c0-2.1-.2-3.8-2.6-3.8s-2.8 2-2.8 3.9v8.6h-4.3v-8.7c0-1.8.1-3.9-2.6-3.9-.8 0-2.9.5-2.9 3.6v9h-4.3l.1-15.4zm30 8.8c.1 2.7 1.4 3.9 3.8 3.9 1.7 0 3.1-1 3.4-2h3.8c-1.2 3.7-3.8 5.2-7.3 5.2-4.9 0-7.9-3.4-7.9-8.2 0-4.6 3.2-8.2 7.9-8.2 5.3 0 7.9 4.4 7.5 9.2l-11.2.1zm6.9-2.7c-.4-2.2-1.3-3.3-3.4-3.3-2.8 0-3.5 2.1-3.5 3.3h6.9zm9.8 4.4c0 1.8 1.6 2.6 3.3 2.6 1.2 0 2.8-.5 2.8-2 0-1.3-1.8-1.8-4.8-2.4-2.5-.6-4.9-1.4-4.9-4.1 0-4 3.4-5 6.7-5 3.4 0 6.5 1.1 6.8 4.9h-4c-.1-1.6-1.4-2.1-2.9-2.1-1 0-2.4.1-2.4 1.4 0 1.5 2.4 1.7 4.8 2.3 2.5.6 4.9 1.5 4.9 4.3 0 4.1-3.6 5.4-7.1 5.4-3.6 0-7.1-1.4-7.3-5.5h4.1v.2z"/><path fill="#F9F9FA" d="M12.7 497.1h538.5v45H12.7v-45z"/><path fill="#006D5E" d="M39.3 512.5c2.5 0 4.6 1.6 4.6 6.5 0 5-2.1 6.6-4.6 6.6s-4.6-1.6-4.6-6.6c0-4.9 2.1-6.5 4.6-6.5zm0 11c2.1 0 2.1-3.1 2.1-4.5 0-1.3 0-4.4-2.1-4.4s-2.1 3.1-2.1 4.4c0 1.4 0 4.5 2.1 4.5zm5.9-.9H48v2.8h-2.8v-2.8zm8.5 2.7h-2.6v-8.2H48v-1.9c1.8.1 3.4-.6 3.7-2.5h2v12.6zm8.6-4.2c0 1.7 1.3 2.4 2.8 2.4 1 0 2.5-.3 2.5-1.6 0-1.4-1.9-1.6-3.8-2.1s-3.8-1.3-3.8-3.7c0-2.6 2.5-3.9 4.8-3.9 2.7 0 5.1 1.2 5.1 4.1h-2.7c-.1-1.5-1.2-1.9-2.5-1.9-.9 0-1.9.4-1.9 1.5 0 1 .6 1.1 3.8 1.9 1 .2 3.8.8 3.8 3.7 0 2.4-1.8 4.1-5.3 4.1-2.8 0-5.5-1.4-5.5-4.6l2.7.1zm11.6.2c.1 1.6.8 2.4 2.3 2.4 1 0 1.9-.6 2-1.2h2.3c-.7 2.2-2.3 3.1-4.4 3.1-2.9 0-4.8-2-4.8-4.9 0-2.8 1.9-4.9 4.8-4.9 3.2 0 4.7 2.7 4.5 5.5h-6.7zm4.1-1.6c-.2-1.3-.8-2-2-2-1.7 0-2.1 1.3-2.1 2H78zm10.2-.4c-.2-1.1-.8-1.6-1.9-1.6-1.6 0-2.2 1.7-2.2 3 0 1.4.5 2.9 2.1 2.9 1.2 0 1.9-.7 2-1.9h2.5c-.3 2.5-2 3.8-4.5 3.8-2.8 0-4.7-2-4.7-4.8 0-2.9 1.7-5 4.8-5 2.2 0 4.2 1.2 4.4 3.5l-2.5.1zm8.4-3.5c2.9 0 4.8 1.9 4.8 4.9s-1.9 4.9-4.8 4.9-4.8-1.9-4.8-4.9c-.1-3 1.8-4.9 4.8-4.9zm0 7.9c1.7 0 2.3-1.5 2.3-3s-.5-3-2.3-3c-1.7 0-2.3 1.5-2.3 3s.5 3 2.3 3zm6.1-7.7h2.4v1.3h.1c.6-1.1 1.8-1.5 2.8-1.5 2.7 0 3.4 1.5 3.4 3.8v5.7h-2.6V520c0-1.5-.4-2.3-1.6-2.3-1.4 0-2 .8-2 2.7v4.9h-2.6V516h.1zm16.9 8.1c-.6 1-1.7 1.4-2.9 1.4-2.8 0-4.2-2.4-4.2-5 0-2.5 1.4-4.8 4.1-4.8 1.1 0 2.2.5 2.8 1.4v-4.7h2.6v12.9h-2.4v-1.2zm-2.2-6.4c-1.7 0-2.3 1.5-2.3 3s.7 3 2.3 3c1.7 0 2.2-1.5 2.2-3 0-1.6-.5-3-2.2-3z"/><path fill="#F9F9FA" d="M11.9 437.3H552v45H11.9v-45z"/><path fill="#006D5E" d="M40.4 465.6h-2.6v-8.2h-3.2v-1.9c1.8.1 3.4-.6 3.7-2.5h2v12.6h.1zm8.6-4.3c0 1.7 1.3 2.4 2.8 2.4 1 0 2.5-.3 2.5-1.6 0-1.4-1.9-1.6-3.8-2.1s-3.8-1.3-3.8-3.7c0-2.6 2.5-3.9 4.8-3.9 2.7 0 5.1 1.2 5.1 4.1h-2.7c-.1-1.5-1.2-1.9-2.5-1.9-.9 0-1.9.4-1.9 1.5 0 1 .6 1.1 3.8 1.9 1 .2 3.8.8 3.8 3.7 0 2.4-1.8 4.1-5.3 4.1-2.8 0-5.5-1.4-5.5-4.6H49v.1zm11.5.3c.1 1.6.8 2.4 2.3 2.4 1 0 1.9-.6 2-1.2h2.3c-.7 2.2-2.3 3.1-4.4 3.1-2.9 0-4.8-2-4.8-4.9 0-2.8 1.9-4.9 4.8-4.9 3.2 0 4.7 2.7 4.5 5.5h-6.7zm4.2-1.7c-.2-1.3-.8-2-2-2-1.7 0-2.1 1.3-2.1 2h4.1zm10.2-.3c-.2-1.1-.8-1.6-1.9-1.6-1.6 0-2.2 1.7-2.2 3 0 1.4.5 2.9 2.1 2.9 1.2 0 1.9-.7 2-1.9h2.5c-.3 2.5-2 3.8-4.5 3.8-2.8 0-4.7-2-4.7-4.8 0-2.9 1.7-5 4.8-5 2.2 0 4.2 1.2 4.4 3.5h-2.5v.1zm8.3-3.6c2.9 0 4.8 1.9 4.8 4.9s-1.9 4.9-4.8 4.9-4.8-1.9-4.8-4.9c0-2.9 1.9-4.9 4.8-4.9zm0 7.9c1.7 0 2.3-1.5 2.3-3s-.5-3-2.3-3c-1.7 0-2.3 1.5-2.3 3s.6 3 2.3 3zm6.2-7.6h2.4v1.3h.1c.6-1.1 1.8-1.5 2.8-1.5 2.7 0 3.4 1.5 3.4 3.8v5.7h-2.6v-5.3c0-1.5-.4-2.3-1.6-2.3-1.4 0-2 .8-2 2.7v4.9h-2.6v-9.3h.1zm16.9 8.1c-.6 1-1.7 1.4-2.9 1.4-2.8 0-4.2-2.4-4.2-5 0-2.5 1.4-4.8 4.1-4.8 1.1 0 2.2.5 2.8 1.4v-4.7h2.6v12.9h-2.4v-1.2zm-2.2-6.4c-1.7 0-2.3 1.5-2.3 3s.7 3 2.3 3c1.7 0 2.2-1.5 2.2-3 0-1.6-.6-3-2.2-3z"/><path fill="#F9F9FA" d="M11.9 317.9H552v45H11.9v-45z"/><path fill="#006D5E" d="M40.4 346.1h-2.6V338h-3.2v-2c1.8.1 3.4-.6 3.7-2.5h2v12.6h.1zm6.6-12.8c2.5 0 4.6 1.6 4.6 6.5 0 5-2.1 6.6-4.6 6.6s-4.6-1.6-4.6-6.6c0-4.9 2.1-6.5 4.6-6.5zm0 11c2.1 0 2.1-3.1 2.1-4.5 0-1.3 0-4.4-2.1-4.4s-2.1 3.1-2.1 4.4c0 1.4 0 4.5 2.1 4.5zm12.5-2.4c0 1.7 1.3 2.4 2.8 2.4 1 0 2.5-.3 2.5-1.6 0-1.4-1.9-1.6-3.8-2.1s-3.8-1.3-3.8-3.7c0-2.6 2.5-3.9 4.8-3.9 2.7 0 5.1 1.2 5.1 4.1h-2.7c-.1-1.5-1.2-1.9-2.5-1.9-.9 0-1.9.4-1.9 1.5 0 1 .6 1.1 3.8 1.9 1 .2 3.8.8 3.8 3.7 0 2.4-1.8 4.1-5.3 4.1-2.8 0-5.5-1.4-5.5-4.6h2.7v.1zm11.6.2c.1 1.6.8 2.4 2.3 2.4 1 0 1.9-.6 2-1.2h2.3c-.7 2.2-2.3 3.1-4.4 3.1-2.9 0-4.8-2-4.8-4.9 0-2.8 1.9-4.9 4.8-4.9 3.2 0 4.7 2.7 4.5 5.5h-6.7zm4.2-1.6c-.2-1.3-.8-2-2-2-1.7 0-2.1 1.3-2.1 2h4.1zm10.2-.4c-.2-1.1-.8-1.6-1.9-1.6-1.6 0-2.2 1.7-2.2 3 0 1.4.5 2.9 2.1 2.9 1.2 0 1.9-.7 2-1.9H88c-.3 2.5-2 3.8-4.5 3.8-2.8 0-4.7-2-4.7-4.8 0-2.9 1.7-5 4.8-5 2.2 0 4.2 1.2 4.4 3.5h-2.5v.1zm8.3-3.5c2.9 0 4.8 1.9 4.8 4.9s-1.9 4.9-4.8 4.9-4.8-1.9-4.8-4.9 1.9-4.9 4.8-4.9zm0 7.9c1.7 0 2.3-1.5 2.3-3s-.5-3-2.3-3c-1.7 0-2.3 1.5-2.3 3s.6 3 2.3 3zm6.2-7.7h2.4v1.3h.1c.6-1.1 1.8-1.5 2.8-1.5 2.7 0 3.4 1.5 3.4 3.8v5.7h-2.6v-5.3c0-1.5-.4-2.3-1.6-2.3-1.4 0-2 .8-2 2.7v4.9H100v-9.3zm16.9 8.2c-.6 1-1.7 1.4-2.9 1.4-2.8 0-4.2-2.4-4.2-5 0-2.5 1.4-4.8 4.1-4.8 1.1 0 2.2.5 2.8 1.4v-4.7h2.6v12.9h-2.4V345zm-2.2-6.5c-1.7 0-2.3 1.5-2.3 3s.7 3 2.3 3c1.7 0 2.2-1.5 2.2-3s-.6-3-2.2-3zm8.3 4.6c0 1.1 1 1.6 2 1.6.7 0 1.7-.3 1.7-1.2 0-.8-1.1-1.1-2.9-1.4-1.5-.3-3-.8-3-2.5 0-2.4 2.1-3 4.1-3s3.9.7 4.1 3h-2.4c-.1-1-.8-1.3-1.7-1.3-.6 0-1.4.1-1.4.9 0 .9 1.5 1 2.9 1.4 1.5.3 3 .9 3 2.6 0 2.4-2.1 3.2-4.2 3.2-2.2 0-4.3-.8-4.4-3.3h2.2z"/><path fill="#F9F9FA" d="M11.9 258.2H552v45H11.9v-45z"/><path fill="#006D5E" d="M40.2 280.9h3.6v1.9h-3.6v3.6h-1.9v-3.6h-3.6v-1.9h3.6v-3.6h1.9v3.6zm10.8 5.5h-2.6v-8.2h-3.2v-1.9c1.8.1 3.4-.6 3.7-2.5h2v12.6h.1zm6.5-12.8c2.5 0 4.6 1.6 4.6 6.5 0 5-2.1 6.6-4.6 6.6s-4.6-1.6-4.6-6.6 2.1-6.5 4.6-6.5zm0 11c2.1 0 2.1-3.1 2.1-4.5 0-1.3 0-4.4-2.1-4.4s-2.1 3.1-2.1 4.4c0 1.4 0 4.5 2.1 4.5zm12.6-2.5c0 1.7 1.3 2.4 2.8 2.4 1 0 2.5-.3 2.5-1.6 0-1.4-1.9-1.6-3.8-2.1s-3.8-1.3-3.8-3.7c0-2.6 2.5-3.9 4.8-3.9 2.7 0 5.1 1.2 5.1 4.1H75c-.1-1.5-1.2-1.9-2.5-1.9-.9 0-1.9.4-1.9 1.5 0 1 .6 1.1 3.8 1.9 1 .2 3.8.8 3.8 3.7 0 2.4-1.8 4.1-5.3 4.1-2.8 0-5.5-1.4-5.5-4.6h2.7v.1zm11.5.3c.1 1.6.8 2.4 2.3 2.4 1 0 1.9-.6 2-1.2h2.3c-.7 2.2-2.3 3.1-4.4 3.1-2.9 0-4.8-2-4.8-4.9 0-2.8 1.9-4.9 4.8-4.9 3.2 0 4.7 2.7 4.5 5.5h-6.7zm4.2-1.6c-.2-1.3-.8-2-2-2-1.7 0-2.1 1.3-2.1 2h4.1zm10.2-.4c-.2-1.1-.8-1.6-1.9-1.6-1.6 0-2.2 1.7-2.2 3 0 1.4.5 2.9 2.1 2.9 1.2 0 1.9-.7 2-1.9h2.5c-.3 2.5-2 3.8-4.5 3.8-2.8 0-4.7-2-4.7-4.8 0-2.9 1.7-5 4.8-5 2.2 0 4.2 1.2 4.4 3.5H96v.1zm8.3-3.5c2.9 0 4.8 1.9 4.8 4.9s-1.9 4.9-4.8 4.9-4.8-1.9-4.8-4.9 1.9-4.9 4.8-4.9zm0 7.8c1.7 0 2.3-1.5 2.3-3s-.5-3-2.3-3c-1.7 0-2.3 1.5-2.3 3s.6 3 2.3 3zm6.2-7.6h2.4v1.3h.1c.6-1.1 1.8-1.5 2.8-1.5 2.7 0 3.4 1.5 3.4 3.8v5.7h-2.6v-5.3c0-1.5-.4-2.3-1.6-2.3-1.4 0-2 .8-2 2.7v4.9h-2.6v-9.3h.1zm16.9 8.1c-.6 1-1.7 1.4-2.9 1.4-2.8 0-4.2-2.4-4.2-5 0-2.5 1.4-4.8 4.1-4.8 1.1 0 2.2.5 2.8 1.4v-4.7h2.6v12.9h-2.4v-1.2zm-2.2-6.4c-1.7 0-2.3 1.5-2.3 3s.7 3 2.3 3c1.7 0 2.2-1.5 2.2-3 0-1.6-.6-3-2.2-3zm8.3 4.6c0 1.1 1 1.6 2 1.6.7 0 1.7-.3 1.7-1.2 0-.8-1.1-1.1-2.9-1.4-1.5-.3-3-.8-3-2.5 0-2.4 2.1-3 4.1-3s3.9.7 4.1 3H137c-.1-1-.8-1.3-1.7-1.3-.6 0-1.4.1-1.4.9 0 .9 1.5 1 2.9 1.4 1.5.3 3 .9 3 2.6 0 2.4-2.1 3.2-4.2 3.2-2.2 0-4.3-.8-4.4-3.3h2.3z"/><circle fill="#F9F9FA" cx="-24.9" cy="537" r="9.3"/><circle fill="#F9F9FA" cx="-60.9" cy="509.9" r="9.3"/><circle fill="#F9F9FA" cx="-60.9" cy="343.7" r="9.3"/><circle fill="#F9F9FA" cx="-60.9" cy="455.8" r="9.3"/><circle fill="#F9F9FA" cx="-60.9" cy="240.8" r="9.3"/><path fill="#F9F9FA" d="M34 282.7h-95.9v-41.9h2v39.9H34m-94.9 62H34v2h-94.9v-2zm1 167.2h-2V476H34v2h-93.9m35 58H34v2h-58.9v-2z"/><path d="M440.8 560.2c-.1-1.2-.9-1.8-2.1-1.8-1 0-1.9.3-1.9 1.5 0 2.1 5.5.6 5.5 4 0 1.8-1.8 2.6-3.3 2.6-1.9 0-3.5-.9-3.5-3h1.1c0 1.4 1.2 2.1 2.5 2.1 1 0 2.2-.3 2.2-1.6 0-2.4-5.5-.8-5.5-3.9 0-1.7 1.5-2.5 3.1-2.5 1.8 0 3.1.8 3.2 2.7l-1.3-.1zm5.3-.3c2 0 3 1.4 3 3.3 0 1.8-1 3.2-3 3.2s-3-1.4-3-3.2c0-1.8 1-3.3 3-3.3zm0 5.6c1.1 0 1.9-.8 1.9-2.3s-.9-2.4-1.9-2.4-1.9.9-1.9 2.4.8 2.3 1.9 2.3zm9.1.8h-1v-1c-.4.8-1.1 1.1-2 1.1-1.6 0-2.1-.9-2.1-2.3V560h1v4.2c0 .8.5 1.2 1.3 1.2 1.2 0 1.8-.8 1.8-1.9V560h1v6.3zm1.3-6.2h1v1.3c.5-1 1.2-1.5 2.3-1.5v1.1c-1.6 0-2.2.9-2.2 2.5v2.8h-1l-.1-6.2zm8 2c-.2-.8-.7-1.2-1.5-1.2-1.5 0-1.9 1.2-1.9 2.4s.5 2.3 1.8 2.3c1 0 1.6-.6 1.7-1.5h1c-.2 1.5-1.2 2.4-2.7 2.4-1.9 0-2.9-1.3-2.9-3.2s1-3.3 2.9-3.3c1.4 0 2.5.7 2.7 2.1h-1.1zm7.4 2.2c-.3 1.4-1.2 2.1-2.7 2.1-2 0-2.9-1.4-3-3.3 0-1.9 1.2-3.2 2.9-3.2 2.2 0 2.9 2.1 2.8 3.6h-4.6c0 1.1.6 2 1.9 2 .9 0 1.4-.4 1.6-1.2h1.1zm-1-1.7c-.1-1-.8-1.8-1.8-1.8-1.1 0-1.7.8-1.8 1.8h3.6zm3.8-1.2h-1.3v-1.3h1.3v1.3zm-1.4 3.6h1.3v1.3h-1.3V565zm10.4-.9c0 1.2-.6 2.3-2.5 2.3-1.6 0-2.5-.9-2.5-2.5v-.5h1.1v.4c0 1 .3 1.7 1.4 1.7 1 0 1.4-.6 1.4-1.5v-6.3h1.1v6.4zm6.8 2.2c-.2.1-.4.2-.7.2-.5 0-.9-.3-.9-1-.6.7-1.3 1-2.2 1-1.1 0-2.1-.5-2.1-1.7 0-1.4 1-1.7 2.1-1.9 1.1-.2 2.1-.1 2.1-.9 0-.9-.7-1-1.4-1-.9 0-1.5.3-1.5 1.2h-1c.1-1.5 1.2-2.1 2.6-2.1 1.1 0 2.3.3 2.3 1.7v3.2c0 .5 0 .7.3.7.1 0 .2 0 .3-.1v.7h.1zm-1.6-3.2c-.8.6-3.1 0-3.1 1.5 0 .7.6.9 1.2.9 1.3 0 1.9-.8 1.9-1.4v-1zm2.6-5.4h1v5.1l2.8-2.7h1.4l-2.5 2.3 2.6 3.9h-1.3l-2.1-3.2-1 .9v2.4h-1l.1-8.7zm8.3 2.2c2 0 3 1.4 3 3.3 0 1.8-1 3.2-3 3.2s-3-1.4-3-3.2c0-1.8 1.1-3.3 3-3.3zm0 5.6c1.1 0 1.9-.8 1.9-2.3s-.9-2.4-1.9-2.4-1.9.9-1.9 2.4.9 2.3 1.9 2.3zm4.1-7.8h1v3.2c.3-.7 1.1-1 2-1 1.9 0 2.9 1.5 2.9 3.3s-.9 3.2-2.8 3.2c-.6 0-1.6-.2-2-1v.8h-1v-8.5h-.1zm2.9 3.1c-1.4 0-1.9 1.2-1.9 2.3 0 1.2.6 2.4 2 2.4s1.9-1.2 1.9-2.4c-.1-1.1-.7-2.3-2-2.3zm7-3.1h1.2l4.5 6.9v-6.9h1.1v8.6h-1.2l-4.5-6.9v6.9h-1.1v-8.6zm9.4 1.3h-1v-1.2h1v1.2zm-1.1 1.1h1v6.2h-1v-6.2zm7.7 4.2c-.3 1.4-1.2 2.1-2.7 2.1-2 0-2.9-1.4-3-3.3 0-1.9 1.2-3.2 2.9-3.2 2.2 0 2.9 2.1 2.8 3.6h-4.6c0 1.1.6 2 1.9 2 .9 0 1.4-.4 1.6-1.2h1.1zm-1-1.7c-.1-1-.8-1.8-1.8-1.8-1.1 0-1.7.8-1.8 1.8h3.6zm2.2-4.9h1v8.6h-1v-8.6zm3 6.6c0 .9.8 1.2 1.7 1.2.6 0 1.5-.1 1.5-.9 0-1.6-4.1-.5-4.1-2.9 0-1.2 1.2-1.8 2.3-1.8 1.4 0 2.4.4 2.5 1.9h-1c-.1-.8-.8-1-1.4-1-.6 0-1.3.2-1.3.8 0 .7 1.1.9 2 1.1 1 .2 2 .6 2 1.8 0 1.5-1.4 2-2.6 2-1.4 0-2.6-.6-2.6-2.1l1-.1zm10.5 0c-.3 1.4-1.2 2.1-2.7 2.1-2 0-2.9-1.4-3-3.3 0-1.9 1.2-3.2 2.9-3.2 2.2 0 2.9 2.1 2.8 3.6H540c0 1.1.6 2 1.9 2 .9 0 1.4-.4 1.6-1.2h1zm-1-1.7c-.1-1-.8-1.8-1.8-1.8-1.1 0-1.7.8-1.8 1.8h3.6zm2.2-2.5h1v1c.4-.8 1.1-1.1 2-1.1 1.6 0 2.1.9 2.1 2.3v4.1h-1v-4.2c0-.8-.5-1.2-1.3-1.2-1.2 0-1.8.8-1.8 1.9v3.5h-1v-6.3z"/><path fill="#F9F9FA" d="M11.9 377.6H552v45H11.9v-45z"/><path fill="#006D5E" d="M40.4 399c1.1.1 2.7-.1 2.7-1.6 0-1.1-.8-1.7-1.8-1.7-1.3 0-2 1-1.9 2.3H37c.1-2.6 1.7-4.4 4.4-4.4 2 0 4.2 1.2 4.2 3.5 0 1.2-.6 2.2-1.8 2.6 1.4.3 2.2 1.4 2.2 2.9 0 2.6-2.2 4.1-4.7 4.1-2.8 0-4.7-1.7-4.7-4.6H39c.1 1.4.7 2.5 2.2 2.5 1.2 0 2.1-.8 2.1-2 0-1.9-1.7-1.9-2.9-1.9V399zm13.4 3.2c0 1.7 1.3 2.4 2.8 2.4 1 0 2.5-.3 2.5-1.6 0-1.4-1.9-1.6-3.8-2.1s-3.8-1.3-3.8-3.7c0-2.6 2.5-3.9 4.8-3.9 2.7 0 5.1 1.2 5.1 4.1h-2.7c-.1-1.5-1.2-1.9-2.5-1.9-.9 0-1.9.4-1.9 1.5 0 1 .6 1.1 3.8 1.9 1 .2 3.8.8 3.8 3.7 0 2.4-1.8 4.1-5.3 4.1-2.8 0-5.5-1.4-5.5-4.6h2.7v.1zm11.6.3c.1 1.6.8 2.4 2.3 2.4 1 0 1.9-.6 2-1.2H72c-.7 2.2-2.3 3.1-4.4 3.1-2.9 0-4.8-2-4.8-4.9 0-2.8 1.9-4.9 4.8-4.9 3.2 0 4.7 2.7 4.5 5.5h-6.7zm4.2-1.7c-.2-1.3-.8-2-2-2-1.7 0-2.1 1.3-2.1 2h4.1zm10.2-.3c-.2-1.1-.8-1.6-1.9-1.6-1.6 0-2.2 1.7-2.2 3 0 1.4.5 2.9 2.1 2.9 1.2 0 1.9-.7 2-1.9h2.5c-.3 2.5-2 3.8-4.5 3.8-2.8 0-4.7-2-4.7-4.8 0-2.9 1.7-5 4.8-5 2.2 0 4.2 1.2 4.4 3.5h-2.5v.1zm8.3-3.6c2.9 0 4.8 1.9 4.8 4.9s-1.9 4.9-4.8 4.9-4.8-1.9-4.8-4.9c0-2.9 1.9-4.9 4.8-4.9zm0 7.9c1.7 0 2.3-1.5 2.3-3s-.5-3-2.3-3c-1.7 0-2.3 1.5-2.3 3s.6 3 2.3 3zm6.1-7.6h2.4v1.3h.1c.6-1.1 1.8-1.5 2.8-1.5 2.7 0 3.4 1.5 3.4 3.8v5.7h-2.6v-5.3c0-1.5-.4-2.3-1.6-2.3-1.4 0-2 .8-2 2.7v4.9h-2.6v-9.3h.1zm17 8.1c-.6 1-1.7 1.4-2.9 1.4-2.8 0-4.2-2.4-4.2-5 0-2.5 1.4-4.8 4.1-4.8 1.1 0 2.2.5 2.8 1.4v-4.7h2.6v12.9h-2.4v-1.2zm-2.2-6.4c-1.7 0-2.3 1.5-2.3 3s.7 3 2.3 3c1.7 0 2.2-1.5 2.2-3 0-1.6-.6-3-2.2-3zm8.2 4.6c0 1.1 1 1.6 2 1.6.7 0 1.7-.3 1.7-1.2 0-.8-1.1-1.1-2.9-1.4-1.5-.3-3-.8-3-2.5 0-2.4 2.1-3 4.1-3s3.9.7 4.1 3h-2.4c-.1-1-.8-1.3-1.7-1.3-.6 0-1.4.1-1.4.9 0 .9 1.5 1 2.9 1.4 1.5.3 3 .9 3 2.6 0 2.4-2.1 3.2-4.2 3.2-2.2 0-4.3-.8-4.4-3.3h2.2z"/><path fill="#F9F9FA" d="M-59.9 455.8h-2v-56.6h94.6v2h-92.6"/><path d="M146.1 281h5.2v1.4h-5.2V281zm11.7-7.2h1.7v11.4h6.8v1.4h-8.5v-12.8zm13.9 3.4c3 0 4.5 2.1 4.5 4.9 0 2.7-1.6 4.9-4.5 4.9-3 0-4.5-2.1-4.5-4.9-.1-2.8 1.5-4.9 4.5-4.9zm0 8.4c1.6 0 2.9-1.3 2.9-3.5 0-2.3-1.3-3.5-2.9-3.5s-2.9 1.3-2.9 3.5 1.2 3.5 2.9 3.5zm7.1-1.8c.1 1.4 1.3 1.8 2.5 1.8 1 0 2.3-.2 2.3-1.4 0-2.4-6.1-.8-6.1-4.4 0-1.9 1.8-2.6 3.5-2.6 2.1 0 3.7.6 3.8 2.9h-1.5c-.1-1.2-1.2-1.6-2.2-1.6-.9 0-2 .3-2 1.2 0 1.1 1.6 1.3 3 1.6 1.5.3 3 .9 3 2.6 0 2.2-2.1 2.9-4 2.9-2.1 0-3.9-.8-3.9-3.2h1.6v.2zm10-6.4h1.9v1.4h-1.9v5.8c0 .7.2.8 1.2.8h.7v1.4h-1.2c-1.6 0-2.2-.3-2.2-2v-5.9h-1.6v-1.4h1.6v-2.8h1.5v2.7zm14 3c-.2-1.2-1-1.9-2.3-1.9-2.2 0-2.9 1.8-2.9 3.6 0 1.7.8 3.4 2.7 3.4 1.5 0 2.4-.8 2.6-2.3h1.6c-.3 2.3-1.7 3.6-4.1 3.6-2.8 0-4.4-2-4.4-4.8s1.4-5 4.4-5c2.1 0 3.8 1 4 3.2h-1.6v.2zm3.1-6.6h1.5v4.9c.5-1.1 1.8-1.6 2.9-1.6 2.4 0 3.2 1.4 3.2 3.4v6.1H212v-6.3c0-1.2-.7-1.9-1.9-1.9-1.9 0-2.8 1.2-2.8 2.9v5.3h-1.5l.1-12.8zm18 12.9c-.3.2-.6.3-1.1.3-.8 0-1.3-.4-1.3-1.4-.8 1-2 1.4-3.3 1.4-1.7 0-3.1-.7-3.1-2.6 0-2.1 1.6-2.6 3.2-2.9 1.7-.3 3.1-.2 3.1-1.4 0-1.4-1.1-1.5-2.1-1.5-1.3 0-2.2.4-2.3 1.8h-1.5c.1-2.3 1.9-3.1 3.9-3.1 1.7 0 3.5.4 3.5 2.6v4.8c0 .7 0 1 .5 1 .1 0 .3 0 .5-.1v1.1zm-2.5-4.8c-1.2.9-4.6 0-4.6 2.3 0 1 .9 1.4 1.8 1.4 2 0 2.8-1.2 2.8-2.1v-1.6zm5.3-6.2h-1.5v-1.9h1.5v1.9zm-1.6 1.7h1.5v9.3h-1.5v-9.3zm3.5 0h1.4v1.5c.6-1.2 1.7-1.7 3-1.7 2.4 0 3.2 1.4 3.2 3.4v6.1h-1.5v-6.3c0-1.2-.7-1.9-1.9-1.9-1.9 0-2.8 1.2-2.8 2.9v5.3h-1.5l.1-9.3zm18-.2c3 0 4.5 2.1 4.5 4.9 0 2.7-1.6 4.9-4.5 4.9-3 0-4.5-2.1-4.5-4.9s1.6-4.9 4.5-4.9zm0 8.4c1.6 0 2.9-1.3 2.9-3.5 0-2.3-1.3-3.5-2.9-3.5s-2.9 1.3-2.9 3.5 1.3 3.5 2.9 3.5zm6.5-6.9h-1.6v-1.4h1.6V276c0-1.5.9-2.3 2.6-2.3.3 0 .7.1 1 .1v1.3c-.3-.1-.6-.1-.9-.1-.7 0-1.2.2-1.2 1v1.3h1.8v1.4h-1.8v8h-1.5v-8zm10.8-1.3h1.9v1.4h-1.9v5.8c0 .7.2.8 1.2.8h.7v1.4h-1.2c-1.6 0-2.2-.3-2.2-2v-5.9h-1.6v-1.4h1.6v-2.8h1.5v2.7zm3.3-3.6h1.5v4.9c.5-1.1 1.8-1.6 2.9-1.6 2.4 0 3.2 1.4 3.2 3.4v6.1h-1.5v-6.3c0-1.2-.7-1.9-1.9-1.9-1.9 0-2.8 1.2-2.8 2.9v5.3h-1.5l.1-12.8zm13.7 3.4c3 0 4.5 2.1 4.5 4.9 0 2.7-1.6 4.9-4.5 4.9s-4.5-2.1-4.5-4.9 1.5-4.9 4.5-4.9zm0 8.4c1.6 0 2.9-1.3 2.9-3.5 0-2.3-1.3-3.5-2.9-3.5s-2.9 1.3-2.9 3.5 1.3 3.5 2.9 3.5zm13.7 1.1h-1.4v-1.5c-.6 1.2-1.7 1.7-3 1.7-2.4 0-3.2-1.4-3.2-3.4v-6.1h1.5v6.3c0 1.2.7 1.9 1.9 1.9 1.9 0 2.8-1.2 2.8-2.9v-5.3h1.5l-.1 9.3zm10.1-.8c0 3-1.4 4.6-4.3 4.6-1.7 0-3.8-.7-3.9-2.7h1.5c.1 1.1 1.4 1.5 2.4 1.5 2 0 2.8-1.4 2.8-3.5v-.6c-.5 1.1-1.7 1.7-2.9 1.7-2.8 0-4.2-2.2-4.2-4.7 0-2.2 1.1-4.9 4.3-4.9 1.2 0 2.2.5 2.8 1.5v-1.3h1.4v8.4h.1zm-1.6-4c0-1.6-.7-3.3-2.6-3.3-2 0-2.8 1.6-2.8 3.4 0 1.7.6 3.5 2.6 3.5s2.8-1.9 2.8-3.6zm3.5-8.1h1.5v4.9c.5-1.1 1.8-1.6 2.9-1.6 2.4 0 3.2 1.4 3.2 3.4v6.1h-1.5v-6.3c0-1.2-.7-1.9-1.9-1.9-1.9 0-2.8 1.2-2.8 2.9v5.3h-1.5l.1-12.8zm11.5 3.6h1.9v1.4h-1.9v5.8c0 .7.2.8 1.2.8h.7v1.4h-1.2c-1.6 0-2.2-.3-2.2-2v-5.9H315v-1.4h1.6v-2.8h1.5v2.7zm-181.8 62.7h5.2v1.4h-5.2v-1.4zm15.4-7.1h1.9l5 12.9h-1.9l-1.4-3.9h-5.4l-1.4 3.9h-1.8l5-12.9zm-1.3 7.5h4.4l-2.1-6-2.3 6zm10.9-4h1.9v1.4h-1.9v5.8c0 .7.2.8 1.2.8h.7v1.4H162c-1.6 0-2.2-.3-2.2-2V338h-1.6v-1.4h1.6v-2.8h1.5v2.7zm5.9 0h1.9v1.4h-1.9v5.8c0 .7.2.8 1.2.8h.7v1.4h-1.2c-1.6 0-2.2-.3-2.2-2V338h-1.6v-1.4h1.6v-2.8h1.5v2.7zm10.8 6.4c-.4 2.1-1.9 3.2-4 3.2-3 0-4.4-2.1-4.5-4.9 0-2.8 1.8-4.8 4.4-4.8 3.3 0 4.3 3.1 4.2 5.3h-7c-.1 1.6.9 3.1 2.9 3.1 1.3 0 2.1-.6 2.4-1.8h1.6v-.1zm-1.5-2.6c-.1-1.5-1.2-2.6-2.7-2.6-1.6 0-2.6 1.2-2.7 2.6h5.4zm3.1-3.8h1.4v1.5c.6-1.2 1.7-1.7 3-1.7 2.4 0 3.2 1.4 3.2 3.4v6.1h-1.5v-6.3c0-1.2-.7-1.9-1.9-1.9-1.9 0-2.8 1.2-2.8 2.9v5.3h-1.5l.1-9.3zm11.6 0h1.9v1.4h-1.9v5.8c0 .7.2.8 1.2.8h.7v1.4h-1.2c-1.6 0-2.2-.3-2.2-2V338h-1.6v-1.4h1.6v-2.8h1.5v2.7zm4.9-1.6h-1.5V333h1.5v1.9zm-1.5 1.6h1.5v9.3h-1.5v-9.3zm7.6-.2c3 0 4.5 2.1 4.5 4.9 0 2.7-1.6 4.9-4.5 4.9-3 0-4.5-2.1-4.5-4.9 0-2.7 1.5-4.9 4.5-4.9zm0 8.4c1.6 0 2.9-1.3 2.9-3.5 0-2.3-1.3-3.5-2.9-3.5s-2.9 1.3-2.9 3.5c0 2.3 1.3 3.5 2.9 3.5zm6-8.2h1.4v1.5c.6-1.2 1.7-1.7 3-1.7 2.4 0 3.2 1.4 3.2 3.4v6.1h-1.5v-6.3c0-1.2-.7-1.9-1.9-1.9-1.9 0-2.8 1.2-2.8 2.9v5.3h-1.5l.1-9.3zm13.9-3.5h1.5v4.8c.5-1 1.7-1.5 3-1.5 2.9 0 4.3 2.3 4.3 4.9 0 2.6-1.4 4.8-4.2 4.8-.9 0-2.3-.4-3-1.5v1.2h-1.5l-.1-12.7zm4.3 4.7c-2.1 0-2.8 1.8-2.8 3.5 0 1.8.8 3.5 2.9 3.5s2.8-1.8 2.8-3.6c0-1.7-.9-3.4-2.9-3.4zm14.4 8.1c-.3.2-.6.3-1.1.3-.8 0-1.3-.4-1.3-1.4-.8 1-2 1.4-3.3 1.4-1.7 0-3.1-.7-3.1-2.6 0-2.1 1.6-2.6 3.2-2.9 1.7-.3 3.1-.2 3.1-1.4 0-1.4-1.1-1.5-2.1-1.5-1.3 0-2.2.4-2.3 1.8h-1.5c.1-2.3 1.9-3.1 3.9-3.1 1.7 0 3.5.4 3.5 2.6v4.8c0 .7 0 1 .5 1 .1 0 .3 0 .5-.1v1.1zm-2.5-4.8c-1.2.9-4.6 0-4.6 2.3 0 1 .9 1.4 1.8 1.4 2 0 2.8-1.2 2.8-2.1V341zm3.9-4.5h1.4v2c.7-1.5 1.8-2.2 3.4-2.2v1.6c-2.5 0-3.4 1.4-3.4 3.8v4.1h-1.5v-9.3h.1zm15.3-3.5h1.5v12.9h-1.5V333zm-1.5 9.9c-.4 2.1-1.9 3.2-4 3.2-3 0-4.4-2.1-4.5-4.9 0-2.8 1.8-4.8 4.4-4.8 3.3 0 4.3 3.1 4.2 5.3h-7c-.1 1.6.9 3.1 2.9 3.1 1.3 0 2.1-.6 2.4-1.8h1.6v-.1zm-1.5-2.6c-.1-1.5-1.2-2.6-2.7-2.6-1.6 0-2.6 1.2-2.7 2.6h5.4zm10.6 6.8c-.7 1.8-1.3 2.5-2.7 2.5-.4 0-.7 0-1.1-.2V348c.3.1.6.2.9.2.6 0 1-.3 1.3-.8l.6-1.6-3.7-9.3h1.7l2.7 7.6 2.6-7.6h1.6l-3.9 10.6zm9.5-14.1h1.5v7.6l4.2-4.1h2.1l-3.7 3.4 4 5.9h-1.9l-3.2-4.9-1.4 1.3v3.5h-1.5V333h-.1z"/><path d="M290.9 342.9c-.4 2.1-1.9 3.2-4 3.2-3 0-4.4-2.1-4.5-4.9 0-2.8 1.8-4.8 4.4-4.8 3.3 0 4.3 3.1 4.2 5.3h-7c-.1 1.6.9 3.1 2.9 3.1 1.3 0 2.1-.6 2.4-1.8h1.6v-.1zm-1.4-2.6c-.1-1.5-1.2-2.6-2.7-2.6-1.6 0-2.6 1.2-2.7 2.6h5.4zm3.1-3.8h1.5v1.3c.5-1 1.7-1.5 3-1.5 2.9 0 4.3 2.3 4.3 4.9 0 2.6-1.4 4.8-4.2 4.8-.9 0-2.3-.4-3-1.5v4.8h-1.5l-.1-12.8zm4.4 1.2c-2.1 0-2.8 1.8-2.8 3.5 0 1.8.8 3.5 2.9 3.5s2.8-1.8 2.8-3.6c-.1-1.7-1-3.4-2.9-3.4zm8-1.2h1.9v1.4H305v5.8c0 .7.2.8 1.2.8h.7v1.4h-1.2c-1.6 0-2.2-.3-2.2-2V338h-1.6v-1.4h1.6v-2.8h1.5v2.7zm-175 64.2h5.2v1.4H130v-1.4zm18 1.4h1.7v1.4H148v3h-1.4v-3H141V402l5.8-8.3h1.2v8.4zm-1.5 0v-6.2l-4.2 6.2h4.2zm8.7-8.5c4 0 4.2 3.7 4.2 6.5s-.3 6.5-4.2 6.5c-4 0-4.2-3.7-4.2-6.5-.1-2.8.2-6.5 4.2-6.5zm0 11.7c2.6 0 2.6-3.2 2.6-5.1s0-5.1-2.6-5.1-2.6 3.2-2.6 5.1c0 1.8 0 5.1 2.6 5.1zm9.1-11.7c2.2 0 2.9 1.6 2.9 3.6 0 1.9-.8 3.6-2.9 3.6-2.2 0-2.9-1.6-2.9-3.6 0-1.9.7-3.6 2.9-3.6zm0 6.3c1.4 0 1.6-1.5 1.6-2.6s-.2-2.6-1.5-2.6c-1.4 0-1.6 1.5-1.6 2.6-.1 1 .1 2.6 1.5 2.6zm8.5-6.5h1.5l-9.7 13.4h-1.5l9.7-13.4zm.4 6c2.2 0 2.9 1.6 2.9 3.6 0 1.9-.8 3.6-2.9 3.6-2.2 0-2.9-1.6-2.9-3.6 0-1.9.7-3.6 2.9-3.6zm-.1 6.2c1.4 0 1.6-1.5 1.6-2.6s-.2-2.6-1.5-2.6c-1.4 0-1.6 1.5-1.6 2.6s.2 2.6 1.5 2.6zm13.5-8.7c3 0 4.5 2.1 4.5 4.9 0 2.7-1.6 4.9-4.5 4.9-3 0-4.5-2.1-4.5-4.9s1.5-4.9 4.5-4.9zm0 8.4c1.6 0 2.9-1.3 2.9-3.5s-1.3-3.5-2.9-3.5-2.9 1.3-2.9 3.5 1.3 3.5 2.9 3.5zm6.4-6.9h-1.6v-1.3h1.6v-1.4c0-1.5.9-2.3 2.6-2.3.3 0 .7.1 1 .1v1.3c-.3-.1-.6-.1-.9-.1-.7 0-1.2.2-1.2 1v1.3h1.8v1.3h-1.8v8H193v-7.9zm16.3 8h-1.4v-1.5c-.6 1.2-1.7 1.7-3 1.7-2.4 0-3.2-1.4-3.2-3.4v-6.1h1.5v6.3c0 1.2.7 1.9 1.9 1.9 1.9 0 2.8-1.2 2.8-2.9v-5.3h1.5l-.1 9.3zm3-2.9c.1 1.4 1.3 1.8 2.5 1.8 1 0 2.2-.2 2.2-1.4 0-2.4-6.1-.8-6.1-4.4 0-1.9 1.8-2.6 3.5-2.6 2.1 0 3.7.6 3.8 2.9h-1.5c-.1-1.2-1.2-1.6-2.2-1.6-.9 0-2 .3-2 1.2 0 1.1 1.6 1.3 3 1.6 1.5.3 3 .9 3 2.6 0 2.2-2.1 2.9-4 2.9-2.1 0-3.9-.8-3.9-3.2h1.7v.2zm15.8-.1c-.4 2.1-1.9 3.2-4 3.2-3 0-4.4-2.1-4.5-4.9 0-2.8 1.8-4.8 4.4-4.8 3.3 0 4.3 3.1 4.2 5.3h-7c-.1 1.6.9 3.1 2.9 3.1 1.3 0 2.1-.6 2.4-1.8h1.6v-.1zm-1.4-2.5c-.1-1.5-1.2-2.6-2.7-2.6-1.6 0-2.6 1.2-2.7 2.6h5.4zm3.1-3.8h1.4v2c.7-1.5 1.8-2.2 3.4-2.2v1.6c-2.5 0-3.4 1.4-3.4 3.8v4.1h-1.5v-9.3h.1zm6.9 6.4c.1 1.4 1.3 1.8 2.5 1.8 1 0 2.3-.2 2.3-1.4 0-2.4-6.1-.8-6.1-4.4 0-1.9 1.8-2.6 3.5-2.6 2.1 0 3.7.6 3.8 2.9h-1.5c-.1-1.2-1.2-1.6-2.2-1.6-.9 0-2 .3-2 1.2 0 1.1 1.6 1.3 3 1.6 1.5.3 3 .9 3 2.6 0 2.2-2.1 2.9-4 2.9-2.1 0-3.9-.8-3.9-3.2h1.6v.2zm12.1-10h1.5v12.9h-1.5v-12.9zm11.5 9.9c-.4 2.1-1.9 3.2-4 3.2-3 0-4.4-2.1-4.5-4.9 0-2.8 1.8-4.8 4.4-4.8 3.3 0 4.3 3.1 4.2 5.3h-7c-.1 1.6.9 3.1 2.9 3.1 1.3 0 2.1-.6 2.4-1.8h1.6v-.1zm-1.5-2.5c-.1-1.5-1.2-2.6-2.7-2.6-1.6 0-2.6 1.2-2.7 2.6h5.4zm11.5 5.5c-.3.2-.6.3-1.1.3-.8 0-1.3-.4-1.3-1.4-.8 1-2 1.4-3.3 1.4-1.7 0-3.1-.7-3.1-2.6 0-2.1 1.6-2.6 3.2-2.9 1.7-.3 3.1-.2 3.1-1.4 0-1.4-1.1-1.5-2.1-1.5-1.3 0-2.2.4-2.3 1.8h-1.5c.1-2.3 1.9-3.1 3.9-3.1 1.7 0 3.5.4 3.5 2.6v4.8c0 .7 0 1 .5 1 .1 0 .3 0 .5-.1v1.1zm-2.5-4.8c-1.2.9-4.6 0-4.6 2.3 0 1 .9 1.4 1.8 1.4 2 0 2.8-1.2 2.8-2.1v-1.6zm7.5 4.8h-1.6l-3.5-9.3h1.7l2.6 7.8 2.5-7.8h1.6l-3.3 9.3zm12-3c-.4 2.1-1.9 3.2-4 3.2-3 0-4.4-2.1-4.5-4.9 0-2.8 1.8-4.8 4.4-4.8 3.3 0 4.3 3.1 4.2 5.3h-7c-.1 1.6.9 3.1 2.9 3.1 1.3 0 2.1-.6 2.4-1.8h1.6v-.1zm-1.5-2.5c-.1-1.5-1.2-2.6-2.7-2.6-1.6 0-2.6 1.2-2.7 2.6h5.4zm-169.3 58.3h5.2v1.4h-5.2v-1.4zm19.1-3.4c-.2-1.9-1.4-2.6-3.2-2.6-1.5 0-2.9.5-2.9 2.2 0 3.2 8.2.9 8.2 6 0 2.7-2.7 3.8-5 3.8-2.9 0-5.3-1.4-5.3-4.5h1.6c0 2.2 1.8 3.1 3.7 3.1 1.5 0 3.3-.5 3.3-2.3 0-3.5-8.2-1.2-8.2-5.9 0-2.6 2.3-3.8 4.7-3.8 2.6 0 4.6 1.2 4.7 4.1h-1.6v-.1zm11.8 6.1c-.4 2.1-1.9 3.2-4 3.2-3 0-4.4-2.1-4.5-4.9 0-2.8 1.8-4.8 4.4-4.8 3.3 0 4.3 3.1 4.2 5.3h-7c-.1 1.6.9 3.1 2.9 3.1 1.3 0 2.1-.6 2.4-1.8h1.6v-.1zm-1.4-2.6c-.1-1.5-1.2-2.6-2.7-2.6-1.6 0-2.6 1.2-2.7 2.6h5.4zm11.4 5.6c-.3.2-.6.3-1.1.3-.8 0-1.3-.4-1.3-1.4-.8 1-2 1.4-3.3 1.4-1.7 0-3.1-.7-3.1-2.6 0-2.1 1.6-2.6 3.2-2.9 1.7-.3 3.1-.2 3.1-1.4 0-1.4-1.1-1.5-2.1-1.5-1.3 0-2.3.4-2.3 1.8H149c.1-2.3 1.9-3.1 3.9-3.1 1.7 0 3.5.4 3.5 2.6v4.8c0 .7 0 1 .5 1 .1 0 .3 0 .5-.1v1.1zm-2.5-4.8c-1.2.9-4.6 0-4.6 2.3 0 1 .9 1.4 1.8 1.4 2 0 2.8-1.2 2.8-2.1v-1.6zm4-4.5h1.4v1.4c.7-1.1 1.7-1.6 3-1.6 1.2 0 2.2.4 2.6 1.6.6-1 1.7-1.6 2.9-1.6 1.9 0 3.1.8 3.1 2.7v6.8h-1.5v-6.1c0-1.2-.3-2.1-1.8-2.1s-2.4.9-2.4 2.4v5.8h-1.5v-6.1c0-1.2-.4-2.1-1.7-2.1-1.8 0-2.5 1.7-2.5 2.4v5.8H159v-9.3h-.1zm15-3.6h1.5v12.9h-1.5V452zm11.5 9.9c-.4 2.1-1.9 3.2-4 3.2-3 0-4.4-2.1-4.5-4.9 0-2.8 1.8-4.8 4.4-4.8 3.3 0 4.3 3.1 4.2 5.3h-7c-.1 1.6.9 3.1 2.9 3.1 1.3 0 2.1-.6 2.4-1.8h1.6v-.1zm-1.5-2.6c-.1-1.5-1.2-2.6-2.7-2.6-1.6 0-2.6 1.2-2.7 2.6h5.4zm4.2 2.7c.1 1.4 1.3 1.8 2.5 1.8 1 0 2.2-.2 2.2-1.4 0-2.4-6.1-.8-6.1-4.4 0-1.9 1.8-2.6 3.5-2.6 2.1 0 3.7.6 3.8 2.9h-1.5c-.1-1.2-1.2-1.6-2.2-1.6-.9 0-2 .3-2 1.2 0 1.1 1.6 1.3 3 1.6 1.5.3 3 .9 3 2.6 0 2.2-2.1 2.9-4 2.9-2.1 0-3.9-.8-3.9-3.2h1.7v.2zm9.1 0c.1 1.4 1.3 1.8 2.5 1.8 1 0 2.3-.2 2.3-1.4 0-2.4-6.1-.8-6.1-4.4 0-1.9 1.8-2.6 3.5-2.6 2.1 0 3.7.6 3.8 2.9h-1.5c-.1-1.2-1.2-1.6-2.2-1.6-.9 0-2 .3-2 1.2 0 1.1 1.6 1.3 3 1.6 1.5.3 3 .9 3 2.6 0 2.2-2.1 2.9-4 2.9-2.1 0-3.9-.8-3.9-3.2h1.6v.2zm12.7-5.1h-1.6v-1.3h1.6v-1.4c0-1.5.9-2.3 2.6-2.3.3 0 .7.1 1 .1v1.3c-.3-.1-.6-.1-.9-.1-.7 0-1.2.2-1.2 1v1.3h1.8v1.3h-1.8v8h-1.5v-7.9zm4.7-4.9h1.5v12.9h-1.5V452zm7.7 3.4c3 0 4.5 2.1 4.5 4.9 0 2.7-1.6 4.9-4.5 4.9s-4.5-2.1-4.5-4.9c-.1-2.8 1.5-4.9 4.5-4.9zm0 8.4c1.6 0 2.9-1.3 2.9-3.5s-1.3-3.5-2.9-3.5-2.9 1.3-2.9 3.5 1.3 3.5 2.9 3.5zm14.8 1.1h-1.6l-1.9-7.4-1.9 7.4H230l-3-9.3h1.7l2.1 7.6 1.9-7.6h1.7l1.9 7.6 2.1-7.6h1.6l-2.9 9.3zm12.5-9.5c3 0 4.5 2.1 4.5 4.9 0 2.7-1.6 4.9-4.5 4.9s-4.5-2.1-4.5-4.9c-.1-2.8 1.5-4.9 4.5-4.9zm0 8.4c1.6 0 2.9-1.3 2.9-3.5s-1.3-3.5-2.9-3.5-2.9 1.3-2.9 3.5 1.2 3.5 2.9 3.5zm6.4-6.9h-1.6v-1.3h1.6v-1.4c0-1.5.9-2.3 2.6-2.3.3 0 .7.1 1 .1v1.3c-.3-.1-.6-.1-.9-.1-.7 0-1.2.2-1.2 1v1.3h1.8v1.3h-1.8v8H256v-7.9zm10.8-1.3h1.9v1.3h-1.9v5.8c0 .7.2.8 1.2.8h.7v1.4h-1.2c-1.6 0-2.2-.3-2.2-2V457h-1.6v-1.3h1.6v-2.8h1.5v2.7zm3.4-3.6h1.5v4.9c.5-1.1 1.8-1.6 2.9-1.6 2.4 0 3.2 1.4 3.2 3.4v6.1h-1.5v-6.3c0-1.2-.7-1.9-1.9-1.9-1.9 0-2.8 1.2-2.8 2.9v5.3h-1.5l.1-12.8zm13.6 3.4c3 0 4.5 2.1 4.5 4.9 0 2.7-1.6 4.9-4.5 4.9s-4.5-2.1-4.5-4.9 1.6-4.9 4.5-4.9zm0 8.4c1.6 0 2.9-1.3 2.9-3.5s-1.3-3.5-2.9-3.5-2.9 1.3-2.9 3.5 1.3 3.5 2.9 3.5zm13.7 1.1h-1.4v-1.5c-.6 1.2-1.7 1.7-3 1.7-2.4 0-3.2-1.4-3.2-3.4v-6.1h1.5v6.3c0 1.2.7 1.9 1.9 1.9 1.9 0 2.8-1.2 2.8-2.9v-5.3h1.5l-.1 9.3zm10.1-.8c0 3-1.4 4.6-4.3 4.6-1.7 0-3.8-.7-3.9-2.7h1.5c.1 1.1 1.4 1.5 2.4 1.5 2 0 2.8-1.4 2.8-3.5v-.6c-.5 1.1-1.7 1.7-2.9 1.7-2.8 0-4.2-2.2-4.2-4.7 0-2.2 1.1-4.9 4.3-4.9 1.2 0 2.2.5 2.8 1.5v-1.3h1.4v8.4h.1zm-1.5-4.1c0-1.6-.7-3.3-2.6-3.3-2 0-2.8 1.6-2.8 3.4 0 1.7.6 3.5 2.6 3.5s2.8-1.8 2.8-3.6zm3.4-8h1.5v4.9c.5-1.1 1.8-1.6 2.9-1.6 2.4 0 3.2 1.4 3.2 3.4v6.1h-1.5v-6.3c0-1.2-.7-1.9-1.9-1.9-1.9 0-2.8 1.2-2.8 2.9v5.3h-1.5l.1-12.8zm11.5 3.6h1.9v1.3H321v5.8c0 .7.2.8 1.2.8h.7v1.4h-1.2c-1.6 0-2.2-.3-2.2-2V457h-1.6v-1.3h1.6v-2.8h1.5v2.7zm-192.2 63.6h5.2v1.4h-5.2v-1.4zm11.8-7.1h1.7V525h-1.7v-12.9zm4 0h1.5V525h-1.5v-12.9zm3.5 0h1.5V525h-1.5v-12.9zm11.2 12.8h-1.4v-1.5c-.6 1.2-1.7 1.7-3 1.7-2.4 0-3.2-1.4-3.2-3.4v-6.1h1.5v6.3c0 1.2.7 1.9 1.9 1.9 1.9 0 2.8-1.2 2.8-2.9v-5.3h1.5l-.1 9.3zm3-2.9c.1 1.4 1.3 1.8 2.5 1.8 1 0 2.3-.2 2.3-1.4 0-2.4-6.1-.8-6.1-4.4 0-1.9 1.8-2.6 3.5-2.6 2.1 0 3.7.6 3.8 2.9h-1.5c-.1-1.2-1.2-1.6-2.2-1.6-.9 0-2 .3-2 1.2 0 1.1 1.6 1.3 3 1.6 1.5.3 3 .9 3 2.6 0 2.2-2.1 2.9-4 2.9-2.1 0-3.9-.8-3.9-3.2h1.6v.2zm9.4-8.1h-1.5V512h1.5v1.9zm-1.6 1.7h1.5v9.3h-1.5v-9.3zm7.6-.2c3 0 4.5 2.1 4.5 4.9 0 2.7-1.6 4.9-4.5 4.9-3 0-4.5-2.1-4.5-4.9s1.6-4.9 4.5-4.9zm0 8.4c1.6 0 2.9-1.3 2.9-3.5s-1.3-3.5-2.9-3.5-2.9 1.3-2.9 3.5 1.3 3.5 2.9 3.5zm6.1-8.2h1.4v1.5c.6-1.2 1.7-1.7 3-1.7 2.4 0 3.2 1.4 3.2 3.4v6.1H190v-6.3c0-1.2-.7-1.9-1.9-1.9-1.9 0-2.8 1.2-2.8 2.9v5.3h-1.5v-9.3zm18-.2c3 0 4.5 2.1 4.5 4.9 0 2.7-1.6 4.9-4.5 4.9-3 0-4.5-2.1-4.5-4.9s1.5-4.9 4.5-4.9zm0 8.4c1.6 0 2.9-1.3 2.9-3.5s-1.3-3.5-2.9-3.5-2.9 1.3-2.9 3.5 1.3 3.5 2.9 3.5zm6.4-6.8h-1.6v-1.4h1.6v-1.4c0-1.5.9-2.3 2.6-2.3.3 0 .7.1 1 .1v1.3c-.3-.1-.6-.1-.9-.1-.7 0-1.2.2-1.2 1v1.3h1.8v1.4h-1.8v8h-1.5V517zm10.2-3.1h-1.5V512h1.5v1.9zm-1.5 1.7h1.5v9.3h-1.5v-9.3zm3.5 0h1.4v1.5c.6-1.2 1.7-1.7 3-1.7 2.4 0 3.2 1.4 3.2 3.4v6.1h-1.5v-6.3c0-1.2-.7-1.9-1.9-1.9-1.9 0-2.8 1.2-2.8 2.9v5.3h-1.5l.1-9.3zM231 522c.1 1.4 1.3 1.8 2.5 1.8 1 0 2.2-.2 2.2-1.4 0-2.4-6.1-.8-6.1-4.4 0-1.9 1.8-2.6 3.5-2.6 2.1 0 3.7.6 3.8 2.9h-1.5c-.1-1.2-1.2-1.6-2.2-1.6-.9 0-2 .3-2 1.2 0 1.1 1.6 1.3 3 1.6 1.5.3 3 .9 3 2.6 0 2.2-2.1 2.9-4 2.9-2.1 0-3.9-.8-3.9-3.2h1.7v.2zm10-6.4h1.9v1.4H241v5.8c0 .7.2.8 1.2.8h.7v1.4h-1.2c-1.6 0-2.2-.3-2.2-2v-6h-1.6v-1.4h1.6v-2.8h1.5v2.8zm11.4 9.3c-.3.2-.6.3-1.1.3-.8 0-1.3-.4-1.3-1.4-.8 1-2 1.4-3.3 1.4-1.7 0-3.1-.7-3.1-2.6 0-2.1 1.6-2.6 3.2-2.9 1.7-.3 3.1-.2 3.1-1.4 0-1.4-1.1-1.5-2.1-1.5-1.3 0-2.3.4-2.3 1.8H244c.1-2.3 1.9-3.1 3.9-3.1 1.7 0 3.5.4 3.5 2.6v4.8c0 .7 0 1 .5 1 .1 0 .3 0 .5-.1v1.1zm-2.5-4.8c-1.2.9-4.6 0-4.6 2.3 0 1 .9 1.4 1.8 1.4 2 0 2.8-1.2 2.8-2.1v-1.6zm3.9-4.5h1.4v1.5c.6-1.2 1.7-1.7 3-1.7 2.4 0 3.2 1.4 3.2 3.4v6.1H260v-6.3c0-1.2-.7-1.9-1.9-1.9-1.9 0-2.8 1.2-2.8 2.9v5.3h-1.5v-9.3zm11.6 0h1.9v1.4h-1.9v5.8c0 .7.2.8 1.2.8h.7v1.4h-1.2c-1.6 0-2.2-.3-2.2-2v-6h-1.6v-1.4h1.6v-2.8h1.5v2.8zm11.4 9.3c-.3.2-.6.3-1.1.3-.8 0-1.3-.4-1.3-1.4-.8 1-2 1.4-3.3 1.4-1.7 0-3.1-.7-3.1-2.6 0-2.1 1.6-2.6 3.2-2.9 1.7-.3 3.1-.2 3.1-1.4 0-1.4-1.1-1.5-2.1-1.5-1.3 0-2.2.4-2.3 1.8h-1.5c.1-2.3 1.9-3.1 3.9-3.1 1.7 0 3.5.4 3.5 2.6v4.8c0 .7 0 1 .5 1 .1 0 .3 0 .5-.1v1.1zm-2.5-4.8c-1.2.9-4.6 0-4.6 2.3 0 1 .9 1.4 1.8 1.4 2 0 2.8-1.2 2.8-2.1v-1.6zm3.9-4.5h1.4v1.5c.6-1.2 1.7-1.7 3-1.7 2.4 0 3.2 1.4 3.2 3.4v6.1h-1.5v-6.3c0-1.2-.7-1.9-1.9-1.9-1.9 0-2.8 1.2-2.8 2.9v5.3h-1.5l.1-9.3zm17.5 6.4c-.4 2.1-1.9 3.2-4 3.2-3 0-4.4-2.1-4.5-4.9 0-2.8 1.8-4.8 4.4-4.8 3.3 0 4.3 3.1 4.2 5.3h-7c-.1 1.6.9 3.1 2.9 3.1 1.3 0 2.1-.6 2.4-1.8l1.6-.1zm-1.4-2.6c-.1-1.5-1.2-2.6-2.7-2.6-1.6 0-2.6 1.2-2.7 2.6h5.4zm7.3-4c3 0 4.5 2.1 4.5 4.9 0 2.7-1.6 4.9-4.5 4.9s-4.5-2.1-4.5-4.9 1.6-4.9 4.5-4.9zm0 8.4c1.6 0 2.9-1.3 2.9-3.5s-1.3-3.5-2.9-3.5-2.9 1.3-2.9 3.5 1.3 3.5 2.9 3.5zm13.8 1.1H314v-1.5c-.6 1.2-1.7 1.7-3 1.7-2.4 0-3.2-1.4-3.2-3.4v-6.1h1.5v6.3c0 1.2.7 1.9 1.9 1.9 1.9 0 2.8-1.2 2.8-2.9v-5.3h1.5l-.1 9.3zm2.9-2.9c.1 1.4 1.3 1.8 2.5 1.8 1 0 2.3-.2 2.3-1.4 0-2.4-6.1-.8-6.1-4.4 0-1.9 1.8-2.6 3.5-2.6 2.1 0 3.7.6 3.8 2.9h-1.5c-.1-1.2-1.2-1.6-2.2-1.6-.9 0-2 .3-2 1.2 0 1.1 1.6 1.3 3 1.6 1.5.3 3 .9 3 2.6 0 2.2-2.1 2.9-4 2.9-2.1 0-3.9-.8-3.9-3.2h1.6v.2zm12.1-6.4h1.4v2c.7-1.5 1.8-2.2 3.4-2.2v1.6c-2.5 0-3.4 1.4-3.4 3.8v4.1h-1.5l.1-9.3zM344 522c-.4 2.1-1.9 3.2-4 3.2-3 0-4.4-2.1-4.5-4.9 0-2.8 1.8-4.8 4.4-4.8 3.3 0 4.3 3.1 4.2 5.3h-7c-.1 1.6.9 3.1 2.9 3.1 1.3 0 2.1-.6 2.4-1.8l1.6-.1zm-1.5-2.6c-.1-1.5-1.2-2.6-2.7-2.6-1.6 0-2.6 1.2-2.7 2.6h5.4zm4.2 2.6c.1 1.4 1.3 1.8 2.5 1.8 1 0 2.3-.2 2.3-1.4 0-2.4-6.1-.8-6.1-4.4 0-1.9 1.8-2.6 3.5-2.6 2.1 0 3.7.6 3.8 2.9h-1.5c-.1-1.2-1.2-1.6-2.2-1.6-.9 0-2 .3-2 1.2 0 1.1 1.6 1.3 3 1.6 1.5.3 3 .9 3 2.6 0 2.2-2.1 2.9-4 2.9-2.1 0-3.9-.8-3.9-3.2h1.6v.2zm7.8-6.4h1.5v1.3c.5-1 1.7-1.5 3-1.5 2.9 0 4.3 2.3 4.3 4.9s-1.4 4.8-4.2 4.8c-.9 0-2.3-.4-3-1.5v4.8h-1.5l-.1-12.8zm4.3 1.1c-2.1 0-2.8 1.8-2.8 3.5 0 1.8.8 3.5 2.9 3.5s2.8-1.8 2.8-3.6c0-1.7-.9-3.4-2.9-3.4zm10.3-1.3c3 0 4.5 2.1 4.5 4.9 0 2.7-1.6 4.9-4.5 4.9-3 0-4.5-2.1-4.5-4.9-.1-2.8 1.5-4.9 4.5-4.9zm0 8.4c1.6 0 2.9-1.3 2.9-3.5s-1.3-3.5-2.9-3.5-2.9 1.3-2.9 3.5 1.2 3.5 2.9 3.5zm6-8.2h1.4v1.5c.6-1.2 1.7-1.7 3-1.7 2.4 0 3.2 1.4 3.2 3.4v6.1h-1.5v-6.3c0-1.2-.7-1.9-1.9-1.9-1.9 0-2.8 1.2-2.8 2.9v5.3H375l.1-9.3zm10.6 6.4c.1 1.4 1.3 1.8 2.5 1.8 1 0 2.2-.2 2.2-1.4 0-2.4-6.1-.8-6.1-4.4 0-1.9 1.8-2.6 3.5-2.6 2.1 0 3.7.6 3.8 2.9h-1.5c-.1-1.2-1.2-1.6-2.2-1.6-.9 0-2 .3-2 1.2 0 1.1 1.6 1.3 3 1.6 1.5.3 3 .9 3 2.6 0 2.2-2.1 2.9-4 2.9-2.1 0-3.9-.8-3.9-3.2h1.7v.2zm15.9 0c-.4 2.1-1.9 3.2-4 3.2-3 0-4.4-2.1-4.5-4.9 0-2.8 1.8-4.8 4.4-4.8 3.3 0 4.3 3.1 4.2 5.3h-7c-.1 1.6.9 3.1 2.9 3.1 1.3 0 2.1-.6 2.4-1.8l1.6-.1zm-1.5-2.6c-.1-1.5-1.2-2.6-2.7-2.6-1.6 0-2.6 1.2-2.7 2.6h5.4z"/></svg>