<svg xmlns="http://www.w3.org/2000/svg" width="200" height="200" viewBox="618 297 200 200"><path fill="#006D5D" d="M718.3 331.5c2.2 0 4.1-1.8 4.1-4.1v-25c0-2.3-1.9-4.1-4.1-4.1-2.3 0-4.1 1.8-4.1 4.1v25c0 2.3 1.9 4.1 4.1 4.1m40.5 9.5c.5.3 1.2.4 1.8.4 1.5 0 3-.9 3.7-2.3l11-22.5c.2-.6.4-1.2.4-1.8 0-1.5-.9-3-2.3-3.7-.6-.3-1.2-.4-1.8-.4-1.5 0-3 .9-3.7 2.3l-11 22.6c-.3.5-.4 1.1-.4 1.7 0 1.6.8 3 2.3 3.7m-88.4-1.9c.7 1.4 2.2 2.3 3.7 2.3.6 0 1.2-.1 1.8-.4 1.5-.7 2.3-2.1 2.3-3.6 0-.6-.1-1.2-.4-1.7l-11-22.6c-.7-1.4-2.2-2.3-3.7-2.3-.6 0-1.2.1-1.7.4-1.5.7-2.4 2.2-2.4 3.7 0 .6.1 1.2.4 1.8l11 22.4zm147 9.5c-.8-1.2-2.2-1.9-3.5-1.9-.8 0-1.5.2-2.2.6l-21.5 13.2c-1.2.8-1.9 2.1-1.9 3.4 0 .7.2 1.5.6 2.1.8 1.3 2.2 1.9 3.5 1.9.8 0 1.5-.2 2.2-.6l21.5-13.2c1.2-.7 1.9-2.1 1.9-3.5 0-.6-.2-1.3-.6-2M643.7 368c1.4 0 2.7-.7 3.5-1.9.4-.6.6-1.4.6-2.1 0-1.4-.7-2.6-2-3.4l-21.5-13.2c-.7-.4-1.4-.6-2.2-.6-1.3 0-2.7.7-3.5 1.9-.4.7-.6 1.4-.6 2.1 0 1.4.7 2.7 1.9 3.5l21.6 13.2c.6.3 1.4.5 2.2.5m138.7 81.6c.2-8.1-1.6-17.1-5.3-26.3 4.8-2 9.1-4.2 12.2-6.6 0 .9.1 1.7.1 2.6-.1 10.8-2.6 21.1-7 30.3m-9.5-35.2c-1.9-3.5-4-7-6.4-10.5.4-.7.8-1.3 1-2.1 3.6.3 6.7.7 9.5 1.2-1 3.8-2.4 7.5-4.1 11.4m-2.8 52.8c-.8.8-1.5 1.6-2.3 2.3-9.8 8.6-27.6 9.1-46.1 2.1 7.1-3.1 14.2-7.1 21-11.9 1.6 1.1 3.6 1.7 5.7 1.7 5.6 0 10.1-4.5 10.1-10 0-1.6-.4-3-1-4.3 5.8-5.8 10.8-11.9 14.8-18.2 5.6 15.4 5.2 29.6-2.2 38.3m-51.8 22.1c-3.4 0-6.7-.2-9.9-.7 3.1-3.1 6.5-8 9.9-14.3 10.3 4.8 20.5 7.4 29.6 7.6h2.3c-9.6 4.7-20.4 7.4-31.9 7.4m-16.6-2.3c-2-1.1-3.2-4.1-3.9-8.4 5.1-.7 10.5-2 15.8-3.9-4.9 8.5-9.4 13.6-11.9 12.3m-4.2-25.5c3.9 2.9 7.8 5.6 11.7 7.9-4.1 1.2-8.1 2.2-12 2.8-.1-3.3 0-6.8.3-10.7m-22.2-26.1c-4.1-5.8-7.3-11.7-9.8-17.5 7.6-3.1 17.4-6.3 29-9.2.9 2 2.4 3.7 4.2 4.9-.1.2-.1.5-.1.7-1.7 7.3-3.1 14-4.2 20.2-7.2.7-13.6.9-19.1.9m16.3 18c-.8-.7-1.5-1.4-2.3-2.1.5-.8.8-1.8.8-2.8 0-3-2.4-5.4-5.5-5.4-1 0-1.9.3-2.7.7-.7-.9-1.5-1.7-2.2-2.6 4.6-.1 9.2-.3 13.6-.7-.7 4.7-1.3 9-1.7 12.9M681.2 479c3.2.4 6.7.5 10.3.3.3 2 .8 3.8 1.4 5.3-4.1-1.5-8-3.4-11.7-5.6m-18.5-16.2c-4.2-5.8-5.9-13.8-5-22.7 5.5.9 12.1 1.2 18.9 1.2 1.1 1.4 2.3 2.7 3.5 4.1-.6.9-1 2-1 3.1 0 3 2.5 5.4 5.5 5.4 1.1 0 2.1-.3 3-.9 1.2 1.2 2.4 2.2 3.7 3.3-.6 6.4-.8 11.9-.5 16.5-9.8.6-18.2-1-23.3-4.9-1.7-1.6-3.3-3.3-4.8-5.1m-14.3-32.5c-1.5-1.8 2.4-5.4 10.6-9.4-2.1 4.2-3.8 8.4-4.9 12.5-3.1-.9-5-1.9-5.7-3.1m3.6 14c-.8-2-1.4-4-2-6.1l2.7.9c-.3 1.8-.5 3.5-.7 5.2m-4.6-25c0-11.1 2.6-21.5 7.3-30.8-.1 8.4 2 17.7 6.1 27.2-5.3 2-9.9 4.2-13.3 6.6-.1-.9-.1-2-.1-3m24.6 16.1c-5.3-.1-9.8-.5-13.4-1 .9-4.4 2.4-8.9 4.4-13.5 2.6 4.8 5.5 9.7 9 14.5m-5-64.3c.5-.6 1-1.1 1.6-1.6 9.8-8.9 27.1-8.8 45.4-1v.1c-8.4 4-16.9 9.3-25 15.9-.5.4-1 .9-1.6 1.3-.9-.7-2-1-3.1-1-3 0-5.4 2.4-5.4 5.4 0 1 .3 2 .8 2.8-6.4 6.4-11.8 13.1-16.1 19.9-5.8-17-4.7-32.8 3.4-41.8m51.3-21.7c2.7 0 5.4.1 7.9.4-3 3-6.2 7.4-9.4 13.2-10.5-4.5-20.9-6.6-30.1-6.3 9.6-4.7 20.3-7.3 31.6-7.3m17 2.4h.2c1.8.4 3.1 3.6 3.8 8.6-5 .8-10.3 2.2-15.6 4.1 4.2-8.2 8.4-13.3 11.6-12.7m4.7 24.6c-4.6-3.4-9.3-6.5-14-9 4.7-1.3 9.3-2.1 13.7-2.5.3 3.3.4 7.2.3 11.5m-29.9 62.7c1.6 2.2 4.2 3.6 7.1 3.6 3.8 0 7-2.4 8.2-5.7 1.4-.2 3.1-.5 5-.9-3.4 10.6-7.8 21.3-12.2 30.2-1.6.6-3.2 1.2-4.7 1.8-5.3-2.6-10.5-5.8-15.6-9.6.5-5.8 1.3-12 2.4-18.3 3.4-.4 6.8-.8 9.8-1.1m21.5-38.8c-.6-1.6-2.2-2.8-4-2.8-2.2 0-4 1.7-4.2 3.8-3 .4-5.3.7-6.6.9-.5-3.3-2.5-6.2-5.3-8 2.7-8.1 5.7-16 8.8-22.8 6.6 3.4 13.1 7.7 19.5 12.9-.3 4.9-.8 10.1-1.4 15.2-2.5.3-4.7.5-6.8.8m3.2 19.4c-.3 1.5-.7 3-1 4.4-.4 1.7-.9 3.4-1.4 5.1-2.4.4-4.9.9-7.5 1.3-1.4-2.9-4.3-4.9-7.8-4.9-4.3 0-7.9 3.1-8.5 7.3-2.5.3-5 .6-7.4.8 1.2-6.3 2.5-12.5 4-18.4 6.3 0 11.4-5 11.7-11.1 2.3-.4 4.6-.7 6.8-1 .7 1.5 2.2 2.5 3.9 2.5 2.1 0 3.8-1.5 4.2-3.4 2.1-.2 4.1-.4 6.1-.5-.3 2.5-.7 5.1-1.2 7.6-2.8.2-5 2.5-5 5.4 0 2.3 1.3 4.1 3.1 4.9m-41.1-13.2c-8.5 1.8-18.2 4.2-27 7.1 3.7-6.6 8.5-13 14.4-19.1.9.6 2 1 3.1 1 3 0 5.5-2.4 5.5-5.4 0-1-.3-2.1-.9-2.8.4-.4.8-.7 1.2-1.1 7-5.7 14.5-10.3 22-13.7-2.6 5.8-5.2 12.5-7.6 20-6.2.3-11.2 5.3-11.2 11.5.2.8.3 1.7.5 2.5m45.2 48.4c-5.1 3.6-10.4 6.6-15.7 9.1 3.6-8.2 7.1-18 10.3-28.6 8.9-1.8 21.1-4.5 32.3-8.1-3.5 5.3-7.6 10.4-12.4 15.3-1.4-.8-3.1-1.3-4.9-1.3-5.6 0-10.1 4.5-10.1 10-.1 1.4.1 2.5.5 3.6m10.6-53.5c1.1 3.9 4.7 6.8 9.1 6.8.9 0 1.8-.1 2.7-.4 2.8 4 5.2 8.1 7.2 12.1-8.5 3-19.6 6.1-33.1 8.8.5-1.8.9-3.5 1.4-5.2.2-1.1.5-2.2.8-3.3 2.8-.1 5.2-2.5 5.2-5.3 0-2.1-1.2-3.9-3-4.8.6-2.8 1.1-5.7 1.5-8.4 2.8-.2 5.6-.2 8.2-.3m6.2-41.5c-2-.2-3.9-.3-6-.3-2.2 0-4.5.1-6.8.4-.4-2.5-.9-4.8-1.5-6.7 5 1.6 9.9 3.8 14.3 6.6m-5.3 34.6c-.7 1.3-1.1 2.7-1.2 4.2-2.6.2-5.1.3-7.6.5.6-4.1 1.1-8.1 1.5-11.9 1.3 1.1 2.6 2.3 3.8 3.6 1.2 1.2 2.3 2.4 3.5 3.6m25.6-16c2.9 5.1 3.4 12.3 1.9 20.4-3.1-.4-6.4-.6-9.9-.7-.4-4.8-4.4-8.6-9.3-8.6-1.1 0-2.2.2-3.1.6-1.2-1.3-2.5-2.6-3.8-3.9-2.6-2.6-5.4-5-8.1-7.2.2-5.4.2-10.3-.2-14.7 12-.4 22.3 2.6 28.5 8.9 1.4 1.9 2.7 3.5 4 5.2m7.3 26.2c3.1 1 4.8 2.3 5 3.4v.2c0 1.7-3 4.1-8.7 7 1.6-3.5 2.9-7.1 3.7-10.6m1.6-9.8c.7 1.9 1.3 3.8 1.9 5.8-.8-.3-1.6-.5-2.4-.7.2-1.6.4-3.3.5-5.1m9.8 12.6c0-.1-.1-.2-.1-.3-2.1-13.1-7.6-25.1-15.7-35.1-.3-.5-.7-.9-1-1.4-.4-.5-.9-1-1.4-1.6-14.2-16-35-26.1-58.2-26.1-20.9 0-39.9 8.2-53.8 21.6-.4.3-.8.7-1.2 1-.4.4-.7.9-1.1 1.2-13.2 13.7-21.3 32.1-21.3 52.5 0 18.1 6.5 34.7 17.1 47.8.2.2.4.5.6.8.3.4.7.7 1 1.1 14.2 16.3 35.2 26.5 58.6 26.5 20.7 0 39.5-8.1 53.4-21.2.5-.5 1-.9 1.5-1.4.5-.5 1-1 1.4-1.5 13-13.6 21-31.9 21-52.1 0-4-.3-7.9-.9-11.8h.1"/></svg>