<svg xmlns="http://www.w3.org/2000/svg" width="200" height="200" viewBox="-205 297 200 200"><path fill="#323232" d="M-205 297H-5v200h-200V297z"/><path fill="#FFF" d="M-104.6 348.1c1.7 0 3.1-1.4 3.1-3.1v-19c0-1.7-1.4-3.1-3.1-3.1-1.7 0-3.1 1.4-3.1 3.1v19c0 1.7 1.4 3.1 3.1 3.1m30.7 7.2c.4.2.9.3 1.3.3 1.2 0 2.3-.6 2.8-1.7l8.3-17.1c.2-.4.3-.9.3-1.3 0-1.2-.7-2.3-1.8-2.8-.4-.2-.9-.3-1.4-.3-1.2 0-2.3.6-2.8 1.7l-8.3 17.1c-.2.4-.3.9-.3 1.3.1 1.2.7 2.3 1.9 2.8m-67-1.5c.5 1.1 1.7 1.7 2.8 1.7.5 0 .9-.1 1.3-.3 1.1-.5 1.8-1.6 1.8-2.8 0-.5-.1-.9-.3-1.3l-8.3-17.1c-.5-1.1-1.7-1.7-2.8-1.7-.4 0-.9.1-1.3.3-1.2.5-1.8 1.6-1.8 2.8 0 .4.1.9.3 1.3l8.3 17.1zm111.4 7.3c-.6-.9-1.6-1.4-2.7-1.4-.6 0-1.2.2-1.7.5l-16.3 10c-.9.6-1.5 1.6-1.5 2.6 0 .6.1 1.1.5 1.6.6 1 1.6 1.5 2.7 1.5.6 0 1.1-.1 1.7-.5l16.3-10c.9-.6 1.5-1.6 1.5-2.6 0-.7-.1-1.2-.5-1.7m-131.7 14.7c1.1 0 2.1-.5 2.7-1.5.3-.5.5-1 .5-1.6 0-1-.5-2-1.5-2.6l-16.3-10c-.5-.3-1.1-.5-1.7-.5-1 0-2.1.5-2.6 1.4-.3.5-.5 1.1-.5 1.6 0 1.1.5 2.1 1.5 2.6l16.4 10c.3.4.9.6 1.5.6M-56 437.6c.1-6.1-1.2-13-4-20 3.7-1.5 6.9-3.2 9.3-5v2c-.1 8.3-2 16.1-5.3 23m-7.2-26.6c-1.4-2.7-3-5.3-4.9-8 .3-.5.6-1 .8-1.6 2.7.3 5.1.6 7.2.9-.8 2.8-1.8 5.7-3.1 8.7m-2.2 40l-1.8 1.8c-7.4 6.5-20.9 6.9-35 1.6 5.4-2.3 10.7-5.4 15.9-9.1 1.2.8 2.7 1.3 4.3 1.3 4.3 0 7.7-3.4 7.7-7.6 0-1.2-.3-2.3-.7-3.3 4.4-4.4 8.2-9 11.2-13.8 4.4 11.7 4.1 22.5-1.6 29.1m-39.2 16.7c-2.6 0-5.1-.2-7.5-.5 2.4-2.3 4.9-6.1 7.5-10.9 7.8 3.7 15.5 5.6 22.4 5.8h1.7c-7.2 3.6-15.4 5.6-24.1 5.6m-12.6-1.7c-1.5-.8-2.4-3.1-3-6.4 3.9-.5 7.9-1.5 12-2.9-3.7 6.4-7.1 10.3-9 9.3m-3.2-19.3c2.9 2.2 5.9 4.2 8.9 6-3.1.9-6.2 1.7-9.1 2.1-.1-2.5 0-5.2.2-8.1m-16.8-19.8c-3.1-4.4-5.5-8.9-7.4-13.3 5.8-2.4 13.2-4.8 22-7 .7 1.5 1.8 2.8 3.2 3.7 0 .2-.1.4-.1.5-1.3 5.5-2.3 10.6-3.2 15.3-5.5.6-10.3.8-14.5.8m12.3 13.6c-.6-.5-1.2-1-1.7-1.6.4-.6.6-1.4.6-2.2 0-2.3-1.8-4.1-4.1-4.1-.8 0-1.4.2-2.1.6-.6-.7-1.1-1.3-1.7-1.9 3.5-.1 7-.3 10.3-.5-.5 3.5-1 6.8-1.3 9.7m-7.8 19.4c2.4.3 5.1.4 7.8.3.3 1.5.6 2.8 1.1 4-3.2-1.2-6.2-2.6-8.9-4.3m-14.1-12.3c-3.2-4.4-4.5-10.4-3.8-17.2 4.2.7 9.2.9 14.3.9.9 1 1.7 2.1 2.7 3.1-.5.7-.8 1.5-.8 2.3 0 2.3 1.9 4.1 4.1 4.1.8 0 1.6-.3 2.2-.7.9.9 1.8 1.7 2.8 2.5-.5 4.8-.6 9-.4 12.5-7.4.5-13.8-.7-17.7-3.7-1.1-1.1-2.2-2.4-3.4-3.8m-10.8-24.6c-1.1-1.4 1.8-4.1 8-7.1-1.6 3.2-2.8 6.4-3.7 9.5-2.4-.7-3.8-1.5-4.3-2.4m2.7 10.6c-.6-1.5-1.1-3-1.5-4.6.6.3 1.4.4 2.1.6-.3 1.4-.5 2.7-.6 4m-3.5-18.9c0-8.4 2-16.3 5.5-23.4-.1 6.3 1.5 13.4 4.6 20.7-4 1.5-7.5 3.2-10.1 5v-2.3m18.7 12.2c-4-.1-7.4-.4-10.1-.8.7-3.3 1.8-6.8 3.4-10.2 1.8 3.6 4.1 7.4 6.7 11m-3.8-48.8l1.2-1.2c7.4-6.8 20.6-6.7 34.5-.8v.1c-6.4 3.1-12.8 7.1-18.9 12-.4.3-.8.7-1.2 1-.7-.5-1.5-.8-2.4-.8-2.3 0-4.1 1.8-4.1 4.1 0 .8.2 1.5.6 2.1-4.9 4.8-9 9.9-12.2 15.1-4.5-12.8-3.7-24.7 2.5-31.6m38.9-16.5c2 0 4.1.1 6 .3-2.3 2.2-4.7 5.6-7.1 10-8-3.4-15.9-5-22.8-4.8 7.2-3.5 15.3-5.5 23.9-5.5m12.8 1.8c1.5.3 2.4 2.7 3 6.5-3.8.6-7.8 1.7-11.9 3.1 3.4-6.1 6.6-9.9 8.9-9.6m3.7 18.7c-3.5-2.6-7-4.9-10.6-6.8 3.6-1 7.1-1.6 10.4-1.9.2 2.5.2 5.5.2 8.7m-22.8 47.5c1.2 1.7 3.2 2.8 5.4 2.8 2.9 0 5.3-1.8 6.2-4.4 1.1-.2 2.4-.4 3.8-.7-2.6 8-5.9 16.2-9.2 22.9-1.2.5-2.4.9-3.6 1.4-4-2-8-4.4-11.9-7.3.4-4.4 1-9.1 1.8-13.9 2.7-.2 5.3-.5 7.5-.8m16.4-29.4c-.4-1.2-1.6-2.1-3-2.1-1.7 0-3.1 1.3-3.2 2.9-2.3.3-4 .5-5 .7-.4-2.5-1.9-4.7-4-6 2.1-6.2 4.4-12.2 6.7-17.3 5 2.6 10 5.9 14.8 9.8-.2 3.7-.6 7.6-1.1 11.5-1.9.2-3.6.4-5.2.5m2.4 14.8c-.3 1.1-.5 2.3-.8 3.4-.3 1.3-.7 2.6-1 3.9-1.8.3-3.7.7-5.7 1-1-2.2-3.3-3.7-5.9-3.7-3.3 0-6 2.4-6.4 5.5-1.9.2-3.8.5-5.6.6.9-4.7 1.9-9.5 3-13.9 4.8 0 8.7-3.8 8.9-8.5 1.8-.3 3.5-.5 5.2-.7.5 1.1 1.7 1.9 3 1.9 1.6 0 2.9-1.1 3.2-2.6 1.6-.2 3.1-.3 4.6-.4-.3 1.9-.5 3.8-.9 5.8-2.1.1-3.8 1.9-3.8 4.1-.1 1.6.8 3 2.2 3.6m-31.1-10.1c-6.4 1.4-13.8 3.2-20.5 5.4 2.8-5 6.5-9.9 10.9-14.5.7.5 1.5.8 2.4.8 2.3 0 4.2-1.8 4.2-4.1 0-.8-.3-1.6-.6-2.2.3-.3.6-.5.9-.8 5.3-4.3 11-7.8 16.7-10.4-2 4.4-3.9 9.5-5.7 15.1-4.7.2-8.5 4-8.5 8.7-.1.8 0 1.5.2 2m34.2 36.8c-3.8 2.7-7.9 5-11.9 6.9 2.7-6.3 5.4-13.6 7.8-21.7 6.8-1.3 16-3.4 24.5-6.1-2.6 4-5.8 7.9-9.4 11.6-1.1-.6-2.4-1-3.7-1-4.2 0-7.7 3.4-7.7 7.6-.1 1 .1 1.9.4 2.7m8.1-40.6c.8 3 3.6 5.2 6.9 5.2.7 0 1.4-.1 2-.3 2.1 3 3.9 6.1 5.4 9.2-6.5 2.3-14.9 4.6-25.1 6.7.4-1.3.7-2.7 1-4 .2-.8.4-1.6.6-2.5 2.2-.1 3.9-1.9 3.9-4 0-1.6-.9-3-2.2-3.6.4-2.2.8-4.3 1.2-6.4 2.2-.2 4.3-.3 6.3-.3m4.6-31.5c-1.5-.1-3-.3-4.5-.3-1.7 0-3.4.1-5.2.3-.3-1.9-.7-3.6-1.2-5.1 3.9 1.3 7.6 3 10.9 5.1m-4 26.2c-.5 1-.9 2-.9 3.2-2 .1-3.9.3-5.8.4.5-3.1.8-6.2 1.1-9.1 1 .9 2 1.8 2.9 2.7 1 1 1.8 1.9 2.7 2.8m19.4-12.1c2.2 3.9 2.6 9.4 1.4 15.5-2.3-.3-4.9-.4-7.5-.5-.3-3.6-3.3-6.5-7.1-6.5-.8 0-1.6.1-2.4.4-.9-1-1.9-2-2.8-2.9-2-1.9-4.1-3.8-6.1-5.4.2-4.1.1-7.8-.1-11.1 9.1-.3 16.9 1.9 21.6 6.8 1 1.2 2.1 2.5 3 3.7m5.6 19.9c2.3.8 3.7 1.7 3.8 2.6v.2c0 1.3-2.3 3.1-6.6 5.3 1.2-2.7 2.2-5.5 2.8-8.1m1.2-7.4c.5 1.4 1 2.9 1.4 4.4-.6-.2-1.2-.4-1.8-.5.1-1.3.3-2.6.4-3.9m7.4 9.5v-.2c-1.6-9.9-5.8-19-11.9-26.6-.3-.4-.5-.7-.8-1-.3-.4-.7-.8-1.1-1.2-10.8-12.1-26.6-19.8-44.2-19.8-15.9 0-30.3 6.2-40.8 16.4-.3.2-.6.5-.9.8s-.6.6-.8.9c-10 10.4-16.2 24.4-16.2 39.8 0 13.7 4.9 26.3 13 36.2.2.2.3.4.5.6.3.3.5.6.8.8 10.8 12.3 26.7 20.1 44.4 20.1 15.7 0 30-6.1 40.5-16 .4-.4.8-.7 1.2-1.1s.7-.8 1-1.2c10-10.3 16-24.2 16-39.5 0-3-.2-6-.7-9"/></svg>