<svg xmlns="http://www.w3.org/2000/svg" width="300" height="72" viewBox="121 361 300 72"><path d="M277.5 406.4c3.6-14.5 3.1-26.2-.2-27.6h-.1l-.3 2.1h.1c2.5.6 2 15.4-.6 25.7-2.5 10.3-9 23.5-11.2 22.3l-.7 1.8c.1 0 .1.1.2.1 3.5 1 9.3-9.9 12.8-24.4"/><path d="M281.4 427.1c-6.6-.1-14.8-4-21.6-10.8-10.6-10.5-14.1-24.2-7.9-30.5l1.6 1.6c-5.4 5.4-2.9 18.6 6.8 28.2 9.7 9.6 23.1 12.2 28.5 6.8l1.6 1.6c-2.2 2.2-5.4 3.2-9 3.1"/><path d="M282.1 383.7c4.1 0 7.6 1.3 9.9 4l-1.7 1.4c-4.9-5.9-18.4-4.7-29 4-10.6 8.7-14.2 21.7-9.3 27.6l-1.7 1.4c-5.6-6.8-.9-20.1 10.6-29.6 6.9-5.7 14.8-8.8 21.2-8.8"/><path d="M246.7 408.8c-1.3-1.5 8.5-6.8 23.8-9.2 15.2-2.4 25.1-.4 25.2 1.4l2.2-.3c-1-6-26.6-2-27.7-1.8-1.1.2-26.7 4.3-25.8 10.2l2.3-.3m12.6 8.4c-1.1 0-1.9-.9-1.9-1.9 0-1.1.8-1.9 1.9-1.9 1.1 0 1.9.9 1.9 1.9 0 1.1-.8 1.9-1.9 1.9m-.1-20.7c-1.1 0-1.9-.9-1.9-1.9s.8-1.9 1.9-1.9c1.1 0 1.9.9 1.9 1.9 0 1-.8 1.9-1.9 1.9"/><path d="M274.4 400.2c-.8 0-1.5-.7-1.5-1.5s.7-1.5 1.5-1.5 1.5.7 1.5 1.5-.7 1.5-1.5 1.5m3.3 5.1c-1.1 0-1.9-.9-1.9-1.9 0-1.1.8-1.9 1.9-1.9 1.1 0 1.9.9 1.9 1.9 0 1-.8 1.9-1.9 1.9"/><path d="M292 387.7c5.6 6.8 1.3 20.4-10.2 29.9s-25.9 11.4-31.5 4.6l1.7-1.4c3.3 5.6 17.8 4 28.4-4.8s14.7-22.3 9.9-26.9l1.7-1.4zm-1.7 36.3l-1.6-1.6c5.4-5.4 2.1-17.9-7.6-27.6-9.7-9.6-22.3-12.8-27.6-7.4l-1.6-1.6c6.2-6.3 20.3-3.1 30.9 7.4 10.6 10.6 13.8 24.5 7.5 30.8"/><path d="M272.2 411.4c3.4-.5 26.6-4.7 25.6-10.7l-2.2.3c0 1.7-8.7 5.8-24 8.2-15.3 2.4-24 1.3-25-.4l-2.3.3c1.4 6 23.8 2.9 27.9 2.3m-2.5-39.1v-8.9c0-.8.6-1.4 1.4-1.4.8 0 1.4.6 1.4 1.4v8.9c0 .8-.6 1.4-1.4 1.4-.8.1-1.4-.6-1.4-1.4m15.6 4.8c-.5-.2-.8-.8-.8-1.3 0-.2.1-.4.1-.6l3.8-8c.3-.5.8-.8 1.3-.8.2 0 .4.1.6.1.5.2.8.8.8 1.3 0 .2-.1.4-.1.6l-3.8 8c-.2.5-.8.8-1.3.8-.2.1-.4 0-.6-.1m-29 0c-.2.1-.4.1-.6.1-.5 0-1.1-.3-1.3-.8l-3.8-8c-.1-.2-.2-.4-.2-.6 0-.5.3-1.1.8-1.3.2-.1.4-.1.6-.1.5 0 1.1.3 1.3.8l3.8 8c.1.2.1.4.1.6.1.6-.2 1.1-.7 1.3m39.5 8.9c-.2-.2-.2-.5-.2-.8 0-.5.2-1 .7-1.2l7.5-4.7c.2-.2.5-.2.8-.2.5 0 1 .2 1.2.7.2.2.2.5.2.8 0 .5-.2 1-.7 1.2l-7.5 4.7c-.2.2-.5.2-.8.2-.5 0-.9-.2-1.2-.7m-49.6 0c-.3.4-.7.7-1.2.7-.3 0-.5-.1-.8-.2l-7.5-4.7c-.4-.3-.7-.7-.7-1.2 0-.3.1-.5.2-.8.3-.4.7-.7 1.2-.7.3 0 .5.1.8.2l7.5 4.7c.4.3.7.7.7 1.2 0 .3 0 .6-.2.8"/><path d="M270.7 413.2c-1.7 0-3-1.3-3-3s1.3-3 3-3c1.6 0 3 1.3 3 3s-1.3 3-3 3m14.5-12.2c-1.8 0-3.3-1.5-3.3-3.3 0-1.8 1.5-3.3 3.3-3.3 1.8 0 3.3 1.5 3.3 3.3 0 1.8-1.5 3.3-3.3 3.3m-3.6 18.9c-2 0-3.6-1.6-3.6-3.6s1.6-3.6 3.6-3.6 3.6 1.6 3.6 3.6-1.6 3.6-3.6 3.6m-15.1-16.3c-2.3 0-4.1-1.8-4.1-4.1s1.8-4.1 4.1-4.1 4.1 1.8 4.1 4.1c0 2.2-1.8 4.1-4.1 4.1"/><path d="M265.3 429c-2.9-1.6-1.3-15.2 1.3-25.5 2.5-10.3 7.6-23 10.5-22.5l.3-2.1c-3.3-1.3-9.4 8.2-13.1 24.3-3.9 17.4-3.6 26.2.3 27.6l.7-1.8"/><path d="M271.1 380.1c-13.7 0-24.8 11.1-24.8 24.8s11.1 24.8 24.8 24.8c13.7 0 24.8-11.1 24.8-24.8.1-13.7-11.1-24.8-24.8-24.8m0 51.9c-14.9 0-27.1-12.1-27.1-27.1s12.1-27.1 27.1-27.1c14.9 0 27.1 12.1 27.1 27.1 0 15-12.2 27.1-27.1 27.1"/></svg>