<svg xmlns="http://www.w3.org/2000/svg" width="232.9" height="75.1" viewBox="-395 347.9 232.9 75.1"><path fill="#F9F9F9" d="M-395 347.6h232.9v75.7H-395v-75.7z"/><path d="M-205.5 379.9h4.6v2.5h.1c1.2-2 3.4-3 5.4-3 5.2 0 6.5 2.9 6.5 7.3v10.9h-4.9v-10c0-2.9-.8-4.4-3.1-4.4-2.7 0-3.8 1.5-3.8 5.1v9.3h-4.9l.1-17.7m17.6 0h3v.4h-1.3v3.6h-.4v-3.6h-1.3v-.4m3.6 0h.5l1.3 3.5 1.4-3.5h.5v4h-.3v-3.4l-1.4 3.4h-.3l-1.3-3.4h-.1v3.4h-.3v-4m-94.5 17.8h-5.3l-4.2-16.7-4.1 16.7h-5.4l-6.5-24.5h5.4l3.9 16.7 4.3-16.7h5l4.1 16.9h.1l4.1-16.9h5.2l-6.6 24.5m5.5-12.3c.3-4.5 4.4-6 8.3-6 3.5 0 7.8.8 7.8 5.1v9.2c0 1.6.2 3.2.6 3.9h-4.9c-.2-.6-.3-1.1-.3-1.7-1.5 1.6-3.8 2.2-6 2.2-3.4 0-6-1.7-6-5.3.1-8 12-3.7 11.8-7.7 0-2-1.5-2.4-3.2-2.4-1.9 0-3 .8-3.2 2.7h-4.9m11.2 3.6c-.8.7-2.5.8-4.1 1-1.5.3-2.8.8-2.8 2.6s1.4 2.3 3 2.3c3.8 0 3.9-3 3.9-4.1V389zm13.8-9.1h3.5v3.2h-3.5v8.8c0 1.6.4 2 2 2 .6 0 1.1-.1 1.5-.1v3.8c-.8.1-1.9.2-2.8.2-3 0-5.6-.6-5.6-4.2v-10.4h-3V380h3v-5.3h4.9v5.2m9.5 12c0 2.1 1.8 3 3.7 3 1.4 0 3.2-.6 3.2-2.3 0-1.5-2-2-5.5-2.7-2.8-.6-5.6-1.6-5.6-4.7 0-4.5 3.9-5.7 7.7-5.7 3.9 0 7.4 1.3 7.8 5.6h-4.6c-.1-1.9-1.6-2.4-3.3-2.4-1.1 0-2.7.2-2.7 1.6 0 1.8 2.8 2 5.5 2.7 2.8.6 5.6 1.7 5.6 4.9 0 4.7-4.1 6.1-8.1 6.1-4.1 0-8.2-1.5-8.3-6.3h4.6m22.3-12.2c5.6 0 9.2 3.7 9.2 9.4 0 5.6-3.6 9.3-9.2 9.3s-9.1-3.7-9.1-9.3c0-5.7 3.6-9.4 9.1-9.4m0 15c3.3 0 4.3-2.8 4.3-5.6s-1-5.7-4.3-5.7-4.3 2.8-4.3 5.7c.1 2.8 1 5.6 4.3 5.6z"/><path fill="#006D5D" d="M-367.2 373.2h2.3v24.4h-2.3zm6.7 0h10.3c4.1 0 7.9 1.5 7.9 6 0 2.6-1.7 4.9-4.2 5.5v.1c3.2.4 5.2 2.8 5.2 6 0 2.3-.8 7-8.7 7h-10.3l-.2-24.6m2.4 10.7h8c3.7 0 5.5-1.8 5.5-4.1 0-3-1.8-4.6-5.5-4.6h-8v8.7zm0 11.8h8c3.5 0 6.5-1.1 6.5-5.1 0-3.2-2.3-4.7-6.5-4.7h-8v9.8zm19.8-22.5h3.4l8.5 21.4 8.4-21.4h3.4v24.5h-2.3v-21.2l-8.4 21.2h-2.2l-8.4-21.2h-.1v21.2h-2.3v-24.5"/></svg>