<svg xmlns="http://www.w3.org/2000/svg" width="195.9" height="21.7" viewBox="-365.7 377 195.9 21.7"><path d="M-197.1 383.8h4.7v1.8h.1c1.2-1.5 3.4-2.2 5.5-2.2 5.3 0 6.6 2.2 6.6 5.4v8h-5v-7.4c0-2.2-.8-3.2-3.2-3.2-2.7 0-3.9 1.1-3.9 3.7v6.9h-5l.2-13m18 0h3.1v.2h-1.4v2.7h-.4V384h-1.3v-.2m3.7 0h.5l1.4 2.5 1.3-2.5h.6v2.9h-.4v-2.5l-1.4 2.5h-.3l-1.3-2.5h-.1v2.5h-.3v-2.9m-96.7 13.1h-5.5l-4.2-12.3h-.1l-4.2 12.3h-5.5l-6.6-18.1h5.5l3.9 12.3h.1l4.3-12.3h5.1l4.3 12.5h.1l4.1-12.5h5.4l-6.7 18.1m5.6-9.1c.3-3.3 4.5-4.4 8.5-4.4 3.6 0 8 .6 8 3.7v6.8c0 1.2.2 2.4.6 2.9h-5.1c-.2-.4-.3-.8-.3-1.3-1.6 1.2-3.9 1.6-6.1 1.6-3.5 0-6.2-1.3-6.2-3.9.1-5.9 12.2-2.8 12.1-5.7 0-1.5-1.5-1.8-3.2-1.8-1.9 0-3.1.6-3.3 2h-5m11.5 2.8c-.8.5-2.6.6-4.1.7-1.6.2-2.9.6-2.9 1.9s1.4 1.7 3 1.7c3.9 0 4-2.2 4-3v-1.3zm14-6.7h3.6v2.4h-3.6v6.5c0 1.2.4 1.5 2.1 1.5.6 0 1.1 0 1.6-.1v2.8c-.8.1-1.9.1-2.9.1-3.1 0-5.7-.5-5.7-3.1v-7.7h-3v-2.4h3v-3.9h5l-.1 3.9m9.8 8.8c0 1.5 1.9 2.2 3.8 2.2 1.4 0 3.2-.4 3.2-1.7 0-1.1-2.1-1.5-5.6-2-2.9-.5-5.8-1.2-5.8-3.5 0-3.3 4-4.2 7.9-4.2 4 0 7.6 1 8 4.2h-4.7c-.1-1.4-1.6-1.8-3.4-1.8-1.1 0-2.8.1-2.8 1.2 0 1.3 2.9 1.5 5.6 2 2.9.5 5.8 1.3 5.8 3.6 0 3.5-4.1 4.5-8.3 4.5-4.2 0-8.4-1.1-8.5-4.6l4.8.1m22.8-9.2c5.7 0 9.4 2.7 9.4 6.9s-3.7 6.9-9.4 6.9-9.3-2.7-9.3-6.9c0-4.1 3.7-6.9 9.3-6.9m0 11.1c3.4 0 4.4-2.1 4.4-4.2s-1-4.2-4.4-4.2-4.4 2.1-4.4 4.2c.1 2.1 1.1 4.2 4.4 4.2zm-154.3-15.7h2.4v18.1h-2.4zm7 0h10.6c4.2 0 8 1.1 8 4.4 0 1.9-1.7 3.6-4.3 4.1 3.2.3 5.3 2.1 5.3 4.4 0 1.7-.8 5.1-8.9 5.1h-10.6l-.1-18m2.4 7.9h8.2c3.8 0 5.6-1.4 5.6-3 0-2.2-1.9-3.4-5.6-3.4h-8.2v6.4zm0 8.7h8.2c3.6 0 6.6-.8 6.6-3.7 0-2.3-2.4-3.5-6.6-3.5h-8.2v7.2zm20.3-16.6h3.5l8.6 15.8 8.6-15.8h3.5v18.1h-2.3v-15.7h-.1l-8.6 15.7h-2.2l-8.6-15.7h-.1v15.7h-2.3v-18.1"/></svg>