<svg xmlns="http://www.w3.org/2000/svg" width="233.7" height="59.2" viewBox="-291 355.8 233.7 59.2"><path d="M-283.3 395.1h3.1v2.2h-8.6v-2.2h3.1v-19.7h-3.1v-2.2h8.6v2.2h-3.1v19.7zm15.1-21.9c1.7 0 3.3.1 4.7 1.2 1.6 1.2 2.4 2.8 2.4 4.8 0 2.3-1.3 4.3-3.3 5.3 2.8 1 4.5 3.4 4.5 6.4 0 1.8-.7 3.6-2.1 4.9-1.6 1.5-3.4 1.6-5.5 1.6h-10.7v-2.2h3.1v-19.8h-3.1v-2.2h10zm-.7 10.4c1.5 0 2.7 0 3.9-1 1-.8 1.4-1.9 1.4-3.2 0-1.3-.5-2.5-1.6-3.3s-2.3-.7-3.6-.7h-3.8v8.2h3.7zm.4 11.5c1.6 0 3.1 0 4.4-.8 1.2-.8 1.7-2.4 1.7-3.8 0-1.5-.7-3-1.9-3.9-1.4-.9-2.9-.9-4.5-.9h-3.9v9.4h4.2zm16 0h3.2v2.2h-8.7v-2.2h3.1v-19.7h-3.1v-2.2h6.8l8.7 20.5 9.6-20.5h6.7v2.2h-3.1V395h3.1v2.2h-8.6V395h3.1v-18.7l-9.9 21h-1.9l-9-20.9v18.7zm63.1 2.2h-4.4l-4.5-15.9-4.5 15.9h-4.3l-5.8-20.3h-2.4v-3.8h9.8v3.8h-2.6l3.4 12.7 4.4-16.5h3.9l4.6 16.4 3.2-12.5h-2.7v-3.8h9.8v3.8h-2.7l-5.2 20.2zm20.7-3.4h2.7l-1.4-3.6h-8.5l-1.4 3.6h2.6v3.4h-9.8v-3.8h2.6l7-16.4h-2.7v-3.8h8.1l8.4 20.3h2.6v3.8h-10.2v-3.5zm-2.9-15.4l-3.1 8.3h6.1l-3-8.3zm23.1 15h2.6v3.8h-9.9v-3.8h2.6v-16.2h-3.5v3.5h-3.6v-7.6h19v7.6h-3.6v-3.5h-3.5l-.1 16.2zm13.4-3.3c0 2 1.4 3.7 3.6 3.7 2 0 3.5-1.2 3.5-3.3 0-2.4-2.3-3-4.1-3.5s-3.2-.9-4.7-2.1c-1.7-1.3-2.6-3.1-2.6-5.3 0-4 3.4-7 7.3-7 1.7 0 3.3.5 4.3 1.9v-1.4h3.5v6.5h-4.1c0-1.8-1.4-3.1-3.1-3.1-1.8 0-3.3 1.1-3.3 3 0 2.4 2.1 2.9 3.9 3.4 1.9.5 3.6 1 5.2 2.2s2.4 3 2.4 5.1c0 4.4-3.2 7.6-7.6 7.6-1.9 0-3.5-.6-4.6-2.1v1.6h-3.8v-7.2h4.2zm13.2-4.9c0-7.1 5.7-12.7 12.7-12.7 6.9 0 12.6 5.6 12.6 12.5 0 7.1-5.6 12.8-12.7 12.8-7-.1-12.6-5.7-12.6-12.6zm20.5-.2c0-4.3-3.5-7.9-7.9-7.9s-8 3.5-8 7.9c0 4.5 3.4 8.1 7.9 8.1 4.6 0 8-3.6 8-8.1zm28 12.2h-4.3L-89 381.4v12h2.6v3.8h-9.8v-3.8h2.6v-16.3h-2.6v-3.8h6.8l11.5 16.1v-12.3h-2.6v-3.8h9.8v3.8h-2.6l-.1 20.2zm4.2-23.9h3.5v.3h-1.6v4.2h-.4v-4.2h-1.5v-.3m4.1 0h.6l1.6 3.9 1.5-3.9h.7v4.5h-.5V374l-1.5 3.9h-.4l-1.5-3.9h-.1v3.9h-.4v-4.5"/></svg>