<svg xmlns="http://www.w3.org/2000/svg" width="251.9" height="51.4" viewBox="-385 359.6 251.9 51.4"><g fill="#D74108"><path d="M-170.7 378.4h6v3.2h.2c1.6-2.6 4.3-3.9 7-3.9 6.7 0 8.4 3.8 8.4 9.4v14.1h-6.3v-13c0-3.8-1.1-5.7-4-5.7-3.4 0-4.9 1.9-4.9 6.6v12.1h-6.3l-.1-22.8M-147.9 378.4h4v.4h-1.7v4.7h-.5v-4.7h-1.8v-.4M-143.2 378.4h.7l1.7 4.4 1.7-4.4h.7v5.1h-.4v-4.4l-1.8 4.4h-.4l-1.7-4.4h-.1v4.4h-.4v-5.1"/></g><path fill="#D74108" d="M-265.5 401.3h-6.9l-5.4-21.5h-.1l-5.2 21.5h-7.1l-8.4-31.6h7l5 21.6h.1l5.5-21.6h6.5l5.4 21.8h.1l5.2-21.8h6.8l-8.5 31.6M-258.4 385.4c.3-5.8 5.7-7.7 10.7-7.7 4.6 0 10.1 1 10.1 6.6v12c0 2 .2 4.2.8 5.1h-6.4c-.2-.7-.4-1.5-.4-2.2-2 2-4.9 2.9-7.7 2.9-4.4 0-7.8-2.2-7.8-6.9.1-10.4 15.5-4.8 15.2-10 0-2.6-1.9-3.1-4.1-3.1-2.5 0-3.9 1-4.2 3.4l-6.2-.1m14.5 4.7c-1.1.9-3.3 1-5.2 1.3-2 .3-3.7 1.1-3.7 3.4s1.8 3 3.9 3c4.9 0 5.1-3.9 5.1-5.2v-2.5h-.1zM-226.1 378.4h4.6v4.2h-4.6V394c0 2.1.5 2.6 2.6 2.6.7 0 1.4-.1 2-.2v4.9c-1.1.2-2.5.2-3.7.2-3.9 0-7.2-.8-7.2-5.5v-13.5h-3.9v-4.2h3.9v-6.9h6.3v7M-213.8 393.9c0 2.7 2.4 3.9 4.8 3.9 1.8 0 4.1-.7 4.1-3 0-1.9-2.6-2.6-7.1-3.5-3.7-.8-7.3-2-7.3-6.1 0-5.8 5.1-7.4 10-7.4 5 0 9.6 1.7 10.1 7.3h-6c-.2-2.5-2-3.1-4.3-3.1-1.4 0-3.5.2-3.5 2.1 0 2.3 3.6 2.5 7.1 3.4 3.7.8 7.3 2.2 7.3 6.4 0 6.1-5.2 8-10.5 8s-10.6-2-10.7-8.1h6M-184.8 377.8c7.2 0 11.9 4.8 11.9 12.1s-4.7 12.1-11.9 12.1-11.8-4.8-11.8-12.1 4.6-12.1 11.8-12.1m0 19.4c4.3 0 5.6-3.6 5.6-7.3 0-3.7-1.3-7.4-5.6-7.4s-5.6 3.7-5.6 7.4c.1 3.7 1.3 7.3 5.6 7.3z"/><path fill="#006D5D" d="M-380 369.7h3v31.6h-3zM-371.3 369.7h13.4c5.3 0 10.2 1.9 10.2 7.8 0 3.4-2.2 6.4-5.5 7.1v.1c4.1.5 6.7 3.6 6.7 7.7 0 3-1.1 9-11.3 9h-13.4l-.1-31.7m3.1 13.9h10.4c4.8 0 7.1-2.4 7.1-5.3 0-3.9-2.4-6-7.1-6h-10.4v11.3zm0 15.2h10.4c4.5 0 8.4-1.4 8.4-6.6 0-4.1-3-6.1-8.4-6.1h-10.4v12.7zM-342.6 369.7h4.4l11 27.7 10.9-27.7h4.4v31.6h-3V374h-.1l-10.8 27.3h-2.8l-10.9-27.3h-.1v27.3h-3v-31.6"/></svg>