<svg xmlns="http://www.w3.org/2000/svg" width="184.5" height="97.9" viewBox="-419 336.1 184.5 97.9"><path d="M-837.1 743.8h2.4v25.1h-2.4v-25.1zm7 0h10.6c4.2 0 8 1.5 8 6.1 0 2.6-1.8 5.1-4.4 5.6v.1c3.2.4 5.3 2.8 5.3 6.1 0 2.4-.8 7.1-9 7.1h-10.5v-25zm2.4 10.9h8.2c3.8 0 5.7-1.9 5.7-4.2 0-3.1-1.9-4.7-5.7-4.7h-8.2v8.9zm0 12.1h8.2c3.5 0 6.6-1.1 6.6-5.2 0-3.2-2.4-4.8-6.6-4.8h-8.2v10zm20.3-23h3.5l8.7 22 8.6-22h3.5v25.1h-2.4v-21.7h-.1l-8.6 21.7h-2.2l-8.6-21.7v21.7h-2.4v-25.1zm61 25h-5.5l-4.2-17.1h-.1l-4.2 17.1h-5.6l-6.6-25.1h5.5l4 17.1h.1l4.4-17.1h5.2l4.3 17.3h.1l4-17.2h5.4l-6.8 25zm5.7-12.5c.3-4.6 4.5-6.1 8.5-6.1 3.6 0 8 .8 8 5.2v9.4c0 1.6.2 3.3.6 4h-5.1c-.2-.6-.3-1.2-.4-1.8-1.6 1.6-3.9 2.2-6.1 2.2-3.5 0-6.2-1.7-6.2-5.4.1-8.3 12.3-3.8 12.1-7.9 0-2.1-1.5-2.5-3.2-2.5-1.9 0-3.1.8-3.3 2.7h-4.9v.2zm11.5 3.6c-.8.7-2.6.8-4.1 1.1-1.5.3-2.9.8-2.9 2.7s1.4 2.3 3.1 2.3c3.9 0 4-3.1 4-4.2v-1.9h-.1zm14-9.2h3.7v3.3h-3.7v9c0 1.7.4 2.1 2.1 2.1.6 0 1.1 0 1.5-.1v3.9c-.8.1-1.9.2-2.9.2-3.1 0-5.7-.7-5.7-4.3V754h-3v-3.3h3v-5.5h5v5.5zm9.8 12.2c0 2.1 1.9 3.1 3.8 3.1 1.4 0 3.3-.6 3.3-2.3 0-1.5-2.1-2.1-5.7-2.8-2.9-.7-5.8-1.6-5.8-4.8 0-4.6 4-5.8 7.9-5.8s7.6 1.3 8 5.8h-4.7c-.1-1.9-1.6-2.5-3.4-2.5-1.1 0-2.8.2-2.8 1.7 0 1.8 2.8 2 5.7 2.7 2.9.7 5.8 1.7 5.8 5.1 0 4.8-4.2 6.3-8.3 6.3-4.2 0-8.4-1.6-8.5-6.4h4.7v-.1zm22.9-12.7c5.7 0 9.4 3.8 9.4 9.6s-3.7 9.5-9.4 9.5-9.4-3.8-9.4-9.5c0-5.8 3.7-9.6 9.4-9.6zm0 15.4c3.4 0 4.4-2.9 4.4-5.8s-1-5.8-4.4-5.8-4.4 2.9-4.4 5.8 1 5.8 4.4 5.8zm11.2-14.9h4.7v2.5h.1c1.3-2.1 3.4-3 5.5-3 5.3 0 6.6 3 6.6 7.5v11.2h-5v-10.3c0-3-.8-4.5-3.2-4.5-2.7 0-3.9 1.5-3.9 5.2v9.5h-5v-18.1h.2zm-121.9-30.5l.2-.2c4.5-4.6 7.3-10.9 7.3-17.9 0-1.4-.1-2.7-.3-4-.7-4.6-2.7-8.8-5.5-12.2l-.1-.1-.2-.2c-4.7-5.6-11.8-9.1-19.6-9.1-7.1 0-13.5 2.9-18.1 7.5l-.1.1c-.3 0-.3 0-.4.1-4.5 4.6-7.3 11-7.3 17.9 0 1.4.1 2.7.3 4 .7 4.6 2.7 8.8 5.5 12.2l.1.1c0 .1.1.1.2.2 4.7 5.6 11.8 9.2 19.7 9.2 7 0 13.4-2.8 18.1-7.4 0-.1.1-.1.2-.2zm-1.7-1.4c-3.2 3.1-9.2 3.4-15.6.9 2.4-1 4.7-2.4 7-4 .5.4 1.2.6 1.9.6 1.9 0 3.4-1.5 3.4-3.4 0-.5-.1-1-.4-1.5 1.9-1.9 3.6-4 4.9-6.1 1.9 5.4 1.7 10.3-1.1 13.2.1.1 0 .2-.1.3zm-33.5-33.2l.2-.2c3.2-3.1 9.1-3.1 15.2-.5-2.8 1.4-5.6 3.1-8.3 5.4-.2.1-.3.3-.5.5-.3-.2-.7-.3-1.1-.3-1 0-1.8.8-1.8 1.8 0 .3.1.7.3.9-2.1 2.1-3.9 4.4-5.4 6.7-1.9-5.8-1.5-11.2 1.4-14.3zm28.5 24.4c-.5-.3-1-.4-1.6-.4-1.9 0-3.4 1.5-3.4 3.4 0 .4.1.8.2 1.2-1.7 1.2-3.5 2.2-5.2 3.1 1.2-2.8 2.4-6.1 3.4-9.6 3-.6 7-1.5 10.7-2.7-1.1 1.6-2.5 3.3-4.1 5zm-18.5 6.3c1.3 1 2.6 1.9 3.9 2.7-1.4.4-2.7.7-4 .9-.1-1.1 0-2.3.1-3.6zm-4.3-6.2c-.3 0-.6.1-.9.2-.2-.3-.5-.6-.7-.9 1.5 0 3-.1 4.5-.2-.2 1.5-.5 3-.6 4.3-.3-.2-.5-.5-.8-.7.2-.3.3-.6.3-.9 0-1-.8-1.8-1.8-1.8zm-1.2-16.4c.3.2.7.3 1 .3 1 0 1.8-.8 1.8-1.8 0-.4-.1-.7-.3-1 .1-.1.3-.2.4-.4 2.3-1.9 4.8-3.4 7.3-4.6-.9 2-1.7 4.2-2.5 6.7-2.1.1-3.7 1.8-3.7 3.9 0 .3 0 .6.1.8-2.8.6-6.1 1.4-9 2.4 1.4-2 3-4.2 4.9-6.3zm19.6-6.1c-1.5-1.2-3.1-2.2-4.7-3 1.6-.4 3.1-.7 4.6-.8.1 1.1.1 2.4.1 3.8zm12.3 9c-.3 1.2-.8 2.5-1.4 3.8-.6-1.2-1.3-2.4-2.1-3.6.1-.2.2-.4.3-.7 1.2.2 2.3.3 3.2.5zm-17.3 9.3c-.5-1-1.4-1.6-2.6-1.6-1.4 0-2.6 1.1-2.8 2.5-.9.1-1.7.2-2.5.3.4-2.1.8-4.2 1.3-6.2 2.1 0 3.8-1.7 3.9-3.8.8-.1 1.5-.2 2.3-.3.2.5.7.8 1.3.8.7 0 1.3-.5 1.4-1.2.7-.1 1.4-.1 2-.2-.1.9-.2 1.7-.4 2.6-.9.1-1.7.8-1.7 1.8 0 .7.4 1.3 1 1.6l-.3 1.5c-.1.6-.3 1.1-.5 1.7-.8.2-1.6.4-2.4.5zm3.9-2.4c.1-.4.2-.7.3-1.1 1-.1 1.7-.8 1.7-1.8 0-.7-.4-1.3-1-1.6.2-1 .4-1.9.5-2.8 1-.1 1.9-.1 2.8-.1.4 1.3 1.6 2.3 3 2.3.3 0 .6-.1.9-.1.9 1.4 1.7 2.7 2.4 4.1-2.8 1-6.5 2.1-11 3 .1-.7.2-1.3.4-1.9zm4.2-8.3c-.9.1-1.7.1-2.5.2.2-1.4.4-2.7.5-4 .4.4.9.8 1.3 1.2l1.2 1.2c-.4.4-.5.8-.5 1.4zm-3.7.2c-.8.1-1.5.1-2.2.2-.2-.6-.7-.9-1.3-.9-.7 0-1.3.6-1.4 1.3-1 .1-1.8.2-2.2.3-.2-1.1-.8-2.1-1.8-2.7.9-2.8 1.9-5.4 2.9-7.7 2.2 1.1 4.4 2.6 6.5 4.4-.1 1.7-.3 3.4-.5 5.1zm-24.2 6.2c2.5-1.1 5.8-2.1 9.6-3.1.3.7.8 1.2 1.4 1.6 0 .1 0 .2-.1.2-.6 2.5-1 4.7-1.4 6.8-2.4.2-4.5.3-6.3.3-1.3-1.8-2.4-3.8-3.2-5.8zm2.2 5.9c-1.8 0-3.3-.2-4.4-.4.3-1.5.8-3 1.5-4.5.7 1.7 1.7 3.3 2.9 4.9zm9.3 1.6c1.2-.1 2.3-.2 3.3-.3.5.7 1.4 1.2 2.3 1.2 1.3 0 2.3-.8 2.7-1.9.5-.1 1-.2 1.7-.3-1.1 3.6-2.6 7.2-4.1 10.2-.5.2-1 .4-1.6.6-1.8-.9-3.5-2-5.2-3.2l.9-6.3zm27.7-11.9c1.1.4 1.7.8 1.7 1.2 0 .6-1 1.4-2.9 2.3.5-1.2.9-2.4 1.2-3.5zm.3-1.6c.1-.6.2-1.2.2-1.7.2.6.5 1.3.6 2-.2-.2-.5-.2-.8-.3zm-2.1-.4c-1-.1-2.1-.2-3.3-.2-.1-1.6-1.5-2.9-3.1-2.9-.4 0-.7.1-1 .2-.4-.4-.8-.9-1.2-1.3-.9-.9-1.8-1.7-2.7-2.4.1-1.8.1-3.5-.1-5 4.2-.2 7.7 1 9.7 3.3.4.4.7.9 1 1.3 1 1.8 1.2 4.2.7 7zm-9.4-13.3c-.7 0-1.5 0-2.3.1-.1-.9-.3-1.6-.5-2.3 1.7.6 3.3 1.3 4.8 2.3-.6 0-1.3-.1-2-.1zm-4.8-2.6c.7.2 1.1 1.2 1.3 2.9-1.7.3-3.4.7-5.2 1.4 1.5-2.7 2.9-4.5 3.9-4.3zm-27 27.5c-1-.3-1.7-.6-1.9-1-.5-.6.8-1.8 3.6-3.2-.7 1.4-1.3 2.9-1.7 4.2zm-.4 2c-.1.6-.2 1.2-.2 1.8-.3-.7-.5-1.4-.7-2.1.2.1.6.2.9.3zm1.7.3c1.8.3 4 .4 6.3.4.4.5.8.9 1.2 1.4-.2.3-.3.7-.3 1 0 1 .8 1.8 1.8 1.8.4 0 .7-.1 1-.3.4.4.8.8 1.2 1.1-.2 2.1-.3 4-.2 5.6-3.3.2-6-.3-7.8-1.7-.5-.5-.9-1-1.3-1.5-1.7-1.9-2.3-4.6-1.9-7.8zm11.1 13.2c.1.7.3 1.3.5 1.8-1.4-.5-2.7-1.2-3.9-1.9 1.1.1 2.3.2 3.4.1zm3.4 2.6c-.7-.4-1.1-1.4-1.3-2.8 1.7-.2 3.5-.7 5.3-1.3-1.6 2.8-3.1 4.6-4 4.1zm26.8-12.6c.1-2.7-.5-5.8-1.8-8.9 1.6-.7 3-1.4 4.1-2.2v.9c.1 3.7-.8 7.1-2.3 10.2zm-21.2-33.8c.9 0 1.8.1 2.6.2-1 1-2.1 2.5-3.1 4.4-3.5-1.5-7-2.2-10-2.1 3.2-1.6 6.7-2.5 10.5-2.5zm-21.2 13.2c-.1 2.8.6 6 2 9.2-1.8.7-3.3 1.4-4.4 2.2v-1c0-3.7.8-7.3 2.4-10.4zm21.2 34c-1.1 0-2.2-.1-3.3-.2 1-1.1 2.2-2.7 3.3-4.9 3.4 1.6 6.8 2.5 9.8 2.6h.8c-3.2 1.6-6.8 2.5-10.6 2.5zm539.4-326.1h6.7v3.6h.2c1.7-2.9 4.8-4.3 7.8-4.3 7.5 0 9.3 4.2 9.3 10.5v15.7h-7v-14.4c0-4.2-1.2-6.3-4.5-6.3-3.8 0-5.5 2.1-5.5 7.3v13.4h-7v-25.5m25.4 0h4.4v.5h-1.9v5.2h-.5v-5.2h-2v-.5m5.2 0h.8l1.9 5 1.9-5h.8v5.7h-.5v-4.8l-1.9 4.8h-.5l-1.9-4.8h-.1v4.8h-.5v-5.7m-136.4 25.6h-7.7l-6-24h-.1l-5.8 24h-7.9l-9.3-35.3h7.7l5.6 24.1h.1l6.1-24.1h7.3l6 24.4h.1l5.8-24.4h7.6l-9.5 35.3m8-17.7c.4-6.5 6.3-8.6 12-8.6 5.1 0 11.2 1.1 11.2 7.3v13.3c0 2.3.3 4.7.9 5.7h-7.1c-.3-.8-.5-1.6-.5-2.5-2.2 2.3-5.5 3.2-8.6 3.2-4.9 0-8.7-2.5-8.7-7.7.1-11.6 17.3-5.4 17-11.2 0-2.9-2.1-3.5-4.6-3.5-2.7 0-4.4 1.1-4.7 3.8l-6.9.2m16.2 5.2c-1.2 1-3.7 1.1-5.9 1.5-2.2.4-4.1 1.2-4.1 3.7 0 2.6 2 3.3 4.3 3.3 5.5 0 5.7-4.3 5.7-5.9v-2.6zm19.8-13.1h5.1v4.7h-5.1V417c0 2.4.5 2.9 2.9 2.9.8 0 1.6-.1 2.2-.2v5.5c-1.2.2-2.7.3-4.1.3-4.4 0-8-.9-8-6.1v-15.1h-4.3v-4.7h4.3V392h7v7.6m13.7 17.3c0 3 2.7 4.3 5.4 4.3 2 0 4.6-.8 4.6-3.3 0-2.1-2.9-2.9-8-3.9-4.1-.9-8.1-2.3-8.1-6.9 0-6.5 5.7-8.2 11.2-8.2 5.6 0 10.7 1.9 11.2 8.1h-6.7c-.2-2.7-2.3-3.5-4.8-3.5-1.6 0-3.9.3-3.9 2.4 0 2.6 4 2.8 8 3.8 4.1.9 8.1 2.5 8.1 7.1 0 6.8-5.9 8.9-11.7 8.9-5.9 0-11.8-2.2-12-9.1h6.7m32.3-17.6c8 0 13.3 5.3 13.3 13.5 0 8.1-5.2 13.4-13.3 13.4-8 0-13.2-5.3-13.2-13.4 0-8.2 5.2-13.5 13.2-13.5m0 21.7c4.8 0 6.2-4 6.2-8.1s-1.5-8.2-6.2-8.2c-4.8 0-6.2 4.1-6.2 8.2.1 4 1.4 8.1 6.2 8.1zm-126.8-77.8h3.4v35.3h-3.4zm9.8 0h14.9c5.9 0 11.3 2.1 11.3 8.7 0 3.7-2.5 7.1-6.1 8v.1c4.6.5 7.5 4 7.5 8.6 0 3.4-1.2 10.1-12.6 10.1h-14.9l-.1-35.5m3.3 15.5h11.6c5.3 0 8-2.7 8-5.9 0-4.4-2.7-6.7-8-6.7h-11.6v12.6zm0 17h11.6c5 0 9.3-1.6 9.3-7.3 0-4.6-3.4-6.9-9.3-6.9h-11.6v14.2zm28.7-32.5h4.9l12.2 30.9 12.1-30.9h5v35.3h-3.3v-30.5h-.1l-12.1 30.5h-3.2l-12.2-30.5v30.5h-3.3v-35.3"/></svg>