<svg xmlns="http://www.w3.org/2000/svg" width="297" height="60" viewBox="0 0 297 60"><path d="M12.1 2.5H5.4V.3h16v2.2h-6.7v17.8H12V2.5zM23.8.3h2.4v7.6h.1c.8-1.8 2.9-2.5 4.6-2.5 3.8 0 5 2.2 5 5.3v9.5h-2.4v-9.8c0-1.8-1.1-2.9-2.9-2.9-2.9 0-4.3 1.9-4.3 4.5v8.2h-2.4V.3zM51.1 15.7c-.6 3.2-2.9 4.9-6.2 4.9-4.6 0-6.8-3.2-6.9-7.6 0-4.4 2.9-7.5 6.8-7.5 5.1 0 6.7 4.8 6.6 8.3h-11c-.1 2.5 1.3 4.8 4.5 4.8 2 0 3.3-.9 3.8-2.8h2.4zm-2.3-4.1c-.1-2.3-1.8-4.1-4.2-4.1-2.5 0-4 1.8-4.1 4.1h8.3zM73.5 25.8h-2.4v-7.5H71c-.8 1.6-2.6 2.3-4.6 2.3-4.5 0-6.7-3.5-6.7-7.6s2.2-7.5 6.6-7.5c1.5 0 3.7.5 4.7 2.2h.1V5.8h2.4v20zm-6.8-7.3c3.2 0 4.4-2.8 4.4-5.5 0-2.8-1.3-5.5-4.6-5.5-3.2 0-4.3 2.8-4.3 5.6.1 2.8 1.5 5.4 4.5 5.4zM88.4 20.3h-2.2V18h-.1c-1 1.8-2.6 2.6-4.7 2.6-3.8 0-5-2.2-5-5.3V5.8h2.4v9.8c0 1.8 1.1 2.9 2.9 2.9 2.9 0 4.3-1.9 4.3-4.5V5.8h2.4v14.5zM93.8 3.2h-2.4V.3h2.4v2.9zm-2.4 2.6h2.4v14.5h-2.4V5.8zM106.9 10.4c-.4-1.8-1.6-2.9-3.6-2.9-3.4 0-4.5 2.7-4.5 5.7 0 2.7 1.2 5.3 4.2 5.3 2.3 0 3.7-1.3 4-3.5h2.4c-.5 3.6-2.7 5.6-6.4 5.6-4.4 0-6.8-3.1-6.8-7.4 0-4.3 2.2-7.8 6.8-7.8 3.3 0 5.9 1.5 6.2 5h-2.3zM111.9.3h2.4v11.8l6.6-6.3h3.2l-5.7 5.3 6.2 9.2h-3l-5-7.6-2.2 2.1v5.5H112V.3zM132.5.3h2.4v7.5h.1c.8-1.6 2.6-2.3 4.6-2.3 4.5 0 6.7 3.5 6.7 7.6s-2.2 7.5-6.6 7.5c-1.5 0-3.6-.6-4.7-2.3h-.1v1.9h-2.4V.3zm6.7 7.3c-3.2 0-4.4 2.8-4.4 5.5 0 2.8 1.3 5.5 4.6 5.5 3.2 0 4.3-2.8 4.3-5.6s-1.4-5.4-4.5-5.4zM148.6 5.8h2.2v3.1h.1c1.1-2.4 2.7-3.5 5.3-3.4V8c-3.8 0-5.2 2.2-5.2 5.9v6.4h-2.4V5.8zM163.6 5.5c4.6 0 7 3.3 7 7.6 0 4.2-2.4 7.6-7 7.6s-7-3.3-7-7.6 2.5-7.6 7-7.6zm0 13c2.5 0 4.5-2 4.5-5.5s-2-5.5-4.5-5.5-4.5 2-4.5 5.5 2.1 5.5 4.5 5.5zM186.7 20.3h-2.5l-2.9-11.5h-.1l-2.9 11.5h-2.6L171 5.8h2.6l3.3 11.8h.1l2.9-11.8h2.6l3 11.8h.1l3.2-11.8h2.5l-4.6 14.5zM193 5.8h2.2v2.3h.1c1-1.8 2.6-2.6 4.7-2.6 3.8 0 5 2.2 5 5.3v9.5h-2.4v-9.8c0-1.8-1.1-2.9-2.9-2.9-2.9 0-4.3 1.9-4.3 4.5v8.2H193V5.8zM215.6 7.9h-2.4V5.8h2.4V3.6c0-2.4 1.4-3.6 4-3.6.4 0 1.1.1 1.5.2v2.1c-.4-.1-.9-.2-1.3-.2-1.1 0-1.8.4-1.8 1.6v2h2.8v2.1H218v12.4h-2.4V7.9zM228.2 5.5c4.6 0 7 3.3 7 7.6 0 4.2-2.4 7.6-7 7.6s-7-3.3-7-7.6 2.4-7.6 7-7.6zm0 13c2.5 0 4.5-2 4.5-5.5s-2-5.5-4.5-5.5-4.5 2-4.5 5.5 2 5.5 4.5 5.5zM240.7 12.7l-5-6.9h3.1l3.5 5.1 3.6-5.1h2.9l-5 6.7 5.6 7.8h-3.1l-4-6-4 6h-2.9l5.3-7.6zM8.6 55.7c0 2.6-1.3 3.7-3.5 3.7-.4 0-.8 0-1.2-.1v-2c.2 0 .3.1.5.1h.5c1 0 1.3-.5 1.3-2v-16h2.4v16.3zm0-18.9H6.2v-2.9h2.4v2.9zM23.8 53.9h-2.2v-2.3h-.1c-1 1.8-2.6 2.6-4.7 2.6-3.8 0-5-2.2-5-5.3v-9.5h2.4v9.8c0 1.8 1.1 2.9 2.9 2.9 2.9 0 4.3-1.9 4.3-4.5v-8.2h2.4v14.5zM26.8 39.4H29v2.1h.1c1.1-1.7 2.6-2.5 4.7-2.5 1.8 0 3.4.7 4 2.5 1-1.6 2.7-2.5 4.5-2.5 2.9 0 4.8 1.2 4.8 4.2v10.6h-2.4v-9.5c0-1.8-.5-3.2-2.8-3.2s-3.8 1.5-3.8 3.7v9h-2.4v-9.5c0-1.9-.6-3.2-2.7-3.2-2.8 0-3.9 2.6-3.9 3.7v9h-2.4V39.4zM50.1 39.4h2.4v2h.1c.8-1.6 2.6-2.3 4.6-2.3 4.5 0 6.7 3.5 6.7 7.6s-2.2 7.5-6.6 7.5c-1.5 0-3.6-.6-4.7-2.3h-.1v7.5h-2.4v-20zm6.8 1.8c-3.2 0-4.4 2.8-4.4 5.5 0 2.8 1.3 5.5 4.6 5.5 3.2 0 4.3-2.8 4.3-5.6-.1-2.8-1.5-5.4-4.5-5.4zM78.8 49.3c-.6 3.2-2.9 4.9-6.2 4.9-4.6 0-6.8-3.2-6.9-7.6 0-4.4 2.9-7.5 6.8-7.5 5.1 0 6.7 4.8 6.6 8.3H68.2c-.1 2.5 1.3 4.8 4.5 4.8 2 0 3.3-.9 3.8-2.8h2.3zm-2.3-4.1c-.1-2.3-1.8-4.1-4.2-4.1-2.5 0-4 1.8-4.1 4.1h8.3zM94.7 53.9h-2.4v-2h-.1c-.8 1.6-2.6 2.3-4.6 2.3-4.5 0-6.7-3.5-6.7-7.6s2.2-7.5 6.6-7.5c1.5 0 3.6.6 4.7 2.3h.1V34h2.4v19.9zm-6.8-1.8c3.2 0 4.4-2.8 4.4-5.5 0-2.8-1.3-5.5-4.6-5.5-3.2 0-4.3 2.8-4.3 5.6.1 2.8 1.5 5.4 4.5 5.4zM110.7 39.1c4.6 0 7 3.3 7 7.6 0 4.2-2.4 7.6-7 7.6s-7-3.3-7-7.6 2.4-7.6 7-7.6zm0 13c2.5 0 4.5-2 4.5-5.5s-2-5.5-4.5-5.5-4.5 2-4.5 5.5 2 5.5 4.5 5.5zM126 53.9h-2.5l-5.4-14.5h2.7l4.1 12.1h.1l3.9-12.1h2.5L126 53.9zM144.7 49.3c-.6 3.2-2.9 4.9-6.2 4.9-4.6 0-6.8-3.2-6.9-7.6 0-4.4 2.9-7.5 6.8-7.5 5.1 0 6.7 4.8 6.6 8.3h-10.8c-.1 2.5 1.3 4.8 4.5 4.8 2 0 3.3-.9 3.8-2.8h2.2zm-2.3-4.1c-.1-2.3-1.8-4.1-4.2-4.1-2.5 0-4 1.8-4.1 4.1h8.3zM147.3 39.4h2.2v3.1h.1c1.1-2.4 2.7-3.5 5.3-3.4v2.5c-3.8 0-5.2 2.2-5.2 5.9v6.4h-2.4V39.4zM166.4 39.4h2.9v2.1h-2.9v9c0 1.1.3 1.3 1.8 1.3h1.1v2.1h-1.8c-2.5 0-3.4-.5-3.4-3.2v-9.2h-2.5v-2.1h2.5v-4.3h2.4v4.3zM171.6 33.9h2.4v7.6h.1c.8-1.8 2.9-2.5 4.6-2.5 3.8 0 5 2.2 5 5.3v9.5h-2.4V44c0-1.8-1.1-2.9-2.9-2.9-2.9 0-4.3 1.9-4.3 4.5v8.2h-2.4V33.9zM198.9 49.3c-.6 3.2-2.9 4.9-6.2 4.9-4.6 0-6.8-3.2-6.9-7.6 0-4.4 2.9-7.5 6.8-7.5 5.1 0 6.7 4.8 6.6 8.3h-10.8c-.1 2.5 1.3 4.8 4.5 4.8 2 0 3.3-.9 3.8-2.8h2.2zm-2.3-4.1c-.1-2.3-1.8-4.1-4.2-4.1-2.5 0-4 1.8-4.1 4.1h8.3zM209.1 41.5h-2.4v-2.1h2.4v-2.2c0-2.4 1.4-3.6 4-3.6.4 0 1.1.1 1.5.2V36c-.4-.1-.9-.2-1.3-.2-1.1 0-1.8.4-1.8 1.6v2h2.8v2.1h-2.8v12.4h-2.4V41.5zM227.7 49.3c-.6 3.2-2.9 4.9-6.2 4.9-4.6 0-6.8-3.2-6.9-7.6 0-4.4 2.9-7.5 6.8-7.5 5.1 0 6.7 4.8 6.6 8.3h-10.8c-.1 2.5 1.3 4.8 4.5 4.8 2 0 3.3-.9 3.8-2.8h2.2zm-2.3-4.1c-.1-2.3-1.8-4.1-4.2-4.1-2.5 0-4 1.8-4.1 4.1h8.3zM230.3 39.4h2.2v2.3h.1c1-1.8 2.6-2.6 4.7-2.6 3.8 0 5 2.2 5 5.3v9.5h-2.4v-9.8c0-1.8-1.1-2.9-2.9-2.9-2.9 0-4.3 1.9-4.3 4.5v8.2h-2.4V39.4zM255.2 44c-.4-1.8-1.6-2.9-3.6-2.9-3.4 0-4.5 2.7-4.5 5.7 0 2.7 1.2 5.3 4.2 5.3 2.3 0 3.7-1.3 4-3.5h2.4c-.5 3.6-2.7 5.6-6.4 5.6-4.4 0-6.8-3.1-6.8-7.4 0-4.3 2.2-7.8 6.8-7.8 3.3 0 5.9 1.5 6.2 5h-2.3zM272.4 49.3c-.6 3.2-2.9 4.9-6.2 4.9-4.6 0-6.8-3.2-6.9-7.6 0-4.4 2.9-7.5 6.8-7.5 5.1 0 6.7 4.8 6.6 8.3h-10.8c-.1 2.5 1.3 4.8 4.5 4.8 2 0 3.3-.9 3.8-2.8h2.2zm-2.3-4.1c-.1-2.3-1.8-4.1-4.2-4.1-2.5 0-4 1.8-4.1 4.1h8.3zM274.4 50.8h3.1v3.1h-3.1v-3.1z"/></svg>