<svg xmlns="http://www.w3.org/2000/svg" width="297" height="60" viewBox="0 0 297 60"><path d="M11.1 4h-6V.3h16.4V4h-6v16.3h-4.4V4zM23.6.3h4v7.5h.1c1-1.7 2.7-2.4 4.2-2.4 4.2 0 5.3 2.4 5.3 6v8.9h-4v-8.2c0-2.4-.7-3.6-2.5-3.6-2.2 0-3.1 1.2-3.1 4.1v7.6h-4V.3zM43 14c.1 2.5 1.3 3.7 3.6 3.7 1.6 0 2.9-1 3.1-1.9h3.5c-1.1 3.4-3.5 4.9-6.8 4.9-4.6 0-7.4-3.1-7.4-7.6 0-4.3 3-7.6 7.4-7.6 4.9 0 7.3 4.1 7 8.6H43zm6.4-2.5c-.4-2-1.2-3.1-3.2-3.1-2.6 0-3.2 2-3.3 3.1h6.5zM76.3 25.4h-4v-6.9h-.1c-.9 1.6-2.8 2.2-4.6 2.2-2.7 0-6.1-1.9-6.1-7.5 0-4 2.1-7.7 6.5-7.7 1.8 0 3.5.6 4.4 2.2h.1V5.8h3.8v19.6zM69 17.7c2.6 0 3.5-2.2 3.5-4.6 0-2.2-.9-4.7-3.4-4.7-2.6 0-3.5 2.3-3.5 4.6-.1 2.4.7 4.7 3.4 4.7zM92.4 20.3h-3.8v-2h-.1c-1 1.7-2.7 2.4-4.4 2.4-4.2 0-5.3-2.4-5.3-6V5.8h4V14c0 2.4.7 3.6 2.5 3.6 2.2 0 3.1-1.2 3.1-4.1V5.8h4v14.5zM99.1 3.6h-4V.3h4v3.3zm-4 2.2h4v14.5h-4V5.8zM111.6 10.9c-.3-1.7-1.2-2.5-2.9-2.5-2.5 0-3.4 2.6-3.4 4.7s.8 4.6 3.3 4.6c1.9 0 2.9-1.1 3.2-2.9h3.8c-.5 3.8-3.1 5.9-7 5.9-4.4 0-7.3-3.1-7.3-7.4 0-4.5 2.7-7.8 7.4-7.8 3.4 0 6.6 1.8 6.8 5.5h-3.9zM117.5.3h4V11l5-5.2h4.7l-5.5 5.3 6.1 9.2H127l-4-6.5-1.5 1.5v5h-4V.3zM139.6.3h4v7.3h.1c1-1.5 2.8-2.2 4.6-2.2 2.9 0 6 2.3 6 7.6s-3.1 7.6-6 7.6c-2.1 0-3.9-.6-4.8-2.2h-.1v1.8h-3.8V.3zm7.2 8.1c-2.4 0-3.4 2.2-3.4 4.6 0 2.4 1 4.6 3.4 4.6s3.4-2.2 3.4-4.6c0-2.4-1-4.6-3.4-4.6zM156.3 5.8h3.8v2.7h.1c.8-1.8 2.6-3.1 4.6-3.1.3 0 .6.1.9.1v3.7c-.4-.1-1-.1-1.4-.1-2.9 0-3.9 2.1-3.9 4.6v6.5h-4V5.8zM173.4 5.4c4.6 0 7.5 3 7.5 7.6s-2.9 7.6-7.5 7.6c-4.5 0-7.5-3-7.5-7.6s3-7.6 7.5-7.6zm0 12.3c2.7 0 3.5-2.3 3.5-4.6s-.8-4.6-3.5-4.6-3.5 2.3-3.5 4.6.8 4.6 3.5 4.6zM199.2 20.3h-4.1l-2.6-9.7h-.1l-2.5 9.7h-4.1l-4.6-14.5h4.2l2.7 9.8h.1l2.4-9.8h3.9l2.5 9.8h.1l2.7-9.8h4.1l-4.7 14.5zM205.1 5.8h3.8v2h.1c1-1.7 2.7-2.4 4.4-2.4 4.2 0 5.3 2.4 5.3 6v8.9h-4v-8.2c0-2.4-.7-3.6-2.5-3.6-2.2 0-3.1 1.2-3.1 4.1v7.6h-4V5.8zM228.8 8.5h-2.4V5.8h2.4V4.7c0-2.6 1.6-4.4 4.8-4.4.7 0 1.4.1 2.1.1v3c-.5-.1-1-.1-1.5-.1-1.1 0-1.5.4-1.5 1.7v.9h2.7v2.7h-2.7v11.8h-4V8.5zM243.1 5.4c4.6 0 7.5 3 7.5 7.6s-2.9 7.6-7.5 7.6c-4.5 0-7.5-3-7.5-7.6.1-4.6 3-7.6 7.5-7.6zm0 12.3c2.7 0 3.5-2.3 3.5-4.6s-.8-4.6-3.5-4.6-3.5 2.3-3.5 4.6.9 4.6 3.5 4.6zM255.5 12.7l-4.8-6.9h4.5l2.5 3.8 2.5-3.8h4.4l-4.8 6.8 5.3 7.7h-4.5l-3-4.6-3 4.6h-4.5l5.4-7.6zM4 55.6c.2.1.5.1.9.1.8 0 1.5-.2 1.5-1.3v-15h4v15.2c0 3-1.1 4.4-5.1 4.4-.4 0-.9 0-1.3-.1v-3.3zm6.4-18.4h-4v-3.3h4v3.3zM26.6 53.9h-3.8v-2h-.1c-1 1.7-2.7 2.4-4.4 2.4-4.2 0-5.3-2.4-5.3-6v-8.9h4v8.2c0 2.4.7 3.6 2.5 3.6 2.2 0 3.1-1.2 3.1-4.1v-7.6h4v14.4zM29.3 39.4h3.8v2h.1c1-1.5 2.5-2.4 4.4-2.4 1.8 0 3.4.6 4.2 2.4.9-1.3 2.4-2.4 4.4-2.4 3.1 0 5.3 1.4 5.3 5.2v9.7h-4v-8.2c0-1.9-.2-3.5-2.4-3.5-2.2 0-2.7 1.9-2.7 3.7V54h-4v-8.1c0-1.7.1-3.6-2.4-3.6-.8 0-2.7.5-2.7 3.3V54h-4V39.4zM54.1 39.4h3.8v1.8h.1c1-1.6 2.5-2.2 4.3-2.2 4.5 0 6.6 3.7 6.6 7.8 0 3.9-2.1 7.5-6.4 7.5-1.8 0-3.4-.8-4.3-2.2h-.1V59h-4V39.4zm10.8 7.3c0-2.3-.9-4.7-3.5-4.7S58 44.3 58 46.7s.9 4.6 3.5 4.6 3.4-2.3 3.4-4.6zM74.2 47.6c.1 2.5 1.3 3.7 3.6 3.7 1.6 0 2.9-1 3.1-1.9h3.5c-1.1 3.4-3.5 4.9-6.8 4.9-4.6 0-7.4-3.1-7.4-7.6 0-4.3 3-7.6 7.4-7.6 4.9 0 7.3 4.1 7 8.6H74.2zm6.4-2.5c-.4-2-1.2-3.1-3.2-3.1-2.6 0-3.2 2-3.3 3.1h6.5zM97 52c-1 1.6-2.6 2.2-4.5 2.2-4.4 0-6.5-3.7-6.5-7.8 0-3.9 2.2-7.5 6.4-7.5 1.7 0 3.4.7 4.3 2.2h.1v-7.3h4v20H97V52zm-3.5-10c-2.6 0-3.5 2.3-3.5 4.6s1 4.6 3.5 4.6c2.6 0 3.4-2.3 3.4-4.7.1-2.3-.8-4.5-3.4-4.5zM116.9 39c4.6 0 7.5 3 7.5 7.6s-2.9 7.6-7.5 7.6c-4.5 0-7.5-3-7.5-7.6.1-4.6 3-7.6 7.5-7.6zm0 12.3c2.7 0 3.5-2.3 3.5-4.6s-.8-4.6-3.5-4.6-3.5 2.3-3.5 4.6.9 4.6 3.5 4.6zM133.9 53.9h-4.4l-5-14.5h4.2l3.1 9.9h.1l3.1-9.9h3.9l-5 14.5zM142.7 47.6c.1 2.5 1.3 3.7 3.6 3.7 1.6 0 2.9-1 3.1-1.9h3.5c-1.1 3.4-3.5 4.9-6.8 4.9-4.6 0-7.4-3.1-7.4-7.6 0-4.3 3-7.6 7.4-7.6 4.9 0 7.3 4.1 7 8.6h-10.4zm6.4-2.5c-.4-2-1.2-3.1-3.2-3.1-2.6 0-3.2 2-3.3 3.1h6.5zM155.2 39.4h3.8v2.7h.1c.8-1.8 2.6-3.1 4.6-3.1.3 0 .6.1.9.1v3.7c-.4-.1-1-.1-1.4-.1-2.9 0-3.9 2.1-3.9 4.6v6.5h-4V39.4zM177.3 39.4h2.9v2.7h-2.9v7.2c0 1.3.3 1.7 1.7 1.7.4 0 .9 0 1.2-.1V54c-.7.1-1.5.1-2.3.1-2.5 0-4.6-.5-4.6-3.4v-8.5H171v-2.7h2.4v-4.3h4v4.2zM182.4 33.9h4v7.5h.1c1-1.7 2.7-2.4 4.2-2.4 4.2 0 5.3 2.4 5.3 6v8.9h-4v-8.2c0-2.4-.7-3.6-2.5-3.6-2.2 0-3.1 1.2-3.1 4.1v7.6h-4V33.9zM201.8 47.6c.1 2.5 1.3 3.7 3.6 3.7 1.6 0 2.9-1 3.1-1.9h3.5c-1.1 3.4-3.5 4.9-6.8 4.9-4.6 0-7.4-3.1-7.4-7.6 0-4.3 3-7.6 7.4-7.6 4.9 0 7.3 4.1 7 8.6h-10.4zm6.5-2.5c-.4-2-1.2-3.1-3.2-3.1-2.6 0-3.2 2-3.3 3.1h6.5zM221.8 42.1h-2.4v-2.7h2.4v-1.1c0-2.6 1.6-4.4 4.8-4.4.7 0 1.4.1 2.1.1v3c-.5-.1-1-.1-1.5-.1-1.1 0-1.5.4-1.5 1.7v.9h2.7v2.7h-2.7V54h-4V42.1zM232.6 47.6c.1 2.5 1.3 3.7 3.6 3.7 1.6 0 2.9-1 3.1-1.9h3.5c-1.1 3.4-3.5 4.9-6.8 4.9-4.6 0-7.4-3.1-7.4-7.6 0-4.3 3-7.6 7.4-7.6 4.9 0 7.3 4.1 7 8.6h-10.4zm6.5-2.5c-.4-2-1.2-3.1-3.2-3.1-2.6 0-3.2 2-3.3 3.1h6.5zM245.1 39.4h3.8v2h.1c1-1.7 2.7-2.4 4.4-2.4 4.2 0 5.3 2.4 5.3 6v8.9h-4v-8.2c0-2.4-.7-3.6-2.5-3.6-2.2 0-3.1 1.2-3.1 4.1v7.6h-4V39.4zM271 44.5c-.3-1.7-1.2-2.5-2.9-2.5-2.5 0-3.4 2.6-3.4 4.7s.8 4.6 3.3 4.6c1.9 0 2.9-1.1 3.2-2.9h3.8c-.5 3.8-3.1 5.9-7 5.9-4.4 0-7.3-3.1-7.3-7.4 0-4.5 2.7-7.8 7.4-7.8 3.4 0 6.6 1.8 6.8 5.5H271zM280.4 47.6c.1 2.5 1.3 3.7 3.6 3.7 1.6 0 2.9-1 3.1-1.9h3.5c-1.1 3.4-3.5 4.9-6.8 4.9-4.6 0-7.4-3.1-7.4-7.6 0-4.3 3-7.6 7.4-7.6 4.9 0 7.3 4.1 7 8.6h-10.4zm6.4-2.5c-.4-2-1.2-3.1-3.2-3.1-2.6 0-3.2 2-3.3 3.1h6.5zM292.2 49.6h4.4v4.3h-4.4v-4.3z"/></svg>