<svg xmlns="http://www.w3.org/2000/svg" width="297" height="60" viewBox="0 0 297 60"><path d="M23 2.5h-6.7l-3.8 17.8H9.8l3.8-17.8H6.9L7.4.3h16.1L23 2.5zM26.1.3h2.4l-1.7 7.6V8C28 6.3 29.9 5.5 32 5.5c2.7 0 4 1.1 4 3.7 0 .6-.2 1.7-.4 2.8l-1.8 8.3h-2.4l1.8-8.5c.1-.6.3-1.7.3-2.2 0-1.4-1.1-2-2.5-2-1.3 0-2.7.7-3.6 1.7-.9.8-1.3 1.9-1.6 3l-1.7 8h-2.4l4.4-20zM40.1 13.7c-.1.5-.1.9-.1 1.3 0 2.2 1.8 3.5 3.8 3.5 2.1 0 3.5-1 4.2-2.8h2.4c-.8 3.2-3.4 4.9-6.6 4.9-4.8 0-6.1-3.3-6.1-5.8 0-5.5 3.5-9.3 7.4-9.3 4.3 0 6.1 2.4 6.1 6.4 0 .8-.1 1.5-.2 1.9H40.1zm8.7-2.1c.1-2-.8-4.1-3.4-4.1-2.8 0-4.3 1.8-5 4.1h8.4zM70.7 25.8h-2.4l1.6-7.4h-.1c-1.1 1.4-2.8 2.2-4.6 2.2-3.8 0-5.5-2.7-5.5-6.3 0-4.5 2.8-8.9 7.6-8.9 2.1 0 3.9.6 4.7 2.6l.5-2.3h2.4l-4.2 20.1zm-4.9-7.3c3.8 0 5.5-4.3 5.5-7.4 0-2.2-1.4-3.6-3.7-3.6-3.5 0-5.5 3.8-5.5 6.8 0 2.3 1.1 4.2 3.7 4.2zM86.9 20.3h-2.3l.4-2.2c-1.2 1.7-3.1 2.5-5.2 2.5-2.7 0-4-1.1-4-3.7 0-.6.2-1.7.4-2.8L78 5.8h2.4l-1.8 8.5c-.1.5-.3 1.7-.3 2.2 0 1.4 1.1 2 2.5 2 2.7 0 4.6-2.3 5.2-4.7l1.7-8H90l-3.1 14.5zM93.3 5.8h2.4l-3 14.5h-2.4l3-14.5zm2.9-2.6h-2.4l.6-2.9h2.4l-.6 2.9zM107.7 10.4c0-1.8-1.2-2.8-3.1-2.8-3.7 0-5.6 3.6-5.6 6.8 0 2.2.9 4.1 3.6 4.1 2 0 3.6-1.2 4.2-3h2.4c-.9 3.2-3.2 5.1-6.6 5.1-3.9 0-6-2.3-6-6.2 0-4.6 2.8-8.9 8-8.9 3.3 0 5.3 1.5 5.4 4.9h-2.3zM114.7.3h2.4L114.6 12l.1.1 7.3-6.3h3.1l-6.3 5.3 3.6 9.1h-2.7l-2.8-7.7L114 15l-1.1 5.2h-2.4L114.7.3zM134.5.3h2.4l-1.5 7.3.1.1c1.1-1.4 2.6-2.2 4.4-2.2 3.9 0 5.7 2.5 5.7 6.2 0 4.5-2.7 8.9-7.6 8.9-2.7 0-4.6-1.6-4.9-3h-.1l-.5 2.7h-2.1l4.1-20zm5.3 7.3c-4.2 0-5.9 4.3-5.9 7.3 0 2.3 1.6 3.6 3.9 3.6 3.4 0 5.3-4 5.3-6.8 0-2.3-1.1-4.1-3.3-4.1zM149.5 5.8h2.2l-.7 3.1h.1c1.1-2 2.8-3.4 5.3-3.4.3 0 .5-.1.8 0l-.6 2.5h-.7c-.6 0-.9 0-1.4.1-1.3.3-2.3 1.2-3.1 2.4-.6.9-1 2.3-1.2 3.4l-1.4 6.4h-2.4l3.1-14.5zM164.3 5.5c3.9 0 6 2.1 6 6 0 4.7-2.9 9.2-8 9.2-3.8 0-6.1-2.5-6.1-6 .1-4.9 3.1-9.2 8.1-9.2zm-1.7 13c3.5 0 5.4-4 5.4-6.9 0-2.3-1.2-4.1-3.8-4.1-3.7 0-5.5 4-5.5 7-.1 2.4 1.3 4 3.9 4zM184.7 20.3h-2.5L181.5 9h-.1l-5.2 11.3h-2.5L172 5.8h2.5l.9 11.5h.1l5.2-11.5h2.7l.7 11.5h.1l5.5-11.5h2.6l-7.6 14.5zM194.1 5.8h2.3l-.5 2.2h.1c1.2-1.7 3.1-2.5 5.2-2.5 2.7 0 4 1.1 4 3.7 0 .6-.2 1.7-.4 2.8l-1.8 8.3h-2.4l1.8-8.5c.1-.6.3-1.7.3-2.2 0-1.4-1.1-2-2.5-2-1.3 0-2.7.7-3.6 1.7-.9.8-1.3 1.9-1.6 3l-1.7 8H191l3.1-14.5zM216.3 7.9h-2.5l.4-2.1h2.5c.8-2.9.9-5.7 4.7-5.7.7 0 1.3 0 2 .2l-.4 2c-.4-.1-.8-.1-1.1-.1-2.3 0-2.3 1.9-2.8 3.6h2.8l-.4 2.1h-2.8L216 20.3h-2.4l2.7-12.4zM228.8 5.5c3.9 0 6 2.1 6 6 0 4.7-2.9 9.2-8 9.2-3.8 0-6.1-2.5-6.1-6 0-4.9 3.1-9.2 8.1-9.2zm-1.7 13c3.5 0 5.4-4 5.4-6.9 0-2.3-1.2-4.1-3.8-4.1-3.7 0-5.5 4-5.5 7-.1 2.4 1.3 4 3.9 4zM240.1 12.6l-3.2-6.8h2.7l2.2 5.3 4.3-5.3h2.9l-6.2 7 3.7 7.5h-2.7l-2.6-5.9-4.9 5.9h-2.9l6.7-7.7zM1.5 57.1c.3.1.6.2.9.2 1 0 1.3-.7 1.7-2.7l3.2-15.2h2.4L6 56.6c-.4 1.8-1.5 2.8-3.4 2.8-.5 0-1 0-1.6-.2l.5-2.1zm8.7-20.3H7.8l.6-2.9h2.4l-.6 2.9zM21.7 53.9h-2.3l.4-2.2h-.1c-1.2 1.7-3.1 2.5-5.2 2.5-2.7 0-4-1.1-4-3.7 0-.6.2-1.7.4-2.8l1.8-8.3h2.4l-1.8 8.5c-.1.5-.3 1.7-.3 2.2 0 1.4 1.1 2 2.5 2 2.7 0 4.6-2.3 5.2-4.7l1.7-8h2.4l-3.1 14.5zM28.1 39.4h2.2l-.5 2.2.1.1c1.2-1.5 3-2.5 5-2.5 1.8 0 3.2.7 3.6 2.6 1.1-1.6 3-2.6 5-2.6s4 .9 4 3.2c0 .9-.2 2.1-.4 2.9L45.3 54h-2.4l2-9.2c.1-.4.2-1.1.2-1.6 0-1.1-1-2-2.2-2-1.3 0-2.8 1-3.6 2-.8.9-1.1 2-1.3 3.2l-1.6 7.5H34l1.7-8.3c.3-1.1.4-2.2.4-2.5 0-1.2-.7-1.9-2-1.9s-2.7.9-3.6 1.8c-1 1-1.2 1.8-1.5 3.3l-1.6 7.6H25l3.1-14.5zM51.8 39.4H54l-.5 2.1h.1c1.4-1.9 2.9-2.4 4.8-2.4 3.7 0 5.7 2.4 5.7 5.9 0 4.4-3 9.2-8 9.2-1.7 0-4-.6-4.5-2.5h-.1L50 59.4h-2.4l4.2-20zm6.2 1.8c-3.6 0-5.7 4.2-5.7 7.2 0 2.2 1.3 3.8 3.6 3.8 3.8 0 5.7-3.9 5.7-7.1.1-2.5-1-3.9-3.6-3.9zM68.2 47.3c-.1.4-.1.8-.1 1.3 0 2.2 1.8 3.5 3.8 3.5 2.1 0 3.5-1 4.2-2.8h2.4c-.8 3.2-3.4 4.9-6.6 4.9-4.8 0-6.1-3.3-6.1-5.8 0-5.5 3.5-9.3 7.4-9.3 4.3 0 6.1 2.4 6.1 6.4 0 .8-.1 1.5-.2 1.9H68.2zm8.8-2.1c.1-2-.8-4.1-3.4-4.1-2.8 0-4.3 1.8-5 4.1H77zM93.3 53.9H91l.5-2.1h-.1c-1.4 1.9-2.9 2.4-4.8 2.4-3.7 0-5.7-2.4-5.7-5.9 0-4.4 3-9.2 8-9.2 1.8 0 3.9.6 4.5 2.5h.1l1.5-7.7h2.4l-4.1 20zm-6.2-1.8c3.6 0 5.7-4.2 5.7-7.2 0-2.2-1.3-3.8-3.6-3.8-3.8 0-5.7 3.9-5.7 7.1-.1 2.4 1 3.9 3.6 3.9zM112.2 39.1c3.9 0 6 2.1 6 6 0 4.7-2.9 9.2-8 9.2-3.8 0-6.1-2.5-6.1-6 0-4.9 3-9.2 8.1-9.2zm-1.8 13c3.5 0 5.4-4 5.4-6.9 0-2.3-1.2-4.1-3.8-4.1-3.7 0-5.5 4-5.5 7-.1 2.4 1.3 4 3.9 4zM124.4 53.9h-2.5l-2.1-14.5h2.5l1.2 12h.1l6.3-12h2.6l-8.1 14.5zM133.9 47.3c-.1.4-.1.8-.1 1.3 0 2.2 1.8 3.5 3.8 3.5 2.1 0 3.5-1 4.2-2.8h2.4c-.8 3.2-3.4 4.9-6.6 4.9-4.8 0-6.1-3.3-6.1-5.8 0-5.5 3.5-9.3 7.4-9.3 4.3 0 6.1 2.4 6.1 6.4 0 .8-.1 1.5-.2 1.9h-10.9zm8.7-2.1c.1-2-.8-4.1-3.4-4.1-2.8 0-4.3 1.8-5 4.1h8.4zM149.1 39.4h2.2l-.7 3.1h.1c1.1-2 2.8-3.4 5.3-3.4.3 0 .5-.1.8 0l-.6 2.5h-.7c-.6 0-.9 0-1.4.1-1.3.3-2.3 1.2-3.1 2.4-.6.9-1 2.3-1.2 3.4l-1.4 6.4H146l3.1-14.5zM168 39.4h2.9l-.4 2.1h-2.9l-1.8 8.5c0 .3-.1.6-.1 1 0 .8.7 1 1.4 1 .5 0 .9-.1 1.4-.3l-.4 2.2c-.6.1-1.1.2-1.7.2-1.8 0-3.2-.5-3.2-2.4 0-.4.1-.8.1-1.2l1.9-9h-2.4l.4-2.1h2.4l.9-4.3h2.4l-.9 4.3zM174.8 33.9h2.4l-1.7 7.6.1.1c1.2-1.7 3.1-2.5 5.2-2.5 2.7 0 4 1.1 4 3.7 0 .6-.2 1.7-.4 2.8l-1.8 8.3h-2.4l1.8-8.5c.1-.6.3-1.7.3-2.2 0-1.4-1.1-2-2.5-2-1.3 0-2.7.7-3.6 1.7-.9.8-1.3 1.9-1.6 3l-1.7 8h-2.4l4.3-20zM188.8 47.3c-.1.4-.1.8-.1 1.3 0 2.2 1.8 3.5 3.8 3.5 2.1 0 3.5-1 4.2-2.8h2.4c-.8 3.2-3.4 4.9-6.6 4.9-4.8 0-6.1-3.3-6.1-5.8 0-5.5 3.5-9.3 7.4-9.3 4.3 0 6.1 2.4 6.1 6.4 0 .8-.1 1.5-.2 1.9h-10.9zm8.8-2.1c.1-2-.8-4.1-3.4-4.1-2.8 0-4.3 1.8-5 4.1h8.4zM210.9 41.5h-2.5l.4-2.1h2.5c.8-2.9.9-5.7 4.7-5.7.7 0 1.3 0 2 .2l-.4 2c-.4-.1-.8-.1-1.1-.1-2.3 0-2.3 1.9-2.8 3.6h2.8l-.4 2.1h-2.8l-2.7 12.4h-2.4l2.7-12.4zM217.8 47.3c-.1.4-.1.8-.1 1.3 0 2.2 1.8 3.5 3.8 3.5 2.1 0 3.5-1 4.2-2.8h2.4c-.8 3.2-3.4 4.9-6.6 4.9-4.8 0-6.1-3.3-6.1-5.8 0-5.5 3.5-9.3 7.4-9.3 4.3 0 6.1 2.4 6.1 6.4 0 .8-.1 1.5-.2 1.9h-10.9zm8.8-2.1c.1-2-.8-4.1-3.4-4.1-2.8 0-4.3 1.8-5 4.1h8.4zM233.1 39.4h2.3l-.4 2.2h.1c1.2-1.7 3.1-2.5 5.2-2.5 2.7 0 4 1.1 4 3.7 0 .6-.2 1.7-.4 2.8l-1.8 8.3h-2.4l1.8-8.5c.1-.6.3-1.7.3-2.2 0-1.4-1.1-2-2.5-2-1.3 0-2.7.7-3.6 1.7-.9.8-1.3 1.9-1.6 3l-1.7 8H230l3.1-14.5zM256.8 44c0-1.8-1.2-2.8-3.1-2.8-3.7 0-5.6 3.6-5.6 6.8 0 2.2.9 4.1 3.6 4.1 2 0 3.6-1.2 4.2-3h2.4c-.9 3.2-3.2 5.1-6.6 5.1-3.9 0-6-2.3-6-6.2 0-4.6 2.8-8.9 8-8.9 3.3 0 5.3 1.5 5.4 4.9h-2.3zM262.6 47.3c-.1.4-.1.8-.1 1.3 0 2.2 1.8 3.5 3.8 3.5 2.1 0 3.5-1 4.2-2.8h2.4c-.8 3.2-3.4 4.9-6.6 4.9-4.8 0-6.1-3.3-6.1-5.8 0-5.5 3.5-9.3 7.4-9.3 4.3 0 6.1 2.4 6.1 6.4 0 .8-.1 1.5-.2 1.9h-10.9zm8.8-2.1c.1-2-.8-4.1-3.4-4.1-2.8 0-4.3 1.8-5 4.1h8.4zM274.7 50.8h3.1l-.7 3.1H274l.7-3.1z"/></svg>