<svg xmlns="http://www.w3.org/2000/svg" width="299.6" height="100.1" viewBox="0 0 299.6 100.1"><path fill="#323232" d="M0 0h299.6v100.1H0z"/><path fill="#FF7832" d="M92.7 38.4H95v24.3h-2.3V38.4zM99.4 38.4h10.3c4.1 0 7.8 1.4 7.8 5.9 0 2.6-1.7 4.9-4.2 5.4v.1c3.1.4 5.1 2.8 5.1 5.9 0 2.3-.8 6.9-8.7 6.9H99.4V38.4zm2.3 10.7h8c3.7 0 5.5-1.8 5.5-4.1 0-3-1.8-4.6-5.5-4.6h-8v8.7zm0 11.6h8c3.4 0 6.4-1.1 6.4-5 0-3.1-2.3-4.7-6.4-4.7h-8v9.7zM121.4 38.4h3.4l8.4 21.3 8.4-21.3h3.4v24.3h-2.3v-21h-.1l-8.3 21h-2.2l-8.3-21h-.1v21h-2.3V38.4z"/><path fill="#FFFFFF" d="M180.5 62.7h-5.3l-4.1-16.5h-.1l-4 16.5h-5.4l-6.4-24.3h5.3l3.8 16.5h.1l4.2-16.5h5l4.1 16.7h.1l4-16.7h5.2l-6.5 24.3zM186 50.5c.3-4.5 4.3-5.9 8.3-5.9 3.5 0 7.7.8 7.7 5v9.1c0 1.6.2 3.2.6 3.9h-4.9c-.2-.5-.3-1.1-.3-1.7-1.5 1.6-3.7 2.2-5.9 2.2-3.4 0-6-1.7-6-5.3.1-8 11.9-3.7 11.7-7.6 0-2-1.4-2.4-3.1-2.4-1.9 0-3 .7-3.2 2.7H186zm11.1 3.6c-.8.7-2.5.7-4 1-1.5.3-2.9.8-2.9 2.6s1.4 2.2 3 2.2c3.8 0 3.9-3 3.9-4v-1.8zM210.7 45.1h3.5v3.2h-3.5V57c0 1.6.4 2 2 2 .5 0 1.1 0 1.5-.1v3.8c-.8.1-1.9.2-2.8.2-3 0-5.5-.6-5.5-4.2V48.4H203v-3.2h2.9v-5.3h4.8v5.2zM220.2 57c0 2.1 1.8 3 3.7 3 1.4 0 3.2-.5 3.2-2.2 0-1.5-2-2-5.5-2.7-2.8-.6-5.6-1.6-5.6-4.7 0-4.5 3.9-5.6 7.6-5.6 3.8 0 7.4 1.3 7.8 5.6h-4.6c-.1-1.9-1.6-2.4-3.3-2.4-1.1 0-2.7.2-2.7 1.6 0 1.7 2.8 2 5.5 2.6 2.8.6 5.6 1.7 5.6 4.9 0 4.6-4 6.1-8 6.1-4.1 0-8.1-1.5-8.3-6.2h4.6zM242.4 44.7c5.5 0 9.1 3.7 9.1 9.3 0 5.6-3.6 9.2-9.1 9.2s-9.1-3.7-9.1-9.2c0-5.7 3.6-9.3 9.1-9.3zm0 14.8c3.3 0 4.3-2.8 4.3-5.6s-1-5.6-4.3-5.6-4.2 2.8-4.2 5.6c-.1 2.9.9 5.6 4.2 5.6zM253.2 45.1h4.6v2.4h.1c1.2-2 3.3-2.9 5.4-2.9 5.1 0 6.4 2.9 6.4 7.2v10.8h-4.8v-9.9c0-2.9-.8-4.3-3.1-4.3-2.6 0-3.7 1.5-3.7 5v9.2h-4.8V45.1z"/><path fill="#FF7832" d="M69.9 68.3l.2-.2c4.4-4.5 7-10.6 7-17.3 0-1.3-.1-2.6-.3-3.9-.7-4.4-2.6-8.5-5.3-11.8l-.1-.1-.2-.2c-4.6-5.4-11.4-8.8-19-8.8-6.9 0-13.1 2.8-17.6 7.3l-.1.1c-.1.1-.1.1-.1.2-4.4 4.4-7.1 10.5-7.1 17.2 0 1.3.1 2.6.3 3.9.7 4.4 2.6 8.5 5.3 11.8l.1.1c0 .1.1.1.1.2 4.6 5.4 11.4 8.9 19 8.9 6.8 0 13-2.7 17.5-7.2.2 0 .3-.1.3-.2zM68.4 67c-3.1 3-9 3.3-15.1.9 2.3-1 4.6-2.3 6.8-3.9.5.4 1.2.6 1.9.6 1.8 0 3.3-1.5 3.3-3.3 0-.5-.1-1-.3-1.4 1.9-1.9 3.5-3.9 4.8-5.9 1.8 5.2 1.6 10-1 12.8-.3 0-.4.1-.4.2zM35.9 34.9l.2-.2c3.1-3 8.8-3 14.8-.4-2.7 1.3-5.4 3-8 5.2-.2.1-.3.3-.5.4-.3-.2-.6-.3-1-.3-1 0-1.8.8-1.8 1.8 0 .3.1.6.3.9-2.1 2.1-3.8 4.3-5.2 6.5-2-5.7-1.6-11 1.2-13.9zm27.6 23.5c-.5-.3-1-.4-1.6-.4-1.8 0-3.3 1.5-3.3 3.3 0 .4.1.8.2 1.1-1.6 1.2-3.3 2.2-5.1 3 1.2-2.7 2.3-5.9 3.3-9.3 2.9-.6 6.8-1.5 10.4-2.6-1.1 1.7-2.4 3.4-3.9 4.9zm-18 6.2c1.2 1 2.5 1.8 3.8 2.6-1.3.4-2.6.7-3.8.9-.1-1.1-.1-2.3 0-3.5zm-4.1-6c-.3 0-.6.1-.9.2-.2-.3-.5-.6-.7-.8 1.5 0 2.9-.1 4.4-.2-.2 1.5-.4 2.9-.6 4.2-.2-.2-.5-.4-.7-.7.2-.3.3-.6.3-.9-.1-1-.8-1.8-1.8-1.8zm-1.1-15.9c.3.2.6.3 1 .3 1 0 1.8-.8 1.8-1.8 0-.3-.1-.7-.3-.9.1-.1.3-.2.4-.3 2.3-1.9 4.7-3.3 7.1-4.5-.8 1.9-1.7 4.1-2.4 6.5-2 .1-3.6 1.7-3.6 3.8 0 .3 0 .6.1.8-2.7.6-5.9 1.4-8.7 2.3 1.1-2.1 2.7-4.2 4.6-6.2zm18.9-5.9c-1.5-1.1-3-2.1-4.5-2.9 1.5-.4 3-.7 4.4-.8.1 1 .1 2.3.1 3.7zm11.9 8.7c-.3 1.2-.8 2.4-1.3 3.7-.6-1.2-1.3-2.3-2-3.4.1-.2.2-.4.3-.7 1.1.1 2.1.2 3 .4zm-16.8 9c-.4-.9-1.4-1.6-2.5-1.6-1.4 0-2.5 1-2.7 2.4l-2.4.3c.4-2 .8-4.1 1.3-6 2 0 3.7-1.6 3.8-3.6.8-.1 1.5-.2 2.2-.3.2.5.7.8 1.3.8.7 0 1.2-.5 1.4-1.1.7-.1 1.3-.1 2-.2-.1.8-.2 1.7-.4 2.5-.9.1-1.6.8-1.6 1.7 0 .7.4 1.3 1 1.6-.1.5-.2 1-.3 1.4-.1.5-.3 1.1-.4 1.7-1 .1-1.8.3-2.7.4zm3.8-2.3c.1-.4.2-.7.2-1.1.9 0 1.7-.8 1.7-1.7 0-.7-.4-1.3-1-1.6.2-.9.4-1.9.5-2.8.9-.1 1.8-.1 2.7-.1.3 1.3 1.5 2.2 2.9 2.2.3 0 .6-.1.9-.1.9 1.3 1.7 2.6 2.3 4-2.7 1-6.3 2-10.6 2.9.2-.6.3-1.1.4-1.7zm4.1-8.1c-.8.1-1.7.1-2.5.2.2-1.4.4-2.7.5-3.9l1.2 1.2c.4.4.8.8 1.1 1.2-.2.3-.3.8-.3 1.3zm-3.6.3c-.7.1-1.5.1-2.1.2-.2-.5-.7-.9-1.3-.9-.7 0-1.3.5-1.4 1.2-1 .1-1.7.2-2.1.3-.2-1.1-.8-2-1.7-2.6.9-2.7 1.9-5.2 2.8-7.4 2.1 1.1 4.2 2.5 6.3 4.2-.1 1.6-.2 3.3-.5 5zm-23.4 6c2.4-1 5.6-2.1 9.3-3 .3.7.8 1.2 1.4 1.6 0 .1 0 .2-.1.2-.5 2.4-1 4.6-1.3 6.6-2.3.2-4.4.3-6.1.3-1.3-1.9-2.4-3.8-3.2-5.7zm2.1 5.7c-1.7 0-3.2-.2-4.3-.3.3-1.4.8-2.9 1.4-4.4.9 1.5 1.8 3.1 2.9 4.7zm9.1 1.5c1.2-.1 2.2-.2 3.2-.3.5.7 1.3 1.2 2.3 1.2 1.2 0 2.2-.8 2.6-1.9.5-.1 1-.2 1.6-.3-1.1 3.4-2.5 7-3.9 9.9l-1.5.6c-1.7-.9-3.4-1.9-5.1-3.1.2-2 .4-4 .8-6.1zM73.2 46c1 .4 1.6.8 1.6 1.2 0 .5-1 1.3-2.8 2.3.5-1.2.9-2.3 1.2-3.5zm.3-1.5c.1-.6.2-1.1.2-1.7.2.6.4 1.3.6 1.9-.3 0-.6-.1-.8-.2zm-2.1-.3c-1-.1-2.1-.2-3.2-.2-.1-1.6-1.4-2.8-3-2.8-.4 0-.7.1-1 .2-.4-.4-.8-.9-1.2-1.3-.8-.8-1.7-1.6-2.6-2.3.1-1.8.1-3.4-.1-4.8 4-.2 7.4.9 9.4 3.2.3.4.7.8 1 1.3 1 1.6 1.2 3.9.7 6.7zm-9.1-12.9c-.7 0-1.4 0-2.2.1-.1-.8-.3-1.6-.5-2.2 1.6.6 3.2 1.3 4.6 2.2-.5-.1-1.2-.1-1.9-.1zm-4.6-2.6c.6.1 1.1 1.2 1.3 2.8-1.6.3-3.3.7-5 1.3 1.3-2.6 2.7-4.2 3.7-4.1zM31.6 55.4c-1-.3-1.6-.6-1.8-1-.5-.6.8-1.8 3.4-3.1-.7 1.4-1.3 2.8-1.6 4.1zm-.5 1.9c-.1.6-.2 1.2-.2 1.7-.3-.7-.5-1.3-.7-2l.9.3zm1.6.3c1.8.3 3.9.4 6.1.4.4.5.7.9 1.1 1.3-.2.3-.3.6-.3 1 0 1 .8 1.8 1.8 1.8.4 0 .7-.1 1-.3.4.4.8.7 1.2 1.1-.2 2.1-.2 3.9-.2 5.4-3.2.2-5.9-.3-7.5-1.6-.5-.5-.9-.9-1.3-1.5-1.6-1.9-2.2-4.6-1.9-7.6zm10.9 12.8c.1.7.3 1.2.5 1.8-1.3-.5-2.6-1.1-3.8-1.9 1 .1 2.1.2 3.3.1zm3.3 2.5c-.7-.4-1.1-1.3-1.3-2.7 1.7-.2 3.4-.7 5.1-1.3-1.6 2.8-3 4.5-3.8 4zm25.9-12.2c.1-2.7-.5-5.6-1.7-8.6 1.6-.7 2.9-1.4 3.9-2.1v.8c.1 3.6-.7 6.9-2.2 9.9zM52.2 28c.9 0 1.7.1 2.6.1-1 1-2 2.4-3 4.3-3.4-1.5-6.7-2.2-9.7-2.1 3-1.5 6.5-2.3 10.1-2.3zM31.7 40.7c0 2.7.6 5.8 2 8.9-1.7.7-3.2 1.4-4.3 2.2v-1c0-3.6.8-7 2.3-10.1zm20.5 33c-1.1 0-2.2-.1-3.2-.2 1-1 2.1-2.6 3.2-4.7 3.3 1.6 6.6 2.4 9.5 2.5h.8c-3.1 1.5-6.6 2.4-10.3 2.4z"/></svg>