<svg xmlns="http://www.w3.org/2000/svg" xmlns:xlink="http://www.w3.org/1999/xlink" version="1.1" id="art" x="0px" y="0px" width="299.6px" height="100.1px" viewBox="0 0 299.6 100.1" enable-background="new 0 0 299.6 100.1" xml:space="preserve">
<rect x="0" y="0" fill="#323232" width="299.6" height="100.1"/>
<path fill="#FF7832" d="M92.7 38.4H95v24.3h-2.3V38.4z"/>
<path fill="#FF7832" d="M99.4 38.4h10.3c4.1 0 7.8 1.4 7.8 5.9c0 2.6-1.7 4.9-4.2 5.4v0.1c3.1 0.4 5.1 2.8 5.1 5.9 c0 2.3-0.8 6.9-8.7 6.9H99.4V38.4z M101.7 49.1h8c3.7 0 5.5-1.8 5.5-4.1c0-3-1.8-4.6-5.5-4.6h-8V49.1z M101.7 60.7h8 c3.4 0 6.4-1.1 6.4-5c0-3.1-2.3-4.7-6.4-4.7h-8V60.7z"/>
<path fill="#FF7832" d="M121.4 38.4h3.4l8.4 21.3l8.4-21.3h3.4v24.3h-2.3v-21h-0.1l-8.3 21h-2.2l-8.3-21h-0.1v21h-2.3V38.4z"/>
<path fill="#FDFDFD" d="M180.5 62.7h-5.3l-4.1-16.5H171l-4 16.5h-5.4l-6.4-24.3h5.3l3.8 16.5h0.1l4.2-16.5h5l4.1 16.7h0.1l4-16.7 h5.2L180.5 62.7z"/>
<path fill="#FDFDFD" d="M186 50.5c0.3-4.5 4.3-5.9 8.3-5.9c3.5 0 7.7 0.8 7.7 5v9.1c0 1.6 0.2 3.2 0.6 3.9h-4.9 c-0.2-0.5-0.3-1.1-0.3-1.7c-1.5 1.6-3.7 2.2-5.9 2.2c-3.4 0-6-1.7-6-5.3c0.1-8 11.9-3.7 11.7-7.6c0-2-1.4-2.4-3.1-2.4 c-1.9 0-3 0.7-3.2 2.7H186z M197.1 54.1c-0.8 0.7-2.5 0.7-4 1c-1.5 0.3-2.9 0.8-2.9 2.6c0 1.8 1.4 2.2 3 2.2c3.8 0 3.9-3 3.9-4V54.1 z"/>
<path fill="#FDFDFD" d="M210.7 45.1h3.5v3.2h-3.5v8.7c0 1.6 0.4 2 2 2c0.5 0 1.1 0 1.5-0.1v3.8c-0.8 0.1-1.9 0.2-2.8 0.2 c-3 0-5.5-0.6-5.5-4.2V48.4H203v-3.2h2.9v-5.3h4.8V45.1z"/>
<path fill="#FDFDFD" d="M220.2 57c0 2.1 1.8 3 3.7 3c1.4 0 3.2-0.5 3.2-2.2c0-1.5-2-2-5.5-2.7c-2.8-0.6-5.6-1.6-5.6-4.7 c0-4.5 3.9-5.6 7.6-5.6c3.8 0 7.4 1.3 7.8 5.6h-4.6c-0.1-1.9-1.6-2.4-3.3-2.4c-1.1 0-2.7 0.2-2.7 1.6c0 1.7 2.8 2 5.5 2.6 c2.8 0.6 5.6 1.7 5.6 4.9c0 4.6-4 6.1-8 6.1c-4.1 0-8.1-1.5-8.3-6.2H220.2z"/>
<path fill="#FDFDFD" d="M242.4 44.7c5.5 0 9.1 3.7 9.1 9.3c0 5.6-3.6 9.2-9.1 9.2c-5.5 0-9.1-3.7-9.1-9.2 C233.3 48.3 236.9 44.7 242.4 44.7z M242.4 59.5c3.3 0 4.3-2.8 4.3-5.6c0-2.8-1-5.6-4.3-5.6c-3.3 0-4.2 2.8-4.2 5.6 C238.1 56.8 239.1 59.5 242.4 59.5z"/>
<path fill="#FDFDFD" d="M253.2 45.1h4.6v2.4h0.1c1.2-2 3.3-2.9 5.4-2.9c5.1 0 6.4 2.9 6.4 7.2v10.8h-4.8v-9.9c0-2.9-0.8-4.3-3.1-4.3 c-2.6 0-3.7 1.5-3.7 5v9.2h-4.8V45.1z"/>
<path fill="#FF7832" d="M69.9 68.3c0.1-0.1 0.1-0.1 0.2-0.2c4.4-4.5 7-10.6 7-17.3c0-1.3-0.1-2.6-0.3-3.9c0 0 0 0 0 0l0 0l0 0 c0 0 0 0 0 0c-0.7-4.4-2.6-8.5-5.3-11.8c0 0-0.1-0.1-0.1-0.1l0 0c-0.1-0.1-0.1-0.1-0.2-0.2c-4.6-5.4-11.4-8.8-19-8.8 c-6.9 0-13.1 2.8-17.6 7.3c0 0-0.1 0.1-0.1 0.1l0 0c-0.1 0.1-0.1 0.1-0.1 0.2C30 38 27.3 44.1 27.3 50.8c0 1.3 0.1 2.6 0.3 3.9 c0 0 0 0 0 0c0 0 0 0 0 0c0.7 4.4 2.6 8.5 5.3 11.8c0 0 0.1 0.1 0.1 0.1l0 0c0 0 0 0 0 0l0 0c0 0.1 0.1 0.1 0.1 0.2 c4.6 5.4 11.4 8.9 19 8.9c6.8 0 13-2.7 17.5-7.2C69.8 68.5 69.9 68.4 69.9 68.3L69.9 68.3L69.9 68.3L69.9 68.3z M68.4 67 c-3.1 3-9 3.3-15.1 0.9c2.3-1 4.6-2.3 6.8-3.9c0.5 0.4 1.2 0.6 1.9 0.6c1.8 0 3.3-1.5 3.3-3.3c0-0.5-0.1-1-0.3-1.4 c1.9-1.9 3.5-3.9 4.8-5.9c1.8 5.2 1.6 10-1 12.8C68.5 66.8 68.4 66.9 68.4 67z M35.9 34.9c0.1-0.1 0.2-0.2 0.2-0.2 c3.1-3 8.8-3 14.8-0.4c0 0 0 0 0 0c-2.7 1.3-5.4 3-8 5.2c-0.2 0.1-0.3 0.3-0.5 0.4c-0.3-0.2-0.6-0.3-1-0.3c-1 0-1.8 0.8-1.8 1.8 c0 0.3 0.1 0.6 0.3 0.9c-2.1 2.1-3.8 4.3-5.2 6.5C32.7 43.1 33.1 37.8 35.9 34.9z M63.5 58.4c-0.5-0.3-1-0.4-1.6-0.4 c-1.8 0-3.3 1.5-3.3 3.3c0 0.4 0.1 0.8 0.2 1.1c-1.6 1.2-3.3 2.2-5.1 3c1.2-2.7 2.3-5.9 3.3-9.3c2.9-0.6 6.8-1.5 10.4-2.6 C66.3 55.2 65 56.9 63.5 58.4z M45.5 64.6c1.2 1 2.5 1.8 3.8 2.6c-1.3 0.4-2.6 0.7-3.8 0.9C45.4 67 45.4 65.8 45.5 64.6z M41.4 58.6 c-0.3 0-0.6 0.1-0.9 0.2c-0.2-0.3-0.5-0.6-0.7-0.8c1.5 0 2.9-0.1 4.4-0.2c-0.2 1.5-0.4 2.9-0.6 4.2c-0.2-0.2-0.5-0.4-0.7-0.7 c0.2-0.3 0.3-0.6 0.3-0.9C43.1 59.4 42.4 58.6 41.4 58.6z M40.3 42.7c0.3 0.2 0.6 0.3 1 0.3c1 0 1.8-0.8 1.8-1.8 c0-0.3-0.1-0.7-0.3-0.9c0.1-0.1 0.3-0.2 0.4-0.3c2.3-1.9 4.7-3.3 7.1-4.5c-0.8 1.9-1.7 4.1-2.4 6.5c-2 0.1-3.6 1.7-3.6 3.8 c0 0.3 0 0.6 0.1 0.8c-2.7 0.6-5.9 1.4-8.7 2.3C36.8 46.8 38.4 44.7 40.3 42.7z M59.2 36.8c-1.5-1.1-3-2.1-4.5-2.9 c1.5-0.4 3-0.7 4.4-0.8C59.2 34.1 59.2 35.4 59.2 36.8z M71.1 45.5c-0.3 1.2-0.8 2.4-1.3 3.7c-0.6-1.2-1.3-2.3-2-3.4 c0.1-0.2 0.2-0.4 0.3-0.7C69.2 45.2 70.2 45.3 71.1 45.5z M54.3 54.5c-0.4-0.9-1.4-1.6-2.5-1.6c-1.4 0-2.5 1-2.7 2.4 c-0.8 0.1-1.6 0.2-2.4 0.3c0.4-2 0.8-4.1 1.3-6c2 0 3.7-1.6 3.8-3.6c0.8-0.1 1.5-0.2 2.2-0.3c0.2 0.5 0.7 0.8 1.3 0.8 c0.7 0 1.2-0.5 1.4-1.1c0.7-0.1 1.3-0.1 2-0.2c-0.1 0.8-0.2 1.7-0.4 2.5c-0.9 0.1-1.6 0.8-1.6 1.7c0 0.7 0.4 1.3 1 1.6 c-0.1 0.5-0.2 1-0.3 1.4c-0.1 0.5-0.3 1.1-0.4 1.7C56 54.2 55.2 54.4 54.3 54.5z M58.1 52.2c0.1-0.4 0.2-0.7 0.2-1.1 c0.9 0 1.7-0.8 1.7-1.7c0-0.7-0.4-1.3-1-1.6c0.2-0.9 0.4-1.9 0.5-2.8c0.9-0.1 1.8-0.1 2.7-0.1c0.3 1.3 1.5 2.2 2.9 2.2 c0.3 0 0.6-0.1 0.9-0.1c0.9 1.3 1.7 2.6 2.3 4c-2.7 1-6.3 2-10.6 2.9C57.9 53.3 58 52.8 58.1 52.2z M62.2 44.1 c-0.8 0.1-1.7 0.1-2.5 0.2c0.2-1.4 0.4-2.7 0.5-3.9c0.4 0.4 0.8 0.8 1.2 1.2c0.4 0.4 0.8 0.8 1.1 1.2C62.3 43.1 62.2 43.6 62.2 44.1 z M58.6 44.4c-0.7 0.1-1.5 0.1-2.1 0.2c-0.2-0.5-0.7-0.9-1.3-0.9c-0.7 0-1.3 0.5-1.4 1.2c-1 0.1-1.7 0.2-2.1 0.3 c-0.2-1.1-0.8-2-1.7-2.6c0.9-2.7 1.9-5.2 2.8-7.4c2.1 1.1 4.2 2.5 6.3 4.2C59 41 58.9 42.7 58.6 44.4z M35.2 50.4 c2.4-1 5.6-2.1 9.3-3c0.3 0.7 0.8 1.2 1.4 1.6c0 0.1 0 0.2-0.1 0.2c-0.5 2.4-1 4.6-1.3 6.6c-2.3 0.2-4.4 0.3-6.1 0.3 C37.1 54.2 36 52.3 35.2 50.4z M37.3 56.1c-1.7 0-3.2-0.2-4.3-0.3c0.3-1.4 0.8-2.9 1.4-4.4C35.3 52.9 36.2 54.5 37.3 56.1z M46.4 57.6c1.2-0.1 2.2-0.2 3.2-0.3c0.5 0.7 1.3 1.2 2.3 1.2c1.2 0 2.2-0.8 2.6-1.9c0.5-0.1 1-0.2 1.6-0.3c-1.1 3.4-2.5 7-3.9 9.9 c-0.5 0.2-1 0.4-1.5 0.6c-1.7-0.9-3.4-1.9-5.1-3.1C45.8 61.7 46 59.7 46.4 57.6z M73.2 46c1 0.4 1.6 0.8 1.6 1.2c0 0 0 0 0 0 c0 0.5-1 1.3-2.8 2.3C72.5 48.3 72.9 47.2 73.2 46z M73.5 44.5c0.1-0.6 0.2-1.1 0.2-1.7c0.2 0.6 0.4 1.3 0.6 1.9 C74 44.7 73.7 44.6 73.5 44.5z M71.4 44.2c-1-0.1-2.1-0.2-3.2-0.2c-0.1-1.6-1.4-2.8-3-2.8c-0.4 0-0.7 0.1-1 0.2 c-0.4-0.4-0.8-0.9-1.2-1.3c-0.8-0.8-1.7-1.6-2.6-2.3c0.1-1.8 0.1-3.4-0.1-4.8c4-0.2 7.4 0.9 9.4 3.2c0.3 0.4 0.7 0.8 1 1.3 C71.7 39.1 71.9 41.4 71.4 44.2z M62.3 31.3c-0.7 0-1.4 0-2.2 0.1c-0.1-0.8-0.3-1.6-0.5-2.2c1.6 0.6 3.2 1.3 4.6 2.2 C63.7 31.3 63 31.3 62.3 31.3z M57.7 28.7L57.7 28.7C57.7 28.7 57.7 28.7 57.7 28.7c0.6 0.1 1.1 1.2 1.3 2.8c-1.6 0.3-3.3 0.7-5 1.3 C55.3 30.2 56.7 28.6 57.7 28.7z M31.6 55.4c-1-0.3-1.6-0.6-1.8-1l0 0c0 0 0 0 0 0c-0.5-0.6 0.8-1.8 3.4-3.1 C32.5 52.7 31.9 54.1 31.6 55.4z M31.1 57.3c-0.1 0.6-0.2 1.2-0.2 1.7c-0.3-0.7-0.5-1.3-0.7-2C30.5 57.1 30.8 57.2 31.1 57.3z M32.7 57.6c1.8 0.3 3.9 0.4 6.1 0.4c0.4 0.5 0.7 0.9 1.1 1.3c-0.2 0.3-0.3 0.6-0.3 1c0 1 0.8 1.8 1.8 1.8c0.4 0 0.7-0.1 1-0.3 c0.4 0.4 0.8 0.7 1.2 1.1c-0.2 2.1-0.2 3.9-0.2 5.4c-3.2 0.2-5.9-0.3-7.5-1.6c-0.5-0.5-0.9-0.9-1.3-1.5C33 63.3 32.4 60.6 32.7 57.6 z M43.6 70.4c0.1 0.7 0.3 1.2 0.5 1.8c-1.3-0.5-2.6-1.1-3.8-1.9C41.3 70.4 42.4 70.5 43.6 70.4z M46.9 72.9L46.9 72.9 C46.9 72.9 46.9 72.9 46.9 72.9c-0.7-0.4-1.1-1.3-1.3-2.7c1.7-0.2 3.4-0.7 5.1-1.3C49.1 71.7 47.7 73.4 46.9 72.9z M72.8 60.7 c0.1-2.7-0.5-5.6-1.7-8.6c1.6-0.7 2.9-1.4 3.9-2.1c0 0.3 0 0.6 0 0.8C75.1 54.4 74.3 57.7 72.8 60.7z M52.2 28 c0.9 0 1.7 0.1 2.6 0.1c-1 1-2 2.4-3 4.3c-3.4-1.5-6.7-2.2-9.7-2.1C45.1 28.8 48.6 28 52.2 28z M31.7 40.7c0 2.7 0.6 5.8 2 8.9 c-1.7 0.7-3.2 1.4-4.3 2.2c0-0.3 0-0.7 0-1C29.4 47.2 30.2 43.8 31.7 40.7z M52.2 73.7c-1.1 0-2.2-0.1-3.2-0.2c1-1 2.1-2.6 3.2-4.7 c3.3 1.6 6.6 2.4 9.5 2.5c0.3 0 0.5 0 0.8 0C59.4 72.8 55.9 73.7 52.2 73.7z"/>
</svg>
