<svg xmlns="http://www.w3.org/2000/svg" width="232.9" height="75.1" viewBox="0 0 232.9 75.1"><path fill="#323232" d="M0-.8h232.9v75.7H0z"/><path fill="#FF7832" d="M27.2 24.8h2.3v24.3h-2.3V24.8zM33.9 24.8h10.3c4.1 0 7.8 1.4 7.8 5.9 0 2.6-1.7 4.9-4.2 5.4v.1c3.1.4 5.1 2.8 5.1 5.9 0 2.3-.8 6.9-8.7 6.9H33.9V24.8zm2.3 10.7h8c3.7 0 5.5-1.8 5.5-4.1 0-3-1.8-4.6-5.5-4.6h-8v8.7zm0 11.6h8c3.4 0 6.4-1.1 6.4-5 0-3.1-2.3-4.7-6.4-4.7h-8v9.7zM55.9 24.8h3.4l8.4 21.3L76 24.8h3.4v24.3h-2.3v-21H77l-8.3 21h-2.2l-8.3-21h-.1v21h-2.3V24.8z"/><path fill="#FFFFFF" d="M115 49.1h-5.3l-4.1-16.5h-.1l-4 16.5h-5.4l-6.4-24.3H95l3.8 16.5h.1l4.2-16.5h5l4.1 16.7h.1l4-16.7h5.2L115 49.1zM120.5 36.9c.3-4.5 4.3-5.9 8.3-5.9 3.5 0 7.7.8 7.7 5v9.1c0 1.6.2 3.2.6 3.9h-4.9c-.2-.5-.3-1.1-.3-1.7-1.5 1.6-3.7 2.2-5.9 2.2-3.4 0-6-1.7-6-5.3.1-8 11.9-3.7 11.7-7.6 0-2-1.4-2.4-3.1-2.4-1.9 0-3 .7-3.2 2.7h-4.9zm11.1 3.6c-.8.7-2.5.7-4 1-1.5.3-2.9.8-2.9 2.6s1.4 2.2 3 2.2c3.8 0 3.9-3 3.9-4v-1.8zM145.2 31.5h3.5v3.2h-3.5v8.7c0 1.6.4 2 2 2 .5 0 1.1 0 1.5-.1v3.8c-.8.1-1.9.2-2.8.2-3 0-5.5-.6-5.5-4.2V34.7h-2.9v-3.2h2.9v-5.3h4.8v5.3zM154.7 43.4c0 2.1 1.8 3 3.7 3 1.4 0 3.2-.5 3.2-2.2 0-1.5-2-2-5.5-2.7-2.8-.6-5.6-1.6-5.6-4.7 0-4.5 3.9-5.6 7.6-5.6 3.8 0 7.4 1.3 7.8 5.6h-4.6c-.1-1.9-1.6-2.4-3.3-2.4-1.1 0-2.7.2-2.7 1.6 0 1.7 2.8 2 5.5 2.6 2.8.6 5.6 1.7 5.6 4.9 0 4.6-4 6.1-8 6.1-4.1 0-8.1-1.5-8.3-6.2h4.6zM176.9 31c5.5 0 9.1 3.7 9.1 9.3 0 5.6-3.6 9.2-9.1 9.2s-9.1-3.7-9.1-9.2c0-5.6 3.6-9.3 9.1-9.3zm0 14.9c3.3 0 4.3-2.8 4.3-5.6s-1-5.6-4.3-5.6-4.2 2.8-4.2 5.6c-.1 2.8.9 5.6 4.2 5.6zM187.7 31.5h4.6V34h.1c1.2-2 3.3-2.9 5.4-2.9 5.1 0 6.4 2.9 6.4 7.2v10.8h-4.8v-9.9c0-2.9-.8-4.3-3.1-4.3-2.6 0-3.7 1.5-3.7 5v9.2h-4.8V31.5z"/></svg>