<svg xmlns="http://www.w3.org/2000/svg" width="576" height="576" viewBox="0 0 576 576"><path d="M326.5 343.4c21-85.1 18.1-153.9-1.1-162.1-.1-.1-.2-.1-.3-.1l-1.5 12.5h.3c14.6 3.5 11.6 90.3-3.4 151.2-15 60.7-52.8 138-66.1 131.2l-4.3 10.6c.4.1.7.3 1 .4 20.2 5.7 54.4-58.6 75.4-143.7"/><path d="M349.4 465.2c-38.8-.8-86.9-23.3-127.3-63.4-62.4-61.8-83.2-142.2-46.5-179.2l9.3 9.2c-31.6 31.9-17.3 109.1 40 165.8 57.2 56.7 136 71.7 167.6 39.8l9.3 9.2c-12.9 13.1-31.3 19-52.4 18.6"/><path d="M353.3 209.8c24.4 0 45 7.6 58.1 23.5l-10.1 8.3c-28.6-34.7-108.5-27.5-170.6 23.8-62.1 51.3-83.3 127.6-54.7 162.3l-10 8.3c-33.2-40.2-5.2-118.4 62.4-174.3 41-33.9 87.3-51.9 124.9-51.9"/><path d="M144.8 357.5c-7.4-9.1 50-39.7 140-53.9 89.6-14.1 147.7-2.6 148.2 8.2l12.9-1.9c-5.6-35-156.4-11.6-162.8-10.6-6.4 1-157.2 25.2-151.7 60.2v.1l13.4-2.1m74.6 49.3c-6.2 0-11.3-5.1-11.3-11.3 0-6.2 5-11.3 11.3-11.3 6.2 0 11.2 5 11.2 11.3 0 6.3-5 11.3-11.2 11.3m-.7-121.9c-6.2 0-11.2-5-11.2-11.2 0-6.2 5-11.3 11.2-11.3 6.2 0 11.3 5 11.3 11.3 0 6.1-5.1 11.2-11.3 11.2"/><path d="M307.8 306.7c-4.9 0-8.8-4-8.8-8.8 0-4.9 4-8.8 8.8-8.8 4.9 0 8.8 4 8.8 8.8.1 4.8-3.9 8.8-8.8 8.8m19.7 30c-6.2 0-11.3-5-11.3-11.2 0-6.2 5-11.3 11.3-11.3 6.2 0 11.3 5 11.3 11.3-.1 6.2-5.1 11.2-11.3 11.2"/><path d="M411.4 233.2c33.2 40.2 7.6 119.9-60 175.8-67.7 56-152.2 67.2-185.4 27l10.1-8.3c19.5 32.7 104.9 23.3 167-28 62.1-51.3 86.4-131.2 58.2-158.1l10.1-8.4zm-9.6 213.4l-9.3-9.2c31.6-31.9 12.2-105.5-45-162.2-57.2-56.7-131-75.4-162.6-43.4l-9.3-9.2c36.7-37.1 119.5-18.4 181.9 43.4 62.3 61.7 81 143.6 44.3 180.6"/><path d="M295.3 372.7c19.8-2.9 156.2-27.8 150.6-62.9l-12.9 1.9c.2 10-51.3 34.1-141.2 48.3-89.9 14.2-141 7.9-147-2.5l-13.3 2c7.9 34.8 139.7 16.7 163.8 13.2m-15.1-229.8V90.6c0-4.7 3.8-8.4 8.4-8.4 4.7 0 8.5 3.8 8.5 8.4v52.2c0 4.7-3.8 8.5-8.5 8.5-4.6 0-8.4-3.7-8.4-8.4m91.7 28.2c-3-1.4-4.8-4.5-4.8-7.6 0-1.2.3-2.5.8-3.6l22.5-47.1c1.5-3 4.5-4.8 7.7-4.8 1.2 0 2.5.3 3.6.8 3 1.4 4.8 4.5 4.8 7.6 0 1.2-.3 2.5-.8 3.7l-22.6 47.1c-1.4 3-4.5 4.8-7.6 4.8-1.2-.1-2.4-.4-3.6-.9m-170.5 0c-1.2.6-2.4.8-3.6.8-3.2 0-6.2-1.8-7.6-4.8L167.6 120c-.6-1.2-.9-2.4-.9-3.7 0-3.1 1.8-6.2 4.8-7.6 1.2-.6 2.4-.8 3.6-.8 3.1 0 6.2 1.8 7.6 4.8l22.5 47.1c.6 1.2.8 2.4.8 3.6.2 3.2-1.6 6.2-4.6 7.7m232.4 52.4c-.9-1.4-1.3-2.9-1.3-4.5 0-2.8 1.4-5.6 4-7.2l44.4-27.5c1.4-.9 2.9-1.3 4.5-1.3 2.8 0 5.6 1.4 7.2 4 .9 1.4 1.3 2.9 1.3 4.5 0 2.8-1.4 5.6-4 7.2l-44.4 27.5c-1.4.9-2.9 1.3-4.5 1.3-2.8 0-5.6-1.4-7.2-4m-291.6 0c-1.6 2.6-4.4 4-7.2 4-1.5 0-3.1-.4-4.5-1.3l-44.4-27.5c-2.6-1.6-4-4.4-4-7.2 0-1.5.4-3 1.3-4.5 1.6-2.6 4.4-4 7.2-4 1.5 0 3.1.4 4.5 1.3l44.4 27.5c2.6 1.6 4 4.4 4 7.2 0 1.6-.4 3.1-1.3 4.5"/><path d="M286.2 383.4c-9.8 0-17.7-7.9-17.7-17.7 0-9.8 7.9-17.7 17.7-17.7 9.7 0 17.7 7.9 17.7 17.7 0 9.8-7.9 17.7-17.7 17.7m85.3-72c-10.6 0-19.3-8.7-19.3-19.3 0-10.6 8.6-19.3 19.3-19.3 10.6 0 19.3 8.7 19.3 19.3 0 10.7-8.6 19.3-19.3 19.3m-20.9 111.1c-11.5 0-20.9-9.4-20.9-20.9 0-11.5 9.4-20.9 20.9-20.9 11.5 0 20.9 9.4 20.9 20.9 0 11.6-9.4 20.9-20.9 20.9m-89-95.8c-13.3 0-24.1-10.8-24.1-24.1s10.8-24.1 24.1-24.1 24.1 10.8 24.1 24.1-10.8 24.1-24.1 24.1"/><path d="M254.3 476c-17.1-9.5-7.5-89.1 7.6-150 14.9-60.5 44.9-135.4 61.7-132.4l1.5-12.5c-19.7-7.6-55.5 48.2-76.9 143.1-23.1 102.3-21.3 154.1 2 162.4l4.3-10.6h-.2"/><path d="M288.7 188.5c-80.6 0-146.1 65.5-146.1 146.1s65.5 146.1 146.1 146.1 146.1-65.5 146.1-146.1c0-80.5-65.6-146.1-146.1-146.1m0 305.3c-87.8 0-159.2-71.4-159.2-159.2 0-87.8 71.4-159.2 159.2-159.2 87.8 0 159.2 71.4 159.2 159.2 0 87.8-71.5 159.2-159.2 159.2"/></svg>