<svg xmlns="http://www.w3.org/2000/svg" width="1024" height="768" viewBox="0 0 1024 768"><path d="M516.3 146.8c8.1 0 14.9-6.6 14.9-14.7V41.5c0-8.2-6.8-14.7-14.9-14.7-8.2 0-14.9 6.5-14.9 14.7v90.6c0 8.1 6.7 14.7 14.9 14.7M663 181c1.9 1 4.2 1.5 6.4 1.5 5.6 0 10.8-3.1 13.4-8.3l39.8-81.7c.9-2.1 1.4-4.3 1.4-6.4 0-5.5-3.2-10.9-8.5-13.3-2.1-1-4.4-1.5-6.5-1.5-5.5 0-10.9 3.1-13.4 8.3l-39.7 81.9c-1 1.9-1.4 4.1-1.4 6.3.1 5.5 3 10.8 8.5 13.2m-320.3-6.8c2.6 5.2 8 8.3 13.5 8.3 2.2 0 4.3-.5 6.4-1.5 5.4-2.4 8.5-7.7 8.5-13.2 0-2.2-.5-4.4-1.4-6.3l-39.8-81.8c-2.5-5.2-7.9-8.3-13.4-8.3-2.1 0-4.3.5-6.3 1.5-5.5 2.4-8.6 7.8-8.6 13.3 0 2.1.5 4.3 1.5 6.4l39.6 81.6zm532.7 34.5c-2.8-4.5-7.8-6.9-12.7-6.9-2.8 0-5.5.8-8 2.2l-78.1 47.8c-4.5 2.9-7 7.6-7 12.5 0 2.7.7 5.4 2.2 7.6 3 4.6 7.8 7 12.7 7 2.8 0 5.4-.6 8-2.2l78.1-47.7c4.5-2.7 7-7.5 7-12.6.1-2.6-.6-5.2-2.2-7.7m-629.7 70.2c5.1 0 9.9-2.4 12.7-7 1.6-2.2 2.3-4.9 2.3-7.6 0-4.9-2.6-9.6-7.1-12.5L175.5 204c-2.4-1.4-5.2-2.2-8-2.2-4.8 0-9.8 2.4-12.6 6.9-1.6 2.5-2.2 5.1-2.2 7.7 0 5.1 2.6 9.8 7 12.6l78.2 47.7c2.3 1.6 5.1 2.2 7.8 2.2m502.7 295.8c.7-29.3-5.9-62.1-19.2-95.4 17.5-7.3 32.9-15.2 44.3-23.8.1 3.2.2 6.2.2 9.4 0 39.3-9.2 76.6-25.3 109.8m-34.3-127.5c-6.8-12.8-14.5-25.4-23.2-38.1 1.6-2.4 2.8-4.7 3.6-7.5 13 1.2 24.4 2.7 34.3 4.5-3.4 13.3-8.4 27-14.7 41.1m-10.2 191.2c-2.8 2.8-5.5 5.7-8.5 8.4-35.5 31.1-99.9 33-167.1 7.7 25.6-11.2 51.3-25.6 76.2-43.3 5.8 3.9 13 6.3 20.7 6.3 20.4 0 36.7-16.2 36.7-36.1 0-5.7-1.3-10.9-3.5-15.7 21.1-21 39.1-43.2 53.7-65.8 20.2 55.6 18.6 106.9-8.2 138.5m-187.6 80.1c-12.2 0-24.3-.8-36-2.6 11.4-11.2 23.5-29 35.8-52 37.3 17.5 74.2 27 107.3 27.6 2.8.1 5.5.1 8.3 0-34.8 17.3-73.9 27-115.4 27m-60.4-8.1h-.1c-7.2-3.9-11.6-14.7-14-30.4 18.6-2.6 37.9-7.4 57.4-14-17.9 30.5-34.1 49.1-43.3 44.4m-15.1-92.5c14 10.6 28.1 20.2 42.4 28.6-14.9 4.5-29.4 7.9-43.4 10-.3-11.7.1-24.6 1-38.6m-80.5-94.5c-14.7-20.9-26.5-42.3-35.5-63.5 27.5-11.4 63-23 105.2-33.3 3.3 7.3 8.7 13.5 15.4 17.7-.2.9-.4 1.8-.5 2.6-6.1 26.3-11.2 50.6-15.2 73.3-26.1 2.3-49.3 3.2-69.4 3.2m59 65.1c-2.8-2.4-5.5-4.9-8.3-7.5 1.9-2.9 3-6.5 3-10.3 0-10.8-8.8-19.5-19.8-19.5-3.6 0-6.8 1-9.8 2.7-2.7-3.3-5.4-6.2-8-9.3 16.6-.4 33.4-1.2 49.3-2.4-2.5 16.5-4.8 32.1-6.4 46.3m-37.5 92.6c11.7 1.4 24.2 1.9 37.2 1.2 1.2 7.1 3 13.6 5.1 19.2-14.8-5.5-29-12.3-42.3-20.4m-67-58.6c-15.4-21-21.3-49.9-18.1-82.1 20.1 3.2 43.8 4.4 68.4 4.3 4.1 5 8.3 9.9 12.8 14.8-2.3 3.3-3.6 7.1-3.6 11.2 0 10.8 9 19.6 19.8 19.6 4 0 7.6-1.2 10.7-3.2 4.4 4.2 8.8 8.1 13.3 12-2.2 23.1-2.9 43.1-1.9 59.9-35.6 2.3-65.8-3.5-84.6-17.7-5.8-5.9-11.4-12.1-16.8-18.8m-51.9-117.8c-5.4-6.6 8.8-19.5 38.4-34-7.6 15.2-13.6 30.4-17.8 45.2-11.2-3.2-18.2-6.9-20.6-11.2m13.2 50.9c-2.8-7.2-5.2-14.5-7.4-22 3.1 1.2 6.6 2 9.9 3.1-1.2 6.5-2 12.7-2.5 18.9m-17-90.6c0-40.1 9.5-77.9 26.3-111.7-.5 30.3 7.1 64.1 22 98.7-19.1 7.4-36 15.4-48.1 23.9-.2-3.5-.2-7.3-.2-10.9m89.5 58.2c-19.3-.4-35.5-1.7-48.5-3.8 3.3-15.8 8.8-32.3 16.1-48.9 9 17.7 19.7 35.5 32.4 52.7M330.3 290c1.9-2 3.8-3.9 5.7-5.8 35.5-32.4 98.3-31.9 164.7-3.6-.1.1-.1.1-.1.3-30.6 14.6-61.3 33.7-90.5 57.5-1.9 1.6-3.8 3.2-5.7 4.7-3.2-2.4-7.2-3.6-11.4-3.6-10.9 0-19.7 8.8-19.7 19.5 0 3.8 1 7.1 2.9 10-23.3 23.1-42.9 47.5-58.5 72.3-20.9-61.1-16.9-118.4 12.6-151.3m186-78.6c9.7 0 19.4.5 28.8 1.5-10.8 10.7-22.3 26.9-33.9 47.7-38.2-16.2-75.8-24.1-109.2-22.8 34.5-16.9 73.3-26.4 114.3-26.4m61.4 8.7c.1.1.3 0 .7.1 6.7 1.5 11.2 13.1 13.8 31.2-18.2 2.9-37.3 7.9-56.7 14.8 15.7-29.5 30.8-48 42.2-46.1m17.3 89.2c-16.6-12.5-33.6-23.4-50.7-32.6 17.1-4.7 33.8-7.7 49.7-9.2 1 12.2 1.4 26.4 1 41.8M486.4 536.5c5.7 8 15.1 13.2 25.6 13.2 13.8 0 25.3-8.6 29.6-20.8 5.2-.9 11.3-1.9 18.2-3.3-12.3 38.3-28.2 77.3-44.1 109.4-5.7 2.3-11.5 4.4-17.2 6.5-19.2-9.6-38.2-21.1-56.7-34.8 1.8-20.9 4.8-43.4 8.6-66.4 12.9-1.2 25.2-2.6 36-3.8m78.2-140.6c-2.1-5.9-7.8-10.2-14.5-10.2-8 0-14.6 6.1-15.4 13.9-10.9 1.3-19.2 2.5-24.1 3.2-1.9-12.1-9.2-22.6-19.2-28.9 9.9-29.5 20.8-58.1 31.9-82.5 23.8 12.2 47.6 28 70.5 46.9-1.1 17.7-2.9 36.5-5.2 55.1-8.4.8-16.4 1.7-24 2.5m11.4 70.6c-1.2 5.4-2.4 10.8-3.8 16.1-1.4 6.1-3.2 12.3-4.9 18.6-8.8 1.6-17.9 3.2-27.2 4.7-4.9-10.4-15.6-17.6-28.2-17.6-15.6 0-28.6 11.4-30.8 26.5-9.2 1-18.2 2.2-26.8 3 4.2-22.7 9.2-45.3 14.4-66.6 23 0 41.5-18.1 42.4-40.4 8.5-1.3 16.7-2.4 24.8-3.5 2.4 5.4 7.9 9.1 14.2 9.1 7.6 0 13.9-5.3 15.3-12.5 7.6-.8 14.9-1.4 22.1-1.9-1.2 9.2-2.6 18.4-4.2 27.6-10.2.7-18.3 9.1-18.3 19.4-.1 7.8 4.4 14.4 11 17.5m-148.8-48.1c-30.7 6.7-66.1 15.3-97.8 25.8 13.4-23.9 30.9-47.3 52.2-69.2 3.3 2.3 7.1 3.6 11.4 3.6 11 0 19.9-8.7 19.9-19.5 0-3.8-1.2-7.5-3.1-10.3 1.4-1.5 3-2.6 4.5-4 25.3-20.6 52.5-37.2 79.7-49.6-9.4 21.1-18.7 45.3-27.4 72.4-22.5 1.1-40.5 19.3-40.5 41.8 0 3.1.4 6.2 1.1 9M590.9 594c-18.4 13-37.6 23.9-57 33 13.1-29.9 25.9-65.1 37.2-103.6 32.3-6.4 76.5-16.4 117-29.2-12.6 19.1-27.7 37.8-45 55.5-5.2-3-11.3-4.7-17.8-4.7-20.3 0-36.7 16.2-36.7 36.3 0 4.5.7 8.8 2.3 12.7m38.6-194c4 14.1 17.1 24.7 32.9 24.7 3.3 0 6.6-.5 9.7-1.3 10 14.5 18.7 29.2 26 43.8-30.9 10.9-71.2 22.1-119.9 32 1.7-6.4 3.3-12.7 5-19 .9-3.9 1.8-7.8 2.8-11.8 10.3-.4 18.8-9 18.8-19.3 0-7.6-4.4-14.1-10.7-17.4 2-10.3 4-20.6 5.5-30.5 10.2-.7 20.3-1 29.9-1.2m22.3-150.6c-7.1-.7-14.2-1.2-21.7-1.2-8.1 0-16.2.5-24.7 1.3-1.4-9.2-3.3-17.4-5.6-24.4 18.4 6.3 35.9 14.4 52 24.3m-19.2 125.5c-2.5 4.6-4.1 9.7-4.3 15.4-9.4.6-18.5 1.2-27.6 1.9 2.3-14.9 4-29.5 5.4-43.3 4.7 4.1 9.4 8.4 13.9 12.9 4.3 4.4 8.4 8.7 12.6 13.1m92.6-57.8c10.4 18.6 12.5 44.7 6.9 74-11.1-1.3-23.2-2.1-36-2.4-1.4-17.4-15.9-31-33.8-31-4 0-7.8.6-11.3 2-4.4-4.8-8.9-9.4-13.6-14-9.5-9.3-19.4-18-29.2-26 .9-19.6.6-37.5-.7-53.2 43.5-1.6 80.7 9.3 103.2 32.4 5.1 6 10 12.1 14.5 18.2m26.8 94.8c11.1 3.8 17.5 8.2 18.3 12.5 0 .3.1.7.1.9 0 6.1-10.9 15-31.6 25.2 5.6-12.9 10.1-25.9 13.2-38.6m5.6-35.3c2.6 6.8 4.8 13.9 6.8 21-2.8-1-5.7-1.9-8.8-2.5.9-6.1 1.6-12.3 2-18.5m35.6 45.4v-.1c-.1-.3-.2-.6-.2-.9-7.7-47.5-27.7-90.9-56.8-127.1-1.2-1.8-2.4-3.3-3.8-5-1.6-1.9-3.3-3.8-5.1-5.7-51.5-58-127-94.6-211.1-94.6-75.8 0-144.6 29.8-195 78.2-1.4 1.1-2.8 2.4-4.2 3.6-1.4 1.4-2.7 3.1-3.9 4.4-47.9 49.7-77.3 116.5-77.3 190.2 0 65.6 23.4 125.7 62.1 173.2.8.8 1.5 1.9 2.2 2.9 1.2 1.4 2.4 2.7 3.6 4 51.5 58.9 127.6 96.2 212.4 96.2 75.1 0 143.3-29.2 193.6-76.7 1.9-1.7 3.8-3.4 5.6-5.2 1.7-1.7 3.5-3.6 5-5.5 47.2-49.4 76.2-115.8 76.2-188.9 0-14.4-1.2-28.7-3.3-42.6v-.4" fill="#006D5D"/></svg>