<svg xmlns="http://www.w3.org/2000/svg" xmlns:xlink="http://www.w3.org/1999/xlink" version="1.1" id="art" x="0px" y="0px" width="338.3px" height="139.7px" viewBox="0 0 338.3 139.7" enable-background="new 0 0 338.3 139.7" xml:space="preserve">
<rect x="3" y="41.4" fill="#ECECEC" width="300.6" height="25.1"/>
<rect x="278.5" y="3.9" fill="#ECECEC" width="25.1" height="100.1"/>
<rect x="278.5" y="41.4" fill="#E0E0E0" width="25.1" height="25.1"/>
<rect x="3" y="3.9" fill="#ECECEC" width="25.1" height="100.1"/>
<rect x="3" y="41.4" fill="#E0E0E0" width="25.1" height="25.1"/>
<g>
	<polygon fill="#5A5A5A" points="319,66.9 303.7,66.9 303.7,65.9 318,65.9 318,41.8 303.7,41.8 303.7,40.8 319,40.8"/>
</g>
<g>
	<path fill="#5A5A5A" d="M330.9 54L328 50h1.7l2 2.9l2.1-2.9h1.6l-2.8 3.8l3.2 4.5H334l-2.3-3.4l-2.3 3.4h-1.6L330.9 54z"/>
</g>
<g>
	<polygon fill="#5A5A5A" points="319,29.4 303.7,29.4 303.7,28.4 318,28.4 318,4.4 303.7,4.4 303.7,3.4 319,3.4"/>
</g>
<g>
	<path fill="#5A5A5A" d="M330.9 16.5l-2.9-3.9h1.7l2 2.9l2.1-2.9h1.6l-2.8 3.8l3.2 4.5H334l-2.3-3.4l-2.3 3.4h-1.6L330.9 16.5z"/>
</g>
<g>
	<polygon fill="#5A5A5A" points="319,104.5 303.7,104.5 303.7,103.5 318,103.5 318,79.4 303.7,79.4 303.7,78.4 319,78.4"/>
</g>
<g>
	<path fill="#5A5A5A" d="M330.9 91.6l-2.9-3.9h1.7l2 2.9l2.1-2.9h1.6l-2.8 3.8l3.2 4.5H334l-2.3-3.4l-2.3 3.4h-1.6L330.9 91.6z"/>
</g>
<g>
	<polygon fill="#5A5A5A" points="304.1,119.3 278,119.3 278,104 279,104 279,118.3 303.1,118.3 303.1,104 304.1,104"/>
</g>
<g>
	<path fill="#5A5A5A" d="M290.9 131.3l-2.9-3.9h1.7l2 2.9l2.1-2.9h1.6l-2.8 3.8l3.2 4.5h-1.7l-2.3-3.4l-2.3 3.4h-1.6L290.9 131.3z"/>
</g>
<path fill="#121212" d="M95.7 41.4h2.4v25.1h-2.4V41.4z"/>
<path fill="#121212" d="M102.7 41.4h10.6c4.2 0 8 1.5 8 6.1c0 2.6-1.8 5.1-4.4 5.6v0.1c3.2 0.4 5.3 2.8 5.3 6.1c0 2.4-0.8 7.1-9 7.1 h-10.6V41.4z M105.1 52.4h8.2c3.8 0 5.7-1.9 5.7-4.2c0-3.1-1.9-4.7-5.7-4.7h-8.2V52.4z M105.1 64.4h8.2c3.5 0 6.6-1.1 6.6-5.2 c0-3.2-2.4-4.8-6.6-4.8h-8.2V64.4z"/>
<path fill="#121212" d="M125.4 41.4h3.5l8.7 22l8.6-22h3.5v25.1h-2.4V44.8h-0.1l-8.6 21.7h-2.2l-8.6-21.7h-0.1v21.7h-2.4V41.4z"/>
<path fill="#121212" d="M186.4 66.5H181l-4.2-17.1h-0.1l-4.2 17.1h-5.6l-6.6-25.1h5.5l4 17.1h0.1l4.4-17.1h5.2l4.3 17.3h0.1 l4.1-17.3h5.4L186.4 66.5z"/>
<path fill="#121212" d="M192.1 53.9c0.3-4.6 4.5-6.1 8.5-6.1c3.6 0 8 0.8 8 5.2v9.4c0 1.6 0.2 3.3 0.6 4h-5.1 c-0.2-0.6-0.3-1.2-0.4-1.8c-1.6 1.6-3.9 2.2-6.1 2.2c-3.5 0-6.2-1.7-6.2-5.4c0.1-8.3 12.3-3.8 12.1-7.9c0-2.1-1.5-2.5-3.2-2.5 c-1.9 0-3.1 0.8-3.3 2.7H192.1z M203.6 57.6c-0.8 0.7-2.6 0.8-4.1 1.1c-1.5 0.3-2.9 0.8-2.9 2.7c0 1.8 1.4 2.3 3.1 2.3 c3.9 0 4-3.1 4-4.2V57.6z"/>
<path fill="#121212" d="M217.7 48.3h3.7v3.3h-3.7v9c0 1.7 0.4 2.1 2.1 2.1c0.6 0 1.1 0 1.5-0.1v3.9c-0.8 0.1-1.9 0.2-2.9 0.2 c-3.1 0-5.7-0.7-5.7-4.3V51.6h-3v-3.3h3v-5.4h5V48.3z"/>
<path fill="#121212" d="M227.4 60.6c0 2.1 1.9 3.1 3.8 3.1c1.4 0 3.3-0.6 3.3-2.3c0-1.5-2.1-2.1-5.7-2.8c-2.9-0.7-5.8-1.6-5.8-4.8 c0-4.6 4-5.8 7.9-5.8c3.9 0 7.6 1.3 8 5.8h-4.7c-0.1-1.9-1.6-2.5-3.4-2.5c-1.1 0-2.8 0.2-2.8 1.7c0 1.8 2.8 2 5.7 2.7 c2.9 0.7 5.8 1.7 5.8 5.1c0 4.8-4.2 6.3-8.3 6.3c-4.2 0-8.4-1.6-8.5-6.4H227.4z"/>
<path fill="#121212" d="M250.3 47.8c5.7 0 9.4 3.8 9.4 9.6c0 5.8-3.7 9.5-9.4 9.5c-5.7 0-9.4-3.8-9.4-9.5 C240.9 51.6 244.6 47.8 250.3 47.8z M250.3 63.2c3.4 0 4.4-2.9 4.4-5.8c0-2.9-1-5.8-4.4-5.8c-3.4 0-4.4 2.9-4.4 5.8 C245.9 60.3 246.9 63.2 250.3 63.2z"/>
<path fill="#121212" d="M261.5 48.3h4.7v2.5h0.1c1.3-2.1 3.4-3 5.5-3c5.3 0 6.6 3 6.6 7.5v11.2h-5V56.2c0-3-0.8-4.5-3.2-4.5 c-2.7 0-3.9 1.5-3.9 5.2v9.5h-5V48.3z"/>
<path fill="#121212" d="M72.2 72.3c0.1-0.1 0.1-0.1 0.2-0.2c4.5-4.6 7.3-10.9 7.3-17.9c0-1.4-0.1-2.7-0.3-4c0 0 0 0 0 0l0 0l0 0 c0 0 0 0 0 0c-0.7-4.6-2.7-8.8-5.5-12.2c0 0-0.1-0.1-0.1-0.1l0 0c-0.1-0.1-0.1-0.1-0.2-0.2c-4.7-5.6-11.8-9.1-19.6-9.1 c-7.1 0-13.5 2.9-18.1 7.5c0 0-0.1 0.1-0.1 0.1l0 0c-0.1 0.1-0.1 0.1-0.2 0.2c-4.5 4.6-7.3 11-7.3 17.9c0 1.4 0.1 2.7 0.3 4 c0 0 0 0 0 0c0 0 0 0 0 0c0.7 4.6 2.7 8.8 5.5 12.2c0 0 0.1 0.1 0.1 0.1l0 0c0 0 0 0 0 0l0 0c0 0.1 0.1 0.1 0.2 0.2 c4.7 5.6 11.8 9.2 19.7 9.2c7 0 13.4-2.8 18.1-7.4C72.1 72.4 72.1 72.3 72.2 72.3L72.2 72.3L72.2 72.3L72.2 72.3z M70.6 70.9 c-3.2 3.1-9.2 3.4-15.6 0.9c2.4-1 4.7-2.4 7-4c0.5 0.4 1.2 0.6 1.9 0.6c1.9 0 3.4-1.5 3.4-3.4c0-0.5-0.1-1-0.4-1.5 c1.9-1.9 3.6-4 4.9-6.1c1.9 5.4 1.7 10.3-1.1 13.2C70.8 70.7 70.7 70.8 70.6 70.9z M37 37.7c0.1-0.1 0.2-0.2 0.2-0.2 c3.2-3.1 9.1-3.1 15.2-0.5c0 0 0 0 0 0c-2.8 1.4-5.6 3.1-8.3 5.4c-0.2 0.1-0.3 0.3-0.5 0.5c-0.3-0.2-0.7-0.3-1.1-0.3 c-1 0-1.8 0.8-1.8 1.8c0 0.3 0.1 0.7 0.3 0.9c-2.1 2.1-3.9 4.4-5.4 6.7C33.8 46.2 34.2 40.8 37 37.7z M65.6 62.1 c-0.5-0.3-1-0.4-1.6-0.4c-1.9 0-3.4 1.5-3.4 3.4c0 0.4 0.1 0.8 0.2 1.2c-1.7 1.2-3.5 2.2-5.2 3.1c1.2-2.8 2.4-6.1 3.4-9.6 c3-0.6 7-1.5 10.7-2.7C68.5 58.7 67.1 60.4 65.6 62.1z M47 68.4c1.3 1 2.6 1.9 3.9 2.7c-1.4 0.4-2.7 0.7-4 0.9 C46.9 70.9 46.9 69.7 47 68.4z M42.7 62.2c-0.3 0-0.6 0.1-0.9 0.2c-0.2-0.3-0.5-0.6-0.7-0.9c1.5 0 3-0.1 4.5-0.2 c-0.2 1.5-0.5 3-0.6 4.3c-0.3-0.2-0.5-0.5-0.8-0.7c0.2-0.3 0.3-0.6 0.3-0.9C44.6 63 43.7 62.2 42.7 62.2z M41.6 45.8 c0.3 0.2 0.7 0.3 1 0.3c1 0 1.8-0.8 1.8-1.8c0-0.4-0.1-0.7-0.3-1c0.1-0.1 0.3-0.2 0.4-0.4c2.3-1.9 4.8-3.4 7.3-4.6 c-0.9 2-1.7 4.2-2.5 6.7c-2.1 0.1-3.7 1.8-3.7 3.9c0 0.3 0 0.6 0.1 0.8c-2.8 0.6-6.1 1.4-9 2.4C38 50 39.6 47.8 41.6 45.8z M61.2 39.7c-1.5-1.2-3.1-2.2-4.7-3c1.6-0.4 3.1-0.7 4.6-0.8C61.2 36.9 61.2 38.3 61.2 39.7z M73.4 48.7c-0.3 1.2-0.8 2.5-1.4 3.8 c-0.6-1.2-1.3-2.4-2.1-3.6c0.1-0.2 0.2-0.4 0.3-0.7C71.5 48.4 72.5 48.5 73.4 48.7z M56.1 58c-0.5-1-1.4-1.6-2.6-1.6 c-1.4 0-2.6 1.1-2.8 2.5c-0.9 0.1-1.7 0.2-2.5 0.3c0.4-2.1 0.8-4.2 1.3-6.2c2.1 0 3.8-1.7 3.9-3.8c0.8-0.1 1.5-0.2 2.3-0.3 c0.2 0.5 0.7 0.8 1.3 0.8c0.7 0 1.3-0.5 1.4-1.2c0.7-0.1 1.4-0.1 2-0.2c-0.1 0.9-0.2 1.7-0.4 2.6c-0.9 0.1-1.7 0.8-1.7 1.8 c0 0.7 0.4 1.3 1 1.6c-0.1 0.5-0.2 1-0.3 1.5c-0.1 0.6-0.3 1.1-0.5 1.7C57.8 57.7 57 57.9 56.1 58z M60.1 55.6 c0.1-0.4 0.2-0.7 0.3-1.1c1-0.1 1.7-0.8 1.7-1.8c0-0.7-0.4-1.3-1-1.6c0.2-1 0.4-1.9 0.5-2.8c1-0.1 1.9-0.1 2.8-0.1 c0.4 1.3 1.6 2.3 3 2.3c0.3 0 0.6-0.1 0.9-0.1c0.9 1.4 1.7 2.7 2.4 4.1c-2.8 1-6.5 2.1-11 3C59.8 56.8 59.9 56.2 60.1 55.6z M64.2 47.2c-0.9 0.1-1.7 0.1-2.5 0.2c0.2-1.4 0.4-2.7 0.5-4c0.4 0.4 0.9 0.8 1.3 1.2c0.4 0.4 0.8 0.8 1.2 1.2 C64.4 46.2 64.2 46.7 64.2 47.2z M60.6 47.5c-0.8 0.1-1.5 0.1-2.2 0.2c-0.2-0.6-0.7-0.9-1.3-0.9c-0.7 0-1.3 0.6-1.4 1.3 c-1 0.1-1.8 0.2-2.2 0.3c-0.2-1.1-0.8-2.1-1.8-2.7c0.9-2.8 1.9-5.4 2.9-7.7c2.2 1.1 4.4 2.6 6.5 4.4C60.9 44.1 60.8 45.8 60.6 47.5z M36.4 53.7c2.5-1.1 5.8-2.1 9.6-3.1c0.3 0.7 0.8 1.2 1.4 1.6c0 0.1 0 0.2-0.1 0.2c-0.6 2.5-1 4.7-1.4 6.8c-2.4 0.2-4.5 0.3-6.3 0.3 C38.3 57.7 37.2 55.7 36.4 53.7z M38.6 59.6c-1.8 0-3.3-0.2-4.4-0.4c0.3-1.5 0.8-3 1.5-4.5C36.4 56.3 37.4 58 38.6 59.6z M47.9 61.2 c1.2-0.1 2.3-0.2 3.3-0.3c0.5 0.7 1.4 1.2 2.3 1.2c1.3 0 2.3-0.8 2.7-1.9c0.5-0.1 1-0.2 1.7-0.3c-1.1 3.6-2.6 7.2-4.1 10.2 c-0.5 0.2-1 0.4-1.6 0.6c-1.8-0.9-3.5-2-5.2-3.2C47.3 65.4 47.5 63.3 47.9 61.2z M75.6 49.2c1.1 0.4 1.7 0.8 1.7 1.2c0 0 0 0 0 0 c0 0.6-1 1.4-2.9 2.3C74.9 51.6 75.3 50.4 75.6 49.2z M75.9 47.7c0.1-0.6 0.2-1.2 0.2-1.7c0.2 0.6 0.5 1.3 0.6 2 C76.4 47.8 76.2 47.7 75.9 47.7z M73.7 47.3c-1-0.1-2.1-0.2-3.3-0.2c-0.1-1.6-1.5-2.9-3.1-2.9c-0.4 0-0.7 0.1-1 0.2 c-0.4-0.4-0.8-0.9-1.2-1.3c-0.9-0.9-1.8-1.7-2.7-2.4c0.1-1.8 0.1-3.5-0.1-5c4.2-0.2 7.7 1 9.7 3.3c0.4 0.4 0.7 0.9 1 1.3 C74 42 74.3 44.5 73.7 47.3z M64.4 34c-0.7 0-1.5 0-2.3 0.1c-0.1-0.9-0.3-1.6-0.5-2.3c1.7 0.6 3.3 1.3 4.8 2.3 C65.7 34.1 65.1 34 64.4 34z M59.6 31.4L59.6 31.4C59.6 31.4 59.6 31.4 59.6 31.4c0.7 0.2 1.1 1.2 1.3 2.9c-1.7 0.3-3.4 0.7-5.2 1.4 C57.1 32.9 58.5 31.2 59.6 31.4z M32.6 58.9c-1-0.3-1.7-0.6-1.9-1l0 0c0 0 0 0 0 0c-0.5-0.6 0.8-1.8 3.5-3.2 C33.5 56.1 33 57.5 32.6 58.9z M32.1 60.8c-0.1 0.6-0.2 1.2-0.2 1.8c-0.3-0.7-0.5-1.4-0.7-2.1C31.5 60.7 31.8 60.8 32.1 60.8z M33.8 61.2c1.8 0.3 4 0.4 6.3 0.4c0.4 0.5 0.8 0.9 1.2 1.4c-0.2 0.3-0.3 0.7-0.3 1c0 1 0.8 1.8 1.8 1.8c0.4 0 0.7-0.1 1-0.3 c0.4 0.4 0.8 0.8 1.2 1.1c-0.2 2.1-0.3 4-0.2 5.6c-3.3 0.2-6-0.3-7.8-1.7c-0.5-0.5-0.9-1-1.3-1.5C34.1 67.1 33.5 64.3 33.8 61.2z M45 74.4c0.1 0.7 0.3 1.3 0.5 1.8c-1.4-0.5-2.7-1.2-3.9-1.9C42.7 74.4 43.8 74.5 45 74.4z M48.4 77L48.4 77 C48.4 77 48.4 77 48.4 77c-0.7-0.4-1.1-1.4-1.3-2.8c1.7-0.2 3.5-0.7 5.3-1.3C50.7 75.7 49.3 77.5 48.4 77z M75.2 64.4 c0.1-2.7-0.5-5.8-1.8-8.9c1.6-0.7 3-1.4 4.1-2.2c0 0.3 0 0.6 0 0.9C77.5 57.8 76.7 61.3 75.2 64.4z M53.9 30.6 c0.9 0 1.8 0.1 2.6 0.2c-1 1-2.1 2.5-3.1 4.4c-3.5-1.5-7-2.2-10-2.1C46.6 31.5 50.2 30.6 53.9 30.6z M32.8 43.8 c-0.1 2.8 0.6 6 2 9.2c-1.8 0.7-3.3 1.4-4.4 2.2c0-0.3 0-0.7 0-1C30.3 50.4 31.2 46.9 32.8 43.8z M53.9 77.8c-1.1 0-2.2-0.1-3.3-0.2 c1-1.1 2.2-2.7 3.3-4.9c3.4 1.6 6.8 2.5 9.8 2.6c0.3 0 0.5 0 0.8 0C61.3 76.9 57.7 77.8 53.9 77.8z"/>
<g>
	<polygon fill="#5A5A5A" points="28.6,119.3 2.5,119.3 2.5,104 3.5,104 3.5,118.3 27.6,118.3 27.6,104 28.6,104"/>
</g>
<g>
	<path fill="#5A5A5A" d="M15.4 131.3l-2.9-3.9h1.7l2 2.9l2.1-2.9H20l-2.8 3.8l3.2 4.5h-1.7l-2.3-3.4l-2.3 3.4h-1.6L15.4 131.3z"/>
</g>
<g>
	<g>
		<polygon fill="#C7C7C7" points="304.1,104.5 302.1,104.5 302.1,103.5 303.1,103.5 303.1,102.5 304.1,102.5"/>
	</g>
	<g>
		<path fill="#C7C7C7" d="M299.1 104.5h-3v-1h3V104.5z M293.1 104.5h-3v-1h3V104.5z M287.1 104.5h-3v-1h3V104.5z M281.1 104.5h-3v-1 h3V104.5z M275.1 104.5h-3v-1h3V104.5z M269 104.5h-3v-1h3V104.5z M263 104.5h-3v-1h3V104.5z M257 104.5h-3v-1h3V104.5z M251 104.5h-3v-1h3V104.5z M245 104.5h-3v-1h3V104.5z M239 104.5h-3v-1h3V104.5z M233 104.5h-3v-1h3V104.5z M227 104.5h-3v-1h3 V104.5z M220.9 104.5h-3v-1h3V104.5z M214.9 104.5h-3v-1h3V104.5z M208.9 104.5h-3v-1h3V104.5z M202.9 104.5h-3v-1h3V104.5z M196.9 104.5h-3v-1h3V104.5z M190.9 104.5h-3v-1h3V104.5z M184.9 104.5h-3v-1h3V104.5z M178.9 104.5h-3v-1h3V104.5z M172.8 104.5 h-3v-1h3V104.5z M166.8 104.5h-3v-1h3V104.5z M160.8 104.5h-3v-1h3V104.5z M154.8 104.5h-3v-1h3V104.5z M148.8 104.5h-3v-1h3 V104.5z M142.8 104.5h-3v-1h3V104.5z M136.8 104.5h-3v-1h3V104.5z M130.8 104.5h-3v-1h3V104.5z M124.7 104.5h-3v-1h3V104.5z M118.7 104.5h-3v-1h3V104.5z M112.7 104.5h-3v-1h3V104.5z M106.7 104.5h-3v-1h3V104.5z M100.7 104.5h-3v-1h3V104.5z M94.7 104.5 h-3v-1h3V104.5z M88.7 104.5h-3v-1h3V104.5z M82.7 104.5h-3v-1h3V104.5z M76.6 104.5h-3v-1h3V104.5z M70.6 104.5h-3v-1h3V104.5z M64.6 104.5h-3v-1h3V104.5z M58.6 104.5h-3v-1h3V104.5z M52.6 104.5h-3v-1h3V104.5z M46.6 104.5h-3v-1h3V104.5z M40.6 104.5h-3 v-1h3V104.5z M34.6 104.5h-3v-1h3V104.5z M28.5 104.5h-3v-1h3V104.5z M22.5 104.5h-3v-1h3V104.5z M16.5 104.5h-3v-1h3V104.5z M10.5 104.5h-3v-1h3V104.5z"/>
	</g>
	<g>
		<polygon fill="#C7C7C7" points="4.5,104.5 2.5,104.5 2.5,102.5 3.5,102.5 3.5,103.5 4.5,103.5"/>
	</g>
	<g>
		<path fill="#C7C7C7" d="M3.5 99.6h-1v-2.9h1V99.6z M3.5 93.7h-1v-2.9h1V93.7z M3.5 87.8h-1v-2.9h1V87.8z M3.5 81.9h-1V79h1V81.9z M3.5 76h-1v-2.9h1V76z M3.5 70.1h-1v-2.9h1V70.1z M3.5 64.2h-1v-2.9h1V64.2z M3.5 58.3h-1v-2.9h1V58.3z M3.5 52.5h-1v-2.9h1V52.5 z M3.5 46.6h-1v-2.9h1V46.6z M3.5 40.7h-1v-2.9h1V40.7z M3.5 34.8h-1v-2.9h1V34.8z M3.5 28.9h-1V26h1V28.9z M3.5 23h-1v-2.9h1V23z M3.5 17.1h-1v-2.9h1V17.1z M3.5 11.2h-1V8.3h1V11.2z"/>
	</g>
	<g>
		<polygon fill="#C7C7C7" points="3.5,5.4 2.5,5.4 2.5,3.4 4.5,3.4 4.5,4.4 3.5,4.4"/>
	</g>
	<g>
		<path fill="#C7C7C7" d="M299.1 4.4h-3v-1h3V4.4z M293.1 4.4h-3v-1h3V4.4z M287.1 4.4h-3v-1h3V4.4z M281.1 4.4h-3v-1h3V4.4z M275.1 4.4h-3v-1h3V4.4z M269 4.4h-3v-1h3V4.4z M263 4.4h-3v-1h3V4.4z M257 4.4h-3v-1h3V4.4z M251 4.4h-3v-1h3V4.4z M245 4.4h-3 v-1h3V4.4z M239 4.4h-3v-1h3V4.4z M233 4.4h-3v-1h3V4.4z M227 4.4h-3v-1h3V4.4z M220.9 4.4h-3v-1h3V4.4z M214.9 4.4h-3v-1h3V4.4z M208.9 4.4h-3v-1h3V4.4z M202.9 4.4h-3v-1h3V4.4z M196.9 4.4h-3v-1h3V4.4z M190.9 4.4h-3v-1h3V4.4z M184.9 4.4h-3v-1h3V4.4z M178.9 4.4h-3v-1h3V4.4z M172.8 4.4h-3v-1h3V4.4z M166.8 4.4h-3v-1h3V4.4z M160.8 4.4h-3v-1h3V4.4z M154.8 4.4h-3v-1h3V4.4z M148.8 4.4h-3v-1h3V4.4z M142.8 4.4h-3v-1h3V4.4z M136.8 4.4h-3v-1h3V4.4z M130.8 4.4h-3v-1h3V4.4z M124.7 4.4h-3v-1h3V4.4z M118.7 4.4h-3v-1h3V4.4z M112.7 4.4h-3v-1h3V4.4z M106.7 4.4h-3v-1h3V4.4z M100.7 4.4h-3v-1h3V4.4z M94.7 4.4h-3v-1h3V4.4z M88.7 4.4h-3v-1h3V4.4z M82.7 4.4h-3v-1h3V4.4z M76.6 4.4h-3v-1h3V4.4z M70.6 4.4h-3v-1h3V4.4z M64.6 4.4h-3v-1h3V4.4z M58.6 4.4 h-3v-1h3V4.4z M52.6 4.4h-3v-1h3V4.4z M46.6 4.4h-3v-1h3V4.4z M40.6 4.4h-3v-1h3V4.4z M34.6 4.4h-3v-1h3V4.4z M28.5 4.4h-3v-1h3 V4.4z M22.5 4.4h-3v-1h3V4.4z M16.5 4.4h-3v-1h3V4.4z M10.5 4.4h-3v-1h3V4.4z"/>
	</g>
	<g>
		<polygon fill="#C7C7C7" points="304.1,5.4 303.1,5.4 303.1,4.4 302.1,4.4 302.1,3.4 304.1,3.4"/>
	</g>
	<g>
		<path fill="#C7C7C7" d="M304.1 99.6h-1v-2.9h1V99.6z M304.1 93.7h-1v-2.9h1V93.7z M304.1 87.8h-1v-2.9h1V87.8z M304.1 81.9h-1V79 h1V81.9z M304.1 76h-1v-2.9h1V76z M304.1 70.1h-1v-2.9h1V70.1z M304.1 64.2h-1v-2.9h1V64.2z M304.1 58.3h-1v-2.9h1V58.3z M304.1 52.5h-1v-2.9h1V52.5z M304.1 46.6h-1v-2.9h1V46.6z M304.1 40.7h-1v-2.9h1V40.7z M304.1 34.8h-1v-2.9h1V34.8z M304.1 28.9 h-1V26h1V28.9z M304.1 23h-1v-2.9h1V23z M304.1 17.1h-1v-2.9h1V17.1z M304.1 11.2h-1V8.3h1V11.2z"/>
	</g>
</g>
</svg>
