<svg xmlns="http://www.w3.org/2000/svg" width="749" height="206" viewBox="147 293 749 206"><path d="M188.1 484.2h31.8c13.7 0 25.5-4.2 25.5-20 0-12.5-9.2-18.7-25.5-18.7h-31.8v38.7zm0-46.5h31.8c14.7 0 21.9-7.3 21.9-16.4 0-12.1-7.3-18.2-21.9-18.2h-31.8v34.6zm-9.2-42.5h41c16.3 0 31.1 5.7 31.1 23.7 0 10.2-6.8 19.6-16.9 21.7v.3c12.5 1.6 20.5 11 20.5 23.6 0 9.2-3.3 27.6-34.8 27.6h-41l.1-96.9zm168.2 0l-33.4 85-33.5-85h-13.6v96.9h9.2v-83.8h.3l33.3 83.8h8.7l33.1-83.8h.3v83.8h9.2v-96.9m147.2 0L492 462h-.3l-16.5-66.8h-20l-16.8 66h-.3l-15.3-66h-21.3l25.6 96.9h21.6l16.2-66h.2l16.5 66h21.2l26-96.9m40.2 62.5c-3.3 2.9-10.1 3-16 4.1-6 1.1-11.4 3.2-11.4 10.3 0 7.1 5.6 9 11.8 9 15.1 0 15.6-11.8 15.6-16.2v-7.2zm-44.5-14.2c1.1-17.9 17.2-23.5 33-23.5 14 0 30.8 3.1 30.8 19.9v36.5c0 6.4.7 12.8 2.5 15.6h-19.6c-.7-2.2-1.2-4.5-1.4-6.8-6.1 6.4-14.9 8.7-23.6 8.7-13.4 0-23.9-6.7-23.9-21.1.3-31.9 47.5-14.8 46.7-30.5 0-8.2-5.7-9.5-12.5-9.5-7.5 0-12.1 3-12.8 10.6l-19.2.1zm99-21.6h14.1v12.9h-14.1v34.8c0 6.5 1.6 8.1 8.1 8.1 2.2 0 4.2-.1 6-.5v15.1c-3.3.5-7.5.7-11.3.7-11.9 0-22.1-2.6-22.1-16.7v-41.4h-11.7V422h11.7v-21h19.3v20.9zm37.6 47.4c0 8.3 7.3 11.8 14.8 11.8 5.4 0 12.6-2.2 12.6-9 0-5.8-8.1-8-21.8-10.9-11.3-2.6-22.3-6.2-22.3-18.7 0-17.9 15.5-22.5 30.5-22.5 15.2 0 29.5 5.1 31 22.4h-18.3c-.5-7.5-6.3-9.5-13.2-9.5-4.3 0-10.7.7-10.7 6.5 0 6.9 11 7.9 21.9 10.5 11.3 2.6 22.3 6.7 22.3 19.7 0 18.5-16.2 24.4-32 24.4-16.3 0-32.3-6.1-33-24.7h18.2zm88.7 10.2c13.2 0 17.1-11.1 17.1-22.4s-3.9-22.5-17.1-22.5c-13 0-17 11.3-17 22.5s4 22.4 17 22.4m0-59.5c22.1 0 36.4 14.7 36.4 37.1 0 22.3-14.3 36.9-36.4 36.9-22 0-36.2-14.7-36.2-36.9-.1-22.4 14.2-37.1 36.2-37.1m43.3 1.9h18.3v9.8h.4c4.9-8 13.3-11.7 21.4-11.7 20.5 0 25.7 11.5 25.7 28.9v43.2h-19.3v-39.6c0-11.6-3.3-17.3-12.3-17.3-10.5 0-15 5.9-15 20.1v36.8H793l.1-70.2zM160 327.2h15.8c9.1.1 13.2-3.9 13.2-11.1s-4.1-11.1-13.2-11.1H160v22.2zm-8-29h26.5c12.1 0 18.5 6.6 18.5 17.9s-6.4 18-18.5 17.9H160v24.7h-8v-60.5zm69.2 55.1c7.5 0 13.6-5.9 13.6-16.5s-6.1-16.6-13.6-16.6-13.6 6-13.6 16.6c-.1 10.6 6 16.5 13.6 16.5m0-39.4c13.9 0 21.3 10.1 21.3 22.9s-7.4 22.9-21.3 22.9-21.3-10.1-21.3-22.9 7.4-22.9 21.3-22.9m69.7 44.8h-7.6l-8.9-34.8h-.2l-8.8 34.8h-7.8l-14.1-43.8h8l9.9 35.8h.2l8.8-35.8h7.9l9.1 35.8h.2l9.8-35.8h7.4m34 17.7c-.4-6.9-5.4-12.4-12.6-12.4-7.5 0-12.1 5.6-12.5 12.4h25.1zm6.9 12.2c-1.9 9.7-8.8 14.9-18.7 14.9-14 0-20.6-9.7-21-23 0-13.2 8.6-22.8 20.6-22.8 15.5 0 20.2 14.5 19.8 25.1h-32.8c-.3 7.6 4.1 14.4 13.6 14.4 6 0 10.1-2.8 11.4-8.5h7.1v-.1zm7.9-29.9h6.8v9.2h.2c3.5-7.1 8.3-10.5 16.1-10.2v7.6c-11.6 0-15.8 6.5-15.8 17.7v19.5h-7.2v-43.8h-.1zm56.9 17.7c-.4-6.9-5.4-12.4-12.6-12.4-7.5 0-12.1 5.6-12.5 12.4h25.1zm7 12.2c-1.9 9.7-8.8 14.9-18.7 14.9-14 0-20.6-9.7-21-23 0-13.2 8.6-22.8 20.6-22.8 15.5 0 20.2 14.5 19.8 25.1h-32.8c-.3 7.6 4.1 14.4 13.6 14.4 6 0 10.1-2.8 11.4-8.5h7.1v-.1zm27.6 8.5c9.7 0 13.4-8.4 13.4-16.5 0-8.6-3.9-16.6-13.8-16.6-9.8 0-13.1 8.4-13.1 16.9-.1 8.3 4.1 16.2 13.5 16.2m20.3 5.4h-7.2v-5.9h-.2c-2.4 4.8-7.9 6.9-14 6.9-13.5 0-20.2-10.7-20.2-23 0-12.4 6.6-22.8 20-22.8 4.4 0 11 1.7 14.1 6.9h.2v-22.5h7.2v60.4h.1zm49.6-38.5c-9.7 0-13.4 8.4-13.4 16.5 0 8.6 3.9 16.6 13.8 16.6 9.8 0 13.1-8.4 13.1-16.9.1-8.2-4.2-16.2-13.5-16.2m-20.3-22h7.2v22.6h.2c2.4-4.8 7.9-6.9 14-6.9 13.5 0 20.2 10.7 20.2 23 0 12.4-6.6 22.8-20 22.8-4.4 0-11-1.7-14.1-6.9h-.2v5.8h-7.2v-60.4h-.1zm64.6 66.3c-3.4 8.5-6.3 11.7-12.7 11.7-1.7 0-3.4-.2-5-.8v-6.6c1.4.4 2.8 1 4.2 1 3 0 4.6-1.4 5.9-4l3-7.4-17.4-43.5h8.1l12.8 35.8h.2l12.3-35.8h7.6l-19 49.6zm302.6 57.4h12.2v1.2h-5.4v14.1h-1.4v-14.1h-5.4m14.2-1.2h2.2l5.3 13.4 5.2-13.4h2.2v15.3h-1.5v-13.3l-5.2 13.3h-1.4l-5.3-13.3v13.3h-1.5m-724.1-42h9.2v96.9H152v-96.9z"/></svg>