<svg xmlns="http://www.w3.org/2000/svg" width="278.3" height="139.2" viewBox="-376 302.8 278.3 139.2"><path fill="#ECECEC" d="M-371.1 307.3h25v99.8h-25v-99.8zm207.5 0h25v99.8h-25v-99.8z"/><path fill="#ECECEC" d="M-371.1 331.9h232.5V382h-232.5v-50.1z"/><path fill="#E0E0E0" d="M-371.1 331.9h25.1V382h-25.1v-50.1zm207.5 0h25V382h-25v-50.1z"/><path d="M-336.4 379.9h8.2c3.5 0 6.6-1.1 6.6-5.2 0-3.2-2.4-4.8-6.6-4.8h-8.2v10zm0-12h8.2c3.8 0 5.6-1.9 5.6-4.2 0-3.1-1.9-4.7-5.6-4.7h-8.2v8.9zm-2.4-11h10.6c4.2 0 8 1.5 8 6.1 0 2.6-1.8 5.1-4.4 5.6v.1c3.2.4 5.3 2.8 5.3 6.1 0 2.4-.9 7.1-9 7.1h-10.6l.1-25zm43.4 0l-8.6 21.9-8.6-21.9h-3.5v25h2.4v-21.6h.1l8.6 21.6h2.2l8.5-21.6h.1v21.6h2.4v-25m37.9 0l-4.1 17.2h-.1l-4.3-17.2h-5.2l-4.3 17h-.1l-3.9-17h-5.5l6.6 25h5.6l4.2-17h.1l4.3 17h5.5l6.7-25m10.2 16.1c-.9.7-2.6.8-4.1 1.1-1.5.3-2.9.8-2.9 2.7s1.4 2.3 3 2.3c3.9 0 4-3 4-4.2V373zm-11.4-3.6c.3-4.6 4.4-6.1 8.5-6.1 3.6 0 7.9.8 7.9 5.1v9.4c0 1.7.2 3.3.6 4h-5.1c-.2-.6-.3-1.2-.4-1.8-1.6 1.7-3.8 2.2-6.1 2.2-3.5 0-6.2-1.7-6.2-5.4.1-8.2 12.2-3.8 12-7.9 0-2.1-1.5-2.4-3.2-2.4-1.9 0-3.1.8-3.3 2.7l-4.7.2zm25.5-5.6h3.6v3.3h-3.6v9c0 1.7.4 2.1 2.1 2.1.6 0 1.1 0 1.5-.1v3.9c-.9.1-1.9.2-2.9.2-3.1 0-5.7-.7-5.7-4.3v-10.7h-3v-3.3h3v-5.4h5v5.3zm9.7 12.2c0 2.1 1.9 3 3.8 3 1.4 0 3.2-.6 3.2-2.3 0-1.5-2.1-2.1-5.6-2.8-2.9-.7-5.8-1.6-5.8-4.8 0-4.6 4-5.8 7.9-5.8 3.9 0 7.6 1.3 8 5.8h-4.7c-.1-1.9-1.6-2.4-3.4-2.4-1.1 0-2.8.2-2.8 1.7 0 1.8 2.8 2 5.6 2.7 2.9.7 5.8 1.7 5.8 5.1 0 4.8-4.2 6.3-8.3 6.3-4.2 0-8.3-1.6-8.5-6.4h4.8v-.1zm22.9 2.7c3.4 0 4.4-2.9 4.4-5.8s-1-5.8-4.4-5.8c-3.4 0-4.4 2.9-4.4 5.8s1 5.8 4.4 5.8m0-15.4c5.7 0 9.4 3.8 9.4 9.6s-3.7 9.5-9.4 9.5-9.3-3.8-9.3-9.5c-.1-5.8 3.6-9.6 9.3-9.6m11.1.5h4.7v2.5h.1c1.3-2.1 3.4-3 5.5-3 5.3 0 6.6 3 6.6 7.5v11.1h-5v-10.2c0-3-.9-4.5-3.2-4.5-2.7 0-3.9 1.5-3.9 5.2v9.5h-5l.2-18.1zm-163.2-24.4h4.1c2.3 0 3.4-1 3.4-2.9s-1.1-2.9-3.4-2.9h-4.1v5.8zm-2.1-7.5h6.8c3.1 0 4.8 1.7 4.8 4.6s-1.7 4.6-4.8 4.6h-4.8v6.4h-2.1v-15.6zm17.8 14.2c1.9 0 3.5-1.5 3.5-4.3 0-2.7-1.6-4.3-3.5-4.3s-3.5 1.5-3.5 4.3 1.6 4.3 3.5 4.3m0-10.1c3.6 0 5.5 2.6 5.5 5.9 0 3.3-1.9 5.9-5.5 5.9s-5.5-2.6-5.5-5.9c.1-3.3 2-5.9 5.5-5.9m18 11.5h-2l-2.3-9h-.1l-2.3 9h-2l-3.6-11.3h2.1l2.6 9.2h.1l2.3-9.2h2l2.3 9.2h.1l2.5-9.2h1.9m8.8 4.6c-.1-1.8-1.4-3.2-3.2-3.2-1.9 0-3.1 1.4-3.2 3.2h6.4zm1.8 3.1c-.5 2.5-2.3 3.8-4.8 3.8-3.6 0-5.3-2.5-5.4-5.9 0-3.4 2.2-5.9 5.3-5.9 4 0 5.2 3.7 5.1 6.5h-8.5c-.1 2 1.1 3.7 3.5 3.7 1.5 0 2.6-.7 2.9-2.2h1.9zm2-7.7h1.8v2.4h.1c.9-1.8 2.1-2.7 4.2-2.6v2c-3 0-4.1 1.7-4.1 4.6v5h-1.9l-.1-11.4zm14.7 4.6c-.1-1.8-1.4-3.2-3.2-3.2-1.9 0-3.1 1.4-3.2 3.2h6.4zm1.8 3.1c-.5 2.5-2.3 3.8-4.8 3.8-3.6 0-5.3-2.5-5.4-5.9 0-3.4 2.2-5.9 5.3-5.9 4 0 5.2 3.7 5.1 6.5h-8.5c-.1 2 1.1 3.7 3.5 3.7 1.5 0 2.6-.7 2.9-2.2h1.9zm7.1 2.2c2.5 0 3.5-2.2 3.5-4.3 0-2.2-1-4.3-3.6-4.3-2.5 0-3.4 2.2-3.4 4.4s1.1 4.2 3.5 4.2m5.2 1.4h-1.9V346h-.1c-.6 1.2-2 1.8-3.6 1.8-3.5 0-5.2-2.8-5.2-5.9 0-3.2 1.7-5.9 5.2-5.9 1.1 0 2.8.4 3.6 1.8h.1V332h1.9v15.5zm12.8-9.9c-2.5 0-3.5 2.2-3.5 4.3 0 2.2 1 4.3 3.6 4.3 2.5 0 3.4-2.2 3.4-4.4s-1.1-4.2-3.5-4.2m-5.2-5.7h1.9v5.8h.1c.6-1.2 2-1.8 3.6-1.8 3.5 0 5.2 2.8 5.2 5.9 0 3.2-1.7 5.9-5.2 5.9-1.1 0-2.8-.4-3.6-1.8h-.1v1.5h-1.9v-15.5zm16.6 17.1c-.9 2.2-1.6 3-3.3 3-.4 0-.9-.1-1.3-.2v-1.7c.4.1.7.3 1.1.3.8 0 1.2-.4 1.5-1l.8-1.9-4.5-11.2h2.1l3.3 9.2h.1l3.2-9.2h2l-5 12.7zm78.1 14.8h3.1v.3h-1.4v3.6h-.4v-3.6h-1.4m3.7-.3h.6l1.4 3.5 1.3-3.5h.6v3.9h-.4v-3.4l-1.3 3.4h-.4l-1.4-3.4v3.4h-.4m-186.7-10.8h2.4v25h-2.4v-25z"/><path fill="#C7C7C7" d="M-138.1 407.6h-2v-1h1v-1h1M-143.1 407.6h-3v-1h3v1zm-5.9 0h-3v-1h3v1zm-6 0h-3v-1h3v1zm-5.9 0h-3v-1h3v1zm-6 0h-3v-1h3v1zm-6 0h-3v-1h3v1zm-5.9 0h-3v-1h3v1zm-6 0h-3v-1h3v1zm-6 0h-3v-1h3v1zm-5.9 0h-3v-1h3v1zm-6 0h-3v-1h3v1zm-5.9 0h-3v-1h3v1zm-6 0h-3v-1h3v1zm-6 0h-3v-1h3v1zm-5.9 0h-3v-1h3v1zm-6 0h-3v-1h3v1zm-5.9 0h-3v-1h3v1zm-6 0h-3v-1h3v1zm-6 0h-3v-1h3v1zm-5.9 0h-3v-1h3v1zm-6 0h-3v-1h3v1zm-6 0h-3v-1h3v1zm-5.9 0h-3v-1h3v1zm-6 0h-3v-1h3v1zm-5.9 0h-3v-1h3v1zm-6 0h-3v-1h3v1zm-6 0h-3v-1h3v1zm-5.9 0h-3v-1h3v1zm-6 0h-3v-1h3v1zm-5.9 0h-3v-1h3v1zm-6 0h-3v-1h3v1zm-6 0h-3v-1h3v1zm-5.9 0h-3v-1h3v1zm-6 0h-3v-1h3v1zm-6 0h-3v-1h3v1zm-5.9 0h-3v-1h3v1zm-6 0h-3v-1h3v1zm-5.9 0h-3v-1h3v1zM-369.6 407.6h-2v-2h1v1h1M-370.6 402.7h-1v-2.9h1v2.9zm0-5.9h-1v-2.9h1v2.9zm0-5.9h-1V388h1v2.9zm0-5.9h-1v-3h1v3zm0-5.9h-1v-2.9h1v2.9zm0-5.9h-1v-2.9h1v2.9zm0-5.9h-1v-2.9h1v2.9zm0-5.9h-1v-2.9h1v2.9zm0-5.9h-1v-2.9h1v2.9zm0-5.9h-1v-2.9h1v2.9zm0-5.9h-1v-2.9h1v2.9zm0-5.9h-1v-2.9h1v2.9zm0-5.9h-1V329h1v2.9zm0-5.9h-1v-2.9h1v2.9zm0-5.9h-1v-2.9h1v2.9zm0-5.9h-1v-2.9h1v2.9zM-370.6 308.3h-1v-2h2v1h-1M-143.1 307.3h-3v-1h3v1zm-5.9 0h-3v-1h3v1zm-6 0h-3v-1h3v1zm-5.9 0h-3v-1h3v1zm-6 0h-3v-1h3v1zm-6 0h-3v-1h3v1zm-5.9 0h-3v-1h3v1zm-6 0h-3v-1h3v1zm-6 0h-3v-1h3v1zm-5.9 0h-3v-1h3v1zm-6 0h-3v-1h3v1zm-5.9 0h-3v-1h3v1zm-6 0h-3v-1h3v1zm-6 0h-3v-1h3v1zm-5.9 0h-3v-1h3v1zm-6 0h-3v-1h3v1zm-5.9 0h-3v-1h3v1zm-6 0h-3v-1h3v1zm-6 0h-3v-1h3v1zm-5.9 0h-3v-1h3v1zm-6 0h-3v-1h3v1zm-6 0h-3v-1h3v1zm-5.9 0h-3v-1h3v1zm-6 0h-3v-1h3v1zm-5.9 0h-3v-1h3v1zm-6 0h-3v-1h3v1zm-6 0h-3v-1h3v1zm-5.9 0h-3v-1h3v1zm-6 0h-3v-1h3v1zm-5.9 0h-3v-1h3v1zm-6 0h-3v-1h3v1zm-6 0h-3v-1h3v1zm-5.9 0h-3v-1h3v1zm-6 0h-3v-1h3v1zm-6 0h-3v-1h3v1zm-5.9 0h-3v-1h3v1zm-6 0h-3v-1h3v1zm-5.9 0h-3v-1h3v1zM-138.1 308.3h-1v-1h-1v-1h2M-138.1 402.7h-1v-2.9h1v2.9zm0-5.9h-1v-2.9h1v2.9zm0-5.9h-1V388h1v2.9zm0-5.9h-1v-3h1v3zm0-5.9h-1v-2.9h1v2.9zm0-5.9h-1v-2.9h1v2.9zm0-5.9h-1v-2.9h1v2.9zm0-5.9h-1v-2.9h1v2.9zm0-5.9h-1v-2.9h1v2.9zm0-5.9h-1v-2.9h1v2.9zm0-5.9h-1v-2.9h1v2.9zm0-5.9h-1v-2.9h1v2.9zm0-5.9h-1V329h1v2.9zm0-5.9h-1v-2.9h1v2.9zm0-5.9h-1v-2.9h1v2.9zm0-5.9h-1v-2.9h1v2.9z"/><path fill="#5A5A5A" d="M-137.6 422.4h-26.1v-15.3h1v14.3h24.1v-14.3h1"/><g fill="#5A5A5A"><path d="M-160.4 437h1.8v1.8h-1.8V437zM-150.3 428.8h-4.6l-.6 3.3c.5-.6 1.3-.8 2.1-.8 2 0 3.7 1.3 3.7 3.9 0 1.9-1.3 3.8-4 3.8-2 0-3.6-1.2-3.6-3.2h1.4c.1 1.2 1 2 2.4 2 1.3 0 2.4-.9 2.4-2.7 0-1.5-1-2.6-2.6-2.6-.9 0-1.6.4-2.1 1.1l-1.2-.1 1.1-5.9h5.6v1.2zM-146.1 434.4l-2.9-3.9h1.7l2 2.9 2.1-2.9h1.6l-2.8 3.8 3.2 4.5h-1.7l-2.3-3.4-2.3 3.4h-1.6l3-4.4z"/></g><path fill="#5A5A5A" d="M-345.5 422.4h-26.1v-15.3h1v14.3h24.1v-14.3h1"/><g fill="#5A5A5A"><path d="M-368.3 437h1.8v1.8h-1.8V437zM-358.3 428.8h-4.6l-.6 3.3c.5-.6 1.3-.8 2.1-.8 2 0 3.7 1.3 3.7 3.9 0 1.9-1.3 3.8-4 3.8-2 0-3.6-1.2-3.6-3.2h1.4c.1 1.2 1 2 2.4 2 1.3 0 2.4-.9 2.4-2.7 0-1.5-1-2.6-2.6-2.6-.9 0-1.6.4-2.1 1.1l-1.2-.1 1.1-5.9h5.6v1.2zM-354 434.4l-2.9-3.9h1.7l2 2.9 2.1-2.9h1.6l-2.8 3.8 3.2 4.5h-1.7l-2.3-3.4-2.3 3.4h-1.6l3-4.4z"/></g><g><path fill="#5A5A5A" d="M-123.2 407.8h-15.4v-1h14.4v-24.1h-14.4v-1h15.4"/></g><g fill="#5A5A5A"><path d="M-118.2 398.7h1.8v1.8h-1.8v-1.8zM-108.2 390.5h-4.6l-.6 3.3c.5-.6 1.3-.8 2.1-.8 2 0 3.7 1.3 3.7 3.9 0 1.9-1.3 3.8-4 3.8-2 0-3.6-1.2-3.6-3.2h1.4c.1 1.2 1 2 2.4 2 1.3 0 2.4-.9 2.4-2.7 0-1.5-1-2.6-2.6-2.6-.9 0-1.6.4-2.1 1.1l-1.2-.1 1.1-5.9h5.6v1.2zM-104 396.1l-2.9-3.9h1.7l2 2.9 2.1-2.9h1.6l-2.8 3.8 3.2 4.5h-1.7l-2.3-3.4-2.3 3.4h-1.6l3-4.4z"/></g><g><path fill="#5A5A5A" d="M-123.2 332.4h-15.4v-1h14.4v-24.1h-14.4v-1h15.4"/></g><g fill="#5A5A5A"><path d="M-118.2 323.3h1.8v1.8h-1.8v-1.8zM-108.2 315.1h-4.6l-.6 3.3c.5-.6 1.3-.8 2.1-.8 2 0 3.7 1.3 3.7 3.9 0 1.9-1.3 3.8-4 3.8-2 0-3.6-1.2-3.6-3.2h1.4c.1 1.2 1 2 2.4 2 1.3 0 2.4-.9 2.4-2.7 0-1.5-1-2.6-2.6-2.6-.9 0-1.6.4-2.1 1.1l-1.2-.1 1.1-5.9h5.6v1.2zM-104 320.7l-2.9-3.9h1.7l2 2.9 2.1-2.9h1.6l-2.8 3.8 3.2 4.5h-1.7l-2.3-3.4-2.3 3.4h-1.6l3-4.4z"/></g><g><path fill="#5A5A5A" d="M-115 359.8l-2.9-3.9h1.7l2 2.9 2.1-2.9h1.6l-2.8 3.8 3.2 4.5h-1.7l-2.3-3.4-2.3 3.4h-1.6l3-4.4z"/></g><g><path fill="#5A5A5A" d="M-124.2 331.9h1v50.3h-1z"/></g></svg>