<svg xmlns="http://www.w3.org/2000/svg" width="232.9" height="75.1" viewBox="-395 347.9 232.9 75.1"><path fill="#323232" d="M-395 347.9h232.9V423H-395v-75.1z"/><path d="M-211.4 380.3h4.5v2.4h.1c1.2-2 3.3-2.9 5.3-2.9 5.1 0 6.3 2.9 6.3 7.2v10.7h-4.8v-9.8c0-2.9-.8-4.3-3-4.3-2.6 0-3.7 1.4-3.7 5v9.1h-4.8l.1-17.4m17.3 0h3v.3h-1.3v3.5h-.4v-3.5h-1.3v-.3m3.6 0h.5l1.3 3.3 1.3-3.3h.5v3.8h-.3v-3.3l-1.3 3.3h-.4l-1.3-3.3v3.3h-.3v-3.8m-92.8 17.4h-5.3l-4.1-16.4-4 16.4h-5.4l-6.3-24h5.3l3.8 16.4 4.2-16.4h4.9l4.1 16.5h.1l4-16.5h5.1l-6.4 24m5.4-12.1c.2-4.4 4.3-5.8 8.1-5.8 3.5 0 7.7.7 7.7 5v9.1c0 1.6.2 3.2.6 3.9h-4.9c-.2-.6-.3-1.1-.3-1.7-1.5 1.6-3.7 2.2-5.8 2.2-3.4 0-5.9-1.7-5.9-5.2.1-7.9 11.8-3.7 11.6-7.6 0-2-1.4-2.4-3.1-2.4-1.9 0-3 .7-3.2 2.6l-4.8-.1m11 3.6c-.8.7-2.5.7-4 1s-2.8.8-2.8 2.6 1.4 2.2 2.9 2.2c3.7 0 3.9-2.9 3.9-4v-1.8zm13.5-8.9h3.5v3.2h-3.5v8.6c0 1.6.4 2 2 2 .6 0 1.1-.1 1.5-.1v3.7c-.8.1-1.9.2-2.8.2-3 0-5.5-.6-5.5-4.2v-10.3h-2.9v-3.2h2.9V375h4.8v5.3m9.3 11.7c0 2.1 1.8 2.9 3.7 2.9 1.4 0 3.1-.6 3.1-2.2 0-1.4-2-2-5.4-2.7-2.8-.6-5.5-1.6-5.5-4.7 0-4.4 3.9-5.6 7.6-5.6 3.8 0 7.3 1.3 7.7 5.5h-4.5c-.1-1.9-1.6-2.4-3.2-2.4-1.1 0-2.7.2-2.7 1.6 0 1.7 2.7 1.9 5.4 2.6 2.8.6 5.5 1.7 5.5 4.9 0 4.6-4 6-8 6s-8-1.5-8.1-6.2h4.5m21.9-11.8c5.5 0 9 3.6 9 9.2 0 5.5-3.5 9.1-9 9.1s-9-3.6-9-9.1c0-5.6 3.6-9.2 9-9.2m0 14.7c3.2 0 4.2-2.7 4.2-5.5s-1-5.6-4.2-5.6-4.2 2.8-4.2 5.6c0 2.7.9 5.5 4.2 5.5zm-148.1-20.9h2.3v24h-2.3zm6.6 0h10.1c4 0 7.7 1.4 7.7 5.9 0 2.6-1.7 4.9-4.2 5.4v.1c3.1.4 5.1 2.7 5.1 5.8 0 2.3-.8 6.8-8.6 6.8h-10.1v-24m2.3 10.5h7.9c3.6 0 5.4-1.8 5.4-4 0-3-1.8-4.5-5.4-4.5h-7.9v8.5zm0 11.6h7.9c3.4 0 6.3-1.1 6.3-5 0-3.1-2.3-4.7-6.3-4.7h-7.9v9.7zm19.5-22.1h3.4l8.2 21 8.3-21h3.4v24h-2.3v-20.8l-8.3 20.8h-2.1l-8.3-20.8h-.1v20.8h-2.2v-24" fill="#FFF"/></svg>