<svg xmlns="http://www.w3.org/2000/svg" width="270" height="113.7" viewBox="-376 328.3 270 113.7"><path fill="#ECECEC" d="M-373.3 332.2h25.1v75.1h-25.1v-75.1zm207.9 0h25.1v75.1h-25.1v-75.1z"/><path fill="#5A5A5A" d="M-125 382.7h-15.4v-1h14.4v-24.1h-14.4v-1h15.4m11.9 13.2l-2.9-3.9h1.7l2 2.9 2.1-2.9h1.6l-2.8 3.8 3.2 4.5h-1.7l-2.3-3.4-2.3 3.4h-1.7l3.1-4.4z"/><path fill="#5A5A5A" d="M-125 357.8h-15.4v-1h14.4v-24.1h-14.4v-1h15.4m11.9 13.1l-2.9-3.9h1.7l2 2.9 2.1-2.9h1.6l-2.8 3.8 3.2 4.5h-1.7l-2.3-3.4-2.3 3.4h-1.7l3.1-4.4zm-11.9 63h-15.4v-1h14.4v-24.1h-14.4v-1h15.4m11.9 13.1l-2.9-3.9h1.7l2 2.9 2.1-2.9h1.6l-2.8 3.8 3.2 4.5h-1.7l-2.3-3.4-2.3 3.4h-1.7l3.1-4.4z"/><path fill="#5A5A5A" d="M-139.9 422.6h-26v-15.3h1v14.3h24v-14.3h1m-13.1 27.3l-2.9-3.9h1.7l2 2.9 2.1-2.9h1.6l-2.8 3.8 3.2 4.5h-1.7l-2.3-3.4-2.3 3.4h-1.6l3-4.4zm-194.7-12h-26.1v-15.3h1v14.3h24.1v-14.3h1m-13.2 27.3l-2.9-3.9h1.7l2 2.9 2.1-2.9h1.6l-2.8 3.8 3.2 4.5h-1.7l-2.3-3.4-2.3 3.4h-1.6l3-4.4z"/><path fill="#ECECEC" d="M-373.3 357.1h232.9v25.1h-232.9v-25.1z"/><path fill="#E0E0E0" d="M-373.3 357.1h25.1v25.1h-25.1v-25.1zm207.9 0h25.1v25.1h-25.1v-25.1z"/><path fill="#C7C7C7" d="M-139.9 407.8h-2v-1h1v-1h1m-5 2h-3v-1h3v1zm-5.9 0h-3v-1h3v1zm-6 0h-3v-1h3v1zm-6 0h-3v-1h3v1zm-6 0h-3v-1h3v1zm-5.9 0h-3v-1h3v1zm-6 0h-3v-1h3v1zm-6 0h-3v-1h3v1zm-5.9 0h-3v-1h3v1zm-6 0h-3v-1h3v1zm-6 0h-3v-1h3v1zm-6 0h-3v-1h3v1zm-5.9 0h-3v-1h3v1zm-6 0h-3v-1h3v1zm-6 0h-3v-1h3v1zm-6 0h-3v-1h3v1zm-5.9 0h-3v-1h3v1zm-6 0h-3v-1h3v1zm-6 0h-3v-1h3v1zm-5.9 0h-3v-1h3v1zm-6 0h-3v-1h3v1zm-6 0h-3v-1h3v1zm-6 0h-3v-1h3v1zm-5.9 0h-3v-1h3v1zm-6 0h-3v-1h3v1zm-6 0h-3v-1h3v1zm-5.9 0h-3v-1h3v1zm-6 0h-3v-1h3v1zm-6 0h-3v-1h3v1zm-6 0h-3v-1h3v1zm-5.9 0h-3v-1h3v1zm-6 0h-3v-1h3v1zm-6 0h-3v-1h3v1zm-6 0h-3v-1h3v1zm-5.9 0h-3v-1h3v1zm-6 0h-3v-1h3v1zm-6 0h-3v-1h3v1zm-5.9 0h-3v-1h3v1zm-6 0h-2v-2h1v1h1m-1-3.9h-1V400h1v2.9zm0-5.8h-1v-2.9h1v2.9zm0-5.7h-1v-2.9h1v2.9zm0-5.8h-1v-2.9h1v2.9zm0-5.8h-1v-2.9h1v2.9zm0-5.7h-1v-2.9h1v2.9zm0-5.8h-1v-2.9h1v2.9zm0-5.8h-1v-2.9h1v2.9zm0-5.7h-1v-2.9h1v2.9zm0-5.8h-1v-2.9h1v2.9zm0-5.8h-1v-2.9h1v2.9zm0-5.7h-1v-2.9h1v2.9zm0-5.8h-1v-2h2v1h-1m227.9 0h-3v-1h3v1zm-5.9 0h-3v-1h3v1zm-6 0h-3v-1h3v1zm-6 0h-3v-1h3v1zm-6 0h-3v-1h3v1zm-5.9 0h-3v-1h3v1zm-6 0h-3v-1h3v1zm-6 0h-3v-1h3v1zm-5.9 0h-3v-1h3v1zm-6 0h-3v-1h3v1zm-6 0h-3v-1h3v1zm-6 0h-3v-1h3v1zm-5.9 0h-3v-1h3v1zm-6 0h-3v-1h3v1zm-6 0h-3v-1h3v1zm-5.9 0h-3v-1h3v1zm-6 0h-3v-1h3v1zm-6 0h-3v-1h3v1zm-6 0h-3v-1h3v1zm-5.9 0h-3v-1h3v1zm-6 0h-3v-1h3v1zm-6 0h-3v-1h3v1zm-6 0h-3v-1h3v1zm-5.9 0h-3v-1h3v1zm-6 0h-3v-1h3v1zm-6 0h-3v-1h3v1zm-5.9 0h-3v-1h3v1zm-6 0h-3v-1h3v1zm-6 0h-3v-1h3v1zm-6 0h-3v-1h3v1zm-5.9 0h-3v-1h3v1zm-6 0h-3v-1h3v1zm-6 0h-3v-1h3v1zm-6 0h-3v-1h3v1zm-5.9 0h-3v-1h3v1zm-6 0h-3v-1h3v1zm-6 0h-3v-1h3v1zm-5.9 0h-3v-1h3v1zm225.9 1h-1v-1h-1v-1h2m0 71.2h-1V400h1v2.9zm0-5.8h-1v-2.9h1v2.9zm0-5.7h-1v-2.9h1v2.9zm0-5.8h-1v-2.9h1v2.9zm0-5.8h-1v-2.9h1v2.9zm0-5.7h-1v-2.9h1v2.9zm0-5.8h-1v-2.9h1v2.9zm0-5.8h-1v-2.9h1v2.9zm0-5.7h-1v-2.9h1v2.9zm0-5.8h-1v-2.9h1v2.9zm0-5.8h-1v-2.9h1v2.9zm0-5.7h-1v-2.9h1v2.9z"/><path d="M-182.6 363.8h4.7v2.5h.1c1.2-2.1 3.4-3 5.5-3 5.3 0 6.6 3 6.6 7.4v11.1h-5v-10.2c0-3-.8-4.5-3.2-4.5-2.7 0-3.9 1.5-3.9 5.2v9.5h-5l.2-18m18 0h3.1v.4h-1.3v3.6h-.4v-3.6h-1.4v-.4m3.7 0h.5l1.4 3.5 1.3-3.5h.6v4h-.4v-3.4l-1.3 3.4h-.3l-1.4-3.4h-.1v3.4h-.3v-4m-96.6 18.2h-5.4l-4.3-17.1h-.1l-4.1 17.1h-5.6l-6.6-25h5.5l4 17 4.4-17h5.1l4.3 17.2 4.2-17.2h5.3l-6.7 25m5.6-12.6c.3-4.6 4.5-6.1 8.5-6.1 3.6 0 8 .8 8 5.2v9.5c0 1.6.2 3.3.6 4h-5c-.2-.6-.3-1.2-.3-1.7-1.6 1.6-3.9 2.3-6.1 2.3-3.5 0-6.2-1.7-6.2-5.4.1-8.2 12.2-3.8 12-7.9 0-2.1-1.5-2.5-3.2-2.5-1.9 0-3.1.8-3.3 2.7l-5-.1m11.5 3.7c-.8.7-2.6.8-4.1 1-1.6.3-2.9.8-2.9 2.7 0 1.8 1.4 2.3 3 2.3 3.9 0 4-3 4-4.1v-1.9zm14-9.3h3.6v3.3h-3.6v9c0 1.7.4 2.1 2.1 2.1.6 0 1.1-.1 1.6-.1v3.9c-.8.1-1.9.2-2.9.2-3.1 0-5.7-.6-5.7-4.3v-10.7h-3v-3.3h3v-5.4h5l-.1 5.3m9.8 12.3c0 2.1 1.9 3 3.8 3 1.4 0 3.2-.6 3.2-2.3 0-1.5-2.1-2.1-5.6-2.8-2.9-.6-5.8-1.6-5.8-4.9 0-4.6 4-5.8 7.9-5.8 3.9 0 7.6 1.4 8 5.8h-4.7c-.1-1.9-1.6-2.5-3.4-2.5-1.1 0-2.8.2-2.8 1.7 0 1.8 2.8 2 5.6 2.7 2.9.6 5.8 1.7 5.8 5 0 4.8-4.1 6.3-8.3 6.3-4.2 0-8.4-1.6-8.5-6.4h4.7m22.9-12.5c5.7 0 9.4 3.8 9.4 9.6s-3.7 9.5-9.4 9.5-9.3-3.8-9.3-9.5c0-5.9 3.7-9.6 9.3-9.6m0 15.3c3.4 0 4.4-2.8 4.4-5.8s-1-5.8-4.4-5.8-4.4 2.9-4.4 5.8c.1 2.9 1 5.8 4.4 5.8zM-347.9 357h2.4v25h-2.4zm6.9 0h10.6c4.2 0 8 1.5 8 6.2 0 2.7-1.7 5-4.3 5.6v.1c3.2.4 5.3 2.8 5.3 6.1 0 2.4-.8 7.1-8.9 7.1h-10.6l-.1-25.1m2.4 10.9h8.2c3.8 0 5.6-1.9 5.6-4.2 0-3.1-1.9-4.7-5.6-4.7h-8.2v8.9zm0 12h8.2c3.6 0 6.6-1.1 6.6-5.2 0-3.2-2.4-4.9-6.6-4.9h-8.2v10.1zm20.2-22.9h3.5l8.7 21.8 8.6-21.8h3.5v25h-2.4v-21.7l-8.6 21.7h-2.2l-8.7-21.7V382h-2.4v-25"/></svg>