<svg xmlns="http://www.w3.org/2000/svg" width="182.8" height="26.8" viewBox="-420 371.2 182.8 26.8"><path d="M-420 371.6h2.4v25.1h-2.4v-25.1zM-413 371.6h10.6c4.2 0 8 1.5 8 6.1 0 2.6-1.8 5.1-4.4 5.6v.1c3.2.4 5.3 2.8 5.3 6.1 0 2.4-.8 7.1-9 7.1H-413v-25zm2.3 11h8.2c3.8 0 5.7-1.9 5.7-4.2 0-3.1-1.9-4.7-5.7-4.7h-8.2v8.9zm0 12.1h8.2c3.5 0 6.6-1.1 6.6-5.2 0-3.2-2.4-4.8-6.6-4.8h-8.2v10zM-390.4 371.6h3.5l8.7 22 8.6-22h3.6v25.1h-2.4V375h-.1l-8.6 21.7h-2.2l-8.6-21.7h-.1v21.7h-2.4v-25.1zM-329.3 396.7h-5.5l-4.2-17.1h-.1l-4.2 17.1h-5.6l-6.6-25.1h5.5l4 17.1h.1l4.4-17.1h5.2l4.3 17.3h.1l3.9-17.3h5.4l-6.7 25.1zM-323.7 384.1c.3-4.6 4.5-6.1 8.5-6.1 3.6 0 8 .8 8 5.2v9.4c0 1.7.2 3.3.6 4h-5.1c-.2-.6-.3-1.2-.4-1.8-1.6 1.7-3.9 2.2-6.1 2.2-3.5 0-6.2-1.7-6.2-5.4.1-8.3 12.3-3.8 12.1-7.9 0-2.1-1.5-2.5-3.2-2.5-1.9 0-3.1.8-3.3 2.7h-4.9v.2zm11.5 3.7c-.8.7-2.6.8-4.1 1.1-1.5.3-2.9.8-2.9 2.7 0 1.8 1.4 2.3 3.1 2.3 3.9 0 4-3.1 4-4.2v-1.9h-.1zM-298.1 378.6h3.7v3.3h-3.7v9c0 1.7.4 2.1 2.1 2.1.6 0 1.1 0 1.5-.1v3.9c-.8.1-1.9.2-2.9.2-3.1 0-5.7-.7-5.7-4.3v-10.8h-3v-3.3h3v-5.5h5v5.5zM-288.4 390.8c0 2.1 1.9 3.1 3.8 3.1 1.4 0 3.3-.6 3.3-2.3 0-1.5-2.1-2.1-5.7-2.8-2.9-.7-5.8-1.6-5.8-4.8 0-4.6 4-5.8 7.9-5.8s7.6 1.3 8 5.8h-4.7c-.1-1.9-1.6-2.5-3.4-2.5-1.1 0-2.8.2-2.8 1.7 0 1.8 2.8 2 5.7 2.7 2.9.7 5.8 1.7 5.8 5.1 0 4.8-4.2 6.3-8.3 6.3-4.2 0-8.4-1.6-8.5-6.4h4.7v-.1zM-265.4 378.1c5.7 0 9.4 3.8 9.4 9.6s-3.7 9.6-9.4 9.6-9.4-3.8-9.4-9.6 3.7-9.6 9.4-9.6zm0 15.3c3.4 0 4.4-2.9 4.4-5.8s-1-5.8-4.4-5.8-4.4 2.9-4.4 5.8 1 5.8 4.4 5.8zM-254.2 378.6h4.7v2.5h.1c1.3-2.1 3.4-3 5.5-3 5.3 0 6.6 3 6.6 7.5v11.2h-5v-10.3c0-3-.8-4.5-3.2-4.5-2.7 0-3.9 1.5-3.9 5.2v9.5h-5v-18.1h.2z"/></svg>