<svg xmlns="http://www.w3.org/2000/svg" xmlns:xlink="http://www.w3.org/1999/xlink" version="1.1" id="art" x="0px" y="0px" width="232.9px" height="75.1px" viewBox="0 0 232.9 75.1" enable-background="new 0 0 232.9 75.1" xml:space="preserve">
<rect y="-0.8" fill="#F9F9F9" width="232.9" height="75.7"/>
<path fill="#D74108" d="M27.2 24.8h2.3v24.3h-2.3V24.8z"/>
<path fill="#D74108" d="M33.9 24.8h10.3c4.1 0 7.8 1.4 7.8 5.9c0 2.6-1.7 4.9-4.2 5.4v0.1c3.1 0.4 5.1 2.8 5.1 5.9 c0 2.3-0.8 6.9-8.7 6.9H33.9V24.8z M36.2 35.5h8c3.7 0 5.5-1.8 5.5-4.1c0-3-1.8-4.6-5.5-4.6h-8V35.5z M36.2 47.1h8 c3.4 0 6.4-1.1 6.4-5c0-3.1-2.3-4.7-6.4-4.7h-8V47.1z"/>
<path fill="#D74108" d="M55.9 24.8h3.4l8.4 21.3L76 24.8h3.4v24.3h-2.3v-21h-0.1l-8.3 21h-2.2l-8.3-21h-0.1v21h-2.3V24.8z"/>
<path fill="#121212" d="M115 49.1h-5.3l-4.1-16.5h-0.1l-4 16.5h-5.4l-6.4-24.3H95l3.8 16.5h0.1l4.2-16.5h5l4.1 16.7h0.1l4-16.7h5.2 L115 49.1z"/>
<path fill="#121212" d="M120.5 36.9c0.3-4.5 4.3-5.9 8.3-5.9c3.5 0 7.7 0.8 7.7 5v9.1c0 1.6 0.2 3.2 0.6 3.9h-4.9 c-0.2-0.5-0.3-1.1-0.3-1.7c-1.5 1.6-3.7 2.2-5.9 2.2c-3.4 0-6-1.7-6-5.3c0.1-8 11.9-3.7 11.7-7.6c0-2-1.4-2.4-3.1-2.4 c-1.9 0-3 0.7-3.2 2.7H120.5z M131.6 40.5c-0.8 0.7-2.5 0.7-4 1c-1.5 0.3-2.9 0.8-2.9 2.6c0 1.8 1.4 2.2 3 2.2c3.8 0 3.9-3 3.9-4 V40.5z"/>
<path fill="#121212" d="M145.2 31.5h3.5v3.2h-3.5v8.7c0 1.6 0.4 2 2 2c0.5 0 1.1 0 1.5-0.1v3.8c-0.8 0.1-1.9 0.2-2.8 0.2 c-3 0-5.5-0.6-5.5-4.2V34.7h-2.9v-3.2h2.9v-5.3h4.8V31.5z"/>
<path fill="#121212" d="M154.7 43.4c0 2.1 1.8 3 3.7 3c1.4 0 3.2-0.5 3.2-2.2c0-1.5-2-2-5.5-2.7c-2.8-0.6-5.6-1.6-5.6-4.7 c0-4.5 3.9-5.6 7.6-5.6c3.8 0 7.4 1.3 7.8 5.6h-4.6c-0.1-1.9-1.6-2.4-3.3-2.4c-1.1 0-2.7 0.2-2.7 1.6c0 1.7 2.8 2 5.5 2.6 c2.8 0.6 5.6 1.7 5.6 4.9c0 4.6-4 6.1-8 6.1c-4.1 0-8.1-1.5-8.3-6.2H154.7z"/>
<path fill="#121212" d="M176.9 31c5.5 0 9.1 3.7 9.1 9.3c0 5.6-3.6 9.2-9.1 9.2c-5.5 0-9.1-3.7-9.1-9.2 C167.8 34.7 171.4 31 176.9 31z M176.9 45.9c3.3 0 4.3-2.8 4.3-5.6c0-2.8-1-5.6-4.3-5.6c-3.3 0-4.2 2.8-4.2 5.6 C172.6 43.1 173.6 45.9 176.9 45.9z"/>
<path fill="#121212" d="M187.7 31.5h4.6V34h0.1c1.2-2 3.3-2.9 5.4-2.9c5.1 0 6.4 2.9 6.4 7.2v10.8h-4.8v-9.9c0-2.9-0.8-4.3-3.1-4.3 c-2.6 0-3.7 1.5-3.7 5v9.2h-4.8V31.5z"/>
</svg>
