<svg xmlns="http://www.w3.org/2000/svg" width="232.9" height="75.1" viewBox="-395 347.9 232.9 75.1"><path fill="#F9F9F9" d="M-395 347.1h232.9v75.7H-395z"/><path fill="#D74108" d="M-367.8 372.7h2.3V397h-2.3v-24.3zM-361.1 372.7h10.3c4.1 0 7.8 1.4 7.8 5.9 0 2.6-1.7 4.9-4.2 5.4v.1c3.1.4 5.1 2.8 5.1 5.9 0 2.3-.8 6.9-8.7 6.9h-10.3v-24.2zm2.3 10.7h8c3.7 0 5.5-1.8 5.5-4.1 0-3-1.8-4.6-5.5-4.6h-8v8.7zm0 11.6h8c3.4 0 6.4-1.1 6.4-5 0-3.1-2.3-4.7-6.4-4.7h-8v9.7zM-339.1 372.7h3.4l8.4 21.3 8.3-21.3h3.4V397h-2.3v-21h-.1l-8.3 21h-2.2l-8.3-21h-.1v21h-2.3v-24.3h.1z"/><path d="M-280 397h-5.3l-4.1-16.5h-.1l-4 16.5h-5.4l-6.4-24.3h5.3l3.8 16.5h.1l4.2-16.5h5l4.1 16.7h.1l4-16.7h5.2L-280 397zM-274.5 384.8c.3-4.5 4.3-5.9 8.3-5.9 3.5 0 7.7.8 7.7 5v9.1c0 1.6.2 3.2.6 3.9h-4.9c-.2-.5-.3-1.1-.3-1.7-1.5 1.6-3.7 2.2-5.9 2.2-3.4 0-6-1.7-6-5.3.1-8 11.9-3.7 11.7-7.6 0-2-1.4-2.4-3.1-2.4-1.9 0-3 .7-3.2 2.7h-4.9zm11.1 3.6c-.8.7-2.5.7-4 1s-2.9.8-2.9 2.6 1.4 2.2 3 2.2c3.8 0 3.9-3 3.9-4v-1.8zM-249.8 379.4h3.5v3.2h-3.5v8.7c0 1.6.4 2 2 2 .5 0 1.1 0 1.5-.1v3.8c-.8.1-1.9.2-2.8.2-3 0-5.5-.6-5.5-4.2v-10.4h-2.9v-3.2h2.9v-5.3h4.8v5.3zM-240.3 391.3c0 2.1 1.8 3 3.7 3 1.4 0 3.2-.5 3.2-2.2 0-1.5-2-2-5.5-2.7-2.8-.6-5.6-1.6-5.6-4.7 0-4.5 3.9-5.6 7.6-5.6 3.8 0 7.4 1.3 7.8 5.6h-4.6c-.1-1.9-1.6-2.4-3.3-2.4-1.1 0-2.7.2-2.7 1.6 0 1.7 2.8 2 5.5 2.6 2.8.6 5.6 1.7 5.6 4.9 0 4.6-4 6.1-8 6.1-4.1 0-8.1-1.5-8.3-6.2h4.6zM-218.1 378.9c5.5 0 9.1 3.7 9.1 9.3 0 5.6-3.6 9.2-9.1 9.2s-9.1-3.7-9.1-9.2c0-5.6 3.6-9.3 9.1-9.3zm0 14.9c3.3 0 4.3-2.8 4.3-5.6s-1-5.6-4.3-5.6-4.2 2.8-4.2 5.6.9 5.6 4.2 5.6zM-207.3 379.4h4.6v2.5h.1c1.2-2 3.3-2.9 5.4-2.9 5.1 0 6.4 2.9 6.4 7.2V397h-4.8v-9.9c0-2.9-.8-4.3-3.1-4.3-2.6 0-3.7 1.5-3.7 5v9.2h-4.8l-.1-17.6z"/></svg>