<svg xmlns="http://www.w3.org/2000/svg" xmlns:xlink="http://www.w3.org/1999/xlink" version="1.1" id="art" x="0px" y="0px" width="32px" height="32px" viewBox="0 0 32 32" enable-background="new 0 0 32 32" xml:space="preserve">
<g>
	<polygon fill="#E71D32" points="20.9,9.5 16,14.4 11.1,9.5 9.5,11.1 14.4,16 9.5,20.9 11.1,22.5 16,17.6 20.9,22.5 22.5,20.9 17.6,16 22.5,11.1"/>
	<path fill="#E71D32" d="M16 0C7.2 0 0 7.2 0 16s7.2 16 16 16s16-7.2 16-16S24.8 0 16 0z M16 30.9C7.8 30.9 1.1 24.2 1.1 16 S7.8 1.1 16 1.1S30.9 7.8 30.9 16S24.2 30.9 16 30.9z"/>
</g>
</svg>