<svg xmlns="http://www.w3.org/2000/svg" width="227.2" height="52.7" viewBox="-397 358.3 227.2 52.7"><path d="M-353.5 371.8h2.4v25.1h-2.4v-25.1zM-346.5 371.8h10.6c4.2 0 8 1.5 8 6.1 0 2.6-1.8 5.1-4.4 5.6v.1c3.2.4 5.3 2.8 5.3 6.1 0 2.4-.8 7.1-9 7.1h-10.5v-25zm2.4 11h8.2c3.8 0 5.7-1.9 5.7-4.2 0-3.1-1.9-4.7-5.7-4.7h-8.2v8.9zm0 12.1h8.2c3.5 0 6.6-1.1 6.6-5.2 0-3.2-2.4-4.8-6.6-4.8h-8.2v10zM-323.8 371.8h3.5l8.7 22 8.6-22h3.5v25.1h-2.4v-21.7h-.1l-8.6 21.7h-2.2l-8.6-21.7h-.1v21.7h-2.4v-25.1h.1zM-262.8 396.9h-5.5l-4.2-17.1h-.1l-4.2 17.1h-5.6l-6.6-25.1h5.5l4 17.1h.1l4.4-17.1h5.2l4.3 17.3h.1l4.1-17.3h5.4l-6.9 25.1zM-257.1 384.3c.3-4.6 4.5-6.1 8.5-6.1 3.6 0 8 .8 8 5.2v9.4c0 1.6.2 3.3.6 4h-5.1c-.2-.6-.3-1.2-.4-1.8-1.6 1.6-3.9 2.2-6.1 2.2-3.5 0-6.2-1.7-6.2-5.4.1-8.3 12.3-3.8 12.1-7.9 0-2.1-1.5-2.5-3.2-2.5-1.9 0-3.1.8-3.3 2.7h-4.9v.2zm11.5 3.7c-.8.7-2.6.8-4.1 1.1-1.5.3-2.9.8-2.9 2.7 0 1.8 1.4 2.3 3.1 2.3 3.9 0 4-3.1 4-4.2V388h-.1zM-231.5 378.7h3.7v3.3h-3.7v9c0 1.7.4 2.1 2.1 2.1.6 0 1.1 0 1.5-.1v3.9c-.8.1-1.9.2-2.9.2-3.1 0-5.7-.7-5.7-4.3v-10.7h-3v-3.3h3v-5.5h5v5.4zM-221.8 391c0 2.1 1.9 3.1 3.8 3.1 1.4 0 3.3-.6 3.3-2.3 0-1.5-2.1-2.1-5.7-2.8-2.9-.7-5.8-1.6-5.8-4.8 0-4.6 4-5.8 7.9-5.8s7.6 1.3 8 5.8h-4.7c-.1-1.9-1.6-2.5-3.4-2.5-1.1 0-2.8.2-2.8 1.7 0 1.8 2.8 2 5.7 2.7 2.9.7 5.8 1.7 5.8 5.1 0 4.8-4.2 6.3-8.3 6.3-4.2 0-8.4-1.6-8.5-6.4l4.7-.1zM-198.9 378.2c5.7 0 9.4 3.8 9.4 9.6s-3.7 9.5-9.4 9.5-9.4-3.8-9.4-9.5c0-5.8 3.7-9.6 9.4-9.6zm0 15.4c3.4 0 4.4-2.9 4.4-5.8s-1-5.8-4.4-5.8-4.4 2.9-4.4 5.8 1 5.8 4.4 5.8zM-187.7 378.7h4.7v2.6h.1c1.3-2.1 3.4-3 5.5-3 5.3 0 6.6 3 6.6 7.5V397h-5v-10.4c0-3-.8-4.5-3.2-4.5-2.7 0-3.9 1.5-3.9 5.2v9.5h-5v-18.1h.2zM-369.8 380.6c-.7-4.6-2.7-8.8-5.5-12.2l-.1-.1-.2-.2c-4.7-5.7-11.8-9.2-19.6-9.2v2.1c.9 0 1.8.1 2.6.2-.9.8-1.7 2-2.6 3.6v5.2l.6-1.5c2.2 1.1 4.4 2.6 6.5 4.4-.1 1.6-.3 3.4-.5 5.1-.8.1-1.5.1-2.2.2-.2-.6-.7-.9-1.3-.9-.7 0-1.3.6-1.4 1.3-.7.1-1.2.2-1.7.2v.8c.6-.2 1.2-.3 1.7-.4.2.5.7.8 1.3.8.7 0 1.3-.5 1.4-1.2.7-.1 1.4-.1 2-.2 0 1-.2 1.9-.3 2.7-.9.1-1.7.8-1.7 1.8 0 .7.4 1.3 1 1.6l-.3 1.5c-.1.6-.3 1.1-.5 1.7-.8.2-1.6.3-2.5.5-.4-.9-1.2-1.5-2.2-1.6v5.7c1.1-.2 2-.9 2.3-1.9.5-.1 1-.2 1.7-.3-1.1 3.5-2.6 7.1-4 10v2.8c3.4 1.6 6.8 2.5 9.8 2.6h.8c-3.1 1.6-6.7 2.5-10.5 2.5v2.1c7 0 13.4-2.8 18.1-7.4.1-.1.2-.1.2-.2l.2-.2c4.5-4.6 7.3-10.9 7.3-17.9-.1-1.4-.2-2.7-.4-4zm-3.3-4.2c.2.6.5 1.3.6 2-.3-.1-.5-.2-.8-.2.1-.7.1-1.3.2-1.8zm-.5 3.3c1.1.4 1.7.8 1.7 1.2 0 .6-1 1.4-2.9 2.3.5-1.2.9-2.4 1.2-3.5zm-3.6-10.3c.4.4.7.9 1 1.3 1 1.7 1.2 4.2.7 7-1-.1-2.1-.2-3.3-.2-.1-1.6-1.5-2.9-3.1-2.9-.4 0-.7.1-1 .2-.4-.4-.8-.9-1.2-1.3-.9-.9-1.8-1.7-2.7-2.4.1-1.8.1-3.5-.1-5 4.2-.1 7.7 1 9.7 3.3zm-7.4 6.8c-.2.4-.4.9-.4 1.4-.9.1-1.7.1-2.5.2.2-1.4.4-2.7.5-4 .4.4.9.8 1.3 1.2.4.4.7.8 1.1 1.2zm1.8-11.6c-.7-.1-1.3-.1-2-.1s-1.5 0-2.3.1c-.1-.9-.3-1.7-.5-2.3 1.7.6 3.3 1.3 4.8 2.3zm-6.8-2.8c.7.2 1.1 1.2 1.3 2.9-1.7.3-3.4.8-5.2 1.4 1.4-2.7 2.8-4.5 3.9-4.3zm-3.1 5.3c1.6-.4 3.1-.7 4.6-.8.1 1.1.1 2.4.1 3.8-1.6-1.2-3.1-2.2-4.7-3zm3.6 18.9c.1-.4.1-.7.2-1.1 1-.1 1.7-.8 1.7-1.8 0-.7-.4-1.3-1-1.6.2-1 .4-1.9.5-2.8 1-.1 1.9-.1 2.8-.1.4 1.3 1.6 2.3 3 2.3.3 0 .6-.1.9-.1.9 1.4 1.7 2.7 2.4 4.1-2.8 1-6.5 2.1-11 3 .2-.7.3-1.3.5-1.9zm-1.1 4c3-.6 7-1.5 10.7-2.7-1.2 1.8-2.5 3.5-4.1 5.2-.5-.3-1-.4-1.6-.4-1.9 0-3.4 1.5-3.4 3.4 0 .4.1.8.2 1.2-1.7 1.2-3.5 2.2-5.2 3.1 1.2-2.9 2.3-6.2 3.4-9.8zm11.9 11c-.1.1-.2.2-.2.3-3.2 3.1-9.2 3.4-15.6.9 2.4-1 4.7-2.4 7-4 .5.4 1.2.6 1.9.6 1.9 0 3.4-1.5 3.4-3.4 0-.5-.1-1-.4-1.5 1.9-1.9 3.6-4 4.9-6.1 1.9 5.4 1.7 10.3-1 13.2zm1.2-18.1c-.6-1.2-1.3-2.4-2.1-3.6.1-.2.2-.4.3-.7 1.2.1 2.3.2 3.2.4-.4 1.4-.8 2.6-1.4 3.9zm3.1 11.9c.1-2.7-.5-5.8-1.8-8.9 1.6-.7 3-1.4 4.1-2.2v.9c.1 3.7-.8 7.1-2.3 10.2z"/><path d="M-396.2 358.9h2v51.4h-2z"/></svg>