<svg xmlns="http://www.w3.org/2000/svg" xmlns:xlink="http://www.w3.org/1999/xlink" version="1.1" id="art" x="0px" y="0px" width="300.3px" height="51.4px" viewBox="0 0 300.3 51.4" enable-background="new 0 0 300.3 51.4" xml:space="preserve">
<path fill="#121212" d="M44.8 43.8c0.1-0.1 0.1-0.1 0.2-0.2c4.5-4.6 7.3-10.9 7.3-17.9c0-1.4-0.1-2.7-0.3-4c0 0 0 0 0 0l0 0l0 0 c0 0 0 0 0 0c-0.7-4.6-2.7-8.8-5.5-12.2c0 0-0.1-0.1-0.1-0.1l0 0c-0.1-0.1-0.1-0.1-0.2-0.2C41.4 3.6 34.4 0 26.5 0 C19.4 0 13 2.9 8.4 7.5c0 0-0.1 0.1-0.1 0.1l0 0C8.2 7.7 8.1 7.7 8.1 7.8c-4.5 4.6-7.3 11-7.3 17.9c0 1.4 0.1 2.7 0.3 4c0 0 0 0 0 0 c0 0 0 0 0 0c0.7 4.6 2.7 8.8 5.5 12.2c0 0 0.1 0.1 0.1 0.1l0 0l0 0l0 0c0 0.1 0.1 0.1 0.2 0.2c4.7 5.6 11.8 9.2 19.7 9.2 c7 0 13.4-2.8 18.1-7.4C44.6 43.9 44.7 43.9 44.8 43.8L44.8 43.8L44.8 43.8L44.8 43.8z M43.2 42.4c-3.2 3.1-9.2 3.4-15.6 0.9 c2.4-1 4.7-2.4 7-4c0.5 0.4 1.2 0.6 1.9 0.6c1.9 0 3.4-1.5 3.4-3.4c0-0.5-0.1-1-0.4-1.5c1.9-1.9 3.6-4 4.9-6.1 c1.9 5.4 1.7 10.3-1.1 13.2C43.3 42.2 43.3 42.3 43.2 42.4z M9.6 9.3C9.7 9.2 9.8 9.1 9.8 9c3.2-3.1 9.1-3.1 15.2-0.5c0 0 0 0 0 0 c-2.8 1.4-5.6 3.1-8.3 5.4c-0.2 0.1-0.3 0.3-0.5 0.5C16 14.2 15.6 14 15.2 14c-1 0-1.8 0.8-1.8 1.8c0 0.3 0.1 0.7 0.3 0.9 c-2.1 2.1-3.9 4.4-5.4 6.7C6.4 17.7 6.8 12.3 9.6 9.3z M38.1 33.6c-0.5-0.3-1-0.4-1.6-0.4c-1.9 0-3.4 1.5-3.4 3.4 c0 0.4 0.1 0.8 0.2 1.2c-1.7 1.2-3.5 2.2-5.2 3.1c1.2-2.8 2.4-6.1 3.4-9.6c3-0.6 7-1.5 10.7-2.7C41.1 30.2 39.7 32 38.1 33.6z M19.6 39.9c1.3 1 2.6 1.9 3.9 2.7c-1.4 0.4-2.7 0.7-4 0.9C19.5 42.5 19.5 41.2 19.6 39.9z M15.3 33.7c-0.3 0-0.6 0.1-0.9 0.2 c-0.2-0.3-0.5-0.6-0.7-0.9c1.5 0 3-0.1 4.5-0.2c-0.2 1.5-0.5 3-0.6 4.3c-0.3-0.2-0.5-0.5-0.8-0.7c0.2-0.3 0.3-0.6 0.3-0.9 C17.1 34.6 16.3 33.7 15.3 33.7z M14.2 17.3c0.3 0.2 0.7 0.3 1 0.3c1 0 1.8-0.8 1.8-1.8c0-0.4-0.1-0.7-0.3-1 c0.1-0.1 0.3-0.2 0.4-0.4c2.3-1.9 4.8-3.4 7.3-4.6c-0.9 2-1.7 4.2-2.5 6.7c-2.1 0.1-3.7 1.8-3.7 3.9c0 0.3 0 0.6 0.1 0.8 c-2.8 0.6-6.1 1.4-9 2.4C10.6 21.6 12.2 19.4 14.2 17.3z M33.7 11.2c-1.5-1.2-3.1-2.2-4.7-3c1.6-0.4 3.1-0.7 4.6-0.8 C33.7 8.5 33.7 9.8 33.7 11.2z M46 20.2c-0.3 1.2-0.8 2.5-1.4 3.8c-0.6-1.2-1.3-2.4-2.1-3.6c0.1-0.2 0.2-0.4 0.3-0.7 C44 19.9 45.1 20.1 46 20.2z M28.7 29.5c-0.5-1-1.4-1.6-2.6-1.6c-1.4 0-2.6 1.1-2.8 2.5c-0.9 0.1-1.7 0.2-2.5 0.3 c0.4-2.1 0.8-4.2 1.3-6.2c2.1 0 3.8-1.7 3.9-3.8c0.8-0.1 1.5-0.2 2.3-0.3c0.2 0.5 0.7 0.8 1.3 0.8c0.7 0 1.3-0.5 1.4-1.2 c0.7-0.1 1.4-0.1 2-0.2c-0.1 0.9-0.2 1.7-0.4 2.6c-0.9 0.1-1.7 0.8-1.7 1.8c0 0.7 0.4 1.3 1 1.6c-0.1 0.5-0.2 1-0.3 1.5 c-0.1 0.6-0.3 1.1-0.5 1.7C30.4 29.2 29.5 29.4 28.7 29.5z M32.6 27.1c0.1-0.4 0.2-0.7 0.3-1.1c1-0.1 1.7-0.8 1.7-1.8 c0-0.7-0.4-1.3-1-1.6c0.2-1 0.4-1.9 0.5-2.8c1-0.1 1.9-0.1 2.8-0.1c0.4 1.3 1.6 2.3 3 2.3c0.3 0 0.6-0.1 0.9-0.1 c0.9 1.4 1.7 2.7 2.4 4.1c-2.8 1-6.5 2.1-11 3C32.3 28.3 32.5 27.7 32.6 27.1z M36.8 18.8c-0.9 0.1-1.7 0.1-2.5 0.2 c0.2-1.4 0.4-2.7 0.5-4c0.4 0.4 0.9 0.8 1.3 1.2c0.4 0.4 0.8 0.8 1.2 1.2C36.9 17.8 36.8 18.3 36.8 18.8z M33.1 19.1 c-0.8 0.1-1.5 0.1-2.2 0.2c-0.2-0.6-0.7-0.9-1.3-0.9c-0.7 0-1.3 0.6-1.4 1.3c-1 0.1-1.8 0.2-2.2 0.3c-0.2-1.1-0.8-2.1-1.8-2.7 c0.9-2.8 1.9-5.4 2.9-7.7c2.2 1.1 4.4 2.6 6.5 4.4C33.5 15.6 33.3 17.3 33.1 19.1z M9 25.2c2.5-1.1 5.8-2.1 9.6-3.1 c0.3 0.7 0.8 1.2 1.4 1.6c0 0.1 0 0.2-0.1 0.2c-0.6 2.5-1 4.7-1.4 6.8c-2.4 0.2-4.5 0.3-6.3 0.3C10.9 29.2 9.8 27.2 9 25.2z M11.1 31.1c-1.8 0-3.3-0.2-4.4-0.4c0.3-1.5 0.8-3 1.5-4.5C9 27.9 10 29.5 11.1 31.1z M20.5 32.7c1.2-0.1 2.3-0.2 3.3-0.3 c0.5 0.7 1.4 1.2 2.3 1.2c1.3 0 2.3-0.8 2.7-1.9c0.5-0.1 1-0.2 1.7-0.3c-1.1 3.6-2.6 7.2-4.1 10.2c-0.5 0.2-1 0.4-1.6 0.6 c-1.8-0.9-3.5-2-5.2-3.2C19.8 37 20.1 34.9 20.5 32.7z M48.1 20.8c1.1 0.4 1.7 0.8 1.7 1.2c0 0 0 0 0 0c0 0.6-1 1.4-2.9 2.3 C47.4 23.2 47.8 22 48.1 20.8z M48.4 19.2c0.1-0.6 0.2-1.2 0.2-1.7c0.2 0.6 0.5 1.3 0.6 2C49 19.4 48.7 19.3 48.4 19.2z M46.3 18.8 c-1-0.1-2.1-0.2-3.3-0.2c-0.1-1.6-1.5-2.9-3.1-2.9c-0.4 0-0.7 0.1-1 0.2c-0.4-0.4-0.8-0.9-1.2-1.3c-0.9-0.9-1.8-1.7-2.7-2.4 c0.1-1.8 0.1-3.5-0.1-5c4.2-0.2 7.7 1 9.7 3.3c0.4 0.4 0.7 0.9 1 1.3C46.6 13.6 46.8 16 46.3 18.8z M36.9 5.5c-0.7 0-1.5 0-2.3 0.1 c-0.1-0.9-0.3-1.6-0.5-2.3C35.9 4 37.5 4.7 39 5.7C38.3 5.6 37.6 5.5 36.9 5.5z M32.1 2.9L32.1 2.9C32.2 2.9 32.2 2.9 32.1 2.9 c0.7 0.2 1.1 1.2 1.3 2.9c-1.7 0.3-3.4 0.7-5.2 1.4C29.7 4.5 31.1 2.7 32.1 2.9z M5.2 30.5c-1-0.3-1.7-0.6-1.9-1l0 0c0 0 0 0 0 0 c-0.5-0.6 0.8-1.8 3.5-3.2C6.1 27.7 5.5 29.1 5.2 30.5z M4.7 32.4c-0.1 0.6-0.2 1.2-0.2 1.8c-0.3-0.7-0.5-1.4-0.7-2.1 C4.1 32.2 4.4 32.3 4.7 32.4z M6.4 32.7c1.8 0.3 4 0.4 6.3 0.4c0.4 0.5 0.8 0.9 1.2 1.4c-0.2 0.3-0.3 0.7-0.3 1c0 1 0.8 1.8 1.8 1.8 c0.4 0 0.7-0.1 1-0.3c0.4 0.4 0.8 0.8 1.2 1.1c-0.2 2.1-0.3 4-0.2 5.6c-3.3 0.2-6-0.3-7.8-1.7c-0.5-0.5-0.9-1-1.3-1.5 C6.7 38.7 6.1 35.9 6.4 32.7z M17.6 45.9c0.1 0.7 0.3 1.3 0.5 1.8c-1.4-0.5-2.7-1.2-3.9-1.9C15.2 46 16.4 46 17.6 45.9z M21 48.6 L21 48.6C21 48.6 21 48.6 21 48.6c-0.7-0.4-1.1-1.4-1.3-2.8c1.7-0.2 3.5-0.7 5.3-1.3C23.3 47.3 21.8 49 21 48.6z M47.8 36 c0.1-2.7-0.5-5.8-1.8-8.9c1.6-0.7 3-1.4 4.1-2.2c0 0.3 0 0.6 0 0.9C50.1 29.4 49.3 32.9 47.8 36z M26.5 2.1c0.9 0 1.8 0.1 2.6 0.2 c-1 1-2.1 2.5-3.1 4.4c-3.5-1.5-7-2.2-10-2.1C19.2 3 22.7 2.1 26.5 2.1z M5.3 15.3c-0.1 2.8 0.6 6 2 9.2c-1.8 0.7-3.3 1.4-4.4 2.2 c0-0.3 0-0.7 0-1C2.9 22 3.8 18.5 5.3 15.3z M26.5 49.3c-1.1 0-2.2-0.1-3.3-0.2c1-1.1 2.2-2.7 3.3-4.9c3.4 1.6 6.8 2.5 9.8 2.6 c0.3 0 0.5 0 0.8 0C33.9 48.4 30.3 49.3 26.5 49.3z"/>
<path fill="#121212" d="M74 35.4h3.1v2.2h-8.6v-2.2h3.1V15.7h-3.1v-2.2h8.6v2.2H74V35.4z"/>
<path fill="#121212" d="M89.1 13.5c1.7 0 3.3 0.1 4.7 1.2c1.6 1.2 2.4 2.8 2.4 4.8c0 2.3-1.3 4.3-3.3 5.3c2.8 1 4.5 3.4 4.5 6.4 c0 1.8-0.7 3.6-2.1 4.9c-1.6 1.5-3.4 1.6-5.5 1.6H79.1v-2.2h3.1V15.7h-3.1v-2.2H89.1z M88.4 23.9c1.5 0 2.7 0 3.9-1 c1-0.8 1.4-1.9 1.4-3.2c0-1.3-0.5-2.5-1.6-3.3c-1.1-0.8-2.3-0.7-3.6-0.7h-3.8v8.2H88.4z M88.8 35.4c1.6 0 3.1 0 4.4-0.8 c1.2-0.8 1.7-2.4 1.7-3.8c0-1.5-0.7-3-1.9-3.9C91.6 26 90.1 26 88.5 26h-3.9v9.4H88.8z"/>
<path fill="#121212" d="M104.8 35.4h3.2v2.2h-8.7v-2.2h3.1V15.7h-3.1v-2.2h6.8l8.7 20.5l9.6-20.5h6.7v2.2h-3.1v19.6h3.1v2.2h-8.6 v-2.2h3.1V16.6l-9.9 21h-1.9l-9-20.9V35.4z"/>
<path d="M167.9 37.6h-4.4l-4.5-15.9l-4.5 15.9h-4.3l-5.8-20.3h-2.4v-3.8h9.8v3.8h-2.6l3.4 12.7l4.4-16.5h3.9l4.6 16.4l3.2-12.5h-2.7 v-3.8h9.8v3.8h-2.7L167.9 37.6z"/>
<path d="M188.6 34.2h2.7l-1.4-3.6h-8.5l-1.4 3.6h2.6v3.4h-9.8v-3.8h2.6l7-16.4h-2.7v-3.8h8.1l8.4 20.3h2.6v3.8h-10.2V34.2z M185.7 18.8L185.7 18.8l-3.1 8.3h6.1L185.7 18.8z"/>
<path d="M208.8 33.8h2.6v3.8h-9.9v-3.8h2.6V17.6h-3.5v3.5H197v-7.6h19v7.6h-3.6v-3.5h-3.5V33.8z"/>
<path d="M222.2 30.5c0 2 1.4 3.7 3.6 3.7c2 0 3.5-1.2 3.5-3.3c0-2.4-2.3-3-4.1-3.5c-1.8-0.5-3.2-0.9-4.7-2.1 c-1.7-1.3-2.6-3.1-2.6-5.3c0-4 3.4-7 7.3-7c1.7 0 3.3 0.5 4.3 1.9v-1.4h3.5V20h-4.1c0-1.8-1.4-3.1-3.1-3.1c-1.8 0-3.3 1.1-3.3 3 c0 2.4 2.1 2.9 3.9 3.4c1.9 0.5 3.6 1 5.2 2.2c1.6 1.2 2.4 3 2.4 5.1c0 4.4-3.2 7.6-7.6 7.6c-1.9 0-3.5-0.6-4.6-2.1v1.6H218v-7.2 H222.2z"/>
<path d="M235.4 25.6c0-7.1 5.7-12.7 12.7-12.7c6.9 0 12.6 5.6 12.6 12.5c0 7.1-5.6 12.8-12.7 12.8C241 38.1 235.4 32.5 235.4 25.6z M255.9 25.4c0-4.3-3.5-7.9-7.9-7.9c-4.4 0-8 3.5-8 7.9c0 4.5 3.4 8.1 7.9 8.1C252.5 33.5 255.9 29.9 255.9 25.4z"/>
<path d="M283.9 37.6h-4.3l-11.3-15.9v12h2.6v3.8h-9.8v-3.8h2.6V17.4h-2.6v-3.8h6.8l11.5 16.1V17.4h-2.6v-3.8h9.8v3.8h-2.6V37.6z"/>
</svg>
