<svg xmlns="http://www.w3.org/2000/svg" width="300.3" height="51.4" viewBox="-361 359.6 300.3 51.4"><path d="M-316.2 403.4l.2-.2c4.5-4.6 7.3-10.9 7.3-17.9 0-1.4-.1-2.7-.3-4-.7-4.6-2.7-8.8-5.5-12.2l-.1-.1-.2-.2c-4.8-5.6-11.8-9.2-19.7-9.2-7.1 0-13.5 2.9-18.1 7.5l-.1.1c-.1.1-.2.1-.2.2-4.5 4.6-7.3 11-7.3 17.9 0 1.4.1 2.7.3 4 .7 4.6 2.7 8.8 5.5 12.2l.1.1c0 .1.1.1.2.2 4.7 5.6 11.8 9.2 19.7 9.2 7 0 13.4-2.8 18.1-7.4-.1-.1 0-.1.1-.2zm-1.6-1.4c-3.2 3.1-9.2 3.4-15.6.9 2.4-1 4.7-2.4 7-4 .5.4 1.2.6 1.9.6 1.9 0 3.4-1.5 3.4-3.4 0-.5-.1-1-.4-1.5 1.9-1.9 3.6-4 4.9-6.1 1.9 5.4 1.7 10.3-1.1 13.2 0 .1 0 .2-.1.3zm-33.6-33.1c.1-.1.2-.2.2-.3 3.2-3.1 9.1-3.1 15.2-.5-2.8 1.4-5.6 3.1-8.3 5.4-.2.1-.3.3-.5.5-.2-.2-.6-.4-1-.4-1 0-1.8.8-1.8 1.8 0 .3.1.7.3.9-2.1 2.1-3.9 4.4-5.4 6.7-1.9-5.7-1.5-11.1 1.3-14.1zm28.5 24.3c-.5-.3-1-.4-1.6-.4-1.9 0-3.4 1.5-3.4 3.4 0 .4.1.8.2 1.2-1.7 1.2-3.5 2.2-5.2 3.1 1.2-2.8 2.4-6.1 3.4-9.6 3-.6 7-1.5 10.7-2.7-1.1 1.6-2.5 3.4-4.1 5zm-18.5 6.3c1.3 1 2.6 1.9 3.9 2.7-1.4.4-2.7.7-4 .9 0-1 0-2.3.1-3.6zm-4.3-6.2c-.3 0-.6.1-.9.2-.2-.3-.5-.6-.7-.9 1.5 0 3-.1 4.5-.2-.2 1.5-.5 3-.6 4.3-.3-.2-.5-.5-.8-.7.2-.3.3-.6.3-.9 0-.9-.8-1.8-1.8-1.8zm-1.1-16.4c.3.2.7.3 1 .3 1 0 1.8-.8 1.8-1.8 0-.4-.1-.7-.3-1 .1-.1.3-.2.4-.4 2.3-1.9 4.8-3.4 7.3-4.6-.9 2-1.7 4.2-2.5 6.7-2.1.1-3.7 1.8-3.7 3.9 0 .3 0 .6.1.8-2.8.6-6.1 1.4-9 2.4 1.3-2 2.9-4.2 4.9-6.3zm19.5-6.1c-1.5-1.2-3.1-2.2-4.7-3 1.6-.4 3.1-.7 4.6-.8.1 1.1.1 2.4.1 3.8zm12.3 9c-.3 1.2-.8 2.5-1.4 3.8-.6-1.2-1.3-2.4-2.1-3.6.1-.2.2-.4.3-.7 1.2.2 2.3.4 3.2.5zm-17.3 9.3c-.5-1-1.4-1.6-2.6-1.6-1.4 0-2.6 1.1-2.8 2.5-.9.1-1.7.2-2.5.3.4-2.1.8-4.2 1.3-6.2 2.1 0 3.8-1.7 3.9-3.8.8-.1 1.5-.2 2.3-.3.2.5.7.8 1.3.8.7 0 1.3-.5 1.4-1.2.7-.1 1.4-.1 2-.2-.1.9-.2 1.7-.4 2.6-.9.1-1.7.8-1.7 1.8 0 .7.4 1.3 1 1.6l-.3 1.5c-.1.6-.3 1.1-.5 1.7-.7.2-1.6.4-2.4.5zm3.9-2.4c.1-.4.2-.7.3-1.1 1-.1 1.7-.8 1.7-1.8 0-.7-.4-1.3-1-1.6.2-1 .4-1.9.5-2.8 1-.1 1.9-.1 2.8-.1.4 1.3 1.6 2.3 3 2.3.3 0 .6-.1.9-.1.9 1.4 1.7 2.7 2.4 4.1-2.8 1-6.5 2.1-11 3 .1-.7.3-1.3.4-1.9zm4.2-8.3c-.9.1-1.7.1-2.5.2.2-1.4.4-2.7.5-4 .4.4.9.8 1.3 1.2l1.2 1.2c-.4.4-.5.9-.5 1.4zm-3.7.3c-.8.1-1.5.1-2.2.2-.2-.6-.7-.9-1.3-.9-.7 0-1.3.6-1.4 1.3-1 .1-1.8.2-2.2.3-.2-1.1-.8-2.1-1.8-2.7.9-2.8 1.9-5.4 2.9-7.7 2.2 1.1 4.4 2.6 6.5 4.4-.1 1.6-.3 3.3-.5 5.1zm-24.1 6.1c2.5-1.1 5.8-2.1 9.6-3.1.3.7.8 1.2 1.4 1.6 0 .1 0 .2-.1.2-.6 2.5-1 4.7-1.4 6.8-2.4.2-4.5.3-6.3.3-1.3-1.8-2.4-3.8-3.2-5.8zm2.1 5.9c-1.8 0-3.3-.2-4.4-.4.3-1.5.8-3 1.5-4.5.8 1.7 1.8 3.3 2.9 4.9zm9.4 1.6c1.2-.1 2.3-.2 3.3-.3.5.7 1.4 1.2 2.3 1.2 1.3 0 2.3-.8 2.7-1.9.5-.1 1-.2 1.7-.3-1.1 3.6-2.6 7.2-4.1 10.2-.5.2-1 .4-1.6.6-1.8-.9-3.5-2-5.2-3.2.2-2 .5-4.1.9-6.3zm27.6-11.9c1.1.4 1.7.8 1.7 1.2 0 .6-1 1.4-2.9 2.3.5-1.1.9-2.3 1.2-3.5zm.3-1.6c.1-.6.2-1.2.2-1.7.2.6.5 1.3.6 2-.2-.1-.5-.2-.8-.3zm-2.1-.4c-1-.1-2.1-.2-3.3-.2-.1-1.6-1.5-2.9-3.1-2.9-.4 0-.7.1-1 .2-.4-.4-.8-.9-1.2-1.3-.9-.9-1.8-1.7-2.7-2.4.1-1.8.1-3.5-.1-5 4.2-.2 7.7 1 9.7 3.3.4.4.7.9 1 1.3 1 1.8 1.2 4.2.7 7zm-9.4-13.3c-.7 0-1.5 0-2.3.1-.1-.9-.3-1.6-.5-2.3 1.8.7 3.4 1.4 4.9 2.4-.7-.1-1.4-.2-2.1-.2zm-4.8-2.6c.1 0 .1 0 0 0 .7.2 1.1 1.2 1.3 2.9-1.7.3-3.4.7-5.2 1.4 1.5-2.7 2.9-4.5 3.9-4.3zm-26.9 27.6c-1-.3-1.7-.6-1.9-1-.5-.6.8-1.8 3.5-3.2-.7 1.4-1.3 2.8-1.6 4.2zm-.5 1.9c-.1.6-.2 1.2-.2 1.8-.3-.7-.5-1.4-.7-2.1l.9.3zm1.7.3c1.8.3 4 .4 6.3.4.4.5.8.9 1.2 1.4-.2.3-.3.7-.3 1 0 1 .8 1.8 1.8 1.8.4 0 .7-.1 1-.3.4.4.8.8 1.2 1.1-.2 2.1-.3 4-.2 5.6-3.3.2-6-.3-7.8-1.7-.5-.5-.9-1-1.3-1.5-1.6-1.8-2.2-4.6-1.9-7.8zm11.2 13.2c.1.7.3 1.3.5 1.8-1.4-.5-2.7-1.2-3.9-1.9 1 .2 2.2.2 3.4.1zm3.4 2.7c-.7-.4-1.1-1.4-1.3-2.8 1.7-.2 3.5-.7 5.3-1.3-1.7 2.8-3.2 4.5-4 4.1zm26.8-12.6c.1-2.7-.5-5.8-1.8-8.9 1.6-.7 3-1.4 4.1-2.2v.9c0 3.6-.8 7.1-2.3 10.2zm-21.3-33.9c.9 0 1.8.1 2.6.2-1 1-2.1 2.5-3.1 4.4-3.5-1.5-7-2.2-10-2.1 3.2-1.6 6.7-2.5 10.5-2.5zm-21.2 13.2c-.1 2.8.6 6 2 9.2-1.8.7-3.3 1.4-4.4 2.2v-1c0-3.7.9-7.2 2.4-10.4zm21.2 34c-1.1 0-2.2-.1-3.3-.2 1-1.1 2.2-2.7 3.3-4.9 3.4 1.6 6.8 2.5 9.8 2.6h.8c-3.2 1.6-6.8 2.5-10.6 2.5zM-287 395h3.1v2.2h-8.6V395h3.1v-19.7h-3.1v-2.2h8.6v2.2h-3.1V395zM-271.9 373.1c1.7 0 3.3.1 4.7 1.2 1.6 1.2 2.4 2.8 2.4 4.8 0 2.3-1.3 4.3-3.3 5.3 2.8 1 4.5 3.4 4.5 6.4 0 1.8-.7 3.6-2.1 4.9-1.6 1.5-3.4 1.6-5.5 1.6h-10.7v-2.2h3.1v-19.8h-3.1v-2.2h10zm-.7 10.4c1.5 0 2.7 0 3.9-1 1-.8 1.4-1.9 1.4-3.2 0-1.3-.5-2.5-1.6-3.3-1.1-.8-2.3-.7-3.6-.7h-3.8v8.2h3.7zm.4 11.5c1.6 0 3.1 0 4.4-.8 1.2-.8 1.7-2.4 1.7-3.8 0-1.5-.7-3-1.9-3.9-1.4-.9-2.9-.9-4.5-.9h-3.9v9.4h4.2zM-256.2 395h3.2v2.2h-8.7V395h3.1v-19.7h-3.1v-2.2h6.8l8.7 20.5 9.6-20.5h6.7v2.2h-3.1v19.6h3.1v2.2h-8.6v-2.2h3.1v-18.7l-9.9 21h-1.9l-9-20.9V395zM-193.1 397.2h-4.4l-4.5-15.9-4.5 15.9h-4.3l-5.8-20.3h-2.4v-3.8h9.8v3.8h-2.6l3.4 12.7 4.4-16.5h3.9l4.6 16.4 3.2-12.5h-2.7v-3.8h9.8v3.8h-2.7l-5.2 20.2zM-172.4 393.8h2.7l-1.4-3.6h-8.5l-1.4 3.6h2.6v3.4h-9.8v-3.8h2.6l7-16.4h-2.7v-3.8h8.1l8.4 20.3h2.6v3.8h-10.2v-3.5zm-2.9-15.4l-3.1 8.3h6.1l-3-8.3zM-152.2 393.4h2.6v3.8h-9.9v-3.8h2.6v-16.2h-3.5v3.5h-3.6v-7.6h19v7.6h-3.6v-3.5h-3.5l-.1 16.2zM-138.8 390.1c0 2 1.4 3.7 3.6 3.7 2 0 3.5-1.2 3.5-3.3 0-2.4-2.3-3-4.1-3.5s-3.2-.9-4.7-2.1c-1.7-1.3-2.6-3.1-2.6-5.3 0-4 3.4-7 7.3-7 1.7 0 3.3.5 4.3 1.9v-1.4h3.5v6.5h-4.1c0-1.8-1.4-3.1-3.1-3.1-1.8 0-3.3 1.1-3.3 3 0 2.4 2.1 2.9 3.9 3.4 1.9.5 3.6 1 5.2 2.2 1.6 1.2 2.4 3 2.4 5.1 0 4.4-3.2 7.6-7.6 7.6-1.9 0-3.5-.6-4.6-2.1v1.6h-3.8v-7.2h4.2zM-125.6 385.2c0-7.1 5.7-12.7 12.7-12.7 6.9 0 12.6 5.6 12.6 12.5 0 7.1-5.6 12.8-12.7 12.8-7-.1-12.6-5.7-12.6-12.6zm20.5-.2c0-4.3-3.5-7.9-7.9-7.9s-8 3.5-8 7.9c0 4.5 3.4 8.1 7.9 8.1 4.6 0 8-3.6 8-8.1zM-77.1 397.2h-4.3l-11.3-15.9v12h2.6v3.8h-9.8v-3.8h2.6V377h-2.6v-3.8h6.8l11.5 16.1V377h-2.6v-3.8h9.8v3.8H-77v20.2h-.1z"/></svg>