<svg xmlns="http://www.w3.org/2000/svg" xmlns:xlink="http://www.w3.org/1999/xlink" version="1.1" id="art" x="0px" y="0px" width="227.2px" height="52.7px" viewBox="0 0 227.2 52.7" enable-background="new 0 0 227.2 52.7" xml:space="preserve">
<path fill="#121212" d="M43.5 13.5h2.4v25.1h-2.4V13.5z"/>
<path fill="#121212" d="M50.5 13.5h10.6c4.2 0 8 1.5 8 6.1c0 2.6-1.8 5.1-4.4 5.6v0.1c3.2 0.4 5.3 2.8 5.3 6.1c0 2.4-0.8 7.1-9 7.1 H50.5V13.5z M52.9 24.5h8.2c3.8 0 5.7-1.9 5.7-4.2c0-3.1-1.9-4.7-5.7-4.7h-8.2V24.5z M52.9 36.6h8.2c3.5 0 6.6-1.1 6.6-5.2 c0-3.2-2.4-4.8-6.6-4.8h-8.2V36.6z"/>
<path fill="#121212" d="M73.2 13.5h3.5l8.7 22l8.6-22h3.5v25.1h-2.4V16.9h-0.1l-8.6 21.7h-2.2l-8.6-21.7h-0.1v21.7h-2.4V13.5z"/>
<path fill="#121212" d="M134.2 38.6h-5.5l-4.2-17.1h-0.1l-4.2 17.1h-5.6l-6.6-25.1h5.5l4 17.1h0.1l4.4-17.1h5.2l4.3 17.3h0.1 l4.1-17.3h5.4L134.2 38.6z"/>
<path fill="#121212" d="M139.9 26c0.3-4.6 4.5-6.1 8.5-6.1c3.6 0 8 0.8 8 5.2v9.4c0 1.6 0.2 3.3 0.6 4h-5.1 c-0.2-0.6-0.3-1.2-0.4-1.8c-1.6 1.6-3.9 2.2-6.1 2.2c-3.5 0-6.2-1.7-6.2-5.4c0.1-8.3 12.3-3.8 12.1-7.9c0-2.1-1.5-2.5-3.2-2.5 c-1.9 0-3.1 0.8-3.3 2.7H139.9z M151.4 29.7c-0.8 0.7-2.6 0.8-4.1 1.1c-1.5 0.3-2.9 0.8-2.9 2.7c0 1.8 1.4 2.3 3.1 2.3 c3.9 0 4-3.1 4-4.2V29.7z"/>
<path fill="#121212" d="M165.5 20.4h3.7v3.3h-3.7v9c0 1.7 0.4 2.1 2.1 2.1c0.6 0 1.1 0 1.5-0.1v3.9c-0.8 0.1-1.9 0.2-2.9 0.2 c-3.1 0-5.7-0.7-5.7-4.3V23.8h-3v-3.3h3V15h5V20.4z"/>
<path fill="#121212" d="M175.2 32.7c0 2.1 1.9 3.1 3.8 3.1c1.4 0 3.3-0.6 3.3-2.3c0-1.5-2.1-2.1-5.7-2.8c-2.9-0.7-5.8-1.6-5.8-4.8 c0-4.6 4-5.8 7.9-5.8c3.9 0 7.6 1.3 8 5.8H182c-0.1-1.9-1.6-2.5-3.4-2.5c-1.1 0-2.8 0.2-2.8 1.7c0 1.8 2.8 2 5.7 2.7 c2.9 0.7 5.8 1.7 5.8 5.1c0 4.8-4.2 6.3-8.3 6.3c-4.2 0-8.4-1.6-8.5-6.4H175.2z"/>
<path fill="#121212" d="M198.1 19.9c5.7 0 9.4 3.8 9.4 9.6c0 5.8-3.7 9.5-9.4 9.5c-5.7 0-9.4-3.8-9.4-9.5 C188.7 23.7 192.4 19.9 198.1 19.9z M198.1 35.3c3.4 0 4.4-2.9 4.4-5.8c0-2.9-1-5.8-4.4-5.8c-3.4 0-4.4 2.9-4.4 5.8 C193.7 32.4 194.7 35.3 198.1 35.3z"/>
<path fill="#121212" d="M209.3 20.4h4.7V23h0.1c1.3-2.1 3.4-3 5.5-3c5.3 0 6.6 3 6.6 7.5v11.2h-5V28.3c0-3-0.8-4.5-3.2-4.5 c-2.7 0-3.9 1.5-3.9 5.2v9.5h-5V20.4z"/>
<path fill="#121212" d="M27.2 22.3C27.2 22.3 27.2 22.3 27.2 22.3L27.2 22.3L27.2 22.3C27.2 22.3 27.2 22.3 27.2 22.3 c-0.7-4.6-2.7-8.8-5.5-12.2c0 0-0.1-0.1-0.1-0.1h0c-0.1-0.1-0.1-0.1-0.2-0.2C16.7 4.1 9.6 0.6 1.8 0.6h0v2.1h0 c0.9 0 1.8 0.1 2.6 0.2C3.5 3.7 2.7 4.9 1.8 6.5v5.2c0.2-0.5 0.4-1 0.6-1.5c2.2 1.1 4.4 2.6 6.5 4.4c-0.1 1.6-0.3 3.4-0.5 5.1 c-0.8 0.1-1.5 0.1-2.2 0.2c-0.2-0.6-0.7-0.9-1.3-0.9c-0.7 0-1.3 0.6-1.4 1.3c-0.7 0.1-1.2 0.2-1.7 0.2v0.8C2.4 21.1 3 21 3.5 20.9 c0.2 0.5 0.7 0.8 1.3 0.8c0.7 0 1.3-0.5 1.4-1.2c0.7-0.1 1.4-0.1 2-0.2C8.2 21.3 8 22.2 7.9 23c-0.9 0.1-1.7 0.8-1.7 1.8 c0 0.7 0.4 1.3 1 1.6c-0.1 0.5-0.2 1-0.3 1.5c-0.1 0.6-0.3 1.1-0.5 1.7c-0.8 0.2-1.6 0.3-2.5 0.5c-0.4-0.9-1.2-1.5-2.2-1.6v5.7 c1.1-0.2 2-0.9 2.3-1.9c0.5-0.1 1-0.2 1.7-0.3c-1.1 3.5-2.6 7.1-4 10v2.8c3.4 1.6 6.8 2.5 9.8 2.6c0.3 0 0.5 0 0.8 0 C9.2 49 5.6 49.9 1.8 49.9h0V52h0c7 0 13.4-2.8 18.1-7.4c0.1-0.1 0.2-0.1 0.2-0.2l0 0l0 0l0 0c0.1-0.1 0.1-0.1 0.2-0.2 c4.5-4.6 7.3-10.9 7.3-17.9C27.5 24.9 27.4 23.6 27.2 22.3z M23.9 18.1c0.2 0.6 0.5 1.3 0.6 2c-0.3-0.1-0.5-0.2-0.8-0.2 C23.8 19.2 23.8 18.6 23.9 18.1z M23.4 21.4c1.1 0.4 1.7 0.8 1.7 1.2c0 0 0 0 0 0c0 0.6-1 1.4-2.9 2.3 C22.7 23.7 23.1 22.5 23.4 21.4z M19.8 11.1c0.4 0.4 0.7 0.9 1 1.3c1 1.7 1.2 4.2 0.7 7c-1-0.1-2.1-0.2-3.3-0.2 c-0.1-1.6-1.5-2.9-3.1-2.9c-0.4 0-0.7 0.1-1 0.2c-0.4-0.4-0.8-0.9-1.2-1.3c-0.9-0.9-1.8-1.7-2.7-2.4c0.1-1.8 0.1-3.5-0.1-5 C14.3 7.7 17.8 8.8 19.8 11.1z M12.4 17.9c-0.2 0.4-0.4 0.9-0.4 1.4c-0.9 0.1-1.7 0.1-2.5 0.2c0.2-1.4 0.4-2.7 0.5-4 c0.4 0.4 0.9 0.8 1.3 1.2C11.7 17.1 12 17.5 12.4 17.9z M14.2 6.3c-0.7-0.1-1.3-0.1-2-0.1c-0.7 0-1.5 0-2.3 0.1 C9.8 5.4 9.6 4.6 9.4 4C11.1 4.6 12.7 5.3 14.2 6.3z M7.4 3.5L7.4 3.5C7.4 3.5 7.4 3.5 7.4 3.5c0.7 0.2 1.1 1.2 1.3 2.9 C7 6.7 5.3 7.2 3.5 7.8C4.9 5.1 6.3 3.3 7.4 3.5z M4.3 8.8c1.6-0.4 3.1-0.7 4.6-0.8C9 9.1 9 10.4 9 11.8C7.4 10.6 5.9 9.6 4.3 8.8z M7.9 27.7C8 27.3 8 27 8.1 26.6c1-0.1 1.7-0.8 1.7-1.8c0-0.7-0.4-1.3-1-1.6c0.2-1 0.4-1.9 0.5-2.8c1-0.1 1.9-0.1 2.8-0.1 c0.4 1.3 1.6 2.3 3 2.3c0.3 0 0.6-0.1 0.9-0.1c0.9 1.4 1.7 2.7 2.4 4.1c-2.8 1-6.5 2.1-11 3C7.6 28.9 7.7 28.3 7.9 27.7z M6.8 31.7 c3-0.6 7-1.5 10.7-2.7c-1.2 1.8-2.5 3.5-4.1 5.2c-0.5-0.3-1-0.4-1.6-0.4c-1.9 0-3.4 1.5-3.4 3.4c0 0.4 0.1 0.8 0.2 1.2 c-1.7 1.2-3.5 2.2-5.2 3.1C4.6 38.6 5.7 35.3 6.8 31.7z M18.7 42.7c-0.1 0.1-0.2 0.2-0.2 0.3c-3.2 3.1-9.2 3.4-15.6 0.9 c2.4-1 4.7-2.4 7-4c0.5 0.4 1.2 0.6 1.9 0.6c1.9 0 3.4-1.5 3.4-3.4c0-0.5-0.1-1-0.4-1.5c1.9-1.9 3.6-4 4.9-6.1 C21.6 34.9 21.4 39.8 18.7 42.7z M19.9 24.6c-0.6-1.2-1.3-2.4-2.1-3.6c0.1-0.2 0.2-0.4 0.3-0.7c1.2 0.1 2.3 0.2 3.2 0.4 C20.9 22.1 20.5 23.3 19.9 24.6z M23 36.5c0.1-2.7-0.5-5.8-1.8-8.9c1.6-0.7 3-1.4 4.1-2.2c0 0.3 0 0.6 0 0.9 C25.4 30 24.5 33.4 23 36.5z"/>
<g>
	<rect x="0.8" y="0.6" fill="#121212" width="2" height="51.4"/>
</g>
</svg>
