<?xml version="1.0" encoding="utf-8"?>
<!-- Generator: Adobe Illustrator 18.1.1, SVG Export Plug-In . SVG Version: 6.00 Build 0)  -->
<!DOCTYPE svg PUBLIC "-//W3C//DTD SVG 1.1//EN" "http://www.w3.org/Graphics/SVG/1.1/DTD/svg11.dtd">
<svg version="1.1" id="art" xmlns="http://www.w3.org/2000/svg" xmlns:xlink="http://www.w3.org/1999/xlink" x="0px" y="0px"
	 width="184.5px" height="97.9px" viewBox="0 0 184.5 97.9" enable-background="new 0 0 184.5 97.9" xml:space="preserve">
<path fill="#121212" d="M0.9,71.6h2.4v25.1H0.9V71.6z"/>
<path fill="#121212" d="M7.9,71.6h10.6c4.2,0,8,1.5,8,6.1c0,2.6-1.8,5.1-4.4,5.6v0.1c3.2,0.4,5.3,2.8,5.3,6.1c0,2.4-0.8,7.1-9,7.1
	H7.9V71.6z M10.3,82.5h8.2c3.8,0,5.7-1.9,5.7-4.2c0-3.1-1.9-4.7-5.7-4.7h-8.2V82.5z M10.3,94.6h8.2c3.5,0,6.6-1.1,6.6-5.2
	c0-3.2-2.4-4.8-6.6-4.8h-8.2V94.6z"/>
<path fill="#121212" d="M30.6,71.6h3.5l8.7,22l8.6-22h3.5v25.1h-2.4V75h-0.1l-8.6,21.7h-2.2L33,75H33v21.7h-2.4V71.6z"/>
<path fill="#121212" d="M91.6,96.6h-5.5l-4.2-17.1h-0.1l-4.2,17.1h-5.6l-6.6-25.1h5.5l4,17.1H75l4.4-17.1h5.2l4.3,17.3h0.1L93,71.6
	h5.4L91.6,96.6z"/>
<path fill="#121212" d="M97.3,84.1c0.3-4.6,4.5-6.1,8.5-6.1c3.6,0,8,0.8,8,5.2v9.4c0,1.6,0.2,3.3,0.6,4h-5.1
	c-0.2-0.6-0.3-1.2-0.4-1.8c-1.6,1.6-3.9,2.2-6.1,2.2c-3.5,0-6.2-1.7-6.2-5.4c0.1-8.3,12.3-3.8,12.1-7.9c0-2.1-1.5-2.5-3.2-2.5
	c-1.9,0-3.1,0.8-3.3,2.7H97.3z M108.8,87.7c-0.8,0.7-2.6,0.8-4.1,1.1c-1.5,0.3-2.9,0.8-2.9,2.7c0,1.8,1.4,2.3,3.1,2.3
	c3.9,0,4-3.1,4-4.2V87.7z"/>
<path fill="#121212" d="M122.8,78.5h3.7v3.3h-3.7v9c0,1.7,0.4,2.1,2.1,2.1c0.6,0,1.1,0,1.5-0.1v3.9c-0.8,0.1-1.9,0.2-2.9,0.2
	c-3.1,0-5.7-0.7-5.7-4.3V81.8h-3v-3.3h3V73h5V78.5z"/>
<path fill="#121212" d="M132.6,90.7c0,2.1,1.9,3.1,3.8,3.1c1.4,0,3.3-0.6,3.3-2.3c0-1.5-2.1-2.1-5.7-2.8c-2.9-0.7-5.8-1.6-5.8-4.8
	c0-4.6,4-5.8,7.9-5.8c3.9,0,7.6,1.3,8,5.8h-4.7c-0.1-1.9-1.6-2.5-3.4-2.5c-1.1,0-2.8,0.2-2.8,1.7c0,1.8,2.8,2,5.7,2.7
	c2.9,0.7,5.8,1.7,5.8,5.1c0,4.8-4.2,6.3-8.3,6.3c-4.2,0-8.4-1.6-8.5-6.4H132.6z"/>
<path fill="#121212" d="M155.5,78c5.7,0,9.4,3.8,9.4,9.6c0,5.8-3.7,9.5-9.4,9.5c-5.7,0-9.4-3.8-9.4-9.5
	C146.1,81.8,149.8,78,155.5,78z M155.5,93.4c3.4,0,4.4-2.9,4.4-5.8c0-2.9-1-5.8-4.4-5.8c-3.4,0-4.4,2.9-4.4,5.8
	C151.1,90.5,152.1,93.4,155.5,93.4z"/>
<path fill="#121212" d="M166.7,78.5h4.7V81h0.1c1.3-2.1,3.4-3,5.5-3c5.3,0,6.6,3,6.6,7.5v11.2h-5V86.4c0-3-0.8-4.5-3.2-4.5
	c-2.7,0-3.9,1.5-3.9,5.2v9.5h-5V78.5z"/>
<path fill="#121212" d="M44.8,48c0.1-0.1,0.1-0.1,0.2-0.2c4.5-4.6,7.3-10.9,7.3-17.9c0-1.4-0.1-2.7-0.3-4c0,0,0,0,0,0l0,0l0,0
	c0,0,0,0,0,0c-0.7-4.6-2.7-8.8-5.5-12.2c0,0-0.1-0.1-0.1-0.1l0,0c-0.1-0.1-0.1-0.1-0.2-0.2c-4.7-5.6-11.8-9.1-19.6-9.1
	c-7.1,0-13.5,2.9-18.1,7.5c0,0-0.1,0.1-0.1,0.1l0,0C8.1,11.9,8.1,11.9,8,12c-4.5,4.6-7.3,11-7.3,17.9c0,1.4,0.1,2.7,0.3,4
	c0,0,0,0,0,0c0,0,0,0,0,0c0.7,4.6,2.7,8.8,5.5,12.2c0,0,0.1,0.1,0.1,0.1l0,0c0,0,0,0,0,0l0,0c0,0.1,0.1,0.1,0.2,0.2
	c4.7,5.6,11.8,9.2,19.7,9.2c7,0,13.4-2.8,18.1-7.4C44.6,48.1,44.7,48.1,44.8,48L44.8,48L44.8,48L44.8,48z M43.1,46.6
	c-3.2,3.1-9.2,3.4-15.6,0.9c2.4-1,4.7-2.4,7-4c0.5,0.4,1.2,0.6,1.9,0.6c1.9,0,3.4-1.5,3.4-3.4c0-0.5-0.1-1-0.4-1.5
	c1.9-1.9,3.6-4,4.9-6.1c1.9,5.4,1.7,10.3-1.1,13.2C43.3,46.4,43.2,46.5,43.1,46.6z M9.6,13.4c0.1-0.1,0.2-0.2,0.2-0.2
	c3.2-3.1,9.1-3.1,15.2-0.5c0,0,0,0,0,0c-2.8,1.4-5.6,3.1-8.3,5.4c-0.2,0.1-0.3,0.3-0.5,0.5c-0.3-0.2-0.7-0.3-1.1-0.3
	c-1,0-1.8,0.8-1.8,1.8c0,0.3,0.1,0.7,0.3,0.9c-2.1,2.1-3.9,4.4-5.4,6.7C6.3,21.9,6.7,16.5,9.6,13.4z M38.1,37.8
	c-0.5-0.3-1-0.4-1.6-0.4c-1.9,0-3.4,1.5-3.4,3.4c0,0.4,0.1,0.8,0.2,1.2c-1.7,1.2-3.5,2.2-5.2,3.1c1.2-2.8,2.4-6.1,3.4-9.6
	c3-0.6,7-1.5,10.7-2.7C41.1,34.4,39.7,36.1,38.1,37.8z M19.6,44.1c1.3,1,2.6,1.9,3.9,2.7c-1.4,0.4-2.7,0.7-4,0.9
	C19.4,46.6,19.5,45.4,19.6,44.1z M15.3,37.9c-0.3,0-0.6,0.1-0.9,0.2c-0.2-0.3-0.5-0.6-0.7-0.9c1.5,0,3-0.1,4.5-0.2
	c-0.2,1.5-0.5,3-0.6,4.3c-0.3-0.2-0.5-0.5-0.8-0.7c0.2-0.3,0.3-0.6,0.3-0.9C17.1,38.7,16.3,37.9,15.3,37.9z M14.1,21.5
	c0.3,0.2,0.7,0.3,1,0.3c1,0,1.8-0.8,1.8-1.8c0-0.4-0.1-0.7-0.3-1c0.1-0.1,0.3-0.2,0.4-0.4c2.3-1.9,4.8-3.4,7.3-4.6
	c-0.9,2-1.7,4.2-2.5,6.7c-2.1,0.1-3.7,1.8-3.7,3.9c0,0.3,0,0.6,0.1,0.8c-2.8,0.6-6.1,1.4-9,2.4C10.6,25.8,12.2,23.6,14.1,21.5z
	 M33.7,15.4c-1.5-1.2-3.1-2.2-4.7-3c1.6-0.4,3.1-0.7,4.6-0.8C33.7,12.7,33.7,14,33.7,15.4z M46,24.4c-0.3,1.2-0.8,2.5-1.4,3.8
	c-0.6-1.2-1.3-2.4-2.1-3.6c0.1-0.2,0.2-0.4,0.3-0.7C44,24.1,45.1,24.2,46,24.4z M28.7,33.7c-0.5-1-1.4-1.6-2.6-1.6
	c-1.4,0-2.6,1.1-2.8,2.5c-0.9,0.1-1.7,0.2-2.5,0.3c0.4-2.1,0.8-4.2,1.3-6.2c2.1,0,3.8-1.7,3.9-3.8c0.8-0.1,1.5-0.2,2.3-0.3
	c0.2,0.5,0.7,0.8,1.3,0.8c0.7,0,1.3-0.5,1.4-1.2c0.7-0.1,1.4-0.1,2-0.2c-0.1,0.9-0.2,1.7-0.4,2.6c-0.9,0.1-1.7,0.8-1.7,1.8
	c0,0.7,0.4,1.3,1,1.6c-0.1,0.5-0.2,1-0.3,1.5c-0.1,0.6-0.3,1.1-0.5,1.7C30.3,33.4,29.5,33.6,28.7,33.7z M32.6,31.3
	c0.1-0.4,0.2-0.7,0.3-1.1c1-0.1,1.7-0.8,1.7-1.8c0-0.7-0.4-1.3-1-1.6c0.2-1,0.4-1.9,0.5-2.8c1-0.1,1.9-0.1,2.8-0.1
	c0.4,1.3,1.6,2.3,3,2.3c0.3,0,0.6-0.1,0.9-0.1c0.9,1.4,1.7,2.7,2.4,4.1c-2.8,1-6.5,2.1-11,3C32.3,32.5,32.4,31.9,32.6,31.3z
	 M36.8,23c-0.9,0.1-1.7,0.1-2.5,0.2c0.2-1.4,0.4-2.7,0.5-4c0.4,0.4,0.9,0.8,1.3,1.2c0.4,0.4,0.8,0.8,1.2,1.2
	C36.9,22,36.8,22.4,36.8,23z M33.1,23.2c-0.8,0.1-1.5,0.1-2.2,0.2c-0.2-0.6-0.7-0.9-1.3-0.9c-0.7,0-1.3,0.6-1.4,1.3
	c-1,0.1-1.8,0.2-2.2,0.3c-0.2-1.1-0.8-2.1-1.8-2.7c0.9-2.8,1.9-5.4,2.9-7.7c2.2,1.1,4.4,2.6,6.5,4.4C33.5,19.8,33.3,21.5,33.1,23.2z
	 M8.9,29.4c2.5-1.1,5.8-2.1,9.6-3.1c0.3,0.7,0.8,1.2,1.4,1.6c0,0.1,0,0.2-0.1,0.2c-0.6,2.5-1,4.7-1.4,6.8c-2.4,0.2-4.5,0.3-6.3,0.3
	C10.8,33.4,9.7,31.4,8.9,29.4z M11.1,35.3c-1.8,0-3.3-0.2-4.4-0.4c0.3-1.5,0.8-3,1.5-4.5C8.9,32.1,9.9,33.7,11.1,35.3z M20.4,36.9
	c1.2-0.1,2.3-0.2,3.3-0.3c0.5,0.7,1.4,1.2,2.3,1.2c1.3,0,2.3-0.8,2.7-1.9c0.5-0.1,1-0.2,1.7-0.3c-1.1,3.6-2.6,7.2-4.1,10.2
	c-0.5,0.2-1,0.4-1.6,0.6c-1.8-0.9-3.5-2-5.2-3.2C19.8,41.1,20.1,39,20.4,36.9z M48.1,25c1.1,0.4,1.7,0.8,1.7,1.2c0,0,0,0,0,0
	c0,0.6-1,1.4-2.9,2.3C47.4,27.3,47.8,26.1,48.1,25z M48.4,23.4c0.1-0.6,0.2-1.2,0.2-1.7c0.2,0.6,0.5,1.3,0.6,2
	C49,23.5,48.7,23.5,48.4,23.4z M46.3,23c-1-0.1-2.1-0.2-3.3-0.2c-0.1-1.6-1.5-2.9-3.1-2.9c-0.4,0-0.7,0.1-1,0.2
	c-0.4-0.4-0.8-0.9-1.2-1.3c-0.9-0.9-1.8-1.7-2.7-2.4c0.1-1.8,0.1-3.5-0.1-5c4.2-0.2,7.7,1,9.7,3.3c0.4,0.4,0.7,0.9,1,1.3
	C46.6,17.8,46.8,20.2,46.3,23z M36.9,9.7c-0.7,0-1.5,0-2.3,0.1c-0.1-0.9-0.3-1.6-0.5-2.3c1.7,0.6,3.3,1.3,4.8,2.3
	C38.3,9.8,37.6,9.7,36.9,9.7z M32.1,7.1L32.1,7.1C32.1,7.1,32.1,7.1,32.1,7.1c0.7,0.2,1.1,1.2,1.3,2.9c-1.7,0.3-3.4,0.7-5.2,1.4
	C29.7,8.7,31.1,6.9,32.1,7.1z M5.1,34.6c-1-0.3-1.7-0.6-1.9-1l0,0c0,0,0,0,0,0C2.7,33,4,31.8,6.8,30.4C6.1,31.8,5.5,33.3,5.1,34.6z
	 M4.7,36.6c-0.1,0.6-0.2,1.2-0.2,1.8C4.2,37.7,4,37,3.8,36.3C4,36.4,4.4,36.5,4.7,36.6z M6.4,36.9c1.8,0.3,4,0.4,6.3,0.4
	c0.4,0.5,0.8,0.9,1.2,1.4c-0.2,0.3-0.3,0.7-0.3,1c0,1,0.8,1.8,1.8,1.8c0.4,0,0.7-0.1,1-0.3c0.4,0.4,0.8,0.8,1.2,1.1
	c-0.2,2.1-0.3,4-0.2,5.6c-3.3,0.2-6-0.3-7.8-1.7c-0.5-0.5-0.9-1-1.3-1.5C6.6,42.8,6,40.1,6.4,36.9z M17.5,50.1
	c0.1,0.7,0.3,1.3,0.5,1.8c-1.4-0.5-2.7-1.2-3.9-1.9C15.2,50.1,16.4,50.2,17.5,50.1z M20.9,52.7L20.9,52.7
	C20.9,52.7,20.9,52.7,20.9,52.7c-0.7-0.4-1.1-1.4-1.3-2.8c1.7-0.2,3.5-0.7,5.3-1.3C23.3,51.4,21.8,53.2,20.9,52.7z M47.7,40.1
	c0.1-2.7-0.5-5.8-1.8-8.9c1.6-0.7,3-1.4,4.1-2.2c0,0.3,0,0.6,0,0.9C50.1,33.6,49.2,37,47.7,40.1z M26.5,6.3c0.9,0,1.8,0.1,2.6,0.2
	c-1,1-2.1,2.5-3.1,4.4c-3.5-1.5-7-2.2-10-2.1C19.2,7.2,22.7,6.3,26.5,6.3z M5.3,19.5c-0.1,2.8,0.6,6,2,9.2c-1.8,0.7-3.3,1.4-4.4,2.2
	c0-0.3,0-0.7,0-1C2.9,26.2,3.7,22.6,5.3,19.5z M26.5,53.5c-1.1,0-2.2-0.1-3.3-0.2c1-1.1,2.2-2.7,3.3-4.9c3.4,1.6,6.8,2.5,9.8,2.6
	c0.3,0,0.5,0,0.8,0C33.9,52.6,30.3,53.5,26.5,53.5z"/>
</svg>
