<svg xmlns="http://www.w3.org/2000/svg" width="251.9" height="51.4" viewBox="-385 359.6 251.9 51.4"><path fill="#D74108" d="M-316.7 372.5h2.4v25.1h-2.4v-25.1zM-309.7 372.5h10.6c4.2 0 8 1.5 8 6.1 0 2.6-1.8 5.1-4.4 5.6v.1c3.2.4 5.3 2.8 5.3 6.1 0 2.4-.8 7.1-9 7.1h-10.5v-25zm2.3 11h8.2c3.8 0 5.7-1.9 5.7-4.2 0-3.1-1.9-4.7-5.7-4.7h-8.2v8.9zm0 12.1h8.2c3.5 0 6.6-1.1 6.6-5.2 0-3.2-2.4-4.8-6.6-4.8h-8.2v10zM-287.1 372.5h3.5l8.7 22 8.6-22h3.5v25.1h-2.4v-21.7h-.1l-8.5 21.7h-2.2l-8.6-21.7h-.1v21.7h-2.4v-25.1z"/><path d="M-226 397.6h-5.5l-4.2-17.1h-.1l-4.2 17.1h-5.6l-6.6-25.1h5.5l4 17.1h.1l4.4-17.1h5.2l4.3 17.3h.1l4.1-17.3h5.4l-6.9 25.1zM-220.4 385c.3-4.6 4.5-6.1 8.5-6.1 3.6 0 8 .8 8 5.2v9.5c0 1.6.2 3.3.6 4h-5.1c-.2-.6-.3-1.2-.4-1.8-1.6 1.6-3.9 2.2-6.1 2.2-3.5 0-6.2-1.7-6.2-5.4.1-8.3 12.3-3.8 12.1-7.9 0-2.1-1.5-2.5-3.2-2.5-1.9 0-3.1.8-3.3 2.7h-4.9v.1zm11.5 3.7c-.8.7-2.6.8-4.1 1.1-1.5.3-3 .8-3 2.6s1.4 2.3 3.1 2.3c3.9 0 4-3.1 4-4.2v-1.8zM-194.8 379.5h3.7v3.3h-3.7v9c0 1.7.4 2.1 2.1 2.1.6 0 1.1 0 1.5-.1v3.8c-.8.1-1.9.2-2.9.2-3.1 0-5.7-.7-5.7-4.3v-10.7h-3v-3.3h3v-5.4h5v5.4zM-185.1 391.7c0 2.1 1.9 3.1 3.8 3.1 1.4 0 3.3-.6 3.3-2.3 0-1.5-2.1-2.1-5.7-2.8-2.9-.7-5.8-1.6-5.8-4.8 0-4.6 4-5.8 7.9-5.8s7.6 1.3 8 5.8h-4.7c-.1-1.9-1.6-2.5-3.4-2.5-1.1 0-2.8.2-2.8 1.7 0 1.8 2.8 2 5.7 2.7 2.9.7 5.8 1.7 5.8 5.1 0 4.8-4.2 6.3-8.3 6.3-4.2 0-8.4-1.6-8.5-6.4l4.7-.1zM-162.1 379c5.7 0 9.4 3.8 9.4 9.6s-3.7 9.5-9.4 9.5-9.4-3.8-9.4-9.5c0-5.8 3.7-9.6 9.4-9.6zm0 15.3c3.4 0 4.4-2.9 4.4-5.8s-1-5.8-4.4-5.8-4.4 2.9-4.4 5.8c0 3 1 5.8 4.4 5.8zM-150.9 379.5h4.7v2.5h.1c1.3-2.1 3.4-3 5.5-3 5.3 0 6.6 3 6.6 7.5v11.1h-5v-10.2c0-3-.8-4.5-3.2-4.5-2.7 0-3.9 1.5-3.9 5.2v9.5h-5v-18.1h.2z"/><path fill="#325C80" d="M-340.2 403.4l.2-.2c4.5-4.6 7.3-10.9 7.3-17.9 0-1.4-.1-2.7-.3-4-.7-4.6-2.7-8.8-5.5-12.2l-.1-.1-.2-.2c-4.8-5.6-11.8-9.2-19.7-9.2-7.1 0-13.5 2.9-18.1 7.5l-.1.1c-.1.1-.2.1-.2.2-4.5 4.6-7.3 11-7.3 17.9 0 1.4.1 2.7.3 4 .7 4.6 2.7 8.8 5.5 12.2l.1.1c0 .1.1.1.2.2 4.7 5.6 11.8 9.2 19.7 9.2 7 0 13.4-2.8 18.1-7.4-.1-.1 0-.1.1-.2zm-1.6-1.4c-3.2 3.1-9.2 3.4-15.6.9 2.4-1 4.7-2.4 7-4 .5.4 1.2.6 1.9.6 1.9 0 3.4-1.5 3.4-3.4 0-.5-.1-1-.4-1.5 1.9-1.9 3.6-4 4.9-6.1 1.9 5.4 1.7 10.3-1.1 13.2 0 .1 0 .2-.1.3zm-33.6-33.1c.1-.1.2-.2.2-.3 3.2-3.1 9.1-3.1 15.2-.5-2.8 1.4-5.6 3.1-8.3 5.4-.2.1-.3.3-.5.5-.2-.2-.6-.4-1-.4-1 0-1.8.8-1.8 1.8 0 .3.1.7.3.9-2.1 2.1-3.9 4.4-5.4 6.7-1.9-5.7-1.5-11.1 1.3-14.1zm28.5 24.3c-.5-.3-1-.4-1.6-.4-1.9 0-3.4 1.5-3.4 3.4 0 .4.1.8.2 1.2-1.7 1.2-3.5 2.2-5.2 3.1 1.2-2.8 2.4-6.1 3.4-9.6 3-.6 7-1.5 10.7-2.7-1.1 1.6-2.5 3.4-4.1 5zm-18.5 6.3c1.3 1 2.6 1.9 3.9 2.7-1.4.4-2.7.7-4 .9 0-1 0-2.3.1-3.6zm-4.3-6.2c-.3 0-.6.1-.9.2-.2-.3-.5-.6-.7-.9 1.5 0 3-.1 4.5-.2-.2 1.5-.5 3-.6 4.3-.3-.2-.5-.5-.8-.7.2-.3.3-.6.3-.9 0-.9-.8-1.8-1.8-1.8zm-1.1-16.4c.3.2.7.3 1 .3 1 0 1.8-.8 1.8-1.8 0-.4-.1-.7-.3-1 .1-.1.3-.2.4-.4 2.3-1.9 4.8-3.4 7.3-4.6-.9 2-1.7 4.2-2.5 6.7-2.1.1-3.7 1.8-3.7 3.9 0 .3 0 .6.1.8-2.8.6-6.1 1.4-9 2.4 1.3-2 2.9-4.2 4.9-6.3zm19.5-6.1c-1.5-1.2-3.1-2.2-4.7-3 1.6-.4 3.1-.7 4.6-.8.1 1.1.1 2.4.1 3.8zm12.3 9c-.3 1.2-.8 2.5-1.4 3.8-.6-1.2-1.3-2.4-2.1-3.6.1-.2.2-.4.3-.7 1.2.2 2.3.4 3.2.5zm-17.3 9.3c-.5-1-1.4-1.6-2.6-1.6-1.4 0-2.6 1.1-2.8 2.5-.9.1-1.7.2-2.5.3.4-2.1.8-4.2 1.3-6.2 2.1 0 3.8-1.7 3.9-3.8.8-.1 1.5-.2 2.3-.3.2.5.7.8 1.3.8.7 0 1.3-.5 1.4-1.2.7-.1 1.4-.1 2-.2-.1.9-.2 1.7-.4 2.6-.9.1-1.7.8-1.7 1.8 0 .7.4 1.3 1 1.6l-.3 1.5c-.1.6-.3 1.1-.5 1.7-.7.2-1.6.4-2.4.5zm3.9-2.4c.1-.4.2-.7.3-1.1 1-.1 1.7-.8 1.7-1.8 0-.7-.4-1.3-1-1.6.2-1 .4-1.9.5-2.8 1-.1 1.9-.1 2.8-.1.4 1.3 1.6 2.3 3 2.3.3 0 .6-.1.9-.1.9 1.4 1.7 2.7 2.4 4.1-2.8 1-6.5 2.1-11 3 .1-.7.3-1.3.4-1.9zm4.2-8.3c-.9.1-1.7.1-2.5.2.2-1.4.4-2.7.5-4 .4.4.9.8 1.3 1.2l1.2 1.2c-.4.4-.5.9-.5 1.4zm-3.7.3c-.8.1-1.5.1-2.2.2-.2-.6-.7-.9-1.3-.9-.7 0-1.3.6-1.4 1.3-1 .1-1.8.2-2.2.3-.2-1.1-.8-2.1-1.8-2.7.9-2.8 1.9-5.4 2.9-7.7 2.2 1.1 4.4 2.6 6.5 4.4-.1 1.6-.3 3.3-.5 5.1zm-24.1 6.1c2.5-1.1 5.8-2.1 9.6-3.1.3.7.8 1.2 1.4 1.6 0 .1 0 .2-.1.2-.6 2.5-1 4.7-1.4 6.8-2.4.2-4.5.3-6.3.3-1.3-1.8-2.4-3.8-3.2-5.8zm2.1 5.9c-1.8 0-3.3-.2-4.4-.4.3-1.5.8-3 1.5-4.5.8 1.7 1.8 3.3 2.9 4.9zm9.4 1.6c1.2-.1 2.3-.2 3.3-.3.5.7 1.4 1.2 2.3 1.2 1.3 0 2.3-.8 2.7-1.9.5-.1 1-.2 1.7-.3-1.1 3.6-2.6 7.2-4.1 10.2-.5.2-1 .4-1.6.6-1.8-.9-3.5-2-5.2-3.2.2-2 .5-4.1.9-6.3zm27.6-11.9c1.1.4 1.7.8 1.7 1.2 0 .6-1 1.4-2.9 2.3.5-1.1.9-2.3 1.2-3.5zm.3-1.6c.1-.6.2-1.2.2-1.7.2.6.5 1.3.6 2-.2-.1-.5-.2-.8-.3zm-2.1-.4c-1-.1-2.1-.2-3.3-.2-.1-1.6-1.5-2.9-3.1-2.9-.4 0-.7.1-1 .2-.4-.4-.8-.9-1.2-1.3-.9-.9-1.8-1.7-2.7-2.4.1-1.8.1-3.5-.1-5 4.2-.2 7.7 1 9.7 3.3.4.4.7.9 1 1.3 1 1.8 1.2 4.2.7 7zm-9.4-13.3c-.7 0-1.5 0-2.3.1-.1-.9-.3-1.6-.5-2.3 1.8.7 3.4 1.4 4.9 2.4-.7-.1-1.4-.2-2.1-.2zm-4.8-2.6c.1 0 .1 0 0 0 .7.2 1.1 1.2 1.3 2.9-1.7.3-3.4.7-5.2 1.4 1.5-2.7 2.9-4.5 3.9-4.3zm-26.9 27.6c-1-.3-1.7-.6-1.9-1-.5-.6.8-1.8 3.5-3.2-.7 1.4-1.3 2.8-1.6 4.2zm-.5 1.9c-.1.6-.2 1.2-.2 1.8-.3-.7-.5-1.4-.7-2.1l.9.3zm1.7.3c1.8.3 4 .4 6.3.4.4.5.8.9 1.2 1.4-.2.3-.3.7-.3 1 0 1 .8 1.8 1.8 1.8.4 0 .7-.1 1-.3.4.4.8.8 1.2 1.1-.2 2.1-.3 4-.2 5.6-3.3.2-6-.3-7.8-1.7-.5-.5-.9-1-1.3-1.5-1.6-1.8-2.2-4.6-1.9-7.8zm11.2 13.2c.1.7.3 1.3.5 1.8-1.4-.5-2.7-1.2-3.9-1.9 1 .2 2.2.2 3.4.1zm3.4 2.7c-.7-.4-1.1-1.4-1.3-2.8 1.7-.2 3.5-.7 5.3-1.3-1.7 2.8-3.2 4.5-4 4.1zm26.8-12.6c.1-2.7-.5-5.8-1.8-8.9 1.6-.7 3-1.4 4.1-2.2v.9c0 3.6-.8 7.1-2.3 10.2zm-21.3-33.9c.9 0 1.8.1 2.6.2-1 1-2.1 2.5-3.1 4.4-3.5-1.5-7-2.2-10-2.1 3.2-1.6 6.7-2.5 10.5-2.5zm-21.2 13.2c-.1 2.8.6 6 2 9.2-1.8.7-3.3 1.4-4.4 2.2v-1c0-3.7.9-7.2 2.4-10.4zm21.2 34c-1.1 0-2.2-.1-3.3-.2 1-1.1 2.2-2.7 3.3-4.9 3.4 1.6 6.8 2.5 9.8 2.6h.8c-3.2 1.6-6.8 2.5-10.6 2.5z"/></svg>