<?xml version="1.0" encoding="utf-8"?>
<!-- Generator: Adobe Illustrator 18.1.1, SVG Export Plug-In . SVG Version: 6.00 Build 0)  -->
<!DOCTYPE svg PUBLIC "-//W3C//DTD SVG 1.1//EN" "http://www.w3.org/Graphics/SVG/1.1/DTD/svg11.dtd">
<svg version="1.1" id="Layer_1" xmlns="http://www.w3.org/2000/svg" xmlns:xlink="http://www.w3.org/1999/xlink" x="0px" y="0px"
	 width="341.1px" height="300px" viewBox="-188 139 341.1 300" enable-background="new -188 139 341.1 300" xml:space="preserve">
<path fill="#ECECEC" d="M-188,139h341.1v300H-188V139z"/>
<path fill="#F9F9F9" d="M-147.8,231.4h300.9v71.2h-300.9V231.4z"/>
<path fill="#325C80" d="M-147.8,320.8H50.8v53.7h-198.5v-53.7H-147.8z"/>
<g>
	<circle fill="#00B4A0" cx="-125.9" cy="174.7" r="5.9"/>
	<path fill="#00B4A0" d="M-120.9,182.1h-10c-1.4,0-2.5,1.1-2.5,2.5v2.5h15v-2.5C-118.4,183.3-119.5,182.1-120.9,182.1L-120.9,182.1z
		"/>
</g>
<g enable-background="new    ">
	<path fill="#F9F9F9" d="M-98.5,339.8h2.8l5.7,14.8h-2.8l-1.4-3.9h-5.9l-1.4,3.9h-2.7L-98.5,339.8z M-99.4,348.7h4.5l-2.2-6.3h-0.1
		L-99.4,348.7z"/>
	<path fill="#F9F9F9" d="M-87,351.1c0.1,1.4,1.2,1.9,2.4,1.9c0.9,0,2.4-0.2,2.4-1.4c-0.1-1.2-1.8-1.4-3.5-1.8
		c-1.7-0.4-3.4-1-3.4-3.2c0-2.3,2.5-3.1,4.5-3.1c2.2,0,4.2,0.9,4.5,3.3h-2.5c-0.2-1.1-1.1-1.4-2.2-1.4c-0.7,0-1.9,0.2-1.9,1.1
		c0,1.2,1.7,1.3,3.5,1.7c1.7,0.4,3.5,1,3.5,3.1c0,2.5-2.6,3.5-4.8,3.5c-2.7,0-4.7-1.2-4.7-3.7H-87z"/>
	<path fill="#F9F9F9" d="M-78.1,339.8h2.4v8.4l4.3-4.3h2.9l-4.1,3.9l4.5,6.8h-2.9l-3.3-5.2l-1.4,1.4v3.8h-2.4V339.8z"/>
	<path fill="#F9F9F9" d="M-63.8,339.8h2.6l2.7,11.3h0l3-11.3h2.6l2.9,11.3h0l2.8-11.3h2.6l-4.1,14.8h-2.6l-3-11.3h0l-3,11.3H-60
		L-63.8,339.8z"/>
	<path fill="#F9F9F9" d="M-35.5,352.2c0,0.6,0.1,0.8,0.6,0.8h0.2c0.1,0,0.2,0,0.3,0v1.6c-0.4,0.1-1.1,0.3-1.5,0.3
		c-1,0-1.6-0.3-1.8-1.3c-0.9,0.9-2.4,1.3-3.7,1.3c-1.9,0-3.7-1-3.7-3.1c0-2.7,2.1-3.1,4.1-3.3c1.7-0.3,3.2-0.1,3.2-1.5
		c0-1.2-1.3-1.4-2.2-1.4c-1.3,0-2.3,0.5-2.4,1.7h-2.4c0.2-2.8,2.5-3.6,4.9-3.6c2.1,0,4.3,0.8,4.3,3.1V352.2z M-37.8,349.2
		c-0.7,0.5-1.8,0.5-2.9,0.6c-1,0.2-1.9,0.5-1.9,1.8c0,1.1,1.3,1.4,2.2,1.4c1,0,2.6-0.5,2.6-2V349.2z"/>
	<path fill="#F9F9F9" d="M-34.2,343.9h1.8v-3.2h2.4v3.2h2.1v1.8H-30v5.7c0,1,0.1,1.5,1.1,1.5c0.3,0,0.7,0,1-0.1v1.8
		c-0.5,0.1-1,0.1-1.5,0.1c-2.5,0-2.9-1-3-2.7v-6.3h-1.8V343.9z"/>
	<path fill="#F9F9F9" d="M-24.4,351.1c0.1,1.4,1.2,1.9,2.4,1.9c0.9,0,2.4-0.2,2.4-1.4c-0.1-1.2-1.8-1.4-3.5-1.8
		c-1.7-0.4-3.4-1-3.4-3.2c0-2.3,2.5-3.1,4.5-3.1c2.2,0,4.2,0.9,4.5,3.3h-2.5c-0.2-1.1-1.1-1.4-2.2-1.4c-0.7,0-1.9,0.2-1.9,1.1
		c0,1.2,1.7,1.3,3.5,1.7c1.7,0.4,3.5,1,3.5,3.1c0,2.5-2.6,3.5-4.8,3.5c-2.7,0-4.7-1.2-4.7-3.7H-24.4z"/>
	<path fill="#F9F9F9" d="M-16.3,349.2c0-3.2,2-5.6,5.4-5.6s5.4,2.4,5.4,5.6c0,3.3-2,5.6-5.4,5.6S-16.3,352.5-16.3,349.2z
		 M-7.9,349.2c0-1.8-0.9-3.8-3-3.8c-2.1,0-3,1.9-3,3.8c0,1.9,0.9,3.8,3,3.8C-8.8,353-7.9,351.1-7.9,349.2z"/>
	<path fill="#F9F9F9" d="M-3.9,343.9h2.2v1.6l0,0c0.7-1.2,1.9-1.9,3.3-1.9c2.3,0,3.8,1.2,3.8,3.6v7.3H3.1v-6.7
		c-0.1-1.7-0.7-2.4-2.1-2.4c-1.6,0-2.6,1.2-2.6,2.8v6.3h-2.4V343.9z"/>
</g>
<g enable-background="new    ">
	<path fill="#323232" d="M-102.7,172.4h2.6v5.9h6.7v-5.9h2.6v14.8h-2.6v-6.7h-6.7v6.7h-2.6V172.4z"/>
	<path fill="#323232" d="M-86.7,182.4c0,1.7,0.9,3.2,2.9,3.2c1.4,0,2.2-0.6,2.6-1.8h2.2c-0.5,2.3-2.5,3.6-4.8,3.6
		c-3.4,0-5.2-2.3-5.2-5.6c0-3,2-5.6,5.2-5.6c3.4,0,5.4,3,5,6.2H-86.7z M-81.2,180.9c-0.1-1.5-1.1-2.8-2.7-2.8
		c-1.6,0-2.8,1.2-2.8,2.8H-81.2z"/>
	<path fill="#323232" d="M-77.1,172.4h2.4v14.8h-2.4V172.4z"/>
	<path fill="#323232" d="M-72.6,172.4h2.4v14.8h-2.4V172.4z"/>
	<path fill="#323232" d="M-68.6,181.8c0-3.2,2-5.6,5.4-5.6c3.4,0,5.4,2.4,5.4,5.6c0,3.3-2,5.6-5.4,5.6
		C-66.6,187.5-68.6,185.1-68.6,181.8z M-60.2,181.8c0-1.8-0.9-3.8-3-3.8s-3,1.9-3,3.8c0,1.9,0.9,3.8,3,3.8S-60.2,183.7-60.2,181.8z"
		/>
	<path fill="#323232" d="M-56.8,184.4h2.9v2.8c0,1.7-1.1,2.9-2.8,3.3v-1.3c0.9-0.2,1.4-1.1,1.3-2h-1.4V184.4z"/>
	<path fill="#323232" d="M-38.9,182.4c0,2.6-0.6,5.1-4.9,5.1c-3.1,0-4.4-2-4.4-4.7V182h2.6v0.8c0,1.7,0.5,2.6,2,2.6
		c1.7,0,2.1-1,2.1-2.9v-10.2h2.6V182.4z"/>
	<path fill="#323232" d="M-27.8,184.8c0,0.6,0.1,0.8,0.6,0.8h0.2c0.1,0,0.2,0,0.3,0v1.6c-0.4,0.1-1.1,0.3-1.5,0.3
		c-1,0-1.6-0.3-1.8-1.3c-0.9,0.9-2.4,1.3-3.7,1.3c-1.9,0-3.7-1-3.7-3.1c0-2.7,2.1-3.1,4.1-3.3c1.7-0.3,3.2-0.1,3.2-1.5
		c0-1.2-1.3-1.4-2.2-1.4c-1.3,0-2.3,0.5-2.4,1.7H-37c0.2-2.8,2.5-3.6,4.9-3.6c2.1,0,4.3,0.8,4.3,3.1V184.8z M-30.2,181.8
		c-0.7,0.5-1.8,0.5-2.9,0.6c-1,0.2-1.9,0.5-1.9,1.8c0,1.1,1.3,1.4,2.2,1.4c1,0,2.6-0.5,2.6-2V181.8z"/>
	<path fill="#323232" d="M-25.3,176.5h2.2v1.6l0,0c0.7-1.2,1.9-1.9,3.3-1.9c2.3,0,3.8,1.2,3.8,3.6v7.3h-2.4v-6.7
		c-0.1-1.7-0.7-2.4-2.1-2.4c-1.6,0-2.6,1.2-2.6,2.8v6.3h-2.4V176.5z"/>
	<path fill="#323232" d="M-12,182.4c0,1.7,0.9,3.2,2.9,3.2c1.4,0,2.2-0.6,2.6-1.8h2.2c-0.5,2.3-2.5,3.6-4.8,3.6
		c-3.4,0-5.2-2.3-5.2-5.6c0-3,2-5.6,5.2-5.6c3.4,0,5.4,3,5,6.2H-12z M-6.5,180.9c-0.1-1.5-1.1-2.8-2.7-2.8c-1.6,0-2.8,1.2-2.8,2.8
		H-6.5z"/>
	<path fill="#323232" d="M-2.3,184.6h2.8v2.6h-2.8V184.6z M-2.2,172.4h2.6v4.3l-0.7,6.4h-1.2l-0.7-6.4V172.4z"/>
</g>
<g enable-background="new    ">
	<path fill="#325C80" d="M-102.1,258.6h11.5l-0.2,1.2h-5.1l-3,13.6h-1.4l3-13.6h-5.1L-102.1,258.6z"/>
	<path fill="#325C80" d="M-94.4,276.1c0.4,0,0.7,0.1,1.1,0.1c0.8,0,1.3-0.6,1.7-1.2l1-1.7l-2-10.7h1.4l1.5,9.1h0l4.9-9.1h1.4
		l-7.6,13.2c-0.6,1-1.4,1.4-2.6,1.4c-0.4,0-0.7-0.1-1.1-0.1L-94.4,276.1z"/>
	<path fill="#325C80" d="M-81.7,262.7h1.2l-0.4,1.9h0c0.9-1.4,2-2.2,3.9-2.2c2.7,0,4.1,1.8,4.1,4.4c0,3.3-2.3,6.9-5.8,6.9
		c-1.7,0-3.1-0.7-3.4-2.4h0l-1.3,6.1h-1.3L-81.7,262.7z M-81.8,269.5c0,1.9,1.1,3.1,3,3.1c3,0,4.5-3.3,4.5-5.9
		c0-1.8-0.9-3.2-2.9-3.2C-80.1,263.5-81.8,266.8-81.8,269.5z"/>
	<path fill="#325C80" d="M-70,268.4c0,0.2-0.1,0.5-0.1,0.8c0,1.9,1,3.4,3.1,3.4c1.7,0,3-1.1,3.5-2.6h1.3c-0.7,2.4-2.3,3.7-4.9,3.7
		c-2.8,0-4.3-1.7-4.3-4.5c0-3.4,2.1-6.8,5.8-6.8c2.6,0,4.1,1.7,4.1,4.2c0,0.6,0,1.2-0.1,1.8H-70z M-62.9,267.3c0-0.3,0-0.6,0-0.8
		c0-1.8-1.1-3-2.9-3c-2.1,0-3.6,1.8-4.1,3.8H-62.9z"/>
	<path fill="#325C80" d="M-56.5,276.1c0.4,0,0.7,0.1,1.1,0.1c0.8,0,1.3-0.6,1.7-1.2l1-1.7l-2-10.7h1.4l1.5,9.1h0l4.9-9.1h1.4
		l-7.6,13.2c-0.6,1-1.4,1.4-2.6,1.4c-0.4,0-0.7-0.1-1.1-0.1L-56.5,276.1z"/>
	<path fill="#325C80" d="M-35.7,266.5c0,3.6-2,7.1-5.9,7.1c-2.7,0-4.3-1.8-4.3-4.4c0-3.5,2.1-6.8,6-6.8
		C-37.4,262.4-35.7,263.9-35.7,266.5z M-37,266.8c0-2-1.1-3.3-3.1-3.3c-2.9,0-4.4,3.1-4.4,5.6c0,2.1,1,3.5,3.2,3.5
		C-38.5,272.5-37,269.3-37,266.8z"/>
	<path fill="#325C80" d="M-26.3,273.3h-1.2l0.4-1.9h0c-0.8,1.3-2.2,2.3-3.8,2.3c-1.9,0-3.2-0.8-3.2-2.9c0-0.3,0.1-0.7,0.2-1.3
		l1.5-6.8h1.3l-1.5,6.9c-0.1,0.3-0.1,0.7-0.1,1.1c0,1.4,1.1,1.9,2.2,1.9c1.9,0,3.6-1.7,4.2-4.4l1.2-5.5h1.3L-26.3,273.3z"/>
	<path fill="#325C80" d="M-21.2,262.7h1.2l-0.5,2.5h0c0.8-1.5,2-2.6,3.9-2.6h0.4c0.1,0,0.2,0,0.4,0l-0.3,1.3c-0.2,0-0.5,0-0.7,0
		c-2.3,0.1-3.6,1.9-4,3.9l-1.2,5.6h-1.3L-21.2,262.7z"/>
	<path fill="#325C80" d="M-3.3,277.3h-1.3l1.3-5.8h0c-0.8,1.3-2.1,2.2-3.7,2.2c-2.7,0-4.1-1.9-4.1-4.4c0-3.2,2-6.8,5.6-6.8
		c1.8,0,3.2,1,3.7,2.4h0l0.5-2.1h1.2L-3.3,277.3z M-9.9,269.2c0,2,0.9,3.3,3.1,3.3c2.9,0,4.4-3.5,4.4-5.9c0-1.8-0.9-3.2-2.9-3.2
		C-8.3,263.5-9.9,266.6-9.9,269.2z"/>
	<path fill="#325C80" d="M8.7,273.3H7.5l0.4-1.9h0c-0.8,1.3-2.2,2.3-3.8,2.3c-1.9,0-3.2-0.8-3.2-2.9c0-0.3,0.1-0.7,0.2-1.3l1.5-6.8
		h1.3l-1.5,6.9c-0.1,0.3-0.1,0.7-0.1,1.1c0,1.4,1.1,1.9,2.2,1.9c1.9,0,3.6-1.7,4.2-4.4l1.2-5.5H11L8.7,273.3z"/>
	<path fill="#325C80" d="M13.5,268.4c0,0.2-0.1,0.5-0.1,0.8c0,1.9,1,3.4,3.1,3.4c1.7,0,3-1.1,3.5-2.6h1.3c-0.7,2.4-2.3,3.7-4.9,3.7
		c-2.8,0-4.3-1.7-4.3-4.5c0-3.4,2.1-6.8,5.8-6.8c2.6,0,4.1,1.7,4.1,4.2c0,0.6,0,1.2-0.1,1.8H13.5z M20.6,267.3c0-0.3,0-0.6,0-0.8
		c0-1.8-1.1-3-2.9-3c-2.1,0-3.6,1.8-4.1,3.8H20.6z"/>
	<path fill="#325C80" d="M24.4,269.9c0,2.1,1.5,2.7,3,2.7c1.2,0,2.7-0.6,2.7-2c0-1.4-1.5-1.8-2.9-2.4c-1.4-0.5-2.9-1.2-2.9-3
		c0-2.1,2.2-2.9,3.9-2.9c2.2,0,3.9,1,3.8,3.4h-1.3c0.1-1.6-1.1-2.3-2.5-2.3c-1.1,0-2.6,0.4-2.6,1.8c0,1,1.1,1.5,2.3,2
		c1.5,0.6,3.5,1.2,3.5,3.1c0,2.4-2.3,3.3-4.3,3.3c-2.1,0-4.1-1.1-4-3.8H24.4z"/>
	<path fill="#325C80" d="M33.7,262.7h1.9l0.7-3.2h1.3l-0.7,3.2H39l-0.2,1.1h-2.2l-1.5,6.8c-0.1,0.5-0.1,0.7-0.1,1
		c0,0.4,0.2,0.7,0.7,0.7s1,0,1.5-0.1l-0.2,1.1c-0.4,0.1-0.9,0.1-1.3,0.1c-1,0-2-0.3-2-1.5c0-0.2,0-0.6,0.1-1.1l1.5-7.1h-1.9
		L33.7,262.7z"/>
	<path fill="#325C80" d="M41.4,262.7h1.3l-2.3,10.7h-1.3L41.4,262.7z M42.3,258.6h1.3l-0.5,2.1h-1.3L42.3,258.6z"/>
	<path fill="#325C80" d="M54,266.5c0,3.6-2,7.1-5.9,7.1c-2.8,0-4.3-1.8-4.3-4.4c0-3.5,2.1-6.8,6-6.8C52.2,262.4,54,263.9,54,266.5z
		 M52.7,266.8c0-2-1.1-3.3-3.1-3.3c-2.9,0-4.4,3.1-4.4,5.6c0,2.1,1,3.5,3.2,3.5C51.2,272.5,52.7,269.3,52.7,266.8z"/>
	<path fill="#325C80" d="M57.4,262.7h1.2l-0.4,1.9h0c0.8-1.3,2.2-2.3,3.8-2.3c1.9,0,3.2,0.8,3.2,2.9c0,0.3-0.1,0.7-0.2,1.3l-1.5,6.8
		h-1.3l1.5-6.9c0.1-0.3,0.1-0.7,0.1-1.1c0-1.4-1.1-1.9-2.2-1.9c-1.9,0-3.6,1.7-4.2,4.4l-1.2,5.5h-1.3L57.4,262.7z"/>
	<path fill="#325C80" d="M74.5,258.6h1.3l-1.3,6h0c0.7-1.3,2.1-2.3,3.7-2.3c1.9,0,3.2,0.8,3.2,2.9c0,0.3-0.1,0.7-0.2,1.3l-1.5,6.8
		h-1.3l1.5-6.9c0.1-0.3,0.1-0.7,0.1-1.1c0-1.4-1.1-1.9-2.2-1.9c-1.9,0-3.6,1.7-4.2,4.4l-1.2,5.5h-1.3L74.5,258.6z"/>
	<path fill="#325C80" d="M84.5,268.4c0,0.2-0.1,0.5-0.1,0.8c0,1.9,1,3.4,3.1,3.4c1.7,0,3-1.1,3.5-2.6h1.3c-0.7,2.4-2.3,3.7-4.9,3.7
		c-2.8,0-4.3-1.7-4.3-4.5c0-3.4,2.1-6.8,5.8-6.8c2.6,0,4.1,1.7,4.1,4.2c0,0.6,0,1.2-0.1,1.8H84.5z M91.6,267.3c0-0.3,0-0.6,0-0.8
		c0-1.8-1.1-3-2.9-3c-2.1,0-3.6,1.8-4.1,3.8H91.6z"/>
	<path fill="#325C80" d="M96.3,262.7h1.2l-0.5,2.5h0c0.8-1.5,2-2.6,3.9-2.6h0.4c0.1,0,0.2,0,0.4,0l-0.3,1.3c-0.2,0-0.5,0-0.7,0
		c-2.3,0.1-3.6,1.9-4,3.9l-1.2,5.6H94L96.3,262.7z"/>
	<path fill="#325C80" d="M102.5,268.4c0,0.2-0.1,0.5-0.1,0.8c0,1.9,1,3.4,3.1,3.4c1.7,0,3-1.1,3.5-2.6h1.3c-0.7,2.4-2.3,3.7-4.9,3.7
		c-2.8,0-4.3-1.7-4.3-4.5c0-3.4,2.1-6.8,5.8-6.8c2.6,0,4.1,1.7,4.1,4.2c0,0.6,0,1.2-0.1,1.8H102.5z M109.6,267.3c0-0.3,0-0.6,0-0.8
		c0-1.8-1.1-3-2.9-3c-2.1,0-3.6,1.8-4.1,3.8H109.6z"/>
</g>
</svg>
