<svg xmlns="http://www.w3.org/2000/svg" width="341.1" height="300" viewBox="-340 235 341.1 300"><path fill="#323232" d="M-340 235H1.1v300H-340z"/><path fill="#5A5A5A" d="M-260.9 274.1h262v46.8h-262z"/><g fill="#E0E0E0"><path d="M-213.7 299.7c0 2.9-1.6 4.4-4.5 4.4s-4.7-1.4-4.7-4.4v-7.3h1.5v7.3c0 2 1.1 3.1 3.2 3.1 1.9 0 3-1.1 3-3.1v-7.3h1.5v7.3zM-211.1 301.2c0 1.2 1.1 1.6 2.2 1.6.8 0 2-.2 2-1.2 0-2.1-5.4-.7-5.4-3.9 0-1.7 1.6-2.4 3.1-2.4 1.9 0 3.3.6 3.4 2.6h-1.4c-.1-1.1-1-1.4-1.9-1.4-.8 0-1.8.2-1.8 1.1 0 1 1.4 1.2 2.7 1.4 1.4.3 2.7.8 2.7 2.4 0 2-1.8 2.6-3.5 2.6-1.9 0-3.4-.8-3.5-2.8h1.4zM-197 301.2c-.4 1.8-1.7 2.8-3.5 2.8-2.6 0-3.9-1.8-4-4.4 0-2.5 1.6-4.3 3.9-4.3 2.9 0 3.8 2.7 3.7 4.7h-6.1c0 1.4.8 2.7 2.6 2.7 1.1 0 1.9-.5 2.1-1.6h1.3v.1zm-1.3-2.3c-.1-1.3-1-2.3-2.4-2.3s-2.3 1.1-2.4 2.3h4.8zM-195.5 295.6h1.3v1.7c.7-1.3 1.6-2 3-1.9v1.4c-2.2 0-3 1.2-3 3.3v3.7h-1.4l.1-8.2zM-186.3 292.4h1.6l6 9.3v-9.3h1.4v11.4h-1.7l-6-9.2v9.2h-1.4l.1-11.4zM-167.9 303.8c-.2.1-.6.2-1 .2-.7 0-1.2-.4-1.2-1.3-.8.9-1.8 1.3-2.9 1.3-1.5 0-2.7-.7-2.7-2.3 0-1.9 1.4-2.3 2.8-2.5 1.5-.3 2.8-.2 2.8-1.2 0-1.2-1-1.4-1.8-1.4-1.2 0-2 .4-2.1 1.6h-1.4c.1-2 1.6-2.8 3.5-2.8 1.5 0 3.1.3 3.1 2.3v4.3c0 .6 0 .9.4.9.1 0 .3 0 .4-.1l.1 1zm-2.2-4.2c-1.1.8-4.1 0-4.1 2 0 .9.8 1.2 1.6 1.2 1.8 0 2.5-1.1 2.5-1.9v-1.3zM-166.6 295.6h1.3v1.2c.6-.9 1.5-1.4 2.7-1.4 1 0 1.9.4 2.3 1.4.6-.9 1.5-1.4 2.6-1.4 1.6 0 2.8.7 2.8 2.4v6.1h-1.4v-5.4c0-1-.3-1.8-1.6-1.8s-2.2.8-2.2 2.1v5.2h-1.4v-5.4c0-1.1-.3-1.8-1.6-1.8-1.6 0-2.2 1.5-2.2 2.1v5.2h-1.4l.1-8.5zM-146.2 301.2c-.4 1.8-1.7 2.8-3.5 2.8-2.6 0-3.9-1.8-4-4.4 0-2.5 1.6-4.3 3.9-4.3 2.9 0 3.8 2.7 3.7 4.7h-6.2c0 1.4.8 2.7 2.6 2.7 1.1 0 1.9-.5 2.1-1.6h1.4v.1zm-1.3-2.3c-.1-1.3-1-2.3-2.4-2.3s-2.3 1.1-2.4 2.3h4.8z"/></g><path fill="#5A5A5A" d="M-260.9 337.7h262v46.8h-262z"/><g fill="#E0E0E0"><path d="M-222.8 356h5c2.3 0 3.5 1.2 3.5 3.4 0 2.1-1.2 3.4-3.5 3.4h-3.5v4.7h-1.5V356zm1.5 5.5h3c1.7 0 2.5-.7 2.5-2.1s-.8-2.1-2.5-2.1h-3v4.2zM-205.9 367.4c-.2.1-.6.2-1 .2-.7 0-1.2-.4-1.2-1.3-.8.9-1.8 1.3-2.9 1.3-1.5 0-2.7-.7-2.7-2.3 0-1.9 1.4-2.3 2.8-2.5 1.5-.3 2.8-.2 2.8-1.2 0-1.2-1-1.4-1.8-1.4-1.2 0-2 .4-2.1 1.6h-1.4c.1-2 1.6-2.8 3.5-2.8 1.5 0 3.1.3 3.1 2.3v4.3c0 .6 0 .9.4.9.1 0 .3 0 .4-.1v1h.1zm-2.2-4.2c-1.1.8-4.1 0-4.1 2 0 .9.8 1.2 1.6 1.2 1.8 0 2.5-1.1 2.5-1.9v-1.3zM-203.8 364.8c0 1.2 1.1 1.6 2.2 1.6.8 0 2-.2 2-1.2 0-2.1-5.4-.7-5.4-3.9 0-1.7 1.6-2.4 3.1-2.4 1.9 0 3.3.6 3.4 2.6h-1.4c-.1-1.1-1-1.4-1.9-1.4-.8 0-1.8.2-1.8 1.1 0 1 1.4 1.2 2.7 1.4 1.4.3 2.7.8 2.7 2.4 0 2-1.8 2.6-3.5 2.6-1.9 0-3.4-.8-3.5-2.8h1.4zM-195.8 364.8c0 1.2 1.1 1.6 2.2 1.6.8 0 2-.2 2-1.2 0-2.1-5.4-.7-5.4-3.9 0-1.7 1.6-2.4 3.1-2.4 1.9 0 3.3.6 3.4 2.6h-1.4c-.1-1.1-1-1.4-1.9-1.4-.8 0-1.8.2-1.8 1.1 0 1 1.4 1.2 2.7 1.4 1.4.3 2.7.8 2.7 2.4 0 2-1.8 2.6-3.5 2.6-1.9 0-3.4-.8-3.5-2.8h1.4zM-180.9 367.4h-1.4l-1.7-6.6-1.7 6.6h-1.5l-2.7-8.3h1.5l1.9 6.8 1.7-6.8h1.5l1.7 6.8 1.9-6.8h1.4l-2.6 8.3zM-174 359c2.6 0 4 1.9 4 4.3s-1.4 4.3-4 4.3-4-1.9-4-4.3 1.4-4.3 4-4.3zm0 7.4c1.4 0 2.6-1.1 2.6-3.1s-1.2-3.1-2.6-3.1c-1.4 0-2.6 1.1-2.6 3.1s1.2 3.1 2.6 3.1zM-168.6 359.2h1.3v1.7c.7-1.3 1.6-2 3-1.9v1.4c-2.2 0-3 1.2-3 3.3v3.7h-1.4l.1-8.2zM-156.2 367.4h-1.4v-1.1c-.4.9-1.5 1.3-2.6 1.3-2.5 0-3.8-2-3.8-4.4 0-2.4 1.2-4.3 3.8-4.3.8 0 2.1.3 2.7 1.3V356h1.4l-.1 11.4zm-3.8-1c1.8 0 2.5-1.6 2.5-3.1 0-1.6-.7-3.1-2.6-3.1-1.9 0-2.5 1.6-2.5 3.2 0 1.5.8 3 2.6 3z"/></g><path fill="#E0E0E0" d="M-207.3 483h7.5v1.3h-6v3.6h5.3v1.3h-5.3v5.2h-1.5V483zM-195.5 486c2.6 0 4 1.9 4 4.3s-1.4 4.3-4 4.3-4-1.9-4-4.3 1.4-4.3 4-4.3zm0 7.4c1.4 0 2.6-1.1 2.6-3.1s-1.2-3.1-2.6-3.1c-1.4 0-2.6 1.1-2.6 3.1s1.2 3.1 2.6 3.1zM-190.1 486.2h1.3v1.7c.7-1.3 1.6-2 3-1.9v1.4c-2.2 0-3 1.2-3 3.3v3.7h-1.4l.1-8.2zM-177.9 493.7c0 2.7-1.2 4.1-3.8 4.1-1.6 0-3.3-.6-3.4-2.4h1.4c0 1 1.3 1.3 2.1 1.3 1.8 0 2.5-1.3 2.5-3.1v-.6c-.5 1-1.5 1.5-2.6 1.5-2.5 0-3.7-1.9-3.7-4.2 0-2 .9-4.4 3.8-4.4 1 0 2 .5 2.5 1.4v-1.2h1.3v7.6h-.1zm-1.4-3.6c0-1.5-.6-3-2.4-3-1.7 0-2.4 1.4-2.4 3 0 1.5.5 3.2 2.3 3.2 1.8 0 2.5-1.6 2.5-3.2zM-172.6 486c2.6 0 4 1.9 4 4.3s-1.4 4.3-4 4.3-4-1.9-4-4.3 1.4-4.3 4-4.3zm0 7.4c1.4 0 2.6-1.1 2.6-3.1s-1.2-3.1-2.6-3.1c-1.4 0-2.6 1.1-2.6 3.1s1.2 3.1 2.6 3.1zM-165.4 486.2h1.6v1.2h-1.6v5.1c0 .6.2.7 1 .7h.6v1.2h-1c-1.4 0-2-.3-2-1.8v-5.3h-1.4v-1.2h1.4v-2.5h1.4v2.6zM-158.6 486.2h1.4v1.1c.4-.9 1.5-1.3 2.6-1.3 2.5 0 3.8 2 3.8 4.4s-1.2 4.3-3.8 4.3c-.8 0-2.1-.3-2.7-1.3v4.3h-1.4l.1-11.5zm3.8 1c-1.8 0-2.5 1.6-2.5 3.1 0 1.6.7 3.1 2.6 3.1 1.9 0 2.5-1.6 2.5-3.2 0-1.5-.8-3-2.6-3zM-142.1 494.4c-.2.1-.6.2-1 .2-.7 0-1.2-.4-1.2-1.3-.8.9-1.8 1.3-2.9 1.3-1.5 0-2.7-.7-2.7-2.3 0-1.9 1.4-2.3 2.8-2.5 1.5-.3 2.8-.2 2.8-1.2 0-1.2-1-1.4-1.8-1.4-1.2 0-2 .4-2.1 1.6h-1.4c.1-2 1.6-2.8 3.5-2.8 1.5 0 3.1.3 3.1 2.3v4.3c0 .6 0 .9.4.9.1 0 .3 0 .4-.1l.1 1zm-2.2-4.2c-1.1.8-4.1 0-4.1 2 0 .9.8 1.2 1.6 1.2 1.8 0 2.5-1.1 2.5-1.9v-1.3zM-140 491.8c0 1.2 1.1 1.6 2.2 1.6.8 0 2-.2 2-1.2 0-2.1-5.4-.7-5.4-3.9 0-1.7 1.6-2.4 3.1-2.4 1.9 0 3.3.6 3.4 2.6h-1.4c-.1-1.1-1-1.4-1.9-1.4-.8 0-1.8.2-1.8 1.1 0 1 1.4 1.2 2.7 1.4 1.4.3 2.7.8 2.7 2.4 0 2-1.8 2.6-3.5 2.6-1.9 0-3.4-.8-3.5-2.8h1.4zM-132 491.8c0 1.2 1.1 1.6 2.2 1.6.8 0 2-.2 2-1.2 0-2.1-5.4-.7-5.4-3.9 0-1.7 1.6-2.4 3.1-2.4 1.9 0 3.3.6 3.4 2.6h-1.4c-.1-1.1-1-1.4-1.9-1.4-.8 0-1.8.2-1.8 1.1 0 1 1.4 1.2 2.7 1.4 1.4.3 2.7.8 2.7 2.4 0 2-1.8 2.6-3.5 2.6-1.9 0-3.4-.8-3.5-2.8h1.4zM-117.1 494.4h-1.4l-1.7-6.6-1.7 6.6h-1.5l-2.7-8.3h1.5l1.9 6.8 1.7-6.8h1.5l1.7 6.8 1.9-6.8h1.4l-2.6 8.3zM-110.1 486c2.6 0 4 1.9 4 4.3s-1.4 4.3-4 4.3-4-1.9-4-4.3c-.1-2.4 1.3-4.3 4-4.3zm0 7.4c1.4 0 2.6-1.1 2.6-3.1s-1.2-3.1-2.6-3.1c-1.4 0-2.6 1.1-2.6 3.1s1.1 3.1 2.6 3.1zM-104.8 486.2h1.3v1.7c.7-1.3 1.6-2 3-1.9v1.4c-2.2 0-3 1.2-3 3.3v3.7h-1.4l.1-8.2zM-92.4 494.4h-1.4v-1.1c-.4.9-1.5 1.3-2.6 1.3-2.5 0-3.8-2-3.8-4.4s1.2-4.3 3.8-4.3c.8 0 2.1.3 2.7 1.3V483h1.4l-.1 11.4zm-3.8-1c1.8 0 2.5-1.6 2.5-3.1 0-1.6-.7-3.1-2.6-3.1-1.9 0-2.5 1.6-2.5 3.2 0 1.5.8 3 2.6 3zM-90.8 486.6c0-2.2 1.4-3.8 3.6-3.8 2 0 3.4 1.2 3.4 3.2 0 1.3-.7 2-1.4 2.7-.7.6-1.4 1.3-1.4 2.4v.6H-88v-.8c.1-2.7 2.8-2.7 2.7-5.1-.1-1.2-.8-1.9-1.9-1.9-1.5 0-2.2 1.2-2.2 2.6h-1.4v.1zm2.6 6.1h1.8v1.8h-1.8v-1.8z"/><path fill="#6EEDD8" d="M-69.7 493c-.9 1.2-2.3 1.7-3.7 1.7-3.4 0-5.4-2.8-5.4-5.8 0-3.3 1.8-6.2 5.4-6.2 2.5 0 4.5 1.1 4.9 3.8H-70c-.3-1.7-1.7-2.5-3.4-2.5-2.8 0-3.9 2.4-3.9 4.8s1.4 4.6 3.9 4.6c2.4 0 3.7-1.6 3.7-3.7h-3.6v-1.3h5v6h-1l-.4-1.4zM-59.4 491.8c-.4 1.8-1.7 2.8-3.5 2.8-2.6 0-3.9-1.8-4-4.4 0-2.5 1.6-4.3 3.9-4.3 2.9 0 3.8 2.7 3.7 4.7h-6.2c0 1.4.8 2.7 2.6 2.7 1.1 0 1.9-.5 2.1-1.6h1.4v.1zm-1.3-2.3c-.1-1.3-1-2.3-2.4-2.3s-2.3 1.1-2.4 2.3h4.8zM-56.1 486.2h1.6v1.2h-1.6v5.1c0 .6.2.7 1 .7h.6v1.2h-1c-1.4 0-2-.3-2-1.8v-5.3h-1.4v-1.2h1.4v-2.5h1.4v2.6zM-49.3 483h1.4v4.4c.4-1 1.6-1.4 2.6-1.4 2.2 0 2.8 1.2 2.8 3v5.4h-1.4v-5.6c0-1-.6-1.7-1.7-1.7-1.6 0-2.4 1.1-2.4 2.6v4.7h-1.4V483h.1zM-33.7 491.8c-.4 1.8-1.7 2.8-3.5 2.8-2.6 0-3.9-1.8-4-4.4 0-2.5 1.6-4.3 3.9-4.3 2.9 0 3.8 2.7 3.7 4.7h-6.2c0 1.4.8 2.7 2.6 2.7 1.1 0 1.9-.5 2.1-1.6h1.4v.1zm-1.3-2.3c-.1-1.3-1-2.3-2.4-2.3s-2.3 1.1-2.4 2.3h4.8zM-32.2 483h1.4v11.4h-1.4V483zM-29.1 486.2h1.4v1.1c.4-.9 1.5-1.3 2.6-1.3 2.5 0 3.8 2 3.8 4.4s-1.2 4.3-3.8 4.3c-.8 0-2.1-.3-2.7-1.3v4.3h-1.4v-11.5h.1zm3.9 1c-1.8 0-2.5 1.6-2.5 3.1 0 1.6.7 3.1 2.6 3.1s2.5-1.6 2.5-3.2c-.1-1.5-.9-3-2.6-3z"/><path fill="#41D6C3" d="M-260.9 400.3h262v46.8h-262z"/><g fill="#003C32"><path d="M-124.7 426.3c0 1.5 1.2 2.1 2.5 2.1.9 0 2.2-.3 2.2-1.4 0-1.2-1.7-1.4-3.4-1.9-1.7-.4-3.4-1.1-3.4-3.2 0-2.4 2.2-3.5 4.3-3.5 2.4 0 4.6 1 4.6 3.7h-2.4c-.1-1.4-1-1.7-2.3-1.7-.8 0-1.7.3-1.7 1.3 0 .9.5 1 3.4 1.7.8.2 3.4.8 3.4 3.3 0 2.1-1.6 3.7-4.8 3.7-2.5 0-4.9-1.2-4.9-4.1h2.5zM-116.4 418.7h2.5v11.4h-2.5v-11.4zM-103.7 428.8c-.9 1.2-2 1.6-3.1 1.6-3.5 0-5.6-2.6-5.6-5.9 0-3.4 2.1-6 5.6-6 2.3 0 4.6 1.4 4.8 4h-2.4c-.3-1.3-1.2-1.9-2.4-1.9-2.3 0-3.1 1.9-3.1 3.9 0 1.9.8 3.8 3.1 3.8 1.6 0 2.6-.9 2.7-2.5h-2.5v-1.9h4.8v6.2h-1.6l-.3-1.3zM-100.2 418.7h2.5l4.8 7.7v-7.7h2.4v11.4H-93l-4.8-7.7v7.7h-2.4v-11.4zM-84.9 418.7h2.5v11.4h-2.5v-11.4zM-80.5 418.7h2.5l4.8 7.7v-7.7h2.4v11.4h-2.5l-4.8-7.7v7.7h-2.4v-11.4z"/></g><g><path fill="#6EEDD8" d="M-79 500.9h58v1.1h-58z"/></g><g><path fill="#E0E0E0" d="M-237.5 357.4c0-2.4-2-4.4-4.4-4.4-2.4 0-4.4 2-4.4 4.4v2c-.9 1-1.5 2.4-1.5 3.8 0 3.2 2.6 5.8 5.8 5.8s5.8-2.6 5.8-5.8c0-1.5-.6-2.8-1.5-3.8v-2h.2zm-7.3 0c0-1.5 1.4-2.9 2.9-2.9s2.9 1.4 2.9 2.9v.8c-.9-.5-1.8-.8-2.9-.8-1.1 0-2.1.3-2.9.8v-.8zm1.8 9l-2.7-2.7 1-1 1.7 1.7 3.8-3.8 1 1-4.8 4.8z"/></g><g><circle fill="#E0E0E0" cx="-241.9" cy="294.4" r="5.1"/><path fill="#E0E0E0" d="M-237.5 300.9h-8.7c-1.2 0-2.2 1-2.2 2.2v2.2h13.1v-2.2c0-1.2-1-2.2-2.2-2.2z"/></g><g><circle fill="#FFF" cx="-299.3" cy="299.1" r="19.5"/><path d="M-297 306.2h-3v-9.5h-3.7v-2.2c2.1.1 4-.7 4.3-2.9h2.4v14.6z"/></g><g><circle fill="#FFF" cx="-241.6" cy="490.1" r="19.5"/><path d="M-246.5 488.2c-.1-3.4 1.8-5.9 5.3-5.9 2.7 0 5 1.7 5 4.6 0 4.5-4.7 4.8-6.9 7.8h6.9v2.6h-10.6c0-3.4 2.1-4.8 4.6-6.6 1.3-.9 3.1-1.8 3.1-3.6 0-1.4-.9-2.3-2.2-2.3-1.8 0-2.3 1.8-2.3 3.4h-2.9z"/></g></svg>