<?xml version="1.0" encoding="utf-8"?>
<!-- Generator: Adobe Illustrator 18.1.1, SVG Export Plug-In . SVG Version: 6.00 Build 0)  -->
<svg version="1.1" id="Layer_1" xmlns="http://www.w3.org/2000/svg" xmlns:xlink="http://www.w3.org/1999/xlink" x="0px" y="0px"
	 width="807.1px" height="792.1px" viewBox="0 0 807.1 792.1" enable-background="new 0 0 807.1 792.1" xml:space="preserve">
<g>
	<g>
		<g>
			<g>
				<path fill="#E0E0E0" d="M403.9,468.8c1.8-20.5,2.9-40.9,3.3-61.2c0.1-5.1,0.2-10.1,0.2-15.1c0-2.5,0-5,0-7.4
					c0-2.5-0.1-5-0.1-7.5c-0.2-9.9-0.5-19.7-0.7-29.3c-0.6-9.6-1.2-19-1.8-28.3c-0.1-1-0.2-2-0.2-3.1c-2.3,0.1-4.6,0.2-6.9,0.4
					c0.1,1.1,0.2,2.1,0.2,3.2c0.4,9.2,0.9,18.5,1.3,28c0.1,9.5,0.2,19.2,0.3,29c0,2.4,0.1,4.9,0,7.3c0,2.5-0.1,5-0.1,7.5
					c-0.1,5-0.2,10-0.4,15c-0.7,20-2,40.3-4.1,60.5c-1.9,19.6-4.5,39.1-7.8,58.2c3.1,0,6.2,0,9.3-0.1
					C399.5,507.3,402,488.1,403.9,468.8z"/>
				<path fill="#E0E0E0" d="M367.9,153c1.4,4.6,3.7,11.2,6.2,19.8c1.1,4.3,2.4,9.1,3.8,14.3c0.7,2.6,1.4,5.3,2.1,8.1
					c0.7,2.8,1.2,5.8,1.9,8.8c1.3,6.1,2.6,12.5,4.1,19.3c1.2,6.9,2.4,14.1,3.7,21.6c0.8,4,1.4,8.2,1.9,12.5c0.5,0,1,0,1.6,0
					c1.3,0,2.6,0,3.8,0c-0.7-4.6-1.5-9-2.4-13.3c-1.5-7.5-2.9-14.8-4.3-21.6c-1.7-6.8-3.3-13.2-4.8-19.3c-0.8-3-1.4-6-2.3-8.8
					c-0.8-2.8-1.7-5.5-2.5-8.1c-1.6-5.2-3-9.9-4.3-14.2c-1.3-4.3-2.8-8-4-11.2c-1.2-3.3-2.2-6-3.1-8.3c-1.7-4.5-2.6-6.9-2.6-6.9
					c-0.1-0.3-0.4-0.4-0.7-0.3c-0.3,0.1-0.4,0.4-0.3,0.7C365.7,146,366.5,148.5,367.9,153z"/>
				<path fill="#E0E0E0" d="M395,533.7c-3.1,0-6.2,0-9.3-0.1c-3,16.3-6.4,32.2-10.4,47.6c3.2-0.1,6.3-0.1,9.6-0.2
					C388.7,565.7,392.1,549.8,395,533.7z"/>
				<path fill="#E0E0E0" d="M286.4,753.4c0.8-0.4,1.5-0.9,2.3-1.4c3-2,6.5-4.2,10-7.2c7.2-5.7,15.2-13.5,23.2-23.4
					c8-9.9,16-21.8,23.4-35.4c14.7-27,27.8-60.4,37.6-97.3c-3.3,0-6.5,0-9.6,0.1c-4.6,17.1-9.7,33.4-15.4,48.7
					c-6.1,16.3-12.7,31.3-19.8,44.7c-7.1,13.3-14.5,25-22,34.7c-7.4,9.7-14.9,17.3-21.6,22.8c-3.3,2.9-6.5,5-9.2,7
					c-0.6,0.4-1.2,0.8-1.8,1.1c-0.3-0.3-0.5-0.6-0.8-0.9c-5.5-5.5-14.4-5.5-19.9,0c-5.5,5.5-5.5,14.4,0,19.9
					c5.5,5.5,14.4,5.5,19.9,0C286.4,763.2,287.6,758.1,286.4,753.4z"/>
				<path fill="#E0E0E0" d="M392.9,268.5c0.5,4.1,1,8.2,1.6,12.4c0.6,4.2,0.8,8.5,1.2,12.9c0.4,4.4,0.7,8.8,1.1,13.2
					c0.1,1.1,0.2,2.3,0.3,3.5c2.2-0.1,4.5-0.3,6.7-0.4c-0.1-1.2-0.3-2.4-0.4-3.6c-0.5-4.5-1-8.9-1.5-13.3c-0.5-4.4-0.8-8.7-1.5-12.9
					c-0.6-4.2-1.3-8.4-1.9-12.5c-0.4-2.3-0.7-4.6-1-6.8c-1.5,0-3-0.1-4.4-0.1c-0.4,0-0.7,0-1.1,0
					C392.3,263.3,392.6,265.9,392.9,268.5z"/>
				<path fill="#E0E0E0" d="M96.2,611.2c-2.5-2.5-5.8-3.9-9.1-4.1c-0.7-2.6-1.4-5.6-2.3-9c-1.7-7-3.7-15.5-5.6-25.3
					c-2-9.8-3.9-21-5.6-33.2c-1.6-12.2-3.1-25.5-4-39.6c-0.5-9.1-0.9-18.6-1-28.3c0-0.7,0-1.3,0-2c0-4.7,0-9.4,0.1-14.1
					c0.4-15.4,1.3-31.3,3.2-47.4l0.7-6l0.3-1.9l0.4-2.8l0.2-1.4c0.6-4,1.1-8.1,1.8-12.1c0.7-4.1,1.5-8.1,2.2-12.2
					c0.7-4.1,1.7-8,2.6-12.1l1.3-6l1.5-6c1-4,2-8,3.1-11.9c2.3-7.9,4.4-15.8,7-23.5c3.5-11.1,7.3-21.9,11.2-32.4
					c0.4,3.5,0.8,6.9,1.3,10.2c0.7,4,1.4,7.7,2.1,11.3c0.7,3.5,1.3,6.8,1.8,9.9c0.7,3,1.4,5.8,2,8.3c0.2,0.8,0.4,1.6,0.5,2.3
					c-1.5,0.7-2.8,1.6-4,2.8c-5.5,5.5-5.6,14.4-0.1,20c5.5,5.5,14.4,5.6,20,0.1c5.5-5.5,5.6-14.4,0.1-20c-2.7-2.7-6.2-4.1-9.8-4.2
					c-0.1-0.7-0.3-1.5-0.4-2.3c-0.5-2.5-1-5.3-1.5-8.3c-0.4-3-0.9-6.3-1.3-9.8c-0.5-3.5-1-7.2-1.5-11.2c-0.5-3.9-0.8-8.1-1.2-12.4
					c-0.2-2.2-0.4-4.4-0.6-6.6c-0.2-2.2-0.4-4.5-0.5-6.9c0-0.3,0-0.7,0-1c2.1-5.4,4.3-10.8,6.5-15.9c2.8-6.9,5.7-13.6,8.6-20.1
					c5.7-13,11.2-25.3,16.4-36.5c10.4-22.5,19.4-41.2,25.7-54.2c3-6.1,5.3-11,7-14.5c-0.1,0-0.1,0.1-0.2,0.1
					c-1.7,3.4-4.1,8.2-7.1,14.2c-6.5,13-15.8,31.4-26.6,53.8c-5.4,11.2-11.2,23.3-17.1,36.3c-3,6.5-6,13.1-8.9,20
					c-1.5,3.4-3,6.8-4.4,10.3c-0.1-2.2-0.2-4.5-0.3-6.8c-0.2-2.5-0.1-5,0-7.5c0-2.5,0.1-5.1,0.1-7.7c0.1-2.6,0-5.2,0.2-7.9
					c0.2-2.6,0.4-5.3,0.6-8c0.2-2.7,0.4-5.4,0.6-8.1c0.4-2.7,0.8-5.4,1.1-8.2c0.4-2.8,0.8-5.5,1.2-8.3c0.5-2.7,1.1-5.5,1.6-8.3
					c0.5-2.5,1-5.1,1.6-7.6c0.1-0.2,0.1-0.5,0.2-0.7c0.7-2.7,1.5-5.5,2.2-8.3c0.7-2.7,1.5-5.4,2.4-8.1c0.9-2.7,1.9-5.5,2.8-8.2
					c0.1-0.5,0.3-0.9,0.5-1.3c0.8-2.3,1.7-4.5,2.6-6.7c1.1-2.6,2.2-5.3,3.3-7.9c1.3-2.6,2.5-5.1,3.8-7.6l1.9-3.8l2.1-3.7
					c1.4-2.4,2.8-4.9,4.3-7.3c1.6-2.3,3.1-4.6,4.6-6.9c0.8-1.1,1.5-2.3,2.3-3.4c0.8-1.1,1.7-2.2,2.5-3.3c1.7-2.2,3.3-4.3,5-6.4
					c6.9-8.2,14.1-15.8,21.5-22.4c7.5-6.5,14.8-12.4,22.1-17.2c7.2-4.8,14.1-9,20.3-12.3c6.3-3.3,11.9-5.9,16.6-7.9
					c3.4-1.4,6.4-2.6,8.7-3.4c4.1-1.5,6.4-2.1,6.4-2.1s-1.4,0.2-4.1,0.9c-0.4,0.1-0.9,0.2-1.3,0.3c-2.6,0.6-6,1.5-10.2,2.9
					c-4.9,1.6-10.8,3.8-17.3,6.7c-6.6,2.8-13.9,6.5-21.5,11c-7.7,4.5-15.6,10-23.6,16.4c-7.9,6.4-15.8,13.9-23.2,22.3
					c-1.8,2.1-3.6,4.3-5.4,6.5c-0.9,1.1-1.8,2.2-2.7,3.3c-0.3,0.4-0.6,0.9-0.9,1.3c-0.5,0.7-1,1.5-1.6,2.2c-0.8,1.1-1.5,2.2-2.3,3.2
					c-0.9,1.3-1.8,2.6-2.7,3.8c-1.5,2.5-3.1,5-4.6,7.5l-2.3,3.8l-2.1,3.9c-1.4,2.6-2.8,5.3-4.1,7.9c-1.2,2.7-2.4,5.4-3.6,8.2
					c-1.2,2.7-2.5,5.4-3.4,8.3c-1.7,4.8-3.5,9.5-4.9,14.4c-0.3,0.9-0.5,1.7-0.7,2.6c-0.5,1.9-1.1,3.9-1.6,5.8
					c-0.3,0.9-0.5,1.8-0.8,2.8c-0.1,0.5-0.2,1-0.3,1.5c-0.5,2.4-1,4.8-1.5,7.1c-0.6,2.9-1.2,5.7-1.8,8.6c-0.3,2-0.5,4-0.8,6
					c-0.1,0.9-0.2,1.7-0.3,2.6c-0.4,2.8-0.8,5.7-1.1,8.5c-0.2,2.8-0.4,5.6-0.6,8.4c-0.2,2.8-0.4,5.5-0.6,8.3
					c-0.2,2.7-0.1,5.4-0.1,8.1c0,2.7,0,5.3,0,7.9c0,2.6-0.1,5.2,0.2,7.7c0.3,5.1,0.6,10,0.9,14.8c0.1,2.4,0.4,4.7,0.7,7
					c0.1,0.9,0.2,1.8,0.3,2.7c-4.9,12.2-9.6,24.8-13.9,37.8c-2.7,7.7-5,15.6-7.4,23.5c-1.1,4-2.2,8-3.3,12l-1.6,6l-1.4,6.1
					c-0.9,4.1-2,8.1-2.8,12.2c-0.8,4.1-1.6,8.1-2.4,12.1c-0.8,4.1-1.4,8.2-2.1,12.3l-1,6.1l0,0.1l-0.3,2.6l-0.4,3.4
					c-2.3,16.2-3.4,32.3-4.1,47.9c-0.2,3.9-0.3,7.8-0.4,11.6c0,0.6,0,1.2,0,1.8c-0.1,10.8,0.1,21.4,0.5,31.5
					c0.6,14.3,1.9,27.8,3.3,40.2c1.4,11.5,3,22,4.7,31.4c2.2,0.2,4.4,1.1,6.1,2.8c3.8,3.8,3.8,10,0,13.8c-0.8,0.8-1.7,1.3-2.6,1.8
					c0.7,3.5,1.4,6.8,2.1,9.7c0.8,3.4,1.5,6.5,2.1,9.2c-0.8,0.5-1.6,1.1-2.3,1.8c-5.5,5.5-5.5,14.4,0,19.9c5.5,5.5,14.4,5.5,19.9,0
					C101.7,625.7,101.7,616.7,96.2,611.2z"/>
				<path fill="#E0E0E0" d="M633.4,716.2c8.8-8.6,16.6-18.3,24-28.5c1.2-1.6,2.4-3.3,3.6-5c1.8-2.8,3.6-5.6,5.4-8.4
					c6.1-9.7,11.9-19.9,16.9-30.4c3.3-6.3,6.2-12.9,9.2-19.5c4.5-2.1,8.9-4.3,13.3-6.4c4.5-2.4,8.9-5,13.3-7.4
					c1-0.6,1.9-1.2,2.8-1.9c2.2-1.4,4.3-2.8,6.5-4.2c0.9-0.6,1.9-1.2,2.8-1.8c1.8-1.3,3.6-2.6,5.3-3.9c0.1-0.1,0.3-0.2,0.4-0.3
					c5.8-4.5,10.9-9.4,15.4-14.6c5.9-6.8,10.5-14,13.7-21.2c3.3-7.1,4.9-14.2,5.7-20.5c0.5-3.1,0.5-6.1,0.5-8.8
					c0-2.7-0.4-5.2-0.5-7.4c-0.3-2.2-0.7-4.2-1-5.9c-0.2-1.1-0.5-2-0.7-2.9c-0.1-0.5-0.3-0.9-0.4-1.4c-0.6-2.3-1-3.5-1-3.5
					s0.2,1.3,0.6,3.6c0.1,0.7,0.3,1.5,0.4,2.4c0.1,0.6,0.2,1.2,0.2,1.9c0.1,1.7,0.3,3.7,0.4,5.8c0,4.4-0.1,9.7-1.4,15.7
					c-1.2,5.9-3.3,12.4-6.8,18.9c-3.5,6.5-8.3,13-14.1,19.1c-3,3.1-6.4,6.2-10,9c-2.4,1.9-5,3.8-7.6,5.5c-1,0.7-2,1.4-3,2
					c-4.1,2.4-8.2,4.9-12.4,7.4c-4.2,2.2-8.5,4.4-12.8,6.7c-1.5,0.7-2.9,1.3-4.4,2l2.1-5l2.1-5.4c5.7-14.3,10.5-29.1,14.7-44.1
					c3-10.8,5.5-21.7,7.6-32.8c0.7-3.8,1.4-7.7,2.1-11.5c0.1-0.5,0.2-1,0.3-1.5l1.5-11.6c0.2-1.9,0.5-3.9,0.7-5.8l0.5-5.8
					c0.3-3.8,0.7-7.6,0.8-11.5c0-0.1,0-0.2,0-0.2l0.3-10l0.1-1.7c0-15.6-0.5-31.2-2.9-46.4l-0.6-4.6c1.2-0.5,2.4-1.3,3.4-2.3
					c4.2-4.2,4.2-10.9,0-15.1c-2-2-4.7-3.1-7.4-3.1c-0.7-2.9-1.4-5.8-2.2-8.6l-1.4-5.5c-0.5-1.8-1.1-3.6-1.6-5.4
					c-1.1-3.6-2.2-7.2-3.3-10.8c-1.2-3.6-2.5-7-3.8-10.5c0-0.1-0.1-0.2-0.1-0.3c-1.3-3.9-2.8-7.6-4.4-11.4c-1.2-3-2.5-5.9-3.7-8.9
					c-1.4-3.4-3-6.6-4.6-9.9c-1.6-3.3-3.1-6.5-4.7-9.8c-1-1.8-1.9-3.6-2.9-5.5c-0.7-1.3-1.4-2.7-2.1-4c-1.1-2.1-2.2-4.1-3.4-6.2
					c-0.6-1-1.2-2.1-1.8-3.1c-3.6-6.1-7-12.1-10.8-17.9c-1.9-2.9-3.7-5.8-5.5-8.6c-1.9-2.8-3.8-5.6-5.7-8.3
					c-15.3-22-31.4-41.6-47.1-58.9c-15.7-17.3-30.9-32.4-44.8-45.3c-6.9-6.4-13.4-12.5-19.6-17.9c-6.2-5.4-11.8-10.5-17.1-14.7
					c-5.2-4.4-9.9-8.2-14-11.6c-4.1-3.3-7.7-6.1-10.5-8.3c-5.7-4.5-8.8-6.9-8.8-6.9c-0.5-0.4-1.1-0.3-1.5,0.2
					c-0.4,0.4-0.3,1.1,0.2,1.5l0,0c0,0,3,2.4,8.7,7c2.8,2.3,6.3,5.1,10.5,8.4c4,3.4,8.7,7.3,13.8,11.7c5.2,4.3,10.8,9.4,16.9,14.8
					c6.2,5.4,12.6,11.5,19.5,18c13.7,13,28.8,28.1,44.3,45.4c15.5,17.3,31.4,36.9,46.4,58.9c1.9,2.7,3.8,5.5,5.6,8.3
					c1.8,2.9,3.6,5.7,5.4,8.6c3.6,5.5,6.8,11.3,10.2,17c0.1,0.2,0.3,0.5,0.4,0.7c1.8,3,3.4,6.1,5,9.2c0,0,0,0,0,0.1
					c1.6,3.1,3.2,6.2,4.9,9.3c1.6,3.2,3,6.4,4.6,9.7c1.5,3.3,3.1,6.5,4.4,9.9c0.7,1.7,1.4,3.5,2.2,5.2c1.5,3.7,3,7.4,4.4,11.2
					c0.5,1.3,1,2.6,1.4,4c1.2,3.5,2.5,6.9,3.7,10.4c1.1,3.5,2.1,7.1,3.2,10.6c0.5,1.8,1.1,3.5,1.6,5.3l1.3,5.5
					c0.7,2.8,1.4,5.7,2.1,8.5c-1.1,0.5-2.2,1.2-3.1,2.1c-4.2,4.2-4.2,10.9,0,15.1c1.9,1.9,4.4,2.9,6.9,3.1l0.6,4.5
					c2.2,15,2.7,30.3,2.5,45.6l-0.2,4.4l-0.3,7.1c0,1-0.1,2-0.2,3c-0.2,2.8-0.5,5.7-0.7,8.5l-0.5,5.7c-0.2,1.9-0.5,3.8-0.7,5.7
					l-1.6,11.5c-0.3,1.9-0.7,3.8-1,5.7c-0.7,3.8-1.4,7.6-2.2,11.4c-2,9.4-4.2,18.8-6.8,28c-4.3,14.7-9.1,29.3-14.8,43.4l-2.1,5.3
					l-2.2,5.2c-0.9,2-1.8,4.1-2.6,6.1c-0.2,0.1-0.3,0.2-0.5,0.2c-4.6,1.8-9.2,3.8-13.9,5.5c-4.7,1.7-9.4,3.5-14.1,5
					c-4.8,1.5-9.5,3.1-14.2,4.5c-1.2,0.3-2.4,0.7-3.7,1.1c-2,0.6-3.9,1.1-5.9,1.7c-1.5,0.4-3,0.9-4.6,1.3c-2.3,0.6-4.7,1.3-7,1.9
					c-1.2,0.3-2.3,0.6-3.5,0.9l-0.2,0.1l-0.1,0c-0.2,0,0.1,0,0,0l-0.4,0.1l-0.9,0.2l-1.7,0.4c-4.6,1.1-9.2,2.1-13.7,3.1
					c-4.5,1-8.8,2.2-13,2.8c-4.2,0.7-8.4,1.5-12.3,2.2c-3.1,0.5-6,1.1-8.9,1.6c-0.7-1.5-1.6-2.9-2.8-4.1c-5.5-5.5-14.4-5.5-19.9,0
					c-2.2,2.2-3.6,5.1-4,8c-4.6,0.6-8.7,1.1-12.2,1.5c-2.6,0.3-4.8,0.6-6.7,0.9c-0.4-0.7-0.8-1.4-1.4-2c-3.1-3.1-8-3.1-11.1,0
					s-3.1,8,0,11.1c3.1,3.1,8,3.1,11.1,0c1-1,1.6-2.1,1.9-3.3c1.9-0.1,4.1-0.2,6.7-0.4c3.5-0.3,7.7-0.4,12.4-0.8
					c0.7,1.8,1.7,3.5,3.2,4.9c5.5,5.5,14.4,5.5,19.9,0c2.2-2.2,3.5-4.8,3.9-7.6c6.9-0.9,14.2-2.1,22-3.3c4.4-0.6,8.7-1.7,13.2-2.6
					c4.5-1,9-2,13.7-3l1.7-0.4l0.9-0.2l0.4-0.1l0.6-0.2c1.2-0.3,2.3-0.6,3.5-0.9c1.8-0.5,3.6-1,5.5-1.4c0.5-0.1,1.1-0.3,1.6-0.4
					c1.4-0.4,2.8-0.8,4.3-1.2c3.4-1,6.7-2,10.1-3c4.8-1.4,9.6-3.1,14.5-4.7c4.8-1.6,9.6-3.5,14.4-5.3c1.9-0.8,3.9-1.6,5.8-2.4
					c-2,4.2-4,8.5-6.2,12.7c-6.6,13.4-14.1,25.9-22.1,37.8c-0.4,0.5-0.8,1-1.1,1.5c-3.6,4.9-7.2,9.7-11,14.3
					c-4.7,5.8-9.7,11.4-15,16.5c-4.7,5.1-10,9.3-15.1,13.8c-1.2,1.1-2.6,2.2-3.9,3.1c-1.3,1-2.7,2-4,3c-1.3,1-2.7,2-4,3
					c-1.3,1-2.6,2-4,2.8c-14.9,10-30.4,17.5-45.9,23c-7.2,2.5-14.4,4.7-21.4,6.3c-0.6,0.2-1.1,0.3-1.7,0.4c-0.8,0.2-1.6,0.3-2.5,0.5
					c-1.4,0.3-2.8,0.5-4.2,0.8c-2.8,0.5-5.5,1-8.2,1.5c-5.4,0.8-10.7,1.2-15.9,1.8c-5.2,0.4-10.2,0.5-15.1,0.7
					c-1.2,0-2.4,0.1-3.7,0.1c-1.2,0-2.5-0.1-3.7-0.1c-2.4-0.1-4.8-0.1-7.2-0.2c-1.2,0-2.4-0.1-3.5-0.1l-1.7,0l-0.9,0l-0.7-0.1
					c-2.3-0.2-4.5-0.3-6.7-0.5c-4.4-0.3-8.5-0.8-12.6-1.2c-4-0.5-7.8-1-11.5-1.5c-3.6-0.6-7.1-1.2-10.4-1.8
					c-11.8-2.3-20.9-5.4-27.2-7.7c0.4-4-1-8.2-4.1-11.3c-5.5-5.5-14.4-5.5-19.9,0c-5.5,5.5-5.5,14.4,0,19.9c5.5,5.5,14.4,5.5,19.9,0
					c0.1-0.1,0.3-0.3,0.4-0.4c7.1,2.6,16.8,5.8,29.2,8.1c3.4,0.6,7,1.2,10.8,1.8c3.8,0.5,7.7,1,11.9,1.4c4.1,0.3,8.4,0.8,12.9,1.1
					c2.2,0.1,4.5,0.3,6.8,0.4l1,0.1l0.9,0l1.7,0c1.2,0,2.3,0.1,3.5,0.1c2.4,0.1,4.8,0.1,7.2,0.2c1.2,0,2.5,0.1,3.7,0.1
					c1.2,0,2.5-0.1,3.8-0.1c2.8-0.2,5.8-0.3,8.7-0.4c2.4-0.1,4.8-0.2,7.2-0.4c5.4-0.7,10.9-1.2,16.5-2c0.8-0.2,1.7-0.3,2.5-0.5
					c2-0.4,4-0.8,6-1.2c1.4-0.3,2.9-0.6,4.3-0.8c1.4-0.3,2.9-0.5,4.3-1c23.1-5.6,47.2-15.6,69.7-30.9c1.5-0.9,2.8-1.9,4.2-3
					c1.4-1,2.7-2.1,4.1-3.1c1.4-1,2.7-2.1,4.1-3.1c1.4-1,2.8-2.1,4-3.3C623.1,725.9,628.6,721.4,633.4,716.2z M552.5,660
					c-2.9-2.9-2.8-7.5,0-10.3c2.8-2.8,7.5-2.8,10.3,0c2.8,2.8,2.8,7.5,0,10.3S555.3,662.9,552.5,660z"/>
				<circle fill="#E0E0E0" cx="116.5" cy="515.2" r="14.1"/>
			</g>
			<g>
				<path fill="#E0E0E0" d="M23,448.8c-0.2-0.1-0.4-0.2-0.6-0.3c-1.9,3.8-3.2,7.3-4.1,10.4c-0.5,1.7-0.8,3.3-1.1,4.7
					c0,0.3,0.1,0.5,0.1,0.8c0.3-1.6,0.8-3.4,1.4-5.4C19.6,455.9,21,452.4,23,448.8z"/>
				<path fill="#E0E0E0" d="M790.5,416.1c0.4,1.1,0.8,2.2,1.2,3.3c2-3.4,3.6-6.9,4.7-10.5c0.1-0.5,0.3-0.9,0.4-1.4
					c-0.8-1.6-1.6-3.2-2.4-4.8c-1-1.6-2-3.2-3.1-4.7c-0.1,5.7-0.4,11.3-0.7,16.9C790.6,415.3,790.5,415.7,790.5,416.1z"/>
				<path fill="#E0E0E0" d="M718.3,356.1c10.8,4.7,21.4,9.8,31.2,16.1c9.8,6.2,19.1,13.3,26.8,21.7l1.5,1.5l1.3,1.7l2.6,3.3
					c0.6,0.7,1.1,1.5,1.6,2.3c0.1-4.8,0.1-9.7,0.1-14.6l-0.4-0.4c-8.5-9.2-18.3-16.7-28.7-23.3c-10.4-6.6-21.3-11.9-32.5-16.7
					c-5.2-2.2-10.5-4.3-15.8-6.2c1.6,3.7,3.1,7.5,4.4,11.4C713.1,353.9,715.7,355,718.3,356.1z"/>
				<path fill="#E0E0E0" d="M794,431.8l0,0.4c0-0.4,0,0.2,0,0.3l0,2.2c0,1.5,0,3-0.1,4.4l-0.6,3.8l-0.3,1.9c-0.1,0.6-0.3,1.3-0.5,2
					l-1.1,3.9c-0.4,1.3-1,2.6-1.5,3.8c-1.7,4.2-3.8,8.1-6.3,11.9c-2.7,4.2-5.9,8.2-9.3,11.9c-1.1,1.2-2.1,2.3-3.2,3.4
					c-7.9,8-17,14.9-26.4,21c-4.7,3.2-9.6,5.9-14.5,8.8c-1.3,0.7-2.6,1.4-4,2.1c-0.6,3.9-1.3,7.7-2.1,11.5c3.5-1.8,7-3.7,10.5-5.5
					c5-3,10.1-5.8,15-9.1c7.2-4.7,14.2-9.8,20.7-15.6c2.5-2.2,4.9-4.4,7.2-6.7c0.4-0.5,0.9-0.9,1.3-1.4c8-8.3,15-17.8,19.5-28.9
					c2.5-5.8,3.8-12,4.6-18.7l0.1-4.4l0-2.2c0-0.3,0-0.1,0-0.9l-0.1-0.6L803,430l-0.5-4.8c-0.2-1.6-0.7-3.1-1-4.7
					c0-0.1-0.1-0.2-0.1-0.4c-1.3,2.6-2.8,5.1-4.4,7.5C796,429.1,795,430.5,794,431.8z"/>
				<path fill="#E0E0E0" d="M117.6,176.2c-0.1,0.2-0.1,0.5-0.2,0.7c0.1-0.2,0.2-0.3,0.3-0.5c7.7-11.1,15.6-21.9,23.8-32.2
					c-6.7,5.2-13.2,10.4-19.3,15.7c-0.9,2.7-1.7,5.4-2.4,8.1C119.1,170.7,118.4,173.5,117.6,176.2z"/>
				<path fill="#E0E0E0" d="M168,113.7c3.6-3.6,7.1-7.3,10.7-10.9c3.7-3.5,7.4-7,11-10.3c3.8-3.2,7.3-6.5,11.1-9.5
					c4.8-3.9,9.6-7.6,14.4-11c6.4-4.6,12.8-8.8,19.2-12.6c3.8-2.2,7.7-4.3,11.5-6.2c15-7.4,29.7-12.3,43.1-14.6
					c3.4-0.5,6.6-1.1,9.8-1.4c3.2-0.2,6.2-0.4,9.2-0.6c2.9,0,5.8,0.1,8.5,0.2c2.7,0,5.3,0.3,7.7,0.6c2.4,0.3,4.8,0.6,6.9,0.8
					c2.1,0.4,4.1,0.8,6,1.2c1.9,0.4,3.6,0.7,5.2,1.1c1.6,0.4,3,0.9,4.2,1.3c0.7,0.2,1.4,0.4,2,0.6c3.8,1.1,5.8,1.7,5.8,1.7
					s-2.2-0.8-6.3-2.2c-0.4-0.2-0.9-0.3-1.4-0.5c-1.3-0.4-2.6-1-4.2-1.5c-1.6-0.4-3.3-0.8-5.2-1.3c-1.9-0.5-3.9-1-6-1.5
					c-2.2-0.3-4.5-0.7-7-1.1c-2.5-0.4-5-0.8-7.8-0.9c-2.7-0.1-5.6-0.4-8.6-0.5c-3,0.1-6.1,0.2-9.4,0.3c-3.2,0.1-6.6,0.7-10,1
					c-13.8,1.9-29.1,6.2-44.6,13.5c-1,0.5-2,1-3,1.5c-6.3,3.1-12.7,6.6-19,10.5c-8.3,5.1-16.5,10.9-24.8,17.2
					c-3.9,2.9-7.7,6.2-11.6,9.4c-3.9,3.4-7.5,6.7-11.4,10.1c-3.8,3.4-7.5,7.2-11.2,10.9c-3.8,3.7-7.3,7.7-11,11.5
					c-7.8,8.5-15.4,17.5-22.8,26.8c4-3.4,8-6.8,12.3-10.2c5.5-4.4,11.3-8.8,17.2-13.1C161.9,120.4,164.9,116.9,168,113.7z"/>
				<path fill="#E0E0E0" d="M657.3,551.7c-1.1,6.9-2.3,13.8-3.7,20.6c-3.4,0-6.7,1.2-9.3,3.8c-5.1,5.1-5.1,13.3,0,18.4
					c1.1,1.1,2.3,1.9,3.6,2.5c-0.4,1.5-0.7,3.1-1.1,4.6c-2.1,7.2-4.2,14.5-6.3,21.6c-1.2,3.7-2.5,7.4-3.8,11.1
					c2-0.6,3.9-1.1,5.9-1.7c0.9-2.6,1.8-5.2,2.6-7.8c2.1-7.3,4.3-14.6,6.4-21.9c0.4-1.5,0.7-3.1,1.1-4.6c3.6,0.2,7.2-1,10-3.8
					c5.1-5.1,5.1-13.3,0-18.4c-1.2-1.2-2.7-2.2-4.2-2.8c1.5-7.7,2.9-15.4,4-23.3c8.4-2.7,16.8-5.5,25.2-8.7c10-4,20.1-8.1,30-12.9
					c0.8-3.8,1.5-7.6,2.2-11.4c-1.6,0.8-3.1,1.6-4.7,2.3c-10.1,5-20.5,9.2-30.8,13.3c-6.8,2.5-13.7,4.9-20.5,7.2
					c1.6-13,2.7-26.2,3-39.4c0.1-3.1,0.1-6.3,0.1-9.4c0-1.1,0-2.2,0-3.3l0.1-5.9c0-2-0.2-3.9-0.3-5.9l-0.7-11.7l-0.4-5.9
					c-0.1-2.1-0.5-3.9-0.7-5.9l-1.5-11.6c-0.5-3.8-1.4-7.7-2.1-11.5l-1.1-5.8c-0.4-1.9-0.7-3.8-1.2-5.7c-2-7.5-3.6-15.1-6.1-22.4
					c-7.2-23.3-16.5-45.5-27.3-66.3c8.4,1.6,16.8,3.3,25.1,5.3c2,0.5,3.9,1,5.9,1.4c0.4,1.9,1.3,3.7,2.8,5.2
					c4.1,4.1,10.6,4.1,14.7,0c0.1-0.1,0.2-0.3,0.4-0.4c10.3,2.9,20.4,6.3,30.4,10.1c-1.4-3.8-2.9-7.5-4.4-11.2
					c-7.8-2.7-15.6-5.1-23.5-7.3c-0.3-2.1-1.3-4.2-2.9-5.8c-4-4-10.6-4-14.7,0c-0.3,0.3-0.6,0.7-0.8,1c-2-0.5-3.9-1-5.9-1.4
					c-10.7-2.5-21.4-4.5-32.2-6.4c-1.3-2.3-2.6-4.7-3.9-7c-6-10.5-12.3-20.7-18.8-30.5c-1.8-2.6-3.5-5.3-5.3-7.9
					c-7.6-11-15.3-21.6-23.2-31.7c-16.5-21.2-33.2-40.3-49.4-57.3c-3.9-4.3-8.1-8.3-12-12.3c-4-4-7.8-7.9-11.8-11.5
					c-3.9-3.6-7.7-7.2-11.4-10.6c-3.8-3.3-7.5-6.6-11.1-9.7c-1.8-1.6-3.5-3.1-5.3-4.6c-1.8-1.5-3.5-2.9-5.2-4.3
					c-3.4-2.8-6.7-5.6-9.9-8.2c-6.5-5.1-12.4-9.7-17.8-14c-5.5-4.1-10.4-7.7-14.7-10.8c-4.3-3.2-8-5.7-11-7.8
					c-6-4.2-9.2-6.4-9.2-6.4c-0.3-0.2-0.8-0.2-1,0.2c-0.2,0.3-0.2,0.8,0.2,1.1l0,0c0,0,3.2,2.3,9.1,6.5c2.9,2.1,6.7,4.6,10.9,7.9
					c4.2,3.2,9.1,6.8,14.5,10.9c5.3,4.2,11.2,9,17.6,14.1c3.1,2.6,6.4,5.4,9.8,8.3c1.7,1.4,3.4,2.9,5.2,4.4c1.7,1.5,3.5,3.1,5.2,4.7
					c3.5,3.2,7.2,6.4,10.9,9.8c3.6,3.5,7.4,7,11.3,10.7c3.9,3.6,7.7,7.5,11.6,11.5c3.9,4,8,8,11.9,12.3c16,17,32.6,36.1,48.9,57.3
					c7.1,9.2,14.1,18.8,21,28.9c1.7,2.5,3.5,5.1,5.2,7.7c7.1,10.7,13.9,21.7,20.5,33.3c0.8,1.4,1.6,2.9,2.4,4.3
					c-11.3-1.8-22.5-3.4-33.7-4.7c-10.1-1.2-20.2-2.1-30.3-2.9c-0.6-4.6-2.6-9-6.1-12.5c-8.3-8.3-21.9-8.3-30.2,0
					c-2.9,2.9-4.7,6.4-5.6,10c-22.4-0.8-44.6-0.9-66.5-0.3c-1.6,0-3.1,0.1-4.7,0.1c-1.9,0-3.9,0.1-5.8,0.2
					c-9.8,0.3-19.6,0.8-29.2,1.3c-2.2,0.1-4.5,0.3-6.7,0.4c-28.5,1.9-56.2,4.8-82.8,8.7c-40.8,6-79.1,14.1-113.7,24
					c-16,4.5-31.2,9.5-45.6,14.8c-3.6,1.3-7.2,2.7-10.6,4c-12.7,5-24.7,10.2-35.7,15.6c-13,6.4-24.8,13-35.4,19.9l-0.4,2.8
					c10.9-7,23.3-13.7,37-20.1c10.7-5,22.2-9.7,34.3-14.3c3.5-1.3,7-2.6,10.6-3.9c14.8-5.2,30.5-10.1,47-14.6
					c34.5-9.4,72.7-17,113.3-22.4c26.5-3.5,54-6.1,82.4-7.7c2.3-0.1,4.6-0.2,6.9-0.4c9.7-0.5,19.4-0.8,29.2-1.1
					c1.9-0.1,3.8-0.1,5.7-0.1c1.5,0,2.9-0.1,4.3-0.1c21.6-0.4,43.6-0.2,65.8,0.7c0.6,4.6,2.6,9,6.1,12.5c8.3,8.3,21.9,8.4,30.2,0
					c2.8-2.8,4.6-6.2,5.6-9.8c9.9,0.9,19.9,1.9,29.9,3.1c13.3,1.6,26.5,3.6,39.8,6c11.2,21.5,20.8,44.4,28.1,68.4
					c2.4,7.2,4,14.7,5.9,22.2c0.5,1.9,0.9,3.7,1.2,5.6l1.1,5.6c0.7,3.8,1.5,7.5,2,11.4l1.4,11.6c0.2,1.9,0.6,3.9,0.6,5.7l0.3,5.8
					l0.6,11.6c0.1,1.9,0.3,3.9,0.3,5.8l-0.1,5.8c0,1.6,0,3.1-0.1,4.6c0,3.1-0.1,6.3-0.2,9.4c-0.5,13.3-1.7,26.5-3.4,39.7
					c-33.2,10.6-66.5,18.1-98.5,23.7c-40.4,7-79,10.9-114.7,13.3c-6.7,0.3-13.4,0.8-19.9,1.1c-0.7,0-1.3,0.1-2,0.1
					c-1.4,0.1-2.9,0.1-4.3,0.2c-8.6,0.3-17,0.6-25.1,1c-3.2,0.1-6.3,0.1-9.5,0.2c-3.2,0.1-6.4,0.1-9.6,0.2c-1.6,0-3.2,0.1-4.8,0.1
					c-7.7,0.2-15.2,0-22.5,0c-3.6,0-7.2,0-10.7,0c-3.5-0.1-7-0.2-10.4-0.3c-6.8-0.2-13.3-0.3-19.6-0.6c-12.6-0.7-24.1-1.1-34.5-2
					c-5.2-0.4-10.1-0.8-14.8-1.1c-4.6-0.4-9-0.9-13-1.3c-7.7-0.8-14.3-1.4-19.7-2.2c-0.1-5.1-2.1-10.2-6-14.1c-8-8-21.1-8-29.1,0
					c-8,8-8,21.1,0,29.1c8,8,21,8,29.1,0c2.7-2.7,4.4-5.9,5.3-9.3c5.4,0.8,12,1.6,19.7,2.5c4.1,0.5,8.4,1,13.1,1.5
					c4.7,0.4,9.6,0.9,14.8,1.3c10.5,1.1,22.1,1.6,34.7,2.4c6.3,0.3,12.9,0.5,19.7,0.8c3.4,0.1,6.9,0.3,10.4,0.4
					c3.5,0.1,7.1,0.1,10.8,0.2c7.3,0.1,14.9,0.3,22.6,0.2c0.9,0,1.8,0,2.7,0c3.2,0,6.4,0,9.6-0.1c3.8,0,7.7-0.1,11.7-0.1
					c8.2-0.2,16.6-0.5,25.2-0.8c0.9,0,1.7-0.1,2.6-0.1c0.6,0,1.3,0,1.9-0.1c7.2-0.3,14.5-0.7,22-1.1c35.9-2.2,74.9-6,115.6-12.8
					C592.8,568.7,625,561.8,657.3,551.7z M522.1,322.5c-4.8-4.8-4.8-12.6,0-17.4c4.8-4.8,12.6-4.8,17.4,0c4.8,4.8,4.8,12.6,0,17.4
					C534.7,327.3,526.9,327.3,522.1,322.5z"/>
				<path fill="#E0E0E0" d="M498.3,779.4c-2.4,0.2-4.8,0.3-7.2,0.4c-2.6,0.6-5.2,1.1-7.7,1.7c-5.1,1.3-10.2,1.9-15.1,2.7
					c-2.5,0.4-4.9,0.8-7.3,1.1c-2.4,0.2-4.8,0.4-7.2,0.6c-2.4,0.2-4.7,0.4-7,0.6l-1.7,0.1l-0.4,0l-0.3,0l-0.8,0
					c-1.1,0-2.2,0.1-3.3,0.1c-4.4,0.2-8.7,0.2-12.7,0.3c-4.1,0.1-8-0.1-11.7-0.1c-3.7-0.1-7.3-0.4-10.6-0.6
					c-13.5-1.1-23.8-3.4-30.6-5.2c-1.3-0.4-2.5-0.8-3.5-1.1c0-2.1-0.7-4.1-2.3-5.7c-3.1-3.1-8-3.1-11.1,0c-3.1,3.1-3.1,8,0,11.1
					c3.1,3.1,8,3.1,11.1,0c0.3-0.3,0.5-0.6,0.7-0.9c1.1,0.4,2.2,0.8,3.6,1.2c7.3,2,17.9,4.4,31.7,5.5c3.4,0.2,7.1,0.5,10.9,0.7
					c3.8,0.1,7.8,0.3,11.9,0.2c4.1,0,8.4-0.1,12.9-0.2c1.1,0,2.2-0.1,3.4-0.1l0.8,0l0.5,0l0.4,0l1.7-0.1c2.3-0.2,4.6-0.4,7-0.5
					c2.4-0.2,4.8-0.4,7.2-0.5c2.5-0.3,5-0.7,7.5-1c5.1-0.7,10.3-1.4,15.5-2.7c2.6-0.6,5.3-1.2,8-1.8l2-0.5l2-0.6
					c1.3-0.4,2.7-0.8,4-1.2c2.7-0.8,5.5-1.6,8.2-2.5c2.8-0.9,5.4-2.1,8.2-3.1c0.1,0,0.1-0.1,0.2-0.1c-0.8,0.2-1.7,0.3-2.5,0.5
					C509.2,778.2,503.7,778.7,498.3,779.4z"/>
				<path fill="#E0E0E0" d="M588.5,729.1c2.3-2.6,4.6-5.1,6.9-7.7l1.7-1.9l1.6-2.1c1.1-1.4,2.1-2.8,3.2-4.2c0.7-0.9,1.4-1.8,2-2.6
					c0.4-0.5,0.8-1,1.2-1.5l1.6-2.1l1.5-2.2c1.7-2.6,3.4-5.1,5.1-7.7c0.3-0.4,0.5-0.8,0.8-1.2c1-1.5,1.9-3,2.8-4.6
					c0.9-1.6,1.8-3.1,2.7-4.7c3.8-6.2,6.8-12.9,10-19.5c0.8-1.6,1.5-3.4,2.2-5.1l2.1-5.2l2.1-5.2l1.1-2.6l0.9-2.6
					c0.3-0.8,0.6-1.7,0.9-2.5c-1.4,0.4-2.8,0.8-4.3,1.2c-0.5,0.1-1.1,0.3-1.6,0.4l-0.7,1.9l-1,2.5l-2.1,5.1l-2.1,5.1
					c-0.7,1.7-1.4,3.4-2.2,5c-3.2,6.5-6.1,13.1-9.8,19.1c-0.9,1.5-1.7,3.1-2.6,4.6c-0.9,1.5-1.7,3.1-2.7,4.5c-1.5,2.3-3,4.5-4.5,6.8
					c-0.4,0.6-0.9,1.3-1.3,1.9l-1.4,2.2l-1.6,2.1c-1.1,1.4-2.1,2.7-3.2,4.1c-0.9,1.2-1.8,2.3-2.7,3.5c-0.2,0.2-0.3,0.4-0.5,0.6
					l-1.6,2l-1.7,1.9c-2.3,2.5-4.5,5-6.8,7.5l-1.7,1.9l-1.8,1.7c-1.2,1.1-2.4,2.3-3.6,3.4c-1.2,1.1-2.4,2.3-3.6,3.4l-1.8,1.7
					l-1.9,1.5c-2.5,2.1-5,4.1-7.5,6.1l-1.9,1.5c-0.6,0.5-1.3,0.9-2,1.4c-1.3,0.9-2.6,1.8-3.9,2.7c-2.6,1.7-5.1,3.7-7.8,5.2
					c-2.7,1.6-5.4,3.1-8,4.6c-1.3,0.7-2.6,1.6-4,2.3c-1.4,0.7-2.7,1.3-4.1,2c-1,0.5-2,1-3,1.5c0.6-0.1,1.1-0.3,1.7-0.4
					c7.1-1.7,14.2-3.8,21.4-6.3c2.3-1.4,4.4-3.1,6.7-4.6c1.3-0.9,2.7-1.9,4-2.8l2-1.4l1.9-1.6c2.6-2.1,5.1-4.2,7.7-6.3l2-1.6
					l1.8-1.7c1.2-1.2,2.4-2.3,3.7-3.5c1.2-1.2,2.5-2.4,3.7-3.5l1.9-1.8L588.5,729.1z"/>
				<path fill="#E0E0E0" d="M76.8,574.8c-1.7-1.7-3.9-2.6-6.1-2.8c-0.7-0.1-1.4,0-2,0c-1-2.2-2.2-4.7-3.3-7.8
					c-1.4-3.5-2.9-7.6-4.7-12.2c-1.5-4.6-3.3-9.7-5.1-15.3c-0.8-2.9-1.7-5.8-2.6-8.9c-0.4-1.5-0.9-3.2-1.3-4.6
					c-0.4-1.6-0.8-3.2-1.2-4.9c-3.3-13.2-6.2-28.4-8.2-45c-0.6-4.7-1-9.6-1.5-14.5c0-0.4-0.1-0.8-0.1-1.3c-0.8-9.9-1.2-20.3-1.1-31
					c2.1-2.1,4.3-4.3,6.7-6.4c6-5.4,12.9-10.7,20.6-15.9l0.3-2.6c-8.3,5.7-15.7,11.6-22,17.4c-2,1.9-3.9,3.7-5.7,5.6
					c0-1.7,0-3.5,0.1-5.3c0.4-19.2,2.4-39.4,5.8-60.1c0.9-5.2,1.7-10.4,2.9-15.6c0.5-2.6,1.1-5.2,1.6-7.8c0.6-2.6,1.2-5.2,1.8-7.8
					c1.2-5.2,2.6-10.5,4-15.8c1.3-5.2,3-10.5,4.5-15.8c6.4-21.1,14.1-42.1,23.6-62.4l7.4-15c2.7-4.8,5.3-9.7,8.1-14.5l4.4-7.2l0,0
					c0.3-2,0.5-4,0.8-6c0.6-2.9,1.2-5.7,1.8-8.6c0.5-2.4,1-4.8,1.5-7.1c-2.3,3.3-4.5,6.6-6.8,10l-1.2,1.8l-1.1,1.8l-2.2,3.6
					l-4.5,7.1c-2.9,4.9-5.7,10-8.5,14.9L76,230c-9.8,20.6-17.8,42.1-24.4,63.5c-1.6,5.4-3.3,10.7-4.7,16.1c-1.4,5.3-2.8,10.6-4,16
					c-0.6,2.7-1.3,5.4-1.9,8c-0.5,2.7-1.1,5.4-1.6,8c-1.2,5.3-2,10.6-2.9,15.9c-4.5,26.7-6,52.8-5.3,76.9c-1.5,1.9-2.8,3.8-4,5.6
					c-1.8,2.7-3.2,5.3-4.5,7.9c0.2,0.1,0.4,0.2,0.6,0.3c1.3-2.5,2.9-5.1,4.7-7.7c1-1.5,2.1-3,3.3-4.5c0.2,5.8,0.5,11.4,0.9,17
					c0,0.3,0,0.6,0.1,0.9c0.5,7,1.3,13.7,2.1,20.3c0.6,4.2,1.1,8.4,1.9,12.4c0.7,4,1.5,8,2.2,11.8c0.9,3.8,1.7,7.5,2.5,11.1
					c0.8,3.6,1.8,7,2.7,10.4c0.5,1.7,0.9,3.3,1.3,5c0.5,1.8,1,3.2,1.5,4.8c1,3.1,1.9,6,2.8,8.9c1.9,5.7,3.9,10.9,5.6,15.6
					c3.5,8.6,6.4,15.4,8.7,20.2c-0.1,0.1-0.3,0.2-0.4,0.3c-3.8,3.8-3.8,10,0,13.8c3,3,7.6,3.6,11.2,1.8c0.9-0.5,1.8-1,2.6-1.8
					C80.6,584.8,80.6,578.6,76.8,574.8z"/>
			</g>
			<g>
				<g>
					<path fill="#E0E0E0" d="M155,492.2c-0.2-4.1-0.4-8.3-0.5-12.5c-0.4-8.5-0.7-17.1-1.1-25.9c0-8.8-0.1-17.8-0.1-26.9
						c0-4.6-0.1-9.2-0.1-13.8c0-4.6,0.1-9.4,0.2-14c0.2-9.4,0.6-19,1.1-28.7c0.1-2.7,0.3-5.5,0.5-8.2c-3.6,1.3-7.1,2.6-10.6,3.9
						c-0.1,1.3-0.2,2.6-0.2,3.8c-0.5,9.8-0.9,19.4-1.1,29c-0.1,4.8-0.2,9.4-0.2,14.1c0,4.7,0,9.3,0.1,13.9
						c0.1,9.2,0.1,18.3,0.2,27.2c0.4,8.9,0.8,17.6,1.1,26.1c0.2,4.3,0.4,8.5,0.5,12.7c0,0.7,0.1,1.5,0.1,2.2c3.5,0.9,7,1.9,10.6,2.8
						C155.2,495.9,155,494.1,155,492.2z"/>
					<path fill="#E0E0E0" d="M348.6,42.3c1,1.1,1.9,2.2,2.9,3.3c3.2-0.5,6.4-0.9,9.7-1.3c-5.6-7.1-11.8-13.9-19-19.8
						c-9.1-7.5-19.8-13.7-31.8-16.2c-12-2.6-24.8-1.2-36,3.6c-9.9,4.1-18.5,10.3-26.2,17.3l-1,0.9c-0.7,0.7-1.4,1.3-2.1,2
						c-8.3,8.3-15.6,17.4-22,27c-0.5,0.7-0.9,1.4-1.3,2.1c6.4-3.9,12.7-7.4,19-10.5c3.4-4.2,6.9-8.2,10.7-12
						c7.8-7.6,16.5-14.3,26.3-18.4c9.7-4.2,20.4-5.4,30.7-3.4c10.3,2,19.8,7.4,28.2,14.1c4,3.3,7.8,6.9,11.3,10.7L348.6,42.3z"/>
					<path fill="#E0E0E0" d="M234.4,59.5c-6.4,3.7-12.8,8-19.2,12.6c-4.5,7.8-8.7,15.7-12.5,23.8c4.7-2.6,9.5-5.2,14.4-7.7
						C221.4,80,226,72,231,64.3C232.1,62.7,233.3,61.1,234.4,59.5z"/>
					<path fill="#E0E0E0" d="M417.7,206c3.7,17.4,6.7,34.7,9.2,51.8c2.1,0.1,4.3,0.1,6.5,0.2c-2.4-17.6-5.3-35.4-9-53.4
						c-4.3-20.9-9.5-42.1-16.1-63.1c-6.6-21-14.6-42-24.9-62.1c-4.7-9.1-9.9-18-15.9-26.6c-3.1,0.4-6.2,0.7-9.3,1.2
						c0.2,0.3,0.5,0.7,0.7,1c6.5,8.9,12.2,18.4,17.3,28.1c10.2,19.5,18.2,40.1,24.9,60.7C408,164.5,413.3,185.3,417.7,206z"/>
					<path fill="#E0E0E0" d="M440,461.6c0.3-4.1,0.5-8.2,0.8-12.4c0.1-4.2,0.3-8.4,0.4-12.6c1.5-34,1.3-71-1.1-110.1
						c-0.2-3.6-0.5-7.2-0.7-10.8c-1.9,0-3.8,0.1-5.7,0.1c0.3,3.7,0.6,7.4,0.9,11c2.8,38.8,3.5,75.6,2.4,109.6
						c-0.1,4.3-0.2,8.5-0.3,12.6c-0.2,4.1-0.4,8.3-0.6,12.3c-0.5,8.1-0.8,16-1.3,23.8c-1.2,14.1-2.1,27.5-3.6,40.1
						c1,0,2-0.1,2.9-0.1c1.7-12.5,2.8-25.8,4.3-39.8C439.1,477.8,439.5,469.8,440,461.6z"/>
					<path fill="#E0E0E0" d="M427.9,567.7c1-5.9,2-12.1,3-18.4c0.8-5.2,1.5-10.6,2.2-16.1c-0.9,0-1.9,0-2.8,0.1
						c-0.6,5.3-1.2,10.6-1.9,15.6c-0.9,6.4-1.9,12.5-2.7,18.4c-0.4,3-0.9,5.9-1.3,8.7c-0.2,1.3-0.4,2.5-0.6,3.7c0.7,0,1.3,0,2-0.1
						c0.2-1.1,0.4-2.2,0.6-3.3C426.9,573.5,427.4,570.6,427.9,567.7z"/>
					<path fill="#E0E0E0" d="M410.8,644.8c0.7-2.6,1.5-5.4,2.4-8.6c0.9-3.1,1.6-6.6,2.6-10.4c0.9-3.8,1.9-7.8,2.9-12.1
						c0.5-2.1,1-4.4,1.6-6.7c0.5-2.3,1-4.7,1.4-7.1c0.8-3.9,1.6-8,2.5-12.3c-0.6,0-1.3,0-1.9,0.1c-0.8,4.1-1.5,8.1-2.2,11.9
						c-0.5,2.4-0.9,4.8-1.3,7.1c-0.5,2.3-1,4.5-1.5,6.7c-1,4.3-1.8,8.4-2.7,12.1c-0.9,3.8-1.5,7.3-2.4,10.4c-0.8,3.2-1.6,6-2.3,8.6
						c-2.7,10.3-4.1,15.8-4.1,15.8l0,0c0,0.1,0.1,0.3,0.2,0.3c0.2,0,0.3,0,0.4-0.2C406.4,660.5,408,655.1,410.8,644.8z"/>
					<path fill="#E0E0E0" d="M438.9,308.6c-1.2-15.2-2.8-30.6-4.8-46.3c-2.2-0.1-4.3-0.2-6.5-0.3c2.3,15.8,4.1,31.4,5.5,46.8
						C435,308.7,436.9,308.6,438.9,308.6z"/>
					<path fill="#E0E0E0" d="M785.9,455.2c0.9-5.5,1.7-11,2.4-16.6c-2.7,2.9-5.5,5.5-8.4,8.1c-0.3,2.5-0.6,4.9-1,7.4
						c-1.3,8.3-2.8,16.4-4.5,24.4c3.4-3.7,6.6-7.7,9.3-11.9C784.5,462.8,785.2,459,785.9,455.2z"/>
					<path fill="#E0E0E0" d="M685,661c1.7-1.8,3.6-3.7,5.4-5.9c1.9-2.1,3.8-4.4,5.9-6.8c8.2-9.8,17.8-21.9,27.7-36.7
						c1.5-2.3,3-4.6,4.5-7c-2.1,1.4-4.3,2.8-6.5,4.2c-0.2,0.4-0.4,0.7-0.7,1.1c-9.3,15-18.5,27.4-26.3,37.4
						c-4,4.9-7.5,9.4-10.8,13.1c-2.6,3.1-4.9,5.8-7,8c0.6-0.4,1.2-0.7,1.8-1.1C680.9,665.4,682.8,663.3,685,661z"/>
					<path fill="#E0E0E0" d="M769.7,518.4c-5,14.6-10.6,28.3-16.5,41.1c-4.8,10.5-10,20.3-15.2,29.4c-2.4,1.9-5,3.8-7.6,5.5
						c1.6-2.9,3.2-5.9,4.9-8.9c2.2-4.4,4.6-8.9,6.9-13.5c2.2-4.7,4.5-9.5,6.7-14.4c8.2-18.8,15.8-39.8,21.6-62.4
						c2.5-2.2,4.9-4.4,7.2-6.7c0.4-0.5,0.9-0.9,1.3-1.4c-0.5,2-1,4-1.5,6c-2.3,8.3-4.8,16.4-7.4,24.3L769.7,518.4z"/>
					<path fill="#E0E0E0" d="M790,422c0.2-2,0.3-4,0.5-5.9c0-0.4,0.1-0.7,0.1-1.1c0.4-5.6,0.6-11.2,0.7-16.9
						c0.2-8.5,0.2-17.2-0.2-25.9c-0.2-5.3-0.6-10.6-1-16c-0.7-8.6-1.7-17.2-3-25.9c-2.3-14.3-5.3-28.6-9.1-42.7l-3.1-10.6
						c-1-3.6-2.3-6.9-3.4-10.4c-0.6-1.8-1.1-3.4-1.8-5.2l-2-5.1l-4-10.3c-2-4.9-4.2-9.8-6.4-14.6c0.1-0.1,0.3-0.3,0.4-0.4
						c6-6,6-15.8,0-21.9c-3.8-3.8-9-5.2-13.8-4.2c-6.8-12.3-14.3-24.2-22.3-35.6c-4.2-5.9-8.6-11.6-12.9-17.3
						c-1.1-1.4-2.2-2.8-3.4-4.2l-3.5-4.1c-2.3-2.7-4.7-5.4-7-8.1c-2.3-2.8-4.8-5.2-7.2-7.7c-2.4-2.5-4.8-5-7.2-7.5
						c-1.2-1.3-2.3-2.4-3.7-3.8l-3.8-3.6c-2.5-2.4-5.1-4.7-7.6-7.1c-4-3.6-8-7.1-12-10.5c-0.7,1.5-1.6,3-2.9,4.3
						c-0.6,0.6-1.3,1.2-2,1.7c3.9,3.4,7.8,6.8,11.6,10.4c2.4,2.3,4.9,4.7,7.3,7l3.7,3.5c1.1,1,2.3,2.5,3.5,3.7
						c2.4,2.5,4.7,5.1,7.1,7.6c2.3,2.6,4.9,5.1,7,7.7c2.2,2.6,4.4,5.3,6.6,8l3.3,4c1.1,1.3,2.2,2.7,3.2,4.1
						c4.2,5.6,8.5,11.2,12.6,16.9c7.8,11.1,15,22.7,21.6,34.7c0,0,0,0,0,0c-6,6-6,15.8,0,21.9c3.6,3.6,8.5,5,13.2,4.3
						c2.1,4.7,4.2,9.4,6.1,14.2l3.9,10l2,5c0.6,1.5,1.2,3.4,1.8,5.1c1.1,3.4,2.4,6.9,3.4,10.3l3.1,10.2c3.8,13.8,6.9,27.7,9.2,41.7
						c0.8,5,1.5,10.1,2,15.1c0.5,4.5,1,9,1.4,13.4c0.4,4.4,0.7,8.9,1,13.3c0.3,4.9,0.4,9.8,0.4,14.6c0.1,4.9,0,9.7-0.1,14.6
						c-0.1,4-0.2,7.9-0.4,11.8c-0.3,6.1-0.8,12.2-1.4,18.2c3-3.1,5.7-6.5,8.1-10C789.8,422.5,789.9,422.3,790,422z"/>
					<path fill="#E0E0E0" d="M410.8,6.4c2.1,0,4.4,0.2,6.8,0.5c4.9,0.5,10.5,0.9,16.8,1.6c3.6,0.4,7.5,0.9,11.5,1.5
						c0,2.5,1,4.9,2.8,6.8c3.8,3.8,10,3.8,13.8,0c1.1-1.1,1.8-2.4,2.3-3.8c4.7,0.9,9.5,1.8,14.6,3c8.6,1.7,17.6,4.4,27.2,7
						c4.7,1.5,9.5,3.1,14.4,4.7c1.2,0.4,2.5,0.8,3.7,1.2c1.2,0.5,2.5,0.9,3.7,1.4c2.5,0.9,5,1.9,7.5,2.9
						c20.2,7.9,41.3,18.2,62.4,31.2c5.6,3.5,11.2,7.1,16.8,11c5.6,2.1,10.3,4,14.2,5.7c0.4-0.5,0.8-0.9,1.2-1.4
						c0.4-0.4,0.8-0.8,1.3-1.1c-9.9-7.2-20-13.8-30.1-19.7c-21.7-12.8-43.4-22.7-64-30.3c-2.6-0.9-5.1-1.8-7.7-2.8
						c-1.3-0.4-2.5-0.9-3.8-1.3c-1.3-0.4-2.5-0.8-3.8-1.2c-5-1.5-9.9-3-14.7-4.5c-9.7-2.4-18.8-4.9-27.6-6.5
						c-2.2-0.4-4.3-0.9-6.4-1.3c-2.1-0.4-4.2-0.8-6.2-1.1c-0.7-0.1-1.4-0.2-2.1-0.3c0-2.5-1-4.9-2.9-6.8c-3.8-3.8-10-3.8-13.8,0
						c-1.2,1.2-2,2.7-2.5,4.3c-0.5-0.1-1.1-0.1-1.6-0.2c-3.5-0.3-6.9-0.7-10-1c-12.8-0.8-22.8-1.1-29.6-0.8
						c-6.8,0.2-10.4,0.3-10.4,0.3s3.6,0.2,10.4,0.6C406.8,6.2,408.7,6.3,410.8,6.4z"/>
					<path fill="#E0E0E0" d="M198.9,692.4c-2.6-2.6-6.1-4-9.5-4.1c-0.3-0.9-0.6-1.9-0.9-2.9c-0.8-2.5-1.7-5.3-2.8-8.5
						c-0.5-1.6-1-3.2-1.6-4.9c-0.4-1.7-0.9-3.5-1.4-5.3c-1.9-7.4-4.2-15.8-6.7-25.3c-2.1-9.6-4.3-20.3-6.8-31.9
						c-2.1-11.7-4.1-24.4-6.3-38c-0.8-6.8-1.7-13.9-2.6-21.1c-0.4-3.6-0.9-7.3-1.3-11c-0.2-1.9-0.4-3.7-0.7-5.6
						c-0.2-1.9-0.3-3.8-0.5-5.7c-0.6-7.7-1.3-15.6-1.9-23.6c-0.1-0.8-0.1-1.7-0.2-2.5c-3.6-1-7.2-2-10.7-3.1
						c0.2,2.1,0.4,4.2,0.5,6.3c0.7,8.2,1.3,16.1,2,23.9c0.2,1.9,0.3,3.9,0.5,5.8c0.2,1.9,0.5,3.8,0.7,5.7c0.5,3.8,0.9,7.5,1.4,11.2
						c0.9,7.3,1.8,14.4,2.7,21.3c2.4,13.7,4.4,26.6,6.6,38.4c2.6,11.8,4.9,22.6,7,32.4c2.6,9.7,5,18.4,7,25.9c0.5,1.9,1,3.7,1.5,5.4
						c0.6,1.7,1.1,3.3,1.6,4.9c1,3.1,2,5.9,2.8,8.4c0.3,1,0.7,2,1,2.9c-0.4,0.3-0.9,0.7-1.3,1.1c-5.5,5.5-5.5,14.4,0,19.9
						c5.5,5.5,14.4,5.5,19.9,0C204.4,706.9,204.4,698,198.9,692.4z"/>
					<path fill="#E0E0E0" d="M149.8,274.9c0.9,0.9,2,1.7,3,2.3c-4.2,29-6.8,57.4-8.4,84.8c3.5-1.4,7-2.7,10.6-4
						c1.6-25.7,4.2-52.2,8-79.3c2.5-0.6,5-1.8,6.9-3.8c5.6-5.6,5.6-14.6,0-20.2c-0.9-0.9-1.8-1.6-2.9-2.2c0.2-1.1,0.4-2.3,0.6-3.4
						c0.9-5,1.8-10,2.8-15c4.9-0.2,9.8-2.2,13.6-6c8-8,8-21,0-29.1c-1.5-1.5-3.3-2.8-5.1-3.7c5.9-24.1,13.2-48.2,22.3-71.8
						c3.2-8.1,6.6-16.1,10.3-23.9c-4.7,2.4-9.3,4.9-13.9,7.5c-1.9,4.3-3.7,8.6-5.4,12.9c-9.5,24.1-17,48.6-23.1,73
						c-5.2,0.1-10.3,2.1-14.3,6c-8,8-8,21.1,0,29.1c1.7,1.7,3.6,3,5.6,3.9c-1,5.1-2,10.2-2.9,15.2c-0.2,1.2-0.4,2.3-0.6,3.5
						c-2.6,0.5-5.2,1.8-7.2,3.9C144.2,260.3,144.2,269.3,149.8,274.9z M165.5,259.2c3.1,3.1,3.1,8.2,0,11.3c-3.1,3.1-8.2,3.1-11.3,0
						c-3.1-3.1-3.1-8.2,0-11.3C157.3,256,162.4,256,165.5,259.2z M161.3,221.7c-4.5-4.5-4.5-11.8,0-16.3c4.5-4.5,11.8-4.5,16.3,0
						c4.5,4.5,4.5,11.8,0,16.3C173.1,226.2,165.8,226.2,161.3,221.7z"/>
					<path fill="#E0E0E0" d="M38.5,511c-3.3-3.3-7.9-4.6-12.2-3.9c-0.5-2-1-4-1.6-6.4c-1.6-6.3-3.4-14-5.1-22.9
						c-1.6-8.9-3.3-19-4.5-30c-1.3-11-2.2-23.1-2.6-35.8c-0.4-12.7-0.1-26.2,0.8-40c0.7-10.8,1.9-21.8,3.6-33
						c2.7-0.5,5.2-1.8,7.3-3.9c5.5-5.5,5.5-14.4,0-19.9c-0.8-0.8-1.6-1.4-2.5-2c2-8.9,4.2-17.8,6.8-26.6c4.1-14.2,9-28.2,14.6-41.6
						c2.8-6.7,5.8-13.3,8.8-19.8c3.1-6.4,6.3-12.7,9.7-18.8c13.3-24.4,28.3-45.7,42.5-63c7.1-8.6,13.9-16.3,20.1-22.9
						c6.4-6.6,12.1-12,16.8-16.5c4.8-4.5,8.5-8,11.1-10.4c2.6-2.4,3.9-3.7,3.9-3.7s-1.5,1.2-4.2,3.3c-2.8,2.2-6.8,5.4-11.8,9.6
						c-5,4.2-11.1,9.4-17.9,15.6c-6.7,6.3-14.1,13.5-21.6,22c-7.6,8.4-15.5,17.8-23.1,28.3c-7.7,10.5-15.4,21.8-22.4,34.1
						c-7.1,12.3-13.8,25.3-19.7,39c-5.9,13.7-11.1,27.9-15.5,42.4c-2.7,9-4.9,18.1-6.9,27.1c-3.1,0.3-6.1,1.7-8.5,4
						c-5.5,5.5-5.5,14.4,0,19.9c1.1,1.1,2.3,1.9,3.6,2.6C6.1,349,5,360.3,4.4,371.4c-0.8,14.2-0.7,27.9,0,40.9
						c0.3,6.5,0.9,12.8,1.4,18.9c0.7,6.1,1.4,11.9,2.3,17.5c0.8,5.6,1.8,10.9,2.8,16c1.1,5,2.1,9.8,3.2,14.3
						c2.2,8.9,4.3,16.6,6.3,22.9c0.7,2.3,1.4,4.4,2,6.4c-1.4,0.7-2.7,1.6-3.8,2.7c-5.5,5.5-5.5,14.4,0,19.9c5.5,5.5,14.4,5.5,20,0
						C44,525.4,44,516.5,38.5,511z"/>
				</g>
				<g>
					<path fill="#E0E0E0" d="M690.2,307.4c6.2,2.2,12.4,4.6,18.6,7.1c19.3,8,38.5,17.4,55.6,29.9c6.4,4.7,12.4,9.9,17.7,15.7
						c-0.4-4.5-0.8-8.9-1.4-13.4c-3.6-3.3-7.4-6.3-11.3-9.1c-18.1-13.1-37.8-22.5-57.6-30.5c-9-3.6-18-6.9-27.1-9.9
						c1.1,2,2.3,4.1,3.4,6.2C688.8,304.8,689.5,306.1,690.2,307.4z"/>
					<path fill="#E0E0E0" d="M650.3,294.8c11.4,3.2,22.8,6.7,34.2,10.6c0,0,0,0,0-0.1c-1.6-3.1-3.2-6.2-5-9.2
						c-0.1-0.2-0.3-0.5-0.4-0.7c-28.8-9.2-57.5-15.6-85.1-20.8c-0.4-0.1-0.8-0.1-1.2-0.2c1.8,2.6,3.5,5.2,5.3,7.9
						C615.2,285.8,632.7,289.9,650.3,294.8z"/>
					<path fill="#E0E0E0" d="M433.5,258c-2.2-0.1-4.4-0.1-6.5-0.2c-10.4-0.3-20.4-0.4-30-0.4c-1.3,0-2.6,0-3.8,0c-0.5,0-1,0-1.6,0
						c-13.1,0.1-25.5,0.4-36.9,0.6c-11.9,0.5-22.8,1-32.6,1.4c-9.8,0.7-18.6,1.3-26.3,1.9c-7.6,0.5-14.1,1.3-19.4,1.8
						c-10.5,1.1-16.1,1.6-16.1,1.6s5.6-0.4,16.2-1.1c5.3-0.3,11.8-1,19.4-1.2c7.6-0.3,16.4-0.7,26.3-1.2c9.8-0.2,20.7-0.4,32.6-0.7
						c11.5,0.1,24,0,37.3,0.2c0.4,0,0.7,0,1.1,0c1.4,0,2.9,0.1,4.4,0.1c9.6,0.2,19.6,0.6,30.1,1.1c2.1,0.1,4.3,0.2,6.5,0.3
						c0.9,0.1,1.8,0.1,2.7,0.1c15.3,0.8,31.5,1.9,48.3,3.4c33.6,3,69.8,7.8,107.7,15.2c0.2,0,0.3,0.1,0.5,0.1
						c-1.7-2.6-3.4-5.1-5.2-7.7c-36.1-6.4-70.6-10.3-102.6-12.8C467.3,259.3,449.9,258.5,433.5,258z"/>
					<path fill="#E0E0E0" d="M708.9,476.7c-13.7,5.5-27.7,10.2-41.8,14.4c0,3.1,0,6.3-0.1,9.4c15.3-4.4,30.5-9.4,45.3-15.3
						c4.1-1.6,8.1-3.4,12.2-5.1c0.1-1,0.2-2,0.2-3l0.3-7.1C719.7,472.2,714.3,474.5,708.9,476.7z"/>
					<path fill="#E0E0E0" d="M24.1,448.9c-0.3-0.2-0.6-0.3-0.9-0.5c-0.2-0.1-0.4-0.2-0.6-0.3c-3.3-1.9-6-3.4-8-4.7
						c0,0.1,0,0.1,0,0.2c2,1.3,4.6,2.9,7.8,4.8c0.2,0.1,0.4,0.2,0.6,0.3c0.3,0.2,0.6,0.3,0.9,0.5c2.4,1.4,5.2,3,8.3,4.7
						c0-0.3,0-0.6-0.1-0.9C29.1,451.6,26.4,450.2,24.1,448.9z"/>
					<path fill="#E0E0E0" d="M662.3,501.8c0.1-3.1,0.2-6.3,0.2-9.4c-5.7,1.6-11.4,3.2-17.2,4.7c-21.6,5.5-43.4,10-65.1,13.7
						c-43.5,7.3-86.9,11.7-128.9,13.8c-5.7,0.3-11.4,0.5-17.1,0.7c-1,0-2,0.1-2.9,0.1c-11.7,0.4-23.4,0.7-34.9,0.8
						c-3.1,0-6.2,0.1-9.3,0.1c-17.8,0-35.3-0.4-52.3-1.3c-0.6-2.7-1.9-5.2-4-7.2c-5.6-5.4-14.5-5.2-19.9,0.4c-1.4,1.5-2.4,3.2-3.1,5
						c-30.2-2.5-59-6.3-85.6-11c-23.9-4.2-46.2-9.1-66.7-14.3c-3.6-0.9-7.1-1.8-10.6-2.8c-4.2-1.1-8.3-2.3-12.3-3.4
						c-24.8-7.1-46.2-14.7-63.8-21.8c0,0.7,0,1.3,0,2c17.4,7.5,38.4,15.5,62.8,23c4.4,1.4,8.9,2.7,13.5,4.1c3.5,1,7.1,2,10.7,3.1
						c20.1,5.6,41.9,10.8,65.4,15.2c26.7,5.1,55.5,9.3,85.8,12.2c0.3,3.2,1.7,6.3,4.3,8.7c5.6,5.4,14.5,5.2,19.9-0.4
						c1.7-1.8,2.8-3.9,3.4-6.1c16.7,1.1,33.8,1.8,51.2,2c3.1,0,6.2,0.1,9.3,0.1c11.6,0.1,23.4-0.1,35.3-0.4c0.9,0,1.9,0,2.8-0.1
						c6.1-0.2,12.3-0.4,18.5-0.7c42.3-1.9,86-5.8,130-13.1c22-3.7,44-8.1,65.9-13.7C652.4,504.5,657.3,503.2,662.3,501.8z"/>
					<path fill="#E0E0E0" d="M40.8,457.5c0,0.4,0.1,0.8,0.1,1.3c6.1,3.2,13.2,6.6,21.2,10.2c0-0.6,0-1.2,0-1.8
						C54.1,463.7,47,460.4,40.8,457.5z"/>
					<path fill="#E0E0E0" d="M798.3,394.1l0.1,1.9l0,0.5c0,0.2,0,0,0,0.3l0,1l-0.1,2.1l-0.2,1.8c-0.2,1.9-0.7,4-1.2,5.9
						c-0.1,0.5-0.3,0.9-0.4,1.4c-1.1,3.6-2.8,7.1-4.7,10.5c-0.5,0.9-1.1,1.7-1.6,2.6c-0.2,0.2-0.3,0.5-0.4,0.7
						c-2.4,3.5-5.1,6.8-8.1,10c-4.4,4.6-9.2,8.9-14.4,12.8c-11.3,8.5-23.8,15.6-36.8,21.8l-0.3,10c0,0.1,0,0.2,0,0.2
						c14.9-6.9,29.3-14.9,42.6-24.9c2.5-1.9,4.9-3.9,7.3-6c2.9-2.6,5.7-5.2,8.4-8.1c2-2.2,3.9-4.4,5.7-6.7c1-1.3,2-2.7,3-4.1
						c1.6-2.4,3.1-4.9,4.4-7.5c1.4-2.7,2.6-5.6,3.5-8.5c0.9-2.9,1.6-5.8,1.9-9l0.3-2.4l0.1-2.1l0-1c0,0,0-0.5,0-0.7l0-0.6l-0.1-2.3
						c-0.7-12.3-6.1-23.5-13.1-32.6c-1.2-1.6-2.6-3.2-3.9-4.7c0.4,5.3,0.8,10.7,1,16C795.2,379,798,386.4,798.3,394.1z"/>
					<path fill="#E0E0E0" d="M601.1,706l1.6-2.1l1.4-2.2c0.4-0.6,0.9-1.3,1.3-1.9c-2.4,0.8-4.8,1.6-7.1,2.3c-4.5,1.4-9,2.8-13.5,4.2
						c-4.5,1.2-9,2.5-13.4,3.7c-4.4,1.3-8.8,2.1-13,3.2c-4.3,0.9-8.4,2.1-12.5,2.8c-8.2,1.5-15.9,3.1-23.1,4c-3.6,0.5-7,1-10.3,1.5
						c-3.3,0.3-6.4,0.7-9.3,1c-2.9,0.3-5.7,0.6-8.2,0.8c-0.7,0.1-1.4,0.1-2.1,0.1c-0.9-2.9-2.5-5.5-4.7-7.8
						c-7.4-7.4-19.5-7.4-26.9,0c-7.4,7.4-7.4,19.5,0,26.9c7.4,7.4,19.5,7.4,26.9,0c2.6-2.6,4.3-5.9,5.1-9.2c0.8,0,1.5,0,2.4-0.1
						c2.6-0.2,5.4-0.4,8.5-0.7c3-0.2,6.2-0.5,9.6-0.8c3.4-0.4,6.9-0.9,10.6-1.4c7.4-0.8,15.3-2.4,23.7-4c4.2-0.7,8.4-1.9,12.8-2.9
						c4.3-1.1,8.8-2,13.3-3.4c4.5-1.3,9-2.6,13.6-3.9c2.5-0.8,5-1.6,7.5-2.5c0.9-1.2,1.8-2.3,2.7-3.5C599,708.7,600,707.3,601.1,706
						z M467.7,736.1c-3.9-3.9-3.9-10.2,0-14.1c3.9-3.9,10.2-3.9,14.1,0c3.9,3.9,3.9,10.2,0,14.1C477.9,740,471.6,740,467.7,736.1z"
						/>
					<path fill="#E0E0E0" d="M652.4,681.2c-8.7,4-17.6,7.7-26.7,11.2l-3.4,1.3l-1.6,0.6l-1.7,0.6l-5.5,2c-1.7,2.6-3.4,5.2-5.1,7.7
						l-1.5,2.2l-1.6,2.1c-0.4,0.5-0.8,1-1.2,1.5c3.8-1.3,7.5-2.8,11.3-4.2l6.8-2.7l1.7-0.7l1.8-0.7l3.4-1.4c4.8-2,9.5-4.1,14.2-6.3
						c3.8-4.6,7.4-9.4,11-14.3C653.6,680.6,653,680.9,652.4,681.2z"/>
					<path fill="#E0E0E0" d="M719,640.5c4.6-5.9,8.1-11.8,10.7-17.3c2.7-5.5,4.3-10.5,5.4-14.7c0.3-1,0.5-2,0.8-3
						c0.2-0.9,0.3-1.8,0.5-2.7c0.3-1.6,0.5-3.1,0.6-4.2c0-0.1,0-0.1,0-0.1c-0.1,0.1-0.3,0.2-0.4,0.3c-0.2,1.1-0.6,2.4-1,3.9
						c-0.4,1.6-1,3.4-1.7,5.4c-1.4,4-3.4,8.8-6.4,13.9c-3,5.1-6.8,10.5-11.6,15.9c-4.8,5.4-10.6,10.7-17.1,15.9
						c-6,4.7-12.7,9.2-19.8,13.4c-0.6,0.4-1.2,0.7-1.8,1.1c0,0,0,0,0,0c-3.5,2.1-7.1,4-10.8,5.9c-1.8,2.8-3.6,5.6-5.4,8.4
						c-1.2,1.7-2.4,3.3-3.6,5c8.2-4.2,16-8.7,23.4-13.5C696.5,664.1,709.9,652.4,719,640.5z"/>
					<path fill="#E0E0E0" d="M430.5,49.9c19.8,0.4,39,1.6,57,3.8c18.1,2.1,35,5,50.6,8.2c15.5,3.3,29.7,6.8,42.1,10.3
						c12.4,3.5,23.1,7,31.9,10c5.7,2,10.6,3.8,14.5,5.3c-0.7,4.3,0.6,8.8,3.9,12.1c4.9,4.9,12.4,5.4,17.9,1.7c0.7-0.5,1.4-1,2-1.7
						c1.3-1.3,2.2-2.7,2.9-4.3c2.3-5.2,1.3-11.4-2.9-15.7c-5.1-5.1-13.1-5.5-18.7-1.1c-0.4,0.3-0.9,0.7-1.3,1.1
						c-0.4,0.4-0.8,0.9-1.2,1.4c-3.9-1.6-8.6-3.6-14.2-5.7c-0.2-0.1-0.4-0.1-0.5-0.2c-17.6-6.6-43.1-15.1-74.7-22
						c-15.8-3.4-33-6.5-51.3-8.8c-18.3-2.3-37.8-3.9-58-4.1c-20.2-0.3-41.1,0.7-62.1,3c-2.4,0.3-4.9,0.6-7.3,0.9
						c-3.2,0.4-6.4,0.9-9.7,1.3c-15.5,2.3-30.9,5.3-46.2,9.2c-20.8,5.5-41.3,12.4-60.8,20.7c-9.4,3.9-18.5,8.2-27.4,12.7
						c-4.9,2.5-9.7,5-14.4,7.7c-4.6,2.6-9.1,5.2-13.6,7.8c-10.7,6.4-20.8,13.1-30.4,20.1c-6,4.3-11.7,8.7-17.2,13.1
						c-4.2,3.4-8.3,6.8-12.3,10.2c-1.2,1.1-2.4,2.1-3.7,3.2c-0.2,0.4-0.3,0.9-0.5,1.3c-0.9,2.8-1.9,5.5-2.8,8.2
						c6.1-5.2,12.6-10.5,19.3-15.7c1.2-0.9,2.3-1.8,3.5-2.7c9.3-7,19.3-13.9,29.8-20.6c0.1,0,0.1-0.1,0.2-0.1
						c5.8-3.7,11.6-7.3,17.7-10.9c1.6-0.9,3.2-1.8,4.8-2.7c4.5-2.6,9.2-5.1,13.9-7.5c11.6-6,23.7-11.6,36.1-16.6
						c19.3-7.8,39.4-14.3,59.9-19.3c16.8-4.2,33.8-7.4,50.7-9.6c3.1-0.4,6.2-0.8,9.3-1.2c0.7-0.1,1.3-0.2,2-0.2
						C390.2,50.4,410.7,49.5,430.5,49.9z"/>
					<path fill="#E0E0E0" d="M437.1,722.2c-3.8-3.8-10-3.8-13.8,0c-3.8,3.8-3.8,10,0,13.8c3.8,3.8,10,3.8,13.8,0
						C440.9,732.2,440.9,726,437.1,722.2z"/>
					<path fill="#E0E0E0" d="M53,230.7c2.9-3.6,6.2-7.6,10-11.8c3.7-4.2,7.6-8.8,12.1-13.5c2.2-2.4,4.5-4.8,6.8-7.3
						c2.4-2.5,4.9-5,7.5-7.6c5-5.2,10.6-10.5,16.4-16c1.2-1.1,2.4-2.2,3.6-3.3c0.5-1.9,1.1-3.9,1.6-5.8c0.2-0.9,0.5-1.8,0.7-2.6
						c-3.1,2.9-6.1,5.7-9,8.6c-5.6,5.7-11.1,11.1-16,16.6c-2.5,2.7-4.9,5.3-7.2,7.9c-2.3,2.6-4.5,5.2-6.6,7.7
						c-4.3,4.9-8.1,9.7-11.6,14.1c-3.6,4.3-6.7,8.5-9.5,12.2c-2.1,2.7-4,5.2-5.7,7.6c-0.5,1.2-1,2.4-1.5,3.6
						c0.2-0.2,0.3-0.4,0.5-0.6C47.3,237.5,50.1,234.3,53,230.7z"/>
				</g>
			</g>
		</g>
	</g>
</g>
</svg>
