<svg xmlns="http://www.w3.org/2000/svg" width="200" height="200" viewBox="38 -84 200 200"><path fill="#006D5D" d="M138.3-49.3c2.2 0 4.1-1.8 4.1-4.1v-25c0-2.2-1.8-4.1-4.1-4.1-2.2 0-4.1 1.8-4.1 4.1v25c0 2.3 1.8 4.1 4.1 4.1m40.4 9.5c.5.3 1.2.4 1.7.4 1.6 0 3-.8 3.7-2.2L195-64.2c.3-.5.4-1.2.4-1.7 0-1.6-.9-3-2.4-3.7-.5-.3-1.2-.4-1.8-.4-1.6 0-3 .8-3.7 2.2l-10.9 22.5c-.3.5-.4 1.2-.4 1.7.1 1.7.9 3.1 2.5 3.8m-88.2-2c.7 1.4 2.2 2.2 3.7 2.2.7 0 1.2-.1 1.7-.4 1.4-.7 2.4-2.1 2.4-3.7 0-.7-.1-1.2-.4-1.7l-11-22.5c-.7-1.4-2.2-2.2-3.7-2.2-.5 0-1.2.1-1.7.4-1.6.7-2.4 2.1-2.4 3.7 0 .5.1 1.2.4 1.7l11 22.5zm146.6 9.6c-.8-1.2-2.1-1.8-3.6-1.8-.8 0-1.6.3-2.2.7l-21.5 13.2c-1.2.8-2 2.1-2 3.4 0 .8.1 1.4.7 2.1.8 1.3 2.1 2 3.6 2 .8 0 1.4-.1 2.2-.7l21.5-13.2c1.2-.8 2-2.1 2-3.4 0-1-.1-1.6-.7-2.3M63.7-12.8c1.4 0 2.8-.7 3.6-2 .4-.7.7-1.3.7-2.1 0-1.3-.7-2.6-2-3.4L44.5-33.5c-.7-.4-1.4-.7-2.2-.7-1.3 0-2.8.7-3.4 1.8-.4.7-.7 1.4-.7 2.1 0 1.4.7 2.8 2 3.4l21.6 13.2c.4.6 1.2.9 1.9.9m138.6 81.3c.1-8-1.6-17.1-5.3-26.3 4.9-2 9.1-4.2 12.2-6.6v2.6c-.1 11-2.6 21.2-6.9 30.3m-9.5-35c-1.8-3.6-3.9-7-6.5-10.5.4-.7.8-1.3 1.1-2.1 3.6.4 6.7.8 9.5 1.2-1.1 3.6-2.4 7.5-4.1 11.4m-2.9 52.7l-2.4 2.4c-9.7 8.6-27.5 9.1-46.1 2.1 7.1-3 14.1-7.1 20.9-12 1.6 1.1 3.6 1.7 5.7 1.7 5.7 0 10.1-4.5 10.1-10 0-1.6-.4-3-.9-4.3C183 60.2 188 54.2 192 47.9c5.8 15.4 5.4 29.6-2.1 38.3m-51.6 22c-3.4 0-6.7-.3-9.9-.7 3.2-3 6.5-8 9.9-14.4 10.3 4.9 20.4 7.4 29.5 7.6h2.2c-9.5 4.8-20.3 7.5-31.7 7.5m-16.6-2.3c-2-1.1-3.2-4.1-3.9-8.4 5.1-.7 10.4-2 15.8-3.8-4.9 8.4-9.4 13.5-11.9 12.2m-4.2-25.4c3.8 2.9 7.8 5.5 11.7 7.9-4.1 1.2-8.2 2.2-12 2.8-.1-3.3 0-6.9.3-10.7M95.3 54.4c-4.1-5.8-7.2-11.7-9.7-17.5 7.6-3.2 17.4-6.3 29-9.2.9 2 2.4 3.7 4.2 4.9 0 .3-.1.5-.1.7-1.7 7.2-3 14-4.2 20.1-7.3.8-13.6 1-19.2 1m16.2 18c-.8-.7-1.6-1.3-2.2-2.1.5-.8.8-1.8.8-2.9 0-3-2.4-5.4-5.4-5.4-1.1 0-1.8.3-2.8.8-.8-.9-1.4-1.7-2.2-2.5 4.6-.1 9.2-.4 13.6-.7-.7 4.6-1.4 8.9-1.8 12.8m-10.2 25.5c3.2.4 6.7.5 10.3.4.4 2 .8 3.7 1.4 5.3-4.2-1.6-8.2-3.5-11.7-5.7M82.7 81.7c-4.2-5.8-5.9-13.7-5-22.6 5.5.9 12.1 1.2 18.8 1.2 1.2 1.3 2.2 2.8 3.6 4.1-.7.9-1.1 2-1.1 3 0 3 2.5 5.4 5.4 5.4 1.1 0 2.1-.4 2.9-.9 1.2 1.2 2.4 2.2 3.7 3.3-.7 6.3-.8 11.8-.5 16.5-9.7.7-18.2-.9-23.3-4.9-1.5-1.5-2.9-3.3-4.5-5.1M68.5 49.3C67 47.5 70.9 43.9 79 40c-2.1 4.2-3.7 8.4-4.9 12.5-3.1-1-5-2-5.6-3.2m3.5 14c-.8-2-1.4-3.9-2-6.1.8.4 1.8.5 2.8.8-.4 1.8-.6 3.6-.8 5.3m-4.6-24.9c0-11.1 2.6-21.5 7.2-30.8-.1 8.3 2 17.6 6.1 27.3-5.3 2-9.9 4.2-13.3 6.6v-3.1m24.6 16c-5.3-.1-9.7-.5-13.3-1.1.9-4.3 2.4-9 4.5-13.4 2.4 4.8 5.4 9.8 8.8 14.5M87-9.8l1.6-1.6c9.7-9 27.1-8.8 45.4-1.1v.1c-8.4 4.1-16.9 9.3-24.9 15.8-.5.4-1.1.9-1.6 1.3-.9-.7-2-1.1-3.2-1.1-3 0-5.4 2.4-5.4 5.4 0 1.1.3 2 .8 2.8-6.3 6.4-11.7 13.2-15.9 20-6-16.9-4.9-32.5 3.2-41.6m51.3-21.7c2.6 0 5.4.1 7.9.4-3 2.9-6.2 7.4-9.3 13.2-10.5-4.5-20.9-6.6-30-6.3 9.4-4.7 20-7.3 31.4-7.3m16.8 2.3h.1c1.8.4 3 3.6 3.8 8.6-5 .8-10.3 2.2-15.7 4.1 4.6-8.1 8.8-13.1 11.8-12.7M160-4.5c-4.6-3.4-9.2-6.5-14-9 4.7-1.3 9.3-2.1 13.7-2.5.3 3.3.3 7.2.3 11.5M130 58c1.6 2.2 4.2 3.7 7.1 3.7 3.8 0 7-2.4 8.2-5.8 1.4-.3 3.2-.5 5-.9-3.4 10.5-7.8 21.3-12.1 30.2-1.6.7-3.2 1.2-4.7 1.8-5.3-2.6-10.5-5.8-15.7-9.6.5-5.8 1.3-12 2.4-18.3 3.4-.3 6.9-.7 9.8-1.1m21.6-38.7c-.5-1.6-2.1-2.8-3.9-2.8-2.2 0-4.1 1.7-4.2 3.8-3 .4-5.3.7-6.6.9-.5-3.3-2.5-6.2-5.3-7.9 2.8-8.2 5.8-16.1 8.8-22.8 6.6 3.5 13.1 7.9 19.5 13-.3 4.9-.8 10-1.4 15.1-2.6.3-4.8.6-6.9.7m3.1 19.5c-.4 1.4-.7 3-1.1 4.5-.4 1.7-.9 3.4-1.3 5.1-2.4.4-4.9.9-7.5 1.3-1.3-2.9-4.3-4.9-7.8-4.9-4.3 0-7.9 3.2-8.4 7.2-2.5.3-5 .7-7.4.8 1.2-6.2 2.5-12.5 3.9-18.3 6.3 0 11.5-5 11.7-11.2 2.4-.4 4.6-.7 6.8-.9.7 1.4 2.2 2.5 3.9 2.5 2.1 0 3.8-1.4 4.2-3.4 2.1-.3 4.1-.4 6.1-.5-.4 2.5-.7 5-1.2 7.6-2.8.1-5 2.5-5 5.4.1 2.1 1.3 4 3.1 4.8m-40.9-13.3c-8.4 1.8-18.2 4.2-27 7.1 3.7-6.6 8.6-13 14.4-19.1.9.7 2 1.1 3.2 1.1 3 0 5.5-2.4 5.5-5.4 0-1.1-.4-2.1-.8-2.9.4-.4.8-.7 1.2-1.1 7-5.7 14.5-10.3 22-13.7-2.6 5.8-5.1 12.5-7.5 19.9-6.2.3-11.2 5.3-11.2 11.5-.2 1-.1 1.9.2 2.6m45 48.4c-5 3.6-10.4 6.6-15.7 9.1 3.6-8.3 7.1-17.9 10.3-28.6 9-1.7 21.1-4.5 32.3-8-3.4 5.3-7.6 10.4-12.4 15.3-1.4-.8-3.2-1.3-4.9-1.3-5.5 0-10.1 4.5-10.1 10-.2 1.3.1 2.5.5 3.5m10.7-53.4c1.1 3.9 4.7 6.8 9.1 6.8.9 0 1.8-.1 2.6-.4 2.8 3.9 5.1 8 7.1 12.1-8.6 3-19.6 6.1-33 8.8.5-1.7.9-3.6 1.3-5.3.3-1.1.5-2.1.8-3.3 2.9-.1 5.1-2.5 5.1-5.3 0-2.1-1.2-3.9-2.9-4.7.5-2.9 1.1-5.7 1.6-8.4 2.9-.2 5.6-.3 8.3-.3m6-41.5c-2-.1-3.9-.4-5.9-.4-2.2 0-4.5.1-6.8.4-.4-2.5-.9-4.7-1.6-6.7 5.1 1.7 10 3.9 14.3 6.7m-5.2 34.5c-.7 1.3-1.2 2.6-1.2 4.2-2.6.1-5.1.4-7.6.5.7-4.1 1.1-8.2 1.4-12 1.3 1.2 2.6 2.4 3.8 3.6 1.3 1.3 2.4 2.5 3.6 3.7m25.5-15.9c2.9 5.1 3.4 12.4 1.8 20.4-3-.4-6.5-.5-9.9-.7-.4-4.7-4.3-8.6-9.3-8.6-1.1 0-2.1.1-3.2.5-1.2-1.3-2.5-2.6-3.7-3.8-2.6-2.5-5.4-5-8-7.1.3-5.4.1-10.3-.1-14.6 12-.4 22.3 2.5 28.4 9 1.4 1.6 2.8 3.3 4 4.9m7.4 26.2c3 1.1 4.9 2.2 5 3.4v.3c0 1.7-3 4.1-8.7 7 1.6-3.6 2.9-7.3 3.7-10.7m1.6-9.8c.7 1.8 1.3 3.8 1.8 5.8-.8-.3-1.6-.5-2.4-.7l.6-5.1m9.7 12.5v-.3c-2.1-13-7.6-25-15.7-35-.4-.5-.7-.9-1.1-1.3-.4-.5-.9-1.1-1.4-1.6-14.2-15.9-35-26.1-58.2-26.1-20.9 0-39.9 8.2-53.7 21.6-.4.3-.8.7-1.2 1.1-.4.4-.8.8-1.1 1.2C69-.2 60.8 18.2 60.8 38.5c0 18 6.5 34.6 17.1 47.7.3.3.4.5.7.8.4.4.7.8 1.1 1.1 14.2 16.2 35.2 26.5 58.5 26.5 20.7 0 39.5-8 53.3-21.1.5-.5 1.1-.9 1.6-1.4s.9-1.1 1.3-1.6c13.2-13.6 21.1-31.9 21.1-52-.1-4.1-.3-8-1-12"/></svg>