<?xml version="1.0" encoding="utf-8"?>
<!-- Generator: Adobe Illustrator 18.1.1, SVG Export Plug-In . SVG Version: 6.00 Build 0)  -->
<svg version="1.1" id="Layer_1" xmlns="http://www.w3.org/2000/svg" xmlns:xlink="http://www.w3.org/1999/xlink" x="0px" y="0px"
	 width="200px" height="200px" viewBox="38 -84 200 200" enable-background="new 38 -84 200 200" xml:space="preserve">
<path fill="#006D5D" d="M138.3-49.3c2.2,0,4.1-1.8,4.1-4.1v-25c0-2.2-1.8-4.1-4.1-4.1c-2.2,0-4.1,1.8-4.1,4.1v25
	C134.2-51.1,136-49.3,138.3-49.3 M178.7-39.8c0.5,0.3,1.2,0.4,1.7,0.4c1.6,0,3-0.8,3.7-2.2L195-64.2c0.3-0.5,0.4-1.2,0.4-1.7
	c0-1.6-0.9-3-2.4-3.7c-0.5-0.3-1.2-0.4-1.8-0.4c-1.6,0-3,0.8-3.7,2.2l-10.9,22.5c-0.3,0.5-0.4,1.2-0.4,1.7
	C176.3-41.9,177.1-40.5,178.7-39.8 M90.5-41.8c0.7,1.4,2.2,2.2,3.7,2.2c0.7,0,1.2-0.1,1.7-0.4c1.4-0.7,2.4-2.1,2.4-3.7
	c0-0.7-0.1-1.2-0.4-1.7L86.9-67.9c-0.7-1.4-2.2-2.2-3.7-2.2c-0.5,0-1.2,0.1-1.7,0.4c-1.6,0.7-2.4,2.1-2.4,3.7c0,0.5,0.1,1.2,0.4,1.7
	L90.5-41.8z M237.1-32.2c-0.8-1.2-2.1-1.8-3.6-1.8c-0.8,0-1.6,0.3-2.2,0.7l-21.5,13.2c-1.2,0.8-2,2.1-2,3.4c0,0.8,0.1,1.4,0.7,2.1
	c0.8,1.3,2.1,2,3.6,2c0.8,0,1.4-0.1,2.2-0.7l21.5-13.2c1.2-0.8,2-2.1,2-3.4C237.8-30.9,237.7-31.5,237.1-32.2 M63.7-12.8
	c1.4,0,2.8-0.7,3.6-2c0.4-0.7,0.7-1.3,0.7-2.1c0-1.3-0.7-2.6-2-3.4L44.5-33.5c-0.7-0.4-1.4-0.7-2.2-0.7c-1.3,0-2.8,0.7-3.4,1.8
	c-0.4,0.7-0.7,1.4-0.7,2.1c0,1.4,0.7,2.8,2,3.4l21.6,13.2C62.2-13.1,63-12.8,63.7-12.8 M202.3,68.5c0.1-8-1.6-17.1-5.3-26.3
	c4.9-2,9.1-4.2,12.2-6.6v2.6C209.1,49.2,206.6,59.4,202.3,68.5 M192.8,33.5c-1.8-3.6-3.9-7-6.5-10.5c0.4-0.7,0.8-1.3,1.1-2.1
	c3.6,0.4,6.7,0.8,9.5,1.2C195.8,25.7,194.5,29.6,192.8,33.5 M189.9,86.2l-2.4,2.4c-9.7,8.6-27.5,9.1-46.1,2.1
	c7.1-3,14.1-7.1,20.9-12c1.6,1.1,3.6,1.7,5.7,1.7c5.7,0,10.1-4.5,10.1-10c0-1.6-0.4-3-0.9-4.3C183,60.2,188,54.2,192,47.9
	C197.8,63.3,197.4,77.5,189.9,86.2 M138.3,108.2c-3.4,0-6.7-0.3-9.9-0.7c3.2-3,6.5-8,9.9-14.4c10.3,4.9,20.4,7.4,29.5,7.6h2.2
	C160.5,105.5,149.7,108.2,138.3,108.2 M121.7,105.9c-2-1.1-3.2-4.1-3.9-8.4c5.1-0.7,10.4-2,15.8-3.8
	C128.7,102.1,124.2,107.2,121.7,105.9 M117.5,80.5c3.8,2.9,7.8,5.5,11.7,7.9c-4.1,1.2-8.2,2.2-12,2.8
	C117.1,87.9,117.2,84.3,117.5,80.5 M95.3,54.4c-4.1-5.8-7.2-11.7-9.7-17.5c7.6-3.2,17.4-6.3,29-9.2c0.9,2,2.4,3.7,4.2,4.9
	c0,0.3-0.1,0.5-0.1,0.7c-1.7,7.2-3,14-4.2,20.1C107.2,54.2,100.9,54.4,95.3,54.4 M111.5,72.4c-0.8-0.7-1.6-1.3-2.2-2.1
	c0.5-0.8,0.8-1.8,0.8-2.9c0-3-2.4-5.4-5.4-5.4c-1.1,0-1.8,0.3-2.8,0.8c-0.8-0.9-1.4-1.7-2.2-2.5c4.6-0.1,9.2-0.4,13.6-0.7
	C112.6,64.2,111.9,68.5,111.5,72.4 M101.3,97.9c3.2,0.4,6.7,0.5,10.3,0.4c0.4,2,0.8,3.7,1.4,5.3C108.8,102,104.8,100.1,101.3,97.9
	 M82.7,81.7c-4.2-5.8-5.9-13.7-5-22.6c5.5,0.9,12.1,1.2,18.8,1.2c1.2,1.3,2.2,2.8,3.6,4.1c-0.7,0.9-1.1,2-1.1,3c0,3,2.5,5.4,5.4,5.4
	c1.1,0,2.1-0.4,2.9-0.9c1.2,1.2,2.4,2.2,3.7,3.3c-0.7,6.3-0.8,11.8-0.5,16.5c-9.7,0.7-18.2-0.9-23.3-4.9
	C85.7,85.3,84.3,83.5,82.7,81.7 M68.5,49.3C67,47.5,70.9,43.9,79,40c-2.1,4.2-3.7,8.4-4.9,12.5C71,51.5,69.1,50.5,68.5,49.3
	 M72,63.3c-0.8-2-1.4-3.9-2-6.1c0.8,0.4,1.8,0.5,2.8,0.8C72.4,59.8,72.2,61.6,72,63.3 M67.4,38.4c0-11.1,2.6-21.5,7.2-30.8
	c-0.1,8.3,2,17.6,6.1,27.3c-5.3,2-9.9,4.2-13.3,6.6V38.4 M92,54.4c-5.3-0.1-9.7-0.5-13.3-1.1c0.9-4.3,2.4-9,4.5-13.4
	C85.6,44.7,88.6,49.7,92,54.4 M87-9.8l1.6-1.6c9.7-9,27.1-8.8,45.4-1.1v0.1c-8.4,4.1-16.9,9.3-24.9,15.8c-0.5,0.4-1.1,0.9-1.6,1.3
	c-0.9-0.7-2-1.1-3.2-1.1c-3,0-5.4,2.4-5.4,5.4c0,1.1,0.3,2,0.8,2.8C93.4,18.2,88,25,83.8,31.8C77.8,14.9,78.9-0.7,87-9.8
	 M138.3-31.5c2.6,0,5.4,0.1,7.9,0.4c-3,2.9-6.2,7.4-9.3,13.2c-10.5-4.5-20.9-6.6-30-6.3C116.3-28.9,126.9-31.5,138.3-31.5
	 M155.1-29.2h0.1c1.8,0.4,3,3.6,3.8,8.6c-5,0.8-10.3,2.2-15.7,4.1C147.9-24.6,152.1-29.6,155.1-29.2 M160-4.5c-4.6-3.4-9.2-6.5-14-9
	c4.7-1.3,9.3-2.1,13.7-2.5C160-12.7,160-8.8,160-4.5 M130,58c1.6,2.2,4.2,3.7,7.1,3.7c3.8,0,7-2.4,8.2-5.8c1.4-0.3,3.2-0.5,5-0.9
	c-3.4,10.5-7.8,21.3-12.1,30.2c-1.6,0.7-3.2,1.2-4.7,1.8c-5.3-2.6-10.5-5.8-15.7-9.6c0.5-5.8,1.3-12,2.4-18.3
	C123.6,58.8,127.1,58.4,130,58 M151.6,19.3c-0.5-1.6-2.1-2.8-3.9-2.8c-2.2,0-4.1,1.7-4.2,3.8c-3,0.4-5.3,0.7-6.6,0.9
	c-0.5-3.3-2.5-6.2-5.3-7.9c2.8-8.2,5.8-16.1,8.8-22.8C147-6,153.5-1.6,159.9,3.5c-0.3,4.9-0.8,10-1.4,15.1
	C155.9,18.9,153.7,19.2,151.6,19.3 M154.7,38.8c-0.4,1.4-0.7,3-1.1,4.5c-0.4,1.7-0.9,3.4-1.3,5.1c-2.4,0.4-4.9,0.9-7.5,1.3
	c-1.3-2.9-4.3-4.9-7.8-4.9c-4.3,0-7.9,3.2-8.4,7.2c-2.5,0.3-5,0.7-7.4,0.8c1.2-6.2,2.5-12.5,3.9-18.3c6.3,0,11.5-5,11.7-11.2
	c2.4-0.4,4.6-0.7,6.8-0.9c0.7,1.4,2.2,2.5,3.9,2.5c2.1,0,3.8-1.4,4.2-3.4c2.1-0.3,4.1-0.4,6.1-0.5c-0.4,2.5-0.7,5-1.2,7.6
	c-2.8,0.1-5,2.5-5,5.4C151.7,36.1,152.9,38,154.7,38.8 M113.8,25.5c-8.4,1.8-18.2,4.2-27,7.1c3.7-6.6,8.6-13,14.4-19.1
	c0.9,0.7,2,1.1,3.2,1.1c3,0,5.5-2.4,5.5-5.4c0-1.1-0.4-2.1-0.8-2.9c0.4-0.4,0.8-0.7,1.2-1.1c7-5.7,14.5-10.3,22-13.7
	c-2.6,5.8-5.1,12.5-7.5,19.9c-6.2,0.3-11.2,5.3-11.2,11.5C113.4,23.9,113.5,24.8,113.8,25.5 M158.8,73.9c-5,3.6-10.4,6.6-15.7,9.1
	c3.6-8.3,7.1-17.9,10.3-28.6c9-1.7,21.1-4.5,32.3-8c-3.4,5.3-7.6,10.4-12.4,15.3c-1.4-0.8-3.2-1.3-4.9-1.3c-5.5,0-10.1,4.5-10.1,10
	C158.1,71.7,158.4,72.9,158.8,73.9 M169.5,20.5c1.1,3.9,4.7,6.8,9.1,6.8c0.9,0,1.8-0.1,2.6-0.4c2.8,3.9,5.1,8,7.1,12.1
	c-8.6,3-19.6,6.1-33,8.8c0.5-1.7,0.9-3.6,1.3-5.3c0.3-1.1,0.5-2.1,0.8-3.3c2.9-0.1,5.1-2.5,5.1-5.3c0-2.1-1.2-3.9-2.9-4.7
	c0.5-2.9,1.1-5.7,1.6-8.4C164.1,20.6,166.8,20.5,169.5,20.5 M175.5-21c-2-0.1-3.9-0.4-5.9-0.4c-2.2,0-4.5,0.1-6.8,0.4
	c-0.4-2.5-0.9-4.7-1.6-6.7C166.3-26,171.2-23.8,175.5-21 M170.3,13.5c-0.7,1.3-1.2,2.6-1.2,4.2c-2.6,0.1-5.1,0.4-7.6,0.5
	c0.7-4.1,1.1-8.2,1.4-12c1.3,1.2,2.6,2.4,3.8,3.6C168,11.1,169.1,12.3,170.3,13.5 M195.8-2.4c2.9,5.1,3.4,12.4,1.8,20.4
	c-3-0.4-6.5-0.5-9.9-0.7c-0.4-4.7-4.3-8.6-9.3-8.6c-1.1,0-2.1,0.1-3.2,0.5c-1.2-1.3-2.5-2.6-3.7-3.8c-2.6-2.5-5.4-5-8-7.1
	c0.3-5.4,0.1-10.3-0.1-14.6c12-0.4,22.3,2.5,28.4,9C193.2-5.7,194.6-4,195.8-2.4 M203.2,23.8c3,1.1,4.9,2.2,5,3.4v0.3
	c0,1.7-3,4.1-8.7,7C201.1,30.9,202.4,27.2,203.2,23.8 M204.8,14c0.7,1.8,1.3,3.8,1.8,5.8c-0.8-0.3-1.6-0.5-2.4-0.7
	C204.4,17.4,204.6,15.7,204.8,14 M214.5,26.5v-0.3c-2.1-13-7.6-25-15.7-35c-0.4-0.5-0.7-0.9-1.1-1.3c-0.4-0.5-0.9-1.1-1.4-1.6
	c-14.2-15.9-35-26.1-58.2-26.1c-20.9,0-39.9,8.2-53.7,21.6c-0.4,0.3-0.8,0.7-1.2,1.1c-0.4,0.4-0.8,0.8-1.1,1.2
	C69-0.2,60.8,18.2,60.8,38.5c0,18,6.5,34.6,17.1,47.7c0.3,0.3,0.4,0.5,0.7,0.8c0.4,0.4,0.7,0.8,1.1,1.1
	c14.2,16.2,35.2,26.5,58.5,26.5c20.7,0,39.5-8,53.3-21.1c0.5-0.5,1.1-0.9,1.6-1.4s0.9-1.1,1.3-1.6c13.2-13.6,21.1-31.9,21.1-52
	C215.4,34.4,215.2,30.5,214.5,26.5"/>
</svg>
