<svg xmlns="http://www.w3.org/2000/svg" xmlns:xlink="http://www.w3.org/1999/xlink" version="1.1" id="Layer_1" x="0px" y="0px" width="502.6px" height="324px" viewBox="-36 0 502.6 324" enable-background="new -36 0 502.6 324" xml:space="preserve">
<g id="macbook" display="none">
  <g display="inline">
    <path fill="#3E3E3E" d="M-69.3 581.5h-213.5V313.2c0-8.1 6.5-14.6 14.6-14.6h199h188c8.1 0 14.6 6.5 14.6 14.6v268.3H-69.3z"/>
    <path fill="#E9E9E9" d="M188.1 581.5c0 12.1-9.6 21.9-21.5 21.9h-482.7c-11.9 0-21.5-9.8-21.5-21.9H188.1z"/>
    <path fill="#E9E9E9" d="M-68.3 302.4c1.9 0 3.4 1.5 3.4 3.4s-1.5 3.4-3.4 3.4c-1.9 0-3.4-1.5-3.4-3.4 C-71.8 303.9-70.2 302.4-68.3 302.4z"/>
    <path fill="#8AC9E4" d="M-271.9 566.9V313.2h394.3v253.7H-271.9z"/>
    <path fill="#B4B3B3" d="M-38.2 581.5c0 4-3.3 7.3-7.5 7.3h-58.1c-4.1 0-7.5-3.3-7.5-7.3H-38.2z"/>
  </g>
</g>
<g id="iPad" display="none">
</g>
<g id="iPhone" display="none">
</g>
<g id="WDA__x2F__WEX">
</g>
<g id="Network_Viz">
</g>
<g id="WEA">
</g>
<g id="Wealth_Management">
</g>
<g id="Principle_3">
</g>
<g id="Layer_1_1_">
</g>
<rect x="-36.3" fill="#ECECEC" width="503.2" height="324"/>
<rect x="42.1" y="223.5" fill="#C7C7C7" width="266.9" height="99.8"/>
<rect x="319.4" y="223.5" fill="#5A5A5B" width="82.1" height="70.5"/>
<rect x="27.7" y="25.3" fill="#C7C7C7" width="373.8" height="33.5"/>
<polygon fill="#E0E0E0" points="371.2,192.7 57.6,192.7 57.6,70.7 58.1,70.7 58.1,192.2 371.2,192.2"/>
<path fill="#AEAEAE" d="M59.3 192.2c-0.1 0-0.2 0-0.4-0.1c-0.5-0.2-0.7-0.8-0.5-1.3l32.5-80.1l24.5 52.2l29.2-13.3l29.3-50.1l29 27 l29.4-46.9l29.7 84.8c0.2 0.5-0.1 1.1-0.6 1.3s-1.1-0.1-1.3-0.6l-28.3-80.9l-28.5 45.4l-29-27l-28.4 48.5l-31.5 14.4L91 115.6 l-30.8 75.9C60 191.9 59.7 192.2 59.3 192.2z"/>
<path fill="#AEAEAE" d="M261.1 165.8c-0.2 0-0.3 0-0.5-0.1c-0.5-0.3-0.6-0.9-0.4-1.3l30.4-52.9l24 29.7l29.6-45.7 c0.3-0.5 0.9-0.6 1.4-0.3s0.6 0.9 0.3 1.4l-31.1 48L290.9 115l-29 50.4C261.8 165.6 261.4 165.8 261.1 165.8z"/>
<rect x="42.1" y="202.6" fill="#C7C7C7" width="217.8" height="12.6"/>
<rect x="51.6" y="297.6" fill="#5A5A5B" width="124" height="12.6"/>
<rect x="327.8" y="240.7" fill="#E0E0E0" width="65.2" height="5.2"/>
<rect x="327.8" y="233.2" fill="#E0E0E0" width="65.2" height="5.2"/>
<rect x="327.8" y="248.2" fill="#E0E0E0" width="57.7" height="5.2"/>
<rect x="327.8" y="270.8" fill="#E0E0E0" width="65.2" height="5.2"/>
<rect x="327.8" y="263.3" fill="#E0E0E0" width="57.7" height="5.2"/>
<rect x="327.8" y="278.3" fill="#E0E0E0" width="26.8" height="5.2"/>
<rect x="-36.3" y="0" fill="#959595" width="503.2" height="15.2"/>
<g>
  <circle fill="#07B5A0" cx="78.6" cy="271.1" r="19.5"/>
  <g>
    <path d="M80.9 278.2h-3v-9.5h-3.7v-2.2c2.1 0.1 4-0.7 4.3-2.9h2.4V278.2z"/>
  </g>
</g>
<g>
  <circle fill="#07B5A0" cx="360.3" cy="196.1" r="19.5"/>
  <g>
    <path d="M355.4 194.2c-0.1-3.4 1.8-5.9 5.3-5.9c2.7 0 5 1.7 5 4.6c0 4.5-4.7 4.8-6.9 7.8h6.9v2.6h-10.8c0-3.4 2.1-4.8 4.6-6.6 c1.3-0.9 3.1-1.8 3.1-3.6c0-1.4-0.9-2.3-2.2-2.3c-1.8 0-2.3 1.8-2.3 3.4H355.4z"/>
  </g>
</g>
</svg>
