<svg xmlns="http://www.w3.org/2000/svg" xmlns:xlink="http://www.w3.org/1999/xlink" version="1.1" id="Layer_1" x="0px" y="0px" width="502.6px" height="324px" viewBox="-36 0 502.6 324" enable-background="new -36 0 502.6 324" xml:space="preserve">
<g id="macbook" display="none">
  <g display="inline">
    <path fill="#3E3E3E" d="M-33.3 581.5h-213.5V313.2c0-8.1 6.5-14.6 14.6-14.6h199h188c8.1 0 14.6 6.5 14.6 14.6v268.3H-33.3z"/>
    <path fill="#E9E9E9" d="M224.1 581.5c0 12.1-9.6 21.9-21.5 21.9h-482.7c-11.9 0-21.5-9.8-21.5-21.9H224.1z"/>
    <path fill="#E9E9E9" d="M-32.3 302.4c1.9 0 3.4 1.5 3.4 3.4s-1.5 3.4-3.4 3.4c-1.9 0-3.4-1.5-3.4-3.4 C-35.8 303.9-34.2 302.4-32.3 302.4z"/>
    <path fill="#8AC9E4" d="M-235.9 566.9V313.2h394.3v253.7H-235.9z"/>
    <path fill="#B4B3B3" d="M-2.2 581.5c0 4-3.3 7.3-7.5 7.3h-58.1c-4.1 0-7.5-3.3-7.5-7.3H-2.2z"/>
  </g>
</g>
<g id="iPad" display="none">
</g>
<g id="iPhone" display="none">
</g>
<g id="WDA__x2F__WEX">
</g>
<g id="Network_Viz">
</g>
<g id="WEA">
</g>
<g id="Wealth_Management">
</g>
<g id="Principle_3">
</g>
<g id="Layer_1_1_">
</g>
<rect x="-66.9" y="564.8" fill="#5A5A5B" width="129.7" height="9.5"/>
<rect x="-205.9" y="564.8" fill="#5A5A5B" width="129.7" height="9.5"/>
<rect x="-36.4" fill="#ECECEC" width="503.5" height="324"/>
<rect x="-36.4" y="0" fill="#959595" width="503.5" height="15.2"/>
<rect x="-28.9" y="25.6" fill="#C7C7C7" width="92.4" height="153.7"/>
<rect x="-28.9" y="189.5" fill="#C7C7C7" width="92.4" height="83.1"/>
<rect x="73.3" y="25.6" fill="#C7C7C7" width="287.4" height="298.4"/>
<rect x="370.5" y="25.6" fill="#C7C7C7" width="87.6" height="58.3"/>
<rect x="370.5" y="94.1" fill="#C7C7C7" width="87.6" height="58.3"/>
<rect x="370.5" y="162.6" fill="#C7C7C7" width="87.6" height="58.3"/>
<rect x="82.7" y="35.5" fill="#F9F9F9" width="199.7" height="25.7"/>
<g>
  <path fill="#231F20" d="M99.5 42.5l-5 6l-0.9 4h-1l0.9-4.1l-2.7-5.9h1l2.3 5.1l4.2-5.1H99.5z"/>
  <path fill="#231F20" d="M102.1 45.2c0.4 0.1 0.7 0.3 0.9 0.6c0.3 0.2 0.4 0.5 0.6 0.9c0.1 0.3 0.2 0.7 0.2 1.2 c0 0.6-0.1 1.2-0.3 1.8c-0.2 0.6-0.4 1.1-0.7 1.5c-0.3 0.4-0.7 0.8-1.2 1.1s-1.1 0.4-1.8 0.4c-0.9 0-1.6-0.3-2.1-0.8 S97 50.6 97 49.7c0-0.6 0.1-1.2 0.3-1.7c0.2-0.6 0.4-1.1 0.8-1.5c0.3-0.4 0.8-0.8 1.3-1c0.5-0.3 1.1-0.4 1.7-0.4 C101.3 45 101.8 45.1 102.1 45.2z M101.2 51.6c0.4-0.2 0.7-0.6 0.9-0.9c0.2-0.3 0.4-0.8 0.6-1.3c0.1-0.5 0.2-0.9 0.2-1.3 c0-0.7-0.2-1.2-0.5-1.6c-0.4-0.4-0.9-0.6-1.6-0.6c-0.5 0-0.9 0.1-1.3 0.4c-0.4 0.2-0.7 0.5-0.9 0.9c-0.3 0.4-0.4 0.8-0.6 1.2 c-0.1 0.5-0.2 0.9-0.2 1.3c0 0.7 0.2 1.3 0.5 1.7c0.4 0.4 0.9 0.7 1.6 0.7C100.4 51.9 100.8 51.8 101.2 51.6z"/>
  <path fill="#231F20" d="M109.3 52.5l0.3-1.3l0 0c-0.3 0.4-0.6 0.8-1.1 1.1s-1 0.4-1.5 0.4c-0.3 0-0.6 0-0.9-0.1 c-0.3-0.1-0.5-0.2-0.7-0.3c-0.2-0.2-0.3-0.4-0.5-0.6c-0.1-0.2-0.2-0.5-0.2-0.9c0-0.2 0-0.5 0.1-0.9l1-4.6h0.9l-1 4.7 c0 0.1-0.1 0.2-0.1 0.4c0 0.1 0 0.2 0 0.4s0 0.4 0.1 0.6c0.1 0.2 0.2 0.3 0.3 0.4s0.3 0.2 0.5 0.2c0.2 0 0.4 0.1 0.6 0.1 c0.3 0 0.6-0.1 0.9-0.2c0.3-0.1 0.6-0.3 0.8-0.6c0.2-0.3 0.5-0.6 0.7-0.9c0.2-0.4 0.3-0.8 0.4-1.2l0.8-3.7h0.9l-1.6 7.2h-0.7V52.5z "/>
  <path fill="#231F20" d="M117.1 46.3c0.2-0.3 0.4-0.5 0.7-0.7c0.3-0.2 0.6-0.3 0.9-0.4c0.3-0.1 0.7-0.1 1.1-0.1c0.2 0 0.5 0 0.8 0.1 c0.3 0 0.6 0.1 0.8 0.3c0.3 0.1 0.5 0.3 0.6 0.5s0.3 0.5 0.3 0.8c0 0.2 0 0.4 0 0.6c0 0.2-0.1 0.4-0.1 0.7c0 0.2-0.1 0.4-0.1 0.6 c-0.1 0.2-0.1 0.4-0.1 0.6c-0.1 0.4-0.2 0.7-0.2 1c-0.1 0.3-0.1 0.5-0.1 0.7s-0.1 0.3-0.1 0.4c0 0.1 0 0.2 0 0.3s0.1 0.2 0.2 0.2 s0.2 0 0.3 0c0.1 0 0.1 0 0.2 0s0.1 0 0.2 0l-0.1 0.7c-0.2 0-0.5 0.1-0.7 0.1c-0.5 0-0.8-0.3-0.8-0.8c0-0.1 0-0.1 0-0.2 c0-0.1 0-0.1 0-0.2l0 0c-0.3 0.4-0.6 0.7-1.1 1c-0.5 0.2-0.9 0.3-1.4 0.3c-0.3 0-0.6 0-0.9-0.1c-0.3-0.1-0.5-0.2-0.7-0.3 c-0.2-0.2-0.4-0.4-0.5-0.6c-0.1-0.3-0.2-0.6-0.2-0.9c0-0.4 0.1-0.7 0.2-1s0.3-0.5 0.6-0.6s0.5-0.3 0.8-0.4c0.3-0.1 0.6-0.2 0.9-0.2 c0.5-0.1 0.9-0.1 1.3-0.1s0.7 0 1-0.1s0.5-0.2 0.7-0.4c0.1-0.2 0.2-0.5 0.2-1c0-0.2 0-0.4-0.1-0.5c-0.1-0.1-0.2-0.2-0.4-0.3 c-0.1-0.1-0.3-0.1-0.5-0.2c-0.2 0-0.4 0-0.5 0c-0.3 0-0.5 0-0.8 0.1s-0.5 0.1-0.7 0.3c-0.2 0.1-0.4 0.3-0.5 0.5 c-0.1 0.2-0.2 0.5-0.3 0.8h-1.3C116.8 47 116.9 46.6 117.1 46.3z M121.1 48.6c-0.1 0.1-0.2 0.2-0.3 0.2c-0.1 0.1-0.3 0.1-0.4 0.1 s-0.3 0-0.5 0.1c-0.2 0-0.3 0-0.4 0c-0.3 0-0.6 0-0.9 0.1c-0.3 0-0.6 0.1-0.9 0.2c-0.3 0.1-0.5 0.3-0.7 0.5 c-0.2 0.2-0.3 0.5-0.3 0.9c0 0.2 0 0.4 0.1 0.6c0.1 0.2 0.2 0.3 0.4 0.4c0.2 0.1 0.3 0.2 0.5 0.2c0.2 0 0.4 0.1 0.6 0.1 c0.7 0 1.3-0.2 1.7-0.6c0.4-0.4 0.7-0.9 0.9-1.5L121.1 48.6L121.1 48.6z"/>
  <path fill="#231F20" d="M124.2 51c0.1 0.2 0.3 0.4 0.5 0.6c0.2 0.1 0.4 0.2 0.7 0.3c0.2 0.1 0.5 0.1 0.7 0.1c0.2 0 0.4 0 0.6-0.1 c0.2-0.1 0.4-0.1 0.6-0.2c0.2-0.1 0.3-0.2 0.4-0.4c0.1-0.2 0.2-0.4 0.2-0.6c0-0.2-0.1-0.4-0.2-0.6c-0.1-0.2-0.3-0.3-0.4-0.4 c-0.2-0.1-0.4-0.2-0.6-0.3c-0.2-0.1-0.5-0.2-0.7-0.3c-0.2-0.1-0.5-0.2-0.7-0.3c-0.2-0.1-0.4-0.2-0.6-0.4c-0.2-0.2-0.3-0.3-0.4-0.5 s-0.2-0.5-0.2-0.8c0-0.4 0.1-0.7 0.3-0.9s0.4-0.5 0.6-0.6c0.3-0.2 0.6-0.3 0.9-0.4c0.3-0.1 0.6-0.1 0.9-0.1c0.4 0 0.7 0 1 0.1 c0.3 0.1 0.6 0.2 0.8 0.4s0.4 0.4 0.5 0.7s0.2 0.7 0.2 1.1h-0.9c0-0.3 0-0.5-0.1-0.7c-0.1-0.2-0.2-0.4-0.4-0.5 c-0.2-0.1-0.3-0.2-0.6-0.3c-0.3-0.1-0.4-0.1-0.7-0.1c-0.2 0-0.4 0-0.6 0.1c-0.2 0.1-0.4 0.1-0.6 0.2c-0.2 0.1-0.3 0.2-0.4 0.4 s-0.2 0.4-0.2 0.6c0 0.2 0 0.3 0.1 0.4c0.1 0.1 0.2 0.2 0.3 0.3s0.3 0.2 0.5 0.3s0.4 0.2 0.6 0.3c0.3 0.1 0.5 0.2 0.8 0.3 c0.3 0.1 0.5 0.2 0.8 0.4c0.2 0.2 0.4 0.3 0.6 0.6c0.2 0.2 0.2 0.5 0.2 0.8c0 0.4-0.1 0.8-0.3 1c-0.2 0.3-0.4 0.5-0.7 0.7 s-0.6 0.3-0.9 0.4c-0.3 0.1-0.7 0.1-1 0.1c-0.4 0-0.7 0-1-0.1c-0.3-0.1-0.6-0.2-0.9-0.4c-0.3-0.2-0.5-0.5-0.6-0.8 c-0.1-0.3-0.2-0.7-0.2-1.2h0.9C124 50.5 124.1 50.8 124.2 51z"/>
  <path fill="#231F20" d="M132.8 42.5l-1.3 6.3l0 0l4.2-3.5h1.2l-3.4 2.8l2.2 4.4h-1l-1.9-3.9l-1.5 1.3l-0.6 2.6h-0.9l2.1-10 L132.8 42.5L132.8 42.5z"/>
  <path fill="#231F20" d="M137.4 49.6c0 0.3 0 0.6 0.1 0.9c0.1 0.3 0.2 0.5 0.4 0.7s0.4 0.4 0.7 0.5s0.6 0.2 0.9 0.2 c0.6 0 1.1-0.2 1.5-0.5c0.4-0.3 0.7-0.8 0.9-1.3h0.9c-0.2 0.8-0.6 1.4-1.2 1.9c-0.5 0.4-1.2 0.6-2.1 0.6c-1 0-1.7-0.3-2.2-0.8 s-0.7-1.3-0.7-2.2c0-0.6 0.1-1.1 0.3-1.7s0.4-1 0.8-1.5c0.4-0.5 0.7-0.8 1.2-1c0.5-0.3 1-0.4 1.7-0.4c0.4 0 0.8 0.1 1.2 0.2 c0.3 0.1 0.6 0.3 0.9 0.6c0.2 0.2 0.4 0.5 0.5 0.9c0.1 0.3 0.2 0.7 0.2 1.1c0 0.2 0 0.4 0 0.6c0 0.2 0 0.4-0.1 0.6h-5.8 C137.4 49.3 137.4 49.4 137.4 49.6z M142.4 48.1c0-0.1 0-0.2 0-0.3c0-0.6-0.2-1.1-0.5-1.5c-0.4-0.4-0.8-0.5-1.4-0.5 c-0.4 0-0.7 0.1-1 0.2c-0.3 0.1-0.6 0.3-0.8 0.6c-0.2 0.2-0.4 0.5-0.6 0.8c-0.2 0.3-0.3 0.6-0.3 1h4.7 C142.4 48.2 142.4 48.1 142.4 48.1z"/>
  <path fill="#231F20" d="M148.9 52.5l0.3-1.3l0 0c-0.3 0.5-0.7 0.8-1.1 1.1s-0.9 0.4-1.6 0.4c-0.9 0-1.6-0.3-2.1-0.8 s-0.7-1.2-0.7-2.1c0-0.6 0.1-1.1 0.3-1.7c0.2-0.6 0.4-1.1 0.8-1.5c0.3-0.4 0.8-0.8 1.2-1.1c0.5-0.3 1-0.4 1.6-0.4 c0.6 0 1.1 0.1 1.5 0.4c0.4 0.3 0.7 0.6 0.9 1.2l0 0l0.9-4.1h0.9l-2.1 10L148.9 52.5L148.9 52.5z M148 51.5c0.4-0.3 0.7-0.6 1-1 c0.3-0.4 0.5-0.8 0.6-1.3s0.2-0.9 0.2-1.4c0-0.6-0.2-1.2-0.5-1.5c-0.4-0.4-0.8-0.6-1.5-0.6c-0.5 0-1 0.1-1.3 0.4 c-0.4 0.3-0.7 0.6-1 1c-0.3 0.4-0.5 0.8-0.6 1.3s-0.2 0.9-0.2 1.4c0 0.6 0.2 1.1 0.5 1.5c0.3 0.4 0.8 0.6 1.5 0.6 C147.1 51.9 147.6 51.8 148 51.5z"/>
  <path fill="#231F20" d="M152.4 51h1.2l-0.3 1.5h-1.2L152.4 51z"/>
  <path fill="#231F20" d="M156.2 51h1.2l-0.3 1.5h-1.2L156.2 51z"/>
  <path fill="#231F20" d="M160.1 51h1.2l-0.3 1.5h-1.2L160.1 51z"/>
</g>
<rect x="82.7" y="83.9" fill="#F9F9F9" width="199.7" height="25.7"/>
<g>
  <path fill="#231F20" d="M91.9 90.8l0.5 8.9l0 0l4.3-8.9h1.1l0.7 8.8l0 0l4.1-8.8h1l-4.8 10h-1l-0.7-9.1l0 0l-4.4 9.1h-1l-0.7-10 H91.9z"/>
  <path fill="#231F20" d="M103.3 94.7c0.2-0.3 0.4-0.5 0.7-0.7c0.3-0.2 0.6-0.3 0.9-0.4c0.3-0.1 0.7-0.1 1.1-0.1c0.2 0 0.5 0 0.8 0.1 c0.3 0 0.6 0.1 0.8 0.3c0.3 0.1 0.5 0.3 0.6 0.5c0.1 0.2 0.3 0.3 0.3 0.6c0 0.2 0 0.4 0 0.6c0 0.2-0.1 0.4-0.1 0.7 c0 0.2-0.1 0.4-0.1 0.6c-0.1 0.2-0.1 0.4-0.1 0.6c-0.1 0.4-0.2 0.7-0.2 1c-0.1 0.3-0.1 0.5-0.1 0.7s-0.1 0.3-0.1 0.4 c0 0.1 0 0.2 0 0.3s0.1 0.2 0.2 0.2s0.2 0 0.3 0s0.1 0 0.2 0s0.1 0 0.2 0l-0.1 0.7c-0.2 0-0.5 0.1-0.7 0.1c-0.5 0-0.8-0.3-0.8-0.8 c0-0.1 0-0.1 0-0.2c0-0.1 0-0.1 0-0.2l0 0c-0.3 0.4-0.6 0.7-1.1 1c-0.5 0.2-0.9 0.3-1.4 0.3c-0.3 0-0.6 0-0.9-0.1 c-0.3-0.1-0.5-0.2-0.7-0.3c-0.2-0.2-0.4-0.4-0.5-0.6c-0.1-0.3-0.2-0.6-0.2-0.9c0-0.4 0.1-0.7 0.2-1s0.3-0.5 0.6-0.6 c0.3-0.1 0.5-0.3 0.8-0.4c0.3-0.1 0.6-0.2 0.9-0.2c0.5-0.1 0.9-0.1 1.3-0.1c0.4 0 0.7 0 1-0.1c0.3-0.1 0.5-0.2 0.7-0.4 c0.1-0.2 0.2-0.5 0.2-1c0-0.2 0-0.4-0.1-0.5s-0.2-0.2-0.4-0.3c-0.1-0.1-0.3-0.1-0.5-0.2c-0.2 0-0.4 0-0.5 0c-0.3 0-0.5 0-0.8 0.1 c-0.3 0.1-0.5 0.1-0.7 0.3c-0.2 0.1-0.4 0.3-0.5 0.5s-0.2 0.5-0.3 0.8h-0.9C103 95.3 103.1 95 103.3 94.7z M107.3 96.9 c-0.1 0.1-0.2 0.2-0.3 0.2c-0.1 0.1-0.3 0.1-0.4 0.1c-0.1 0-0.3 0-0.5 0.1c-0.2 0-0.3 0-0.4 0c-0.3 0-0.6 0-0.9 0.1 c-0.3 0-0.6 0.1-0.9 0.2c-0.3 0.1-0.5 0.3-0.7 0.5c-0.2 0.2-0.3 0.5-0.3 0.9c0 0.2 0 0.4 0.1 0.6c0.1 0.2 0.2 0.3 0.4 0.4 s0.3 0.2 0.5 0.2s0.4 0.1 0.6 0.1c0.7 0 1.3-0.2 1.7-0.6c0.4-0.4 0.7-0.9 0.9-1.5L107.3 96.9L107.3 96.9z"/>
  <path fill="#231F20" d="M111.3 93.6l0.5-2.2h0.9l-0.5 2.2h1.4l-0.1 0.7H112l-1 4.6c0 0.2-0.1 0.3-0.1 0.4s0 0.2 0 0.3 s0 0.2 0.1 0.4c0.1 0.1 0.2 0.2 0.4 0.2c0.3 0 0.7 0 1-0.1l-0.2 0.8c-0.1 0-0.3 0-0.4 0s-0.3 0-0.4 0c-0.2 0-0.3 0-0.5 0 s-0.3-0.1-0.4-0.1c-0.1-0.1-0.2-0.2-0.3-0.3c-0.1-0.1-0.1-0.3-0.1-0.5c0-0.1 0-0.2 0-0.3s0-0.3 0.1-0.4l1-4.8h-1.4l0.2-0.7h1.3 C111.3 93.8 111.3 93.6 111.3 93.6z"/>
  <path fill="#231F20" d="M114.6 99.3c0.1 0.2 0.3 0.4 0.5 0.6c0.2 0.1 0.4 0.2 0.7 0.3c0.2 0.1 0.5 0.1 0.7 0.1c0.2 0 0.4 0 0.6-0.1 c0.2-0.1 0.4-0.1 0.6-0.2c0.2-0.1 0.3-0.2 0.4-0.4c0.1-0.2 0.2-0.4 0.2-0.6c0-0.2-0.1-0.4-0.2-0.6c-0.1-0.2-0.3-0.3-0.4-0.4 c-0.2-0.1-0.4-0.2-0.6-0.3c-0.2-0.1-0.5-0.2-0.7-0.3s-0.5-0.2-0.7-0.3c-0.2-0.1-0.4-0.2-0.6-0.4c-0.2-0.2-0.3-0.3-0.4-0.5 c-0.1-0.2-0.2-0.5-0.2-0.8c0-0.4 0.1-0.7 0.3-0.9c0.2-0.2 0.4-0.5 0.6-0.6c0.3-0.2 0.6-0.3 0.9-0.4c0.3-0.1 0.6-0.1 0.9-0.1 c0.4 0 0.7 0 1 0.1c0.3 0.1 0.6 0.2 0.8 0.4c0.2 0.2 0.4 0.4 0.5 0.7s0.2 0.7 0.2 1.1h-0.9c0-0.3 0-0.5-0.1-0.7 c-0.1-0.2-0.2-0.4-0.4-0.5c-0.2-0.1-0.3-0.2-0.6-0.3c-0.3-0.1-0.4-0.1-0.7-0.1c-0.2 0-0.4 0-0.6 0.1s-0.4 0.1-0.6 0.2 c-0.2 0.1-0.3 0.2-0.4 0.4s-0.2 0.4-0.2 0.6c0 0.2 0 0.3 0.1 0.4s0.2 0.2 0.3 0.3c0.1 0.1 0.3 0.2 0.5 0.3c0.2 0.1 0.4 0.2 0.6 0.3 c0.3 0.1 0.5 0.2 0.8 0.3c0.3 0.1 0.5 0.2 0.8 0.4c0.2 0.2 0.4 0.3 0.6 0.6c0.2 0.2 0.2 0.5 0.2 0.8c0 0.4-0.1 0.8-0.3 1 c-0.2 0.3-0.4 0.5-0.7 0.7c-0.3 0.2-0.6 0.3-0.9 0.4c-0.3 0.1-0.7 0.1-1 0.1c-0.4 0-0.7 0-1-0.1c-0.3-0.1-0.6-0.2-0.9-0.4 c-0.3-0.2-0.5-0.5-0.6-0.8c-0.1-0.3-0.2-0.7-0.2-1.2h0.9C114.4 98.8 114.4 99.1 114.6 99.3z"/>
  <path fill="#231F20" d="M125.6 93.6c0.4 0.1 0.7 0.3 0.9 0.6c0.3 0.2 0.4 0.5 0.6 0.9c0.1 0.3 0.2 0.7 0.2 1.2 c0 0.6-0.1 1.2-0.3 1.8c-0.2 0.6-0.4 1.1-0.7 1.5s-0.7 0.8-1.2 1.1s-1.1 0.4-1.8 0.4c-0.9 0-1.6-0.3-2.1-0.8s-0.7-1.3-0.7-2.2 c0-0.6 0.1-1.2 0.3-1.7c0.2-0.6 0.4-1.1 0.8-1.5c0.3-0.4 0.8-0.8 1.3-1c0.5-0.3 1.1-0.4 1.7-0.4C124.9 93.4 125.3 93.4 125.6 93.6z M124.8 99.9c0.4-0.2 0.7-0.6 0.9-0.9c0.2-0.3 0.4-0.8 0.6-1.3c0.1-0.5 0.2-0.9 0.2-1.3c0-0.7-0.2-1.2-0.5-1.6 c-0.4-0.4-0.9-0.6-1.6-0.6c-0.5 0-0.9 0.1-1.3 0.4c-0.4 0.2-0.7 0.5-0.9 0.9c-0.3 0.4-0.4 0.8-0.6 1.2c-0.1 0.5-0.2 0.9-0.2 1.3 c0 0.7 0.2 1.3 0.5 1.7c0.4 0.4 0.9 0.7 1.6 0.7C124 100.3 124.4 100.2 124.8 99.9z"/>
  <path fill="#231F20" d="M130.2 93.6l-0.3 1.3l0 0c0.3-0.4 0.6-0.8 1.1-1.1s0.9-0.4 1.5-0.4c0.3 0 0.6 0 0.9 0.1s0.5 0.2 0.7 0.3 c0.2 0.2 0.3 0.4 0.5 0.6c0.2 0.2 0.2 0.5 0.2 0.9c0 0.2 0 0.5-0.1 0.9l-1 4.6h-0.9l1-4.7c0-0.1 0.1-0.2 0.1-0.4s0-0.2 0-0.4 s0-0.4-0.1-0.6c-0.1-0.2-0.2-0.3-0.3-0.4c-0.1-0.1-0.3-0.2-0.5-0.2s-0.4-0.1-0.6-0.1c-0.3 0-0.6 0.1-0.9 0.2 c-0.3 0.1-0.6 0.3-0.8 0.6c-0.3 0.3-0.5 0.6-0.7 0.9c-0.2 0.4-0.3 0.8-0.4 1.2l-0.8 3.7h-0.9l1.5-7.2h0.8V93.6z"/>
  <path fill="#231F20" d="M141.6 93.6l-0.4 1.7l0 0c0.3-0.5 0.6-0.9 1-1.3c0.4-0.3 0.9-0.5 1.6-0.5h0.1h0.1h0.1l-0.2 0.9 c-0.1 0-0.2 0-0.3 0s-0.2 0-0.3 0c-0.4 0-0.7 0.1-1 0.2s-0.6 0.3-0.8 0.6c-0.2 0.2-0.4 0.5-0.6 0.8s-0.3 0.6-0.3 1l-0.8 3.8h-0.9 l1.5-7.2H141.6z"/>
  <path fill="#231F20" d="M144.8 98c0 0.3 0 0.6 0.1 0.9c0.1 0.3 0.2 0.5 0.4 0.7c0.2 0.2 0.4 0.4 0.7 0.5s0.6 0.2 0.9 0.2 c0.6 0 1.1-0.2 1.5-0.5c0.4-0.3 0.7-0.8 0.9-1.3h0.9c-0.2 0.8-0.6 1.4-1.2 1.9c-0.5 0.4-1.2 0.6-2.1 0.6c-1 0-1.7-0.3-2.2-0.8 s-0.7-1.3-0.7-2.2c0-0.6 0.1-1.1 0.3-1.7c0.2-0.6 0.4-1 0.8-1.5c0.4-0.5 0.7-0.8 1.2-1c0.5-0.3 1-0.4 1.7-0.4 c0.4 0 0.8 0.1 1.2 0.2c0.3 0.1 0.6 0.3 0.9 0.6c0.2 0.2 0.4 0.5 0.5 0.9c0.1 0.3 0.2 0.7 0.2 1.1c0 0.2 0 0.4 0 0.6 c0 0.2 0 0.4-0.1 0.6h-5.7C144.8 97.6 144.8 97.8 144.8 98z M149.6 96.4c0-0.1 0-0.2 0-0.3c0-0.6-0.2-1.1-0.5-1.5 c-0.4-0.4-0.8-0.5-1.4-0.5c-0.4 0-0.7 0.1-1 0.2c-0.3 0.1-0.6 0.3-0.8 0.6c-0.2 0.2-0.4 0.5-0.6 0.8c-0.2 0.3-0.3 0.6-0.3 1h4.5 C149.5 96.6 149.5 96.5 149.6 96.4z"/>
  <path fill="#231F20" d="M156.8 95.1c-0.1-0.2-0.2-0.4-0.4-0.5s-0.3-0.3-0.6-0.3c-0.2-0.1-0.5-0.1-0.7-0.1c-0.5 0-1 0.1-1.4 0.4 c-0.4 0.2-0.7 0.5-1 0.9s-0.5 0.8-0.6 1.3c-0.1 0.5-0.2 0.9-0.2 1.4c0 0.3 0 0.6 0.1 0.9c0.1 0.3 0.2 0.5 0.4 0.7s0.4 0.4 0.6 0.5 c0.3 0.1 0.6 0.2 0.9 0.2c0.6 0 1.1-0.2 1.5-0.5c0.4-0.3 0.7-0.8 0.9-1.3h0.9c-0.3 0.8-0.7 1.5-1.2 1.9c-0.6 0.4-1.3 0.6-2.1 0.6 c-0.9 0-1.6-0.3-2.1-0.8s-0.7-1.3-0.7-2.2c0-0.6 0.1-1.1 0.3-1.7c0.2-0.6 0.4-1.1 0.8-1.5c0.3-0.4 0.7-0.8 1.2-1.1s1-0.4 1.7-0.4 c0.4 0 0.8 0 1.1 0.1c0.3 0.1 0.6 0.2 0.9 0.5c0.2 0.2 0.4 0.5 0.6 0.8c0.1 0.3 0.2 0.7 0.2 1.1h-0.9 C156.9 95.6 156.9 95.3 156.8 95.1z"/>
  <path fill="#231F20" d="M163.5 93.6c0.4 0.1 0.7 0.3 0.9 0.6c0.3 0.2 0.4 0.5 0.6 0.9c0.1 0.3 0.2 0.7 0.2 1.2 c0 0.6-0.1 1.2-0.3 1.8s-0.4 1.1-0.7 1.5c-0.3 0.4-0.7 0.8-1.2 1.1s-1.1 0.4-1.8 0.4c-0.9 0-1.6-0.3-2.1-0.8s-0.7-1.3-0.7-2.2 c0-0.6 0.1-1.2 0.3-1.7c0.2-0.6 0.4-1.1 0.8-1.5c0.3-0.4 0.8-0.8 1.3-1c0.5-0.3 1.1-0.4 1.7-0.4C162.9 93.4 163.2 93.4 163.5 93.6z M162.8 99.9c0.4-0.2 0.7-0.6 0.9-0.9c0.2-0.3 0.4-0.8 0.6-1.3c0.1-0.5 0.2-0.9 0.2-1.3c0-0.7-0.2-1.2-0.5-1.6 c-0.4-0.4-0.9-0.6-1.6-0.6c-0.5 0-0.9 0.1-1.3 0.4c-0.4 0.2-0.7 0.5-0.9 0.9c-0.3 0.4-0.4 0.8-0.6 1.2c-0.1 0.5-0.2 0.9-0.2 1.3 c0 0.7 0.2 1.3 0.5 1.7c0.4 0.4 0.9 0.7 1.6 0.7C161.9 100.3 162.4 100.2 162.8 99.9z"/>
  <path fill="#231F20" d="M168.1 93.6l-0.3 1.3l0 0c0.3-0.4 0.6-0.8 1.1-1.1c0.4-0.3 0.9-0.4 1.5-0.4c0.5 0 0.9 0.1 1.2 0.4 c0.3 0.3 0.5 0.6 0.5 1.2l0 0c0.3-0.4 0.6-0.8 1.1-1.1c0.4-0.3 0.9-0.4 1.5-0.4c0.7 0 1.2 0.2 1.5 0.5c0.3 0.4 0.5 0.8 0.5 1.4 c0 0.1 0 0.3 0 0.4s0 0.3-0.1 0.4l-1 4.7h-0.9l1-4.7c0.1-0.3 0.1-0.5 0.1-0.7c0-0.4-0.1-0.6-0.3-0.9c-0.2-0.2-0.6-0.4-1-0.4 s-0.7 0.1-1 0.3s-0.5 0.4-0.7 0.7s-0.4 0.7-0.5 1.1c-0.1 0.4-0.3 0.8-0.4 1.3l-0.7 3.3h-0.9l1-4.7c0.1-0.2 0.1-0.5 0.1-0.7 c0-0.4-0.1-0.7-0.3-0.9c-0.2-0.3-0.5-0.4-0.9-0.4c-0.3 0-0.6 0.1-0.9 0.2c-0.3 0.2-0.6 0.4-0.8 0.6c-0.2 0.3-0.4 0.6-0.6 1 s-0.3 0.8-0.4 1.2l-0.8 3.7h-0.9l1.5-7.2h0.8L168.1 93.6L168.1 93.6z"/>
  <path fill="#231F20" d="M179.9 93.6l-0.3 1.3l0 0c0.3-0.4 0.6-0.8 1.1-1.1c0.4-0.3 0.9-0.4 1.5-0.4c0.5 0 0.9 0.1 1.2 0.4 c0.3 0.3 0.5 0.6 0.5 1.2l0 0c0.3-0.4 0.6-0.8 1.1-1.1c0.4-0.3 0.9-0.4 1.5-0.4c0.7 0 1.2 0.2 1.5 0.5c0.3 0.4 0.5 0.8 0.5 1.4 c0 0.1 0 0.3 0 0.4s0 0.3-0.1 0.4l-1 4.7h-0.9l1-4.7c0.1-0.3 0.1-0.5 0.1-0.7c0-0.4-0.1-0.6-0.3-0.9c-0.2-0.2-0.6-0.4-1-0.4 s-0.7 0.1-1 0.3s-0.5 0.4-0.7 0.7s-0.4 0.7-0.5 1.1c-0.1 0.4-0.3 0.8-0.4 1.3l-0.7 3.3h-1l1-4.7c0.1-0.2 0.1-0.5 0.1-0.7 c0-0.4-0.1-0.7-0.3-0.9c-0.2-0.3-0.5-0.4-0.9-0.4c-0.3 0-0.6 0.1-0.9 0.2c-0.3 0.2-0.6 0.4-0.8 0.6c-0.2 0.3-0.4 0.6-0.6 1 s-0.3 0.8-0.4 1.2l-0.8 3.7h-0.9l1.5-7.2h0.8v-0.1H179.9z"/>
  <path fill="#231F20" d="M190.4 98c0 0.3 0 0.6 0.1 0.9c0.1 0.3 0.2 0.5 0.4 0.7c0.2 0.2 0.4 0.4 0.7 0.5c0.3 0.1 0.6 0.2 0.9 0.2 c0.6 0 1.1-0.2 1.5-0.5s0.7-0.8 0.9-1.3h0.9c-0.2 0.8-0.6 1.4-1.2 1.9c-0.5 0.4-1.2 0.6-2.1 0.6c-1 0-1.7-0.3-2.2-0.8 s-0.7-1.3-0.7-2.2c0-0.6 0.1-1.1 0.3-1.7c0.2-0.6 0.4-1 0.8-1.5c0.4-0.5 0.7-0.8 1.2-1c0.5-0.3 1-0.4 1.7-0.4 c0.4 0 0.8 0.1 1.2 0.2c0.3 0.1 0.6 0.3 0.9 0.6c0.2 0.2 0.4 0.5 0.5 0.9c0.1 0.3 0.2 0.7 0.2 1.1c0 0.2 0 0.4 0 0.6 c0 0.2 0 0.4-0.1 0.6h-5.7C190.4 97.6 190.4 97.8 190.4 98z M195.1 96.4c0-0.1 0-0.2 0-0.3c0-0.6-0.2-1.1-0.5-1.5 c-0.4-0.4-0.8-0.5-1.4-0.5c-0.4 0-0.7 0.1-1 0.2c-0.3 0.1-0.6 0.3-0.8 0.6c-0.2 0.2-0.4 0.5-0.6 0.8s-0.3 0.6-0.3 1h4.7 C195.1 96.6 195.1 96.5 195.1 96.4z"/>
  <path fill="#231F20" d="M198.8 93.6l-0.3 1.3l0 0c0.3-0.4 0.6-0.8 1.1-1.1s0.9-0.4 1.5-0.4c0.3 0 0.6 0 0.9 0.1s0.5 0.2 0.7 0.3 c0.2 0.2 0.3 0.4 0.5 0.6s0.2 0.5 0.2 0.9c0 0.2 0 0.5-0.1 0.9l-1 4.6h-0.9l1-4.7c0-0.1 0.1-0.2 0.1-0.4s0-0.2 0-0.4s0-0.4-0.1-0.6 s-0.2-0.3-0.3-0.4c-0.1-0.1-0.3-0.2-0.5-0.2s-0.4-0.1-0.6-0.1c-0.3 0-0.6 0.1-0.9 0.2c-0.3 0.1-0.6 0.3-0.8 0.6 c-0.3 0.3-0.5 0.6-0.7 0.9c-0.2 0.4-0.3 0.8-0.4 1.2l-0.8 3.7h-0.9l1.5-7.2h0.8L198.8 93.6L198.8 93.6z"/>
  <path fill="#231F20" d="M209.4 100.8l0.3-1.3l0 0c-0.3 0.5-0.7 0.8-1.1 1.1s-0.9 0.4-1.6 0.4c-0.9 0-1.6-0.3-2.1-0.8 s-0.7-1.2-0.7-2.1c0-0.6 0.1-1.1 0.3-1.7c0.2-0.6 0.4-1.1 0.8-1.5c0.3-0.4 0.8-0.8 1.2-1.1c0.5-0.3 1-0.4 1.6-0.4s1.1 0.1 1.5 0.4 s0.7 0.6 0.9 1.2l0 0l0.9-4.1h0.9l-2.1 10L209.4 100.8L209.4 100.8z M208.4 99.9c0.4-0.3 0.7-0.6 1-1s0.5-0.8 0.6-1.3 c0.1-0.5 0.2-0.9 0.2-1.4c0-0.6-0.2-1.2-0.5-1.5c-0.4-0.4-0.8-0.6-1.5-0.6c-0.5 0-1 0.1-1.3 0.4c-0.4 0.3-0.7 0.6-1 1 c-0.3 0.4-0.5 0.8-0.6 1.3s-0.2 0.9-0.2 1.4c0 0.6 0.2 1.1 0.5 1.5s0.8 0.6 1.5 0.6C207.5 100.3 208 100.2 208.4 99.9z"/>
  <path fill="#231F20" d="M213.1 99.3c0.1 0.2 0.3 0.4 0.5 0.6c0.2 0.1 0.4 0.2 0.7 0.3c0.2 0.1 0.5 0.1 0.7 0.1s0.4 0 0.6-0.1 c0.2-0.1 0.4-0.1 0.6-0.2c0.2-0.1 0.3-0.2 0.4-0.4c0.1-0.2 0.2-0.4 0.2-0.6c0-0.2-0.1-0.4-0.2-0.6c-0.1-0.2-0.3-0.3-0.4-0.4 c-0.2-0.1-0.4-0.2-0.6-0.3c-0.2-0.1-0.5-0.2-0.7-0.3c-0.2-0.1-0.5-0.2-0.7-0.3c-0.2-0.1-0.4-0.2-0.6-0.4s-0.3-0.3-0.4-0.5 c-0.1-0.2-0.2-0.5-0.2-0.8c0-0.4 0.1-0.7 0.3-0.9c0.2-0.2 0.4-0.5 0.6-0.6c0.3-0.2 0.6-0.3 0.9-0.4c0.3-0.1 0.6-0.1 0.9-0.1 c0.4 0 0.7 0 1 0.1s0.6 0.2 0.8 0.4s0.4 0.4 0.5 0.7s0.2 0.7 0.2 1.1h-0.9c0-0.3 0-0.5-0.1-0.7s-0.2-0.4-0.4-0.5 c-0.2-0.1-0.3-0.2-0.6-0.3s-0.4-0.1-0.7-0.1c-0.2 0-0.4 0-0.6 0.1c-0.2 0.1-0.4 0.1-0.6 0.2c-0.2 0.1-0.3 0.2-0.4 0.4 c-0.1 0.2-0.2 0.4-0.2 0.6c0 0.2 0 0.3 0.1 0.4s0.2 0.2 0.3 0.3c0.1 0.1 0.3 0.2 0.5 0.3s0.4 0.2 0.6 0.3c0.3 0.1 0.5 0.2 0.8 0.3 c0.3 0.1 0.5 0.2 0.8 0.4c0.2 0.2 0.4 0.3 0.6 0.6c0.2 0.2 0.2 0.5 0.2 0.8c0 0.4-0.1 0.8-0.3 1c-0.2 0.3-0.4 0.5-0.7 0.7 s-0.6 0.3-0.9 0.4c-0.3 0.1-0.7 0.1-1 0.1c-0.4 0-0.7 0-1-0.1c-0.3-0.1-0.6-0.2-0.9-0.4s-0.5-0.5-0.6-0.8c-0.1-0.3-0.2-0.7-0.2-1.2 h0.9C212.9 98.8 213 99.1 213.1 99.3z"/>
  <path fill="#231F20" d="M219.4 99.3h1.2l-0.3 1.5h-1.2L219.4 99.3z"/>
  <path fill="#231F20" d="M223.4 99.3h1.2l-0.3 1.5H223L223.4 99.3z"/>
  <path fill="#231F20" d="M227.1 99.3h1.2l-0.3 1.5h-1.2L227.1 99.3z"/>
</g>
<rect x="221.6" y="179" fill="#F9F9F9" width="129.7" height="34.7"/>
<rect x="221.6" y="217.6" fill="#5A5A5B" width="129.7" height="9.5"/>
<rect x="82.7" y="179" fill="#F9F9F9" width="129.7" height="34.7"/>
<rect x="82.7" y="217.6" fill="#5A5A5B" width="129.7" height="9.5"/>
<rect x="221.6" y="120.7" fill="#F9F9F9" width="129.7" height="34.7"/>
<rect x="221.6" y="159.2" fill="#5A5A5B" width="129.7" height="9.5"/>
<rect x="82.7" y="120.7" fill="#F9F9F9" width="129.7" height="34.7"/>
<rect x="221.6" y="236.2" fill="#F9F9F9" width="129.7" height="34.7"/>
<rect x="82.7" y="236.2" fill="#F9F9F9" width="129.7" height="34.7"/>
<rect x="82.7" y="159.2" fill="#5A5A5B" width="129.7" height="9.5"/>
<g>
  <circle fill="#07B5A0" cx="54.7" cy="163.1" r="19.5"/>
  <g>
    <path d="M57 170.2h-3v-9.5h-3.7v-2.2c2.1 0.1 4-0.7 4.3-2.9H57V170.2z"/>
  </g>
</g>
</svg>
