<svg xmlns="http://www.w3.org/2000/svg" xmlns:xlink="http://www.w3.org/1999/xlink" version="1.1" id="Layer_1" x="0px" y="0px" width="502.6px" height="324px" viewBox="-36 0 502.6 324" enable-background="new -36 0 502.6 324" xml:space="preserve">
<g id="macbook" display="none">
  <g display="inline">
    <path fill="#3E3E3E" d="M-465.3 1016.5h-213.5V748.2c0-8.1 6.5-14.6 14.6-14.6h199h188c8.1 0 14.6 6.5 14.6 14.6v268.3H-465.3z"/>
    <path fill="#E9E9E9" d="M-207.9 1016.5c0 12.1-9.6 21.9-21.5 21.9h-482.7c-11.9 0-21.5-9.8-21.5-21.9H-207.9z"/>
    <path fill="#E9E9E9" d="M-464.3 737.4c1.9 0 3.4 1.5 3.4 3.4s-1.5 3.4-3.4 3.4s-3.4-1.5-3.4-3.4 C-467.8 738.9-466.2 737.4-464.3 737.4z"/>
    <path fill="#8AC9E4" d="M-667.9 1001.9V748.2h394.3v253.7H-667.9z"/>
    <path fill="#B4B3B3" d="M-434.2 1016.5c0 4-3.3 7.3-7.5 7.3h-58.1c-4.1 0-7.5-3.3-7.5-7.3H-434.2z"/>
  </g>
</g>
<g id="iPad" display="none">
</g>
<g id="iPhone" display="none">
</g>
<g id="WDA__x2F__WEX">
</g>
<g id="Network_Viz">
</g>
<g id="WEA">
</g>
<g id="Wealth_Management">
</g>
<g id="Principle_3">
</g>
<g id="Layer_1_1_">
</g>
<rect x="-36" y="-1.8" fill="#ECECEC" width="502.6" height="324"/>
<rect x="-36" y="-1.8" fill="#959595" width="502.6" height="15.2"/>
<rect x="25.8" y="123.5" fill="#C7C7C7" width="92.2" height="179.2"/>
<rect x="127.7" y="123.5" fill="#C7C7C7" width="256.8" height="198.7"/>
<rect x="-36" y="13.4" fill="#C7C7C7" width="502.6" height="99.8"/>
<rect x="-582.7" y="1012.1" fill="#5A5A5B" width="217.8" height="12.6"/>
<rect x="147.2" y="285.3" fill="#5A5A5B" width="217.8" height="12.6"/>
<g>
  <circle fill="#07B5A0" cx="117.7" cy="291.1" r="19.5"/>
  <g>
    <path d="M120 298.2h-3v-9.5h-3.7v-2.2c2.1 0.1 4-0.7 4.3-2.9h2.4V298.2z"/>
  </g>
</g>
</svg>
