<svg xmlns="http://www.w3.org/2000/svg" xmlns:xlink="http://www.w3.org/1999/xlink" version="1.1" id="Layer_1" x="0px" y="0px" width="502.6px" height="324px" viewBox="-36 0 502.6 324" enable-background="new -36 0 502.6 324" xml:space="preserve">
<rect x="-35.5" y="15.2" fill="#ECECEC" width="502.6" height="308.8"/>
<g id="macbook" display="none">
  <g display="inline">
    <path fill="#3E3E3E" d="M110.7 436.5h-213.5V168.2c0-8.1 6.5-14.6 14.6-14.6h199h188c8.1 0 14.6 6.5 14.6 14.6v268.3H110.7z"/>
    <path fill="#E9E9E9" d="M368.1 436.5c0 12.1-9.6 21.9-21.5 21.9h-482.7c-11.9 0-21.5-9.8-21.5-21.9H368.1z"/>
    <path fill="#E9E9E9" d="M111.7 157.4c1.9 0 3.4 1.5 3.4 3.4s-1.5 3.4-3.4 3.4s-3.4-1.5-3.4-3.4 C108.2 158.9 109.8 157.4 111.7 157.4z"/>
    <path fill="#8AC9E4" d="M-91.9 421.9V168.2h394.3v253.7H-91.9z"/>
    <path fill="#B4B3B3" d="M141.8 436.5c0 4-3.3 7.3-7.5 7.3H76.2c-4.1 0-7.5-3.3-7.5-7.3H141.8z"/>
  </g>
</g>
<g id="iPad" display="none">
</g>
<g id="iPhone" display="none">
</g>
<g id="WDA__x2F__WEX">
</g>
<g id="Network_Viz">
</g>
<g id="WEA">
</g>
<g id="Wealth_Management">
</g>
<g id="Principle_3">
</g>
<g id="Layer_1_1_">
</g>
<rect x="128.3" y="125.3" fill="#C7C7C7" width="256.8" height="179.2"/>
<rect x="26.3" y="125.3" fill="#C7C7C7" width="92.2" height="179.2"/>
<rect x="-35.5" y="15.2" fill="#E0E0E0" width="502.6" height="99.8"/>
<rect x="26.3" y="28.7" fill="#5A5A5B" width="169.7" height="12.6"/>
<rect x="302" y="55.1" fill="#5A5A5B" width="83" height="47.2"/>
<rect x="210.3" y="55.1" fill="#5A5A5B" width="83" height="47.2"/>
<rect x="118.5" y="55.1" fill="#5A5A5B" width="83" height="47.2"/>
<rect x="26.3" y="55.1" fill="#5A5A5B" width="83" height="47.2"/>
<rect x="-36.5" y="0" fill="#959595" width="503.2" height="15.2"/>
<g>
  <circle fill="#07B5A0" cx="113.5" cy="41.3" r="19.5"/>
  <g>
    <path d="M115.8 48.4h-3v-9.5h-3.7v-2.2c2.1 0.1 4-0.7 4.3-2.9h2.4V48.4z"/>
  </g>
</g>
</svg>
