<svg xmlns="http://www.w3.org/2000/svg" xmlns:xlink="http://www.w3.org/1999/xlink" version="1.1" id="Layer_1" x="0px" y="0px" width="502.6px" height="324px" viewBox="-36 0 502.6 324" enable-background="new -36 0 502.6 324" xml:space="preserve">
<g id="macbook" display="none">
  <g display="inline">
    <path fill="#3E3E3E" d="M-69.3 581.5h-213.5V313.2c0-8.1 6.5-14.6 14.6-14.6h199h188c8.1 0 14.6 6.5 14.6 14.6v268.3H-69.3z"/>
    <path fill="#E9E9E9" d="M188.1 581.5c0 12.1-9.6 21.9-21.5 21.9h-482.7c-11.9 0-21.5-9.8-21.5-21.9H188.1z"/>
    <path fill="#E9E9E9" d="M-68.3 302.4c1.9 0 3.4 1.5 3.4 3.4s-1.5 3.4-3.4 3.4c-1.9 0-3.4-1.5-3.4-3.4 C-71.8 303.9-70.2 302.4-68.3 302.4z"/>
    <path fill="#8AC9E4" d="M-271.9 566.9V313.2h394.3v253.7H-271.9z"/>
    <path fill="#B4B3B3" d="M-38.2 581.5c0 4-3.3 7.3-7.5 7.3h-58.1c-4.1 0-7.5-3.3-7.5-7.3H-38.2z"/>
  </g>
</g>
<g id="iPad" display="none">
</g>
<g id="iPhone" display="none">
</g>
<g id="WDA__x2F__WEX">
</g>
<g id="Network_Viz">
</g>
<g id="WEA">
</g>
<g id="Wealth_Management">
</g>
<g id="Principle_3">
</g>
<g id="Layer_1_1_">
</g>
<rect x="-36.4" y="0.2" fill="#ECECEC" width="503.5" height="324"/>
<rect x="-36.4" y="0.2" fill="#959595" width="503.5" height="15.2"/>
<rect x="-29" y="25.8" fill="#C7C7C7" width="92.4" height="153.7"/>
<rect x="-29" y="189.7" fill="#C7C7C7" width="92.4" height="83.1"/>
<rect x="73.2" y="25.8" fill="#C7C7C7" width="287.4" height="298.4"/>
<rect x="370.5" y="25.8" fill="#C7C7C7" width="87.6" height="58.3"/>
<rect x="370.5" y="94.3" fill="#C7C7C7" width="87.6" height="58.3"/>
<rect x="370.5" y="162.8" fill="#C7C7C7" width="87.6" height="58.3"/>
<rect x="82.7" y="35.7" fill="#5A5A5B" width="199.7" height="25.7"/>
<g>
  <path fill="#F9F9F9" d="M95.9 42.7l1.8 10h-1l-0.5-3.1h-4.5l-1.8 3.1h-1l6.1-10H95.9z M96.1 48.7l-0.9-5.3l0 0l-3.1 5.3H96.1z"/>
  <path fill="#F9F9F9" d="M99.8 51.2c0.1 0.2 0.3 0.4 0.5 0.6c0.2 0.1 0.4 0.2 0.7 0.3c0.2 0.1 0.5 0.1 0.7 0.1s0.4 0 0.6-0.1 s0.4-0.1 0.6-0.2c0.2-0.1 0.3-0.2 0.4-0.4c0.1-0.2 0.2-0.4 0.2-0.6c0-0.2-0.1-0.4-0.2-0.6c-0.1-0.2-0.3-0.3-0.4-0.4 c-0.2-0.1-0.4-0.2-0.6-0.3s-0.5-0.2-0.7-0.3s-0.5-0.2-0.7-0.3s-0.4-0.2-0.6-0.4s-0.3-0.3-0.4-0.5c-0.1-0.2-0.2-0.5-0.2-0.8 c0-0.4 0.1-0.7 0.3-0.9c0.2-0.2 0.4-0.5 0.6-0.6c0.3-0.2 0.6-0.3 0.9-0.4c0.3-0.1 0.6-0.1 0.9-0.1c0.4 0 0.7 0 1 0.1 s0.6 0.2 0.8 0.4s0.4 0.4 0.5 0.7c0.1 0.3 0.2 0.7 0.2 1.1h-0.9c0-0.3 0-0.5-0.1-0.7c-0.1-0.2-0.2-0.4-0.4-0.5 c-0.2-0.1-0.3-0.2-0.6-0.3c-0.3-0.1-0.4-0.1-0.7-0.1c-0.2 0-0.4 0-0.6 0.1s-0.4 0.1-0.6 0.2c-0.2 0.1-0.3 0.2-0.4 0.4 c-0.1 0.2-0.2 0.4-0.2 0.6c0 0.2 0 0.3 0.1 0.4c0.1 0.1 0.2 0.2 0.3 0.3s0.3 0.2 0.5 0.3s0.4 0.2 0.6 0.3c0.3 0.1 0.5 0.2 0.8 0.3 s0.5 0.2 0.8 0.4c0.2 0.2 0.4 0.3 0.6 0.6c0.2 0.2 0.2 0.5 0.2 0.8c0 0.4-0.1 0.8-0.3 1c-0.2 0.3-0.4 0.5-0.7 0.7 c-0.3 0.2-0.6 0.3-0.9 0.4c-0.3 0.1-0.7 0.1-1 0.1c-0.4 0-0.7 0-1-0.1s-0.6-0.2-0.9-0.4s-0.5-0.5-0.6-0.8c-0.1-0.3-0.2-0.7-0.2-1.2 h0.9C99.6 50.7 99.8 51 99.8 51.2z"/>
  <path fill="#F9F9F9" d="M108.2 42.7l-1.3 6.3l0 0l4.2-3.5h1.2l-3.4 2.7l2.2 4.4h-1l-1.9-3.9l-1.5 1.3l-0.6 2.6h-0.9l2.1-10 L108.2 42.7L108.2 42.7z"/>
  <path fill="#F9F9F9" d="M117.8 42.7l0.5 8.9l0 0l4.3-8.9h1.1l0.7 8.8l0 0l4.1-8.8h1l-4.8 10h-1l-0.7-9.1l0 0l-4.4 9.1h-1l-0.7-10 C116.9 42.7 117.8 42.7 117.8 42.7z"/>
  <path fill="#F9F9F9" d="M129.2 46.5c0.2-0.3 0.4-0.5 0.7-0.7s0.6-0.3 0.9-0.4c0.3-0.1 0.7-0.1 1.1-0.1c0.2 0 0.5 0 0.8 0.1 c0.3 0 0.6 0.1 0.8 0.3c0.3 0.1 0.5 0.3 0.6 0.5s0.3 0.5 0.3 0.8c0 0.2 0 0.4 0 0.6c0 0.2-0.1 0.4-0.1 0.7c0 0.2-0.1 0.4-0.1 0.6 c-0.1 0.2-0.1 0.4-0.1 0.6c-0.1 0.4-0.2 0.7-0.2 1c-0.1 0.3-0.1 0.5-0.1 0.7s-0.1 0.3-0.1 0.4c0 0.1 0 0.2 0 0.3s0.1 0.2 0.2 0.2 c0.1 0 0.2 0 0.3 0s0.1 0 0.2 0c0.1 0 0.1 0 0.2 0l-0.1 0.7c-0.2 0-0.5 0.1-0.7 0.1c-0.5 0-0.8-0.3-0.8-0.8c0-0.1 0-0.1 0-0.2 c0-0.1 0-0.1 0-0.2l0 0c-0.3 0.4-0.6 0.7-1.1 1c-0.5 0.2-0.9 0.3-1.4 0.3c-0.3 0-0.6 0-0.9-0.1c-0.3-0.1-0.5-0.2-0.7-0.3 c-0.2-0.2-0.4-0.4-0.5-0.6c-0.1-0.3-0.2-0.6-0.2-0.9c0-0.4 0.1-0.7 0.2-1c0.1-0.3 0.3-0.5 0.6-0.6s0.5-0.3 0.8-0.4 c0.3-0.1 0.6-0.2 0.9-0.2c0.5-0.1 0.9-0.1 1.3-0.1s0.7 0 1-0.1s0.5-0.2 0.7-0.4c0.1-0.2 0.2-0.5 0.2-1c0-0.2 0-0.4-0.1-0.5 s-0.2-0.2-0.4-0.3c-0.1-0.1-0.3-0.1-0.5-0.2c-0.2 0-0.4 0-0.5 0c-0.3 0-0.5 0-0.8 0.1s-0.5 0.1-0.7 0.3c-0.2 0.1-0.4 0.3-0.5 0.5 s-0.2 0.5-0.3 0.8h-0.9C129.1 47.2 129.1 46.8 129.2 46.5z M133.1 48.8c-0.1 0.1-0.2 0.2-0.3 0.2c-0.1 0.1-0.3 0.1-0.4 0.1 c-0.1 0-0.3 0-0.5 0.1c-0.2 0-0.3 0-0.4 0c-0.3 0-0.6 0-0.9 0.1c-0.3 0-0.6 0.1-0.9 0.2c-0.3 0.1-0.5 0.3-0.7 0.5s-0.3 0.5-0.3 0.9 c0 0.2 0 0.4 0.1 0.6c0.1 0.2 0.2 0.3 0.4 0.4c0.2 0.1 0.3 0.2 0.5 0.2s0.4 0.1 0.6 0.1c0.7 0 1.3-0.2 1.7-0.6 c0.4-0.4 0.7-0.9 0.9-1.5L133.1 48.8L133.1 48.8z"/>
  <path fill="#F9F9F9" d="M137.1 45.4l0.5-2.2h0.9l-0.5 2.2h1.4l-0.1 0.7h-1.5l-1 4.6c0 0.2-0.1 0.3-0.1 0.4s0 0.2 0 0.3 s0 0.2 0.1 0.4c0.1 0.1 0.2 0.2 0.4 0.2c0.3 0 0.7 0 1-0.1l-0.2 0.8c-0.1 0-0.3 0-0.4 0c-0.1 0-0.3 0-0.4 0c-0.2 0-0.3 0-0.5 0 s-0.3-0.1-0.4-0.1c-0.1-0.1-0.2-0.2-0.3-0.3s-0.1-0.3-0.1-0.5c0-0.1 0-0.2 0-0.3s0-0.3 0.1-0.4l1-4.8h-1.3l0.2-0.7h1.2 C137.1 45.6 137.1 45.4 137.1 45.4z"/>
  <path fill="#F9F9F9" d="M140.4 51.2c0.1 0.2 0.3 0.4 0.5 0.6c0.2 0.1 0.4 0.2 0.7 0.3c0.2 0.1 0.5 0.1 0.7 0.1s0.4 0 0.6-0.1 c0.2-0.1 0.4-0.1 0.6-0.2c0.2-0.1 0.3-0.2 0.4-0.4c0.1-0.2 0.2-0.4 0.2-0.6c0-0.2-0.1-0.4-0.2-0.6c-0.1-0.2-0.3-0.3-0.4-0.4 c-0.2-0.1-0.4-0.2-0.6-0.3c-0.2-0.1-0.5-0.2-0.7-0.3s-0.5-0.2-0.7-0.3s-0.4-0.2-0.6-0.4c-0.2-0.2-0.3-0.3-0.4-0.5s-0.2-0.5-0.2-0.8 c0-0.4 0.1-0.7 0.3-0.9s0.4-0.5 0.6-0.6c0.3-0.2 0.6-0.3 0.9-0.4c0.3-0.1 0.6-0.1 0.9-0.1c0.4 0 0.7 0 1 0.1s0.6 0.2 0.8 0.4 s0.4 0.4 0.5 0.7s0.2 0.7 0.2 1.1h-0.9c0-0.3 0-0.5-0.1-0.7s-0.2-0.4-0.4-0.5s-0.3-0.2-0.6-0.3s-0.4-0.1-0.7-0.1 c-0.2 0-0.4 0-0.6 0.1s-0.4 0.1-0.6 0.2c-0.2 0.1-0.3 0.2-0.4 0.4c-0.1 0.2-0.2 0.4-0.2 0.6c0 0.2 0 0.3 0.1 0.4 c0.1 0.1 0.2 0.2 0.3 0.3s0.3 0.2 0.5 0.3s0.4 0.2 0.6 0.3c0.3 0.1 0.5 0.2 0.8 0.3s0.5 0.2 0.8 0.4c0.2 0.2 0.4 0.3 0.6 0.6 c0.2 0.2 0.2 0.5 0.2 0.8c0 0.4-0.1 0.8-0.3 1c-0.2 0.3-0.4 0.5-0.7 0.7s-0.6 0.3-0.9 0.4c-0.3 0.1-0.7 0.1-1 0.1 c-0.4 0-0.7 0-1-0.1s-0.6-0.2-0.9-0.4s-0.5-0.5-0.6-0.8s-0.2-0.7-0.2-1.2h0.9C140.3 50.7 140.3 51 140.4 51.2z"/>
  <path fill="#F9F9F9" d="M151.6 45.4c0.4 0.1 0.7 0.3 0.9 0.6c0.3 0.2 0.4 0.5 0.6 0.9c0.1 0.3 0.2 0.7 0.2 1.2 c0 0.6-0.1 1.2-0.3 1.8s-0.4 1.1-0.7 1.5s-0.7 0.8-1.2 1.1s-1.1 0.4-1.8 0.4c-0.9 0-1.6-0.3-2.1-0.8s-0.7-1.3-0.7-2.2 c0-0.6 0.1-1.2 0.3-1.7c0.2-0.6 0.4-1.1 0.8-1.5c0.3-0.4 0.8-0.8 1.3-1c0.5-0.3 1.1-0.4 1.7-0.4C150.8 45.2 151.1 45.3 151.6 45.4z M150.8 51.8c0.4-0.2 0.7-0.6 0.9-0.9c0.2-0.3 0.4-0.8 0.6-1.3c0.1-0.5 0.2-0.9 0.2-1.3c0-0.7-0.2-1.2-0.5-1.6 c-0.4-0.4-0.9-0.6-1.6-0.6c-0.5 0-0.9 0.1-1.3 0.4c-0.4 0.2-0.7 0.5-0.9 0.9c-0.3 0.4-0.4 0.8-0.6 1.2c-0.1 0.5-0.2 0.9-0.2 1.3 c0 0.7 0.2 1.3 0.5 1.7c0.4 0.4 0.9 0.7 1.6 0.7C149.8 52.1 150.3 52 150.8 51.8z"/>
  <path fill="#F9F9F9" d="M156.1 45.4l-0.3 1.3l0 0c0.3-0.4 0.6-0.8 1.1-1.1s0.9-0.4 1.5-0.4c0.3 0 0.6 0 0.9 0.1s0.5 0.2 0.7 0.3 c0.2 0.2 0.3 0.4 0.5 0.6c0.2 0.2 0.2 0.5 0.2 0.9c0 0.2 0 0.5-0.1 0.9l-1 4.6h-0.9l1-4.7c0-0.1 0.1-0.2 0.1-0.4s0-0.2 0-0.4 s0-0.4-0.1-0.6c-0.1-0.2-0.2-0.3-0.3-0.4c-0.1-0.1-0.3-0.2-0.5-0.2s-0.4-0.1-0.6-0.1c-0.3 0-0.6 0.1-0.9 0.2 c-0.3 0.1-0.6 0.3-0.8 0.6c-0.3 0.3-0.5 0.6-0.7 0.9c-0.2 0.4-0.3 0.8-0.4 1.2l-0.8 3.7h-1l1.5-7.2h0.9 C156.1 45.2 156.1 45.4 156.1 45.4z"/>
  <path fill="#F9F9F9" d="M166.6 46.5c0.2-0.3 0.4-0.5 0.7-0.7s0.6-0.3 0.9-0.4c0.3-0.1 0.7-0.1 1.1-0.1c0.2 0 0.5 0 0.8 0.1 c0.3 0 0.6 0.1 0.8 0.3c0.3 0.1 0.5 0.3 0.6 0.5s0.3 0.5 0.3 0.8c0 0.2 0 0.4 0 0.6c0 0.2-0.1 0.4-0.1 0.7c0 0.2-0.1 0.4-0.1 0.6 c-0.1 0.2-0.1 0.4-0.1 0.6c-0.1 0.4-0.2 0.7-0.2 1c-0.1 0.3-0.1 0.5-0.1 0.7s-0.1 0.3-0.1 0.4c0 0.1 0 0.2 0 0.3s0.1 0.2 0.2 0.2 c0.1 0 0.2 0 0.3 0s0.1 0 0.2 0s0.1 0 0.2 0l-0.1 0.7c-0.2 0-0.5 0.1-0.7 0.1c-0.5 0-0.8-0.3-0.8-0.8c0-0.1 0-0.1 0-0.2 c0-0.1 0-0.1 0-0.2l0 0c-0.3 0.4-0.6 0.7-1.1 1c-0.5 0.2-0.9 0.3-1.4 0.3c-0.3 0-0.6 0-0.9-0.1s-0.5-0.2-0.7-0.3 c-0.2-0.2-0.4-0.4-0.5-0.6c-0.1-0.3-0.2-0.6-0.2-0.9c0-0.4 0.1-0.7 0.2-1c0.1-0.3 0.3-0.5 0.6-0.6s0.5-0.3 0.8-0.4 c0.3-0.1 0.6-0.2 0.9-0.2c0.5-0.1 0.9-0.1 1.3-0.1c0.4 0 0.7 0 1-0.1s0.5-0.2 0.7-0.4c0.1-0.2 0.2-0.5 0.2-1c0-0.2 0-0.4-0.1-0.5 s-0.2-0.2-0.4-0.3c-0.1-0.1-0.3-0.1-0.5-0.2c-0.2 0-0.4 0-0.5 0c-0.3 0-0.5 0-0.8 0.1s-0.5 0.1-0.7 0.3c-0.2 0.1-0.4 0.3-0.5 0.5 s-0.2 0.5-0.3 0.8h-0.9C166.3 47.2 166.3 46.8 166.6 46.5z M170.6 48.8c-0.1 0.1-0.2 0.2-0.3 0.2c-0.1 0.1-0.3 0.1-0.4 0.1 c-0.1 0-0.3 0-0.5 0.1c-0.2 0-0.3 0-0.4 0c-0.3 0-0.6 0-0.9 0.1c-0.3 0-0.6 0.1-0.9 0.2c-0.3 0.1-0.5 0.3-0.7 0.5s-0.3 0.5-0.3 0.9 c0 0.2 0 0.4 0.1 0.6c0.1 0.2 0.2 0.3 0.4 0.4c0.2 0.1 0.3 0.2 0.5 0.2s0.4 0.1 0.6 0.1c0.7 0 1.3-0.2 1.7-0.6 c0.4-0.4 0.7-0.9 0.9-1.5L170.6 48.8L170.6 48.8z"/>
  <path fill="#F9F9F9" d="M181.3 55.3l0.9-3.9l0 0c-0.3 0.4-0.6 0.8-1 1.1s-0.9 0.4-1.5 0.4c-0.5 0-0.9-0.1-1.2-0.2 c-0.3-0.1-0.6-0.4-0.9-0.6c-0.2-0.3-0.4-0.6-0.5-1s-0.2-0.8-0.2-1.2c0-0.6 0.1-1.1 0.3-1.7c0.2-0.6 0.4-1 0.7-1.5 c0.3-0.4 0.7-0.8 1.2-1.1s1-0.4 1.6-0.4s1.1 0.1 1.6 0.4c0.4 0.3 0.7 0.7 0.9 1.2l0 0l0.3-1.4h0.8l-2.1 9.9 C182.2 55.3 181.3 55.3 181.3 55.3z M179.3 46.3c-0.4 0.2-0.7 0.6-1 0.9c-0.3 0.4-0.5 0.8-0.6 1.3s-0.2 0.9-0.2 1.4 c0 0.7 0.2 1.2 0.5 1.6c0.3 0.4 0.9 0.6 1.6 0.6c0.5 0 0.9-0.1 1.3-0.4c0.4-0.3 0.7-0.6 0.9-1s0.4-0.8 0.6-1.3 c0.1-0.5 0.2-0.9 0.2-1.3c0-0.3 0-0.6-0.1-0.9c-0.1-0.3-0.2-0.5-0.4-0.7s-0.4-0.4-0.6-0.5c-0.2-0.1-0.5-0.2-0.9-0.2 C180.3 46 179.8 46.1 179.3 46.3z"/>
  <path fill="#F9F9F9" d="M189.3 52.7l0.3-1.3l0 0c-0.3 0.4-0.6 0.8-1.1 1.1s-1 0.4-1.5 0.4c-0.3 0-0.6 0-0.9-0.1s-0.5-0.2-0.7-0.3 c-0.2-0.2-0.3-0.4-0.5-0.6c-0.1-0.2-0.2-0.5-0.2-0.9c0-0.2 0-0.5 0.1-0.9l1-4.6h0.9l-1 4.7c0 0.1-0.1 0.2-0.1 0.4 c0 0.1 0 0.2 0 0.4s0 0.4 0.1 0.6s0.2 0.3 0.3 0.4s0.3 0.2 0.5 0.2s0.4 0.1 0.6 0.1c0.3 0 0.6-0.1 0.9-0.2c0.3-0.1 0.6-0.3 0.8-0.6 s0.5-0.6 0.7-0.9c0.2-0.4 0.3-0.8 0.4-1.2l0.8-3.7h0.9l-1.6 7.2h-0.7V52.7L189.3 52.7z"/>
  <path fill="#F9F9F9" d="M193.1 49.8c0 0.3 0 0.6 0.1 0.9c0.1 0.3 0.2 0.5 0.4 0.7s0.4 0.4 0.7 0.5s0.6 0.2 0.9 0.2 c0.6 0 1.1-0.2 1.5-0.5s0.7-0.8 0.9-1.3h0.9c-0.2 0.8-0.6 1.4-1.2 1.9c-0.5 0.4-1.2 0.6-2.1 0.6c-1 0-1.7-0.3-2.2-0.8 s-0.7-1.3-0.7-2.2c0-0.6 0.1-1.1 0.3-1.7s0.4-1 0.8-1.5s0.7-0.8 1.2-1c0.5-0.3 1-0.4 1.7-0.4c0.4 0 0.8 0.1 1.2 0.2 c0.3 0.1 0.6 0.3 0.9 0.6c0.2 0.2 0.4 0.5 0.5 0.9c0.1 0.3 0.2 0.7 0.2 1.1c0 0.2 0 0.4 0 0.6c0 0.2 0 0.4-0.1 0.6h-5.7 C193.1 49.5 193.1 49.6 193.1 49.8z M197.9 48.3c0-0.1 0-0.2 0-0.3c0-0.6-0.2-1.1-0.5-1.5c-0.4-0.4-0.8-0.5-1.4-0.5 c-0.4 0-0.7 0.1-1 0.2c-0.3 0.1-0.6 0.3-0.8 0.6c-0.2 0.2-0.4 0.5-0.6 0.8c-0.2 0.3-0.3 0.6-0.3 1h4.7 C197.9 48.4 197.9 48.3 197.9 48.3z"/>
  <path fill="#F9F9F9" d="M200.3 51.2c0.1 0.2 0.3 0.4 0.5 0.6c0.2 0.1 0.4 0.2 0.7 0.3c0.2 0.1 0.5 0.1 0.7 0.1s0.4 0 0.6-0.1 c0.2-0.1 0.4-0.1 0.6-0.2c0.2-0.1 0.3-0.2 0.4-0.4c0.1-0.2 0.2-0.4 0.2-0.6c0-0.2-0.1-0.4-0.2-0.6c-0.1-0.2-0.3-0.3-0.4-0.4 c-0.2-0.1-0.4-0.2-0.6-0.3c-0.2-0.1-0.5-0.2-0.7-0.3s-0.5-0.2-0.7-0.3s-0.4-0.2-0.6-0.4s-0.3-0.3-0.4-0.5c-0.1-0.2-0.2-0.5-0.2-0.8 c0-0.4 0.1-0.7 0.3-0.9s0.4-0.5 0.6-0.6c0.3-0.2 0.6-0.3 0.9-0.4c0.3-0.1 0.6-0.1 0.9-0.1c0.4 0 0.7 0 1 0.1s0.6 0.2 0.8 0.4 s0.4 0.4 0.5 0.7s0.2 0.7 0.2 1.1h-0.9c0-0.3 0-0.5-0.1-0.7s-0.2-0.4-0.4-0.5s-0.3-0.2-0.6-0.3s-0.4-0.1-0.7-0.1 c-0.2 0-0.4 0-0.6 0.1c-0.2 0.1-0.4 0.1-0.6 0.2c-0.2 0.1-0.3 0.2-0.4 0.4c-0.1 0.2-0.2 0.4-0.2 0.6c0 0.2 0 0.3 0.1 0.4 s0.2 0.2 0.3 0.3s0.3 0.2 0.5 0.3s0.4 0.2 0.6 0.3c0.3 0.1 0.5 0.2 0.8 0.3s0.5 0.2 0.8 0.4c0.2 0.2 0.4 0.3 0.6 0.6 c0.2 0.2 0.2 0.5 0.2 0.8c0 0.4-0.1 0.8-0.3 1c-0.2 0.3-0.4 0.5-0.7 0.7s-0.6 0.3-0.9 0.4c-0.3 0.1-0.7 0.1-1 0.1 c-0.4 0-0.7 0-1-0.1s-0.6-0.2-0.9-0.4s-0.5-0.5-0.6-0.8s-0.2-0.7-0.2-1.2h0.9C200.1 50.7 200.3 51 200.3 51.2z"/>
  <path fill="#F9F9F9" d="M207.9 45.4l0.5-2.2h0.9l-0.5 2.2h1.4l-0.1 0.7h-1.5l-1 4.6c0 0.2-0.1 0.3-0.1 0.4s0 0.2 0 0.3 s0 0.2 0.1 0.4c0.1 0.1 0.2 0.2 0.4 0.2c0.3 0 0.7 0 1-0.1l-0.2 0.8c-0.1 0-0.3 0-0.4 0s-0.3 0-0.4 0c-0.2 0-0.3 0-0.5 0 s-0.3-0.1-0.4-0.1c-0.1-0.1-0.2-0.2-0.3-0.3s-0.1-0.3-0.1-0.5c0-0.1 0-0.2 0-0.3s0-0.3 0.1-0.4l1-4.8h-1.3l0.2-0.7h1.2 C207.9 45.6 207.9 45.4 207.9 45.4z"/>
  <path fill="#F9F9F9" d="M212.4 45.4l-1.6 7.2h-0.9l1.5-7.2H212.4z M213.1 42.7l-0.3 1.4h-0.9l0.3-1.4H213.1z"/>
  <path fill="#F9F9F9" d="M218.1 45.4c0.4 0.1 0.7 0.3 0.9 0.6c0.3 0.2 0.4 0.5 0.6 0.9c0.1 0.3 0.2 0.7 0.2 1.2 c0 0.6-0.1 1.2-0.3 1.8s-0.4 1.1-0.7 1.5s-0.7 0.8-1.2 1.1s-1.1 0.4-1.8 0.4c-0.9 0-1.6-0.3-2.1-0.8s-0.7-1.3-0.7-2.2 c0-0.6 0.1-1.2 0.3-1.7c0.2-0.6 0.4-1.1 0.8-1.5c0.3-0.4 0.8-0.8 1.3-1c0.5-0.3 1.1-0.4 1.7-0.4C217.4 45.2 217.8 45.3 218.1 45.4z M217.3 51.8c0.4-0.2 0.7-0.6 0.9-0.9s0.4-0.8 0.6-1.3c0.1-0.5 0.2-0.9 0.2-1.3c0-0.7-0.2-1.2-0.5-1.6c-0.4-0.4-0.9-0.6-1.6-0.6 c-0.5 0-0.9 0.1-1.3 0.4c-0.4 0.2-0.7 0.5-0.9 0.9c-0.3 0.4-0.4 0.8-0.6 1.2c-0.1 0.5-0.2 0.9-0.2 1.3c0 0.7 0.2 1.3 0.5 1.7 c0.4 0.4 0.9 0.7 1.6 0.7C216.4 52.1 216.9 52 217.3 51.8z"/>
  <path fill="#F9F9F9" d="M222.8 45.4l-0.3 1.3l0 0c0.3-0.4 0.6-0.8 1.1-1.1s0.9-0.4 1.5-0.4c0.3 0 0.6 0 0.9 0.1 c0.3 0.1 0.5 0.2 0.7 0.3c0.2 0.2 0.3 0.4 0.5 0.6c0.2 0.2 0.2 0.5 0.2 0.9c0 0.2 0 0.5-0.1 0.9l-1 4.6h-0.9l1-4.7 c0-0.1 0.1-0.2 0.1-0.4s0-0.2 0-0.4s0-0.4-0.1-0.6c-0.1-0.2-0.2-0.3-0.3-0.4c-0.1-0.1-0.3-0.2-0.5-0.2s-0.4-0.1-0.6-0.1 c-0.3 0-0.6 0.1-0.9 0.2c-0.3 0.1-0.6 0.3-0.8 0.6c-0.3 0.3-0.5 0.6-0.7 0.9c-0.2 0.4-0.3 0.8-0.4 1.2l-0.8 3.7h-0.9l1.5-7.2h0.8 V45.4L222.8 45.4z"/>
</g>
<rect x="82.7" y="84.1" fill="#F9F9F9" width="199.7" height="25.7"/>
<g>
  <path fill="#231F20" d="M91.9 91l0.5 8.9l0 0l4.3-8.9h1.1l0.7 8.8l0 0l4.1-8.8h1l-4.8 10h-1l-0.7-9.1l0 0l-4.4 9.1h-1l-0.7-10H91.9 z"/>
  <path fill="#231F20" d="M103.2 94.9c0.2-0.3 0.4-0.5 0.7-0.7c0.3-0.2 0.6-0.3 0.9-0.4s0.7-0.1 1.1-0.1c0.2 0 0.5 0 0.8 0.1 c0.3 0 0.6 0.1 0.8 0.3c0.3 0.1 0.5 0.3 0.6 0.5c0.1 0.2 0.3 0.5 0.3 0.8c0 0.2 0 0.4 0 0.6s-0.1 0.4-0.1 0.7 c0 0.2-0.1 0.4-0.1 0.6c-0.1 0.2-0.1 0.4-0.1 0.6c-0.1 0.4-0.2 0.7-0.2 1c-0.1 0.3-0.1 0.5-0.1 0.7s-0.1 0.3-0.1 0.4s0 0.2 0 0.3 s0.1 0.2 0.2 0.2c0.1 0 0.2 0 0.3 0s0.1 0 0.2 0c0.1 0 0.1 0 0.2 0l-0.1 0.7c-0.2 0-0.5 0.1-0.7 0.1c-0.5 0-0.8-0.3-0.8-0.8 c0-0.1 0-0.1 0-0.2s0-0.1 0-0.2l0 0c-0.3 0.4-0.6 0.7-1.1 1c-0.5 0.2-0.9 0.3-1.4 0.3c-0.3 0-0.6 0-0.9-0.1s-0.5-0.2-0.7-0.3 c-0.2-0.2-0.4-0.4-0.5-0.6c-0.1-0.3-0.2-0.6-0.2-0.9c0-0.4 0.1-0.7 0.2-1c0.1-0.3 0.3-0.5 0.6-0.6s0.5-0.3 0.8-0.4s0.6-0.2 0.9-0.2 c0.5-0.1 0.9-0.1 1.3-0.1c0.4 0 0.7 0 1-0.1s0.5-0.2 0.7-0.4c0.1-0.2 0.2-0.5 0.2-1c0-0.2 0-0.4-0.1-0.5c-0.1-0.1-0.2-0.2-0.4-0.3 c-0.1-0.1-0.3-0.1-0.5-0.2c-0.2 0-0.4 0-0.5 0c-0.3 0-0.5 0-0.8 0.1s-0.5 0.1-0.7 0.3c-0.2 0.1-0.4 0.3-0.5 0.5 c-0.1 0.2-0.2 0.5-0.3 0.8h-0.9C102.9 95.5 103.1 95.2 103.2 94.9z M107.2 97.1c-0.1 0.1-0.2 0.2-0.3 0.2c-0.1 0.1-0.3 0.1-0.4 0.1 c-0.1 0-0.3 0-0.5 0.1c-0.2 0-0.3 0-0.4 0c-0.3 0-0.6 0-0.9 0.1c-0.3 0-0.6 0.1-0.9 0.2s-0.5 0.3-0.7 0.5s-0.3 0.5-0.3 0.9 c0 0.2 0 0.4 0.1 0.6c0.1 0.2 0.2 0.3 0.4 0.4c0.2 0.1 0.3 0.2 0.5 0.2s0.4 0.1 0.6 0.1c0.7 0 1.3-0.2 1.7-0.6s0.7-0.9 0.9-1.5 L107.2 97.1L107.2 97.1z"/>
  <path fill="#231F20" d="M111.2 93.8l0.5-2.2h0.9l-0.5 2.2h1.4l-0.1 0.7h-1.5l-1 4.6c0 0.2-0.1 0.3-0.1 0.4s0 0.2 0 0.3 s0 0.2 0.1 0.4c0.1 0.1 0.2 0.2 0.4 0.2c0.3 0 0.7 0 1-0.1l-0.2 0.8c-0.1 0-0.3 0-0.4 0c-0.1 0-0.3 0-0.4 0c-0.2 0-0.3 0-0.5 0 s-0.3-0.1-0.4-0.1c-0.1-0.1-0.2-0.2-0.3-0.3c-0.1-0.1-0.1-0.3-0.1-0.5c0-0.1 0-0.2 0-0.3s0-0.3 0.1-0.4l1-4.8h-1.4l0.2-0.7h1.3 V93.8z"/>
  <path fill="#231F20" d="M114.6 99.5c0.1 0.2 0.3 0.4 0.5 0.6c0.2 0.1 0.4 0.2 0.7 0.3c0.2 0.1 0.5 0.1 0.7 0.1s0.4 0 0.6-0.1 s0.4-0.1 0.6-0.2s0.3-0.2 0.4-0.4c0.1-0.2 0.2-0.4 0.2-0.6s-0.1-0.4-0.2-0.6c-0.1-0.2-0.3-0.3-0.4-0.4c-0.2-0.1-0.4-0.2-0.6-0.3 c-0.2-0.1-0.5-0.2-0.7-0.3s-0.5-0.2-0.7-0.3c-0.2-0.1-0.4-0.2-0.6-0.4c-0.2-0.2-0.3-0.3-0.4-0.5c-0.1-0.2-0.2-0.5-0.2-0.8 c0-0.4 0.1-0.7 0.3-0.9c0.2-0.2 0.4-0.5 0.6-0.6c0.3-0.2 0.6-0.3 0.9-0.4s0.6-0.1 0.9-0.1c0.4 0 0.7 0 1 0.1s0.6 0.2 0.8 0.4 c0.2 0.2 0.4 0.4 0.5 0.7c0.1 0.3 0.2 0.7 0.2 1.1h-0.9c0-0.3 0-0.5-0.1-0.7c-0.1-0.2-0.2-0.4-0.4-0.5c-0.2-0.1-0.3-0.2-0.6-0.3 c-0.3-0.1-0.4-0.1-0.7-0.1c-0.2 0-0.4 0-0.6 0.1s-0.4 0.1-0.6 0.2s-0.3 0.2-0.4 0.4c-0.1 0.2-0.2 0.4-0.2 0.6s0 0.3 0.1 0.4 c0.1 0.1 0.2 0.2 0.3 0.3c0.1 0.1 0.3 0.2 0.5 0.3c0.2 0.1 0.4 0.2 0.6 0.3c0.3 0.1 0.5 0.2 0.8 0.3c0.3 0.1 0.5 0.2 0.8 0.4 c0.2 0.2 0.4 0.3 0.6 0.6c0.2 0.2 0.2 0.5 0.2 0.8c0 0.4-0.1 0.8-0.3 1c-0.2 0.3-0.4 0.5-0.7 0.7c-0.3 0.2-0.6 0.3-0.9 0.4 s-0.7 0.1-1 0.1c-0.4 0-0.7 0-1-0.1s-0.6-0.2-0.9-0.4c-0.3-0.2-0.5-0.5-0.6-0.8c-0.1-0.3-0.2-0.7-0.2-1.2h0.9 C114.4 99 114.4 99.3 114.6 99.5z"/>
  <path fill="#231F20" d="M125.6 93.8c0.4 0.1 0.7 0.3 0.9 0.6c0.3 0.2 0.4 0.5 0.6 0.9c0.1 0.3 0.2 0.7 0.2 1.2 c0 0.6-0.1 1.2-0.3 1.8c-0.2 0.6-0.4 1.1-0.7 1.5c-0.3 0.4-0.7 0.8-1.2 1.1s-1.1 0.4-1.8 0.4c-0.9 0-1.6-0.3-2.1-0.8 s-0.7-1.3-0.7-2.2c0-0.6 0.1-1.2 0.3-1.7c0.2-0.6 0.4-1.1 0.8-1.5c0.3-0.4 0.8-0.8 1.3-1c0.5-0.3 1.1-0.4 1.7-0.4 C124.9 93.6 125.2 93.6 125.6 93.8z M124.8 100.1c0.4-0.2 0.7-0.6 0.9-0.9c0.2-0.3 0.4-0.8 0.6-1.3c0.1-0.5 0.2-0.9 0.2-1.3 c0-0.7-0.2-1.2-0.5-1.6c-0.4-0.4-0.9-0.6-1.6-0.6c-0.5 0-0.9 0.1-1.3 0.4c-0.4 0.2-0.7 0.5-0.9 0.9c-0.3 0.4-0.4 0.8-0.6 1.2 c-0.1 0.5-0.2 0.9-0.2 1.3c0 0.7 0.2 1.3 0.5 1.7c0.4 0.4 0.9 0.7 1.6 0.7C123.9 100.5 124.4 100.4 124.8 100.1z"/>
  <path fill="#231F20" d="M130.1 93.8l-0.3 1.3l0 0c0.3-0.4 0.6-0.8 1.1-1.1s0.9-0.4 1.5-0.4c0.3 0 0.6 0 0.9 0.1s0.5 0.2 0.7 0.3 c0.2 0.2 0.3 0.4 0.5 0.6s0.2 0.5 0.2 0.9c0 0.2 0 0.5-0.1 0.9l-1 4.6h-0.9l1-4.7c0-0.1 0.1-0.2 0.1-0.4s0-0.2 0-0.4s0-0.4-0.1-0.6 s-0.2-0.3-0.3-0.4s-0.3-0.2-0.5-0.2s-0.4-0.1-0.6-0.1c-0.3 0-0.6 0.1-0.9 0.2c-0.3 0.1-0.6 0.3-0.8 0.6c-0.3 0.3-0.5 0.6-0.7 0.9 c-0.2 0.4-0.3 0.8-0.4 1.2l-0.8 3.7h-0.9l1.5-7.2h0.8V93.8z"/>
  <path fill="#231F20" d="M141.6 93.8l-0.4 1.7l0 0c0.3-0.5 0.6-0.9 1-1.3c0.4-0.3 0.9-0.5 1.6-0.5h0.2h0.1h0.1l-0.2 0.9 c-0.1 0-0.2 0-0.3 0s-0.2 0-0.3 0c-0.4 0-0.7 0.1-1 0.2s-0.6 0.3-0.8 0.6c-0.2 0.2-0.4 0.5-0.6 0.8c-0.2 0.3-0.3 0.6-0.3 1 l-0.8 3.8H139l1.5-7.2H141.6z"/>
  <path fill="#231F20" d="M144.8 98.2c0 0.3 0 0.6 0.1 0.9s0.2 0.5 0.4 0.7s0.4 0.4 0.7 0.5s0.6 0.2 0.9 0.2c0.6 0 1.1-0.2 1.5-0.5 s0.7-0.8 0.9-1.3h0.9c-0.2 0.8-0.6 1.4-1.2 1.9c-0.5 0.4-1.2 0.6-2.1 0.6c-1 0-1.7-0.3-2.2-0.8s-0.7-1.3-0.7-2.2 c0-0.6 0.1-1.1 0.3-1.7s0.4-1 0.8-1.5c0.4-0.5 0.7-0.8 1.2-1c0.5-0.3 1-0.4 1.7-0.4c0.4 0 0.8 0.1 1.2 0.2c0.3 0.1 0.6 0.3 0.9 0.6 c0.2 0.2 0.4 0.5 0.5 0.9c0.1 0.3 0.2 0.7 0.2 1.1c0 0.2 0 0.4 0 0.6s0 0.4-0.1 0.6h-5.7C144.8 97.8 144.8 98 144.8 98.2z M149.6 96.6c0-0.1 0-0.2 0-0.3c0-0.6-0.2-1.1-0.5-1.5c-0.4-0.4-0.8-0.5-1.4-0.5c-0.4 0-0.7 0.1-1 0.2s-0.6 0.3-0.8 0.6 c-0.2 0.2-0.4 0.5-0.6 0.8c-0.2 0.3-0.3 0.6-0.3 1h4.7C149.6 96.8 149.6 96.7 149.6 96.6z"/>
  <path fill="#231F20" d="M156.8 95.3c-0.1-0.2-0.2-0.4-0.4-0.5s-0.3-0.3-0.6-0.3c-0.2-0.1-0.5-0.1-0.7-0.1c-0.5 0-1 0.1-1.4 0.4 c-0.4 0.2-0.7 0.5-1 0.9s-0.5 0.8-0.6 1.3s-0.2 0.9-0.2 1.4c0 0.3 0 0.6 0.1 0.9s0.2 0.5 0.4 0.7s0.4 0.4 0.6 0.5 c0.3 0.1 0.6 0.2 0.9 0.2c0.6 0 1.1-0.2 1.5-0.5s0.7-0.8 0.9-1.3h0.9c-0.3 0.8-0.7 1.5-1.2 1.9c-0.6 0.4-1.3 0.6-2.1 0.6 c-0.9 0-1.6-0.3-2.1-0.8s-0.7-1.3-0.7-2.2c0-0.6 0.1-1.1 0.3-1.7s0.4-1.1 0.8-1.5c0.3-0.4 0.7-0.8 1.2-1.1s1-0.4 1.7-0.4 c0.4 0 0.8 0 1.1 0.1s0.6 0.2 0.9 0.5c0.2 0.2 0.4 0.5 0.6 0.8c0.1 0.3 0.2 0.7 0.2 1.1h-1C156.8 95.8 156.8 95.5 156.8 95.3z"/>
  <path fill="#231F20" d="M163.4 93.8c0.4 0.1 0.7 0.3 0.9 0.6c0.3 0.2 0.4 0.5 0.6 0.9c0.1 0.3 0.2 0.7 0.2 1.2 c0 0.6-0.1 1.2-0.3 1.8s-0.4 1.1-0.7 1.5s-0.7 0.8-1.2 1.1s-1.1 0.4-1.8 0.4c-0.9 0-1.6-0.3-2.1-0.8s-0.7-1.3-0.7-2.2 c0-0.6 0.1-1.2 0.3-1.7c0.2-0.6 0.4-1.1 0.8-1.5c0.3-0.4 0.8-0.8 1.3-1c0.5-0.3 1.1-0.4 1.7-0.4C162.8 93.6 163.1 93.6 163.4 93.8z M162.8 100.1c0.4-0.2 0.7-0.6 0.9-0.9s0.4-0.8 0.6-1.3c0.1-0.5 0.2-0.9 0.2-1.3c0-0.7-0.2-1.2-0.5-1.6c-0.4-0.4-0.9-0.6-1.6-0.6 c-0.5 0-0.9 0.1-1.3 0.4c-0.4 0.2-0.7 0.5-0.9 0.9c-0.3 0.4-0.4 0.8-0.6 1.2c-0.1 0.5-0.2 0.9-0.2 1.3c0 0.7 0.2 1.3 0.5 1.7 c0.4 0.4 0.9 0.7 1.6 0.7C161.8 100.5 162.3 100.4 162.8 100.1z"/>
  <path fill="#231F20" d="M168.1 93.8l-0.3 1.3l0 0c0.3-0.4 0.6-0.8 1.1-1.1c0.4-0.3 0.9-0.4 1.5-0.4c0.5 0 0.9 0.1 1.2 0.4 s0.5 0.6 0.5 1.2l0 0c0.3-0.4 0.6-0.8 1.1-1.1c0.4-0.3 0.9-0.4 1.5-0.4c0.7 0 1.2 0.2 1.5 0.5c0.3 0.4 0.5 0.8 0.5 1.4 c0 0.1 0 0.3 0 0.4s0 0.3-0.1 0.4l-1 4.7h-0.9l1-4.7c0.1-0.3 0.1-0.5 0.1-0.7c0-0.4-0.1-0.6-0.3-0.9c-0.2-0.2-0.6-0.4-1-0.4 s-0.7 0.1-1 0.3s-0.5 0.4-0.7 0.7s-0.4 0.7-0.5 1.1s-0.3 0.8-0.4 1.3l-0.7 3.3h-0.9l1-4.7c0.1-0.2 0.1-0.5 0.1-0.7 c0-0.4-0.1-0.7-0.3-0.9c-0.2-0.3-0.5-0.4-0.9-0.4c-0.3 0-0.6 0.1-0.9 0.2c-0.3 0.2-0.6 0.4-0.8 0.6c-0.2 0.3-0.4 0.6-0.6 1 s-0.3 0.8-0.4 1.2l-0.8 3.7h-0.9l1.5-7.2h0.8L168.1 93.8L168.1 93.8z"/>
  <path fill="#231F20" d="M179.8 93.8l-0.3 1.3l0 0c0.3-0.4 0.6-0.8 1.1-1.1c0.4-0.3 0.9-0.4 1.5-0.4c0.5 0 0.9 0.1 1.2 0.4 s0.5 0.6 0.5 1.2l0 0c0.3-0.4 0.6-0.8 1.1-1.1c0.4-0.3 0.9-0.4 1.5-0.4c0.7 0 1.2 0.2 1.5 0.5c0.3 0.4 0.5 0.8 0.5 1.4 c0 0.1 0 0.3 0 0.4s0 0.3-0.1 0.4l-1 4.7h-0.9l1-4.7c0.1-0.3 0.1-0.5 0.1-0.7c0-0.4-0.1-0.6-0.3-0.9c-0.2-0.2-0.6-0.4-1-0.4 s-0.7 0.1-1 0.3s-0.5 0.4-0.7 0.7s-0.4 0.7-0.5 1.1s-0.3 0.8-0.4 1.3l-0.7 3.3h-1l1-4.7c0.1-0.2 0.1-0.5 0.1-0.7 c0-0.4-0.1-0.7-0.3-0.9c-0.2-0.3-0.5-0.4-0.9-0.4c-0.3 0-0.6 0.1-0.9 0.2c-0.3 0.2-0.6 0.4-0.8 0.6c-0.2 0.3-0.4 0.6-0.6 1 s-0.3 0.8-0.4 1.2l-0.8 3.7h-0.9l1.5-7.2h0.8L179.8 93.8C179.8 93.8 179.8 93.8 179.8 93.8z"/>
  <path fill="#231F20" d="M190.3 98.2c0 0.3 0 0.6 0.1 0.9s0.2 0.5 0.4 0.7s0.4 0.4 0.7 0.5s0.6 0.2 0.9 0.2c0.6 0 1.1-0.2 1.5-0.5 s0.7-0.8 0.9-1.3h0.9c-0.2 0.8-0.6 1.4-1.2 1.9c-0.5 0.4-1.2 0.6-2.1 0.6c-1 0-1.7-0.3-2.2-0.8s-0.7-1.3-0.7-2.2 c0-0.6 0.1-1.1 0.3-1.7s0.4-1 0.8-1.5c0.4-0.5 0.7-0.8 1.2-1c0.5-0.3 1-0.4 1.7-0.4c0.4 0 0.8 0.1 1.2 0.2c0.3 0.1 0.6 0.3 0.9 0.6 c0.2 0.2 0.4 0.5 0.5 0.9c0.1 0.3 0.2 0.7 0.2 1.1c0 0.2 0 0.4 0 0.6s0 0.4-0.1 0.6h-5.7C190.3 97.8 190.3 98 190.3 98.2z M195.1 96.6c0-0.1 0-0.2 0-0.3c0-0.6-0.2-1.1-0.5-1.5c-0.4-0.4-0.8-0.5-1.4-0.5c-0.4 0-0.7 0.1-1 0.2s-0.6 0.3-0.8 0.6 c-0.2 0.2-0.4 0.5-0.6 0.8s-0.3 0.6-0.3 1h4.7C195.1 96.8 195.1 96.7 195.1 96.6z"/>
  <path fill="#231F20" d="M198.8 93.8l-0.3 1.3l0 0c0.3-0.4 0.6-0.8 1.1-1.1s0.9-0.4 1.5-0.4c0.3 0 0.6 0 0.9 0.1s0.5 0.2 0.7 0.3 c0.2 0.2 0.3 0.4 0.5 0.6s0.2 0.5 0.2 0.9c0 0.2 0 0.5-0.1 0.9l-1 4.6h-0.9l1-4.7c0-0.1 0.1-0.2 0.1-0.4s0-0.2 0-0.4s0-0.4-0.1-0.6 s-0.2-0.3-0.3-0.4s-0.3-0.2-0.5-0.2s-0.4-0.1-0.6-0.1c-0.3 0-0.6 0.1-0.9 0.2c-0.3 0.1-0.6 0.3-0.8 0.6c-0.3 0.3-0.5 0.6-0.7 0.9 c-0.2 0.4-0.3 0.8-0.4 1.2l-0.8 3.7h-0.9l1.5-7.2h0.8V93.8L198.8 93.8z"/>
  <path fill="#231F20" d="M209.3 101l0.3-1.3l0 0c-0.3 0.5-0.7 0.8-1.1 1.1s-0.9 0.4-1.6 0.4c-0.9 0-1.6-0.3-2.1-0.8 s-0.7-1.2-0.7-2.1c0-0.6 0.1-1.1 0.3-1.7s0.4-1.1 0.8-1.5c0.3-0.4 0.8-0.8 1.2-1.1c0.5-0.3 1-0.4 1.6-0.4s1.1 0.1 1.5 0.4 s0.7 0.6 0.9 1.2l0 0l0.9-4.1h0.9l-2.1 10L209.3 101L209.3 101z M208.3 100.1c0.4-0.3 0.7-0.6 1-1s0.5-0.8 0.6-1.3s0.2-0.9 0.2-1.4 c0-0.6-0.2-1.2-0.5-1.5c-0.4-0.4-0.8-0.6-1.5-0.6c-0.5 0-1 0.1-1.3 0.4c-0.4 0.3-0.7 0.6-1 1s-0.5 0.8-0.6 1.3s-0.2 0.9-0.2 1.4 c0 0.6 0.2 1.1 0.5 1.5s0.8 0.6 1.5 0.6C207.6 100.5 207.9 100.4 208.3 100.1z"/>
  <path fill="#231F20" d="M213.1 99.5c0.1 0.2 0.3 0.4 0.5 0.6c0.2 0.1 0.4 0.2 0.7 0.3c0.2 0.1 0.5 0.1 0.7 0.1s0.4 0 0.6-0.1 c0.2-0.1 0.4-0.1 0.6-0.2c0.2-0.1 0.3-0.2 0.4-0.4c0.1-0.2 0.2-0.4 0.2-0.6s-0.1-0.4-0.2-0.6c-0.1-0.2-0.3-0.3-0.4-0.4 c-0.2-0.1-0.4-0.2-0.6-0.3c-0.2-0.1-0.5-0.2-0.7-0.3c-0.2-0.1-0.5-0.2-0.7-0.3c-0.2-0.1-0.4-0.2-0.6-0.4s-0.3-0.3-0.4-0.5 c-0.1-0.2-0.2-0.5-0.2-0.8c0-0.4 0.1-0.7 0.3-0.9c0.2-0.2 0.4-0.5 0.6-0.6c0.3-0.2 0.6-0.3 0.9-0.4c0.3-0.1 0.6-0.1 0.9-0.1 c0.4 0 0.7 0 1 0.1s0.6 0.2 0.8 0.4s0.4 0.4 0.5 0.7s0.2 0.7 0.2 1.1h-0.9c0-0.3 0-0.5-0.1-0.7s-0.2-0.4-0.4-0.5s-0.3-0.2-0.6-0.3 s-0.4-0.1-0.7-0.1c-0.2 0-0.4 0-0.6 0.1c-0.2 0.1-0.4 0.1-0.6 0.2c-0.2 0.1-0.3 0.2-0.4 0.4c-0.1 0.2-0.2 0.4-0.2 0.6 s0 0.3 0.1 0.4s0.2 0.2 0.3 0.3c0.1 0.1 0.3 0.2 0.5 0.3s0.4 0.2 0.6 0.3c0.3 0.1 0.5 0.2 0.8 0.3c0.3 0.1 0.5 0.2 0.8 0.4 c0.2 0.2 0.4 0.3 0.6 0.6c0.2 0.2 0.2 0.5 0.2 0.8c0 0.4-0.1 0.8-0.3 1c-0.2 0.3-0.4 0.5-0.7 0.7s-0.6 0.3-0.9 0.4 c-0.3 0.1-0.7 0.1-1 0.1c-0.4 0-0.7 0-1-0.1s-0.6-0.2-0.9-0.4s-0.5-0.5-0.6-0.8s-0.2-0.7-0.2-1.2h0.9 C212.8 99 212.9 99.3 213.1 99.5z"/>
  <path fill="#231F20" d="M219.3 99.5h1.2l-0.3 1.5H219L219.3 99.5z"/>
  <path fill="#231F20" d="M223.3 99.5h1.2l-0.3 1.5h-1.3L223.3 99.5z"/>
  <path fill="#231F20" d="M227.1 99.5h1.2L228 101h-1.2L227.1 99.5z"/>
</g>
<rect x="221.6" y="179.2" fill="#F9F9F9" width="129.7" height="34.7"/>
<rect x="221.6" y="217.8" fill="#F9F9F9" width="129.7" height="9.5"/>
<rect x="82.7" y="179.2" fill="#F9F9F9" width="129.7" height="34.7"/>
<rect x="82.7" y="217.8" fill="#F9F9F9" width="129.7" height="9.5"/>
<rect x="221.6" y="120.9" fill="#F9F9F9" width="129.7" height="34.7"/>
<rect x="221.6" y="159.4" fill="#F9F9F9" width="129.7" height="9.5"/>
<rect x="82.7" y="120.9" fill="#5A5A5B" width="129.7" height="34.7"/>
<rect x="221.6" y="236.4" fill="#F9F9F9" width="129.7" height="34.7"/>
<rect x="221.6" y="275" fill="#F9F9F9" width="129.7" height="9.5"/>
<rect x="82.7" y="236.4" fill="#F9F9F9" width="129.7" height="34.7"/>
<rect x="82.7" y="275" fill="#F9F9F9" width="129.7" height="9.5"/>
<rect x="82.7" y="159.4" fill="#5A5A5B" width="129.7" height="9.5"/>
<g>
  <circle fill="#07B5A0" cx="55.7" cy="47.1" r="19.5"/>
  <g>
    <path d="M58 54.2h-3v-9.5h-3.7v-2.2c2.1 0.1 4-0.7 4.3-2.9H58V54.2z"/>
  </g>
</g>
<g>
  <circle fill="#07B5A0" cx="55.4" cy="149.1" r="19.5"/>
  <g>
    <path d="M50.5 147.2c-0.1-3.4 1.8-5.9 5.3-5.9c2.7 0 5 1.7 5 4.6c0 4.5-4.7 4.8-6.9 7.8H61v2.6H50.2c0-3.4 2.1-4.8 4.6-6.6 c1.3-0.9 3.1-1.8 3.1-3.6c0-1.4-0.9-2.3-2.2-2.3c-1.8 0-2.3 1.8-2.3 3.4H50.5z"/>
  </g>
</g>
<g>
  <circle fill="#07B5A0" cx="414.4" cy="90.1" r="19.5"/>
  <g>
    <path d="M412.6 92.6c0 0.6 0.1 1.1 0.3 1.5c0.3 0.7 1 1.1 1.9 1.1c0.6 0 1.1-0.2 1.5-0.6s0.6-0.9 0.6-1.7c0-1-0.4-1.6-1.2-1.9 c-0.4-0.2-1.1-0.3-2.1-0.3v-2.1c0.9 0 1.6-0.1 2-0.3c0.6-0.3 1-0.9 1-1.7c0-0.6-0.2-1-0.5-1.4c-0.3-0.3-0.8-0.5-1.4-0.5 c-0.7 0-1.2 0.2-1.5 0.6s-0.5 1-0.5 1.7H410c0-0.7 0.2-1.4 0.4-2.1c0.2-0.6 0.6-1.1 1.1-1.6c0.4-0.3 0.8-0.6 1.3-0.8 s1.2-0.3 1.9-0.3c1.4 0 2.5 0.4 3.4 1.1s1.3 1.7 1.3 2.9c0 0.9-0.3 1.6-0.8 2.2c-0.3 0.4-0.7 0.6-1 0.8c0.3 0 0.6 0.2 1.1 0.7 c0.7 0.7 1.1 1.6 1.1 2.8c0 1.2-0.4 2.3-1.3 3.3c-0.9 0.9-2.1 1.4-3.8 1.4c-2.1 0-3.5-0.7-4.3-2c-0.4-0.7-0.7-1.7-0.7-2.8 C409.7 92.6 412.6 92.6 412.6 92.6z"/>
  </g>
</g>
</svg>
