<svg xmlns="http://www.w3.org/2000/svg" xmlns:xlink="http://www.w3.org/1999/xlink" version="1.1" id="Layer_1" x="0px" y="0px" width="502.6px" height="324px" viewBox="-36 0 502.6 324" enable-background="new -36 0 502.6 324" xml:space="preserve">
<g id="macbook" display="none">
  <g display="inline">
    <path fill="#3E3E3E" d="M-33.3 581.5h-213.5V313.2c0-8.1 6.5-14.6 14.6-14.6h199h188c8.1 0 14.6 6.5 14.6 14.6v268.3H-33.3z"/>
    <path fill="#E9E9E9" d="M224.1 581.5c0 12.1-9.6 21.9-21.5 21.9h-482.7c-11.9 0-21.5-9.8-21.5-21.9H224.1z"/>
    <path fill="#E9E9E9" d="M-32.3 302.4c1.9 0 3.4 1.5 3.4 3.4s-1.5 3.4-3.4 3.4c-1.9 0-3.4-1.5-3.4-3.4 C-35.8 303.9-34.2 302.4-32.3 302.4z"/>
    <path fill="#8AC9E4" d="M-235.9 566.9V313.2h394.3v253.7H-235.9z"/>
    <path fill="#B4B3B3" d="M-2.2 581.5c0 4-3.3 7.3-7.5 7.3h-58.1c-4.1 0-7.5-3.3-7.5-7.3H-2.2z"/>
  </g>
</g>
<g id="iPad" display="none">
</g>
<g id="iPhone" display="none">
</g>
<g id="WDA__x2F__WEX">
</g>
<g id="Network_Viz">
</g>
<g id="WEA">
</g>
<g id="Wealth_Management">
</g>
<g id="Principle_3">
</g>
<g id="Layer_1_1_">
</g>
<rect x="-36" y="-1.8" fill="#ECECEC" width="502.6" height="324"/>
<rect x="127.8" y="123.5" fill="#C7C7C7" width="256.8" height="198.7"/>
<rect x="25.8" y="123.5" fill="#C7C7C7" width="92.2" height="179.2"/>
<rect x="-36" y="13.4" fill="#C7C7C7" width="502.6" height="99.8"/>
<rect x="46.3" y="45.5" fill="#5A5A5B" width="102.1" height="12.6"/>
<rect x="163.6" y="45.5" fill="#5A5A5B" width="221" height="30.4"/>
<rect x="46.3" y="63.3" fill="#5A5A5B" width="71.8" height="12.6"/>
<rect x="137.1" y="138.1" fill="#5A5A5B" width="169.7" height="12.6"/>
<rect x="137.1" y="177.4" fill="#5A5A5B" width="129.7" height="34.7"/>
<rect x="137.1" y="218.7" fill="#5A5A5B" width="129.7" height="34.7"/>
<rect x="137.1" y="259.9" fill="#5A5A5B" width="129.7" height="34.7"/>
<rect x="146.7" y="187.1" fill="#E0E0E0" width="96.4" height="5.2"/>
<rect x="146.7" y="194.6" fill="#E0E0E0" width="57.2" height="5.2"/>
<rect x="146.7" y="228.4" fill="#E0E0E0" width="96.4" height="5.2"/>
<rect x="146.7" y="235.9" fill="#E0E0E0" width="57.2" height="5.2"/>
<rect x="146.7" y="269.6" fill="#E0E0E0" width="96.4" height="5.2"/>
<rect x="146.7" y="277.1" fill="#E0E0E0" width="57.2" height="5.2"/>
<rect x="-36.3" y="-1.8" fill="#959595" width="503.2" height="15.2"/>
<g>
  <circle fill="#07B5A0" cx="19.9" cy="60.7" r="19.5"/>
  <g>
    <path d="M22.2 67.8h-3v-9.5h-3.7v-2.2c2.1 0.1 4-0.7 4.3-2.9h2.4V67.8z"/>
  </g>
</g>
<g>
  <circle fill="#07B5A0" cx="110.8" cy="144.4" r="19.5"/>
  <g>
    <path d="M105.9 142.5c-0.1-3.4 1.8-5.9 5.3-5.9c2.7 0 5 1.7 5 4.6c0 4.5-4.7 4.8-6.9 7.8h7.1v2.6h-10.8c0-3.4 2.1-4.8 4.6-6.6 c1.3-0.9 3.1-1.8 3.1-3.6c0-1.4-0.9-2.3-2.2-2.3c-1.8 0-2.3 1.8-2.3 3.4H105.9z"/>
  </g>
</g>
<g>
  <circle fill="#07B5A0" cx="201.9" cy="236.1" r="19.5"/>
  <g>
    <path d="M200.2 238.6c0 0.6 0.1 1.1 0.3 1.5c0.3 0.7 1 1.1 1.9 1.1c0.6 0 1.1-0.2 1.5-0.6c0.4-0.4 0.6-0.9 0.6-1.7 c0-1-0.4-1.6-1.2-1.9c-0.4-0.2-1.1-0.3-2.1-0.3v-2.1c0.9 0 1.6-0.1 2-0.3c0.6-0.3 1-0.9 1-1.7c0-0.6-0.2-1-0.5-1.4 c-0.3-0.3-0.8-0.5-1.4-0.5c-0.7 0-1.2 0.2-1.5 0.6c-0.3 0.4-0.5 1-0.5 1.7h-2.7c0-0.7 0.2-1.4 0.4-2.1c0.2-0.6 0.6-1.1 1.1-1.6 c0.4-0.3 0.8-0.6 1.3-0.8c0.5-0.2 1.2-0.3 1.9-0.3c1.4 0 2.5 0.4 3.4 1.1s1.3 1.7 1.3 2.9c0 0.9-0.3 1.6-0.8 2.2 c-0.3 0.4-0.7 0.6-1 0.8c0.3 0 0.6 0.2 1.1 0.7c0.7 0.7 1.1 1.6 1.1 2.8s-0.4 2.3-1.3 3.3c-0.9 0.9-2.1 1.4-3.8 1.4 c-2.1 0-3.5-0.7-4.3-2c-0.4-0.7-0.7-1.7-0.7-2.8C197.3 238.6 200.2 238.6 200.2 238.6z"/>
  </g>
</g>
</svg>
