<?xml version="1.0" encoding="utf-8"?>
<!-- Generator: Adobe Illustrator 18.1.1, SVG Export Plug-In . SVG Version: 6.00 Build 0)  -->
<svg version="1.1" id="Layer_1" xmlns="http://www.w3.org/2000/svg" xmlns:xlink="http://www.w3.org/1999/xlink" x="0px" y="0px"
	 width="792px" height="491.3px" viewBox="0 61.7 792 491.3" enable-background="new 0 61.7 792 491.3" xml:space="preserve">
<rect y="61.7" fill="#ECECEC" width="792" height="491.3"/>
<g>
	<g>
		<rect x="23.8" y="84.8" fill="#959595" width="438.7" height="445.1"/>
		<rect x="469.5" y="84.8" fill="#959595" width="70.3" height="445.1"/>
		<rect x="548" y="84.8" fill="#959595" width="18.7" height="445.1"/>
		<rect x="575.4" y="84.8" fill="#959595" width="20.1" height="445.1"/>
		<rect x="603.3" y="84.8" fill="#959595" width="162.5" height="445.1"/>
	</g>
	<g id="golden_spiral">
		<g id="spiral">
			<path fill="#ECECEC" d="M484.7,529.5c-121.3,0-235.3-45.9-321.1-129.2C77.9,317,23.6,202.6,23.6,84.8h8
				c0,115.8,53.4,228.2,137.7,310s196.3,126.9,315.4,126.9c151.2,0,274.2-119.5,274.2-266.3c0-89.9-75.3-163.1-167.9-163.1
				c-56.4,0-102.3,44.6-102.3,99.3c0,33,27.7,59.9,61.7,59.9c20.2,0,36.6-15.9,36.6-35.5c0-11.3-9.5-20.5-21.1-20.5
				c-6.4,0-11.5,5-11.5,11.2c0,3,2.5,5.4,5.6,5.4c1.1,0,1.9-0.8,1.9-1.9h8c0,5.3-4.4,9.6-9.9,9.6c-7.5,0-13.6-5.9-13.6-13.2
				c0-10.4,8.7-18.9,19.5-18.9c16,0,29.1,12.7,29.1,28.2c0,23.9-20,43.3-44.6,43.3c-38.4,0-69.6-30.3-69.6-67.6
				c0-59,49.4-107.1,110.2-107.1c97,0,175.9,76.6,175.9,170.9C766.9,406.5,640.3,529.5,484.7,529.5z"/>
		</g>
	</g>
</g>
</svg>
