<?xml version="1.0" encoding="utf-8"?>
<!-- Generator: Adobe Illustrator 18.1.1, SVG Export Plug-In . SVG Version: 6.00 Build 0)  -->
<svg version="1.1" id="Layer_1" xmlns="http://www.w3.org/2000/svg" xmlns:xlink="http://www.w3.org/1999/xlink" x="0px" y="0px"
	 width="792px" height="491.3px" viewBox="0 61.7 792 491.3" enable-background="new 0 61.7 792 491.3" xml:space="preserve">
<rect x="0.3" y="61.7" fill="#ECECEC" width="791.7" height="491.3"/>
<g>
	<path fill="#777677" d="M462.8,282.3"/>
	<rect x="24.1" y="82.1" fill="#D3D3D3" width="151.2" height="445.2"/>
	<rect x="616.6" y="82.1" fill="#D3D3D3" width="149.2" height="445.2"/>
	<rect x="214.7" y="82.1" fill="#D3D3D3" width="40.7" height="445.2"/>
	<rect x="540.6" y="82.1" fill="#D3D3D3" width="40.7" height="445.2"/>
	<rect x="290.7" y="84" fill="#D3D3D3" width="85" height="445.2"/>
	<rect x="416.7" y="82.1" fill="#D3D3D3" width="85" height="445.2"/>
	<rect x="24.1" y="235.4" opacity="0.4" fill="#777677" width="231.3" height="143.9"/>
	<rect x="540.6" y="235.4" opacity="0.4" fill="#777677" width="225.2" height="143.9"/>
	<rect x="290.7" y="235.4" opacity="0.4" fill="#777677" width="211" height="143.9"/>
	<rect x="24.1" y="379.3" opacity="0.7" fill="#777677" width="151.2" height="149.9"/>
	<rect x="215.1" y="379.3" opacity="0.7" fill="#777677" width="160.6" height="149.9"/>
	<rect x="416.7" y="379.3" opacity="0.7" fill="#777677" width="164.6" height="149.9"/>
	<rect x="616.6" y="379.3" opacity="0.7" fill="#777677" width="150.2" height="149.9"/>
</g>
</svg>
