<svg xmlns="http://www.w3.org/2000/svg" xmlns:xlink="http://www.w3.org/1999/xlink" version="1.1" id="Layer_1" x="0px" y="0px" width="194.8px" height="25.5px" viewBox="0 0 194.8 25.5" enable-background="new 0 0 194.8 25.5" xml:space="preserve">
<g>
	<path fill="#F9F9FA" d="M0.2 9.3h1.1v11.8H0.2V9.3z"/>
	<path fill="#F9F9FA" d="M3.8 9.3h5c2 0 3.8 0.7 3.8 2.9c0 1.2-0.8 2.4-2.1 2.6v0c1.5 0.2 2.5 1.3 2.5 2.9c0 1.1-0.4 3.4-4.2 3.4h-5 V9.3z M4.9 14.5h3.9c1.8 0 2.7-0.9 2.7-2c0-1.5-0.9-2.2-2.7-2.2H4.9V14.5z M4.9 20.2h3.9c1.7 0 3.1-0.5 3.1-2.4 c0-1.5-1.1-2.3-3.1-2.3H4.9V20.2z"/>
	<path fill="#F9F9FA" d="M14.7 9.3h1.7l4.1 10.3l4.1-10.3h1.7v11.8h-1.1V10.9h0l-4 10.2H20l-4.1-10.2h0v10.2h-1.1V9.3z"/>
	<path fill="#F9F9FA" d="M43.5 21.1h-2.6l-2-8h0l-2 8h-2.6L31.2 9.3h2.6l1.9 8h0l2.1-8h2.4l2 8.1h0l1.9-8.1h2.5L43.5 21.1z"/>
	<path fill="#F9F9FA" d="M46.6 15.2c0.1-2.2 2.1-2.9 4-2.9c1.7 0 3.8 0.4 3.8 2.4v4.4c0 0.8 0.1 1.6 0.3 1.9h-2.4 c-0.1-0.3-0.1-0.5-0.2-0.8c-0.7 0.8-1.8 1.1-2.9 1.1c-1.6 0-2.9-0.8-2.9-2.6c0-3.9 5.8-1.8 5.7-3.7c0-1-0.7-1.2-1.5-1.2 c-0.9 0-1.5 0.4-1.6 1.3H46.6z M52 17c-0.4 0.3-1.2 0.4-2 0.5c-0.7 0.1-1.4 0.4-1.4 1.3c0 0.9 0.7 1.1 1.4 1.1c1.8 0 1.9-1.4 1.9-2 V17z"/>
	<path fill="#F9F9FA" d="M59 12.6h1.7v1.6H59v4.2c0 0.8 0.2 1 1 1c0.3 0 0.5 0 0.7-0.1v1.8c-0.4 0.1-0.9 0.1-1.4 0.1 c-1.5 0-2.7-0.3-2.7-2v-5h-1.4v-1.6h1.4V10H59V12.6z"/>
	<path fill="#F9F9FA" d="M63.7 18.4c0 1 0.9 1.4 1.8 1.4c0.7 0 1.5-0.3 1.5-1.1c0-0.7-1-1-2.7-1.3c-1.4-0.3-2.7-0.8-2.7-2.3 c0-2.2 1.9-2.7 3.7-2.7c1.9 0 3.6 0.6 3.8 2.7h-2.2c-0.1-0.9-0.8-1.2-1.6-1.2c-0.5 0-1.3 0.1-1.3 0.8c0 0.8 1.3 1 2.7 1.3 c1.4 0.3 2.7 0.8 2.7 2.4c0 2.2-2 3-3.9 3c-2 0-3.9-0.7-4-3H63.7z"/>
	<path fill="#F9F9FA" d="M74.5 12.4c2.7 0 4.4 1.8 4.4 4.5c0 2.7-1.7 4.5-4.4 4.5c-2.7 0-4.4-1.8-4.4-4.5 C70.1 14.1 71.9 12.4 74.5 12.4z M74.5 19.6c1.6 0 2.1-1.4 2.1-2.7c0-1.4-0.5-2.7-2.1-2.7c-1.6 0-2.1 1.4-2.1 2.7 C72.5 18.2 73 19.6 74.5 19.6z"/>
	<path fill="#F9F9FA" d="M80.2 12.6h2.2v1.2h0c0.6-1 1.6-1.4 2.6-1.4c2.5 0 3.1 1.4 3.1 3.5v5.3h-2.3v-4.8c0-1.4-0.4-2.1-1.5-2.1 c-1.3 0-1.8 0.7-1.8 2.4v4.5h-2.3V12.6z"/>
	<path fill="#F9F9FA" d="M93.9 9.3H99c3.1 0 5.4 1.9 5.4 5.8c0 3.4-1.8 6-5.4 6h-5.1V9.3z M96.5 19h2.3c1.5 0 2.9-0.9 2.9-3.5 c0-2.4-0.8-3.9-3.4-3.9h-1.9V19z"/>
	<path fill="#F9F9FA" d="M107.5 17.4c0.1 1.5 0.8 2.2 2.1 2.2c0.9 0 1.7-0.6 1.9-1.1h2.1c-0.7 2-2.1 2.9-4 2.9 c-2.7 0-4.4-1.9-4.4-4.5c0-2.6 1.8-4.5 4.4-4.5c2.9 0 4.3 2.4 4.1 5.1H107.5z M111.4 16c-0.2-1.2-0.7-1.8-1.9-1.8 c-1.5 0-1.9 1.2-2 1.8H111.4z"/>
	<path fill="#F9F9FA" d="M116.8 18.4c0 1 0.9 1.4 1.8 1.4c0.7 0 1.5-0.3 1.5-1.1c0-0.7-1-1-2.7-1.3c-1.4-0.3-2.7-0.8-2.7-2.3 c0-2.2 1.9-2.7 3.7-2.7c1.9 0 3.6 0.6 3.8 2.7H120c-0.1-0.9-0.8-1.2-1.6-1.2c-0.5 0-1.3 0.1-1.3 0.8c0 0.8 1.3 1 2.7 1.3 c1.4 0.3 2.7 0.8 2.7 2.4c0 2.2-2 3-3.9 3c-2 0-3.9-0.7-4-3H116.8z"/>
	<path fill="#F9F9FA" d="M126 11.3h-2.3V9.3h2.3V11.3z M123.6 12.6h2.3v8.5h-2.3V12.6z"/>
	<path fill="#F9F9FA" d="M135.7 20.6c0 1.4-0.5 3.8-4.4 3.8c-1.7 0-3.6-0.8-3.8-2.7h2.3c0.2 0.9 0.9 1.2 1.8 1.2 c1.3 0 1.9-0.9 1.9-2.1v-1.1h0c-0.5 0.9-1.5 1.3-2.6 1.3c-2.6 0-3.7-2-3.7-4.3c0-2.2 1.3-4.2 3.7-4.2c1.1 0 2 0.4 2.5 1.4h0v-1.1 h2.2V20.6z M133.5 16.8c0-1.4-0.5-2.6-2-2.6c-1.3 0-1.9 1.2-1.9 2.4c0 1.2 0.4 2.6 1.9 2.6C132.8 19.1 133.5 18 133.5 16.8z"/>
	<path fill="#F9F9FA" d="M137.2 12.6h2.2v1.2h0c0.6-1 1.6-1.4 2.6-1.4c2.5 0 3.1 1.4 3.1 3.5v5.3h-2.3v-4.8c0-1.4-0.4-2.1-1.5-2.1 c-1.3 0-1.8 0.7-1.8 2.4v4.5h-2.3V12.6z"/>
	<path fill="#F9F9FA" d="M159.4 19.8c-0.9 1.2-2.1 1.6-3.2 1.6c-3.6 0-5.8-2.7-5.8-6.1c0-3.5 2.2-6.2 5.8-6.2c2.4 0 4.7 1.5 5 4.2 h-2.5c-0.3-1.3-1.3-2-2.5-2c-2.3 0-3.2 2-3.2 4.1c0 2 0.9 4 3.2 4c1.7 0 2.7-0.9 2.8-2.5h-2.6v-1.9h5v6.4h-1.7L159.4 19.8z"/>
	<path fill="#F9F9FA" d="M171 21.1h-2.2V20h0c-0.6 1-1.6 1.4-2.6 1.4c-2.5 0-3.1-1.4-3.1-3.5v-5.3h2.3v4.8c0 1.4 0.4 2.1 1.5 2.1 c1.3 0 1.8-0.7 1.8-2.4v-4.5h2.3V21.1z"/>
	<path fill="#F9F9FA" d="M174.9 11.3h-2.3V9.3h2.3V11.3z M172.6 12.6h2.3v8.5h-2.3V12.6z"/>
	<path fill="#F9F9FA" d="M182.6 20.1L182.6 20.1c-0.6 0.9-1.5 1.3-2.6 1.3c-2.6 0-3.8-2.2-3.8-4.6c0-2.3 1.3-4.4 3.8-4.4 c1 0 2 0.4 2.5 1.3h0V9.3h2.3v11.8h-2.2V20.1z M180.6 14.1c-1.5 0-2.1 1.3-2.1 2.7c0 1.3 0.6 2.7 2.1 2.7c1.5 0 2-1.4 2-2.8 C182.6 15.5 182.1 14.1 180.6 14.1z"/>
	<path fill="#F9F9FA" d="M188.3 17.4c0.1 1.5 0.8 2.2 2.1 2.2c0.9 0 1.7-0.6 1.9-1.1h2.1c-0.7 2-2.1 2.9-4 2.9 c-2.7 0-4.4-1.9-4.4-4.5c0-2.6 1.8-4.5 4.4-4.5c2.9 0 4.3 2.4 4.1 5.1H188.3z M192.1 16c-0.2-1.2-0.7-1.8-1.9-1.8 c-1.5 0-1.9 1.2-2 1.8H192.1z"/>
</g>
</svg>
