<svg xmlns="http://www.w3.org/2000/svg" xmlns:xlink="http://www.w3.org/1999/xlink" version="1.1" id="Layer_1" x="0px" y="0px" width="502.6px" height="324px" viewBox="-36 0 502.6 324" enable-background="new -36 0 502.6 324" xml:space="preserve">
<pattern x="-36" y="324" width="72" height="72" patternUnits="userSpaceOnUse" id="SVGID_2_" viewBox="72.2 -72 72 72" overflow="visible">
	<g>
		<polygon fill="none" points="72.2,0 144.2,0 144.2,-72 72.2,-72"/>
		<g>
			<polygon fill="none" points="72.2,-72 144.2,-72 144.2,0 72.2,0"/>
			<g>
				<polygon fill="none" points="72.2,-72 144.2,-72 144.2,0 72.2,0"/>
				<g>
					<line fill="none" stroke="#5A5A5B" stroke-width="2.88" x1="144" y1="-3.6" x2="216.5" y2="-3.6"/>
					<line fill="none" stroke="#5A5A5B" stroke-width="2.88" x1="144" y1="-18" x2="216.5" y2="-18"/>
					<line fill="none" stroke="#5A5A5B" stroke-width="2.88" x1="144" y1="-32.4" x2="216.5" y2="-32.4"/>
					<line fill="none" stroke="#5A5A5B" stroke-width="2.88" x1="144" y1="-46.8" x2="216.5" y2="-46.8"/>
					<line fill="none" stroke="#5A5A5B" stroke-width="2.88" x1="144" y1="-61.2" x2="216.5" y2="-61.2"/>
					<line fill="none" stroke="#5A5A5B" stroke-width="2.88" x1="144" y1="-10.8" x2="216.5" y2="-10.8"/>
					<line fill="none" stroke="#5A5A5B" stroke-width="2.88" x1="144" y1="-25.2" x2="216.5" y2="-25.2"/>
					<line fill="none" stroke="#5A5A5B" stroke-width="2.88" x1="144" y1="-39.6" x2="216.5" y2="-39.6"/>
					<line fill="none" stroke="#5A5A5B" stroke-width="2.88" x1="144" y1="-54" x2="216.5" y2="-54"/>
					<line fill="none" stroke="#5A5A5B" stroke-width="2.88" x1="144" y1="-68.4" x2="216.5" y2="-68.4"/>
				</g>
				<g>
					<line fill="none" stroke="#5A5A5B" stroke-width="2.88" x1="72" y1="-3.6" x2="144.5" y2="-3.6"/>
					<line fill="none" stroke="#5A5A5B" stroke-width="2.88" x1="72" y1="-18" x2="144.5" y2="-18"/>
					<line fill="none" stroke="#5A5A5B" stroke-width="2.88" x1="72" y1="-32.4" x2="144.5" y2="-32.4"/>
					<line fill="none" stroke="#5A5A5B" stroke-width="2.88" x1="72" y1="-46.8" x2="144.5" y2="-46.8"/>
					<line fill="none" stroke="#5A5A5B" stroke-width="2.88" x1="72" y1="-61.2" x2="144.5" y2="-61.2"/>
					<line fill="none" stroke="#5A5A5B" stroke-width="2.88" x1="72" y1="-10.8" x2="144.5" y2="-10.8"/>
					<line fill="none" stroke="#5A5A5B" stroke-width="2.88" x1="72" y1="-25.2" x2="144.5" y2="-25.2"/>
					<line fill="none" stroke="#5A5A5B" stroke-width="2.88" x1="72" y1="-39.6" x2="144.5" y2="-39.6"/>
					<line fill="none" stroke="#5A5A5B" stroke-width="2.88" x1="72" y1="-54" x2="144.5" y2="-54"/>
					<line fill="none" stroke="#5A5A5B" stroke-width="2.88" x1="72" y1="-68.4" x2="144.5" y2="-68.4"/>
				</g>
				<g>
					<line fill="none" stroke="#5A5A5B" stroke-width="2.88" x1="0" y1="-3.6" x2="72.5" y2="-3.6"/>
					<line fill="none" stroke="#5A5A5B" stroke-width="2.88" x1="0" y1="-18" x2="72.5" y2="-18"/>
					<line fill="none" stroke="#5A5A5B" stroke-width="2.88" x1="0" y1="-32.4" x2="72.5" y2="-32.4"/>
					<line fill="none" stroke="#5A5A5B" stroke-width="2.88" x1="0" y1="-46.8" x2="72.5" y2="-46.8"/>
					<line fill="none" stroke="#5A5A5B" stroke-width="2.88" x1="0" y1="-61.2" x2="72.5" y2="-61.2"/>
					<line fill="none" stroke="#5A5A5B" stroke-width="2.88" x1="0" y1="-10.8" x2="72.5" y2="-10.8"/>
					<line fill="none" stroke="#5A5A5B" stroke-width="2.88" x1="0" y1="-25.2" x2="72.5" y2="-25.2"/>
					<line fill="none" stroke="#5A5A5B" stroke-width="2.88" x1="0" y1="-39.6" x2="72.5" y2="-39.6"/>
					<line fill="none" stroke="#5A5A5B" stroke-width="2.88" x1="0" y1="-54" x2="72.5" y2="-54"/>
					<line fill="none" stroke="#5A5A5B" stroke-width="2.88" x1="0" y1="-68.4" x2="72.5" y2="-68.4"/>
				</g>
			</g>
		</g>
	</g>
</pattern>
<g id="macbook" display="none">
	<g display="inline">
		<path fill="#3E3E3E" d="M-33.3 581.5h-213.5V313.2c0-8.1 6.5-14.6 14.6-14.6h199h188c8.1 0 14.6 6.5 14.6 14.6v268.3H-33.3z"/>
		<path fill="#E9E9E9" d="M224.1 581.5c0 12.1-9.6 21.9-21.5 21.9h-482.7c-11.9 0-21.5-9.8-21.5-21.9H224.1z"/>
		<path fill="#E9E9E9" d="M-32.3 302.4c1.9 0 3.4 1.5 3.4 3.4s-1.5 3.4-3.4 3.4c-1.9 0-3.4-1.5-3.4-3.4 C-35.8 303.9-34.2 302.4-32.3 302.4z"/>
		<path fill="#8AC9E4" d="M-235.9 566.9V313.2h394.3v253.7H-235.9z"/>
		<path fill="#B4B3B3" d="M-2.2 581.5c0 4-3.3 7.3-7.5 7.3h-58.1c-4.1 0-7.5-3.3-7.5-7.3H-2.2z"/>
	</g>
</g>
<g id="iPad" display="none">
</g>
<g id="iPhone" display="none">
</g>
<g id="WDA__x2F__WEX">
</g>
<g id="Network_Viz">
</g>
<g id="WEA">
</g>
<g id="Wealth_Management">
</g>
<g id="Principle_3">
</g>
<g id="Layer_1_1_">
</g>
<rect x="-36" fill="#ECECEC" width="502.6" height="324"/>
<rect x="91.3" y="125.3" fill="#C7C7C7" width="256.8" height="198.7"/>
<rect x="100.8" y="135.2" fill="#5A5A5B" width="237.9" height="81.8"/>
<rect x="-36" y="15.2" fill="#C7C7C7" width="502.6" height="99.8"/>
<g>
	<rect x="144.9" y="197.1" fill="#ECEBEB" width="149.7" height="9.8"/>
	<pattern id="SVGID_1_" xlink:href="#SVGID_2_" patternTransform="matrix(0.528 -0.4534 0.528 0.4534 -7161.2891 -796.5462)">
	</pattern>
	<rect x="144.9" y="197.1" fill="url(#SVGID_1_)" width="111.8" height="9.8"/>
</g>
<rect x="144.9" y="159.6" fill="#E0E0E0" width="105.4" height="5.2"/>
<rect x="144.9" y="152.1" fill="#E0E0E0" width="139" height="5.2"/>
<g>
	<g>
		<g>
			<g>
				<g opacity="0.75">
					<path fill="#5A5A5B" d="M226.6 61.3c-1.3 0.8-2.5 1.6-3.8 2.4c-1.3 0.9-2.5 1.8-3.8 2.7c-0.3 0.2-0.7 0.5-1 0.7 c-0.3 0.2-0.6 0.5-1 0.7c-0.6 0.5-1.3 1-1.9 1.5c-2.6 2-5.1 4-7.6 6.2c-2.3 2.1-4.5 4.2-6.7 6.4c0.3 0.4 0.6 0.8 0.9 1.2 c2.2-2.2 4.4-4.4 6.8-6.5c2.4-2.2 4.9-4.3 7.4-6.3c0.6-0.5 1.3-1 1.9-1.5c0.3-0.3 0.6-0.5 1-0.7c0.3-0.2 0.6-0.5 1-0.7 c1.3-0.9 2.5-1.8 3.8-2.7s2.5-1.7 3.7-2.5c0.2-0.1 0.3-0.2 0.4-0.3c-0.2-0.3-0.4-0.6-0.6-0.9C226.9 61.1 226.7 61.2 226.6 61.3 z"/>
					<path fill="#5A5A5B" d="M248.4 50.9c-0.7 0.3-1.4 0.5-2.2 0.8c-0.4 0.2-0.8 0.3-1.3 0.5c-0.4 0.2-0.9 0.4-1.3 0.5 c-0.9 0.4-1.9 0.8-2.9 1.2c-1 0.5-2.1 1-3.2 1.5c-0.7 0.3-1.3 0.6-1.9 1c0.1 0.2 0.3 0.3 0.4 0.5c0.1 0.1 0.1 0.1 0.2 0.2 c0.6-0.3 1.2-0.7 1.8-0.9c1.1-0.6 2.1-1.1 3.1-1.6s2-0.9 2.9-1.3c0.5-0.2 0.9-0.4 1.3-0.6c0.4-0.2 0.9-0.3 1.2-0.5 c0.8-0.3 1.5-0.6 2.2-0.9c0.7-0.3 1.3-0.5 1.8-0.7c-0.1-0.1-0.1-0.2-0.1-0.3l0 0C249.6 50.5 249 50.7 248.4 50.9z"/>
					<path fill="#5A5A5B" d="M194.9 88.6c0.3 0.4 0.6 0.8 0.9 1.3c1.6-2 3.3-3.9 5.2-5.9c-0.3-0.4-0.6-0.8-0.9-1.2 C198.2 84.7 196.5 86.6 194.9 88.6z"/>
					<path fill="#5A5A5B" d="M194.1 89.6c-0.4 0.6-0.9 1.1-1.3 1.6c0.4 0.4 0.7 0.7 1.1 1c0.4-0.5 0.7-0.9 1.1-1.4 C194.7 90.4 194.4 90 194.1 89.6z"/>
					<path fill="#5A5A5B" d="M234.9 56.6c-0.3 0.2-0.7 0.4-1 0.5c-0.6 0.3-1.2 0.6-1.8 0.9c-0.6 0.3-1.2 0.7-1.8 1 c-0.6 0.4-1.2 0.7-1.9 1.1c-0.2 0.1-0.3 0.2-0.5 0.3c0.2 0.3 0.4 0.6 0.6 0.9c0.2-0.1 0.3-0.2 0.5-0.3c0.6-0.4 1.2-0.8 1.8-1.1 c0.6-0.4 1.2-0.8 1.8-1.1c0.6-0.3 1.2-0.7 1.8-1c0.4-0.2 0.7-0.4 1.1-0.6c0-0.1-0.1-0.1-0.1-0.2 C235.2 57 235.1 56.8 234.9 56.6z"/>
				</g>
				<g opacity="0.5">
					<path fill="#5A5A5B" d="M209.6 38.8c1.1 1.2 2.2 2.4 3.2 3.5c-0.4 0.5-0.6 1-0.7 1.6c-0.3 1.9 1 3.6 2.9 3.9 c0.8 0.1 1.5-0.1 2.2-0.4c2.2 2.8 4.3 5.6 6.3 8.4c0.1 0.2 0.3 0.4 0.4 0.6c0.2 0.3 0.4 0.5 0.5 0.8c0.9 1.3 1.8 2.6 2.6 3.9 c0.2 0.3 0.4 0.6 0.6 0.9c2.5 3.8 4.8 7.6 6.8 11.3c3.1 5.8 5.8 11.4 7.8 16.7c0.1 0.3 0.2 0.5 0.3 0.8 c0.2-0.2 0.4-0.4 0.6-0.6c-0.1-0.2-0.1-0.3-0.2-0.5c-2-5.4-4.6-11.1-7.7-16.9c-2-3.8-4.2-7.6-6.7-11.5 c-0.2-0.3-0.4-0.6-0.6-0.9c-0.8-1.3-1.7-2.6-2.6-3.9c-0.2-0.3-0.4-0.5-0.5-0.8c-0.2-0.2-0.3-0.4-0.4-0.6 c-2-2.9-4.1-5.7-6.3-8.5c0.4-0.5 0.7-1 0.8-1.7c0.3-1.9-1-3.6-2.9-3.9c-0.8-0.1-1.5 0.1-2.2 0.4c-1.1-1.2-2.1-2.4-3.2-3.6 c-1.2-1.3-2.5-2.6-3.8-3.9c0.3 0 0.5-0.1 0.8-0.1c2.1-0.3 4.2-0.4 6.2-0.5c0.5 0 1-0.1 1.5-0.1c1.9-0.1 3.8-0.1 5.7 0 c4.3 0.1 8.3 0.4 12 0.9c0.9 0.1 1.8 0.3 2.7 0.4c0.2 0 0.4 0.1 0.6 0.1c-0.3-0.2-0.7-0.4-1-0.6c-0.8-0.1-1.5-0.2-2.3-0.3 c-3.7-0.5-7.8-0.8-12-0.9c-2-0.1-4.1-0.1-6.3 0c-0.5 0-1 0.1-1.5 0.1c-1.9 0.1-3.8 0.3-5.7 0.5c-0.4 0.1-0.8 0.1-1.3 0.2 c-0.6-0.6-1.2-1.2-1.8-1.7c-0.5 0.2-0.9 0.4-1.4 0.6c0.5 0.5 1 0.9 1.5 1.4c-2.2 0.4-4.4 0.8-6.6 1.4c-0.6 0.4-1.1 0.7-1.6 1.1 c2.9-0.9 5.9-1.5 8.8-2C206.6 35.7 208.1 37.2 209.6 38.8z M213.5 44.2c0.2-1.1 1.2-1.8 2.2-1.7c1.1 0.2 1.8 1.2 1.7 2.2 c-0.2 1.1-1.2 1.8-2.2 1.6C214.1 46.3 213.4 45.3 213.5 44.2z"/>
					<path fill="#5A5A5B" d="M199.4 94.7c-0.3-0.5-0.7-0.9-1-1.4c-0.7-0.9-1.4-1.9-2.1-2.9c-0.2-0.2-0.3-0.4-0.4-0.6 c-0.3-0.4-0.6-0.8-0.9-1.3c-0.3-0.4-0.6-0.8-0.9-1.2c-0.7-1.1-1.5-2.2-2.3-3.3c-0.1-0.2-0.3-0.4-0.4-0.6 c-0.1-0.1-0.1-0.2-0.2-0.3c-0.6-0.9-1.1-1.8-1.7-2.7c-2.6-4.1-5.3-8.6-7.8-13.4c0.1 1.2 0.2 2.4 0.4 3.6 c2.1 3.7 4.2 7.2 6.3 10.5c0.7 1 1.3 2 1.9 2.9c0.1 0.1 0.1 0.2 0.2 0.3s0.2 0.2 0.2 0.3c0.8 1.1 1.5 2.2 2.3 3.3 c0.4 0.5 0.7 1 1.1 1.5c0.3 0.4 0.6 0.8 0.9 1.3c0.1 0.1 0.2 0.2 0.3 0.4c0.7 1 1.5 2 2.2 2.9c0.4 0.5 0.7 0.9 1.1 1.4 c0.1 0.1 0.2 0.2 0.3 0.3c0.8 0.5 1.7 1 2.6 1.4c-0.3-0.4-0.6-0.8-0.9-1.2C200.1 95.6 199.7 95.2 199.4 94.7z"/>
				</g>
				<g>
					<path fill="#5A5A5B" d="M214.7 32.8c-0.1-0.1-0.1-0.1-0.2-0.1c-1-1-2.1-1.9-3.1-2.8c-0.5 0.1-1 0.2-1.4 0.3 c1.1 0.9 2.1 1.8 3.2 2.8C213.7 32.8 214.2 32.8 214.7 32.8z"/>
					<path fill="#5A5A5B" d="M239.3 61.9c-1.1-1.5-2.2-3.1-3.4-4.8c-0.1-0.1-0.1-0.1-0.2-0.2c-0.1-0.2-0.3-0.3-0.4-0.5 c-0.9-1.2-1.9-2.5-2.9-3.8c-0.2-0.3-0.4-0.6-0.6-0.8c-1.6-2.1-3.4-4.2-5.3-6.4c-3.3-3.9-7.1-7.9-11.4-12c-0.5 0-1 0-1.5 0.1 c0 0 0.1 0 0.1 0.1c4.5 4.2 8.6 8.4 12.2 12.4c1.8 2 3.4 4 5 5.9c0.1 0.1 0.2 0.2 0.3 0.3c0.2 0.3 0.5 0.5 0.7 0.8 c1.1 1.3 2 2.5 3 3.8c0.2 0.2 0.3 0.4 0.4 0.6c0 0.1 0.1 0.1 0.1 0.2c1.3 1.7 2.5 3.3 3.6 4.8c1.1 1.6 2.1 3 3 4.3 s1.7 2.5 2.3 3.5c0.7 1 1.2 1.9 1.7 2.6c0.9 1.4 1.4 2.2 1.4 2.2s-0.5-0.8-1.3-2.2c-0.4-0.7-0.9-1.6-1.6-2.7 c-0.7-1-1.4-2.2-2.2-3.6C241.4 64.9 240.4 63.4 239.3 61.9z"/>
					<path fill="#5A5A5B" d="M209.7 93c0.2-0.3 0.3-0.6 0.4-0.9c0.2-1.2-0.6-2.4-1.8-2.6c-0.5-0.1-0.9 0-1.3 0.2 c-1.7-2.1-3.4-4.3-5.1-6.6c-0.3-0.4-0.6-0.8-0.9-1.2c-1.1-1.5-2.1-3-3.2-4.5c-0.1-0.1-0.2-0.3-0.3-0.4c-0.5-0.8-1-1.5-1.5-2.3 c-3.7-5.6-7.3-11.6-10.4-17.9c-0.6-1.2-1.2-2.4-1.8-3.6c-0.2 0.7-0.5 1.3-0.6 2c0.4 0.8 0.8 1.6 1.2 2.3 c3.2 6.4 6.9 12.3 10.6 18c0.6 0.8 1.1 1.6 1.7 2.4c0.1 0.1 0.2 0.3 0.3 0.4c1.1 1.6 2.2 3.1 3.3 4.6c0.3 0.4 0.6 0.8 0.9 1.2 c1.7 2.2 3.4 4.3 5.1 6.4c-0.2 0.3-0.4 0.6-0.5 1c-0.2 1.2 0.6 2.4 1.8 2.6c0.6 0.1 1.1 0 1.5-0.3c2.3 2.6 4.7 5 7 7.3 c0.4 0 0.8 0 1.3 0C214.7 98.6 212.2 95.9 209.7 93z"/>
				</g>
			</g>
		</g>
	</g>
	<g>
		<path fill="#5A5A5B" d="M217.5 29.3c19.8 0 35.9 16.1 35.9 35.9S237.3 101 217.5 101s-35.9-16-35.9-35.9S197.7 29.3 217.5 29.3 M217.5 26.5c-10.3 0-20 4-27.3 11.3s-11.3 17-11.3 27.3s4 20 11.3 27.3s17 11.3 27.3 11.3s20-4 27.3-11.3s11.3-17 11.3-27.3 s-4-20-11.3-27.3S227.8 26.5 217.5 26.5L217.5 26.5z"/>
	</g>
</g>
<rect x="-36.3" y="0" fill="#959595" width="503.2" height="15.2"/>
<g>
	<circle fill="#07B5A0" cx="74.7" cy="176.1" r="19.5"/>
	<g>
		<path d="M77 183.2h-3v-9.5h-3.7v-2.2c2.1 0.1 4-0.7 4.3-2.9H77V183.2z"/>
	</g>
</g>
</svg>
