<?xml version="1.0" encoding="utf-8"?>
<!-- Generator: Adobe Illustrator 18.1.1, SVG Export Plug-In . SVG Version: 6.00 Build 0)  -->
<!DOCTYPE svg PUBLIC "-//W3C//DTD SVG 1.1//EN" "http://www.w3.org/Graphics/SVG/1.1/DTD/svg11.dtd">
<svg version="1.1" id="art" xmlns="http://www.w3.org/2000/svg" xmlns:xlink="http://www.w3.org/1999/xlink" x="0px" y="0px"
	 width="251.9px" height="51.4px" viewBox="0 0 251.9 51.4" enable-background="new 0 0 251.9 51.4" xml:space="preserve">
<path fill="#121212" d="M68.3,12.9h2.4V38h-2.4V12.9z"/>
<path fill="#121212" d="M75.3,12.9h10.6c4.2,0,8,1.5,8,6.1c0,2.6-1.8,5.1-4.4,5.6v0.1c3.2,0.4,5.3,2.8,5.3,6.1c0,2.4-0.8,7.1-9,7.1
	H75.3V12.9z M77.6,23.9h8.2c3.8,0,5.7-1.9,5.7-4.2c0-3.1-1.9-4.7-5.7-4.7h-8.2V23.9z M77.6,36h8.2c3.5,0,6.6-1.1,6.6-5.2
	c0-3.2-2.4-4.8-6.6-4.8h-8.2V36z"/>
<path fill="#121212" d="M97.9,12.9h3.5l8.7,22l8.6-22h3.5V38h-2.4V16.3h-0.1L111.2,38H109l-8.6-21.7h-0.1V38h-2.4V12.9z"/>
<path fill="#121212" d="M159,38h-5.5l-4.2-17.1h-0.1L145,38h-5.6l-6.6-25.1h5.5l4,17.1h0.1l4.4-17.1h5.2l4.3,17.3h0.1l4.1-17.3h5.4
	L159,38z"/>
<path fill="#121212" d="M164.6,25.4c0.3-4.6,4.5-6.1,8.5-6.1c3.6,0,8,0.8,8,5.2V34c0,1.6,0.2,3.3,0.6,4h-5.1
	c-0.2-0.6-0.3-1.2-0.4-1.8c-1.6,1.6-3.9,2.2-6.1,2.2c-3.5,0-6.2-1.7-6.2-5.4c0.1-8.3,12.3-3.8,12.1-7.9c0-2.1-1.5-2.5-3.2-2.5
	c-1.9,0-3.1,0.8-3.3,2.7H164.6z M176.1,29.1c-0.8,0.7-2.6,0.8-4.1,1.1c-1.5,0.3-2.9,0.8-2.9,2.7c0,1.8,1.4,2.3,3.1,2.3
	c3.9,0,4-3.1,4-4.2V29.1z"/>
<path fill="#121212" d="M190.2,19.9h3.7v3.3h-3.7v9c0,1.7,0.4,2.1,2.1,2.1c0.6,0,1.1,0,1.5-0.1V38c-0.8,0.1-1.9,0.2-2.9,0.2
	c-3.1,0-5.7-0.7-5.7-4.3V23.2h-3v-3.3h3v-5.4h5V19.9z"/>
<path fill="#121212" d="M199.9,32.1c0,2.1,1.9,3.1,3.8,3.1c1.4,0,3.3-0.6,3.3-2.3c0-1.5-2.1-2.1-5.7-2.8c-2.9-0.7-5.8-1.6-5.8-4.8
	c0-4.6,4-5.8,7.9-5.8c3.9,0,7.6,1.3,8,5.8h-4.7c-0.1-1.9-1.6-2.5-3.4-2.5c-1.1,0-2.8,0.2-2.8,1.7c0,1.8,2.8,2,5.7,2.7
	c2.9,0.7,5.8,1.7,5.8,5.1c0,4.8-4.2,6.3-8.3,6.3c-4.2,0-8.4-1.6-8.5-6.4H199.9z"/>
<path fill="#121212" d="M222.9,19.4c5.7,0,9.4,3.8,9.4,9.6c0,5.8-3.7,9.5-9.4,9.5c-5.7,0-9.4-3.8-9.4-9.5
	C213.5,23.2,217.2,19.4,222.9,19.4z M222.9,34.7c3.4,0,4.4-2.9,4.4-5.8c0-2.9-1-5.8-4.4-5.8c-3.4,0-4.4,2.9-4.4,5.8
	C218.5,31.9,219.5,34.7,222.9,34.7z"/>
<path fill="#121212" d="M234.1,19.9h4.7v2.5h0.1c1.3-2.1,3.4-3,5.5-3c5.3,0,6.6,3,6.6,7.5V38h-5V27.8c0-3-0.8-4.5-3.2-4.5
	c-2.7,0-3.9,1.5-3.9,5.2V38h-5V19.9z"/>
<path fill="#121212" d="M44.8,43.8c0.1-0.1,0.1-0.1,0.2-0.2c4.5-4.6,7.3-10.9,7.3-17.9c0-1.4-0.1-2.7-0.3-4c0,0,0,0,0,0l0,0l0,0
	c0,0,0,0,0,0c-0.7-4.6-2.7-8.8-5.5-12.2c0,0-0.1-0.1-0.1-0.1l0,0c-0.1-0.1-0.1-0.1-0.2-0.2C41.4,3.6,34.4,0,26.5,0
	C19.4,0,13,2.9,8.4,7.5c0,0-0.1,0.1-0.1,0.1l0,0C8.2,7.7,8.1,7.7,8.1,7.8c-4.5,4.6-7.3,11-7.3,17.9c0,1.4,0.1,2.7,0.3,4c0,0,0,0,0,0
	c0,0,0,0,0,0c0.7,4.6,2.7,8.8,5.5,12.2c0,0,0.1,0.1,0.1,0.1l0,0l0,0l0,0c0,0.1,0.1,0.1,0.2,0.2c4.7,5.6,11.8,9.2,19.7,9.2
	c7,0,13.4-2.8,18.1-7.4C44.6,43.9,44.7,43.9,44.8,43.8L44.8,43.8L44.8,43.8L44.8,43.8z M43.2,42.4c-3.2,3.1-9.2,3.4-15.6,0.9
	c2.4-1,4.7-2.4,7-4c0.5,0.4,1.2,0.6,1.9,0.6c1.9,0,3.4-1.5,3.4-3.4c0-0.5-0.1-1-0.4-1.5c1.9-1.9,3.6-4,4.9-6.1
	c1.9,5.4,1.7,10.3-1.1,13.2C43.3,42.2,43.3,42.3,43.2,42.4z M9.6,9.3C9.7,9.2,9.8,9.1,9.8,9c3.2-3.1,9.1-3.1,15.2-0.5c0,0,0,0,0,0
	c-2.8,1.4-5.6,3.1-8.3,5.4c-0.2,0.1-0.3,0.3-0.5,0.5C16,14.2,15.6,14,15.2,14c-1,0-1.8,0.8-1.8,1.8c0,0.3,0.1,0.7,0.3,0.9
	c-2.1,2.1-3.9,4.4-5.4,6.7C6.4,17.7,6.8,12.3,9.6,9.3z M38.1,33.6c-0.5-0.3-1-0.4-1.6-0.4c-1.9,0-3.4,1.5-3.4,3.4
	c0,0.4,0.1,0.8,0.2,1.2c-1.7,1.2-3.5,2.2-5.2,3.1c1.2-2.8,2.4-6.1,3.4-9.6c3-0.6,7-1.5,10.7-2.7C41.1,30.2,39.7,32,38.1,33.6z
	 M19.6,39.9c1.3,1,2.6,1.9,3.9,2.7c-1.4,0.4-2.7,0.7-4,0.9C19.5,42.5,19.5,41.2,19.6,39.9z M15.3,33.7c-0.3,0-0.6,0.1-0.9,0.2
	c-0.2-0.3-0.5-0.6-0.7-0.9c1.5,0,3-0.1,4.5-0.2c-0.2,1.5-0.5,3-0.6,4.3c-0.3-0.2-0.5-0.5-0.8-0.7c0.2-0.3,0.3-0.6,0.3-0.9
	C17.1,34.6,16.3,33.7,15.3,33.7z M14.2,17.3c0.3,0.2,0.7,0.3,1,0.3c1,0,1.8-0.8,1.8-1.8c0-0.4-0.1-0.7-0.3-1
	c0.1-0.1,0.3-0.2,0.4-0.4c2.3-1.9,4.8-3.4,7.3-4.6c-0.9,2-1.7,4.2-2.5,6.7c-2.1,0.1-3.7,1.8-3.7,3.9c0,0.3,0,0.6,0.1,0.8
	c-2.8,0.6-6.1,1.4-9,2.4C10.6,21.6,12.2,19.4,14.2,17.3z M33.7,11.2c-1.5-1.2-3.1-2.2-4.7-3c1.6-0.4,3.1-0.7,4.6-0.8
	C33.7,8.5,33.7,9.8,33.7,11.2z M46,20.2c-0.3,1.2-0.8,2.5-1.4,3.8c-0.6-1.2-1.3-2.4-2.1-3.6c0.1-0.2,0.2-0.4,0.3-0.7
	C44,19.9,45.1,20.1,46,20.2z M28.7,29.5c-0.5-1-1.4-1.6-2.6-1.6c-1.4,0-2.6,1.1-2.8,2.5c-0.9,0.1-1.7,0.2-2.5,0.3
	c0.4-2.1,0.8-4.2,1.3-6.2c2.1,0,3.8-1.7,3.9-3.8c0.8-0.1,1.5-0.2,2.3-0.3c0.2,0.5,0.7,0.8,1.3,0.8c0.7,0,1.3-0.5,1.4-1.2
	c0.7-0.1,1.4-0.1,2-0.2c-0.1,0.9-0.2,1.7-0.4,2.6c-0.9,0.1-1.7,0.8-1.7,1.8c0,0.7,0.4,1.3,1,1.6c-0.1,0.5-0.2,1-0.3,1.5
	c-0.1,0.6-0.3,1.1-0.5,1.7C30.4,29.2,29.5,29.4,28.7,29.5z M32.6,27.1c0.1-0.4,0.2-0.7,0.3-1.1c1-0.1,1.7-0.8,1.7-1.8
	c0-0.7-0.4-1.3-1-1.6c0.2-1,0.4-1.9,0.5-2.8c1-0.1,1.9-0.1,2.8-0.1c0.4,1.3,1.6,2.3,3,2.3c0.3,0,0.6-0.1,0.9-0.1
	c0.9,1.4,1.7,2.7,2.4,4.1c-2.8,1-6.5,2.1-11,3C32.3,28.3,32.5,27.7,32.6,27.1z M36.8,18.8c-0.9,0.1-1.7,0.1-2.5,0.2
	c0.2-1.4,0.4-2.7,0.5-4c0.4,0.4,0.9,0.8,1.3,1.2c0.4,0.4,0.8,0.8,1.2,1.2C36.9,17.8,36.8,18.3,36.8,18.8z M33.1,19.1
	c-0.8,0.1-1.5,0.1-2.2,0.2c-0.2-0.6-0.7-0.9-1.3-0.9c-0.7,0-1.3,0.6-1.4,1.3c-1,0.1-1.8,0.2-2.2,0.3c-0.2-1.1-0.8-2.1-1.8-2.7
	c0.9-2.8,1.9-5.4,2.9-7.7c2.2,1.1,4.4,2.6,6.5,4.4C33.5,15.6,33.3,17.3,33.1,19.1z M9,25.2c2.5-1.1,5.8-2.1,9.6-3.1
	c0.3,0.7,0.8,1.2,1.4,1.6c0,0.1,0,0.2-0.1,0.2c-0.6,2.5-1,4.7-1.4,6.8c-2.4,0.2-4.5,0.3-6.3,0.3C10.9,29.2,9.8,27.2,9,25.2z
	 M11.1,31.1c-1.8,0-3.3-0.2-4.4-0.4c0.3-1.5,0.8-3,1.5-4.5C9,27.9,10,29.5,11.1,31.1z M20.5,32.7c1.2-0.1,2.3-0.2,3.3-0.3
	c0.5,0.7,1.4,1.2,2.3,1.2c1.3,0,2.3-0.8,2.7-1.9c0.5-0.1,1-0.2,1.7-0.3c-1.1,3.6-2.6,7.2-4.1,10.2c-0.5,0.2-1,0.4-1.6,0.6
	c-1.8-0.9-3.5-2-5.2-3.2C19.8,37,20.1,34.9,20.5,32.7z M48.1,20.8c1.1,0.4,1.7,0.8,1.7,1.2c0,0,0,0,0,0c0,0.6-1,1.4-2.9,2.3
	C47.4,23.2,47.8,22,48.1,20.8z M48.4,19.2c0.1-0.6,0.2-1.2,0.2-1.7c0.2,0.6,0.5,1.3,0.6,2C49,19.4,48.7,19.3,48.4,19.2z M46.3,18.8
	c-1-0.1-2.1-0.2-3.3-0.2c-0.1-1.6-1.5-2.9-3.1-2.9c-0.4,0-0.7,0.1-1,0.2c-0.4-0.4-0.8-0.9-1.2-1.3c-0.9-0.9-1.8-1.7-2.7-2.4
	c0.1-1.8,0.1-3.5-0.1-5c4.2-0.2,7.7,1,9.7,3.3c0.4,0.4,0.7,0.9,1,1.3C46.6,13.6,46.8,16,46.3,18.8z M36.9,5.5c-0.7,0-1.5,0-2.3,0.1
	c-0.1-0.9-0.3-1.6-0.5-2.3C35.9,4,37.5,4.7,39,5.7C38.3,5.6,37.6,5.5,36.9,5.5z M32.1,2.9L32.1,2.9C32.2,2.9,32.2,2.9,32.1,2.9
	c0.7,0.2,1.1,1.2,1.3,2.9c-1.7,0.3-3.4,0.7-5.2,1.4C29.7,4.5,31.1,2.7,32.1,2.9z M5.2,30.5c-1-0.3-1.7-0.6-1.9-1l0,0c0,0,0,0,0,0
	c-0.5-0.6,0.8-1.8,3.5-3.2C6.1,27.7,5.5,29.1,5.2,30.5z M4.7,32.4c-0.1,0.6-0.2,1.2-0.2,1.8c-0.3-0.7-0.5-1.4-0.7-2.1
	C4.1,32.2,4.4,32.3,4.7,32.4z M6.4,32.7c1.8,0.3,4,0.4,6.3,0.4c0.4,0.5,0.8,0.9,1.2,1.4c-0.2,0.3-0.3,0.7-0.3,1c0,1,0.8,1.8,1.8,1.8
	c0.4,0,0.7-0.1,1-0.3c0.4,0.4,0.8,0.8,1.2,1.1c-0.2,2.1-0.3,4-0.2,5.6c-3.3,0.2-6-0.3-7.8-1.7c-0.5-0.5-0.9-1-1.3-1.5
	C6.7,38.7,6.1,35.9,6.4,32.7z M17.6,45.9c0.1,0.7,0.3,1.3,0.5,1.8c-1.4-0.5-2.7-1.2-3.9-1.9C15.2,46,16.4,46,17.6,45.9z M21,48.6
	L21,48.6C21,48.6,21,48.6,21,48.6c-0.7-0.4-1.1-1.4-1.3-2.8c1.7-0.2,3.5-0.7,5.3-1.3C23.3,47.3,21.8,49,21,48.6z M47.8,36
	c0.1-2.7-0.5-5.8-1.8-8.9c1.6-0.7,3-1.4,4.1-2.2c0,0.3,0,0.6,0,0.9C50.1,29.4,49.3,32.9,47.8,36z M26.5,2.1c0.9,0,1.8,0.1,2.6,0.2
	c-1,1-2.1,2.5-3.1,4.4c-3.5-1.5-7-2.2-10-2.1C19.2,3,22.7,2.1,26.5,2.1z M5.3,15.3c-0.1,2.8,0.6,6,2,9.2c-1.8,0.7-3.3,1.4-4.4,2.2
	c0-0.3,0-0.7,0-1C2.9,22,3.8,18.5,5.3,15.3z M26.5,49.3c-1.1,0-2.2-0.1-3.3-0.2c1-1.1,2.2-2.7,3.3-4.9c3.4,1.6,6.8,2.5,9.8,2.6
	c0.3,0,0.5,0,0.8,0C33.9,48.4,30.3,49.3,26.5,49.3z"/>
</svg>
