<?xml version="1.0" encoding="utf-8"?>
<!-- Generator: Adobe Illustrator 18.1.1, SVG Export Plug-In . SVG Version: 6.00 Build 0)  -->
<!DOCTYPE svg PUBLIC "-//W3C//DTD SVG 1.1//EN" "http://www.w3.org/Graphics/SVG/1.1/DTD/svg11.dtd">
<svg version="1.1" id="art" xmlns="http://www.w3.org/2000/svg" xmlns:xlink="http://www.w3.org/1999/xlink" x="0px" y="0px"
	 width="270px" height="113.7px" viewBox="0 0 270 113.7" enable-background="new 0 0 270 113.7" xml:space="preserve">
<rect x="2.9" y="2.2" fill="#ECECEC" width="25.1" height="75.1"/>
<rect x="210.8" y="2.2" fill="#ECECEC" width="25.1" height="75.1"/>
<g>
	<polygon fill="#5A5A5A" points="251.2,52.7 235.8,52.7 235.8,51.7 250.2,51.7 250.2,27.6 235.8,27.6 235.8,26.6 251.2,26.6 	"/>
</g>
<g>
	<path fill="#5A5A5A" d="M263.1,39.8l-2.9-3.9h1.7l2,2.9l2.1-2.9h1.6l-2.8,3.8l3.2,4.5h-1.7l-2.3-3.4l-2.3,3.4H260L263.1,39.8z"/>
</g>
<g>
	<polygon fill="#5A5A5A" points="251.2,27.8 235.8,27.8 235.8,26.8 250.2,26.8 250.2,2.7 235.8,2.7 235.8,1.7 251.2,1.7 	"/>
</g>
<g>
	<path fill="#5A5A5A" d="M263.1,14.8l-2.9-3.9h1.7l2,2.9l2.1-2.9h1.6l-2.8,3.8l3.2,4.5h-1.7l-2.3-3.4l-2.3,3.4H260L263.1,14.8z"/>
</g>
<g>
	<polygon fill="#5A5A5A" points="251.2,77.8 235.8,77.8 235.8,76.8 250.2,76.8 250.2,52.7 235.8,52.7 235.8,51.7 251.2,51.7 	"/>
</g>
<g>
	<path fill="#5A5A5A" d="M263.1,64.8l-2.9-3.9h1.7l2,2.9l2.1-2.9h1.6l-2.8,3.8l3.2,4.5h-1.7l-2.3-3.4l-2.3,3.4H260L263.1,64.8z"/>
</g>
<g>
	<polygon fill="#5A5A5A" points="236.3,92.6 210.3,92.6 210.3,77.3 211.3,77.3 211.3,91.6 235.3,91.6 235.3,77.3 236.3,77.3 	"/>
</g>
<g>
	<path fill="#5A5A5A" d="M223.2,104.6l-2.9-3.9h1.7l2,2.9l2.1-2.9h1.6l-2.8,3.8l3.2,4.5h-1.7l-2.3-3.4l-2.3,3.4h-1.6L223.2,104.6z"
		/>
</g>
<g>
	<polygon fill="#5A5A5A" points="28.5,92.6 2.4,92.6 2.4,77.3 3.4,77.3 3.4,91.6 27.5,91.6 27.5,77.3 28.5,77.3 	"/>
</g>
<g>
	<path fill="#5A5A5A" d="M15.3,104.6l-2.9-3.9h1.7l2,2.9l2.1-2.9h1.6l-2.8,3.8l3.2,4.5h-1.7l-2.3-3.4l-2.3,3.4h-1.6L15.3,104.6z"/>
</g>
<rect x="2.9" y="27.1" fill="#ECECEC" width="232.9" height="25.1"/>
<path fill="#121212" d="M28,27.1h2.4v25.1H28V27.1z"/>
<path fill="#121212" d="M34.9,27.1h10.6c4.2,0,8,1.5,8,6.1c0,2.6-1.8,5.1-4.4,5.6V39c3.2,0.4,5.3,2.8,5.3,6.1c0,2.4-0.8,7.1-9,7.1
	H34.9V27.1z M37.3,38.1h8.2c3.8,0,5.7-1.9,5.7-4.2c0-3.1-1.9-4.7-5.7-4.7h-8.2V38.1z M37.3,50.2h8.2c3.5,0,6.6-1.1,6.6-5.2
	c0-3.2-2.4-4.8-6.6-4.8h-8.2V50.2z"/>
<path fill="#121212" d="M57.6,27.1h3.5l8.7,22l8.6-22h3.5v25.1h-2.4V30.5h-0.1l-8.6,21.7h-2.2L60,30.5H60v21.7h-2.4V27.1z"/>
<path fill="#121212" d="M118.6,52.2h-5.5l-4.2-17.1h-0.1l-4.2,17.1h-5.6l-6.6-25.1H98l4,17.1h0.1l4.4-17.1h5.2l4.3,17.3h0.1
	l4.1-17.3h5.4L118.6,52.2z"/>
<path fill="#121212" d="M124.3,39.6c0.3-4.6,4.5-6.1,8.5-6.1c3.6,0,8,0.8,8,5.2v9.4c0,1.7,0.2,3.3,0.6,4h-5.1
	c-0.2-0.6-0.3-1.2-0.4-1.8c-1.6,1.7-3.9,2.2-6.1,2.2c-3.5,0-6.2-1.7-6.2-5.4c0.1-8.3,12.3-3.8,12.1-7.9c0-2.1-1.5-2.5-3.2-2.5
	c-1.9,0-3.1,0.8-3.3,2.7H124.3z M135.8,43.3c-0.8,0.7-2.6,0.8-4.1,1.1c-1.5,0.3-2.9,0.8-2.9,2.7c0,1.8,1.4,2.3,3.1,2.3
	c3.9,0,4-3.1,4-4.2V43.3z"/>
<path fill="#121212" d="M149.9,34h3.7v3.3h-3.7v9c0,1.7,0.4,2.1,2.1,2.1c0.6,0,1.1,0,1.5-0.1v3.9c-0.8,0.1-1.9,0.2-2.9,0.2
	c-3.1,0-5.7-0.7-5.7-4.3V37.4h-3V34h3v-5.4h5V34z"/>
<path fill="#121212" d="M159.6,46.3c0,2.1,1.9,3.1,3.8,3.1c1.4,0,3.3-0.6,3.3-2.3c0-1.5-2.1-2.1-5.7-2.8c-2.9-0.7-5.8-1.6-5.8-4.8
	c0-4.6,4-5.8,7.9-5.8c3.9,0,7.6,1.3,8,5.8h-4.7c-0.1-1.9-1.6-2.5-3.4-2.5c-1.1,0-2.8,0.2-2.8,1.7c0,1.8,2.8,2,5.7,2.7
	c2.9,0.7,5.8,1.7,5.8,5.1c0,4.8-4.2,6.3-8.3,6.3c-4.2,0-8.4-1.6-8.5-6.4H159.6z"/>
<path fill="#121212" d="M182.5,33.6c5.7,0,9.4,3.8,9.4,9.6c0,5.8-3.7,9.6-9.4,9.6c-5.7,0-9.4-3.8-9.4-9.6
	C173.1,37.4,176.8,33.6,182.5,33.6z M182.5,48.9c3.4,0,4.4-2.9,4.4-5.8s-1-5.8-4.4-5.8c-3.4,0-4.4,2.9-4.4,5.8
	S179.2,48.9,182.5,48.9z"/>
<path fill="#121212" d="M193.7,34h4.7v2.5h0.1c1.3-2.1,3.4-3,5.5-3c5.3,0,6.6,3,6.6,7.5v11.2h-5V42c0-3-0.8-4.5-3.2-4.5
	c-2.7,0-3.9,1.5-3.9,5.2v9.5h-5V34z"/>
<rect x="2.9" y="27.1" fill="#E0E0E0" width="25.1" height="25.1"/>
<rect x="210.8" y="27.1" fill="#E0E0E0" width="25.1" height="25.1"/>
<g>
	<g>
		<polygon fill="#C7C7C7" points="236.3,77.8 234.3,77.8 234.3,76.8 235.3,76.8 235.3,75.8 236.3,75.8 		"/>
	</g>
	<g>
		<path fill="#C7C7C7" d="M231.3,77.8h-3v-1h3V77.8z M225.4,77.8h-3v-1h3V77.8z M219.4,77.8h-3v-1h3V77.8z M213.4,77.8h-3v-1h3V77.8
			z M207.4,77.8h-3v-1h3V77.8z M201.5,77.8h-3v-1h3V77.8z M195.5,77.8h-3v-1h3V77.8z M189.5,77.8h-3v-1h3V77.8z M183.6,77.8h-3v-1h3
			V77.8z M177.6,77.8h-3v-1h3V77.8z M171.6,77.8h-3v-1h3V77.8z M165.6,77.8h-3v-1h3V77.8z M159.7,77.8h-3v-1h3V77.8z M153.7,77.8h-3
			v-1h3V77.8z M147.7,77.8h-3v-1h3V77.8z M141.7,77.8h-3v-1h3V77.8z M135.8,77.8h-3v-1h3V77.8z M129.8,77.8h-3v-1h3V77.8z
			 M123.8,77.8h-3v-1h3V77.8z M117.9,77.8h-3v-1h3V77.8z M111.9,77.8h-3v-1h3V77.8z M105.9,77.8h-3v-1h3V77.8z M99.9,77.8h-3v-1h3
			V77.8z M94,77.8h-3v-1h3V77.8z M88,77.8h-3v-1h3V77.8z M82,77.8h-3v-1h3V77.8z M76.1,77.8h-3v-1h3V77.8z M70.1,77.8h-3v-1h3V77.8z
			 M64.1,77.8h-3v-1h3V77.8z M58.1,77.8h-3v-1h3V77.8z M52.2,77.8h-3v-1h3V77.8z M46.2,77.8h-3v-1h3V77.8z M40.2,77.8h-3v-1h3V77.8z
			 M34.2,77.8h-3v-1h3V77.8z M28.3,77.8h-3v-1h3V77.8z M22.3,77.8h-3v-1h3V77.8z M16.3,77.8h-3v-1h3V77.8z M10.4,77.8h-3v-1h3V77.8z
			"/>
	</g>
	<g>
		<polygon fill="#C7C7C7" points="4.4,77.8 2.4,77.8 2.4,75.8 3.4,75.8 3.4,76.8 4.4,76.8 		"/>
	</g>
	<g>
		<path fill="#C7C7C7" d="M3.4,72.9h-1V70h1V72.9z M3.4,67.1h-1v-2.9h1V67.1z M3.4,61.4h-1v-2.9h1V61.4z M3.4,55.6h-1v-2.9h1V55.6z
			 M3.4,49.8h-1v-2.9h1V49.8z M3.4,44.1h-1v-2.9h1V44.1z M3.4,38.3h-1v-2.9h1V38.3z M3.4,32.5h-1v-2.9h1V32.5z M3.4,26.8h-1v-2.9h1
			V26.8z M3.4,21h-1v-2.9h1V21z M3.4,15.2h-1v-2.9h1V15.2z M3.4,9.5h-1V6.6h1V9.5z"/>
	</g>
	<g>
		<polygon fill="#C7C7C7" points="3.4,3.7 2.4,3.7 2.4,1.7 4.4,1.7 4.4,2.7 3.4,2.7 		"/>
	</g>
	<g>
		<path fill="#C7C7C7" d="M231.3,2.7h-3v-1h3V2.7z M225.4,2.7h-3v-1h3V2.7z M219.4,2.7h-3v-1h3V2.7z M213.4,2.7h-3v-1h3V2.7z
			 M207.4,2.7h-3v-1h3V2.7z M201.5,2.7h-3v-1h3V2.7z M195.5,2.7h-3v-1h3V2.7z M189.5,2.7h-3v-1h3V2.7z M183.6,2.7h-3v-1h3V2.7z
			 M177.6,2.7h-3v-1h3V2.7z M171.6,2.7h-3v-1h3V2.7z M165.6,2.7h-3v-1h3V2.7z M159.7,2.7h-3v-1h3V2.7z M153.7,2.7h-3v-1h3V2.7z
			 M147.7,2.7h-3v-1h3V2.7z M141.8,2.7h-3v-1h3V2.7z M135.8,2.7h-3v-1h3V2.7z M129.8,2.7h-3v-1h3V2.7z M123.8,2.7h-3v-1h3V2.7z
			 M117.9,2.7h-3v-1h3V2.7z M111.9,2.7h-3v-1h3V2.7z M105.9,2.7h-3v-1h3V2.7z M99.9,2.7h-3v-1h3V2.7z M94,2.7h-3v-1h3V2.7z M88,2.7
			h-3v-1h3V2.7z M82,2.7h-3v-1h3V2.7z M76.1,2.7h-3v-1h3V2.7z M70.1,2.7h-3v-1h3V2.7z M64.1,2.7h-3v-1h3V2.7z M58.1,2.7h-3v-1h3V2.7
			z M52.2,2.7h-3v-1h3V2.7z M46.2,2.7h-3v-1h3V2.7z M40.2,2.7h-3v-1h3V2.7z M34.2,2.7h-3v-1h3V2.7z M28.3,2.7h-3v-1h3V2.7z
			 M22.3,2.7h-3v-1h3V2.7z M16.3,2.7h-3v-1h3V2.7z M10.4,2.7h-3v-1h3V2.7z"/>
	</g>
	<g>
		<polygon fill="#C7C7C7" points="236.3,3.7 235.3,3.7 235.3,2.7 234.3,2.7 234.3,1.7 236.3,1.7 		"/>
	</g>
	<g>
		<path fill="#C7C7C7" d="M236.3,72.9h-1V70h1V72.9z M236.3,67.1h-1v-2.9h1V67.1z M236.3,61.4h-1v-2.9h1V61.4z M236.3,55.6h-1v-2.9
			h1V55.6z M236.3,49.8h-1v-2.9h1V49.8z M236.3,44.1h-1v-2.9h1V44.1z M236.3,38.3h-1v-2.9h1V38.3z M236.3,32.5h-1v-2.9h1V32.5z
			 M236.3,26.8h-1v-2.9h1V26.8z M236.3,21h-1v-2.9h1V21z M236.3,15.2h-1v-2.9h1V15.2z M236.3,9.5h-1V6.6h1V9.5z"/>
	</g>
</g>
</svg>
