<svg xmlns="http://www.w3.org/2000/svg" xmlns:xlink="http://www.w3.org/1999/xlink" version="1.1" id="art" x="0px" y="0px" width="182.8px" height="26.8px" viewBox="0 0 182.8 26.8" enable-background="new 0 0 182.8 26.8" xml:space="preserve">
<path fill="#121212" d="M0 0.4h2.4v25.1H0V0.4z"/>
<path fill="#121212" d="M7 0.4h10.6c4.2 0 8 1.5 8 6.1c0 2.6-1.8 5.1-4.4 5.6v0.1c3.2 0.4 5.3 2.8 5.3 6.1c0 2.4-0.8 7.1-9 7.1H7 V0.4z M9.3 11.4h8.2c3.8 0 5.7-1.9 5.7-4.2c0-3.1-1.9-4.7-5.7-4.7H9.3V11.4z M9.3 23.5h8.2c3.5 0 6.6-1.1 6.6-5.2 c0-3.2-2.4-4.8-6.6-4.8H9.3V23.5z"/>
<path fill="#121212" d="M29.6 0.4h3.5l8.7 22l8.6-22H54v25.1h-2.4V3.8h-0.1l-8.6 21.7h-2.2L32.1 3.8H32v21.7h-2.4V0.4z"/>
<path fill="#121212" d="M90.7 25.5h-5.5L81 8.4h-0.1l-4.2 17.1h-5.6L64.5 0.4H70l4 17.1h0.1l4.4-17.1h5.2l4.3 17.3h0.1L92 0.4h5.4 L90.7 25.5z"/>
<path fill="#121212" d="M96.3 12.9c0.3-4.6 4.5-6.1 8.5-6.1c3.6 0 8 0.8 8 5.2v9.4c0 1.7 0.2 3.3 0.6 4h-5.1 c-0.2-0.6-0.3-1.2-0.4-1.8c-1.6 1.7-3.9 2.2-6.1 2.2c-3.5 0-6.2-1.7-6.2-5.4c0.1-8.3 12.3-3.8 12.1-7.9c0-2.1-1.5-2.5-3.2-2.5 c-1.9 0-3.1 0.8-3.3 2.7H96.3z M107.8 16.6c-0.8 0.7-2.6 0.8-4.1 1.1c-1.5 0.3-2.9 0.8-2.9 2.7c0 1.8 1.4 2.3 3.1 2.3 c3.9 0 4-3.1 4-4.2V16.6z"/>
<path fill="#121212" d="M121.9 7.4h3.7v3.3h-3.7v9c0 1.7 0.4 2.1 2.1 2.1c0.6 0 1.1 0 1.5-0.1v3.9c-0.8 0.1-1.9 0.2-2.9 0.2 c-3.1 0-5.7-0.7-5.7-4.3V10.7h-3V7.4h3V1.9h5V7.4z"/>
<path fill="#121212" d="M131.6 19.6c0 2.1 1.9 3.1 3.8 3.1c1.4 0 3.3-0.6 3.3-2.3c0-1.5-2.1-2.1-5.7-2.8c-2.9-0.7-5.8-1.6-5.8-4.8 c0-4.6 4-5.8 7.9-5.8c3.9 0 7.6 1.3 8 5.8h-4.7c-0.1-1.9-1.6-2.5-3.4-2.5c-1.1 0-2.8 0.2-2.8 1.7c0 1.8 2.8 2 5.7 2.7 c2.9 0.7 5.8 1.7 5.8 5.1c0 4.8-4.2 6.3-8.3 6.3c-4.2 0-8.4-1.6-8.5-6.4H131.6z"/>
<path fill="#121212" d="M154.6 6.9c5.7 0 9.4 3.8 9.4 9.6c0 5.8-3.7 9.6-9.4 9.6c-5.7 0-9.4-3.8-9.4-9.6 C145.2 10.7 148.9 6.9 154.6 6.9z M154.6 22.2c3.4 0 4.4-2.9 4.4-5.8s-1-5.8-4.4-5.8c-3.4 0-4.4 2.9-4.4 5.8S151.2 22.2 154.6 22.2z "/>
<path fill="#121212" d="M165.8 7.4h4.7v2.5h0.1c1.3-2.1 3.4-3 5.5-3c5.3 0 6.6 3 6.6 7.5v11.2h-5V15.3c0-3-0.8-4.5-3.2-4.5 c-2.7 0-3.9 1.5-3.9 5.2v9.5h-5V7.4z"/>
</svg>
