<?xml version="1.0" encoding="utf-8"?>
<!-- Generator: Adobe Illustrator 18.1.1, SVG Export Plug-In . SVG Version: 6.00 Build 0)  -->
<!DOCTYPE svg PUBLIC "-//W3C//DTD SVG 1.1//EN" "http://www.w3.org/Graphics/SVG/1.1/DTD/svg11.dtd">
<svg version="1.1" id="Layer_1" xmlns="http://www.w3.org/2000/svg" xmlns:xlink="http://www.w3.org/1999/xlink" x="0px" y="0px"
	 width="502.6px" height="324px" viewBox="-108 127 502.6 324" enable-background="new -108 127 502.6 324" xml:space="preserve">
<g id="macbook" display="none">
	<g display="inline">
		<path fill="#3E3E3E" d="M-141.3,708.5h-213.5V440.2c0-8.1,6.5-14.6,14.6-14.6h199h188c8.1,0,14.6,6.5,14.6,14.6v268.3H-141.3z"/>
		<path fill="#E9E9E9" d="M116.1,708.5c0,12.1-9.6,21.9-21.5,21.9h-482.7c-11.9,0-21.5-9.8-21.5-21.9H116.1z"/>
		<path fill="#E9E9E9" d="M-140.3,429.4c1.9,0,3.4,1.5,3.4,3.4s-1.5,3.4-3.4,3.4c-1.9,0-3.4-1.5-3.4-3.4
			C-143.8,430.9-142.2,429.4-140.3,429.4z"/>
		<path fill="#8AC9E4" d="M-343.9,693.9V440.2H50.4v253.7H-343.9z"/>
		<path fill="#B4B3B3" d="M-110.2,708.5c0,4-3.3,7.3-7.5,7.3h-58.1c-4.1,0-7.5-3.3-7.5-7.3H-110.2z"/>
	</g>
</g>
<g id="iPad" display="none">
</g>
<g id="iPhone" display="none">
</g>
<g id="WDA__x2F__WEX">
</g>
<g id="Network_Viz">
</g>
<g id="WEA">
</g>
<g id="Wealth_Management">
</g>
<g id="Principle_3">
</g>
<g id="Layer_1_1_">
</g>
<rect x="-109" y="127" fill="#ECECEC" width="502.6" height="324"/>
<rect x="18.3" y="252.3" fill="#C7C7C7" width="256.8" height="198.7"/>
<rect x="27.8" y="262.2" fill="#5A5A5B" width="237.9" height="81.8"/>
<rect x="-109" y="142.2" fill="#C7C7C7" width="502.6" height="99.8"/>
<rect x="71.9" y="324.1" fill="#ECEBEB" width="149.7" height="9.8"/>
<g>
	<g>
		<defs>
			<rect id="SVGID_1_" x="71.9" y="324.1" width="111.8" height="9.8"/>
		</defs>
		<clipPath id="SVGID_2_">
			<use xlink:href="#SVGID_1_"  overflow="visible"/>
		</clipPath>
		<g clip-path="url(#SVGID_2_)">
			<defs>
				<polygon id="SVGID_3_" points="82.8,274.2 120.8,241.5 158.8,274.2 120.8,306.8 				"/>
			</defs>
			<clipPath id="SVGID_4_">
				<use xlink:href="#SVGID_3_"  overflow="visible"/>
			</clipPath>
			<polyline clip-path="url(#SVGID_4_)" fill="#5A5A5B" points="81.2,338.5 119.5,305.6 118.6,304.5 80.3,337.4 			"/>
			<polyline clip-path="url(#SVGID_4_)" fill="#5A5A5B" points="73.6,331.9 111.9,299.1 111,298 72.7,330.9 			"/>
			<polyline clip-path="url(#SVGID_4_)" fill="#5A5A5B" points="66,325.4 104.3,292.5 103.4,291.5 65.1,324.3 			"/>
			<polyline clip-path="url(#SVGID_4_)" fill="#5A5A5B" points="77.4,335.2 115.7,302.3 114.8,301.3 76.5,334.1 			"/>
			<polyline clip-path="url(#SVGID_4_)" fill="#5A5A5B" points="69.8,328.7 108.1,295.8 107.2,294.7 68.9,327.6 			"/>
		</g>
		<g clip-path="url(#SVGID_2_)">
			<defs>
				<polygon id="SVGID_5_" points="120.8,306.8 158.8,274.2 196.8,306.8 158.8,339.5 				"/>
			</defs>
			<clipPath id="SVGID_6_">
				<use xlink:href="#SVGID_5_"  overflow="visible"/>
			</clipPath>
			<polyline clip-path="url(#SVGID_6_)" fill="#5A5A5B" points="157.3,338.5 195.5,305.6 194.6,304.5 156.3,337.4 			"/>
			<polyline clip-path="url(#SVGID_6_)" fill="#5A5A5B" points="149.7,331.9 187.9,299.1 187,298 148.7,330.9 			"/>
			<polyline clip-path="url(#SVGID_6_)" fill="#5A5A5B" points="142.1,325.4 180.3,292.5 179.4,291.5 141.1,324.3 			"/>
			<polyline clip-path="url(#SVGID_6_)" fill="#5A5A5B" points="153.5,335.2 191.7,302.3 190.8,301.3 152.5,334.1 			"/>
			<polyline clip-path="url(#SVGID_6_)" fill="#5A5A5B" points="145.9,328.7 184.1,295.8 183.2,294.7 144.9,327.6 			"/>
			<polyline clip-path="url(#SVGID_6_)" fill="#5A5A5B" points="111.6,364.6 149.9,331.7 149,330.6 110.7,363.5 			"/>
			<polyline clip-path="url(#SVGID_6_)" fill="#5A5A5B" points="104,358.1 142.3,325.2 141.4,324.1 103.1,357 			"/>
			<polyline clip-path="url(#SVGID_6_)" fill="#5A5A5B" points="96.4,351.5 134.7,318.7 133.8,317.6 95.5,350.5 			"/>
			<polyline clip-path="url(#SVGID_6_)" fill="#5A5A5B" points="88.8,345 127.1,312.1 126.2,311.1 87.9,343.9 			"/>
			<polyline clip-path="url(#SVGID_6_)" fill="#5A5A5B" points="107.8,361.3 146.1,328.5 145.2,327.4 106.9,360.3 			"/>
			<polyline clip-path="url(#SVGID_6_)" fill="#5A5A5B" points="100.2,354.8 138.5,321.9 137.6,320.9 99.3,353.7 			"/>
			<polyline clip-path="url(#SVGID_6_)" fill="#5A5A5B" points="92.6,348.3 130.9,315.4 130,314.3 91.7,347.2 			"/>
			<polyline clip-path="url(#SVGID_6_)" fill="#5A5A5B" points="85,341.7 123.3,308.9 122.4,307.8 84.1,340.7 			"/>
		</g>
		<g clip-path="url(#SVGID_2_)">
			<defs>
				<polygon id="SVGID_7_" points="158.8,339.5 196.8,306.8 234.8,339.5 196.8,372.1 				"/>
			</defs>
			<clipPath id="SVGID_8_">
				<use xlink:href="#SVGID_7_"  overflow="visible"/>
			</clipPath>
			<polyline clip-path="url(#SVGID_8_)" fill="#5A5A5B" points="180.1,358.1 218.4,325.2 217.4,324.1 179.2,357 			"/>
			<polyline clip-path="url(#SVGID_8_)" fill="#5A5A5B" points="172.5,351.5 210.8,318.7 209.8,317.6 171.6,350.5 			"/>
			<polyline clip-path="url(#SVGID_8_)" fill="#5A5A5B" points="164.9,345 203.1,312.1 202.2,311.1 163.9,343.9 			"/>
			<polyline clip-path="url(#SVGID_8_)" fill="#5A5A5B" points="183.9,361.3 222.2,328.5 221.2,327.4 183,360.3 			"/>
			<polyline clip-path="url(#SVGID_8_)" fill="#5A5A5B" points="176.3,354.8 214.6,321.9 213.6,320.9 175.4,353.7 			"/>
			<polyline clip-path="url(#SVGID_8_)" fill="#5A5A5B" points="161.1,341.7 199.3,308.9 198.4,307.8 160.1,340.7 			"/>
		</g>
		<g clip-path="url(#SVGID_2_)">
			<defs>
				<polygon id="SVGID_9_" points="44.8,306.8 82.8,274.2 120.8,306.8 82.8,339.5 				"/>
			</defs>
			<clipPath id="SVGID_10_">
				<use xlink:href="#SVGID_9_"  overflow="visible"/>
			</clipPath>
			<polyline clip-path="url(#SVGID_10_)" fill="#5A5A5B" points="81.2,338.5 119.5,305.6 118.6,304.5 80.3,337.4 			"/>
			<polyline clip-path="url(#SVGID_10_)" fill="#5A5A5B" points="73.6,331.9 111.9,299.1 111,298 72.7,330.9 			"/>
			<polyline clip-path="url(#SVGID_10_)" fill="#5A5A5B" points="66,325.4 104.3,292.5 103.4,291.5 65.1,324.3 			"/>
			<polyline clip-path="url(#SVGID_10_)" fill="#5A5A5B" points="77.4,335.2 115.7,302.3 114.8,301.3 76.5,334.1 			"/>
			<polyline clip-path="url(#SVGID_10_)" fill="#5A5A5B" points="69.8,328.7 108.1,295.8 107.2,294.7 68.9,327.6 			"/>
			<polyline clip-path="url(#SVGID_10_)" fill="#5A5A5B" points="35.6,364.6 73.9,331.7 73,330.6 34.7,363.5 			"/>
		</g>
		<g clip-path="url(#SVGID_2_)">
			<defs>
				<polygon id="SVGID_11_" points="82.8,339.5 120.8,306.8 158.8,339.5 120.8,372.1 				"/>
			</defs>
			<clipPath id="SVGID_12_">
				<use xlink:href="#SVGID_11_"  overflow="visible"/>
			</clipPath>
			<polyline clip-path="url(#SVGID_12_)" fill="#5A5A5B" points="157.3,338.5 195.5,305.6 194.6,304.5 156.3,337.4 			"/>
			<polyline clip-path="url(#SVGID_12_)" fill="#5A5A5B" points="149.7,331.9 187.9,299.1 187,298 148.7,330.9 			"/>
			<polyline clip-path="url(#SVGID_12_)" fill="#5A5A5B" points="142.1,325.4 180.3,292.5 179.4,291.5 141.1,324.3 			"/>
			<polyline clip-path="url(#SVGID_12_)" fill="#5A5A5B" points="153.5,335.2 191.7,302.3 190.8,301.3 152.5,334.1 			"/>
			<polyline clip-path="url(#SVGID_12_)" fill="#5A5A5B" points="145.9,328.7 184.1,295.8 183.2,294.7 144.9,327.6 			"/>
			<polyline clip-path="url(#SVGID_12_)" fill="#5A5A5B" points="111.6,364.6 149.9,331.7 149,330.6 110.7,363.5 			"/>
			<polyline clip-path="url(#SVGID_12_)" fill="#5A5A5B" points="104,358.1 142.3,325.2 141.4,324.1 103.1,357 			"/>
			<polyline clip-path="url(#SVGID_12_)" fill="#5A5A5B" points="96.4,351.5 134.7,318.7 133.8,317.6 95.5,350.5 			"/>
			<polyline clip-path="url(#SVGID_12_)" fill="#5A5A5B" points="88.8,345 127.1,312.1 126.2,311.1 87.9,343.9 			"/>
			<polyline clip-path="url(#SVGID_12_)" fill="#5A5A5B" points="107.8,361.3 146.1,328.5 145.2,327.4 106.9,360.3 			"/>
			<polyline clip-path="url(#SVGID_12_)" fill="#5A5A5B" points="100.2,354.8 138.5,321.9 137.6,320.9 99.3,353.7 			"/>
			<polyline clip-path="url(#SVGID_12_)" fill="#5A5A5B" points="92.6,348.3 130.9,315.4 130,314.3 91.7,347.2 			"/>
			<polyline clip-path="url(#SVGID_12_)" fill="#5A5A5B" points="85,341.7 123.3,308.9 122.4,307.8 84.1,340.7 			"/>
		</g>
		<g clip-path="url(#SVGID_2_)">
			<defs>
				<polygon id="SVGID_13_" points="120.8,372.1 158.8,339.5 196.8,372.1 158.8,404.8 				"/>
			</defs>
			<clipPath id="SVGID_14_">
				<use xlink:href="#SVGID_13_"  overflow="visible"/>
			</clipPath>
			<polyline clip-path="url(#SVGID_14_)" fill="#5A5A5B" points="180.1,358.1 218.4,325.2 217.4,324.1 179.2,357 			"/>
			<polyline clip-path="url(#SVGID_14_)" fill="#5A5A5B" points="172.5,351.5 210.8,318.7 209.8,317.6 171.6,350.5 			"/>
			<polyline clip-path="url(#SVGID_14_)" fill="#5A5A5B" points="164.9,345 203.1,312.1 202.2,311.1 163.9,343.9 			"/>
			<polyline clip-path="url(#SVGID_14_)" fill="#5A5A5B" points="183.9,361.3 222.2,328.5 221.2,327.4 183,360.3 			"/>
			<polyline clip-path="url(#SVGID_14_)" fill="#5A5A5B" points="176.3,354.8 214.6,321.9 213.6,320.9 175.4,353.7 			"/>
			<polyline clip-path="url(#SVGID_14_)" fill="#5A5A5B" points="168.7,348.3 206.9,315.4 206,314.3 167.8,347.2 			"/>
			<polyline clip-path="url(#SVGID_14_)" fill="#5A5A5B" points="161.1,341.7 199.3,308.9 198.4,307.8 160.1,340.7 			"/>
		</g>
		<g clip-path="url(#SVGID_2_)">
			<defs>
				<polygon id="SVGID_15_" points="6.7,339.5 44.8,306.8 82.8,339.5 44.8,372.1 				"/>
			</defs>
			<clipPath id="SVGID_16_">
				<use xlink:href="#SVGID_15_"  overflow="visible"/>
			</clipPath>
			<polyline clip-path="url(#SVGID_16_)" fill="#5A5A5B" points="81.2,338.5 119.5,305.6 118.6,304.5 80.3,337.4 			"/>
			<polyline clip-path="url(#SVGID_16_)" fill="#5A5A5B" points="73.6,331.9 111.9,299.1 111,298 72.7,330.9 			"/>
			<polyline clip-path="url(#SVGID_16_)" fill="#5A5A5B" points="66,325.4 104.3,292.5 103.4,291.5 65.1,324.3 			"/>
			<polyline clip-path="url(#SVGID_16_)" fill="#5A5A5B" points="77.4,335.2 115.7,302.3 114.8,301.3 76.5,334.1 			"/>
			<polyline clip-path="url(#SVGID_16_)" fill="#5A5A5B" points="69.8,328.7 108.1,295.8 107.2,294.7 68.9,327.6 			"/>
			<polyline clip-path="url(#SVGID_16_)" fill="#5A5A5B" points="35.6,364.6 73.9,331.7 73,330.6 34.7,363.5 			"/>
		</g>
		<g clip-path="url(#SVGID_2_)">
			<defs>
				<polygon id="SVGID_17_" points="44.8,372.1 82.8,339.5 120.8,372.1 82.8,404.8 				"/>
			</defs>
			<clipPath id="SVGID_18_">
				<use xlink:href="#SVGID_17_"  overflow="visible"/>
			</clipPath>
			<polyline clip-path="url(#SVGID_18_)" fill="#5A5A5B" points="111.6,364.6 149.9,331.7 149,330.6 110.7,363.5 			"/>
			<polyline clip-path="url(#SVGID_18_)" fill="#5A5A5B" points="104,358.1 142.3,325.2 141.4,324.1 103.1,357 			"/>
			<polyline clip-path="url(#SVGID_18_)" fill="#5A5A5B" points="96.4,351.5 134.7,318.7 133.8,317.6 95.5,350.5 			"/>
			<polyline clip-path="url(#SVGID_18_)" fill="#5A5A5B" points="88.8,345 127.1,312.1 126.2,311.1 87.9,343.9 			"/>
			<polyline clip-path="url(#SVGID_18_)" fill="#5A5A5B" points="107.8,361.3 146.1,328.5 145.2,327.4 106.9,360.3 			"/>
			<polyline clip-path="url(#SVGID_18_)" fill="#5A5A5B" points="100.2,354.8 138.5,321.9 137.6,320.9 99.3,353.7 			"/>
			<polyline clip-path="url(#SVGID_18_)" fill="#5A5A5B" points="92.6,348.3 130.9,315.4 130,314.3 91.7,347.2 			"/>
			<polyline clip-path="url(#SVGID_18_)" fill="#5A5A5B" points="85,341.7 123.3,308.9 122.4,307.8 84.1,340.7 			"/>
		</g>
	</g>
</g>
<rect x="71.9" y="286.6" fill="#E0E0E0" width="105.4" height="5.2"/>
<rect x="71.9" y="279.1" fill="#E0E0E0" width="139" height="5.2"/>
<g>
	<g>
		<g>
			<g>
				<g opacity="0.75">
					<path fill="#5A5A5B" d="M153.6,188.3c-1.3,0.8-2.5,1.6-3.8,2.4c-1.3,0.9-2.5,1.8-3.8,2.7c-0.3,0.2-0.7,0.5-1,0.7
						c-0.3,0.2-0.6,0.5-1,0.7c-0.6,0.5-1.3,1-1.9,1.5c-2.6,2-5.1,4-7.6,6.2c-2.3,2.1-4.5,4.2-6.7,6.4c0.3,0.4,0.6,0.8,0.9,1.2
						c2.2-2.2,4.4-4.4,6.8-6.5c2.4-2.2,4.9-4.3,7.4-6.3c0.6-0.5,1.3-1,1.9-1.5c0.3-0.3,0.6-0.5,1-0.7c0.3-0.2,0.6-0.5,1-0.7
						c1.3-0.9,2.5-1.8,3.8-2.7c1.3-0.9,2.5-1.7,3.7-2.5c0.2-0.1,0.3-0.2,0.4-0.3c-0.2-0.3-0.4-0.6-0.6-0.9
						C153.9,188.1,153.7,188.2,153.6,188.3z"/>
					<path fill="#5A5A5B" d="M175.4,177.9c-0.7,0.3-1.4,0.5-2.2,0.8c-0.4,0.2-0.8,0.3-1.3,0.5c-0.4,0.2-0.9,0.4-1.3,0.5
						c-0.9,0.4-1.9,0.8-2.9,1.2c-1,0.5-2.1,1-3.2,1.5c-0.7,0.3-1.3,0.6-1.9,1c0.1,0.2,0.3,0.3,0.4,0.5c0.1,0.1,0.1,0.1,0.2,0.2
						c0.6-0.3,1.2-0.7,1.8-0.9c1.1-0.6,2.1-1.1,3.1-1.6s2-0.9,2.9-1.3c0.5-0.2,0.9-0.4,1.3-0.6c0.4-0.2,0.9-0.3,1.2-0.5
						c0.8-0.3,1.5-0.6,2.2-0.9c0.7-0.3,1.3-0.5,1.8-0.7c-0.1-0.1-0.1-0.2-0.1-0.3l0,0C176.6,177.5,176,177.7,175.4,177.9z"/>
					<path fill="#5A5A5B" d="M121.9,215.6c0.3,0.4,0.6,0.8,0.9,1.3c1.6-2,3.3-3.9,5.2-5.9c-0.3-0.4-0.6-0.8-0.9-1.2
						C125.2,211.7,123.5,213.6,121.9,215.6z"/>
					<path fill="#5A5A5B" d="M121.1,216.6c-0.4,0.6-0.9,1.1-1.3,1.6c0.4,0.4,0.7,0.7,1.1,1c0.4-0.5,0.7-0.9,1.1-1.4
						C121.7,217.4,121.4,217,121.1,216.6z"/>
					<path fill="#5A5A5B" d="M161.9,183.6c-0.3,0.2-0.7,0.4-1,0.5c-0.6,0.3-1.2,0.6-1.8,0.9s-1.2,0.7-1.8,1
						c-0.6,0.4-1.2,0.7-1.9,1.1c-0.2,0.1-0.3,0.2-0.5,0.3c0.2,0.3,0.4,0.6,0.6,0.9c0.2-0.1,0.3-0.2,0.5-0.3c0.6-0.4,1.2-0.8,1.8-1.1
						c0.6-0.4,1.2-0.8,1.8-1.1s1.2-0.7,1.8-1c0.4-0.2,0.7-0.4,1.1-0.6c0-0.1-0.1-0.1-0.1-0.2C162.2,184,162.1,183.8,161.9,183.6z"/>
				</g>
				<g opacity="0.5">
					<path fill="#5A5A5B" d="M136.6,165.8c1.1,1.2,2.2,2.4,3.2,3.5c-0.4,0.5-0.6,1-0.7,1.6c-0.3,1.9,1,3.6,2.9,3.9
						c0.8,0.1,1.5-0.1,2.2-0.4c2.2,2.8,4.3,5.6,6.3,8.4c0.1,0.2,0.3,0.4,0.4,0.6c0.2,0.3,0.4,0.5,0.5,0.8c0.9,1.3,1.8,2.6,2.6,3.9
						c0.2,0.3,0.4,0.6,0.6,0.9c2.5,3.8,4.8,7.6,6.8,11.3c3.1,5.8,5.8,11.4,7.8,16.7c0.1,0.3,0.2,0.5,0.3,0.8
						c0.2-0.2,0.4-0.4,0.6-0.6c-0.1-0.2-0.1-0.3-0.2-0.5c-2-5.4-4.6-11.1-7.7-16.9c-2-3.8-4.2-7.6-6.7-11.5
						c-0.2-0.3-0.4-0.6-0.6-0.9c-0.8-1.3-1.7-2.6-2.6-3.9c-0.2-0.3-0.4-0.5-0.5-0.8c-0.2-0.2-0.3-0.4-0.4-0.6
						c-2-2.9-4.1-5.7-6.3-8.5c0.4-0.5,0.7-1,0.8-1.7c0.3-1.9-1-3.6-2.9-3.9c-0.8-0.1-1.5,0.1-2.2,0.4c-1.1-1.2-2.1-2.4-3.2-3.6
						c-1.2-1.3-2.5-2.6-3.8-3.9c0.3,0,0.5-0.1,0.8-0.1c2.1-0.3,4.2-0.4,6.2-0.5c0.5,0,1-0.1,1.5-0.1c1.9-0.1,3.8-0.1,5.7,0
						c4.3,0.1,8.3,0.4,12,0.9c0.9,0.1,1.8,0.3,2.7,0.4c0.2,0,0.4,0.1,0.6,0.1c-0.3-0.2-0.7-0.4-1-0.6c-0.8-0.1-1.5-0.2-2.3-0.3
						c-3.7-0.5-7.8-0.8-12-0.9c-2-0.1-4.1-0.1-6.3,0c-0.5,0-1,0.1-1.5,0.1c-1.9,0.1-3.8,0.3-5.7,0.5c-0.4,0.1-0.8,0.1-1.3,0.2
						c-0.6-0.6-1.2-1.2-1.8-1.7c-0.5,0.2-0.9,0.4-1.4,0.6c0.5,0.5,1,0.9,1.5,1.4c-2.2,0.4-4.4,0.8-6.6,1.4c-0.6,0.4-1.1,0.7-1.6,1.1
						c2.9-0.9,5.9-1.5,8.8-2C133.6,162.7,135.1,164.2,136.6,165.8z M140.5,171.2c0.2-1.1,1.2-1.8,2.2-1.7c1.1,0.2,1.8,1.2,1.7,2.2
						c-0.2,1.1-1.2,1.8-2.2,1.6C141.1,173.3,140.4,172.3,140.5,171.2z"/>
					<path fill="#5A5A5B" d="M126.4,221.7c-0.3-0.5-0.7-0.9-1-1.4c-0.7-0.9-1.4-1.9-2.1-2.9c-0.2-0.2-0.3-0.4-0.4-0.6
						c-0.3-0.4-0.6-0.8-0.9-1.3c-0.3-0.4-0.6-0.8-0.9-1.2c-0.7-1.1-1.5-2.2-2.3-3.3c-0.1-0.2-0.3-0.4-0.4-0.6
						c-0.1-0.1-0.1-0.2-0.2-0.3c-0.6-0.9-1.1-1.8-1.7-2.7c-2.6-4.1-5.3-8.6-7.8-13.4c0.1,1.2,0.2,2.4,0.4,3.6
						c2.1,3.7,4.2,7.2,6.3,10.5c0.7,1,1.3,2,1.9,2.9c0.1,0.1,0.1,0.2,0.2,0.3s0.2,0.2,0.2,0.3c0.8,1.1,1.5,2.2,2.3,3.3
						c0.4,0.5,0.7,1,1.1,1.5c0.3,0.4,0.6,0.8,0.9,1.3c0.1,0.1,0.2,0.2,0.3,0.4c0.7,1,1.5,2,2.2,2.9c0.4,0.5,0.7,0.9,1.1,1.4
						c0.1,0.1,0.2,0.2,0.3,0.3c0.8,0.5,1.7,1,2.6,1.4c-0.3-0.4-0.6-0.8-0.9-1.2C127.1,222.6,126.7,222.2,126.4,221.7z"/>
				</g>
				<g>
					<path fill="#5A5A5B" d="M141.7,159.8c-0.1-0.1-0.1-0.1-0.2-0.1c-1-1-2.1-1.9-3.1-2.8c-0.5,0.1-1,0.2-1.4,0.3
						c1.1,0.9,2.1,1.8,3.2,2.8C140.7,159.8,141.2,159.8,141.7,159.8z"/>
					<path fill="#5A5A5B" d="M166.3,188.9c-1.1-1.5-2.2-3.1-3.4-4.8c-0.1-0.1-0.1-0.1-0.2-0.2c-0.1-0.2-0.3-0.3-0.4-0.5
						c-0.9-1.2-1.9-2.5-2.9-3.8c-0.2-0.3-0.4-0.6-0.6-0.8c-1.6-2.1-3.4-4.2-5.3-6.4c-3.3-3.9-7.1-7.9-11.4-12c-0.5,0-1,0-1.5,0.1
						c0,0,0.1,0,0.1,0.1c4.5,4.2,8.6,8.4,12.2,12.4c1.8,2,3.4,4,5,5.9c0.1,0.1,0.2,0.2,0.3,0.3c0.2,0.3,0.5,0.5,0.7,0.8
						c1.1,1.3,2,2.5,3,3.8c0.2,0.2,0.3,0.4,0.4,0.6c0,0.1,0.1,0.1,0.1,0.2c1.3,1.7,2.5,3.3,3.6,4.8c1.1,1.6,2.1,3,3,4.3
						s1.7,2.5,2.3,3.5c0.7,1,1.2,1.9,1.7,2.6c0.9,1.4,1.4,2.2,1.4,2.2s-0.5-0.8-1.3-2.2c-0.4-0.7-0.9-1.6-1.6-2.7
						c-0.7-1-1.4-2.2-2.2-3.6C168.4,191.9,167.4,190.4,166.3,188.9z"/>
					<path fill="#5A5A5B" d="M136.7,220c0.2-0.3,0.3-0.6,0.4-0.9c0.2-1.2-0.6-2.4-1.8-2.6c-0.5-0.1-0.9,0-1.3,0.2
						c-1.7-2.1-3.4-4.3-5.1-6.6c-0.3-0.4-0.6-0.8-0.9-1.2c-1.1-1.5-2.1-3-3.2-4.5c-0.1-0.1-0.2-0.3-0.3-0.4c-0.5-0.8-1-1.5-1.5-2.3
						c-3.7-5.6-7.3-11.6-10.4-17.9c-0.6-1.2-1.2-2.4-1.8-3.6c-0.2,0.7-0.5,1.3-0.6,2c0.4,0.8,0.8,1.6,1.2,2.3
						c3.2,6.4,6.9,12.3,10.6,18c0.6,0.8,1.1,1.6,1.7,2.4c0.1,0.1,0.2,0.3,0.3,0.4c1.1,1.6,2.2,3.1,3.3,4.6c0.3,0.4,0.6,0.8,0.9,1.2
						c1.7,2.2,3.4,4.3,5.1,6.4c-0.2,0.3-0.4,0.6-0.5,1c-0.2,1.2,0.6,2.4,1.8,2.6c0.6,0.1,1.1,0,1.5-0.3c2.3,2.6,4.7,5,7,7.3
						c0.4,0,0.8,0,1.3,0C141.7,225.6,139.2,222.9,136.7,220z"/>
				</g>
			</g>
		</g>
	</g>
	<g>
		<path fill="#5A5A5B" d="M144.5,156.3c19.8,0,35.9,16.1,35.9,35.9S164.3,228,144.5,228c-19.8,0-35.9-16-35.9-35.9
			S124.7,156.3,144.5,156.3 M144.5,153.5c-10.3,0-20,4-27.3,11.3s-11.3,17-11.3,27.3c0,10.3,4,20,11.3,27.3s17,11.3,27.3,11.3
			c10.3,0,20-4,27.3-11.3c7.3-7.3,11.3-17,11.3-27.3s-4-20-11.3-27.3C164.5,157.5,154.8,153.5,144.5,153.5L144.5,153.5z"/>
	</g>
</g>
<rect x="-109.3" y="127" fill="#959595" width="503.2" height="15.2"/>
<g>
	<circle fill="#07B5A0" cx="1.7" cy="303.1" r="19.5"/>
	<g>
		<path d="M4,310.2H1v-9.5h-3.7v-2.2c2.1,0.1,4-0.7,4.3-2.9H4V310.2z"/>
	</g>
</g>
</svg>
