<svg xmlns="http://www.w3.org/2000/svg" xmlns:xlink="http://www.w3.org/1999/xlink" version="1.1" id="Layer_1" x="0px" y="0px" width="502.6px" height="324px" viewBox="-36 0 502.6 324" enable-background="new -36 0 502.6 324" xml:space="preserve">
<rect x="-36.3" y="-1.8" fill="#FFFFFF" width="503.2" height="324"/>
<g id="macbook" display="none">
  <g display="inline">
    <path fill="#3E3E3E" d="M-33.3 581.5h-213.5V313.2c0-8.1 6.5-14.6 14.6-14.6h199h188c8.1 0 14.6 6.5 14.6 14.6v268.3H-33.3z"/>
    <path fill="#E9E9E9" d="M224.1 581.5c0 12.1-9.6 21.9-21.5 21.9h-482.7c-11.9 0-21.5-9.8-21.5-21.9H224.1z"/>
    <path fill="#E9E9E9" d="M-32.3 302.4c1.9 0 3.4 1.5 3.4 3.4s-1.5 3.4-3.4 3.4c-1.9 0-3.4-1.5-3.4-3.4 C-35.8 303.9-34.2 302.4-32.3 302.4z"/>
    <path fill="#8AC9E4" d="M-235.9 566.9V313.2h394.3v253.7H-235.9z"/>
    <path fill="#B4B3B3" d="M-2.2 581.5c0 4-3.3 7.3-7.5 7.3h-58.1c-4.1 0-7.5-3.3-7.5-7.3H-2.2z"/>
  </g>
</g>
<g id="iPad" display="none">
</g>
<g id="iPhone" display="none">
</g>
<g id="WDA__x2F__WEX">
</g>
<g id="Network_Viz">
</g>
<g id="WEA">
</g>
<g id="Wealth_Management">
</g>
<g id="Principle_3">
</g>
<g id="Layer_1_1_">
</g>
<rect x="-36.3" y="-1.8" fill="#ECECEC" width="503.2" height="324"/>
<rect x="-36.3" y="-1.8" fill="#959595" width="503.2" height="15.2"/>
<rect x="42.1" y="221.7" fill="#C7C7C7" width="82.1" height="99.8"/>
<rect x="134.6" y="221.7" fill="#C7C7C7" width="82.1" height="99.8"/>
<rect x="319.4" y="221.7" fill="#C7C7C7" width="82.1" height="99.8"/>
<rect x="227" y="221.7" fill="#C7C7C7" width="82.1" height="99.8"/>
<rect x="27.7" y="23.5" fill="#C7C7C7" width="373.8" height="33.5"/>
<polygon fill="#C7C7C7" points="371.3,190.9 57.7,190.9 57.7,68.9 58.2,68.9 58.2,190.4 371.3,190.4"/>
<path fill="none" stroke="#787778" stroke-width="0.9829" stroke-miterlimit="10" d="M57.9 200.6"/>
<path fill="#5A5A5B" d="M59.3 190.4c-0.1 0-0.2 0-0.4-0.1c-0.5-0.2-0.7-0.8-0.5-1.3l32.5-80.1l24.5 52.2l29.2-13.3l29.3-50.1l29 27 l29.4-46.9l29.7 84.8c0.2 0.5-0.1 1.1-0.6 1.3c-0.5 0.2-1.1-0.1-1.3-0.6l-28.3-80.9l-28.4 45.4l-29-27L146 149.3l-31.6 14.4 L91 113.8l-30.8 75.9C60.1 190.1 59.7 190.4 59.3 190.4z"/>
<path fill="#5A5A5B" d="M261.1 164c-0.2 0-0.3 0-0.5-0.1c-0.5-0.3-0.6-0.9-0.4-1.3l30.4-52.9l24 29.7l29.6-45.7 c0.3-0.5 0.9-0.6 1.4-0.3s0.6 0.9 0.3 1.4l-31.1 48l-23.9-29.6l-29 50.4C261.8 163.8 261.5 164 261.1 164z"/>
<rect x="42.1" y="200.8" fill="#5A5A5B" width="217.8" height="12.6"/>
<g>
  <circle fill="#07B5A0" cx="69.7" cy="69.1" r="19.5"/>
  <g>
    <path d="M72 76.2h-3v-9.5h-3.7v-2.2c2.1 0.1 4-0.7 4.3-2.9H72V76.2z"/>
  </g>
</g>
<g>
  <circle fill="#07B5A0" cx="13.4" cy="207.1" r="19.5"/>
  <g>
    <path d="M8.5 205.2c-0.1-3.4 1.8-5.9 5.3-5.9c2.7 0 5 1.7 5 4.6c0 4.5-4.7 4.8-6.9 7.8H19v2.6H8.2c0-3.4 2.1-4.8 4.6-6.6 c1.3-0.9 3.1-1.8 3.1-3.6c0-1.4-0.9-2.3-2.2-2.3c-1.8 0-2.3 1.8-2.3 3.4H8.5z"/>
  </g>
</g>
</svg>
