<svg xmlns="http://www.w3.org/2000/svg" xmlns:xlink="http://www.w3.org/1999/xlink" version="1.1" id="Layer_1" x="0px" y="0px" width="502.6px" height="324px" viewBox="-36 0 502.6 324" enable-background="new -36 0 502.6 324" xml:space="preserve">
<g id="macbook" display="none">
  <g display="inline">
    <path fill="#3E3E3E" d="M-321.3 871.5h-213.5V603.2c0-8.1 6.5-14.6 14.6-14.6h199h188c8.1 0 14.6 6.5 14.6 14.6v268.3H-321.3z"/>
    <path fill="#E9E9E9" d="M-63.9 871.5c0 12.1-9.6 21.9-21.5 21.9h-482.7c-11.9 0-21.5-9.8-21.5-21.9H-63.9z"/>
    <path fill="#E9E9E9" d="M-320.3 592.4c1.9 0 3.4 1.5 3.4 3.4s-1.5 3.4-3.4 3.4s-3.4-1.5-3.4-3.4 C-323.8 593.9-322.2 592.4-320.3 592.4z"/>
    <path fill="#8AC9E4" d="M-523.9 856.9V603.2h394.3v253.7H-523.9z"/>
    <path fill="#B4B3B3" d="M-290.2 871.5c0 4-3.3 7.3-7.5 7.3h-58.1c-4.1 0-7.5-3.3-7.5-7.3H-290.2z"/>
  </g>
</g>
<g id="iPad" display="none">
</g>
<g id="iPhone" display="none">
</g>
<g id="WDA__x2F__WEX">
</g>
<g id="Network_Viz">
</g>
<g id="WEA">
</g>
<g id="Wealth_Management">
</g>
<g id="Principle_3">
</g>
<g id="Layer_1_1_">
</g>
<rect x="-36" fill="#ECECEC" width="502.6" height="324"/>
<rect x="-36" y="0" fill="#959595" width="502.6" height="15.2"/>
<rect x="127.8" y="125.3" fill="#C7C7C7" width="256.8" height="198.7"/>
<rect x="-36" y="15.2" fill="#C7C7C7" width="502.6" height="99.8"/>
<rect x="-535.1" y="873.6" fill="#5A5A5B" width="58.1" height="6.5"/>
<rect x="-247.1" y="574.1" fill="#5A5A5B" width="68.4" height="6.5"/>
<rect x="-247.1" y="564.7" fill="#5A5A5B" width="76.1" height="6.5"/>
<rect x="-103.1" y="410.2" fill="#5A5A5B" width="74.4" height="6.5"/>
<rect x="-103.1" y="400.8" fill="#5A5A5B" width="71.2" height="6.5"/>
<rect x="40.9" y="240" fill="#5A5A5B" width="51.7" height="6.5"/>
<rect x="40.9" y="230.6" fill="#5A5A5B" width="76.1" height="6.5"/>
<rect x="40.9" y="221.1" fill="#5A5A5B" width="72.8" height="6.5"/>
<rect x="40.9" y="204.7" fill="#5A5A5B" width="51.7" height="10.3"/>
<g>
  <circle fill="#07B5A0" cx="60.7" cy="174.1" r="19.5"/>
  <g>
    <path d="M63 181.2h-3v-9.5h-3.7v-2.2c2.1 0.1 4-0.7 4.3-2.9H63V181.2z"/>
  </g>
</g>
</svg>
