<svg xmlns="http://www.w3.org/2000/svg" xmlns:xlink="http://www.w3.org/1999/xlink" version="1.1" id="Layer_1" x="0px" y="0px" width="502.6px" height="324px" viewBox="-36 0 502.6 324" enable-background="new -36 0 502.6 324" xml:space="preserve">
<g id="macbook" display="none">
  <g display="inline">
    <path fill="#3E3E3E" d="M-177.3 726.5h-213.5V458.2c0-8.1 6.5-14.6 14.6-14.6h199h188c8.1 0 14.6 6.5 14.6 14.6v268.3H-177.3z"/>
    <path fill="#E9E9E9" d="M80.1 726.5c0 12.1-9.6 21.9-21.5 21.9h-482.7c-11.9 0-21.5-9.8-21.5-21.9H80.1z"/>
    <path fill="#E9E9E9" d="M-176.3 447.4c1.9 0 3.4 1.5 3.4 3.4s-1.5 3.4-3.4 3.4s-3.4-1.5-3.4-3.4 C-179.8 448.9-178.2 447.4-176.3 447.4z"/>
    <path fill="#8AC9E4" d="M-379.9 711.9V458.2H14.4v253.7H-379.9z"/>
    <path fill="#B4B3B3" d="M-146.2 726.5c0 4-3.3 7.3-7.5 7.3h-58.1c-4.1 0-7.5-3.3-7.5-7.3H-146.2z"/>
  </g>
</g>
<g id="iPad" display="none">
</g>
<g id="iPhone" display="none">
</g>
<g id="WDA__x2F__WEX">
</g>
<g id="Network_Viz">
</g>
<g id="WEA">
</g>
<g id="Wealth_Management">
</g>
<g id="Principle_3">
</g>
<g id="Layer_1_1_">
</g>
<rect x="-36.4" y="-1.8" fill="#ECECEC" width="503.5" height="324"/>
<rect x="-36.4" y="-1.8" fill="#959595" width="503.5" height="15.2"/>
<rect x="-28.9" y="23.8" fill="#C7C7C7" width="92.4" height="153.7"/>
<rect x="-28.9" y="187.7" fill="#C7C7C7" width="92.4" height="83.1"/>
<rect x="73.2" y="23.8" fill="#C7C7C7" width="287.4" height="298.4"/>
<rect x="370.5" y="23.8" fill="#5A5A5B" width="87.6" height="184.5"/>
<rect x="82.7" y="33.7" fill="#F9F9F9" width="199.7" height="25.7"/>
<g>
  <path fill="#231F20" d="M95.9 40.7l1.8 10h-1l-0.5-3.1h-4.6l-1.8 3.1h-1l6.1-10H95.9z M96.1 46.7l-0.9-5.3l0 0l-3.1 5.3H96.1z"/>
  <path fill="#231F20" d="M99.8 49.2c0.1 0.2 0.3 0.4 0.5 0.6c0.2 0.1 0.4 0.2 0.7 0.3c0.2 0.1 0.5 0.1 0.7 0.1c0.2 0 0.4 0 0.6-0.1 c0.2-0.1 0.4-0.1 0.6-0.2c0.2-0.1 0.3-0.2 0.4-0.4c0.1-0.2 0.2-0.4 0.2-0.6c0-0.2-0.1-0.4-0.2-0.6c-0.1-0.2-0.3-0.3-0.4-0.4 c-0.2-0.1-0.4-0.2-0.6-0.3c-0.2-0.1-0.5-0.2-0.7-0.3c-0.2-0.1-0.5-0.2-0.7-0.3c-0.2-0.1-0.4-0.2-0.6-0.4c-0.2-0.2-0.3-0.3-0.4-0.5 s-0.2-0.5-0.2-0.8c0-0.4 0.1-0.7 0.3-0.9s0.4-0.5 0.6-0.6c0.3-0.2 0.6-0.3 0.9-0.4c0.3-0.1 0.6-0.1 0.9-0.1c0.4 0 0.7 0 1 0.1 s0.6 0.2 0.8 0.4c0.2 0.2 0.4 0.4 0.5 0.7c0.1 0.3 0.2 0.7 0.2 1.1h-0.9c0-0.3 0-0.5-0.1-0.7s-0.2-0.4-0.4-0.5s-0.3-0.2-0.6-0.3 c-0.3-0.1-0.4-0.1-0.7-0.1c-0.2 0-0.4 0-0.6 0.1c-0.2 0.1-0.4 0.1-0.6 0.2c-0.2 0.1-0.3 0.2-0.4 0.4c-0.1 0-0.1 0.3-0.1 0.5 s0 0.3 0.1 0.4s0.2 0.2 0.3 0.3s0.3 0.2 0.5 0.3c0.2 0.1 0.4 0.2 0.6 0.3c0.3 0.1 0.5 0.2 0.8 0.3c0.3 0.1 0.5 0.2 0.8 0.4 c0.2 0.2 0.4 0.3 0.6 0.6c0.2 0.2 0.2 0.5 0.2 0.8c0 0.4-0.1 0.8-0.3 1c-0.2 0.3-0.4 0.5-0.7 0.7c-0.3 0.2-0.6 0.3-0.9 0.4 c-0.3 0.1-0.7 0.1-1 0.1c-0.4 0-0.7 0-1-0.1s-0.6-0.2-0.9-0.4c-0.3-0.2-0.5-0.5-0.6-0.8s-0.2-0.7-0.2-1.2h0.9 C99.5 48.7 99.6 49 99.8 49.2z"/>
  <path fill="#231F20" d="M108.2 40.7l-1.3 6.3l0 0l4.2-3.5h1.2l-3.4 2.7l2.2 4.4h-1l-1.9-3.9l-1.5 1.3l-0.6 2.6h-0.9l2.1-10 L108.2 40.7L108.2 40.7z"/>
  <path fill="#231F20" d="M117.8 40.7l0.5 8.9l0 0l4.3-8.9h1.1l0.7 8.8l0 0l4.1-8.8h1l-4.8 10h-1l-0.7-9.1l0 0l-4.4 9.1h-1l-0.7-10 H117.8z"/>
  <path fill="#231F20" d="M129.2 44.5c0.2-0.3 0.4-0.5 0.7-0.7s0.6-0.3 0.9-0.4c0.3-0.1 0.7-0.1 1.1-0.1c0.2 0 0.5 0 0.8 0.1 c0.3 0 0.6 0.1 0.8 0.3c0.3 0.1 0.5 0.3 0.6 0.5s0.3 0.5 0.3 0.8c0 0.2 0 0.4 0 0.6c0 0.2-0.1 0.4-0.1 0.7c0 0.2-0.1 0.4-0.1 0.6 c-0.1 0.2-0.1 0.4-0.1 0.6c-0.1 0.4-0.2 0.7-0.2 1c-0.1 0.3-0.1 0.5-0.1 0.7s-0.1 0.3-0.1 0.4c0 0.1 0 0.2 0 0.3s0.1 0.2 0.2 0.2 c0.1 0 0.2 0 0.3 0c0.1 0 0.1 0 0.2 0c0.1 0 0.1 0 0.2 0l-0.1 0.7c-0.2 0-0.5 0.1-0.7 0.1c-0.5 0-0.8-0.3-0.8-0.8 c0-0.1 0-0.1 0-0.2c0-0.1 0-0.1 0-0.2l0 0c-0.3 0.4-0.6 0.7-1.1 1c-0.5 0.2-0.9 0.3-1.4 0.3c-0.3 0-0.6 0-0.9-0.1s-0.5-0.2-0.7-0.3 c-0.2-0.2-0.4-0.4-0.5-0.6c-0.1-0.3-0.2-0.6-0.2-0.9c0-0.4 0.1-0.7 0.2-1c0.1-0.3 0.3-0.5 0.6-0.6c0.3-0.1 0.5-0.3 0.8-0.4 c0.3-0.1 0.6-0.2 0.9-0.2c0.5-0.1 0.9-0.1 1.3-0.1c0.4 0 0.7 0 1-0.1c0.3-0.1 0.5-0.2 0.7-0.4c0.1-0.2 0.2-0.5 0.2-1 c0-0.2 0-0.4-0.1-0.5c-0.1-0.1-0.2-0.2-0.4-0.3c-0.1-0.1-0.3-0.1-0.5-0.2c-0.2 0-0.4 0-0.5 0c-0.3 0-0.5 0-0.8 0.1 s-0.5 0.1-0.7 0.3c-0.2 0.1-0.4 0.3-0.5 0.5c-0.1 0.2-0.2 0.5-0.3 0.8h-0.9C128.9 45.2 129.1 44.8 129.2 44.5z M133.1 46.8 c-0.1 0.1-0.2 0.2-0.3 0.2c-0.1 0.1-0.3 0.1-0.4 0.1c-0.1 0-0.3 0-0.5 0.1c-0.2 0-0.3 0-0.4 0c-0.3 0-0.6 0-0.9 0.1 c-0.3 0-0.6 0.1-0.9 0.2c-0.3 0.1-0.5 0.3-0.7 0.5s-0.3 0.5-0.3 0.9c0 0.2 0 0.4 0.1 0.6c0.1 0.2 0.2 0.3 0.4 0.4s0.3 0.2 0.5 0.2 s0.4 0.1 0.6 0.1c0.7 0 1.3-0.2 1.7-0.6c0.4-0.4 0.7-0.9 0.9-1.5L133.1 46.8L133.1 46.8z"/>
  <path fill="#231F20" d="M137.1 43.4l0.5-2.2h0.8l-0.5 2.2h1.5l-0.1 0.7h-1.5l-1 4.6c0 0.2-0.1 0.3-0.1 0.4s0 0.2 0 0.3 s0 0.2 0.1 0.4c0.1 0.1 0.2 0.2 0.4 0.2c0.3 0 0.7 0 1-0.1l-0.2 0.8c-0.1 0-0.3 0-0.4 0s-0.3 0-0.4 0c-0.2 0-0.3 0-0.5 0 c-0.2 0-0.3-0.1-0.4-0.1c-0.1-0.1-0.2-0.2-0.3-0.3c-0.1-0.1-0.1-0.3-0.1-0.5c0-0.1 0-0.2 0-0.3s0-0.3 0.1-0.4l1-4.8h-1.3l0.2-0.7 h1.2C137.1 43.6 137.1 43.4 137.1 43.4z"/>
  <path fill="#231F20" d="M140.4 49.2c0.1 0.2 0.3 0.4 0.5 0.6c0.2 0.1 0.4 0.2 0.7 0.3c0.2 0.1 0.5 0.1 0.7 0.1c0.2 0 0.4 0 0.6-0.1 s0.4-0.1 0.6-0.2c0.2-0.1 0.3-0.2 0.4-0.4c0.1-0.2 0.2-0.4 0.2-0.6c0-0.2-0.1-0.4-0.2-0.6c-0.1-0.2-0.3-0.3-0.4-0.4 c-0.2-0.1-0.4-0.2-0.6-0.3s-0.5-0.2-0.7-0.3c-0.2-0.1-0.5-0.2-0.7-0.3c-0.2-0.1-0.4-0.2-0.6-0.4s-0.3-0.3-0.4-0.5 c-0.1-0.2-0.2-0.5-0.2-0.8c0-0.4 0.1-0.7 0.3-0.9s0.4-0.5 0.6-0.6c0.3-0.2 0.6-0.3 0.9-0.4c0.3-0.1 0.6-0.1 0.9-0.1 c0.4 0 0.7 0 1 0.1c0.3 0.1 0.6 0.2 0.8 0.4s0.4 0.4 0.5 0.7c0.1 0.3 0.2 0.7 0.2 1.1h-0.9c0-0.3 0-0.5-0.1-0.7 c-0.1-0.2-0.2-0.4-0.4-0.5s-0.3-0.2-0.6-0.3c-0.3-0.1-0.4-0.1-0.7-0.1c-0.2 0-0.4 0-0.6 0.1s-0.4 0.1-0.6 0.2 c-0.2 0.1-0.3 0.2-0.4 0.4s-0.2 0.4-0.2 0.6c0 0.2 0 0.3 0.1 0.4s0.2 0.2 0.3 0.3c0.1 0.1 0.3 0.2 0.5 0.3s0.4 0.2 0.6 0.3 c0.3 0.1 0.5 0.2 0.8 0.3s0.5 0.2 0.8 0.4c0.2 0.2 0.4 0.3 0.6 0.6c0.2 0.2 0.2 0.5 0.2 0.8c0 0.4-0.1 0.8-0.3 1 c-0.2 0.3-0.4 0.5-0.7 0.7c-0.3 0.2-0.6 0.3-0.9 0.4c-0.3 0.1-0.7 0.1-1 0.1c-0.4 0-0.7 0-1-0.1s-0.6-0.2-0.9-0.4 c-0.3-0.2-0.5-0.5-0.6-0.8s-0.2-0.7-0.2-1.2h0.9C140.2 48.7 140.4 49 140.4 49.2z"/>
  <path fill="#231F20" d="M151.5 43.4c0.4 0.1 0.7 0.3 0.9 0.6c0.3 0.2 0.4 0.5 0.6 0.9c0.1 0.3 0.2 0.7 0.2 1.2 c0 0.6-0.1 1.2-0.3 1.8s-0.4 1.1-0.7 1.5c-0.3 0.4-0.7 0.8-1.2 1.1s-1.1 0.4-1.8 0.4c-0.9 0-1.6-0.3-2.1-0.8s-0.7-1.3-0.7-2.2 c0-0.6 0.1-1.2 0.3-1.7c0.2-0.6 0.4-1.1 0.8-1.5c0.3-0.4 0.8-0.8 1.3-1c0.5-0.3 1.1-0.4 1.7-0.4C150.8 43.2 151.1 43.3 151.5 43.4z M150.6 49.8c0.4-0.2 0.7-0.6 0.9-0.9s0.4-0.8 0.6-1.3c0.1-0.5 0.2-0.9 0.2-1.3c0-0.7-0.2-1.2-0.5-1.6c-0.4-0.4-0.9-0.6-1.6-0.6 c-0.5 0-0.9 0.1-1.3 0.4c-0.4 0.2-0.7 0.5-0.9 0.9c-0.3 0.4-0.4 0.8-0.6 1.2c-0.1 0.5-0.2 0.9-0.2 1.3c0 0.7 0.2 1.3 0.5 1.7 c0.4 0.4 0.9 0.7 1.6 0.7C149.9 50.1 150.2 50 150.6 49.8z"/>
  <path fill="#231F20" d="M156.1 43.4l-0.3 1.3l0 0c0.3-0.4 0.6-0.8 1.1-1.1s0.9-0.4 1.5-0.4c0.3 0 0.6 0 0.9 0.1 c0.3 0.1 0.5 0.2 0.7 0.3c0.2 0.2 0.3 0.4 0.5 0.6s0.2 0.5 0.2 0.9c0 0.2 0 0.5-0.1 0.9l-1 4.6h-0.9l1-4.7c0-0.1 0.1-0.2 0.1-0.4 s0-0.2 0-0.4s0-0.4-0.1-0.6s-0.2-0.3-0.3-0.4c-0.1-0.1-0.3-0.2-0.5-0.2s-0.4-0.1-0.6-0.1c-0.3 0-0.6 0.1-0.9 0.2 c-0.3 0.1-0.6 0.3-0.8 0.6c-0.3 0.3-0.5 0.6-0.7 0.9c-0.2 0.4-0.3 0.8-0.4 1.2l-0.8 3.7h-0.9l1.5-7.2h0.8V43.4z"/>
  <path fill="#231F20" d="M166.5 44.5c0.2-0.3 0.4-0.5 0.7-0.7c0.3-0.2 0.6-0.3 0.9-0.4c0.3-0.1 0.7-0.1 1.1-0.1c0.2 0 0.5 0 0.8 0.1 c0.3 0 0.6 0.1 0.8 0.3c0.3 0.1 0.5 0.3 0.6 0.5c0.1 0.2 0.3 0.5 0.3 0.8c0 0.2 0 0.4 0 0.6c0 0.2-0.1 0.4-0.1 0.7 c0 0.2-0.1 0.4-0.1 0.6c-0.1 0.2-0.1 0.4-0.1 0.6c-0.1 0.4-0.2 0.7-0.2 1c-0.1 0.3-0.1 0.5-0.1 0.7s-0.1 0.3-0.1 0.4 c0 0.1 0 0.2 0 0.3s0.1 0.2 0.2 0.2s0.2 0 0.3 0c0.1 0 0.1 0 0.2 0s0.1 0 0.2 0l-0.1 0.7c-0.2 0-0.5 0.1-0.7 0.1 c-0.5 0-0.8-0.3-0.8-0.8c0-0.1 0-0.1 0-0.2c0-0.1 0-0.1 0-0.2l0 0c-0.3 0.4-0.6 0.7-1.1 1c-0.5 0.2-0.9 0.3-1.4 0.3 c-0.3 0-0.6 0-0.9-0.1s-0.5-0.2-0.7-0.3c-0.2-0.2-0.4-0.4-0.5-0.6c-0.1-0.3-0.2-0.6-0.2-0.9c0-0.4 0.1-0.7 0.2-1 c0.1-0.3 0.3-0.5 0.6-0.6s0.5-0.3 0.8-0.4c0.3-0.1 0.6-0.2 0.9-0.2c0.5-0.1 0.9-0.1 1.3-0.1c0.4 0 0.7 0 1-0.1s0.5-0.2 0.7-0.4 c0.1-0.2 0.2-0.5 0.2-1c0-0.2 0-0.4-0.1-0.5c-0.1-0.1-0.2-0.2-0.4-0.3c-0.1-0.1-0.3-0.1-0.5-0.2c-0.2 0-0.4 0-0.5 0 c-0.3 0-0.5 0-0.8 0.1s-0.5 0.1-0.7 0.3c-0.2 0.1-0.4 0.3-0.5 0.5c-0.1 0.2-0.2 0.5-0.3 0.8h-0.9C166.2 45.2 166.4 44.8 166.5 44.5 z M170.5 46.8c-0.1 0.1-0.2 0.2-0.3 0.2c-0.1 0.1-0.3 0.1-0.4 0.1c-0.1 0-0.3 0-0.5 0.1c-0.2 0-0.3 0-0.4 0c-0.3 0-0.6 0-0.9 0.1 c-0.3 0-0.6 0.1-0.9 0.2c-0.3 0.1-0.5 0.3-0.7 0.5c-0.2 0.2-0.3 0.5-0.3 0.9c0 0.2 0 0.4 0.1 0.6c0.1 0.2 0.2 0.3 0.4 0.4 c0.2 0.1 0.3 0.2 0.5 0.2c0.2 0 0.4 0.1 0.6 0.1c0.7 0 1.3-0.2 1.7-0.6c0.4-0.4 0.7-0.9 0.9-1.5L170.5 46.8L170.5 46.8z"/>
  <path fill="#231F20" d="M181.2 53.3l0.9-3.9l0 0c-0.3 0.4-0.6 0.8-1 1.1c-0.4 0.3-0.9 0.4-1.5 0.4c-0.5 0-0.9-0.1-1.2-0.2 c-0.3-0.1-0.6-0.4-0.9-0.6c-0.2-0.3-0.4-0.6-0.5-1s-0.2-0.8-0.2-1.2c0-0.6 0.1-1.1 0.3-1.7s0.4-1 0.7-1.5c0.3-0.4 0.7-0.8 1.2-1.1 s1-0.4 1.6-0.4c0.6 0 1.1 0.1 1.6 0.4c0.4 0.3 0.7 0.7 0.9 1.2l0 0l0.3-1.4h0.8l-2.1 9.9H181.2z M179.4 44.3 c-0.4 0.2-0.7 0.6-1 0.9c-0.3 0.4-0.5 0.8-0.6 1.3s-0.2 0.9-0.2 1.4c0 0.7 0.2 1.2 0.5 1.6c0.3 0.4 0.9 0.6 1.6 0.6 c0.5 0 0.9-0.1 1.3-0.4c0.4-0.3 0.7-0.6 0.9-1c0.2-0.4 0.4-0.8 0.6-1.3c0.1-0.5 0.2-0.9 0.2-1.3c0-0.3 0-0.6-0.1-0.9 c-0.1-0.3-0.2-0.5-0.4-0.7c-0.2-0.2-0.4-0.4-0.6-0.5s-0.5-0.2-0.9-0.2C180.2 44 179.8 44.1 179.4 44.3z"/>
  <path fill="#231F20" d="M189.4 50.7l0.3-1.3l0 0c-0.3 0.4-0.6 0.8-1.1 1.1s-1 0.4-1.5 0.4c-0.3 0-0.6 0-0.9-0.1 c-0.3-0.1-0.5-0.2-0.7-0.3c-0.2-0.2-0.3-0.4-0.5-0.6c-0.1-0.2-0.2-0.5-0.2-0.9c0-0.2 0-0.5 0.1-0.9l1-4.6h0.9l-1 4.7 c0 0.1-0.1 0.2-0.1 0.4c0 0.1 0 0.2 0 0.4s0 0.4 0.1 0.6c0.1 0.2 0.2 0.3 0.3 0.4s0.3 0.2 0.5 0.2c0.2 0 0.4 0.1 0.6 0.1 c0.3 0 0.6-0.1 0.9-0.2c0.3-0.1 0.6-0.3 0.8-0.6c0.2-0.3 0.5-0.6 0.7-0.9c0.2-0.4 0.3-0.8 0.4-1.2l0.8-3.7h0.9l-1.6 7.2h-0.7 L189.4 50.7L189.4 50.7z"/>
  <path fill="#231F20" d="M193 47.8c0 0.3 0 0.6 0.1 0.9c0.1 0.3 0.2 0.5 0.4 0.7c0.2 0.2 0.4 0.4 0.7 0.5c0.3 0.1 0.6 0.2 0.9 0.2 c0.6 0 1.1-0.2 1.5-0.5s0.7-0.8 0.9-1.3h0.8c-0.2 0.8-0.6 1.4-1.2 1.9c-0.5 0.4-1.2 0.6-2.1 0.6c-1 0-1.7-0.3-2.2-0.8 s-0.7-1.3-0.7-2.2c0-0.6 0.1-1.1 0.3-1.7s0.4-1 0.8-1.5s0.7-0.8 1.2-1c0.5-0.3 1-0.4 1.7-0.4c0.4 0 0.8 0.1 1.2 0.2 c0.3 0.1 0.6 0.3 0.9 0.6c0.2 0.2 0.4 0.5 0.5 0.9c0.1 0.3 0.2 0.7 0.2 1.1c0 0.2 0 0.4 0 0.6c0 0.2 0 0.4-0.1 0.6h-5.7 C193 47.5 193 47.6 193 47.8z M197.9 46.3c0-0.1 0-0.2 0-0.3c0-0.6-0.2-1.1-0.5-1.5c-0.4-0.4-0.8-0.5-1.4-0.5c-0.4 0-0.7 0.1-1 0.2 c-0.3 0.1-0.6 0.3-0.8 0.6c-0.2 0.2-0.4 0.5-0.6 0.8s-0.3 0.6-0.3 1h4.7C197.9 46.4 197.9 46.3 197.9 46.3z"/>
  <path fill="#231F20" d="M200.4 49.2c0.1 0.2 0.3 0.4 0.5 0.6c0.2 0.1 0.4 0.2 0.7 0.3c0.2 0.1 0.5 0.1 0.7 0.1c0.2 0 0.4 0 0.6-0.1 s0.4-0.1 0.6-0.2c0.2-0.1 0.3-0.2 0.4-0.4s0.2-0.4 0.2-0.6c0-0.2-0.1-0.4-0.2-0.6c-0.1-0.2-0.3-0.3-0.4-0.4 c-0.2-0.1-0.4-0.2-0.6-0.3s-0.5-0.2-0.7-0.3s-0.5-0.2-0.7-0.3s-0.4-0.2-0.6-0.4c-0.2-0.2-0.3-0.3-0.4-0.5s-0.2-0.5-0.2-0.8 c0-0.4 0.1-0.7 0.3-0.9s0.4-0.5 0.6-0.6c0.3-0.2 0.6-0.3 0.9-0.4c0.3-0.1 0.6-0.1 0.9-0.1c0.4 0 0.7 0 1 0.1 c0.3 0.1 0.6 0.2 0.8 0.4c0.2 0.2 0.4 0.4 0.5 0.7c0.1 0.3 0.2 0.7 0.2 1.1h-0.9c0-0.3 0-0.5-0.1-0.7c-0.1-0.2-0.2-0.4-0.4-0.5 s-0.3-0.2-0.6-0.3c-0.3-0.1-0.4-0.1-0.7-0.1c-0.2 0-0.4 0-0.6 0.1s-0.4 0.1-0.6 0.2c-0.2 0.1-0.3 0.2-0.4 0.4s-0.2 0.4-0.2 0.6 c0 0.2 0 0.3 0.1 0.4c0.1 0.1 0.2 0.2 0.3 0.3s0.3 0.2 0.5 0.3c0.2 0.1 0.4 0.2 0.6 0.3c0.3 0.1 0.5 0.2 0.8 0.3s0.5 0.2 0.8 0.4 c0.2 0.2 0.4 0.3 0.6 0.6c0.2 0.2 0.2 0.5 0.2 0.8c0 0.4-0.1 0.8-0.3 1c-0.2 0.3-0.4 0.5-0.7 0.7c-0.3 0.2-0.6 0.3-0.9 0.4 c-0.3 0.1-0.7 0.1-1 0.1c-0.4 0-0.7 0-1-0.1s-0.6-0.2-0.9-0.4c-0.3-0.2-0.5-0.5-0.6-0.8s-0.2-0.7-0.2-1.2h0.9 C200 48.7 200.2 49 200.4 49.2z"/>
  <path fill="#231F20" d="M207.9 43.4l0.5-2.2h0.9l-0.5 2.2h1.4l-0.1 0.7h-1.5l-1 4.6c0 0.2-0.1 0.3-0.1 0.4s0 0.2 0 0.3 s0 0.2 0.1 0.4c0.1 0.1 0.2 0.2 0.4 0.2c0.3 0 0.7 0 1-0.1l-0.2 0.8c-0.1 0-0.3 0-0.4 0c-0.1 0-0.3 0-0.4 0c-0.2 0-0.3 0-0.5 0 s-0.3-0.1-0.4-0.1c-0.1-0.1-0.2-0.2-0.3-0.3s-0.1-0.3-0.1-0.5c0-0.1 0-0.2 0-0.3s0-0.3 0.1-0.4l1-4.8h-1.4l0.2-0.7h1.3V43.4z"/>
  <path fill="#231F20" d="M212.4 43.4l-1.6 7.2h-0.9l1.5-7.2H212.4z M213 40.7l-0.3 1.4h-0.9l0.3-1.4H213z"/>
  <path fill="#231F20" d="M218 43.4c0.4 0.1 0.7 0.3 0.9 0.6c0.3 0.2 0.4 0.5 0.6 0.9c0.1 0.3 0.2 0.7 0.2 1.2c0 0.6-0.1 1.2-0.3 1.8 c-0.2 0.6-0.4 1.1-0.7 1.5c-0.3 0.4-0.7 0.8-1.2 1.1s-1.1 0.4-1.8 0.4c-0.9 0-1.6-0.3-2.1-0.8s-0.7-1.3-0.7-2.2 c0-0.6 0.1-1.2 0.3-1.7c0.2-0.6 0.4-1.1 0.8-1.5c0.3-0.4 0.8-0.8 1.3-1c0.5-0.3 1.1-0.4 1.7-0.4C217.4 43.2 217.8 43.3 218 43.4z M217.2 49.8c0.4-0.2 0.7-0.6 0.9-0.9c0.2-0.3 0.4-0.8 0.6-1.3c0.1-0.5 0.2-0.9 0.2-1.3c0-0.7-0.2-1.2-0.5-1.6 c-0.4-0.4-0.9-0.6-1.6-0.6c-0.5 0-0.9 0.1-1.3 0.4c-0.4 0.2-0.7 0.5-0.9 0.9c-0.3 0.4-0.4 0.8-0.6 1.2c-0.1 0.5-0.2 0.9-0.2 1.3 c0 0.7 0.2 1.3 0.5 1.7c0.4 0.4 0.9 0.7 1.6 0.7C216.4 50.1 216.9 50 217.2 49.8z"/>
  <path fill="#231F20" d="M222.8 43.4l-0.3 1.3l0 0c0.3-0.4 0.6-0.8 1.1-1.1s0.9-0.4 1.5-0.4c0.3 0 0.6 0 0.9 0.1s0.5 0.2 0.7 0.3 c0.2 0.2 0.3 0.4 0.5 0.6s0.2 0.5 0.2 0.9c0 0.2 0 0.5-0.1 0.9l-1 4.6h-0.9l1-4.7c0-0.1 0.1-0.2 0.1-0.4s0-0.2 0-0.4s0-0.4-0.1-0.6 s-0.2-0.3-0.3-0.4c-0.1-0.1-0.3-0.2-0.5-0.2s-0.4-0.1-0.6-0.1c-0.3 0-0.6 0.1-0.9 0.2c-0.3 0.1-0.6 0.3-0.8 0.6 c-0.3 0.3-0.5 0.6-0.7 0.9c-0.2 0.4-0.3 0.8-0.4 1.2l-0.8 3.7h-0.9l1.5-7.2h0.8L222.8 43.4L222.8 43.4z"/>
</g>
<rect x="381.1" y="41.4" fill="#E0E0E0" width="57.7" height="5.2"/>
<rect x="380.9" y="33.9" fill="#E0E0E0" width="65.2" height="5.2"/>
<g>
  <circle fill="#07B5A0" cx="414.7" cy="116.1" r="19.5"/>
  <g>
    <path d="M417 123.2h-3v-9.5h-3.7v-2.2c2.1 0.1 4-0.7 4.3-2.9h2.4V123.2z"/>
  </g>
</g>
</svg>
